# Blender 4.2.3 LTS
# www.blender.org
mtllib pipe_pump_cube.mtl
o Cube
v 0.063612 0.250000 -0.250000
v 0.063612 -0.250000 -0.250000
v 0.063612 0.250000 0.250000
v 0.063612 -0.250000 0.250000
v -0.063612 0.250000 -0.250000
v -0.063612 -0.250000 -0.250000
v -0.063612 0.250000 0.250000
v -0.063612 -0.250000 0.250000
vn -0.0000 1.0000 -0.0000
vn -0.0000 -0.0000 1.0000
vn -1.0000 -0.0000 -0.0000
vn -0.0000 -1.0000 -0.0000
vn 1.0000 -0.0000 -0.0000
vn -0.0000 -0.0000 -1.0000
vt 0.666700 0.583300
vt 0.333300 0.916700
vt 0.333300 0.583300
vt 0.666700 0.916700
s 0
usemtl Material
f 5/1/1 3/2/1 1/3/1
f 3/1/2 8/2/2 4/3/2
f 7/1/3 6/2/3 8/3/3
f 2/1/4 8/2/4 6/3/4
f 1/1/5 4/2/5 2/3/5
f 5/1/6 2/2/6 6/3/6
f 5/1/1 7/4/1 3/2/1
f 3/1/2 7/4/2 8/2/2
f 7/1/3 5/4/3 6/2/3
f 2/1/4 4/4/4 8/2/4
f 1/1/5 3/4/5 4/2/5
f 5/1/6 1/4/6 2/2/6
o Arm
v -0.965582 -0.058829 0.058829
v -0.965582 0.058829 0.058829
v -0.965582 -0.058829 -0.058829
v -0.965582 0.058829 -0.058829
v 0.058913 -0.058829 0.058829
v 0.058913 0.058829 0.058829
v 0.058913 -0.058829 -0.058829
v 0.058913 0.058829 -0.058829
vn -1.0000 -0.0000 -0.0000
vn -0.0000 -0.0000 -1.0000
vn 1.0000 -0.0000 -0.0000
vn -0.0000 -0.0000 1.0000
vn -0.0000 -1.0000 -0.0000
vn -0.0000 1.0000 -0.0000
vt 0.625000 0.000000
vt 0.375000 0.250000
vt 0.375000 0.000000
vt 0.625000 0.250000
vt 0.375000 0.500000
vt 0.625000 0.500000
vt 0.375000 0.750000
vt 0.625000 0.750000
vt 0.375000 1.000000
vt 0.125000 0.750000
vt 0.125000 0.500000
vt 0.875000 0.500000
vt 0.625000 1.000000
vt 0.875000 0.750000
s 0
f 10/5/7 11/6/7 9/7/7
f 12/8/8 15/9/8 11/6/8
f 16/10/9 13/11/9 15/9/9
f 14/12/10 9/13/10 13/11/10
f 15/9/11 9/14/11 11/15/11
f 12/16/12 14/12/12 16/10/12
f 10/5/7 12/8/7 11/6/7
f 12/8/8 16/10/8 15/9/8
f 16/10/9 14/12/9 13/11/9
f 14/12/10 10/17/10 9/13/10
f 15/9/11 13/11/11 9/14/11
f 12/16/12 10/18/12 14/12/12
