# Blender 4.2.3 LTS
# www.blender.org
mtllib pipe_pump.mtl
o base
v -0.062500 -0.187500 0.187500
v -0.062500 0.187500 0.187500
v -0.062500 -0.187500 -0.187500
v -0.062500 0.187500 -0.187500
v 0.062500 -0.187500 0.187500
v 0.062500 0.187500 0.187500
v 0.062500 -0.187500 -0.187500
v 0.062500 0.187500 -0.187500
vn -1.0000 -0.0000 -0.0000
vn -0.0000 -0.0000 -1.0000
vn 1.0000 -0.0000 -0.0000
vn -0.0000 -0.0000 1.0000
vn -0.0000 -1.0000 -0.0000
vn -0.0000 1.0000 -0.0000
vt 0.500000 0.509382
vt 1.000000 0.509382
vt 1.000000 1.009382
vt 0.500000 1.009382
vt 1.000000 0.759382
vt 0.500000 0.759382
vt 0.500000 0.759382
vt 1.000000 0.759382
vt 0.750000 0.509382
vt 0.750000 1.009382
s 0
usemtl Material
f 1/1/1 2/2/1 4/3/1 3/4/1
f 3/1/2 4/2/2 8/5/2 7/6/2
f 7/1/3 8/2/3 6/3/3 5/4/3
f 5/7/4 6/8/4 2/3/4 1/4/4
f 3/1/5 7/9/5 5/10/5 1/4/5
f 8/9/6 4/2/6 2/3/6 6/10/6
o pump
v -0.187500 -0.125000 0.125000
v -0.187500 0.125000 0.125000
v -0.187500 -0.125000 -0.125000
v -0.187500 0.125000 -0.125000
v -0.062500 -0.125000 0.125000
v -0.062500 0.125000 0.125000
v -0.062500 -0.125000 -0.125000
v -0.062500 0.125000 -0.125000
vn -1.0000 -0.0000 -0.0000
vn -0.0000 -0.0000 -1.0000
vn 1.0000 -0.0000 -0.0000
vn -0.0000 -0.0000 1.0000
vn -0.0000 -1.0000 -0.0000
vn -0.0000 1.0000 -0.0000
vt 0.500000 0.509382
vt 1.000000 0.509382
vt 1.000000 1.009382
vt 0.500000 1.009382
vt 1.000000 0.759382
vt 0.500000 0.759382
vt 0.500000 0.759382
vt 1.000000 0.759382
vt 0.750000 0.509382
vt 0.750000 1.009382
s 0
usemtl Material.002
f 9/11/7 10/12/7 12/13/7 11/14/7
f 11/11/8 12/12/8 16/15/8 15/16/8
f 15/11/9 16/12/9 14/13/9 13/14/9
f 13/17/10 14/18/10 10/13/10 9/14/10
f 11/11/11 15/19/11 13/20/11 9/14/11
f 16/19/12 12/12/12 10/13/12 14/20/12
o arm
v -0.069381 -0.069381 0.093750
v -0.069381 0.069381 0.093750
v -0.069381 -0.069381 -0.093750
v -0.069381 0.069381 -0.093750
v 0.069381 -0.069381 0.093750
v 0.069381 0.069381 0.093750
v 0.069381 -0.069381 -0.093750
v 0.069381 0.069381 -0.093750
v -0.093750 -0.093750 0.093750
v -0.093750 0.093750 0.093750
v -0.093750 0.093750 -0.093750
v -0.093750 -0.093750 -0.093750
v 0.093750 -0.093750 -0.093750
v 0.093750 0.093750 -0.093750
v 0.093750 0.093750 0.093750
v 0.093750 -0.093750 0.093750
v -0.069381 0.069381 -0.073739
v -0.069381 -0.069381 -0.073739
v 0.069381 -0.069381 -0.073739
v 0.069381 0.069381 -0.073739
v -0.069381 -0.069381 0.073739
v -0.069381 0.069381 0.073739
v 0.069381 0.069381 0.073739
v 0.069381 -0.069381 0.073739
v -0.671810 -0.054264 0.054264
v -0.671810 0.054264 0.054264
v -0.671810 -0.054264 -0.054264
v -0.671810 0.054264 -0.054264
v 0.019959 -0.054264 0.054264
v 0.019959 0.054264 0.054264
v 0.019959 -0.054264 -0.054264
v 0.019959 0.054264 -0.054264
vn -1.0000 -0.0000 -0.0000
vn 1.0000 -0.0000 -0.0000
vn -0.0000 1.0000 -0.0000
vn -0.0000 -1.0000 -0.0000
vn -0.0000 -0.0000 1.0000
vn -0.0000 -0.0000 -1.0000
vt 0.000000 0.500000
vt 0.500000 0.500000
vt 0.500000 1.000000
vt 0.000000 1.000000
vt 0.435017 0.935017
vt 0.064983 0.935017
vt 0.064983 0.564983
vt 0.435017 0.564983
vt 0.000000 0.000000
vt 1.000000 0.000000
vt 1.000000 1.000000
vt 0.000000 0.562500
vt 0.500000 0.562500
vt 0.500000 0.937500
vt 0.000000 0.937500
vt 0.062500 0.500000
vt 0.062500 1.000000
vt 0.437500 0.500000
vt 0.437500 1.000000
s 0
usemtl Material
f 25/21/13 26/22/13 27/23/13 28/24/13
f 24/25/13 23/26/13 35/26/13 36/25/13
f 29/21/14 30/22/14 31/23/14 32/24/14
f 17/26/15 21/27/15 40/27/15 37/26/15
f 28/21/16 29/22/16 32/23/16 25/24/16
f 30/21/15 27/22/15 26/23/15 31/24/15
f 17/26/17 18/25/17 26/23/17 25/24/17
f 20/28/18 19/27/18 28/21/18 27/22/18
f 19/27/18 23/26/18 29/24/18 28/21/18
f 24/25/18 20/28/18 27/22/18 30/23/18
f 23/26/18 24/25/18 30/23/18 29/24/18
f 22/28/17 21/27/17 32/21/17 31/22/17
f 21/27/17 17/26/17 25/24/17 32/21/17
f 18/25/17 22/28/17 31/22/17 26/23/17
f 34/27/18 33/28/18 36/25/18 35/26/18
f 23/26/15 19/27/15 34/27/15 35/26/15
f 20/28/16 24/25/16 36/25/16 33/28/16
f 19/27/14 20/28/14 33/28/14 34/27/14
f 40/27/17 39/28/17 38/25/17 37/26/17
f 18/25/14 17/26/14 37/26/14 38/25/14
f 22/28/16 18/25/16 38/25/16 39/28/16
f 21/27/13 22/28/13 39/28/13 40/27/13
f 41/29/13 42/30/13 44/31/13 43/24/13
f 43/32/18 44/33/18 48/23/18 47/24/18
f 47/29/14 48/30/14 46/31/14 45/24/14
f 45/21/17 46/22/17 42/34/17 41/35/17
f 43/36/16 47/22/16 45/23/16 41/37/16
f 48/21/15 44/38/15 42/39/15 46/24/15
