# Blender 4.2.3 LTS
# www.blender.org
mtllib waterwheel_generator.mtl
o base
v 0.000000 0.000000 1.000000
v 0.000000 0.000000 0.000000
v 0.000000 0.062500 -0.000000
v 0.000000 0.062500 1.000000
v 1.000000 0.000000 0.000000
v 1.000000 0.062500 -0.000000
v 1.000000 0.000000 1.000000
v 1.000000 0.062500 1.000000
v 0.636724 0.034864 0.221242
v 0.636724 0.034864 0.158742
v 0.501529 0.459093 0.158742
v 0.501529 0.459093 0.221242
v 0.696165 0.054178 0.158742
v 0.560971 0.478407 0.158742
v 0.696165 0.054178 0.221242
v 0.560971 0.478407 0.221242
v 0.303835 0.054178 0.221242
v 0.303835 0.054178 0.158742
v 0.439029 0.478407 0.158742
v 0.439029 0.478407 0.221242
v 0.363276 0.034864 0.158742
v 0.498471 0.459093 0.158742
v 0.363276 0.034864 0.221242
v 0.498471 0.459093 0.221242
v 0.636724 0.034864 0.663974
v 0.636724 0.034864 0.601474
v 0.501529 0.459093 0.601474
v 0.501529 0.459093 0.663974
v 0.696165 0.054178 0.601474
v 0.560971 0.478407 0.601474
v 0.696165 0.054178 0.663974
v 0.560971 0.478407 0.663974
v 0.303835 0.054178 0.663974
v 0.303835 0.054178 0.601474
v 0.439029 0.478407 0.601474
v 0.439029 0.478407 0.663974
v 0.363276 0.034864 0.601474
v 0.498471 0.459093 0.601474
v 0.363276 0.034864 0.663974
v 0.498471 0.459093 0.663974
v 0.343750 0.343750 1.005003
v 0.343750 0.343750 0.683890
v 0.343750 0.656250 0.683890
v 0.343750 0.656250 1.005003
v 0.656250 0.343750 0.683890
v 0.656250 0.656250 0.683890
v 0.656250 0.343750 1.005003
v 0.656250 0.656250 1.005003
v 0.415254 0.343279 0.928511
v 0.415254 0.343279 0.759019
v 0.584746 0.343279 0.759019
v 0.584746 0.343279 0.928511
v 0.415254 0.064929 0.928511
v 0.415254 0.064929 0.759019
v 0.584746 0.064929 0.759019
v 0.584746 0.064929 0.928511
vn -1.0000 -0.0000 -0.0000
vn -0.0000 -0.0000 -1.0000
vn 1.0000 -0.0000 -0.0000
vn -0.0000 -0.0000 1.0000
vn -0.0000 -1.0000 -0.0000
vn -0.0000 1.0000 -0.0000
vn -0.9528 -0.3036 -0.0000
vn 0.9528 0.3036 -0.0000
vn 0.3090 -0.9511 -0.0000
vn -0.3090 0.9511 -0.0000
vn -0.9528 0.3036 -0.0000
vn 0.9528 -0.3036 -0.0000
vn -0.3090 -0.9511 -0.0000
vn 0.3090 0.9511 -0.0000
vn -0.0000 -1.0000 0.0062
vn 0.0066 -1.0000 -0.0000
vn -0.0000 -1.0000 -0.0063
vn -0.0066 -1.0000 -0.0000
vt 0.005093 0.012807
vt 0.005093 0.985359
vt 0.313425 0.985359
vt 0.313425 0.012807
vt 0.842290 0.689543
vt 0.898796 0.771158
vt 0.898796 0.689543
vt 0.842290 0.771158
vt 0.923640 0.771158
vt 0.867134 0.771158
vt 0.923640 0.689543
vt 0.816168 0.689543
vt 0.759662 0.771158
vt 0.759662 0.689543
vt 0.841012 0.771158
vt 0.784506 0.771158
vt 0.784506 0.689543
vt 0.841012 0.689543
vt 0.816168 0.771158
vt 0.842290 0.264465
vt 0.898796 0.346080
vt 0.898796 0.264464
vt 0.842290 0.346080
vt 0.923640 0.346080
vt 0.867134 0.346080
vt 0.923640 0.264464
vt 0.816168 0.264465
vt 0.759662 0.346080
vt 0.759662 0.264464
vt 0.841012 0.346080
vt 0.784506 0.346080
vt 0.784506 0.264464
vt 0.841012 0.264465
vt 0.816168 0.346080
vt 0.656698 0.009257
vt 0.342889 0.990666
vt 0.342889 0.009257
vt 0.690726 0.992455
vt 0.924859 0.760223
vt 0.994327 0.992455
vt 0.867134 0.689543
vt 0.867134 0.264465
vt 0.924859 0.245643
vt 0.994327 0.017548
vt 0.995010 0.012789
vt 0.683244 0.990177
vt 0.683244 0.012789
vt 0.690726 0.017548
vt 0.760194 0.245643
vt 0.760194 0.760223
vt 0.656698 0.990666
vt 0.995010 0.990177
s 0
usemtl Material
f 4/1/1 2/2/1 1/1/1
f 3/2/2 5/3/2 2/2/2
f 6/3/3 7/4/3 5/3/3
f 8/4/4 1/1/4 7/4/4
f 2/2/5 7/4/5 1/1/5
f 4/1/6 6/3/6 3/2/6
f 4/1/1 3/2/1 2/2/1
f 3/2/2 6/3/2 5/3/2
f 6/3/3 8/4/3 7/4/3
f 8/4/4 4/1/4 1/1/4
f 2/2/5 5/3/5 7/4/5
f 4/1/6 8/4/6 6/3/6
f 12/5/7 10/6/7 9/7/7
f 11/8/2 13/9/2 10/6/2
f 14/10/8 15/11/8 13/9/8
f 15/11/4 12/5/4 9/7/4
f 10/6/9 15/11/9 9/7/9
f 12/5/10 14/10/10 11/8/10
f 20/12/11 18/13/11 17/14/11
f 18/13/2 22/15/2 21/16/2
f 22/15/12 23/17/12 21/16/12
f 24/18/4 17/14/4 23/17/4
f 18/13/13 23/17/13 17/14/13
f 20/12/14 22/15/14 19/19/14
f 28/20/7 26/21/7 25/22/7
f 27/23/2 29/24/2 26/21/2
f 30/25/8 31/26/8 29/24/8
f 31/26/4 28/20/4 25/22/4
f 26/21/9 31/26/9 25/22/9
f 28/20/10 30/25/10 27/23/10
f 36/27/11 34/28/11 33/29/11
f 34/28/2 38/30/2 37/31/2
f 38/30/12 39/32/12 37/31/12
f 40/33/4 33/29/4 39/32/4
f 34/28/13 39/32/13 33/29/13
f 36/27/14 38/30/14 35/34/14
f 46/35/2 42/36/2 43/37/2
f 48/35/3 45/36/3 46/37/3
f 44/35/4 47/36/4 48/37/4
f 48/35/6 43/36/6 44/37/6
f 41/38/15 52/39/15 47/40/15
f 12/5/7 11/8/7 10/6/7
f 11/8/2 14/10/2 13/9/2
f 14/10/8 16/41/8 15/11/8
f 15/11/4 16/41/4 12/5/4
f 10/6/9 13/9/9 15/11/9
f 12/5/10 16/41/10 14/10/10
f 20/12/11 19/19/11 18/13/11
f 18/13/2 19/19/2 22/15/2
f 22/15/12 24/18/12 23/17/12
f 24/18/4 20/12/4 17/14/4
f 18/13/13 21/16/13 23/17/13
f 20/12/14 24/18/14 22/15/14
f 28/20/7 27/23/7 26/21/7
f 27/23/2 30/25/2 29/24/2
f 30/25/8 32/42/8 31/26/8
f 31/26/4 32/42/4 28/20/4
f 26/21/9 29/24/9 31/26/9
f 28/20/10 32/42/10 30/25/10
f 36/27/11 35/34/11 34/28/11
f 34/28/2 35/34/2 38/30/2
f 38/30/12 40/33/12 39/32/12
f 40/33/4 36/27/4 33/29/4
f 34/28/13 37/31/13 39/32/13
f 36/27/14 40/33/14 38/30/14
f 47/40/16 51/43/16 45/44/16
f 53/45/4 52/46/4 49/47/4
f 56/45/3 51/46/3 52/47/3
f 42/48/17 51/43/17 50/49/17
f 41/38/18 50/49/18 49/50/18
f 54/45/1 49/46/1 50/47/1
f 41/38/15 49/50/15 52/39/15
f 47/40/16 52/39/16 51/43/16
f 42/48/17 45/44/17 51/43/17
f 41/38/18 42/48/18 50/49/18
f 55/45/2 50/46/2 51/47/2
f 43/35/1 41/36/1 44/37/1
f 46/35/2 45/51/2 42/36/2
f 48/35/3 47/51/3 45/36/3
f 44/35/4 41/51/4 47/36/4
f 48/35/6 46/51/6 43/36/6
f 53/45/4 56/52/4 52/46/4
f 56/45/3 55/52/3 51/46/3
f 54/45/1 53/52/1 49/46/1
f 55/45/2 54/52/2 50/46/2
f 43/35/1 42/51/1 41/36/1
o wheel
v -0.123181 -0.124709 -0.236937
v -0.123181 -0.124709 -0.299437
v -0.123181 0.125291 -0.299437
v -0.123181 0.125291 -0.236937
v 0.126819 -0.124709 -0.299437
v 0.126819 0.125291 -0.299437
v 0.126819 -0.124709 -0.236937
v 0.126819 0.125291 -0.236937
v -0.073780 -0.075308 0.394556
v -0.073780 -0.075308 -0.243430
v -0.073780 0.075890 -0.243430
v -0.073780 0.075890 0.394556
v 0.077418 -0.075308 -0.243430
v 0.077418 0.075890 -0.243430
v 0.077418 -0.075308 0.394556
v 0.077418 0.075890 0.394556
v 0.001819 -0.106622 0.394556
v 0.001819 -0.106622 -0.243430
v -0.105094 0.000291 -0.243430
v -0.105094 0.000291 0.394556
v 0.108732 0.000291 -0.243430
v 0.001819 0.107204 -0.243430
v 0.108732 0.000291 0.394556
v 0.001819 0.107204 0.394556
v -0.060681 -0.062209 -0.205687
v -0.060681 -0.062209 -0.268187
v -0.060681 0.062791 -0.268187
v -0.060681 0.062791 -0.205687
v 0.064319 -0.062209 -0.268187
v 0.064319 0.062791 -0.268187
v 0.064319 -0.062209 -0.205687
v 0.064319 0.062791 -0.205687
v -0.060681 -0.393459 0.248581
v -0.060681 -0.393459 -0.032302
v -0.060681 -0.330959 -0.032302
v -0.060681 -0.330959 0.248581
v 0.064319 -0.393459 -0.032302
v 0.064319 -0.330959 -0.032302
v 0.064319 -0.393459 0.248581
v 0.064319 -0.330959 0.248581
v 0.064053 -0.393501 0.247880
v 0.064053 -0.393501 -0.033004
v 0.044740 -0.334060 -0.033004
v 0.044740 -0.334060 0.247880
v 0.182935 -0.354874 -0.033004
v 0.163622 -0.295433 -0.033004
v 0.182935 -0.354874 0.247880
v 0.163622 -0.295433 0.247880
v 0.182696 -0.354996 0.248581
v 0.182696 -0.354996 -0.032302
v 0.145959 -0.304432 -0.032302
v 0.145959 -0.304432 0.248581
v 0.283823 -0.281523 -0.032302
v 0.247086 -0.230959 -0.032302
v 0.283823 -0.281523 0.248581
v 0.247086 -0.230959 0.248581
v 0.283633 -0.281713 0.247880
v 0.283633 -0.281713 -0.033004
v 0.233069 -0.244976 -0.033004
v 0.233069 -0.244976 0.247880
v 0.357106 -0.180586 -0.033004
v 0.306543 -0.143849 -0.033004
v 0.357106 -0.180586 0.247880
v 0.306543 -0.143849 0.247880
v 0.356984 -0.180825 0.248581
v 0.356984 -0.180825 -0.032302
v 0.297543 -0.161512 -0.032302
v 0.297543 -0.161512 0.248581
v 0.395611 -0.061943 -0.032302
v 0.336170 -0.042630 -0.032302
v 0.395611 -0.061943 0.248581
v 0.336170 -0.042630 0.248581
v 0.395569 -0.062209 0.247880
v 0.395569 -0.062209 -0.033004
v 0.333069 -0.062209 -0.033004
v 0.333069 -0.062209 0.247880
v 0.395569 0.062791 -0.033004
v 0.333069 0.062791 -0.033004
v 0.395569 0.062791 0.247880
v 0.333069 0.062791 0.247880
v 0.395611 0.062525 0.248581
v 0.395611 0.062525 -0.032302
v 0.336170 0.043212 -0.032302
v 0.336170 0.043212 0.248581
v 0.356984 0.181407 -0.032302
v 0.297543 0.162094 -0.032302
v 0.356984 0.181407 0.248581
v 0.297543 0.162094 0.248581
v 0.357106 0.181168 0.247880
v 0.357106 0.181168 -0.033004
v 0.306543 0.144431 -0.033004
v 0.306543 0.144431 0.247880
v 0.283633 0.282295 -0.033004
v 0.233069 0.245558 -0.033004
v 0.283633 0.282295 0.247880
v 0.233069 0.245558 0.247880
v 0.283823 0.282105 0.248581
v 0.283823 0.282105 -0.032302
v 0.247086 0.231541 -0.032302
v 0.247086 0.231541 0.248581
v 0.182696 0.355578 -0.032302
v 0.145959 0.305015 -0.032302
v 0.182696 0.355578 0.248581
v 0.145959 0.305015 0.248581
v 0.182935 0.355456 0.247880
v 0.182935 0.355456 -0.033004
v 0.163622 0.296015 -0.033004
v 0.163622 0.296015 0.247880
v 0.064053 0.394083 -0.033004
v 0.044740 0.334642 -0.033004
v 0.064053 0.394083 0.247880
v 0.044740 0.334642 0.247880
v 0.064319 0.394041 0.248581
v 0.064319 0.394041 -0.032302
v 0.064319 0.331541 -0.032302
v 0.064319 0.331541 0.248581
v -0.060681 0.394041 -0.032302
v -0.060681 0.331541 -0.032302
v -0.060681 0.394041 0.248581
v -0.060681 0.331541 0.248581
v -0.060415 0.394083 0.247880
v -0.060415 0.394083 -0.033004
v -0.041102 0.334642 -0.033004
v -0.041102 0.334642 0.247880
v -0.179297 0.355456 -0.033004
v -0.159984 0.296015 -0.033004
v -0.179297 0.355456 0.247880
v -0.159984 0.296015 0.247880
v -0.179058 0.355578 0.248581
v -0.179058 0.355578 -0.032302
v -0.142321 0.305015 -0.032302
v -0.142321 0.305015 0.248581
v -0.280185 0.282105 -0.032302
v -0.243448 0.231541 -0.032302
v -0.280185 0.282105 0.248581
v -0.243448 0.231541 0.248581
v -0.279995 0.282295 0.247880
v -0.279995 0.282295 -0.033004
v -0.229431 0.245558 -0.033004
v -0.229431 0.245558 0.247880
v -0.353468 0.181168 -0.033004
v -0.302904 0.144431 -0.033004
v -0.353468 0.181168 0.247880
v -0.302904 0.144431 0.247880
v -0.353346 0.181407 0.248581
v -0.353346 0.181407 -0.032302
v -0.293905 0.162094 -0.032302
v -0.293905 0.162094 0.248581
v -0.391973 0.062525 -0.032302
v -0.332532 0.043212 -0.032302
v -0.391973 0.062525 0.248581
v -0.332532 0.043212 0.248581
v -0.391931 0.062791 0.247880
v -0.391931 0.062791 -0.033004
v -0.329431 0.062791 -0.033004
v -0.329431 0.062791 0.247880
v -0.391931 -0.062209 -0.033004
v -0.329431 -0.062209 -0.033004
v -0.391931 -0.062209 0.247880
v -0.329431 -0.062209 0.247880
v -0.391973 -0.061943 0.248581
v -0.391973 -0.061943 -0.032302
v -0.332532 -0.042630 -0.032302
v -0.332532 -0.042630 0.248581
v -0.353346 -0.180825 -0.032302
v -0.293905 -0.161512 -0.032302
v -0.353346 -0.180825 0.248581
v -0.293905 -0.161512 0.248581
v -0.353468 -0.180586 0.247880
v -0.353468 -0.180586 -0.033004
v -0.302904 -0.143849 -0.033004
v -0.302904 -0.143849 0.247880
v -0.279995 -0.281713 -0.033004
v -0.229431 -0.244976 -0.033004
v -0.279995 -0.281713 0.247880
v -0.229431 -0.244976 0.247880
v -0.280185 -0.281523 0.248581
v -0.280185 -0.281523 -0.032302
v -0.243448 -0.230959 -0.032302
v -0.243448 -0.230959 0.248581
v -0.179058 -0.354996 -0.032302
v -0.142321 -0.304432 -0.032302
v -0.179058 -0.354996 0.248581
v -0.142321 -0.304432 0.248581
v -0.179297 -0.354874 0.247880
v -0.179297 -0.354874 -0.033004
v -0.159984 -0.295433 -0.033004
v -0.159984 -0.295433 0.247880
v -0.060415 -0.393501 -0.033004
v -0.041102 -0.334060 -0.033004
v -0.060415 -0.393501 0.247880
v -0.041102 -0.334060 0.247880
v -0.029431 -0.343459 0.143953
v -0.029431 -0.343459 0.073731
v -0.029431 -0.030959 0.073731
v -0.029431 -0.030959 0.143953
v 0.033069 -0.343459 0.073731
v 0.033069 -0.030959 0.073731
v 0.033069 -0.343459 0.143953
v 0.033069 -0.030959 0.143953
v -0.263346 -0.220680 0.142547
v -0.263346 -0.220680 0.072327
v -0.042375 0.000291 0.072327
v -0.042375 0.000291 0.142547
v -0.219152 -0.264874 0.072327
v 0.001819 -0.043903 0.072327
v -0.219152 -0.264874 0.142549
v 0.001819 -0.043903 0.142547
v -0.341931 0.031541 0.143953
v -0.341931 0.031541 0.073731
v -0.029431 0.031541 0.073731
v -0.029431 0.031541 0.143953
v -0.341931 -0.030959 0.073731
v -0.029431 -0.030959 0.073731
v -0.341931 -0.030959 0.143953
v -0.029431 -0.030959 0.143953
v -0.219152 0.265456 0.142547
v -0.219152 0.265456 0.072327
v 0.001819 0.044485 0.072327
v 0.001819 0.044485 0.142547
v -0.263346 0.221262 0.072327
v -0.042375 0.000291 0.072327
v -0.263346 0.221262 0.142547
v -0.042375 0.000291 0.142547
v 0.033069 0.344041 0.143953
v 0.033069 0.344041 0.073731
v 0.033069 0.031541 0.073731
v 0.033069 0.031541 0.143953
v -0.029431 0.344041 0.073731
v -0.029431 0.031541 0.073731
v -0.029431 0.344041 0.143953
v -0.029431 0.031541 0.143953
v 0.266984 0.221262 0.142547
v 0.266984 0.221262 0.072327
v 0.046013 0.000291 0.072327
v 0.046013 0.000291 0.142547
v 0.222790 0.265456 0.072327
v 0.001819 0.044485 0.072327
v 0.222790 0.265456 0.142547
v 0.001819 0.044485 0.142547
v 0.345569 -0.030959 0.143953
v 0.345569 -0.030959 0.073731
v 0.033069 -0.030959 0.073731
v 0.033069 -0.030959 0.143953
v 0.345569 0.031541 0.073731
v 0.033069 0.031541 0.073731
v 0.345569 0.031541 0.143953
v 0.033069 0.031541 0.143953
v 0.222790 -0.264874 0.142549
v 0.222790 -0.264874 0.072327
v 0.001819 -0.043903 0.072327
v 0.001819 -0.043903 0.142547
v 0.266984 -0.220680 0.072327
v 0.046013 0.000291 0.072327
v 0.266984 -0.220680 0.142547
v 0.046013 0.000291 0.142547
v -0.062500 -0.062500 1.163393
v -0.062500 -0.062500 1.100893
v -0.062500 0.062500 1.100893
v -0.062500 0.062500 1.163393
v 0.062500 -0.062500 1.100893
v 0.062500 0.062500 1.100893
v 0.062500 -0.062500 1.163393
v 0.062500 0.062500 1.163393
v -0.062500 -0.062500 0.788393
v -0.062500 -0.062500 0.725893
v -0.062500 0.062500 0.725893
v -0.062500 0.062500 0.788393
v 0.062500 -0.062500 0.725893
v 0.062500 0.062500 0.725893
v 0.062500 -0.062500 0.788393
v 0.062500 0.062500 0.788393
v -0.075509 -0.075509 1.212340
v -0.075509 -0.075509 0.683159
v -0.075509 0.075510 0.683159
v -0.075509 0.075510 1.212340
v 0.075509 -0.075509 0.683159
v 0.075509 0.075510 0.683159
v 0.075509 -0.075509 1.212340
v 0.075509 0.075510 1.212340
v 0.000000 -0.106786 1.213001
v 0.000000 -0.106786 0.683821
v -0.106786 0.000000 0.683820
v -0.106786 0.000000 1.213001
v 0.106786 0.000000 0.683820
v 0.000000 0.106786 0.683820
v 0.106786 0.000000 1.213001
v 0.000000 0.106786 1.213001
v -0.062500 -0.062500 1.169643
v -0.062500 -0.062500 1.107143
v -0.062500 0.062500 1.107143
v -0.062500 0.062500 1.169643
v 0.062500 -0.062500 1.107143
v 0.062500 0.062500 1.107143
v 0.062500 -0.062500 1.169643
v 0.062500 0.062500 1.169643
v -0.062500 -0.062500 0.794643
v -0.062500 -0.062500 0.732143
v -0.062500 0.062500 0.732143
v -0.062500 0.062500 0.794643
v 0.062500 -0.062500 0.732143
v 0.062500 0.062500 0.732143
v 0.062500 -0.062500 0.794643
v 0.062500 0.062500 0.794643
v -0.031250 -1.406250 0.791518
v -0.031250 -1.406250 0.729018
v -0.031250 -0.031250 0.729018
v -0.031250 -0.031250 0.791518
v 0.031250 -1.406250 0.729018
v 0.031250 -0.031250 0.729018
v 0.031250 -1.406250 0.791518
v 0.031250 -0.031250 0.791518
v -0.031250 -1.406250 1.166518
v -0.031250 -1.406250 1.104018
v -0.031250 -0.031250 1.104018
v -0.031250 -0.031250 1.166518
v 0.031250 -1.406250 1.104018
v 0.031250 -0.031250 1.104018
v 0.031250 -1.406250 1.166518
v 0.031250 -0.031250 1.166518
v -0.031250 -1.406250 1.104018
v -0.031250 -1.406250 0.791518
v -0.031250 -0.843750 0.791518
v -0.031250 -0.843750 1.104018
v 0.031250 -1.406250 0.791518
v 0.031250 -0.843750 0.791518
v 0.031250 -1.406250 1.104018
v 0.031250 -0.843750 1.104018
v 0.676062 -1.233473 1.167143
v 0.676062 -1.233473 1.104643
v -0.011438 -0.042688 1.104643
v -0.011438 -0.042688 1.167143
v 0.730188 -1.202223 1.104643
v 0.042688 -0.011438 1.104643
v 0.730188 -1.202223 1.167143
v 0.042688 -0.011438 1.167143
v 0.015751 -1.386932 1.179018
v 0.015751 -1.386932 1.116518
v -0.000425 -1.326562 1.116518
v -0.000425 -1.326562 1.179018
v 0.679825 -1.208994 1.116518
v 0.663649 -1.148623 1.116518
v 0.679825 -1.208994 1.179018
v 0.663649 -1.148623 1.179018
v 0.015751 -1.386932 0.779018
v 0.015751 -1.386932 0.716518
v -0.000425 -1.326562 0.716518
v -0.000425 -1.326562 0.779018
v 0.679825 -1.208994 0.716518
v 0.663649 -1.148623 0.716518
v 0.679825 -1.208994 0.779018
v 0.663649 -1.148623 0.779018
v 0.676062 -1.233473 0.792143
v 0.676062 -1.233473 0.729643
v -0.011438 -0.042688 0.729643
v -0.011438 -0.042688 0.792143
v 0.730188 -1.202223 0.729643
v 0.042688 -0.011438 0.729643
v 0.730188 -1.202223 0.792143
v 0.042688 -0.011438 0.792143
v 0.676062 -1.233473 1.104643
v 0.676062 -1.233473 0.792143
v 0.394812 -0.746334 0.792143
v 0.394812 -0.746334 1.104643
v 0.730188 -1.202223 0.792143
v 0.448938 -0.715084 0.792143
v 0.730188 -1.202223 1.104643
v 0.448938 -0.715084 1.104643
v 1.202223 -0.730188 1.166518
v 1.202223 -0.730188 1.104018
v 0.011438 -0.042688 1.104018
v 0.011438 -0.042688 1.166518
v 1.233473 -0.676062 1.104018
v 0.042688 0.011438 1.104018
v 1.233473 -0.676062 1.166518
v 0.042688 0.011438 1.166518
v 1.202223 -0.730188 0.791518
v 1.202223 -0.730188 0.729018
v 0.011438 -0.042688 0.729018
v 0.011438 -0.042688 0.791518
v 1.233473 -0.676062 0.729018
v 0.042688 0.011438 0.729018
v 1.233473 -0.676062 0.791518
v 0.042688 0.011438 0.791518
v 1.202223 -0.730188 1.104018
v 1.202223 -0.730188 0.791518
v 0.715084 -0.448938 0.791518
v 0.715084 -0.448938 1.104018
v 1.233473 -0.676062 0.791518
v 0.746334 -0.394812 0.791518
v 1.233473 -0.676062 1.104018
v 0.746334 -0.394812 1.104018
v 1.406250 -0.031250 1.167143
v 1.406250 -0.031250 1.104643
v 0.031250 -0.031250 1.104643
v 0.031250 -0.031250 1.167143
v 1.406250 0.031250 1.104643
v 0.031250 0.031250 1.104643
v 1.406250 0.031250 1.167143
v 0.031250 0.031250 1.167143
v 1.406250 -0.031250 0.792143
v 1.406250 -0.031250 0.729643
v 0.031250 -0.031250 0.729643
v 0.031250 -0.031250 0.792143
v 1.406250 0.031250 0.729643
v 0.031250 0.031250 0.729643
v 1.406250 0.031250 0.792143
v 0.031250 0.031250 0.792143
v 1.406250 -0.031250 1.104643
v 1.406250 -0.031250 0.792143
v 0.843750 -0.031250 0.792143
v 0.843750 -0.031250 1.104643
v 1.406250 0.031250 0.792143
v 0.843750 0.031250 0.792143
v 1.406250 0.031250 1.104643
v 0.843750 0.031250 1.104643
v 1.233473 0.676062 1.166518
v 1.233473 0.676062 1.104018
v 0.042688 -0.011438 1.104018
v 0.042688 -0.011438 1.166518
v 1.202223 0.730188 1.104018
v 0.011438 0.042688 1.104018
v 1.202223 0.730188 1.166518
v 0.011438 0.042688 1.166518
v 1.233473 0.676062 1.104018
v 1.233473 0.676062 0.791518
v 0.746334 0.394812 0.791518
v 0.746334 0.394812 1.104018
v 1.202223 0.730188 0.791518
v 0.715084 0.448938 0.791518
v 1.202223 0.730188 1.104018
v 0.715084 0.448938 1.104018
v 1.233473 0.676062 0.791518
v 1.233473 0.676062 0.729018
v 0.042688 -0.011438 0.729018
v 0.042688 -0.011438 0.791518
v 1.202223 0.730188 0.729018
v 0.011438 0.042688 0.729018
v 1.202223 0.730188 0.791518
v 0.011438 0.042688 0.791518
v 0.730188 1.202223 1.167143
v 0.730188 1.202223 1.104643
v 0.042688 0.011438 1.104643
v 0.042688 0.011438 1.167143
v 0.676062 1.233473 1.104643
v -0.011438 0.042688 1.104643
v 0.676062 1.233473 1.167143
v -0.011438 0.042688 1.167143
v 0.730188 1.202223 0.792143
v 0.730188 1.202223 0.729643
v 0.042688 0.011438 0.729643
v 0.042688 0.011438 0.792143
v 0.676062 1.233473 0.729643
v -0.011438 0.042688 0.729643
v 0.676062 1.233473 0.792143
v -0.011438 0.042688 0.792143
v 0.730188 1.202223 1.104643
v 0.730188 1.202223 0.792143
v 0.448938 0.715084 0.792143
v 0.448938 0.715084 1.104643
v 0.676062 1.233473 0.792143
v 0.394812 0.746334 0.792143
v 0.676062 1.233473 1.104643
v 0.394812 0.746334 1.104643
v 0.031250 1.406250 1.166518
v 0.031250 1.406250 1.104018
v 0.031250 0.031250 1.104018
v 0.031250 0.031250 1.166518
v -0.031250 1.406250 1.104018
v -0.031250 0.031250 1.104018
v -0.031250 1.406250 1.166518
v -0.031250 0.031250 1.166518
v 0.031250 1.406250 0.791518
v 0.031250 1.406250 0.729018
v 0.031250 0.031250 0.729018
v 0.031250 0.031250 0.791518
v -0.031250 1.406250 0.729018
v -0.031250 0.031250 0.729018
v -0.031250 1.406250 0.791518
v -0.031250 0.031250 0.791518
v 0.031250 1.406250 1.104018
v 0.031250 1.406250 0.791518
v 0.031250 0.843750 0.791518
v 0.031250 0.843750 1.104018
v -0.031250 1.406250 0.791518
v -0.031250 0.843750 0.791518
v -0.031250 1.406250 1.104018
v -0.031250 0.843750 1.104018
v -0.676062 1.233473 0.792143
v -0.676062 1.233473 0.729643
v 0.011438 0.042688 0.729643
v 0.011438 0.042688 0.792143
v -0.730188 1.202223 0.729643
v -0.042688 0.011438 0.729643
v -0.730188 1.202223 0.792143
v -0.042688 0.011438 0.792143
v -0.676062 1.233473 1.167143
v -0.676062 1.233473 1.104643
v 0.011438 0.042688 1.104643
v 0.011438 0.042688 1.167143
v -0.730188 1.202223 1.104643
v -0.042688 0.011438 1.104643
v -0.730188 1.202223 1.167143
v -0.042688 0.011438 1.167143
v -0.676062 1.233473 1.104643
v -0.676062 1.233473 0.792143
v -0.394812 0.746334 0.792143
v -0.394812 0.746334 1.104643
v -0.730188 1.202223 0.792143
v -0.448938 0.715084 0.792143
v -0.730188 1.202223 1.104643
v -0.448938 0.715084 1.104643
v -1.202223 0.730188 1.166518
v -1.202223 0.730188 1.104018
v -0.011438 0.042688 1.104018
v -0.011438 0.042688 1.166518
v -1.233473 0.676062 1.104018
v -0.042688 -0.011438 1.104018
v -1.233473 0.676062 1.166518
v -0.042688 -0.011438 1.166518
v -1.202223 0.730188 0.791518
v -1.202223 0.730188 0.729018
v -0.011438 0.042688 0.729018
v -0.011438 0.042688 0.791518
v -1.233473 0.676062 0.729018
v -0.042688 -0.011438 0.729018
v -1.233473 0.676062 0.791518
v -0.042688 -0.011438 0.791518
v -1.202223 0.730188 1.104018
v -1.202223 0.730188 0.791518
v -0.715084 0.448938 0.791518
v -0.715084 0.448938 1.104018
v -1.233473 0.676062 0.791518
v -0.746334 0.394812 0.791518
v -1.233473 0.676062 1.104018
v -0.746334 0.394812 1.104018
v -1.406250 0.031250 0.792143
v -1.406250 0.031250 0.729643
v -0.031250 0.031250 0.729643
v -0.031250 0.031250 0.792143
v -1.406250 -0.031250 0.729643
v -0.031250 -0.031250 0.729643
v -1.406250 -0.031250 0.792143
v -0.031250 -0.031250 0.792143
v -1.406250 0.031250 1.167143
v -1.406250 0.031250 1.104643
v -0.031250 0.031250 1.104643
v -0.031250 0.031250 1.167143
v -1.406250 -0.031250 1.104643
v -0.031250 -0.031250 1.104643
v -1.406250 -0.031250 1.167143
v -0.031250 -0.031250 1.167143
v -1.406250 0.031250 1.104643
v -1.406250 0.031250 0.792143
v -0.843750 0.031250 0.792143
v -0.843750 0.031250 1.104643
v -1.406250 -0.031250 0.792143
v -0.843750 -0.031250 0.792143
v -1.406250 -0.031250 1.104643
v -0.843750 -0.031250 1.104643
v -1.233473 -0.676062 0.791518
v -1.233473 -0.676062 0.729018
v -0.042688 0.011438 0.729018
v -0.042688 0.011438 0.791518
v -1.202223 -0.730188 0.729018
v -0.011438 -0.042688 0.729018
v -1.202223 -0.730188 0.791518
v -0.011438 -0.042688 0.791518
v -1.233473 -0.676062 1.166518
v -1.233473 -0.676062 1.104018
v -0.042688 0.011438 1.104018
v -0.042688 0.011438 1.166518
v -1.202223 -0.730188 1.104018
v -0.011438 -0.042688 1.104018
v -1.202223 -0.730188 1.166518
v -0.011438 -0.042688 1.166518
v -1.233473 -0.676062 1.104018
v -1.233473 -0.676062 0.791518
v -0.746334 -0.394812 0.791518
v -0.746334 -0.394812 1.104018
v -1.202223 -0.730188 0.791518
v -0.715084 -0.448938 0.791518
v -1.202223 -0.730188 1.104018
v -0.715084 -0.448938 1.104018
v -0.730188 -1.202223 0.792143
v -0.730188 -1.202223 0.729643
v -0.042688 -0.011438 0.729643
v -0.042688 -0.011438 0.792143
v -0.676062 -1.233473 0.729643
v 0.011438 -0.042688 0.729643
v -0.676062 -1.233473 0.792143
v 0.011438 -0.042688 0.792143
v -0.730188 -1.202223 1.167143
v -0.730188 -1.202223 1.104643
v -0.042688 -0.011438 1.104643
v -0.042688 -0.011438 1.167143
v -0.676062 -1.233473 1.104643
v 0.011438 -0.042688 1.104643
v -0.676062 -1.233473 1.167143
v 0.011438 -0.042688 1.167143
v -0.730188 -1.202223 1.104643
v -0.730188 -1.202223 0.792143
v -0.448938 -0.715084 0.792143
v -0.448938 -0.715084 1.104643
v -0.676062 -1.233473 0.792143
v -0.394812 -0.746334 0.792143
v -0.676062 -1.233473 1.104643
v -0.394812 -0.746334 1.104643
v 0.707107 -1.193243 0.779018
v 0.707107 -1.193243 0.716518
v 0.662913 -1.149049 0.716518
v 0.662913 -1.149049 0.779018
v 1.193243 -0.707107 0.716518
v 1.149049 -0.662913 0.716518
v 1.193243 -0.707107 0.779018
v 1.149049 -0.662913 0.779018
v 0.707107 -1.193243 1.179018
v 0.707107 -1.193243 1.116518
v 0.662913 -1.149049 1.116518
v 0.662913 -1.149049 1.179018
v 1.193243 -0.707107 1.116518
v 1.149049 -0.662913 1.116518
v 1.193243 -0.707107 1.179018
v 1.149049 -0.662913 1.179018
v 1.208994 -0.679825 1.179018
v 1.208994 -0.679825 1.116518
v 1.148623 -0.663649 1.116518
v 1.148623 -0.663649 1.179018
v 1.386932 -0.015751 1.116518
v 1.326562 0.000425 1.116518
v 1.386932 -0.015751 1.179018
v 1.326562 0.000425 1.179018
v 1.208994 -0.679825 0.779018
v 1.208994 -0.679825 0.716518
v 1.148623 -0.663649 0.716518
v 1.148623 -0.663649 0.779018
v 1.386932 -0.015751 0.716518
v 1.326562 0.000425 0.716518
v 1.386932 -0.015751 0.779018
v 1.326562 0.000425 0.779018
v 1.386932 0.015751 1.179018
v 1.386932 0.015751 1.116518
v 1.326562 -0.000425 1.116518
v 1.326562 -0.000425 1.179018
v 1.208994 0.679825 1.116518
v 1.148623 0.663649 1.116518
v 1.208994 0.679825 1.179018
v 1.148623 0.663649 1.179018
v 1.386932 0.015751 0.779018
v 1.386932 0.015751 0.716518
v 1.326562 -0.000425 0.716518
v 1.326562 -0.000425 0.779018
v 1.208994 0.679825 0.716518
v 1.148623 0.663649 0.716518
v 1.208994 0.679825 0.779018
v 1.148623 0.663649 0.779018
v 1.193243 0.707107 1.179018
v 1.193243 0.707107 1.116518
v 1.149049 0.662913 1.116518
v 1.149049 0.662913 1.179018
v 0.707107 1.193243 1.116518
v 0.662913 1.149049 1.116518
v 0.707107 1.193243 1.179018
v 0.662913 1.149049 1.179018
v 1.193243 0.707107 0.779018
v 1.193243 0.707107 0.716518
v 1.149049 0.662913 0.716518
v 1.149049 0.662913 0.779018
v 0.707107 1.193243 0.716518
v 0.662913 1.149049 0.716518
v 0.707107 1.193243 0.779018
v 0.662913 1.149049 0.779018
v 0.679825 1.208994 1.179018
v 0.679825 1.208994 1.116518
v 0.663649 1.148623 1.116518
v 0.663649 1.148623 1.179018
v 0.015751 1.386932 1.116518
v -0.000425 1.326562 1.116518
v 0.015751 1.386932 1.179018
v -0.000425 1.326562 1.179018
v 0.679825 1.208994 0.779018
v 0.679825 1.208994 0.716518
v 0.663649 1.148623 0.716518
v 0.663649 1.148623 0.779018
v 0.015751 1.386932 0.716518
v -0.000425 1.326562 0.716518
v 0.015751 1.386932 0.779018
v -0.000425 1.326562 0.779018
v -0.015751 1.386932 1.179018
v -0.015751 1.386932 1.116518
v 0.000425 1.326562 1.116518
v 0.000425 1.326562 1.179018
v -0.679825 1.208994 1.116518
v -0.663649 1.148623 1.116518
v -0.679825 1.208994 1.179018
v -0.663649 1.148623 1.179018
v -0.015751 1.386932 0.779018
v -0.015751 1.386932 0.716518
v 0.000425 1.326562 0.716518
v 0.000425 1.326562 0.779018
v -0.679825 1.208994 0.716518
v -0.663649 1.148623 0.716518
v -0.679825 1.208994 0.779018
v -0.663649 1.148623 0.779018
v -0.707107 1.193243 1.179018
v -0.707107 1.193243 1.116518
v -0.662913 1.149049 1.116518
v -0.662913 1.149049 1.179018
v -1.193243 0.707107 1.116518
v -1.149049 0.662913 1.116518
v -1.193243 0.707107 1.179018
v -1.149049 0.662913 1.179018
v -0.707107 1.193243 0.779018
v -0.707107 1.193243 0.716518
v -0.662913 1.149049 0.716518
v -0.662913 1.149049 0.779018
v -1.193243 0.707107 0.716518
v -1.149049 0.662913 0.716518
v -1.193243 0.707107 0.779018
v -1.149049 0.662913 0.779018
v -1.208994 0.679825 1.179018
v -1.208994 0.679825 1.116518
v -1.148623 0.663649 1.116518
v -1.148623 0.663649 1.179018
v -1.386932 0.015751 1.116518
v -1.326562 -0.000425 1.116518
v -1.386932 0.015751 1.179018
v -1.326562 -0.000425 1.179018
v -1.208994 0.679825 0.779018
v -1.208994 0.679825 0.716518
v -1.148623 0.663649 0.716518
v -1.148623 0.663649 0.779018
v -1.386932 0.015751 0.716518
v -1.326562 -0.000425 0.716518
v -1.386932 0.015751 0.779018
v -1.326562 -0.000425 0.779018
v -1.386932 -0.015751 1.179018
v -1.386932 -0.015751 1.116518
v -1.326562 0.000425 1.116518
v -1.326562 0.000425 1.179018
v -1.208994 -0.679825 1.116518
v -1.148623 -0.663649 1.116518
v -1.208994 -0.679825 1.179018
v -1.148623 -0.663649 1.179018
v -1.386932 -0.015751 0.779018
v -1.386932 -0.015751 0.716518
v -1.326562 0.000425 0.716518
v -1.326562 0.000425 0.779018
v -1.208994 -0.679825 0.716518
v -1.148623 -0.663649 0.716518
v -1.208994 -0.679825 0.779018
v -1.148623 -0.663649 0.779018
v -1.193243 -0.707107 1.179018
v -1.193243 -0.707107 1.116518
v -1.149049 -0.662913 1.116518
v -1.149049 -0.662913 1.179018
v -0.707107 -1.193243 1.116518
v -0.662913 -1.149049 1.116518
v -0.707107 -1.193243 1.179018
v -0.662913 -1.149049 1.179018
v -1.193243 -0.707107 0.779018
v -1.193243 -0.707107 0.716518
v -1.149049 -0.662913 0.716518
v -1.149049 -0.662913 0.779018
v -0.707107 -1.193243 0.716518
v -0.662913 -1.149049 0.716518
v -0.707107 -1.193243 0.779018
v -0.662913 -1.149049 0.779018
v -0.679825 -1.208994 1.179018
v -0.679825 -1.208994 1.116518
v -0.663649 -1.148623 1.116518
v -0.663649 -1.148623 1.179018
v -0.015751 -1.386932 1.116518
v 0.000425 -1.326562 1.116518
v -0.015751 -1.386932 1.179018
v 0.000425 -1.326562 1.179018
v -0.679825 -1.208994 0.779018
v -0.679825 -1.208994 0.716518
v -0.663649 -1.148623 0.716518
v -0.663649 -1.148623 0.779018
v -0.015751 -1.386932 0.716518
v 0.000425 -1.326562 0.716518
v -0.015751 -1.386932 0.779018
v 0.000425 -1.326562 0.779018
vn -1.0000 -0.0000 -0.0000
vn -0.0000 -0.0000 -1.0000
vn 1.0000 -0.0000 -0.0000
vn -0.0000 -0.0000 1.0000
vn -0.0000 -1.0000 -0.0000
vn -0.0000 1.0000 -0.0000
vn -0.7071 -0.7071 -0.0000
vn 0.7071 0.7071 -0.0000
vn 0.7071 -0.7071 -0.0000
vn -0.7071 0.7071 -0.0000
vn -0.9511 -0.3090 -0.0000
vn 0.9511 0.3090 -0.0000
vn 0.3090 -0.9511 -0.0000
vn -0.3090 0.9511 -0.0000
vn -0.8090 -0.5878 -0.0000
vn 0.8090 0.5878 -0.0000
vn 0.5878 -0.8090 -0.0000
vn -0.5878 0.8090 -0.0000
vn -0.5878 -0.8090 -0.0000
vn 0.5878 0.8090 -0.0000
vn 0.8090 -0.5878 -0.0000
vn -0.8090 0.5878 -0.0000
vn -0.3090 -0.9511 -0.0000
vn 0.3090 0.9511 -0.0000
vn 0.9511 -0.3090 -0.0000
vn -0.9511 0.3090 -0.0000
vn -0.8660 -0.5000 -0.0000
vn 0.8660 0.5000 -0.0000
vn 0.5000 -0.8660 -0.0000
vn -0.5000 0.8660 -0.0000
vn -0.9659 -0.2588 -0.0000
vn 0.9659 0.2588 -0.0000
vn 0.2588 -0.9659 -0.0000
vn -0.2588 0.9659 -0.0000
vn -0.5000 -0.8660 -0.0000
vn 0.5000 0.8660 -0.0000
vn 0.8660 -0.5000 -0.0000
vn -0.8660 0.5000 -0.0000
vn -0.2588 -0.9659 -0.0000
vn 0.2588 0.9659 -0.0000
vn 0.9659 -0.2588 -0.0000
vn -0.9659 0.2588 -0.0000
vt 0.258366 0.816482
vt 0.280433 0.904751
vt 0.258366 0.904751
vt 0.595811 0.176537
vt 0.507543 0.088268
vt 0.595811 0.088268
vt 0.200593 0.904751
vt 0.178526 0.816482
vt 0.200593 0.816482
vt 0.595811 0.000000
vt 0.507543 0.000000
vt 0.236299 0.816482
vt 0.214232 0.904751
vt 0.214232 0.816482
vt 0.236299 0.904751
vt 0.595811 0.375141
vt 0.573744 0.595811
vt 0.573744 0.375141
vt 0.994706 0.617879
vt 0.972639 0.595812
vt 0.994706 0.595812
vt 0.107173 0.385012
vt 0.425547 0.439528
vt 0.104928 0.417073
vt 0.972639 0.639946
vt 0.972639 0.617879
vt 0.662013 0.485476
vt 0.639946 0.264805
vt 0.662013 0.264805
vt 0.102682 0.449135
vt 0.721972 0.571603
vt 0.706368 0.792274
vt 0.706368 0.571603
vt 0.889664 0.617878
vt 0.867597 0.595811
vt 0.889664 0.595811
vt 0.108761 0.362340
vt 0.427792 0.407467
vt 0.900431 0.375141
vt 0.878364 0.397207
vt 0.878364 0.375141
vt 0.737575 0.792274
vt 0.737575 0.571603
vt 0.430968 0.362124
vt 0.110349 0.339669
vt 0.035705 0.948885
vt 0.057772 0.993019
vt 0.035705 0.993019
vt 0.419275 0.875123
vt 0.375141 0.830989
vt 0.419275 0.830989
vt 0.956946 0.970952
vt 0.934879 0.926818
vt 0.956946 0.926818
vt 0.331006 0.875123
vt 0.331006 0.830989
vt 0.975773 0.088268
vt 0.953706 0.132403
vt 0.953706 0.088268
vt 0.979013 0.926818
vt 0.979013 0.970952
vt 0.625082 0.922623
vt 0.911652 0.926708
vt 0.625082 0.926708
vt 0.911652 0.039583
vt 0.911652 0.087915
vt 0.911652 0.043668
vt 0.911652 0.092000
vt 0.625081 0.087915
vt 0.625081 0.092000
vt 0.625081 0.043668
vt 0.625081 0.039583
vt 0.625797 0.083735
vt 0.912369 0.087820
vt 0.625797 0.087820
vt 0.912369 0.083735
vt 0.912369 0.132067
vt 0.912369 0.136152
vt 0.625797 0.132067
vt 0.625081 0.127887
vt 0.911652 0.131972
vt 0.625081 0.131972
vt 0.911652 0.180304
vt 0.911652 0.176219
vt 0.625081 0.176219
vt 0.625081 0.180304
vt 0.911652 0.127887
vt 0.625797 0.172039
vt 0.912369 0.176124
vt 0.625797 0.176124
vt 0.912369 0.172039
vt 0.912369 0.220371
vt 0.912369 0.224457
vt 0.625797 0.220371
vt 0.625081 0.216191
vt 0.911652 0.220276
vt 0.625081 0.220276
vt 0.911652 0.268608
vt 0.911652 0.264523
vt 0.625081 0.264523
vt 0.625081 0.268608
vt 0.911652 0.216191
vt 0.625797 0.260343
vt 0.912369 0.264428
vt 0.625797 0.264428
vt 0.912369 0.260343
vt 0.912369 0.308675
vt 0.912369 0.312760
vt 0.625797 0.308675
vt 0.625797 0.312760
vt 0.625081 0.304495
vt 0.911652 0.308580
vt 0.625081 0.308580
vt 0.911652 0.304495
vt 0.911652 0.352827
vt 0.911652 0.356912
vt 0.625081 0.352827
vt 0.625797 0.348646
vt 0.912369 0.352732
vt 0.625797 0.352732
vt 0.912369 0.401064
vt 0.912369 0.396979
vt 0.625797 0.396979
vt 0.625797 0.401064
vt 0.912369 0.348646
vt 0.625081 0.392799
vt 0.911652 0.396884
vt 0.625081 0.396884
vt 0.911652 0.392799
vt 0.911652 0.441131
vt 0.911652 0.445217
vt 0.625081 0.441131
vt 0.625797 0.436951
vt 0.912369 0.441036
vt 0.625797 0.441036
vt 0.912369 0.489368
vt 0.912369 0.485283
vt 0.625797 0.485283
vt 0.625797 0.489368
vt 0.912369 0.436951
vt 0.625081 0.481103
vt 0.911652 0.485188
vt 0.625081 0.485188
vt 0.911652 0.481103
vt 0.911652 0.529435
vt 0.911652 0.533521
vt 0.625081 0.529435
vt 0.625081 0.533521
vt 0.625797 0.525255
vt 0.912369 0.529340
vt 0.625797 0.529340
vt 0.912369 0.525255
vt 0.912369 0.573587
vt 0.912369 0.577673
vt 0.625797 0.573587
vt 0.625081 0.569407
vt 0.911652 0.573492
vt 0.625081 0.573492
vt 0.911652 0.621824
vt 0.911652 0.617739
vt 0.625081 0.617739
vt 0.625081 0.621824
vt 0.911652 0.569407
vt 0.625797 0.613559
vt 0.912369 0.617644
vt 0.625797 0.617644
vt 0.912369 0.613559
vt 0.912369 0.661891
vt 0.912369 0.665977
vt 0.625797 0.661891
vt 0.625081 0.657711
vt 0.911652 0.661796
vt 0.625081 0.661796
vt 0.911652 0.710128
vt 0.911652 0.706043
vt 0.625081 0.706043
vt 0.625081 0.710128
vt 0.911652 0.657711
vt 0.625797 0.701863
vt 0.912369 0.705948
vt 0.625797 0.705948
vt 0.912369 0.701863
vt 0.912369 0.750195
vt 0.912369 0.754280
vt 0.625797 0.750195
vt 0.625797 0.754281
vt 0.625081 0.746015
vt 0.911652 0.750100
vt 0.625082 0.750100
vt 0.911652 0.746015
vt 0.911652 0.794347
vt 0.911652 0.798433
vt 0.625082 0.794347
vt 0.625797 0.790167
vt 0.912369 0.794252
vt 0.625797 0.794252
vt 0.912369 0.842584
vt 0.912369 0.838499
vt 0.625797 0.838499
vt 0.625797 0.842584
vt 0.912369 0.790167
vt 0.625082 0.834319
vt 0.911652 0.838404
vt 0.625082 0.838404
vt 0.911652 0.834319
vt 0.911652 0.882651
vt 0.911652 0.886737
vt 0.625082 0.882651
vt 0.625797 0.878471
vt 0.912369 0.882556
vt 0.625797 0.882556
vt 0.912369 0.930888
vt 0.912369 0.926803
vt 0.625797 0.926803
vt 0.625797 0.930888
vt 0.912369 0.878471
vt 0.823463 0.706147
vt 0.845531 0.816482
vt 0.823463 0.816482
vt 0.870646 0.264805
vt 0.848579 0.154470
vt 0.870646 0.154470
vt 0.848579 0.264805
vt 0.826512 0.154470
vt 0.878364 0.375140
vt 0.856297 0.264805
vt 0.878364 0.264805
vt 0.790095 0.419275
vt 0.768028 0.441342
vt 0.768028 0.419275
vt 0.974607 0.220671
vt 0.996674 0.198604
vt 0.996674 0.220671
vt 0.779329 0.810019
vt 0.801396 0.888038
vt 0.779329 0.888038
vt 0.534819 0.772348
vt 0.512752 0.882683
vt 0.512752 0.772348
vt 0.534819 0.960703
vt 0.512752 0.882684
vt 0.534819 0.882684
vt 0.556886 0.882684
vt 0.556886 0.772348
vt 0.528356 0.706147
vt 0.512752 0.684080
vt 0.528356 0.684080
vt 0.801396 0.794415
vt 0.801396 0.810019
vt 0.823463 0.595811
vt 0.845531 0.706147
vt 0.595811 0.853056
vt 0.573744 0.742721
vt 0.595811 0.742721
vt 0.856297 0.375141
vt 0.834230 0.264805
vt 0.823463 0.485476
vt 0.845530 0.595811
vt 0.994706 0.639946
vt 0.972639 0.662013
vt 0.755101 0.264805
vt 0.777168 0.242738
vt 0.777168 0.264805
vt 0.757261 0.794415
vt 0.779328 0.872434
vt 0.757261 0.872434
vt 0.867598 0.816482
vt 0.889665 0.706147
vt 0.889665 0.816482
vt 0.419275 0.953142
vt 0.397208 0.875123
vt 0.892713 0.264805
vt 0.757261 0.888038
vt 0.512752 0.706147
vt 0.528356 0.728214
vt 0.512752 0.728214
vt 0.834230 0.375140
vt 0.856297 0.485476
vt 0.834230 0.485476
vt 0.856297 0.375140
vt 0.878364 0.485476
vt 0.865437 0.110335
vt 0.843370 0.000000
vt 0.865437 0.000000
vt 0.441342 0.772348
vt 0.463409 0.882683
vt 0.441342 0.882683
vt 0.994706 0.662013
vt 0.972639 0.684080
vt 0.799235 0.242738
vt 0.799235 0.264805
vt 0.463409 0.960702
vt 0.441342 0.960702
vt 0.887504 0.110336
vt 0.865437 0.110336
vt 0.617878 0.888038
vt 0.595811 0.810019
vt 0.617878 0.810019
vt 0.867598 0.485476
vt 0.889665 0.595811
vt 0.867598 0.595811
vt 0.617878 0.794415
vt 0.595811 0.794415
vt 0.512752 0.750281
vt 0.528356 0.772348
vt 0.845530 0.485476
vt 0.477047 0.772348
vt 0.499114 0.882683
vt 0.477047 0.882683
vt 0.867598 0.706147
vt 0.994706 0.684080
vt 0.972639 0.706147
vt 0.974607 0.242738
vt 0.996674 0.242738
vt 0.639946 0.888038
vt 0.823463 0.897190
vt 0.801396 0.786855
vt 0.823463 0.786855
vt 0.499114 0.960702
vt 0.900431 0.264805
vt 0.528356 0.750281
vt 0.639946 0.794415
vt 0.639946 0.810019
vt 0.280433 0.816482
vt 0.507543 0.176537
vt 0.178526 0.904751
vt 0.595811 0.595811
vt 0.639946 0.485476
vt 0.423301 0.471590
vt 0.721972 0.792274
vt 0.867597 0.617878
vt 0.429380 0.384795
vt 0.900431 0.397207
vt 0.057772 0.948885
vt 0.375141 0.875123
vt 0.934879 0.970952
vt 0.975773 0.132403
vt 0.911652 0.922623
vt 0.625797 0.136152
vt 0.625797 0.224457
vt 0.625081 0.356912
vt 0.625081 0.445217
vt 0.625797 0.577673
vt 0.625797 0.665977
vt 0.625082 0.798433
vt 0.625082 0.886737
vt 0.826512 0.264805
vt 0.790095 0.441342
vt 0.974607 0.198604
vt 0.534819 0.882683
vt 0.512752 0.960703
vt 0.779329 0.794415
vt 0.845531 0.595811
vt 0.573744 0.853056
vt 0.834230 0.375141
vt 0.755101 0.242738
vt 0.779328 0.794415
vt 0.397208 0.953142
vt 0.892713 0.154470
vt 0.779328 0.888038
vt 0.843370 0.110335
vt 0.463409 0.772348
vt 0.887504 0.000000
vt 0.595811 0.888038
vt 0.889665 0.485476
vt 0.499114 0.772348
vt 0.845530 0.706147
vt 0.845530 0.816482
vt 0.994706 0.706147
vt 0.801396 0.897190
vt 0.477047 0.960702
vt 0.031250 0.664063
vt 0.023438 0.679688
vt 0.031250 0.679688
vt 0.046875 0.664063
vt 0.046875 0.679688
vt 0.007813 0.679688
vt 0.000000 0.664063
vt 0.000000 0.679688
vt 0.023438 0.664063
vt 0.039063 0.687500
vt 0.039063 0.679688
vt 0.023438 0.687500
vt 0.109375 0.687500
vt 0.101563 0.703125
vt 0.109375 0.703125
vt 0.125000 0.687500
vt 0.125000 0.703125
vt 0.085938 0.703125
vt 0.078125 0.687500
vt 0.078125 0.703125
vt 0.101563 0.687500
vt 0.117188 0.710938
vt 0.117188 0.703125
vt 0.101563 0.710938
vt 0.132813 0.640625
vt 0.070313 0.648438
vt 0.132813 0.648438
vt 0.140625 0.640625
vt 0.140625 0.648438
vt 0.062500 0.648438
vt 0.000000 0.640625
vt 0.000000 0.648438
vt 0.070313 0.640625
vt 0.078125 0.710938
vt 0.078125 0.648438
vt 0.070313 0.710938
vt 0.273438 0.640625
vt 0.210938 0.648438
vt 0.273438 0.648438
vt 0.281250 0.640625
vt 0.281250 0.648438
vt 0.203125 0.640625
vt 0.203125 0.648438
vt 0.210938 0.640625
vt 0.218750 0.710938
vt 0.218750 0.648438
vt 0.210938 0.710938
vt 0.031250 0.687500
vt 0.023438 0.703125
vt 0.031250 0.703125
vt 0.046875 0.687500
vt 0.046875 0.703125
vt 0.007813 0.703125
vt 0.000000 0.687500
vt 0.000000 0.703125
vt 0.039063 0.710938
vt 0.039063 0.703125
vt 0.023438 0.710938
vt 0.109375 0.664063
vt 0.101563 0.679688
vt 0.109375 0.679688
vt 0.125000 0.664063
vt 0.125000 0.679688
vt 0.085938 0.679688
vt 0.078125 0.664063
vt 0.078125 0.679688
vt 0.101563 0.664063
vt 0.117188 0.687500
vt 0.117188 0.679688
vt 0.023438 0.460938
vt 0.015625 0.632813
vt 0.023438 0.632813
vt 0.031250 0.460938
vt 0.031250 0.632813
vt 0.007813 0.460938
vt 0.000000 0.632813
vt 0.007813 0.632813
vt 0.015625 0.460938
vt 0.023438 0.640625
vt 0.015625 0.640625
vt 0.054688 0.460938
vt 0.046875 0.632813
vt 0.054688 0.632813
vt 0.062500 0.460938
vt 0.062500 0.632813
vt 0.039063 0.460938
vt 0.039063 0.632813
vt 0.046875 0.460938
vt 0.054688 0.640625
vt 0.046875 0.640625
vt 0.085938 0.421875
vt 0.046875 0.351563
vt 0.046875 0.421875
vt 0.093750 0.351563
vt 0.093750 0.421875
vt 0.039063 0.351563
vt 0.000000 0.421875
vt 0.039063 0.421875
vt 0.054688 0.421875
vt 0.085938 0.460938
vt 0.078125 0.632813
vt 0.085938 0.632813
vt 0.093750 0.460938
vt 0.093750 0.632813
vt 0.070313 0.460938
vt 0.070313 0.632813
vt 0.078125 0.460938
vt 0.085938 0.640625
vt 0.078125 0.640625
vt 0.101563 0.335938
vt 0.093750 0.343750
vt 0.101563 0.343750
vt 0.187500 0.335938
vt 0.187500 0.343750
vt 0.007813 0.335938
vt 0.000000 0.343750
vt 0.007813 0.343750
vt 0.179688 0.351563
vt 0.179688 0.343750
vt 0.101563 0.320313
vt 0.093750 0.328125
vt 0.101563 0.328125
vt 0.187500 0.320313
vt 0.187500 0.328125
vt 0.007813 0.320313
vt 0.000000 0.328125
vt 0.007813 0.328125
vt 0.179688 0.335938
vt 0.179688 0.328125
vt 0.093750 0.335938
vt 0.117188 0.460938
vt 0.109375 0.632813
vt 0.117188 0.632813
vt 0.125000 0.460938
vt 0.125000 0.632813
vt 0.101563 0.460938
vt 0.101563 0.632813
vt 0.109375 0.460938
vt 0.117188 0.640625
vt 0.109375 0.640625
vt 0.140625 0.421875
vt 0.179688 0.421875
vt 0.187500 0.351563
vt 0.187500 0.421875
vt 0.132813 0.421875
vt 0.132813 0.351563
vt 0.148438 0.460938
vt 0.148438 0.421875
vt 0.140625 0.460938
vt 0.140625 0.632813
vt 0.148438 0.632813
vt 0.156250 0.460938
vt 0.156250 0.632813
vt 0.132813 0.460938
vt 0.132813 0.632813
vt 0.179688 0.460938
vt 0.171875 0.632813
vt 0.179688 0.632813
vt 0.187500 0.460938
vt 0.187500 0.632813
vt 0.164063 0.460938
vt 0.164063 0.632813
vt 0.171875 0.460938
vt 0.179688 0.640625
vt 0.164063 0.640625
vt 0.273438 0.351563
vt 0.234375 0.421875
vt 0.273438 0.421875
vt 0.281250 0.421875
vt 0.226563 0.351563
vt 0.226563 0.421875
vt 0.234375 0.351563
vt 0.242188 0.421875
vt 0.234375 0.460938
vt 0.210938 0.460938
vt 0.203125 0.632813
vt 0.210938 0.632813
vt 0.218750 0.460938
vt 0.218750 0.632813
vt 0.195313 0.460938
vt 0.195313 0.632813
vt 0.203125 0.460938
vt 0.195313 0.640625
vt 0.242188 0.460938
vt 0.234375 0.632813
vt 0.242188 0.632813
vt 0.250000 0.460938
vt 0.250000 0.632813
vt 0.226563 0.460938
vt 0.226563 0.632813
vt 0.242188 0.640625
vt 0.226563 0.640625
vt 0.367188 0.351563
vt 0.328125 0.421875
vt 0.367188 0.421875
vt 0.375000 0.351563
vt 0.375000 0.421875
vt 0.320313 0.351563
vt 0.320313 0.421875
vt 0.328125 0.351563
vt 0.335938 0.460938
vt 0.335938 0.421875
vt 0.320313 0.460938
vt 0.273438 0.460938
vt 0.265625 0.632813
vt 0.273438 0.632813
vt 0.281250 0.460938
vt 0.281250 0.632813
vt 0.257813 0.460938
vt 0.257813 0.632813
vt 0.257813 0.640625
vt 0.460938 0.351563
vt 0.421875 0.421875
vt 0.460938 0.421875
vt 0.468750 0.351563
vt 0.468750 0.421875
vt 0.414063 0.351563
vt 0.414063 0.421875
vt 0.429688 0.460938
vt 0.429688 0.421875
vt 0.421875 0.460938
vt 0.304688 0.460938
vt 0.296875 0.632813
vt 0.304688 0.632813
vt 0.312500 0.460938
vt 0.312500 0.632813
vt 0.289063 0.460938
vt 0.289063 0.632813
vt 0.296875 0.460938
vt 0.304688 0.640625
vt 0.289063 0.640625
vt 0.328125 0.632813
vt 0.335938 0.632813
vt 0.343750 0.460938
vt 0.343750 0.632813
vt 0.320313 0.632813
vt 0.328125 0.460938
vt 0.335938 0.640625
vt 0.328125 0.640625
vt 0.367188 0.460938
vt 0.359375 0.632813
vt 0.367188 0.632813
vt 0.375000 0.460938
vt 0.375000 0.632813
vt 0.351563 0.460938
vt 0.351563 0.632813
vt 0.359375 0.460938
vt 0.367188 0.640625
vt 0.359375 0.640625
vt 0.554688 0.421875
vt 0.515625 0.351563
vt 0.515625 0.421875
vt 0.562500 0.421875
vt 0.554688 0.351563
vt 0.507813 0.351563
vt 0.507813 0.421875
vt 0.523438 0.460938
vt 0.523438 0.421875
vt 0.515625 0.460938
vt 0.398438 0.460938
vt 0.390625 0.632813
vt 0.398438 0.632813
vt 0.406250 0.460938
vt 0.406250 0.632813
vt 0.382813 0.460938
vt 0.382813 0.632813
vt 0.390625 0.460938
vt 0.398438 0.640625
vt 0.390625 0.640625
vt 0.421875 0.632813
vt 0.429688 0.632813
vt 0.437500 0.460938
vt 0.437500 0.632813
vt 0.414063 0.460938
vt 0.414063 0.632813
vt 0.429688 0.640625
vt 0.421875 0.640625
vt 0.648438 0.421875
vt 0.609375 0.351563
vt 0.609375 0.421875
vt 0.656250 0.351563
vt 0.656250 0.421875
vt 0.601563 0.351563
vt 0.601563 0.421875
vt 0.617188 0.460938
vt 0.617188 0.421875
vt 0.609375 0.460938
vt 0.460938 0.460938
vt 0.453125 0.632813
vt 0.460938 0.632813
vt 0.468750 0.460938
vt 0.468750 0.632813
vt 0.445313 0.460938
vt 0.445313 0.632813
vt 0.453125 0.460938
vt 0.460938 0.640625
vt 0.453125 0.640625
vt 0.492188 0.460938
vt 0.484375 0.632813
vt 0.492188 0.632813
vt 0.500000 0.460938
vt 0.500000 0.632813
vt 0.476563 0.460938
vt 0.476563 0.632813
vt 0.484375 0.460938
vt 0.492188 0.640625
vt 0.484375 0.640625
vt 0.742188 0.421875
vt 0.703125 0.351563
vt 0.703125 0.421875
vt 0.750000 0.351563
vt 0.750000 0.421875
vt 0.695313 0.351563
vt 0.695313 0.421875
vt 0.710938 0.460938
vt 0.710938 0.421875
vt 0.703125 0.460938
vt 0.515625 0.632813
vt 0.523438 0.632813
vt 0.531250 0.632813
vt 0.507813 0.460938
vt 0.507813 0.632813
vt 0.523438 0.640625
vt 0.515625 0.640625
vt 0.554688 0.460938
vt 0.546875 0.632813
vt 0.554688 0.632813
vt 0.562500 0.632813
vt 0.539063 0.460938
vt 0.539063 0.632813
vt 0.546875 0.460938
vt 0.554688 0.640625
vt 0.546875 0.640625
vt 0.835938 0.351563
vt 0.796875 0.421875
vt 0.835938 0.421875
vt 0.843750 0.421875
vt 0.789063 0.351563
vt 0.789063 0.421875
vt 0.796875 0.351563
vt 0.804688 0.460938
vt 0.804688 0.421875
vt 0.796875 0.460938
vt 0.585938 0.460938
vt 0.578125 0.632813
vt 0.585938 0.632813
vt 0.593750 0.460938
vt 0.593750 0.632813
vt 0.570313 0.460938
vt 0.570313 0.632813
vt 0.578125 0.460938
vt 0.578125 0.640625
vt 0.609375 0.632813
vt 0.617188 0.632813
vt 0.625000 0.460938
vt 0.625000 0.632813
vt 0.601563 0.460938
vt 0.601563 0.632813
vt 0.609375 0.640625
vt 0.929688 0.351563
vt 0.890625 0.421875
vt 0.929688 0.421875
vt 0.937500 0.351563
vt 0.937500 0.421875
vt 0.882813 0.351563
vt 0.882813 0.421875
vt 0.890625 0.351563
vt 0.898438 0.421875
vt 0.890625 0.460938
vt 0.648438 0.460938
vt 0.640625 0.632813
vt 0.648438 0.632813
vt 0.656250 0.460938
vt 0.656250 0.632813
vt 0.632813 0.460938
vt 0.632813 0.632813
vt 0.648438 0.640625
vt 0.640625 0.640625
vt 0.679688 0.460938
vt 0.671875 0.632813
vt 0.679688 0.632813
vt 0.687500 0.460938
vt 0.687500 0.632813
vt 0.664063 0.460938
vt 0.664063 0.632813
vt 0.679688 0.640625
vt 0.671875 0.640625
vt 0.808773 0.090269
vt 0.769710 0.160581
vt 0.808773 0.160581
vt 0.816585 0.090269
vt 0.816585 0.160581
vt 0.761898 0.090269
vt 0.722835 0.160581
vt 0.761898 0.160581
vt 0.777523 0.199644
vt 0.777523 0.160581
vt 0.761898 0.199644
vt 0.703125 0.632813
vt 0.710938 0.632813
vt 0.718750 0.460938
vt 0.718750 0.632813
vt 0.695313 0.460938
vt 0.695313 0.632813
vt 0.710938 0.640625
vt 0.703125 0.640625
vt 0.742188 0.460938
vt 0.734375 0.632813
vt 0.742188 0.632813
vt 0.750000 0.460938
vt 0.750000 0.632813
vt 0.726563 0.460938
vt 0.726563 0.632813
vt 0.734375 0.460938
vt 0.742188 0.640625
vt 0.734375 0.640625
vt 0.715023 0.090269
vt 0.675960 0.160581
vt 0.715023 0.160581
vt 0.668148 0.160581
vt 0.629085 0.090269
vt 0.629085 0.160581
vt 0.675960 0.090269
vt 0.683773 0.199644
vt 0.683773 0.160581
vt 0.675960 0.199644
vt 0.289063 0.335938
vt 0.281250 0.343750
vt 0.289063 0.343750
vt 0.375000 0.335938
vt 0.375000 0.343750
vt 0.195313 0.335938
vt 0.195313 0.343750
vt 0.281250 0.335938
vt 0.367188 0.343750
vt 0.281250 0.351563
vt 0.289063 0.320313
vt 0.281250 0.328125
vt 0.289063 0.328125
vt 0.375000 0.328125
vt 0.195313 0.320313
vt 0.195313 0.328125
vt 0.281250 0.320313
vt 0.367188 0.335938
vt 0.367188 0.328125
vt 0.476563 0.335938
vt 0.468750 0.343750
vt 0.476563 0.343750
vt 0.562500 0.343750
vt 0.382813 0.343750
vt 0.468750 0.335938
vt 0.554688 0.343750
vt 0.476563 0.320313
vt 0.468750 0.328125
vt 0.476563 0.328125
vt 0.562500 0.328125
vt 0.382813 0.328125
vt 0.375000 0.320313
vt 0.468750 0.320313
vt 0.554688 0.328125
vt 0.664063 0.343750
vt 0.656250 0.335938
vt 0.656250 0.343750
vt 0.750000 0.335938
vt 0.750000 0.343750
vt 0.570313 0.335938
vt 0.570313 0.343750
vt 0.742188 0.351563
vt 0.742188 0.343750
vt 0.664063 0.328125
vt 0.656250 0.320313
vt 0.656250 0.328125
vt 0.750000 0.320313
vt 0.750000 0.328125
vt 0.570313 0.320313
vt 0.570313 0.328125
vt 0.742188 0.335938
vt 0.742188 0.328125
vt 0.101563 0.304688
vt 0.093750 0.312500
vt 0.101563 0.312500
vt 0.187500 0.304688
vt 0.187500 0.312500
vt 0.007813 0.304688
vt 0.000000 0.312500
vt 0.007813 0.312500
vt 0.093750 0.304688
vt 0.179688 0.320313
vt 0.179688 0.312500
vt 0.093750 0.320313
vt 0.101563 0.289063
vt 0.093750 0.296875
vt 0.101563 0.296875
vt 0.187500 0.289063
vt 0.187500 0.296875
vt 0.007813 0.289063
vt 0.000000 0.296875
vt 0.007813 0.296875
vt 0.093750 0.289063
vt 0.179688 0.304688
vt 0.179688 0.296875
vt 0.289063 0.304688
vt 0.281250 0.312500
vt 0.289063 0.312500
vt 0.375000 0.312500
vt 0.195313 0.304688
vt 0.195313 0.312500
vt 0.281250 0.304688
vt 0.367188 0.320313
vt 0.367188 0.312500
vt 0.289063 0.289063
vt 0.281250 0.296875
vt 0.289063 0.296875
vt 0.375000 0.296875
vt 0.195313 0.289063
vt 0.195313 0.296875
vt 0.281250 0.289063
vt 0.367188 0.304688
vt 0.367188 0.296875
vt 0.476563 0.304688
vt 0.468750 0.312500
vt 0.476563 0.312500
vt 0.562500 0.304688
vt 0.562500 0.312500
vt 0.382813 0.304688
vt 0.382813 0.312500
vt 0.554688 0.320313
vt 0.554688 0.312500
vt 0.476563 0.289063
vt 0.468750 0.296875
vt 0.476563 0.296875
vt 0.562500 0.289063
vt 0.562500 0.296875
vt 0.382813 0.289063
vt 0.382813 0.296875
vt 0.554688 0.304688
vt 0.554688 0.296875
vt 0.468750 0.304688
vt 0.664063 0.304688
vt 0.656250 0.312500
vt 0.664063 0.312500
vt 0.750000 0.304688
vt 0.750000 0.312500
vt 0.570313 0.304688
vt 0.570313 0.312500
vt 0.656250 0.304688
vt 0.742188 0.320313
vt 0.742188 0.312500
vt 0.664063 0.289063
vt 0.656250 0.296875
vt 0.664063 0.296875
vt 0.750000 0.289063
vt 0.750000 0.296875
vt 0.570313 0.289063
vt 0.570313 0.296875
vt 0.656250 0.289063
vt 0.742188 0.304688
vt 0.742188 0.296875
vt 0.101563 0.273438
vt 0.093750 0.281250
vt 0.101563 0.281250
vt 0.187500 0.281250
vt 0.007813 0.273438
vt 0.000000 0.281250
vt 0.007813 0.281250
vt 0.093750 0.273438
vt 0.179688 0.289063
vt 0.179688 0.281250
vt 0.289063 0.273438
vt 0.281250 0.281250
vt 0.289063 0.281250
vt 0.375000 0.281250
vt 0.195313 0.273438
vt 0.195313 0.281250
vt 0.281250 0.273438
vt 0.367188 0.289063
vt 0.367188 0.281250
vt 0.476563 0.273438
vt 0.468750 0.281250
vt 0.476563 0.281250
vt 0.562500 0.273438
vt 0.562500 0.281250
vt 0.382813 0.273438
vt 0.382813 0.281250
vt 0.554688 0.289063
vt 0.554688 0.281250
vt 0.468750 0.289063
vt 0.664063 0.273438
vt 0.656250 0.281250
vt 0.664063 0.281250
vt 0.750000 0.273438
vt 0.750000 0.281250
vt 0.570313 0.273438
vt 0.570313 0.281250
vt 0.742188 0.289063
vt 0.742188 0.281250
vt 0.101563 0.257813
vt 0.093750 0.265625
vt 0.101563 0.265625
vt 0.187500 0.257813
vt 0.187500 0.265625
vt 0.007813 0.257813
vt 0.000000 0.265625
vt 0.007813 0.265625
vt 0.179688 0.273438
vt 0.179688 0.265625
vt 0.289063 0.257813
vt 0.281250 0.265625
vt 0.289063 0.265625
vt 0.375000 0.257813
vt 0.375000 0.265625
vt 0.195313 0.257813
vt 0.195313 0.265625
vt 0.281250 0.257813
vt 0.367188 0.273438
vt 0.367188 0.265625
vt 0.476563 0.257813
vt 0.468750 0.265625
vt 0.476563 0.265625
vt 0.562500 0.265625
vt 0.382813 0.257813
vt 0.382813 0.265625
vt 0.468750 0.257813
vt 0.554688 0.273438
vt 0.554688 0.265625
vt 0.468750 0.273438
vt 0.664063 0.257813
vt 0.656250 0.265625
vt 0.664063 0.265625
vt 0.750000 0.265625
vt 0.570313 0.257813
vt 0.570313 0.265625
vt 0.656250 0.257813
vt 0.742188 0.273438
vt 0.742188 0.265625
vt 0.656250 0.273438
vt 0.007813 0.664063
vt 0.007813 0.687500
vt 0.085938 0.687500
vt 0.085938 0.710938
vt 0.062500 0.640625
vt 0.062500 0.710938
vt 0.203125 0.710938
vt 0.007813 0.710938
vt 0.085938 0.664063
vt 0.000000 0.460938
vt 0.007813 0.640625
vt 0.039063 0.640625
vt 0.085938 0.351563
vt 0.000000 0.351563
vt 0.000000 0.335938
vt 0.007813 0.351563
vt 0.000000 0.320313
vt 0.101563 0.640625
vt 0.140625 0.351563
vt 0.148438 0.640625
vt 0.171875 0.640625
vt 0.234375 0.640625
vt 0.265625 0.460938
vt 0.265625 0.640625
vt 0.421875 0.351563
vt 0.296875 0.640625
vt 0.320313 0.640625
vt 0.351563 0.640625
vt 0.562500 0.351563
vt 0.382813 0.640625
vt 0.414063 0.640625
vt 0.648438 0.351563
vt 0.445313 0.640625
vt 0.476563 0.640625
vt 0.531250 0.460938
vt 0.507813 0.640625
vt 0.562500 0.460938
vt 0.539063 0.640625
vt 0.843750 0.351563
vt 0.789063 0.460938
vt 0.585938 0.640625
vt 0.570313 0.640625
vt 0.617188 0.640625
vt 0.601563 0.640625
vt 0.898438 0.460938
vt 0.882813 0.460938
vt 0.640625 0.460938
vt 0.632813 0.640625
vt 0.671875 0.460938
vt 0.664063 0.640625
vt 0.769710 0.090269
vt 0.722835 0.090269
vt 0.769710 0.199644
vt 0.695313 0.640625
vt 0.726563 0.640625
vt 0.668148 0.090269
vt 0.668148 0.199644
vt 0.195313 0.351563
vt 0.562500 0.335938
vt 0.382813 0.335938
vt 0.382813 0.351563
vt 0.562500 0.320313
vt 0.382813 0.320313
vt 0.554688 0.335938
vt 0.664063 0.335938
vt 0.570313 0.351563
vt 0.664063 0.320313
vt 0.000000 0.304688
vt 0.000000 0.289063
vt 0.375000 0.304688
vt 0.375000 0.289063
vt 0.187500 0.273438
vt 0.000000 0.273438
vt 0.375000 0.273438
vt 0.093750 0.257813
vt 0.000000 0.257813
vt 0.562500 0.257813
vt 0.750000 0.257813
s 0
usemtl Material.001
f 60/53/19 58/54/19 57/55/19
f 59/56/20 61/57/20 58/58/20
f 62/59/21 63/60/21 61/61/21
f 64/62/22 57/57/22 63/63/22
f 58/64/23 63/65/23 57/66/23
f 60/67/24 62/53/24 59/55/24
f 68/68/19 66/69/19 65/70/19
f 67/71/20 69/72/20 66/73/20
f 70/74/21 71/75/21 69/76/21
f 72/71/22 65/77/22 71/78/22
f 66/79/23 71/80/23 65/81/23
f 68/75/24 70/82/24 67/76/24
f 76/83/25 74/84/25 73/85/25
f 75/86/20 77/87/20 74/88/20
f 78/89/26 79/90/26 77/74/26
f 79/91/22 76/92/22 73/93/22
f 74/94/27 79/83/27 73/95/27
f 76/96/28 78/89/28 75/97/28
f 84/98/19 82/99/19 81/100/19
f 83/101/20 85/102/20 82/103/20
f 86/104/21 87/105/21 85/106/21
f 88/102/22 81/107/22 87/108/22
f 82/109/23 87/110/23 81/111/23
f 84/104/24 86/112/24 83/113/24
f 92/114/19 90/115/19 89/116/19
f 91/117/20 93/118/20 90/119/20
f 94/120/21 95/121/21 93/118/21
f 96/122/22 89/123/22 95/121/22
f 90/119/23 95/121/23 89/123/23
f 92/124/24 94/120/24 91/117/24
f 100/125/29 98/126/29 97/127/29
f 99/128/20 101/129/20 98/126/20
f 102/130/30 103/131/30 101/129/30
f 103/131/22 100/125/22 97/127/22
f 98/126/31 103/131/31 97/127/31
f 100/125/32 102/130/32 99/128/32
f 108/132/33 106/133/33 105/134/33
f 106/133/20 110/135/20 109/136/20
f 110/135/34 111/137/34 109/136/34
f 112/138/22 105/134/22 111/137/22
f 106/133/35 111/137/35 105/134/35
f 108/132/36 110/135/36 107/139/36
f 116/140/37 114/141/37 113/142/37
f 115/143/20 117/144/20 114/141/20
f 118/145/38 119/146/38 117/144/38
f 119/146/22 116/140/22 113/142/22
f 114/141/39 119/146/39 113/142/39
f 116/140/40 118/145/40 115/143/40
f 124/147/41 122/148/41 121/149/41
f 122/148/20 126/150/20 125/151/20
f 126/150/42 127/152/42 125/151/42
f 128/153/22 121/149/22 127/152/22
f 122/148/43 127/152/43 121/149/43
f 124/147/44 126/150/44 123/154/44
f 132/155/23 130/156/23 129/157/23
f 131/158/20 133/159/20 130/156/20
f 134/160/24 135/161/24 133/159/24
f 136/162/22 129/157/22 135/161/22
f 130/156/21 135/161/21 129/157/21
f 132/155/19 134/160/19 131/158/19
f 140/163/31 138/164/31 137/165/31
f 139/166/20 141/167/20 138/164/20
f 142/168/32 143/169/32 141/167/32
f 143/169/22 140/163/22 137/165/22
f 138/164/30 143/169/30 137/165/30
f 140/163/29 142/168/29 139/166/29
f 148/170/35 146/171/35 145/172/35
f 146/171/20 150/173/20 149/174/20
f 150/173/36 151/175/36 149/174/36
f 152/176/22 145/172/22 151/175/22
f 146/171/34 151/175/34 145/172/34
f 148/170/33 150/173/33 147/177/33
f 156/178/39 154/179/39 153/180/39
f 155/181/20 157/182/20 154/179/20
f 158/183/40 159/184/40 157/182/40
f 159/184/22 156/178/22 153/180/22
f 154/179/38 159/184/38 153/180/38
f 156/178/37 158/183/37 155/181/37
f 164/185/43 162/186/43 161/187/43
f 162/186/20 166/188/20 165/189/20
f 166/188/44 167/190/44 165/189/44
f 168/191/22 161/187/22 167/190/22
f 162/186/42 167/190/42 161/187/42
f 164/185/41 166/188/41 163/192/41
f 172/193/21 170/194/21 169/195/21
f 171/196/20 173/197/20 170/194/20
f 174/198/19 175/199/19 173/197/19
f 176/200/22 169/195/22 175/199/22
f 170/194/24 175/199/24 169/195/24
f 172/193/23 174/198/23 171/196/23
f 180/201/30 178/202/30 177/203/30
f 179/204/20 181/205/20 178/202/20
f 182/206/29 183/207/29 181/205/29
f 183/207/22 180/201/22 177/203/22
f 178/202/32 183/207/32 177/203/32
f 180/201/31 182/206/31 179/204/31
f 188/208/34 186/209/34 185/210/34
f 186/209/20 190/211/20 189/212/20
f 190/211/33 191/213/33 189/212/33
f 192/214/22 185/210/22 191/213/22
f 186/209/36 191/213/36 185/210/36
f 188/208/35 190/211/35 187/215/35
f 196/216/38 194/217/38 193/218/38
f 195/219/20 197/220/20 194/217/20
f 198/221/37 199/222/37 197/220/37
f 199/222/22 196/216/22 193/218/22
f 194/217/40 199/222/40 193/218/40
f 196/216/39 198/221/39 195/219/39
f 204/223/42 202/224/42 201/225/42
f 202/224/20 206/226/20 205/227/20
f 206/226/41 207/228/41 205/227/41
f 208/229/22 201/225/22 207/228/22
f 202/224/44 207/228/44 201/225/44
f 204/223/43 206/226/43 203/230/43
f 212/231/24 210/232/24 209/233/24
f 211/234/20 213/235/20 210/232/20
f 214/236/23 215/237/23 213/235/23
f 216/238/22 209/233/22 215/237/22
f 210/232/19 215/237/19 209/233/19
f 212/231/21 214/236/21 211/234/21
f 220/239/32 218/240/32 217/241/32
f 219/242/20 221/243/20 218/240/20
f 222/244/31 223/245/31 221/243/31
f 223/245/22 220/239/22 217/241/22
f 218/240/29 223/245/29 217/241/29
f 220/239/30 222/244/30 219/242/30
f 228/246/36 226/247/36 225/248/36
f 226/247/20 230/249/20 229/250/20
f 230/249/35 231/251/35 229/250/35
f 232/252/22 225/248/22 231/251/22
f 226/247/33 231/251/33 225/248/33
f 228/246/34 230/249/34 227/253/34
f 236/254/40 234/255/40 233/256/40
f 235/257/20 237/258/20 234/255/20
f 238/259/39 239/260/39 237/258/39
f 239/260/22 236/254/22 233/256/22
f 234/255/37 239/260/37 233/256/37
f 236/254/38 238/259/38 235/257/38
f 244/261/44 242/262/44 241/263/44
f 242/262/20 246/264/20 245/265/20
f 246/264/43 247/266/43 245/265/43
f 248/267/22 241/263/22 247/266/22
f 242/262/41 247/266/41 241/263/41
f 244/261/42 246/264/42 243/268/42
f 252/269/19 250/270/19 249/271/19
f 251/272/20 253/273/20 250/274/20
f 254/275/21 255/276/21 253/273/21
f 256/277/22 249/278/22 255/279/22
f 250/280/23 255/281/23 249/282/23
f 252/283/24 254/284/24 251/285/24
f 260/286/28 258/287/28 257/288/28
f 258/289/20 262/290/20 261/291/20
f 262/292/27 263/293/27 261/294/27
f 264/295/22 257/289/22 263/296/22
f 258/297/25 263/298/25 257/299/25
f 260/286/26 262/300/26 259/301/26
f 268/302/24 266/303/24 265/269/24
f 267/304/20 269/305/20 266/306/20
f 270/307/23 271/308/23 269/278/23
f 272/309/22 265/310/22 271/302/22
f 266/311/19 271/312/19 265/77/19
f 268/313/21 270/314/21 267/315/21
f 276/316/26 274/317/26 273/318/26
f 274/319/20 278/320/20 277/321/20
f 278/322/25 279/323/25 277/101/25
f 280/274/22 273/324/22 279/272/22
f 274/317/28 279/325/28 273/318/28
f 276/326/27 278/327/27 275/328/27
f 284/329/21 282/330/21 281/331/21
f 283/332/20 285/333/20 282/330/20
f 286/334/19 287/335/19 285/336/19
f 288/337/22 281/338/22 287/339/22
f 282/340/24 287/341/24 281/312/24
f 284/315/23 286/342/23 283/343/23
f 292/339/27 290/344/27 289/345/27
f 291/336/20 293/346/20 290/347/20
f 294/348/28 295/349/28 293/350/28
f 296/351/22 289/352/22 295/353/22
f 290/354/26 295/349/26 289/355/26
f 292/356/25 294/357/25 291/291/25
f 300/358/23 298/353/23 297/310/23
f 299/359/20 301/360/20 298/361/20
f 302/362/24 303/310/24 301/353/24
f 304/319/22 297/303/22 303/362/22
f 298/363/21 303/364/21 297/341/21
f 300/365/19 302/285/19 299/366/19
f 308/350/25 306/367/25 305/348/25
f 307/368/20 309/369/20 306/370/20
f 310/371/26 311/361/26 309/360/26
f 311/372/22 308/93/22 305/279/22
f 306/373/27 311/328/27 305/327/27
f 308/350/28 310/374/28 307/375/28
f 60/53/19 59/376/19 58/54/19
f 59/56/20 62/377/20 61/57/20
f 62/59/21 64/378/21 63/60/21
f 64/62/22 60/58/22 57/57/22
f 58/64/23 61/67/23 63/65/23
f 60/67/24 64/64/24 62/53/24
f 68/68/19 67/379/19 66/69/19
f 67/71/20 70/78/20 69/72/20
f 70/74/21 72/90/21 71/75/21
f 72/71/22 68/311/22 65/77/22
f 66/79/23 69/380/23 71/80/23
f 68/75/24 72/381/24 70/82/24
f 76/83/25 75/382/25 74/84/25
f 75/86/20 78/383/20 77/87/20
f 78/89/26 80/384/26 79/90/26
f 79/91/22 80/385/22 76/92/22
f 74/94/27 77/382/27 79/83/27
f 76/96/28 80/384/28 78/89/28
f 84/98/19 83/386/19 82/99/19
f 83/101/20 86/387/20 85/102/20
f 86/104/21 88/388/21 87/105/21
f 88/102/22 84/387/22 81/107/22
f 82/109/23 85/389/23 87/110/23
f 84/104/24 88/106/24 86/112/24
f 92/114/19 91/390/19 90/115/19
f 91/117/20 94/120/20 93/118/20
f 94/120/21 96/122/21 95/121/21
f 96/122/22 92/124/22 89/123/22
f 90/119/23 93/118/23 95/121/23
f 92/124/24 96/122/24 94/120/24
f 100/125/29 99/128/29 98/126/29
f 99/128/20 102/130/20 101/129/20
f 102/130/30 104/391/30 103/131/30
f 103/131/22 104/391/22 100/125/22
f 98/126/31 101/129/31 103/131/31
f 100/125/32 104/391/32 102/130/32
f 108/132/33 107/139/33 106/133/33
f 106/133/20 107/139/20 110/135/20
f 110/135/34 112/138/34 111/137/34
f 112/138/22 108/132/22 105/134/22
f 106/133/35 109/136/35 111/137/35
f 108/132/36 112/138/36 110/135/36
f 116/140/37 115/143/37 114/141/37
f 115/143/20 118/145/20 117/144/20
f 118/145/38 120/392/38 119/146/38
f 119/146/22 120/392/22 116/140/22
f 114/141/39 117/144/39 119/146/39
f 116/140/40 120/392/40 118/145/40
f 124/147/41 123/154/41 122/148/41
f 122/148/20 123/154/20 126/150/20
f 126/150/42 128/153/42 127/152/42
f 128/153/22 124/147/22 121/149/22
f 122/148/43 125/151/43 127/152/43
f 124/147/44 128/153/44 126/150/44
f 132/155/23 131/158/23 130/156/23
f 131/158/20 134/160/20 133/159/20
f 134/160/24 136/162/24 135/161/24
f 136/162/22 132/155/22 129/157/22
f 130/156/21 133/159/21 135/161/21
f 132/155/19 136/162/19 134/160/19
f 140/163/31 139/166/31 138/164/31
f 139/166/20 142/168/20 141/167/20
f 142/168/32 144/393/32 143/169/32
f 143/169/22 144/393/22 140/163/22
f 138/164/30 141/167/30 143/169/30
f 140/163/29 144/393/29 142/168/29
f 148/170/35 147/177/35 146/171/35
f 146/171/20 147/177/20 150/173/20
f 150/173/36 152/176/36 151/175/36
f 152/176/22 148/170/22 145/172/22
f 146/171/34 149/174/34 151/175/34
f 148/170/33 152/176/33 150/173/33
f 156/178/39 155/181/39 154/179/39
f 155/181/20 158/183/20 157/182/20
f 158/183/40 160/394/40 159/184/40
f 159/184/22 160/394/22 156/178/22
f 154/179/38 157/182/38 159/184/38
f 156/178/37 160/394/37 158/183/37
f 164/185/43 163/192/43 162/186/43
f 162/186/20 163/192/20 166/188/20
f 166/188/44 168/191/44 167/190/44
f 168/191/22 164/185/22 161/187/22
f 162/186/42 165/189/42 167/190/42
f 164/185/41 168/191/41 166/188/41
f 172/193/21 171/196/21 170/194/21
f 171/196/20 174/198/20 173/197/20
f 174/198/19 176/200/19 175/199/19
f 176/200/22 172/193/22 169/195/22
f 170/194/24 173/197/24 175/199/24
f 172/193/23 176/200/23 174/198/23
f 180/201/30 179/204/30 178/202/30
f 179/204/20 182/206/20 181/205/20
f 182/206/29 184/395/29 183/207/29
f 183/207/22 184/395/22 180/201/22
f 178/202/32 181/205/32 183/207/32
f 180/201/31 184/395/31 182/206/31
f 188/208/34 187/215/34 186/209/34
f 186/209/20 187/215/20 190/211/20
f 190/211/33 192/214/33 191/213/33
f 192/214/22 188/208/22 185/210/22
f 186/209/36 189/212/36 191/213/36
f 188/208/35 192/214/35 190/211/35
f 196/216/38 195/219/38 194/217/38
f 195/219/20 198/221/20 197/220/20
f 198/221/37 200/396/37 199/222/37
f 199/222/22 200/396/22 196/216/22
f 194/217/40 197/220/40 199/222/40
f 196/216/39 200/396/39 198/221/39
f 204/223/42 203/230/42 202/224/42
f 202/224/20 203/230/20 206/226/20
f 206/226/41 208/229/41 207/228/41
f 208/229/22 204/223/22 201/225/22
f 202/224/44 205/227/44 207/228/44
f 204/223/43 208/229/43 206/226/43
f 212/231/24 211/234/24 210/232/24
f 211/234/20 214/236/20 213/235/20
f 214/236/23 216/238/23 215/237/23
f 216/238/22 212/231/22 209/233/22
f 210/232/19 213/235/19 215/237/19
f 212/231/21 216/238/21 214/236/21
f 220/239/32 219/242/32 218/240/32
f 219/242/20 222/244/20 221/243/20
f 222/244/31 224/397/31 223/245/31
f 223/245/22 224/397/22 220/239/22
f 218/240/29 221/243/29 223/245/29
f 220/239/30 224/397/30 222/244/30
f 228/246/36 227/253/36 226/247/36
f 226/247/20 227/253/20 230/249/20
f 230/249/35 232/252/35 231/251/35
f 232/252/22 228/246/22 225/248/22
f 226/247/33 229/250/33 231/251/33
f 228/246/34 232/252/34 230/249/34
f 236/254/40 235/257/40 234/255/40
f 235/257/20 238/259/20 237/258/20
f 238/259/39 240/398/39 239/260/39
f 239/260/22 240/398/22 236/254/22
f 234/255/37 237/258/37 239/260/37
f 236/254/38 240/398/38 238/259/38
f 244/261/44 243/268/44 242/262/44
f 242/262/20 243/268/20 246/264/20
f 246/264/43 248/267/43 247/266/43
f 248/267/22 244/261/22 241/263/22
f 242/262/41 245/265/41 247/266/41
f 244/261/42 248/267/42 246/264/42
f 252/269/19 251/303/19 250/270/19
f 251/272/20 254/275/20 253/273/20
f 254/275/21 256/399/21 255/276/21
f 256/277/22 252/332/22 249/278/22
f 250/280/23 253/400/23 255/281/23
f 252/283/24 256/401/24 254/284/24
f 260/286/28 259/301/28 258/287/28
f 258/289/20 259/402/20 262/290/20
f 262/292/27 264/403/27 263/293/27
f 264/295/22 260/294/22 257/289/22
f 258/297/25 261/326/25 263/298/25
f 260/286/26 264/404/26 262/300/26
f 268/302/24 267/405/24 266/303/24
f 267/304/20 270/406/20 269/305/20
f 270/307/23 272/407/23 271/308/23
f 272/309/22 268/358/22 265/310/22
f 266/311/19 269/340/19 271/312/19
f 268/313/21 272/408/21 270/314/21
f 276/316/26 275/409/26 274/317/26
f 274/319/20 275/362/20 278/320/20
f 278/322/25 280/410/25 279/323/25
f 280/274/22 276/411/22 273/324/22
f 274/317/28 277/412/28 279/325/28
f 276/326/27 280/297/27 278/327/27
f 284/329/21 283/332/21 282/330/21
f 283/332/20 286/277/20 285/333/20
f 286/334/19 288/413/19 287/335/19
f 288/337/22 284/414/22 281/338/22
f 282/340/24 285/363/24 287/341/24
f 284/315/23 288/314/23 286/342/23
f 292/339/27 291/338/27 290/344/27
f 291/336/20 294/415/20 293/346/20
f 294/348/28 296/416/28 295/349/28
f 296/351/22 292/417/22 289/352/22
f 290/354/26 293/350/26 295/349/26
f 292/356/25 296/373/25 294/357/25
f 300/358/23 299/351/23 298/353/23
f 299/359/20 302/418/20 301/360/20
f 302/362/24 304/419/24 303/310/24
f 304/319/22 300/420/22 297/303/22
f 298/363/21 301/421/21 303/364/21
f 300/365/19 304/283/19 302/285/19
f 308/350/25 307/375/25 306/367/25
f 307/368/20 310/422/20 309/369/20
f 310/371/26 312/423/26 311/361/26
f 311/372/22 312/91/22 308/93/22
f 306/373/27 309/356/27 311/328/27
f 308/350/28 312/354/28 310/374/28
f 316/424/19 314/425/19 313/426/19
f 315/427/20 317/426/20 314/428/20
f 317/429/21 320/430/21 319/431/21
f 320/432/22 313/429/22 319/425/22
f 314/433/23 319/425/23 313/434/23
f 316/435/24 318/429/24 315/425/24
f 324/436/19 322/437/19 321/438/19
f 323/439/20 325/438/20 322/440/20
f 325/441/21 328/442/21 327/443/21
f 328/444/22 321/441/22 327/437/22
f 322/445/23 327/437/23 321/446/23
f 324/447/24 326/441/24 323/437/24
f 332/448/19 330/449/19 329/450/19
f 331/451/20 333/450/20 330/452/20
f 333/453/21 336/454/21 335/455/21
f 336/456/22 329/453/22 335/449/22
f 330/457/23 335/449/23 329/458/23
f 332/459/24 334/453/24 331/449/24
f 340/460/25 338/461/25 337/462/25
f 339/463/20 341/462/20 338/464/20
f 342/465/26 343/452/26 341/466/26
f 344/467/22 337/466/22 343/461/22
f 338/468/27 343/461/27 337/469/27
f 340/470/28 342/466/28 339/461/28
f 348/471/19 346/472/19 345/473/19
f 347/474/20 349/473/20 346/475/20
f 349/476/21 352/477/21 351/478/21
f 352/435/22 345/476/22 351/472/22
f 346/479/23 351/472/23 345/480/23
f 348/481/24 350/476/24 347/472/24
f 356/482/19 354/483/19 353/484/19
f 355/485/20 357/484/20 354/486/20
f 357/487/21 360/488/21 359/489/21
f 360/490/22 353/487/22 359/483/22
f 354/491/23 359/483/23 353/492/23
f 356/444/24 358/487/24 355/483/24
f 364/493/19 362/494/19 361/495/19
f 363/496/20 365/495/20 362/497/20
f 366/498/21 367/499/21 365/500/21
f 368/501/22 361/500/22 367/494/22
f 362/502/23 367/494/23 361/495/23
f 364/503/24 366/500/24 363/494/24
f 372/504/19 370/505/19 369/506/19
f 371/507/20 373/506/20 370/508/20
f 374/509/21 375/497/21 373/510/21
f 376/511/22 369/510/22 375/505/22
f 370/512/23 375/505/23 369/506/23
f 372/513/24 374/510/24 371/505/24
f 377/514/19 379/515/19 378/516/19
f 379/517/20 381/514/20 378/518/20
f 382/519/21 383/520/21 381/521/21
f 384/515/22 377/521/22 383/516/22
f 378/504/23 383/516/23 377/522/23
f 380/511/24 382/521/24 379/516/24
f 388/523/45 386/524/45 385/525/45
f 387/526/20 389/525/20 386/527/20
f 390/528/46 391/508/46 389/529/46
f 392/530/22 385/529/22 391/524/22
f 386/531/47 391/524/47 385/525/47
f 388/532/48 390/529/48 387/524/48
f 396/533/49 394/534/49 393/535/49
f 395/536/20 397/535/20 394/537/20
f 398/538/50 399/539/50 397/540/50
f 399/534/22 396/538/22 393/540/22
f 394/541/51 399/534/51 393/542/51
f 396/517/52 398/540/52 395/534/52
f 404/543/49 402/544/49 401/545/49
f 403/546/20 405/545/20 402/547/20
f 406/548/50 407/549/50 405/550/50
f 407/544/22 404/548/22 401/550/22
f 402/551/51 407/544/51 401/552/51
f 404/553/52 406/550/52 403/544/52
f 412/554/45 410/555/45 409/556/45
f 411/557/20 413/556/20 410/558/20
f 414/559/46 415/527/46 413/560/46
f 416/561/22 409/560/22 415/555/22
f 410/562/47 415/555/47 409/556/47
f 412/563/48 414/560/48 411/555/48
f 420/541/45 418/564/45 417/565/45
f 419/566/20 421/565/20 418/567/20
f 421/568/46 424/517/46 423/518/46
f 423/564/22 420/569/22 417/568/22
f 418/570/47 423/564/47 417/571/47
f 420/572/48 422/568/48 419/564/48
f 428/570/53 426/573/53 425/574/53
f 427/575/20 429/574/20 426/576/20
f 430/577/54 431/558/54 429/578/54
f 432/572/22 425/578/22 431/573/22
f 425/574/55 429/451/55 431/573/55
f 427/573/56 432/448/56 430/578/56
f 436/579/53 434/580/53 433/581/53
f 435/582/20 437/581/20 434/583/20
f 438/584/54 439/576/54 437/585/54
f 440/586/22 433/585/22 439/580/22
f 434/587/55 439/580/55 433/581/55
f 435/580/56 440/588/56 438/585/56
f 444/589/53 442/590/53 441/591/53
f 442/592/20 446/589/20 445/591/20
f 446/593/54 447/567/54 445/594/54
f 448/595/22 441/594/22 447/590/22
f 441/596/55 445/597/55 447/590/55
f 444/597/56 446/594/56 443/590/56
f 452/598/23 450/599/23 449/600/23
f 451/601/20 453/600/20 450/602/20
f 454/603/24 455/583/24 453/604/24
f 456/605/22 449/604/22 455/599/22
f 450/467/21 455/599/21 449/600/21
f 451/599/19 456/606/19 454/604/19
f 460/607/23 458/608/23 457/609/23
f 459/610/20 461/609/20 458/611/20
f 462/612/24 463/602/24 461/613/24
f 464/597/22 457/613/22 463/608/22
f 458/614/21 463/608/21 457/609/21
f 459/608/19 464/615/19 462/613/19
f 468/616/23 466/617/23 465/618/23
f 467/619/20 469/618/20 466/620/20
f 470/621/24 471/592/24 469/622/24
f 472/623/22 465/622/22 471/617/22
f 466/624/21 471/617/21 465/625/21
f 467/617/19 472/626/19 470/622/19
f 476/627/47 474/628/47 473/629/47
f 475/630/20 477/629/20 474/631/20
f 478/632/48 479/611/48 477/633/48
f 479/628/22 476/632/22 473/633/22
f 474/460/46 479/628/46 473/629/46
f 475/628/45 480/634/45 478/633/45
f 484/635/47 482/636/47 481/637/47
f 483/638/20 485/637/20 482/639/20
f 486/640/48 487/620/48 485/641/48
f 487/636/22 484/640/22 481/641/22
f 482/642/46 487/636/46 481/643/46
f 484/644/45 486/641/45 483/636/45
f 492/645/47 490/646/47 489/647/47
f 491/648/20 493/647/20 490/649/20
f 494/650/48 495/631/48 493/651/48
f 496/652/22 489/651/22 495/646/22
f 490/653/46 495/646/46 489/647/46
f 491/646/45 496/654/45 494/651/45
f 500/624/55 498/655/55 497/656/55
f 499/657/20 501/656/20 498/658/20
f 502/626/56 503/649/56 501/659/56
f 504/660/22 497/659/22 503/655/22
f 498/661/54 503/655/54 497/656/54
f 500/662/53 502/659/53 499/655/53
f 508/663/55 506/664/55 505/665/55
f 507/666/20 509/665/20 506/667/20
f 510/668/56 511/658/56 509/669/56
f 512/670/22 505/669/22 511/664/22
f 506/671/54 511/664/54 505/665/54
f 508/672/53 510/669/53 507/664/53
f 513/673/55 515/674/55 514/675/55
f 514/676/20 518/677/20 517/673/20
f 518/678/56 519/639/56 517/679/56
f 520/674/22 513/679/22 519/675/22
f 514/680/54 519/675/54 513/681/54
f 516/682/53 518/679/53 515/675/53
f 524/683/21 522/684/21 521/685/21
f 523/686/20 525/685/20 522/687/20
f 526/688/19 527/667/19 525/689/19
f 528/690/22 521/689/22 527/684/22
f 522/691/24 527/684/24 521/685/24
f 524/692/23 526/689/23 523/684/23
f 532/642/21 530/693/21 529/694/21
f 531/695/20 533/694/20 530/696/20
f 534/697/19 535/687/19 533/698/19
f 536/644/22 529/698/22 535/693/22
f 530/699/24 535/693/24 529/694/24
f 532/700/23 534/698/23 531/693/23
f 537/701/21 539/702/21 538/703/21
f 539/704/20 541/701/20 538/705/20
f 542/706/19 543/676/19 541/707/19
f 544/702/22 537/707/22 543/703/22
f 538/708/24 543/703/24 537/709/24
f 540/710/23 542/707/23 539/703/23
f 548/711/46 546/712/46 545/713/46
f 547/714/20 549/713/20 546/715/20
f 550/716/45 551/696/45 549/717/45
f 552/718/22 545/717/22 551/712/22
f 546/719/48 551/712/48 545/713/48
f 548/720/47 550/717/47 547/712/47
f 556/721/46 554/722/46 553/723/46
f 555/724/20 557/723/20 554/725/20
f 558/726/45 559/715/45 557/727/45
f 560/728/22 553/727/22 559/722/22
f 554/729/48 559/722/48 553/723/48
f 556/730/47 558/727/47 555/722/47
f 561/731/46 563/732/46 562/733/46
f 563/734/20 565/731/20 562/735/20
f 566/736/45 567/705/45 565/737/45
f 567/733/22 564/736/22 561/737/22
f 562/738/48 567/733/48 561/739/48
f 564/740/47 566/737/47 563/733/47
f 572/680/54 570/741/54 569/742/54
f 570/743/20 574/680/20 573/742/20
f 574/744/53 575/725/53 573/745/53
f 576/682/22 569/745/22 575/741/22
f 570/746/56 575/741/56 569/742/56
f 572/747/55 574/745/55 571/741/55
f 580/748/54 578/749/54 577/750/54
f 578/751/20 582/748/20 581/750/20
f 582/752/53 583/743/53 581/753/53
f 584/754/22 577/753/22 583/749/22
f 578/755/56 583/749/56 577/750/56
f 580/756/55 582/753/55 579/749/55
f 588/757/54 586/758/54 585/759/54
f 586/760/20 590/757/20 589/759/20
f 590/761/53 591/735/53 589/762/53
f 592/763/22 585/762/22 591/758/22
f 586/764/56 591/758/56 585/765/56
f 588/766/55 590/762/55 587/758/55
f 596/767/24 594/768/24 593/769/24
f 595/770/20 597/769/20 594/771/20
f 598/772/23 599/751/23 597/773/23
f 600/774/22 593/773/22 599/768/22
f 593/769/19 597/775/19 599/768/19
f 596/775/21 598/773/21 595/768/21
f 604/708/24 602/776/24 601/777/24
f 603/778/20 605/777/20 602/779/20
f 606/780/23 607/771/23 605/781/23
f 608/710/22 601/781/22 607/776/22
f 601/777/19 605/782/19 607/776/19
f 604/782/21 606/781/21 603/776/21
f 612/783/24 610/784/24 609/785/24
f 611/786/20 613/785/20 610/787/20
f 614/788/23 615/760/23 613/789/23
f 616/790/22 609/789/22 615/784/22
f 609/791/19 613/792/19 615/784/19
f 612/792/21 614/789/21 611/784/21
f 620/793/48 618/794/48 617/795/48
f 619/796/20 621/795/20 618/797/20
f 622/798/47 623/779/47 621/799/47
f 623/794/22 620/798/22 617/799/22
f 618/800/45 623/794/45 617/795/45
f 620/801/46 622/799/46 619/794/46
f 628/802/48 626/803/48 625/804/48
f 627/805/20 629/804/20 626/806/20
f 630/807/47 631/797/47 629/808/47
f 631/803/22 628/807/22 625/808/22
f 626/809/45 631/803/45 625/804/45
f 628/810/46 630/808/46 627/803/46
f 636/811/48 634/812/48 633/813/48
f 635/814/20 637/813/20 634/815/20
f 638/816/47 639/817/47 637/818/47
f 639/812/22 636/816/22 633/818/22
f 634/819/45 639/812/45 633/820/45
f 635/812/46 640/821/46 638/818/46
f 644/738/56 642/822/56 641/823/56
f 643/824/20 645/823/20 642/825/20
f 646/826/55 647/806/55 645/827/55
f 648/740/22 641/827/22 647/822/22
f 642/828/53 647/822/53 641/823/53
f 644/829/54 646/827/54 643/822/54
f 652/830/56 650/831/56 649/832/56
f 651/833/20 653/832/20 650/834/20
f 654/835/55 655/825/55 653/836/55
f 656/837/22 649/836/22 655/831/22
f 650/838/53 655/831/53 649/832/53
f 652/839/54 654/836/54 651/831/54
f 660/840/56 658/841/56 657/842/56
f 658/817/20 662/840/20 661/842/20
f 661/843/55 664/844/55 663/845/55
f 664/846/22 657/843/22 663/841/22
f 658/847/53 663/841/53 657/848/53
f 660/849/54 662/843/54 659/841/54
f 668/850/25 666/851/25 665/852/25
f 667/853/20 669/852/20 666/854/20
f 670/855/26 671/537/26 669/856/26
f 672/857/22 665/856/22 671/851/22
f 665/858/27 669/859/27 671/851/27
f 668/859/28 670/856/28 667/851/28
f 676/860/25 674/861/25 673/862/25
f 674/863/20 678/860/20 677/862/20
f 678/864/26 679/547/26 677/865/26
f 680/866/22 673/865/22 679/861/22
f 674/867/27 679/861/27 673/868/27
f 676/857/28 678/865/28 675/861/28
f 684/869/57 682/870/57 681/871/57
f 682/872/20 686/869/20 685/871/20
f 685/873/58 688/853/58 687/854/58
f 688/874/22 681/873/22 687/870/22
f 682/677/59 687/870/59 681/875/59
f 684/638/60 686/873/60 683/870/60
f 692/876/57 690/877/57 689/878/57
f 690/879/20 694/876/20 693/878/20
f 693/880/58 696/881/58 695/863/58
f 696/882/22 689/880/22 695/877/22
f 689/883/59 693/874/59 695/877/59
f 692/874/60 694/880/60 691/877/60
f 697/884/51 699/885/51 698/886/51
f 699/887/20 701/884/20 698/888/20
f 702/889/52 703/872/52 701/890/52
f 703/886/22 700/889/22 697/890/22
f 698/891/50 703/886/50 697/892/50
f 700/704/49 702/890/49 699/886/49
f 705/893/51 707/894/51 706/895/51
f 707/896/20 709/893/20 706/897/20
f 710/898/52 711/879/52 709/899/52
f 711/895/22 708/898/22 705/899/22
f 706/900/50 711/895/50 705/901/50
f 708/885/49 710/899/49 707/895/49
f 716/902/27 714/903/27 713/904/27
f 715/905/20 717/904/20 714/906/20
f 718/907/28 719/908/28 717/909/28
f 720/910/22 713/909/22 719/903/22
f 714/911/26 719/903/26 713/912/26
f 716/913/25 718/909/25 715/903/25
f 724/914/27 722/915/27 721/916/27
f 723/917/20 725/916/20 722/918/20
f 726/919/28 727/920/28 725/921/28
f 728/922/22 721/921/22 727/915/22
f 722/923/26 727/915/26 721/924/26
f 724/910/25 726/921/25 723/915/25
f 732/925/59 730/926/59 729/927/59
f 730/928/20 734/925/20 733/927/20
f 734/929/60 735/906/60 733/930/60
f 736/931/22 729/930/22 735/926/22
f 730/932/58 735/926/58 729/933/58
f 732/866/57 734/930/57 731/926/57
f 740/934/59 738/935/59 737/936/59
f 738/937/20 742/934/20 741/936/20
f 742/938/60 743/918/60 741/939/60
f 744/940/22 737/939/22 743/935/22
f 738/941/58 743/935/58 737/942/58
f 740/931/57 742/939/57 739/935/57
f 748/943/50 746/944/50 745/945/50
f 747/946/20 749/945/20 746/947/20
f 750/948/49 751/928/49 749/949/49
f 751/944/22 748/948/22 745/949/22
f 746/950/52 751/944/52 745/951/52
f 748/882/51 750/949/51 747/944/51
f 756/952/50 754/953/50 753/954/50
f 755/955/20 757/954/20 754/956/20
f 758/957/49 759/937/49 757/958/49
f 759/953/22 756/957/22 753/958/22
f 754/959/52 759/953/52 753/960/52
f 756/961/51 758/958/51 755/953/51
f 764/962/26 762/963/26 761/964/26
f 763/965/20 765/964/20 762/966/20
f 766/967/25 767/947/25 765/968/25
f 768/969/22 761/968/22 767/963/22
f 762/970/28 767/963/28 761/971/28
f 764/894/27 766/968/27 763/963/27
f 772/972/26 770/973/26 769/974/26
f 771/975/20 773/974/20 770/976/20
f 774/977/25 775/956/25 773/978/25
f 776/979/22 769/978/22 775/973/22
f 770/980/28 775/973/28 769/981/28
f 772/969/27 774/978/27 771/973/27
f 780/982/58 778/983/58 777/984/58
f 778/985/20 782/982/20 781/984/20
f 782/986/57 783/987/57 781/988/57
f 784/989/22 777/988/22 783/983/22
f 778/990/60 783/983/60 777/991/60
f 780/922/59 782/988/59 779/983/59
f 788/992/58 786/993/58 785/994/58
f 786/995/20 790/992/20 789/994/20
f 790/996/57 791/985/57 789/997/57
f 792/998/22 785/997/22 791/993/22
f 786/999/60 791/993/60 785/1000/60
f 788/940/59 790/997/59 787/993/59
f 796/1001/52 794/1002/52 793/1003/52
f 795/1004/20 797/1003/20 794/1005/20
f 798/1006/51 799/995/51 797/1007/51
f 799/1002/22 796/1006/22 793/1007/22
f 794/1008/49 799/1002/49 793/1009/49
f 796/1010/50 798/1007/50 795/1002/50
f 804/1011/52 802/1012/52 801/1013/52
f 803/1014/20 805/1013/20 802/1015/20
f 806/1016/51 807/1005/51 805/1017/51
f 807/1012/22 804/1016/22 801/1017/22
f 802/1018/49 807/1012/49 801/1019/49
f 804/979/50 806/1017/50 803/1012/50
f 812/1020/28 810/1021/28 809/1022/28
f 811/1023/20 813/1022/20 810/1024/20
f 814/1025/27 815/1026/27 813/1027/27
f 815/1021/22 812/1025/22 809/1027/22
f 810/1028/25 815/1021/25 809/1029/25
f 812/989/26 814/1027/26 811/1021/26
f 820/1030/28 818/1031/28 817/1032/28
f 819/1033/20 821/1032/20 818/1034/20
f 822/1035/27 823/1024/27 821/1036/27
f 824/1037/22 817/1036/22 823/1031/22
f 818/1038/25 823/1031/25 817/1039/25
f 820/998/26 822/1036/26 819/1031/26
f 828/1040/60 826/1041/60 825/1042/60
f 826/1043/20 830/1040/20 829/1042/20
f 830/1044/59 831/1034/59 829/1045/59
f 832/1046/22 825/1045/22 831/1041/22
f 826/1047/57 831/1041/57 825/1048/57
f 828/1049/58 830/1045/58 827/1041/58
f 836/1050/60 834/1051/60 833/1052/60
f 834/1053/20 838/1050/20 837/1052/20
f 838/1054/59 839/1043/59 837/1055/59
f 840/1056/22 833/1055/22 839/1051/22
f 834/1057/57 839/1051/57 833/1058/57
f 836/1059/58 838/1055/58 835/1051/58
f 316/424/19 315/432/19 314/425/19
f 315/427/20 318/424/20 317/426/20
f 317/429/21 318/1060/21 320/430/21
f 320/432/22 316/1060/22 313/429/22
f 314/433/23 317/435/23 319/425/23
f 316/435/24 320/1061/24 318/429/24
f 324/436/19 323/444/19 322/437/19
f 323/439/20 326/436/20 325/438/20
f 325/441/21 326/1062/21 328/442/21
f 328/444/22 324/1062/22 321/441/22
f 322/445/23 325/447/23 327/437/23
f 324/447/24 328/1063/24 326/441/24
f 332/448/19 331/456/19 330/449/19
f 331/451/20 334/448/20 333/450/20
f 333/453/21 334/1064/21 336/454/21
f 336/456/22 332/1064/22 329/453/22
f 330/457/23 333/459/23 335/449/23
f 332/459/24 336/1065/24 334/453/24
f 340/460/25 339/467/25 338/461/25
f 339/463/20 342/460/20 341/462/20
f 342/465/26 344/451/26 343/452/26
f 344/467/22 340/465/22 337/466/22
f 338/468/27 341/470/27 343/461/27
f 340/470/28 344/1066/28 342/466/28
f 348/471/19 347/435/19 346/472/19
f 347/474/20 350/471/20 349/473/20
f 349/476/21 350/1061/21 352/477/21
f 352/435/22 348/1061/22 345/476/22
f 346/479/23 349/481/23 351/472/23
f 348/481/24 352/1067/24 350/476/24
f 356/482/19 355/490/19 354/483/19
f 355/485/20 358/482/20 357/484/20
f 357/487/21 358/1068/21 360/488/21
f 360/490/22 356/1068/22 353/487/22
f 354/491/23 357/444/23 359/483/23
f 356/444/24 360/1062/24 358/487/24
f 364/493/19 363/501/19 362/494/19
f 363/496/20 366/493/20 365/495/20
f 366/498/21 368/1069/21 367/499/21
f 368/501/22 364/498/22 361/500/22
f 362/502/23 365/503/23 367/494/23
f 364/503/24 368/1070/24 366/500/24
f 372/504/19 371/511/19 370/505/19
f 371/507/20 374/504/20 373/506/20
f 374/509/21 376/496/21 375/497/21
f 376/511/22 372/509/22 369/510/22
f 370/512/23 373/513/23 375/505/23
f 372/513/24 376/1071/24 374/510/24
f 377/514/19 380/1072/19 379/515/19
f 379/517/20 382/1072/20 381/514/20
f 382/519/21 384/1073/21 383/520/21
f 384/515/22 380/519/22 377/521/22
f 378/504/23 381/511/23 383/516/23
f 380/511/24 384/509/24 382/521/24
f 388/523/45 387/530/45 386/524/45
f 387/526/20 390/523/20 389/525/20
f 390/528/46 392/507/46 391/508/46
f 392/530/22 388/528/22 385/529/22
f 386/531/47 389/532/47 391/524/47
f 388/532/48 392/456/48 390/529/48
f 396/533/49 395/553/49 394/534/49
f 395/536/20 398/533/20 397/535/20
f 398/538/50 400/1074/50 399/539/50
f 399/534/22 400/553/22 396/538/22
f 394/541/51 397/517/51 399/534/51
f 396/517/52 400/1075/52 398/540/52
f 404/543/49 403/913/49 402/544/49
f 403/546/20 406/543/20 405/545/20
f 406/548/50 408/1076/50 407/549/50
f 407/544/22 408/913/22 404/548/22
f 402/551/51 405/553/51 407/544/51
f 404/553/52 408/538/52 406/550/52
f 412/554/45 411/561/45 410/555/45
f 411/557/20 414/554/20 413/556/20
f 414/559/46 416/526/46 415/527/46
f 416/561/22 412/559/22 409/560/22
f 410/562/47 413/563/47 415/555/47
f 412/563/48 416/1077/48 414/560/48
f 420/541/45 419/1078/45 418/564/45
f 419/566/20 422/541/20 421/565/20
f 421/568/46 422/569/46 424/517/46
f 423/564/22 424/1078/22 420/569/22
f 418/570/47 421/572/47 423/564/47
f 420/572/48 424/577/48 422/568/48
f 428/570/53 427/572/53 426/573/53
f 427/575/20 430/570/20 429/574/20
f 430/577/54 432/557/54 431/558/54
f 432/572/22 428/577/22 425/578/22
f 425/574/55 426/1079/55 429/451/55
f 427/573/56 428/451/56 432/448/56
f 436/579/53 435/586/53 434/580/53
f 435/582/20 438/579/20 437/581/20
f 438/584/54 440/575/54 439/576/54
f 440/586/22 436/584/22 433/585/22
f 434/587/55 437/1080/55 439/580/55
f 435/580/56 436/1080/56 440/588/56
f 444/589/53 443/595/53 442/590/53
f 442/592/20 443/859/20 446/589/20
f 446/593/54 448/566/54 447/567/54
f 448/595/22 444/593/22 441/594/22
f 441/596/55 442/607/55 445/597/55
f 444/597/56 448/612/56 446/594/56
f 452/598/23 451/605/23 450/599/23
f 451/601/20 454/598/20 453/600/20
f 454/603/24 456/582/24 455/583/24
f 456/605/22 452/603/22 449/604/22
f 450/467/21 453/465/21 455/599/21
f 451/599/19 452/465/19 456/606/19
f 460/607/23 459/597/23 458/608/23
f 459/610/20 462/607/20 461/609/20
f 462/612/24 464/601/24 463/602/24
f 464/597/22 460/612/22 457/613/22
f 458/614/21 461/1081/21 463/608/21
f 459/608/19 460/1081/19 464/615/19
f 468/616/23 467/623/23 466/617/23
f 467/619/20 470/616/20 469/618/20
f 470/621/24 472/859/24 471/592/24
f 472/623/22 468/621/22 465/622/22
f 466/624/21 469/660/21 471/617/21
f 467/617/19 468/660/19 472/626/19
f 476/627/47 475/1082/47 474/628/47
f 475/630/20 478/627/20 477/629/20
f 478/632/48 480/610/48 479/611/48
f 479/628/22 480/1082/22 476/632/22
f 474/460/46 477/1083/46 479/628/46
f 475/628/45 476/1083/45 480/634/45
f 484/635/47 483/1084/47 482/636/47
f 483/638/20 486/635/20 485/637/20
f 486/640/48 488/619/48 487/620/48
f 487/636/22 488/1084/22 484/640/22
f 482/642/46 485/644/46 487/636/46
f 484/644/45 488/697/45 486/641/45
f 492/645/47 491/652/47 490/646/47
f 491/648/20 494/645/20 493/647/20
f 494/650/48 496/630/48 495/631/48
f 496/652/22 492/650/22 489/651/22
f 490/653/46 493/1085/46 495/646/46
f 491/646/45 492/1085/45 496/654/45
f 500/624/55 499/660/55 498/655/55
f 499/657/20 502/624/20 501/656/20
f 502/626/56 504/648/56 503/649/56
f 504/660/22 500/626/22 497/659/22
f 498/661/54 501/662/54 503/655/54
f 500/662/53 504/1086/53 502/659/53
f 508/663/55 507/670/55 506/664/55
f 507/666/20 510/663/20 509/665/20
f 510/668/56 512/657/56 511/658/56
f 512/670/22 508/668/22 505/669/22
f 506/671/54 509/672/54 511/664/54
f 508/672/53 512/1087/53 510/669/53
f 513/673/55 516/677/55 515/674/55
f 514/676/20 515/1088/20 518/677/20
f 518/678/56 520/638/56 519/639/56
f 520/674/22 516/678/22 513/679/22
f 514/680/54 517/682/54 519/675/54
f 516/682/53 520/744/53 518/679/53
f 524/683/21 523/690/21 522/684/21
f 523/686/20 526/683/20 525/685/20
f 526/688/19 528/666/19 527/667/19
f 528/690/22 524/688/22 521/689/22
f 522/691/24 525/692/24 527/684/24
f 524/692/23 528/1089/23 526/689/23
f 532/642/21 531/644/21 530/693/21
f 531/695/20 534/642/20 533/694/20
f 534/697/19 536/686/19 535/687/19
f 536/644/22 532/697/22 529/698/22
f 530/699/24 533/700/24 535/693/24
f 532/700/23 536/1090/23 534/698/23
f 537/701/21 540/1091/21 539/702/21
f 539/704/20 542/1091/20 541/701/20
f 542/706/19 544/1088/19 543/676/19
f 544/702/22 540/706/22 537/707/22
f 538/708/24 541/710/24 543/703/24
f 540/710/23 544/780/23 542/707/23
f 548/711/46 547/718/46 546/712/46
f 547/714/20 550/711/20 549/713/20
f 550/716/45 552/695/45 551/696/45
f 552/718/22 548/716/22 545/717/22
f 546/719/48 549/720/48 551/712/48
f 548/720/47 552/1092/47 550/717/47
f 556/721/46 555/728/46 554/722/46
f 555/724/20 558/721/20 557/723/20
f 558/726/45 560/714/45 559/715/45
f 560/728/22 556/726/22 553/727/22
f 554/729/48 557/730/48 559/722/48
f 556/730/47 560/1093/47 558/727/47
f 561/731/46 564/891/46 563/732/46
f 563/734/20 566/891/20 565/731/20
f 566/736/45 568/704/45 567/705/45
f 567/733/22 568/732/22 564/736/22
f 562/738/48 565/740/48 567/733/48
f 564/740/47 568/826/47 566/737/47
f 572/680/54 571/682/54 570/741/54
f 570/743/20 571/1094/20 574/680/20
f 574/744/53 576/724/53 575/725/53
f 576/682/22 572/744/22 569/745/22
f 570/746/56 573/747/56 575/741/56
f 572/747/55 576/1095/55 574/745/55
f 580/748/54 579/754/54 578/749/54
f 578/751/20 579/1096/20 582/748/20
f 582/752/53 584/1094/53 583/743/53
f 584/754/22 580/752/22 577/753/22
f 578/755/56 581/756/56 583/749/56
f 580/756/55 584/1097/55 582/753/55
f 588/757/54 587/763/54 586/758/54
f 586/760/20 587/1098/20 590/757/20
f 590/761/53 592/734/53 591/735/53
f 592/763/22 588/761/22 585/762/22
f 586/764/56 589/766/56 591/758/56
f 588/766/55 592/1099/55 590/762/55
f 596/767/24 595/774/24 594/768/24
f 595/770/20 598/767/20 597/769/20
f 598/772/23 600/1096/23 599/751/23
f 600/774/22 596/772/22 593/773/22
f 593/769/19 594/1100/19 597/775/19
f 596/775/21 600/1101/21 598/773/21
f 604/708/24 603/710/24 602/776/24
f 603/778/20 606/708/20 605/777/20
f 606/780/23 608/770/23 607/771/23
f 608/710/22 604/780/22 601/781/22
f 601/777/19 602/1102/19 605/782/19
f 604/782/21 608/1103/21 606/781/21
f 612/783/24 611/790/24 610/784/24
f 611/786/20 614/783/20 613/785/20
f 614/788/23 616/1098/23 615/760/23
f 616/790/22 612/788/22 609/789/22
f 609/791/19 610/1104/19 613/792/19
f 612/792/21 616/1105/21 614/789/21
f 620/793/48 619/1106/48 618/794/48
f 619/796/20 622/793/20 621/795/20
f 622/798/47 624/778/47 623/779/47
f 623/794/22 624/1106/22 620/798/22
f 618/800/45 621/801/45 623/794/45
f 620/801/46 624/1107/46 622/799/46
f 628/802/48 627/1108/48 626/803/48
f 627/805/20 630/802/20 629/804/20
f 630/807/47 632/796/47 631/797/47
f 631/803/22 632/1108/22 628/807/22
f 626/809/45 629/810/45 631/803/45
f 628/810/46 632/1109/46 630/808/46
f 636/811/48 635/1110/48 634/812/48
f 635/814/20 638/811/20 637/813/20
f 638/816/47 640/1111/47 639/817/47
f 639/812/22 640/1110/22 636/816/22
f 634/819/45 637/1112/45 639/812/45
f 635/812/46 636/1112/46 640/821/46
f 644/738/56 643/740/56 642/822/56
f 643/824/20 646/738/20 645/823/20
f 646/826/55 648/805/55 647/806/55
f 648/740/22 644/826/22 641/827/22
f 642/828/53 645/829/53 647/822/53
f 644/829/54 648/1113/54 646/827/54
f 652/830/56 651/837/56 650/831/56
f 651/833/20 654/830/20 653/832/20
f 654/835/55 656/824/55 655/825/55
f 656/837/22 652/835/22 649/836/22
f 650/838/53 653/839/53 655/831/53
f 652/839/54 656/1114/54 654/836/54
f 660/840/56 659/846/56 658/841/56
f 658/817/20 659/1111/20 662/840/20
f 661/843/55 662/1115/55 664/844/55
f 664/846/22 660/1115/22 657/843/22
f 658/847/53 661/849/53 663/841/53
f 660/849/54 664/1116/54 662/843/54
f 668/850/25 667/857/25 666/851/25
f 667/853/20 670/850/20 669/852/20
f 670/855/26 672/536/26 671/537/26
f 672/857/22 668/855/22 665/856/22
f 665/858/27 666/616/27 669/859/27
f 668/859/28 672/1117/28 670/856/28
f 676/860/25 675/866/25 674/861/25
f 674/863/20 675/881/20 678/860/20
f 678/864/26 680/546/26 679/547/26
f 680/866/22 676/864/22 673/865/22
f 674/867/27 677/857/27 679/861/27
f 676/857/28 680/855/28 678/865/28
f 684/869/57 683/874/57 682/870/57
f 682/872/20 683/1118/20 686/869/20
f 685/873/58 686/1119/58 688/853/58
f 688/874/22 684/1119/22 681/873/22
f 682/677/59 685/638/59 687/870/59
f 684/638/60 688/1120/60 686/873/60
f 692/876/57 691/882/57 690/877/57
f 690/879/20 691/1121/20 694/876/20
f 693/880/58 694/1122/58 696/881/58
f 696/882/22 692/1122/22 689/880/22
f 689/883/59 690/1123/59 693/874/59
f 692/874/60 696/1119/60 694/880/60
f 697/884/51 700/1124/51 699/885/51
f 699/887/20 702/1124/20 701/884/20
f 702/889/52 704/1118/52 703/872/52
f 703/886/22 704/885/22 700/889/22
f 698/891/50 701/704/50 703/886/50
f 700/704/49 704/1125/49 702/890/49
f 705/893/51 708/1126/51 707/894/51
f 707/896/20 710/1126/20 709/893/20
f 710/898/52 712/1121/52 711/879/52
f 711/895/22 712/894/22 708/898/22
f 706/900/50 709/885/50 711/895/50
f 708/885/49 712/889/49 710/899/49
f 716/902/27 715/910/27 714/903/27
f 715/905/20 718/902/20 717/904/20
f 718/907/28 720/1127/28 719/908/28
f 720/910/22 716/907/22 713/909/22
f 714/911/26 717/913/26 719/903/26
f 716/913/25 720/548/25 718/909/25
f 724/914/27 723/922/27 722/915/27
f 723/917/20 726/914/20 725/916/20
f 726/919/28 728/1128/28 727/920/28
f 728/922/22 724/919/22 721/921/22
f 722/923/26 725/910/26 727/915/26
f 724/910/25 728/907/25 726/921/25
f 732/925/59 731/931/59 730/926/59
f 730/928/20 731/1129/20 734/925/20
f 734/929/60 736/905/60 735/906/60
f 736/931/22 732/929/22 729/930/22
f 730/932/58 733/866/58 735/926/58
f 732/866/57 736/864/57 734/930/57
f 740/934/59 739/940/59 738/935/59
f 738/937/20 739/1130/20 742/934/20
f 742/938/60 744/917/60 743/918/60
f 744/940/22 740/938/22 737/939/22
f 738/941/58 741/931/58 743/935/58
f 740/931/57 744/929/57 742/939/57
f 748/943/50 747/961/50 746/944/50
f 747/946/20 750/943/20 749/945/20
f 750/948/49 752/1129/49 751/928/49
f 751/944/22 752/961/22 748/948/22
f 746/950/52 749/882/52 751/944/52
f 748/882/51 752/1122/51 750/949/51
f 756/952/50 755/1010/50 754/953/50
f 755/955/20 758/952/20 757/954/20
f 758/957/49 760/1130/49 759/937/49
f 759/953/22 760/1010/22 756/957/22
f 754/959/52 757/961/52 759/953/52
f 756/961/51 760/948/51 758/958/51
f 764/962/26 763/969/26 762/963/26
f 763/965/20 766/962/20 765/964/20
f 766/967/25 768/946/25 767/947/25
f 768/969/22 764/967/22 761/968/22
f 762/970/28 765/894/28 767/963/28
f 764/894/27 768/898/27 766/968/27
f 772/972/26 771/979/26 770/973/26
f 771/975/20 774/972/20 773/974/20
f 774/977/25 776/955/25 775/956/25
f 776/979/22 772/977/22 769/978/22
f 770/980/28 773/969/28 775/973/28
f 772/969/27 776/967/27 774/978/27
f 780/982/58 779/989/58 778/983/58
f 778/985/20 779/1131/20 782/982/20
f 782/986/57 784/1132/57 783/987/57
f 784/989/22 780/986/22 777/988/22
f 778/990/60 781/922/60 783/983/60
f 780/922/59 784/919/59 782/988/59
f 788/992/58 787/998/58 786/993/58
f 786/995/20 787/1133/20 790/992/20
f 790/996/57 792/1131/57 791/985/57
f 792/998/22 788/996/22 785/997/22
f 786/999/60 789/940/60 791/993/60
f 788/940/59 792/938/59 790/997/59
f 796/1001/52 795/1049/52 794/1002/52
f 795/1004/20 798/1001/20 797/1003/20
f 798/1006/51 800/1133/51 799/995/51
f 799/1002/22 800/1049/22 796/1006/22
f 794/1008/49 797/1010/49 799/1002/49
f 796/1010/50 800/957/50 798/1007/50
f 804/1011/52 803/1059/52 802/1012/52
f 803/1014/20 806/1011/20 805/1013/20
f 806/1016/51 808/1004/51 807/1005/51
f 807/1012/22 808/1059/22 804/1016/22
f 802/1018/49 805/979/49 807/1012/49
f 804/979/50 808/977/50 806/1017/50
f 812/1020/28 811/1134/28 810/1021/28
f 811/1023/20 814/1020/20 813/1022/20
f 814/1025/27 816/1135/27 815/1026/27
f 815/1021/22 816/1134/22 812/1025/22
f 810/1028/25 813/989/25 815/1021/25
f 812/989/26 816/986/26 814/1027/26
f 820/1030/28 819/1037/28 818/1031/28
f 819/1033/20 822/1030/20 821/1032/20
f 822/1035/27 824/1023/27 823/1024/27
f 824/1037/22 820/1035/22 817/1036/22
f 818/1038/25 821/998/25 823/1031/25
f 820/998/26 824/996/26 822/1036/26
f 828/1040/60 827/1046/60 826/1041/60
f 826/1043/20 827/1136/20 830/1040/20
f 830/1044/59 832/1033/59 831/1034/59
f 832/1046/22 828/1044/22 825/1045/22
f 826/1047/57 829/1049/57 831/1041/57
f 828/1049/58 832/1006/58 830/1045/58
f 836/1050/60 835/1056/60 834/1051/60
f 834/1053/20 835/1137/20 838/1050/20
f 838/1054/59 840/1136/59 839/1043/59
f 840/1056/22 836/1054/22 833/1055/22
f 834/1057/57 837/1059/57 839/1051/57
f 836/1059/58 840/1016/58 838/1055/58
