# Blender 4.2.3 LTS
# www.blender.org
mtllib conveyor_belt_horizontal.mtl
o Cube
v 0.000000 0.000000 1.000000
v 0.000000 0.125000 1.000000
v 0.000000 0.000000 0.000000
v 0.000000 0.125000 0.000000
v 1.000000 0.000000 1.000000
v 1.000000 0.125000 1.000000
v 1.000000 0.000000 0.000000
v 1.000000 0.125000 0.000000
vn -1.0000 -0.0000 -0.0000
vn -0.0000 -0.0000 -1.0000
vn 1.0000 -0.0000 -0.0000
vn -0.0000 -0.0000 1.0000
vn -0.0000 -1.0000 -0.0000
vt 1.000000 0.000000
vt 1.000000 0.125000
vt 0.000000 0.125000
vt 0.000000 0.000000
vt 0.875000 0.000000
vt 0.875000 1.000000
vt 1.000000 1.000000
vt 1.000000 0.875000
vt 0.000000 0.875000
vt 0.000000 1.000000
vt 0.125000 0.000000
vt 0.125000 1.000000
s 0
usemtl Material
f 1/1/1 2/2/1 4/3/1 3/4/1
f 3/1/2 4/5/2 8/6/2 7/7/2
f 7/7/3 8/8/3 6/9/3 5/10/3
f 5/4/4 6/11/4 2/12/4 1/10/4
f 3/4/5 7/1/5 5/7/5 1/10/5
