# Blender 4.2.3 LTS
# www.blender.org
mtllib dril_casingl.mtl
o casing
v 0.875000 0.500000 0.125000
v 1.000000 0.000000 0.000000
v 0.875000 0.500000 0.875000
v 1.000000 0.000000 1.000000
v 0.125000 0.500000 0.125000
v 0.000000 0.000000 0.000000
v 0.125000 0.500000 0.875000
v 0.000000 0.000000 1.000000
v 1.000000 0.500000 1.000000
v 0.000000 0.500000 1.000000
v 1.000000 0.500000 0.000000
v 0.000000 0.500000 0.000000
v 0.875000 0.437500 0.875000
v 0.125000 0.437500 0.875000
v 0.875000 0.437500 0.125000
v 0.125000 0.437500 0.125000
vn 1.0000 -0.0000 -0.0000
vn -0.0000 -0.0000 1.0000
vn -1.0000 -0.0000 -0.0000
vn -0.0000 -1.0000 -0.0000
vn -0.0000 -0.0000 -1.0000
vn -0.0000 1.0000 -0.0000
vt 0.125369 0.473610
vt 0.125369 0.286110
vt 0.000000 1.000000
vt 0.000000 0.875000
vt 1.000000 0.875000
vt 1.000000 1.000000
vt 0.000000 0.500000
vt 1.000000 0.500000
vt 1.000000 0.750000
vt 0.000000 0.750000
vt 0.875000 0.280000
vt 0.125000 0.280000
vt 0.000000 0.250000
vt 1.000000 0.250000
vt 0.875000 0.470000
vt 0.125000 0.470000
vt 0.875369 0.286110
vt 0.875369 0.473610
vt 0.095357 0.452322
vt 0.095357 0.047678
s 0
usemtl Material
f 5/1/1 7/2/1 14/2/1 16/1/1
f 4/3/2 9/4/2 10/5/2 8/6/2
f 8/3/3 10/4/3 12/5/3 6/6/3
f 6/7/4 2/8/4 4/9/4 8/10/4
f 2/3/1 11/4/1 9/5/1 4/6/1
f 6/3/5 12/4/5 11/5/5 2/6/5
f 3/11/6 7/12/6 10/13/6 9/14/6
f 1/15/6 3/11/6 9/14/6 11/8/6
f 7/12/6 5/16/6 12/7/6 10/13/6
f 5/16/6 1/15/6 11/8/6 12/7/6
f 15/15/6 16/16/6 14/12/6 13/11/6
f 7/2/5 3/17/5 13/17/5 14/2/5
f 1/18/2 5/1/2 16/1/2 15/18/2
f 3/19/3 1/20/3 15/20/3 13/19/3
