# Blender 4.2.3 LTS
# www.blender.org
mtllib piston_head.mtl
o head
v 0.375000 0.000000 0.626000
v 0.375000 0.875000 0.626000
v 0.375000 0.000000 0.374000
v 0.375000 0.875000 0.374000
v 0.625000 0.000000 0.626000
v 0.625000 0.875000 0.626000
v 0.625000 0.000000 0.374000
v 0.625000 0.875000 0.374000
v 0.000000 0.750000 1.000000
v 0.000000 1.000000 1.000000
v 0.000000 0.750000 0.000000
v 0.000000 1.000000 0.000000
v 1.000000 0.750000 1.000000
v 1.000000 1.000000 1.000000
v 1.000000 0.750000 0.000000
v 1.000000 1.000000 0.000000
vn -1.0000 -0.0000 -0.0000
vn -0.0000 -0.0000 -1.0000
vn 1.0000 -0.0000 -0.0000
vn -0.0000 -0.0000 1.0000
vn -0.0000 -1.0000 -0.0000
vn -0.0000 1.0000 -0.0000
vt 0.000000 0.625000
vt 0.750000 0.625000
vt 0.750000 0.750000
vt 0.000000 0.750000
vt 0.000000 0.750000
vt 0.750000 0.625000
vt 0.000000 0.625000
vt 0.250000 0.500000
vt 0.000000 0.500000
vt 0.000000 0.625000
vt 0.250000 0.625000
vt 0.000000 0.625000
vt 0.000000 0.750000
vt 1.000000 0.750000
vt 1.000000 0.625000
vt 0.000000 0.000000
vt 1.000000 0.000000
vt 1.000000 0.500000
s 0
usemtl Material.002
f 1/1/1 2/2/1 4/3/1 3/4/1
f 3/5/2 4/3/2 8/6/2 7/7/2
f 7/1/3 8/2/3 6/3/3 5/4/3
f 5/5/4 6/3/4 2/6/4 1/7/4
f 3/8/5 7/9/5 5/10/5 1/11/5
f 8/9/6 4/8/6 2/11/6 6/10/6
usemtl Material.001
f 9/12/1 10/13/1 12/14/1 11/15/1
f 11/12/2 12/13/2 16/14/2 15/15/2
f 15/12/3 16/13/3 14/14/3 13/15/3
f 13/12/4 14/13/4 10/14/4 9/15/4
f 11/16/5 15/17/5 13/18/5 9/9/5
f 16/16/6 12/17/6 10/18/6 14/9/6
