# Blender 4.2.3 LTS
# www.blender.org
mtllib piston_base1.mtl
o piston
v 0.000000 1.500000 0.000000
v 0.125000 0.000000 0.125000
v 1.000000 1.500000 0.000000
v 0.875000 0.000000 0.125000
v 0.000000 1.500000 1.000000
v 0.125000 0.000000 0.875000
v 1.000000 1.500000 1.000000
v 0.875000 0.000000 0.875000
v 0.000000 0.000000 1.000000
v 1.000000 0.000000 1.000000
v 0.000000 0.000000 0.000000
v 1.000000 0.000000 0.000000
v 0.125000 0.045302 0.875000
v 0.875000 0.045302 0.875000
v 0.125000 0.045302 0.125000
v 0.875000 0.045302 0.125000
vn -0.0000 1.0000 -0.0000
vn 1.0000 -0.0000 -0.0000
vn -0.0000 -0.0000 1.0000
vn -1.0000 -0.0000 -0.0000
vn -0.0000 -0.0000 -1.0000
vn -0.0000 -1.0000 -0.0000
vt 0.000000 0.000000
vt 1.000000 0.000000
vt 1.000000 0.250000
vt 0.000000 0.250000
vt 1.000000 0.625000
vt 0.000000 0.625000
vt 1.000000 0.625000
vt 1.000000 1.000000
vt 0.000000 1.000000
vt 0.000000 0.625000
vt 0.875000 0.218750
vt 0.125000 0.218750
vt 0.125000 0.031250
vt 0.875000 0.031250
vt 0.125000 0.281250
vt 0.875000 0.281250
vt 0.875000 0.468750
vt 0.125000 0.468750
s 0
usemtl Material
f 1/1/1 5/2/1 7/3/1 3/4/1
f 12/3/2 3/5/2 7/6/2 10/4/2
f 10/7/3 7/8/3 5/9/3 9/10/3
f 4/11/4 8/12/4 14/12/4 16/11/4
f 11/7/5 1/8/5 3/9/5 12/10/5
f 9/3/4 5/5/4 1/6/4 11/4/4
f 6/13/6 8/12/6 10/4/6 9/1/6
f 2/14/6 6/13/6 9/1/6 11/2/6
f 8/12/6 4/11/6 12/3/6 10/4/6
f 4/11/6 2/14/6 11/2/6 12/3/6
f 13/15/6 15/16/6 16/17/6 14/18/6
f 8/12/5 6/13/5 13/13/5 14/12/5
f 2/14/3 4/11/3 16/11/3 15/14/3
f 6/13/2 2/14/2 15/14/2 13/13/2
o extension
v 0.375000 0.000000 0.626000
v 0.375000 1.000000 0.626000
v 0.375000 0.000000 0.374000
v 0.375000 1.000000 0.374000
v 0.625000 0.000000 0.626000
v 0.625000 1.000000 0.626000
v 0.625000 0.000000 0.374000
v 0.625000 1.000000 0.374000
vn -1.0000 -0.0000 -0.0000
vn -0.0000 -0.0000 -1.0000
vn 1.0000 -0.0000 -0.0000
vn -0.0000 -0.0000 1.0000
vn -0.0000 -1.0000 -0.0000
vn -0.0000 1.0000 -0.0000
vt 0.000000 0.625000
vt 1.000000 0.625000
vt 1.000000 0.750000
vt 0.000000 0.750000
vt 0.000000 0.750000
vt 1.000000 0.625000
vt 0.000000 0.625000
vt 0.250000 0.500000
vt 0.000000 0.500000
vt 0.000000 0.625000
vt 0.250000 0.625000
s 0
usemtl Material.001
f 17/19/7 18/20/7 20/21/7 19/22/7
f 19/23/8 20/21/8 24/24/8 23/25/8
f 23/19/9 24/20/9 22/21/9 21/22/9
f 21/23/10 22/21/10 18/24/10 17/25/10
f 19/26/11 23/27/11 21/28/11 17/29/11
f 24/27/12 20/26/12 18/29/12 22/28/12
