# Blender 4.2.3 LTS
# www.blender.org
mtllib pump.mtl
o part1
v -0.249344 -0.500000 -0.249344
v -0.249344 -0.500000 0.249344
v -0.249344 0.500000 0.249344
v -0.249344 0.500000 -0.249344
v 0.249344 -0.500000 -0.249344
v 0.249344 0.500000 -0.249344
v 0.249344 -0.500000 0.249344
v 0.249344 0.500000 0.249344
vn -1.0000 -0.0000 -0.0000
vn -0.0000 -0.0000 -1.0000
vn 1.0000 -0.0000 -0.0000
vn -0.0000 -0.0000 1.0000
vn -0.0000 -1.0000 -0.0000
vn -0.0000 1.0000 -0.0000
vt 0.750000 0.500000
vt 0.875000 0.750000
vt 0.750000 0.750000
vt 0.937500 0.812500
vt 0.812500 0.937500
vt 0.812500 0.812500
vt 0.750000 0.500000
vt 0.500000 0.750000
vt 0.500000 0.500000
vt 0.875000 0.500000
vt 0.937500 0.937500
vt 0.750000 0.750000
s 0
usemtl Material
f 3/1/1 1/2/1 2/3/1
f 4/1/2 5/2/2 1/3/2
f 6/1/3 7/2/3 5/3/3
f 8/1/4 2/2/4 7/3/4
f 5/4/5 2/5/5 1/6/5
f 4/7/6 8/8/6 6/9/6
f 3/1/1 4/10/1 1/2/1
f 4/1/2 6/10/2 5/2/2
f 6/1/3 8/10/3 7/2/3
f 8/1/4 3/10/4 2/2/4
f 5/4/5 7/11/5 2/5/5
f 4/7/6 3/12/6 8/8/6
o arm1
v -1.161452 -0.094084 0.094084
v -1.161452 0.094084 0.094084
v -1.161452 -0.094084 -0.094084
v -1.161452 0.094084 -0.094084
v 1.161452 -0.094084 0.094084
v 1.161452 0.094084 0.094084
v 1.161452 -0.094084 -0.094084
v 1.161452 0.094084 -0.094084
vn -1.0000 -0.0000 -0.0000
vn -0.0000 -0.0000 -1.0000
vn 1.0000 -0.0000 -0.0000
vn -0.0000 -0.0000 1.0000
vn -0.0000 -1.0000 -0.0000
vn -0.0000 1.0000 -0.0000
vt 0.752472 0.362193
vt 0.874122 0.483844
vt 0.752472 0.483844
vt 0.874346 0.564771
vt 0.752249 0.686868
vt 0.752249 0.564771
vt 0.751871 0.361087
vt 0.873968 0.483184
vt 0.751871 0.483184
vt 0.874346 0.686868
vt 0.874122 0.362193
vt 0.873968 0.361087
s 0
usemtl Material
f 10/13/7 11/14/7 9/15/7
f 12/16/8 15/17/8 11/18/8
f 16/19/9 13/20/9 15/21/9
f 14/16/10 9/17/10 13/18/10
f 15/18/11 9/22/11 11/17/11
f 12/18/12 14/22/12 16/17/12
f 10/13/7 12/23/7 11/14/7
f 12/16/8 16/22/8 15/17/8
f 16/19/9 14/24/9 13/20/9
f 14/16/10 10/22/10 9/17/10
f 15/18/11 13/16/11 9/22/11
f 12/18/12 10/16/12 14/22/12
o arm2
v 0.095677 -1.070271 0.098798
v -0.101918 -1.070271 0.098798
v 0.095677 -1.070271 -0.098798
v -0.101918 -1.070271 -0.098798
v 0.095678 -0.141758 0.098798
v -0.101918 -0.141758 0.098798
v 0.095678 -0.141758 -0.098798
v -0.101918 -0.141758 -0.098798
v -0.195727 -0.199880 -0.194305
v -0.195727 -0.199880 0.194305
v -0.195727 0.188730 0.194305
v -0.195727 0.188730 -0.194305
v 0.192884 -0.199880 -0.194305
v 0.192884 0.188730 -0.194305
v 0.192884 -0.199880 0.194305
v 0.192884 0.188730 0.194305
v -0.195727 -0.124681 -0.119106
v -0.195727 -0.124681 0.119106
v -0.195727 0.113531 0.119106
v -0.195727 0.113531 -0.119106
v 0.192884 0.113531 -0.119106
v 0.192884 -0.124681 -0.119106
v 0.192884 -0.124681 0.119106
v 0.192884 0.113531 0.119106
v 0.192884 0.113531 -0.119106
v 0.192884 -0.124681 -0.119106
v 0.192884 -0.124681 0.119106
v 0.192884 0.113531 0.119106
v 0.109723 0.113531 -0.119106
v 0.109723 -0.124681 -0.119106
v 0.109723 -0.124681 0.119106
v 0.109723 0.113531 0.119106
v -0.122978 -0.124681 -0.119106
v -0.122978 -0.124681 0.119106
v -0.122978 0.113531 0.119106
v -0.122978 0.113531 -0.119106
vn -0.0000 -1.0000 -0.0000
vn -0.0000 -0.0000 -1.0000
vn -0.0000 1.0000 -0.0000
vn -0.0000 -0.0000 1.0000
vn 1.0000 -0.0000 -0.0000
vn -1.0000 -0.0000 -0.0000
vn -0.0000 -0.0000 -0.0000
vt 0.752472 0.362193
vt 0.874122 0.483844
vt 0.752472 0.483844
vt 0.874346 0.564771
vt 0.752249 0.686868
vt 0.752249 0.564771
vt 0.751871 0.361087
vt 0.873968 0.483184
vt 0.751871 0.483184
vt 0.874346 0.686868
vt 0.451623 0.701623
vt 0.451623 0.548377
vt 0.250000 0.500000
vt 0.500000 0.750000
vt 0.250000 0.750000
vt 0.500000 0.500000
vt 0.298377 0.701623
vt 0.298377 0.548377
vt 0.874122 0.362193
vt 0.873968 0.361087
s 0
usemtl Material
f 18/25/13 19/26/13 17/27/13
f 20/28/14 23/29/14 19/30/14
f 24/31/15 21/32/15 23/33/15
f 21/30/16 18/34/16 17/29/16
f 23/30/17 17/34/17 19/29/17
f 20/30/18 22/34/18 24/29/18
f 36/35/13 51/36/13 35/36/13
f 25/37/14 30/38/14 29/39/14
f 37/36/15 44/35/15 41/36/15
f 32/40/16 26/39/16 31/37/16
f 25/37/13 31/38/13 26/39/13
f 28/40/15 32/39/15 30/37/15
f 33/41/18 26/37/18 34/42/18
f 35/36/18 26/37/18 27/40/18
f 35/36/18 28/38/18 36/35/18
f 36/35/18 25/39/18 33/41/18
f 37/36/17 29/37/17 30/40/17
f 39/41/17 29/37/17 38/42/17
f 37/36/17 32/38/17 40/35/17
f 40/35/17 31/39/17 39/41/17
f 43/41/14 48/35/14 44/35/14
f 38/42/19 41/36/19 42/42/19
f 40/35/19 43/41/19 44/35/19
f 39/41/15 42/42/15 43/41/15
f 45/36/17 47/41/17 46/42/17
f 42/42/15 47/41/15 43/41/15
f 44/35/13 45/36/13 41/36/13
f 41/36/16 46/42/16 42/42/16
f 51/36/18 49/41/18 50/42/18
f 34/42/15 49/41/15 33/41/15
f 33/41/16 52/35/16 36/35/16
f 34/42/14 51/36/14 50/42/14
f 18/25/13 20/43/13 19/26/13
f 20/28/14 24/34/14 23/29/14
f 24/31/15 22/44/15 21/32/15
f 21/30/16 22/28/16 18/34/16
f 23/30/17 21/28/17 17/34/17
f 20/30/18 18/28/18 22/34/18
f 36/35/13 52/35/13 51/36/13
f 25/37/14 28/40/14 30/38/14
f 37/36/15 40/35/15 44/35/15
f 32/40/16 27/38/16 26/39/16
f 25/37/13 29/40/13 31/38/13
f 28/40/15 27/38/15 32/39/15
f 33/41/18 25/39/18 26/37/18
f 35/36/18 34/42/18 26/37/18
f 35/36/18 27/40/18 28/38/18
f 36/35/18 28/38/18 25/39/18
f 37/36/17 38/42/17 29/37/17
f 39/41/17 31/39/17 29/37/17
f 37/36/17 30/40/17 32/38/17
f 40/35/17 32/38/17 31/39/17
f 43/41/14 47/41/14 48/35/14
f 38/42/19 37/36/19 41/36/19
f 40/35/19 39/41/19 43/41/19
f 39/41/15 38/42/15 42/42/15
f 45/36/17 48/35/17 47/41/17
f 42/42/15 46/42/15 47/41/15
f 44/35/13 48/35/13 45/36/13
f 41/36/16 45/36/16 46/42/16
f 51/36/18 52/35/18 49/41/18
f 34/42/15 50/42/15 49/41/15
f 33/41/16 49/41/16 52/35/16
f 34/42/14 35/36/14 51/36/14
o arm3
v 0.089630 -1.116445 0.089630
v -0.089631 -1.116445 0.089630
v 0.089630 -1.116445 -0.089630
v -0.089631 -1.116445 -0.089630
v 0.089631 -0.139277 0.089630
v -0.089630 -0.139277 0.089630
v 0.089631 -0.139277 -0.089630
v -0.089630 -0.139277 -0.089630
v -0.192877 -0.194184 -0.193169
v -0.192877 -0.194184 0.193169
v -0.192877 0.192154 0.193169
v -0.192877 0.192154 -0.193169
v 0.193461 -0.194184 -0.193169
v 0.193461 0.192154 -0.193169
v 0.193461 -0.194184 0.193169
v 0.193461 0.192154 0.193169
v -0.192877 -0.119425 -0.118410
v -0.192877 -0.119425 0.118410
v -0.192877 0.117395 0.118410
v -0.192877 0.117395 -0.118410
v 0.193461 0.117395 -0.118410
v 0.193461 -0.119425 -0.118410
v 0.193461 -0.119425 0.118410
v 0.193461 0.117395 0.118410
v 0.193461 0.117395 -0.118410
v 0.193461 -0.119425 -0.118410
v 0.193461 -0.119425 0.118410
v 0.193461 0.117395 0.118410
v 0.110786 0.117395 -0.118410
v 0.110787 -0.119425 -0.118410
v 0.110787 -0.119425 0.118410
v 0.110786 0.117395 0.118410
v -0.120553 -0.119425 -0.118410
v -0.120553 -0.119425 0.118410
v -0.120553 0.117395 0.118410
v -0.120553 0.117395 -0.118410
v 0.130164 -1.352000 -0.127698
v -0.134962 -1.352000 -0.127698
v -0.134962 -1.086874 -0.127698
v 0.130164 -1.086874 -0.127698
v 0.130164 -1.352000 0.137429
v 0.130164 -1.086874 0.137429
v -0.134962 -1.352000 0.137429
v -0.134962 -1.086874 0.137429
v 0.078861 -1.300696 -0.127698
v -0.083658 -1.300696 -0.127698
v -0.083658 -1.138178 -0.127698
v 0.078861 -1.138177 -0.127698
v 0.078861 -1.138177 0.137429
v 0.078861 -1.300696 0.137429
v -0.083658 -1.300696 0.137429
v -0.083658 -1.138178 0.137429
v 0.078861 -1.138177 0.137429
v 0.078861 -1.300696 0.137429
v -0.083658 -1.300696 0.137429
v -0.083658 -1.138178 0.137429
v 0.078861 -1.138177 0.080693
v 0.078861 -1.300696 0.080693
v -0.083658 -1.300696 0.080693
v -0.083658 -1.138177 0.080693
v 0.078861 -1.300696 -0.078065
v -0.083658 -1.300696 -0.078065
v -0.083658 -1.138178 -0.078065
v 0.078861 -1.138178 -0.078065
vn -0.0000 -1.0000 -0.0000
vn -0.0000 -0.0000 -1.0000
vn -0.0000 1.0000 -0.0000
vn -0.0000 -0.0000 1.0000
vn 1.0000 -0.0000 -0.0000
vn -1.0000 -0.0000 -0.0000
vn -0.0000 -0.0000 -0.0000
vt 0.752472 0.362193
vt 0.874122 0.483844
vt 0.752472 0.483844
vt 0.874346 0.564771
vt 0.752249 0.686868
vt 0.752249 0.564771
vt 0.751871 0.361087
vt 0.873968 0.483184
vt 0.751871 0.483184
vt 0.874346 0.686868
vt 0.451623 0.701623
vt 0.451623 0.548377
vt 0.500000 0.500000
vt 0.250000 0.750000
vt 0.250000 0.500000
vt 0.500000 0.750000
vt 0.298377 0.548377
vt 0.298377 0.701623
vt 0.874122 0.362193
vt 0.873968 0.361087
s 0
usemtl 
f 54/45/20 55/46/20 53/47/20
f 56/48/21 59/49/21 55/50/21
f 60/51/22 57/52/22 59/53/22
f 58/48/23 53/49/23 57/50/23
f 59/50/24 53/54/24 55/49/24
f 56/50/25 58/54/25 60/49/25
f 72/55/20 87/56/20 71/56/20
f 64/57/21 65/58/21 61/59/21
f 73/56/22 80/55/22 77/56/22
f 67/59/23 63/60/23 62/58/23
f 65/57/20 62/58/20 61/59/20
f 64/57/22 68/58/22 66/59/22
f 70/61/25 61/58/25 62/59/25
f 71/56/25 62/59/25 63/57/25
f 71/56/25 64/60/25 72/55/25
f 72/55/25 61/58/25 69/62/25
f 73/56/24 65/59/24 66/57/24
f 75/62/24 65/59/24 74/61/24
f 73/56/24 68/60/24 76/55/24
f 76/55/24 67/58/24 75/62/24
f 80/55/21 83/62/21 84/55/21
f 74/61/26 77/56/26 78/61/26
f 76/55/26 79/62/26 80/55/26
f 75/62/22 78/61/22 79/62/22
f 81/56/24 83/62/24 82/61/24
f 79/62/22 82/61/22 83/62/22
f 80/55/20 81/56/20 77/56/20
f 77/56/23 82/61/23 78/61/23
f 87/56/25 85/62/25 86/61/25
f 70/61/22 85/62/22 69/62/22
f 69/62/23 88/55/23 72/55/23
f 71/56/21 86/61/21 70/61/21
f 100/55/20 115/56/20 99/56/20
f 92/57/24 93/58/24 89/59/24
f 101/56/22 108/55/22 105/56/22
f 95/59/25 91/60/25 90/58/25
f 93/57/20 90/58/20 89/59/20
f 94/59/22 91/60/22 96/58/22
f 98/61/21 89/58/21 90/59/21
f 99/56/21 90/59/21 91/57/21
f 100/55/21 91/57/21 92/60/21
f 100/55/21 89/58/21 97/62/21
f 101/56/23 93/59/23 94/57/23
f 103/62/23 93/59/23 102/61/23
f 101/56/23 96/60/23 104/55/23
f 104/55/23 95/58/23 103/62/23
f 108/55/24 111/62/24 112/55/24
f 102/61/26 105/56/26 106/61/26
f 104/55/26 107/62/26 108/55/26
f 103/62/22 106/61/22 107/62/22
f 109/56/23 111/62/23 110/61/23
f 106/61/22 111/62/22 107/62/22
f 108/55/20 109/56/20 105/56/20
f 105/56/25 110/61/25 106/61/25
f 115/56/21 113/62/21 114/61/21
f 98/61/22 113/62/22 97/62/22
f 97/62/25 116/55/25 100/55/25
f 99/56/24 114/61/24 98/61/24
f 54/45/20 56/63/20 55/46/20
f 56/48/21 60/54/21 59/49/21
f 60/51/22 58/64/22 57/52/22
f 58/48/23 54/54/23 53/49/23
f 59/50/24 57/48/24 53/54/24
f 56/50/25 54/48/25 58/54/25
f 72/55/20 88/55/20 87/56/20
f 64/57/21 66/60/21 65/58/21
f 73/56/22 76/55/22 80/55/22
f 67/59/23 68/57/23 63/60/23
f 65/57/20 67/60/20 62/58/20
f 64/57/22 63/60/22 68/58/22
f 70/61/25 69/62/25 61/58/25
f 71/56/25 70/61/25 62/59/25
f 71/56/25 63/57/25 64/60/25
f 72/55/25 64/60/25 61/58/25
f 73/56/24 74/61/24 65/59/24
f 75/62/24 67/58/24 65/59/24
f 73/56/24 66/57/24 68/60/24
f 76/55/24 68/60/24 67/58/24
f 80/55/21 79/62/21 83/62/21
f 74/61/26 73/56/26 77/56/26
f 76/55/26 75/62/26 79/62/26
f 75/62/22 74/61/22 78/61/22
f 81/56/24 84/55/24 83/62/24
f 79/62/22 78/61/22 82/61/22
f 80/55/20 84/55/20 81/56/20
f 77/56/23 81/56/23 82/61/23
f 87/56/25 88/55/25 85/62/25
f 70/61/22 86/61/22 85/62/22
f 69/62/23 85/62/23 88/55/23
f 71/56/21 87/56/21 86/61/21
f 100/55/20 116/55/20 115/56/20
f 92/57/24 94/60/24 93/58/24
f 101/56/22 104/55/22 108/55/22
f 95/59/25 96/57/25 91/60/25
f 93/57/20 95/60/20 90/58/20
f 94/59/22 92/57/22 91/60/22
f 98/61/21 97/62/21 89/58/21
f 99/56/21 98/61/21 90/59/21
f 100/55/21 99/56/21 91/57/21
f 100/55/21 92/60/21 89/58/21
f 101/56/23 102/61/23 93/59/23
f 103/62/23 95/58/23 93/59/23
f 101/56/23 94/57/23 96/60/23
f 104/55/23 96/60/23 95/58/23
f 108/55/24 107/62/24 111/62/24
f 102/61/26 101/56/26 105/56/26
f 104/55/26 103/62/26 107/62/26
f 103/62/22 102/61/22 106/61/22
f 109/56/23 112/55/23 111/62/23
f 106/61/22 110/61/22 111/62/22
f 108/55/20 112/55/20 109/56/20
f 105/56/25 109/56/25 110/61/25
f 115/56/21 116/55/21 113/62/21
f 98/61/22 114/61/22 113/62/22
f 97/62/25 113/62/25 116/55/25
f 99/56/24 115/56/24 114/61/24
o base
v 0.300194 1.520259 0.306831
v 0.300194 1.520259 0.693169
v 0.300194 1.906597 0.693169
v 0.300194 1.906597 0.306831
v 0.686532 1.520259 0.306831
v 0.686532 1.906597 0.306831
v 0.686532 1.520259 0.693169
v 0.686532 1.906597 0.693169
v 0.300194 1.595018 0.381590
v 0.300194 1.595018 0.618410
v 0.300194 1.831838 0.618410
v 0.300194 1.831838 0.381590
v 0.686532 1.831838 0.381590
v 0.686532 1.595018 0.381590
v 0.686532 1.595018 0.618410
v 0.686532 1.831838 0.618410
v 0.686532 1.831838 0.381590
v 0.686532 1.595018 0.381590
v 0.686532 1.595018 0.618410
v 0.686532 1.831838 0.618410
v 0.603857 1.831838 0.381590
v 0.603857 1.595018 0.381590
v 0.603857 1.595018 0.618410
v 0.603857 1.831838 0.618410
v 0.372517 1.595018 0.381590
v 0.372517 1.595018 0.618410
v 0.372517 1.831838 0.618410
v 0.372517 1.831838 0.381590
v 1.000000 1.000000 0.000000
v 1.000000 0.000000 0.000000
v 1.000000 1.000000 1.000000
v 1.000000 0.000000 1.000000
v 0.000000 1.000000 0.000000
v 0.000000 -0.000000 0.000000
v 0.000000 1.000000 1.000000
v 0.000000 -0.000000 1.000000
v 0.378783 0.964218 0.378783
v 0.378783 0.964218 0.621217
v 0.378783 1.556450 0.621217
v 0.378783 1.556450 0.378783
v 0.621217 0.964218 0.378783
v 0.621217 1.556450 0.378783
v 0.621217 0.964218 0.621217
v 0.621217 1.556450 0.621217
v 0.945376 0.374565 0.625435
v 0.945376 0.625435 0.625435
v 0.945376 0.374565 0.374565
v 0.945376 0.625435 0.374565
v 1.298255 0.374565 0.625435
v 1.298255 0.625435 0.625435
v 1.298255 0.374565 0.374565
v 1.298255 0.625435 0.374565
v 0.788206 0.694704 0.126767
v 0.788206 0.809389 0.126767
v 0.809958 0.694704 0.014164
v 0.809958 0.809389 0.014164
v 1.705142 0.694704 0.309945
v 1.705142 0.809389 0.309945
v 1.758181 0.694704 0.197342
v 1.758181 0.809389 0.197342
v 0.789936 0.694704 0.872669
v 0.815360 0.694704 0.984501
v 0.815360 0.809389 0.984501
v 0.789936 0.809389 0.872669
v 1.700373 0.694704 0.658575
v 1.700373 0.809389 0.658575
v 1.757085 0.694704 0.770407
v 1.757084 0.809389 0.770407
v 1.731315 0.304254 0.774472
v 1.731315 0.189569 0.774472
v 1.674604 0.304254 0.662640
v 1.674604 0.189569 0.662640
v 0.764167 0.304254 0.876734
v 0.789591 0.304254 0.988566
v 0.789591 0.189569 0.988566
v 0.764167 0.189569 0.876734
v 1.679372 0.304254 0.314011
v 1.679373 0.189569 0.314011
v 1.732412 0.304254 0.201407
v 1.732412 0.189569 0.201407
v 0.784189 0.304254 0.018229
v 0.762436 0.304254 0.130833
v 0.762436 0.189569 0.130833
v 0.784189 0.189569 0.018229
v 1.211275 -0.000000 0.250656
v 1.211275 -0.000000 0.749344
v 1.211275 1.000000 0.749344
v 1.211275 1.000000 0.250656
v 1.709963 0.000000 0.250656
v 1.709963 1.000000 0.250656
v 1.709963 0.000000 0.749344
v 1.709963 1.000000 0.749344
vn -0.0000 -1.0000 -0.0000
vn -0.0000 -0.0000 -1.0000
vn -0.0000 1.0000 -0.0000
vn -0.0000 -0.0000 1.0000
vn -1.0000 -0.0000 -0.0000
vn 1.0000 -0.0000 -0.0000
vn -0.0000 -0.0000 -0.0000
vn -0.9818 -0.0000 -0.1897
vn 0.1897 -0.0000 -0.9818
vn -0.1959 -0.0000 0.9806
vn -0.9751 -0.0000 0.2217
vn -0.2289 -0.0000 -0.9734
vn 0.2217 -0.0000 0.9751
vn -0.9999 -0.0000 -0.0137
vn 1.0000 -0.0000 0.0019
vt 0.451623 0.548377
vt 0.451623 0.701623
vt 0.250000 0.500000
vt 0.500000 0.500000
vt 0.500000 0.750000
vt 0.250000 0.750000
vt 0.298377 0.548377
vt 0.298377 0.701623
vt 0.500000 1.000000
vt 0.250000 1.000000
vt 0.749999 1.000000
vt 0.749999 0.750000
vt 0.999999 0.750000
vt 0.999999 1.000000
vt 0.500000 1.000000
vt 0.500000 0.750000
vt 0.750000 0.750000
vt 0.750000 1.000000
vt 0.000000 0.750000
vt 0.000000 1.000000
vt 0.750000 0.750000
vt 0.750000 0.500000
vt 0.875000 0.500000
vt 0.875000 0.750000
vt 0.812500 0.812500
vt 0.937500 0.812500
vt 0.937500 0.937500
vt 0.812500 0.937500
vt 0.500000 0.500000
vt 0.750000 0.500000
vt 0.750000 0.750000
vt 0.016537 0.390082
vt 0.139969 0.390082
vt 0.139969 0.452775
vt 0.016537 0.452775
vt 0.016537 0.452775
vt 0.016537 0.390082
vt 0.367543 0.367543
vt 0.632457 0.367543
vt 0.632457 0.632457
vt 0.367543 0.632457
vt 0.506452 0.826422
vt 0.506452 0.799249
vt 0.771366 0.799249
vt 0.771366 0.826422
vt 0.506300 0.797599
vt 0.786264 0.797599
vt 0.786264 0.827817
vt 0.506300 0.827817
s 0
usemtl Material
f 127/65/27 128/66/27 144/66/27 143/65/27
f 117/67/28 120/68/28 122/69/28 121/70/28
f 129/65/29 132/66/29 136/66/29 133/65/29
f 123/67/30 124/68/30 119/69/30 118/70/30
f 117/67/27 121/68/27 123/69/27 118/70/27
f 122/67/29 120/68/29 119/69/29 124/70/29
f 126/71/31 125/72/31 117/70/31 118/67/31
f 127/65/31 126/71/31 118/67/31 119/68/31
f 128/66/31 127/65/31 119/68/31 120/69/31
f 125/72/31 128/66/31 120/69/31 117/70/31
f 129/65/32 130/71/32 121/67/32 122/68/32
f 130/71/32 131/72/32 123/70/32 121/67/32
f 132/66/32 129/65/32 122/68/32 124/69/32
f 131/72/32 132/66/32 124/69/32 123/70/32
f 136/66/28 135/72/28 139/72/28 140/66/28
f 130/71/33 129/65/33 133/65/33 134/71/33
f 132/66/33 131/72/33 135/72/33 136/66/33
f 131/72/29 130/71/29 134/71/29 135/72/29
f 138/71/32 137/65/32 140/66/32 139/72/32
f 135/72/29 134/71/29 138/71/29 139/72/29
f 133/65/27 136/66/27 140/66/27 137/65/27
f 134/71/30 133/65/30 137/65/30 138/71/30
f 142/71/31 143/65/31 144/66/31 141/72/31
f 125/72/29 126/71/29 142/71/29 141/72/29
f 128/66/30 125/72/30 141/72/30 144/66/30
f 126/71/28 127/65/28 143/65/28 142/71/28
f 145/70/29 149/69/29 151/73/29 147/74/29
f 148/75/30 147/76/30 151/77/30 152/78/30
f 152/79/31 151/80/31 149/81/31 150/82/31
f 150/83/27 146/70/27 148/74/27 152/84/27
f 146/75/32 145/76/32 147/77/32 148/78/32
f 150/75/28 149/76/28 145/77/28 146/78/28
f 154/85/31 155/86/31 156/87/31 153/88/31
f 153/85/28 156/86/28 158/87/28 157/88/28
f 157/85/32 158/86/32 160/87/32 159/88/32
f 159/85/30 160/86/30 155/87/30 154/88/30
f 153/89/27 157/90/27 159/91/27 154/92/27
f 158/93/29 156/94/29 155/95/29 160/69/29
f 161/96/31 162/97/31 164/98/31 163/99/31
f 163/96/28 164/97/28 168/98/28 167/99/28
f 167/96/32 168/97/32 166/98/32 165/99/32
f 165/96/30 166/97/30 162/98/30 161/99/30
f 163/100/27 167/101/27 165/97/27 161/98/27
f 168/100/29 164/101/29 162/97/29 166/98/29
f 169/102/34 170/103/34 172/104/34 171/105/34
f 171/106/35 172/107/35 176/108/35 175/109/35
f 173/106/36 174/107/36 170/108/36 169/109/36
f 171/110/27 175/111/27 173/112/27 169/113/27
f 176/110/29 172/111/29 170/112/29 174/113/29
f 178/102/37 179/103/37 180/104/37 177/105/37
f 177/106/38 180/107/38 182/108/38 181/109/38
f 173/106/27 175/111/27 183/112/27 181/109/27
f 183/106/39 184/107/39 179/108/39 178/109/39
f 177/110/27 181/111/27 183/112/27 178/113/27
f 182/110/29 180/111/29 179/112/29 184/113/29
f 176/110/29 174/107/29 182/110/29 184/113/29
f 173/106/40 181/109/40 182/108/40 174/107/40
f 175/111/41 176/110/41 184/107/41 183/112/41
f 194/106/40 188/109/40 187/108/40 193/107/40
f 195/110/29 193/107/29 187/110/29 185/113/29
f 187/110/29 189/111/29 190/112/29 185/113/29
f 196/111/41 195/110/41 185/107/41 186/112/41
f 192/110/27 188/111/27 186/112/27 191/113/27
f 200/110/27 196/111/27 194/112/27 199/113/27
f 194/106/36 193/107/36 198/108/36 199/109/36
f 194/106/27 196/111/27 186/112/27 188/109/27
f 200/106/35 197/107/35 195/108/35 196/109/35
f 195/110/29 197/111/29 198/112/29 193/113/29
f 199/102/34 198/103/34 197/104/34 200/105/34
f 192/106/38 189/107/38 187/108/38 188/109/38
f 191/102/37 190/103/37 189/104/37 192/105/37
f 186/106/39 185/107/39 190/108/39 191/109/39
f 202/85/31 203/86/31 204/87/31 201/88/31
f 201/85/28 204/86/28 206/87/28 205/88/28
f 205/85/32 206/86/32 208/87/32 207/88/32
f 207/85/30 208/86/30 203/87/30 202/88/30
f 201/89/27 205/90/27 207/91/27 202/92/27
f 206/93/29 204/94/29 203/95/29 208/69/29
