# Blender 4.2.3 LTS
# www.blender.org
mtllib planet.mtl
o Icosphere
v 0.000000 -1.000000 0.000000
v 0.723607 -0.447220 0.525725
v -0.276388 -0.447220 0.850649
v -0.894426 -0.447216 0.000000
v -0.276388 -0.447220 -0.850649
v 0.723607 -0.447220 -0.525725
v 0.276388 0.447220 0.850649
v -0.723607 0.447220 0.525725
v -0.723607 0.447220 -0.525725
v 0.276388 0.447220 -0.850649
v 0.894426 0.447216 0.000000
v 0.000000 1.000000 0.000000
v -0.232822 -0.657519 0.716563
v -0.162456 -0.850654 0.499995
v -0.077607 -0.967950 0.238853
v 0.203181 -0.967950 0.147618
v 0.425323 -0.850654 0.309011
v 0.609547 -0.657519 0.442856
v 0.531941 -0.502302 0.681712
v 0.262869 -0.525738 0.809012
v -0.029639 -0.502302 0.864184
v 0.812729 -0.502301 -0.295238
v 0.850648 -0.525736 0.000000
v 0.812729 -0.502301 0.295238
v 0.203181 -0.967950 -0.147618
v 0.425323 -0.850654 -0.309011
v 0.609547 -0.657519 -0.442856
v -0.753442 -0.657515 0.000000
v -0.525730 -0.850652 0.000000
v -0.251147 -0.967949 0.000000
v -0.483971 -0.502302 0.716565
v -0.688189 -0.525736 0.499997
v -0.831051 -0.502299 0.238853
v -0.232822 -0.657519 -0.716563
v -0.162456 -0.850654 -0.499995
v -0.077607 -0.967950 -0.238853
v -0.831051 -0.502299 -0.238853
v -0.688189 -0.525736 -0.499997
v -0.483971 -0.502302 -0.716565
v -0.029639 -0.502302 -0.864184
v 0.262869 -0.525738 -0.809012
v 0.531941 -0.502302 -0.681712
v 0.956626 0.251149 0.147618
v 0.951058 -0.000000 0.309013
v 0.860698 -0.251151 0.442858
v 0.860698 -0.251151 -0.442858
v 0.951058 0.000000 -0.309013
v 0.956626 0.251149 -0.147618
v 0.155215 0.251152 0.955422
v 0.000000 -0.000000 1.000000
v -0.155215 -0.251152 0.955422
v 0.687159 -0.251152 0.681715
v 0.587786 0.000000 0.809017
v 0.436007 0.251152 0.864188
v -0.860698 0.251151 0.442858
v -0.951058 -0.000000 0.309013
v -0.956626 -0.251149 0.147618
v -0.436007 -0.251152 0.864188
v -0.587786 0.000000 0.809017
v -0.687159 0.251152 0.681715
v -0.687159 0.251152 -0.681715
v -0.587786 -0.000000 -0.809017
v -0.436007 -0.251152 -0.864188
v -0.956626 -0.251149 -0.147618
v -0.951058 0.000000 -0.309013
v -0.860698 0.251151 -0.442858
v 0.436007 0.251152 -0.864188
v 0.587786 -0.000000 -0.809017
v 0.687159 -0.251152 -0.681715
v -0.155215 -0.251152 -0.955422
v 0.000000 0.000000 -1.000000
v 0.155215 0.251152 -0.955422
v 0.831051 0.502299 0.238853
v 0.688189 0.525736 0.499997
v 0.483971 0.502302 0.716565
v 0.029639 0.502302 0.864184
v -0.262869 0.525738 0.809012
v -0.531941 0.502302 0.681712
v -0.812729 0.502301 0.295238
v -0.850648 0.525736 0.000000
v -0.812729 0.502301 -0.295238
v -0.531941 0.502302 -0.681712
v -0.262869 0.525738 -0.809012
v 0.029639 0.502302 -0.864184
v 0.483971 0.502302 -0.716565
v 0.688189 0.525736 -0.499997
v 0.831051 0.502299 -0.238853
v 0.077607 0.967950 0.238853
v 0.162456 0.850654 0.499995
v 0.232822 0.657519 0.716563
v 0.753442 0.657515 0.000000
v 0.525730 0.850652 0.000000
v 0.251147 0.967949 0.000000
v -0.203181 0.967950 0.147618
v -0.425323 0.850654 0.309011
v -0.609547 0.657519 0.442856
v -0.203181 0.967950 -0.147618
v -0.425323 0.850654 -0.309011
v -0.609547 0.657519 -0.442856
v 0.077607 0.967950 -0.238853
v 0.162456 0.850654 -0.499995
v 0.232822 0.657519 -0.716563
v 0.361800 0.894429 -0.262863
v 0.638194 0.723610 -0.262864
v 0.447209 0.723612 -0.525728
v -0.138197 0.894430 -0.425319
v -0.052790 0.723612 -0.688185
v -0.361804 0.723612 -0.587778
v -0.447210 0.894429 0.000000
v -0.670817 0.723611 -0.162457
v -0.670817 0.723611 0.162457
v -0.138197 0.894430 0.425319
v -0.361804 0.723612 0.587778
v -0.052790 0.723612 0.688185
v 0.361800 0.894429 0.262863
v 0.447209 0.723612 0.525728
v 0.638194 0.723610 0.262864
v 0.861804 0.276396 -0.425322
v 0.809019 0.000000 -0.587782
v 0.670821 0.276397 -0.688189
v -0.138199 0.276397 -0.951055
v -0.309016 -0.000000 -0.951057
v -0.447215 0.276397 -0.850649
v -0.947213 0.276396 -0.162458
v -1.000000 0.000001 0.000000
v -0.947213 0.276397 0.162458
v -0.447216 0.276397 0.850648
v -0.309017 -0.000001 0.951056
v -0.138199 0.276397 0.951055
v 0.670820 0.276396 0.688190
v 0.809019 -0.000002 0.587783
v 0.861804 0.276394 0.425323
v 0.309017 -0.000000 -0.951056
v 0.447216 -0.276398 -0.850648
v 0.138199 -0.276398 -0.951055
v -0.809018 -0.000000 -0.587783
v -0.670819 -0.276397 -0.688191
v -0.861803 -0.276396 -0.425324
v -0.809018 0.000000 0.587783
v -0.861803 -0.276396 0.425324
v -0.670819 -0.276397 0.688191
v 0.309017 0.000000 0.951056
v 0.138199 -0.276398 0.951055
v 0.447216 -0.276398 0.850648
v 1.000000 0.000000 0.000000
v 0.947213 -0.276396 0.162458
v 0.947213 -0.276396 -0.162458
v 0.361803 -0.723612 -0.587779
v 0.138197 -0.894429 -0.425321
v 0.052789 -0.723611 -0.688186
v -0.447211 -0.723612 -0.525727
v -0.361801 -0.894429 -0.262863
v -0.638195 -0.723609 -0.262863
v -0.638195 -0.723609 0.262864
v -0.361801 -0.894428 0.262864
v -0.447211 -0.723610 0.525729
v 0.670817 -0.723611 -0.162457
v 0.670818 -0.723610 0.162458
v 0.447211 -0.894428 0.000001
v 0.052790 -0.723612 0.688185
v 0.138199 -0.894429 0.425321
v 0.361805 -0.723611 0.587779
vn 0.0482 -0.9878 0.1482
vn 0.7230 -0.5545 0.4121
vn -0.1261 -0.9878 0.0916
vn -0.1261 -0.9878 -0.0916
vn 0.0482 -0.9878 -0.1482
vn 0.8193 -0.3987 0.4121
vn -0.1387 -0.3987 0.9065
vn -0.9050 -0.3987 0.1482
vn -0.4206 -0.3987 -0.8149
vn 0.6451 -0.3987 -0.6519
vn 0.7711 -0.3024 0.5603
vn -0.2945 -0.3024 0.9065
vn -0.9532 -0.3024 -0.0000
vn -0.2945 -0.3024 -0.9065
vn 0.7711 -0.3024 -0.5603
vn 0.3427 0.5545 0.7583
vn -0.6153 0.5545 0.5603
vn -0.7230 0.5545 -0.4121
vn 0.1685 0.5545 -0.8149
vn 0.8271 0.5545 -0.0916
vn 0.1261 0.9878 -0.0916
vn 0.3912 0.9158 -0.0915
vn 0.6441 0.7594 -0.0915
vn 0.2334 0.9575 -0.1696
vn 0.2079 0.9158 -0.3438
vn 0.5168 0.8363 -0.1830
vn 0.4911 0.7947 -0.3568
vn 0.3338 0.8363 -0.4350
vn 0.2860 0.7594 -0.5843
vn 0.7520 0.6369 -0.1696
vn 0.7261 0.5955 -0.3438
vn 0.5987 0.6726 -0.4350
vn 0.5513 0.5955 -0.5843
vn 0.3936 0.6369 -0.6628
vn 0.3427 0.5545 -0.7583
vn -0.0482 0.9878 -0.1482
vn 0.0339 0.9158 -0.4003
vn 0.1121 0.7594 -0.6409
vn -0.0891 0.9575 -0.2743
vn -0.2627 0.9158 -0.3039
vn -0.0144 0.8363 -0.5481
vn -0.1876 0.7947 -0.5773
vn -0.3105 0.8363 -0.4519
vn -0.4674 0.7594 -0.4526
vn 0.0711 0.6369 -0.7676
vn -0.1026 0.5955 -0.7968
vn -0.2287 0.6726 -0.7038
vn -0.3854 0.5955 -0.7049
vn -0.5087 0.6369 -0.5792
vn -0.6153 0.5545 -0.5603
vn -0.1558 0.9878 -0.0000
vn -0.3702 0.9158 -0.1560
vn -0.5749 0.7594 -0.3046
vn -0.2885 0.9575 -0.0000
vn -0.3702 0.9158 0.1560
vn -0.5257 0.8363 -0.1557
vn -0.6071 0.7947 -0.0000
vn -0.5257 0.8363 0.1557
vn -0.5749 0.7594 0.3046
vn -0.7081 0.6369 -0.3049
vn -0.7895 0.5955 -0.1487
vn -0.7400 0.6726 -0.0000
vn -0.7895 0.5955 0.1487
vn -0.7081 0.6369 0.3049
vn -0.7230 0.5545 0.4121
vn -0.0482 0.9878 0.1482
vn -0.2627 0.9158 0.3039
vn -0.4674 0.7594 0.4526
vn -0.0891 0.9575 0.2743
vn 0.0339 0.9158 0.4003
vn -0.3105 0.8363 0.4519
vn -0.1876 0.7947 0.5773
vn -0.0144 0.8363 0.5481
vn 0.1121 0.7594 0.6409
vn -0.5087 0.6369 0.5792
vn -0.3854 0.5955 0.7049
vn -0.2287 0.6726 0.7038
vn -0.1026 0.5955 0.7968
vn 0.0711 0.6369 0.7676
vn 0.1685 0.5545 0.8149
vn 0.1261 0.9878 0.0916
vn 0.2079 0.9158 0.3438
vn 0.2860 0.7594 0.5843
vn 0.2334 0.9575 0.1696
vn 0.3912 0.9158 0.0915
vn 0.3338 0.8363 0.4350
vn 0.4911 0.7947 0.3568
vn 0.5168 0.8363 0.1830
vn 0.6441 0.7594 0.0915
vn 0.3936 0.6369 0.6628
vn 0.5513 0.5955 0.5843
vn 0.5987 0.6726 0.4350
vn 0.7261 0.5955 0.3438
vn 0.7520 0.6369 0.1696
vn 0.8271 0.5545 0.0916
vn 0.9050 0.3987 -0.1482
vn 0.9366 0.1745 -0.3039
vn 0.8883 -0.0784 -0.4526
vn 0.8963 0.3485 -0.2743
vn 0.8039 0.4399 -0.4003
vn 0.8869 0.0962 -0.4519
vn 0.7947 0.1876 -0.5773
vn 0.7544 0.3611 -0.5481
vn 0.6291 0.4399 -0.6409
vn 0.7972 -0.1702 -0.5792
vn 0.7049 -0.0784 -0.7049
vn 0.7038 0.0962 -0.7038
vn 0.5785 0.1745 -0.7968
vn 0.5379 0.3485 -0.7676
vn 0.4206 0.3987 -0.8149
vn 0.1387 0.3987 -0.9065
vn 0.0004 0.1745 -0.9846
vn -0.1560 -0.0784 -0.9846
vn 0.0160 0.3485 -0.9372
vn -0.1323 0.4399 -0.8883
vn -0.1557 0.0962 -0.9831
vn -0.3035 0.1876 -0.9342
vn -0.2882 0.3611 -0.8869
vn -0.4151 0.4399 -0.7964
vn -0.3045 -0.1702 -0.9372
vn -0.4526 -0.0784 -0.8883
vn -0.4519 0.0962 -0.8869
vn -0.5791 0.1745 -0.7964
vn -0.5638 0.3485 -0.7488
vn -0.6451 0.3987 -0.6519
vn -0.8193 0.3987 -0.4121
vn -0.9363 0.1745 -0.3046
vn -0.9846 -0.0784 -0.1560
vn -0.8864 0.3485 -0.3049
vn -0.8857 0.4399 -0.1487
vn -0.9831 0.0962 -0.1557
vn -0.9822 0.1876 -0.0000
vn -0.9325 0.3611 -0.0000
vn -0.8857 0.4399 0.1487
vn -0.9854 -0.1702 -0.0000
vn -0.9846 -0.0784 0.1560
vn -0.9831 0.0962 0.1557
vn -0.9363 0.1745 0.3046
vn -0.8864 0.3485 0.3049
vn -0.8193 0.3987 0.4121
vn -0.6451 0.3987 0.6519
vn -0.5791 0.1745 0.7964
vn -0.4526 -0.0784 0.8883
vn -0.5638 0.3485 0.7488
vn -0.4151 0.4399 0.7964
vn -0.4519 0.0962 0.8869
vn -0.3035 0.1876 0.9342
vn -0.2882 0.3611 0.8869
vn -0.1323 0.4399 0.8883
vn -0.3045 -0.1702 0.9372
vn -0.1560 -0.0784 0.9846
vn -0.1557 0.0962 0.9831
vn 0.0004 0.1745 0.9846
vn 0.0160 0.3485 0.9372
vn 0.1387 0.3987 0.9065
vn 0.4206 0.3987 0.8149
vn 0.5785 0.1745 0.7968
vn 0.7049 -0.0784 0.7049
vn 0.5379 0.3485 0.7676
vn 0.6291 0.4399 0.6409
vn 0.7038 0.0962 0.7038
vn 0.7947 0.1876 0.5773
vn 0.7544 0.3611 0.5481
vn 0.8039 0.4399 0.4003
vn 0.7972 -0.1702 0.5792
vn 0.8883 -0.0784 0.4526
vn 0.8869 0.0962 0.4519
vn 0.9366 0.1745 0.3039
vn 0.8963 0.3485 0.2744
vn 0.9050 0.3987 0.1482
vn 0.2945 0.3024 -0.9065
vn 0.4526 0.0784 -0.8883
vn 0.5791 -0.1745 -0.7964
vn 0.3045 0.1702 -0.9372
vn 0.1560 0.0784 -0.9846
vn 0.4519 -0.0962 -0.8869
vn 0.3035 -0.1876 -0.9342
vn 0.1557 -0.0962 -0.9831
vn -0.0004 -0.1745 -0.9846
vn 0.5638 -0.3485 -0.7488
vn 0.4151 -0.4399 -0.7964
vn 0.2882 -0.3611 -0.8869
vn 0.1323 -0.4399 -0.8883
vn -0.0160 -0.3485 -0.9372
vn -0.1387 -0.3987 -0.9065
vn -0.7711 0.3024 -0.5603
vn -0.7049 0.0784 -0.7049
vn -0.5785 -0.1745 -0.7968
vn -0.7972 0.1702 -0.5792
vn -0.8883 0.0784 -0.4526
vn -0.7038 -0.0962 -0.7038
vn -0.7947 -0.1876 -0.5774
vn -0.8869 -0.0962 -0.4519
vn -0.9366 -0.1745 -0.3039
vn -0.5379 -0.3485 -0.7676
vn -0.6291 -0.4399 -0.6409
vn -0.7544 -0.3611 -0.5481
vn -0.8039 -0.4399 -0.4003
vn -0.8963 -0.3485 -0.2744
vn -0.9050 -0.3987 -0.1482
vn -0.7711 0.3024 0.5603
vn -0.8883 0.0784 0.4526
vn -0.9366 -0.1745 0.3039
vn -0.7972 0.1702 0.5792
vn -0.7049 0.0784 0.7049
vn -0.8869 -0.0962 0.4519
vn -0.7947 -0.1876 0.5774
vn -0.7038 -0.0962 0.7038
vn -0.5785 -0.1745 0.7968
vn -0.8963 -0.3485 0.2744
vn -0.8039 -0.4399 0.4003
vn -0.7544 -0.3611 0.5481
vn -0.6291 -0.4399 0.6409
vn -0.5379 -0.3485 0.7676
vn -0.4206 -0.3987 0.8149
vn 0.2945 0.3024 0.9065
vn 0.1560 0.0784 0.9846
vn -0.0004 -0.1745 0.9846
vn 0.3045 0.1702 0.9372
vn 0.4526 0.0784 0.8883
vn 0.1557 -0.0962 0.9831
vn 0.3035 -0.1876 0.9342
vn 0.4519 -0.0962 0.8869
vn 0.5791 -0.1745 0.7964
vn -0.0160 -0.3485 0.9372
vn 0.1323 -0.4399 0.8883
vn 0.2882 -0.3611 0.8869
vn 0.4151 -0.4399 0.7964
vn 0.5638 -0.3485 0.7488
vn 0.6451 -0.3987 0.6519
vn 0.9532 0.3024 -0.0000
vn 0.9846 0.0784 0.1560
vn 0.9363 -0.1745 0.3046
vn 0.9854 0.1702 -0.0000
vn 0.9846 0.0784 -0.1560
vn 0.9831 -0.0962 0.1557
vn 0.9822 -0.1876 -0.0000
vn 0.9831 -0.0962 -0.1557
vn 0.9363 -0.1745 -0.3046
vn 0.8864 -0.3485 0.3049
vn 0.8857 -0.4399 0.1487
vn 0.9325 -0.3611 -0.0000
vn 0.8857 -0.4399 -0.1487
vn 0.8864 -0.3485 -0.3049
vn 0.8193 -0.3987 -0.4121
vn 0.6153 -0.5545 -0.5603
vn 0.4674 -0.7594 -0.4526
vn 0.2627 -0.9158 -0.3039
vn 0.5087 -0.6369 -0.5792
vn 0.3854 -0.5955 -0.7049
vn 0.3105 -0.8363 -0.4519
vn 0.1876 -0.7947 -0.5773
vn 0.2287 -0.6726 -0.7038
vn 0.1026 -0.5955 -0.7968
vn 0.0891 -0.9575 -0.2744
vn -0.0339 -0.9158 -0.4003
vn 0.0144 -0.8363 -0.5481
vn -0.1121 -0.7594 -0.6409
vn -0.0711 -0.6369 -0.7676
vn -0.1685 -0.5545 -0.8149
vn -0.3427 -0.5545 -0.7583
vn -0.2860 -0.7594 -0.5843
vn -0.2079 -0.9158 -0.3438
vn -0.3936 -0.6369 -0.6628
vn -0.5513 -0.5955 -0.5843
vn -0.3338 -0.8363 -0.4350
vn -0.4911 -0.7947 -0.3568
vn -0.5987 -0.6726 -0.4350
vn -0.7261 -0.5955 -0.3438
vn -0.2334 -0.9575 -0.1696
vn -0.3912 -0.9158 -0.0915
vn -0.5168 -0.8363 -0.1830
vn -0.6441 -0.7594 -0.0915
vn -0.7520 -0.6369 -0.1696
vn -0.8271 -0.5545 -0.0916
vn -0.8271 -0.5545 0.0916
vn -0.6441 -0.7594 0.0915
vn -0.3912 -0.9158 0.0915
vn -0.7520 -0.6369 0.1696
vn -0.7261 -0.5955 0.3438
vn -0.5168 -0.8363 0.1830
vn -0.4911 -0.7947 0.3568
vn -0.5987 -0.6726 0.4350
vn -0.5513 -0.5955 0.5843
vn -0.2334 -0.9575 0.1696
vn -0.2079 -0.9158 0.3438
vn -0.3338 -0.8363 0.4350
vn -0.2860 -0.7594 0.5843
vn -0.3936 -0.6369 0.6628
vn -0.3427 -0.5545 0.7583
vn 0.7230 -0.5545 -0.4121
vn 0.7895 -0.5955 -0.1487
vn 0.7895 -0.5955 0.1487
vn 0.7081 -0.6369 -0.3049
vn 0.5749 -0.7594 -0.3046
vn 0.7400 -0.6726 -0.0000
vn 0.6071 -0.7947 -0.0000
vn 0.5257 -0.8363 -0.1557
vn 0.3702 -0.9158 -0.1559
vn 0.7081 -0.6369 0.3049
vn 0.5749 -0.7594 0.3046
vn 0.5257 -0.8363 0.1557
vn 0.3702 -0.9158 0.1560
vn 0.2885 -0.9575 -0.0000
vn 0.1558 -0.9878 -0.0000
vn -0.1685 -0.5545 0.8149
vn -0.1121 -0.7594 0.6409
vn -0.0339 -0.9158 0.4003
vn -0.0711 -0.6369 0.7676
vn 0.1026 -0.5955 0.7968
vn 0.0144 -0.8363 0.5481
vn 0.1876 -0.7947 0.5773
vn 0.2287 -0.6726 0.7038
vn 0.3854 -0.5955 0.7049
vn 0.0891 -0.9575 0.2743
vn 0.2627 -0.9158 0.3039
vn 0.3105 -0.8363 0.4519
vn 0.4674 -0.7594 0.4526
vn 0.5087 -0.6369 0.5792
vn 0.6153 -0.5545 0.5603
vt 0.913044 0.000000
vt 1.000000 0.080807
vt 0.826087 0.080807
vt 0.130435 0.352414
vt 0.130435 0.271606
vt 0.169168 0.332487
vt 0.739130 0.000000
vt 0.652173 0.080808
vt 0.565217 0.000000
vt 0.478260 0.080807
vt 0.391303 0.000000
vt 0.304347 0.080807
vt 0.151625 0.419191
vt 0.826087 0.352414
vt 0.864820 0.332487
vt 0.847276 0.419191
vt 0.652173 0.352416
vt 0.690906 0.332488
vt 0.673362 0.419191
vt 0.478260 0.352414
vt 0.516993 0.332487
vt 0.499449 0.419191
vt 0.304347 0.352414
vt 0.343080 0.332487
vt 0.325536 0.419191
vt 0.109246 0.419191
vt 0.804897 0.419191
vt 0.630985 0.419191
vt 0.457071 0.419191
vt 0.283158 0.419191
vt 0.043478 0.647586
vt 0.082211 0.667513
vt 0.043478 0.728394
vt 0.739129 0.647586
vt 0.777862 0.667513
vt 0.739129 0.728394
vt 0.565218 0.647586
vt 0.603950 0.667513
vt 0.565218 0.728394
vt 0.391305 0.647586
vt 0.430037 0.667513
vt 0.391305 0.728394
vt 0.217391 0.647584
vt 0.256124 0.667512
vt 0.217391 0.728392
vt 0.217391 0.919192
vt 0.391305 0.919193
vt 0.304348 1.000000
vt 0.217391 0.823792
vt 0.304348 0.852418
vt 0.271464 0.757519
vt 0.391305 0.823794
vt 0.337231 0.757519
vt 0.304347 0.676210
vt 0.352571 0.667513
vt 0.565218 0.919193
vt 0.478261 1.000000
vt 0.478261 0.852418
vt 0.445378 0.757520
vt 0.565218 0.823794
vt 0.511145 0.757520
vt 0.478261 0.676211
vt 0.526485 0.667513
vt 0.739129 0.919193
vt 0.652173 1.000000
vt 0.652173 0.852418
vt 0.619290 0.757519
vt 0.739129 0.823794
vt 0.685057 0.757519
vt 0.652173 0.676210
vt 0.700397 0.667513
vt 0.913042 0.919193
vt 0.826086 1.000000
vt 0.826086 0.852418
vt 0.793202 0.757520
vt 0.913042 0.823794
vt 0.858969 0.757520
vt 0.913042 0.728394
vt 0.826086 0.676211
vt 0.874309 0.667513
vt 0.004745 0.667513
vt 0.043478 0.919193
vt 0.130434 1.000000
vt 0.043478 0.823794
vt 0.130435 0.852418
vt 0.097551 0.757519
vt 0.163318 0.757519
vt 0.130435 0.676210
vt 0.178659 0.667512
vt 0.238580 0.580809
vt 0.260869 0.500000
vt 0.280839 0.589140
vt 0.304347 0.500000
vt 0.327855 0.589141
vt 0.347826 0.500000
vt 0.370115 0.580809
vt 0.412494 0.580809
vt 0.434782 0.500000
vt 0.454753 0.589140
vt 0.478260 0.500000
vt 0.501769 0.589140
vt 0.521739 0.500000
vt 0.544028 0.580809
vt 0.586407 0.580809
vt 0.608696 0.500000
vt 0.628666 0.589140
vt 0.652173 0.500000
vt 0.675681 0.589140
vt 0.695651 0.500000
vt 0.717940 0.580809
vt 0.760319 0.580809
vt 0.782608 0.500000
vt 0.802578 0.589140
vt 0.826086 0.500000
vt 0.849594 0.589140
vt 0.869565 0.500000
vt 0.891853 0.580809
vt 0.022289 0.580809
vt 0.064667 0.580809
vt 0.086957 0.500000
vt 0.106927 0.589140
vt 0.130435 0.499999
vt 0.153943 0.589140
vt 0.173914 0.500000
vt 0.196202 0.580809
vt 0.391304 0.500000
vt 0.367796 0.410859
vt 0.414812 0.410859
vt 0.391303 0.323789
vt 0.439527 0.332487
vt 0.565217 0.500000
vt 0.541709 0.410859
vt 0.588725 0.410860
vt 0.565217 0.323790
vt 0.613441 0.332488
vt 0.739129 0.500000
vt 0.715622 0.410860
vt 0.762638 0.410859
vt 0.739130 0.323790
vt 0.787354 0.332487
vt 0.000000 0.500000
vt 0.043478 0.500000
vt 0.889535 0.410859
vt 0.019971 0.410859
vt 0.066987 0.410859
vt 0.913044 0.323789
vt 0.043479 0.323789
vt 0.091703 0.332487
vt 0.217391 0.500000
vt 0.193883 0.410860
vt 0.240899 0.410860
vt 0.217391 0.323790
vt 0.265614 0.332487
vt 0.304347 0.271606
vt 0.304347 0.176206
vt 0.358420 0.242481
vt 0.391304 0.147582
vt 0.424187 0.242481
vt 0.478260 0.176206
vt 0.478260 0.271606
vt 0.532333 0.242481
vt 0.565217 0.147582
vt 0.598101 0.242482
vt 0.652173 0.176208
vt 0.652173 0.271608
vt 0.706246 0.242482
vt 0.739130 0.147583
vt 0.772014 0.242481
vt 0.826087 0.176206
vt 0.826087 0.271606
vt 0.250274 0.242481
vt 0.184508 0.242481
vt 0.217391 0.147583
vt 0.130435 0.176206
vt 0.130435 0.080807
vt 0.217391 0.000000
vt 0.880160 0.242481
vt 0.913044 0.147582
vt 0.043479 0.147582
vt 0.076363 0.242481
vt 0.010595 0.242481
s 0
usemtl Material.001
f 1/1/1 16/2/1 15/3/1
f 2/4/2 18/5/2 24/6/2
f 1/7/3 15/3/3 30/8/3
f 1/9/4 30/8/4 36/10/4
f 1/11/5 36/10/5 25/12/5
f 2/4/6 24/6/6 45/13/6
f 3/14/7 21/15/7 51/16/7
f 4/17/8 33/18/8 57/19/8
f 5/20/9 39/21/9 63/22/9
f 6/23/10 42/24/10 69/25/10
f 2/4/11 45/13/11 52/26/11
f 3/14/12 51/16/12 58/27/12
f 4/17/13 57/19/13 64/28/13
f 5/20/14 63/22/14 70/29/14
f 6/23/15 69/25/15 46/30/15
f 7/31/16 75/32/16 90/33/16
f 8/34/17 78/35/17 96/36/17
f 9/37/18 81/38/18 99/39/18
f 10/40/19 84/41/19 102/42/19
f 11/43/20 87/44/20 91/45/20
f 93/46/21 100/47/21 12/48/21
f 92/49/22 103/50/22 93/46/22
f 91/45/23 104/51/23 92/49/23
f 93/46/24 103/50/24 100/47/24
f 103/50/25 101/52/25 100/47/25
f 92/49/26 104/51/26 103/50/26
f 104/51/27 105/53/27 103/50/27
f 103/50/28 105/53/28 101/52/28
f 105/53/29 102/42/29 101/52/29
f 91/45/30 87/44/30 104/51/30
f 87/44/31 86/54/31 104/51/31
f 104/51/32 86/54/32 105/53/32
f 86/54/33 85/55/33 105/53/33
f 105/53/34 85/55/34 102/42/34
f 85/55/35 10/40/35 102/42/35
f 100/47/36 97/56/36 12/57/36
f 101/52/37 106/58/37 100/47/37
f 102/42/38 107/59/38 101/52/38
f 100/47/39 106/58/39 97/56/39
f 106/58/40 98/60/40 97/56/40
f 101/52/41 107/59/41 106/58/41
f 107/59/42 108/61/42 106/58/42
f 106/58/43 108/61/43 98/60/43
f 108/61/44 99/39/44 98/60/44
f 102/42/45 84/41/45 107/59/45
f 84/41/46 83/62/46 107/59/46
f 107/59/47 83/62/47 108/61/47
f 83/62/48 82/63/48 108/61/48
f 108/61/49 82/63/49 99/39/49
f 82/63/50 9/37/50 99/39/50
f 97/56/51 94/64/51 12/65/51
f 98/60/52 109/66/52 97/56/52
f 99/39/53 110/67/53 98/60/53
f 97/56/54 109/66/54 94/64/54
f 109/66/55 95/68/55 94/64/55
f 98/60/56 110/67/56 109/66/56
f 110/67/57 111/69/57 109/66/57
f 109/66/58 111/69/58 95/68/58
f 111/69/59 96/36/59 95/68/59
f 99/39/60 81/38/60 110/67/60
f 81/38/61 80/70/61 110/67/61
f 110/67/62 80/70/62 111/69/62
f 80/70/63 79/71/63 111/69/63
f 111/69/64 79/71/64 96/36/64
f 79/71/65 8/34/65 96/36/65
f 94/64/66 88/72/66 12/73/66
f 95/68/67 112/74/67 94/64/67
f 96/36/68 113/75/68 95/68/68
f 94/64/69 112/74/69 88/72/69
f 112/74/70 89/76/70 88/72/70
f 95/68/71 113/75/71 112/74/71
f 113/75/72 114/77/72 112/74/72
f 112/74/73 114/77/73 89/76/73
f 114/77/74 90/78/74 89/76/74
f 96/36/75 78/35/75 113/75/75
f 78/35/76 77/79/76 113/75/76
f 113/75/77 77/79/77 114/77/77
f 77/79/78 76/80/78 114/77/78
f 114/77/79 76/80/79 90/78/79
f 76/81/80 7/31/80 90/33/80
f 88/82/81 93/46/81 12/83/81
f 89/84/82 115/85/82 88/82/82
f 90/33/83 116/86/83 89/84/83
f 88/82/84 115/85/84 93/46/84
f 115/85/85 92/49/85 93/46/85
f 89/84/86 116/86/86 115/85/86
f 116/86/87 117/87/87 115/85/87
f 115/85/88 117/87/88 92/49/88
f 117/87/89 91/45/89 92/49/89
f 90/33/90 75/32/90 116/86/90
f 75/32/91 74/88/91 116/86/91
f 116/86/92 74/88/92 117/87/92
f 74/88/93 73/89/93 117/87/93
f 117/87/94 73/89/94 91/45/94
f 73/89/95 11/43/95 91/45/95
f 48/90/96 87/44/96 11/43/96
f 47/91/97 118/92/97 48/90/97
f 46/30/98 119/93/98 47/91/98
f 48/90/99 118/92/99 87/44/99
f 118/92/100 86/54/100 87/44/100
f 47/91/101 119/93/101 118/92/101
f 119/93/102 120/94/102 118/92/102
f 118/92/103 120/94/103 86/54/103
f 120/94/104 85/55/104 86/54/104
f 46/30/105 69/25/105 119/93/105
f 69/25/106 68/95/106 119/93/106
f 119/93/107 68/95/107 120/94/107
f 68/95/108 67/96/108 120/94/108
f 120/94/109 67/96/109 85/55/109
f 67/96/110 10/40/110 85/55/110
f 72/97/111 84/41/111 10/40/111
f 71/98/112 121/99/112 72/97/112
f 70/29/113 122/100/113 71/98/113
f 72/97/114 121/99/114 84/41/114
f 121/99/115 83/62/115 84/41/115
f 71/98/116 122/100/116 121/99/116
f 122/100/117 123/101/117 121/99/117
f 121/99/118 123/101/118 83/62/118
f 123/101/119 82/63/119 83/62/119
f 70/29/120 63/22/120 122/100/120
f 63/22/121 62/102/121 122/100/121
f 122/100/122 62/102/122 123/101/122
f 62/102/123 61/103/123 123/101/123
f 123/101/124 61/103/124 82/63/124
f 61/103/125 9/37/125 82/63/125
f 66/104/126 81/38/126 9/37/126
f 65/105/127 124/106/127 66/104/127
f 64/28/128 125/107/128 65/105/128
f 66/104/129 124/106/129 81/38/129
f 124/106/130 80/70/130 81/38/130
f 65/105/131 125/107/131 124/106/131
f 125/107/132 126/108/132 124/106/132
f 124/106/133 126/108/133 80/70/133
f 126/108/134 79/71/134 80/70/134
f 64/28/135 57/19/135 125/107/135
f 57/19/136 56/109/136 125/107/136
f 125/107/137 56/109/137 126/108/137
f 56/109/138 55/110/138 126/108/138
f 126/108/139 55/110/139 79/71/139
f 55/110/140 8/34/140 79/71/140
f 60/111/141 78/35/141 8/34/141
f 59/112/142 127/113/142 60/111/142
f 58/27/143 128/114/143 59/112/143
f 60/111/144 127/113/144 78/35/144
f 127/113/145 77/79/145 78/35/145
f 59/112/146 128/114/146 127/113/146
f 128/114/147 129/115/147 127/113/147
f 127/113/148 129/115/148 77/79/148
f 129/115/149 76/80/149 77/79/149
f 58/27/150 51/16/150 128/114/150
f 51/16/151 50/116/151 128/114/151
f 128/114/152 50/116/152 129/115/152
f 50/116/153 49/117/153 129/115/153
f 129/115/154 49/117/154 76/80/154
f 49/118/155 7/31/155 76/81/155
f 54/119/156 75/32/156 7/31/156
f 53/120/157 130/121/157 54/119/157
f 52/26/158 131/122/158 53/120/158
f 54/119/159 130/121/159 75/32/159
f 130/121/160 74/88/160 75/32/160
f 53/120/161 131/122/161 130/121/161
f 131/122/162 132/123/162 130/121/162
f 130/121/163 132/123/163 74/88/163
f 132/123/164 73/89/164 74/88/164
f 52/26/165 45/13/165 131/122/165
f 45/13/166 44/124/166 131/122/166
f 131/122/167 44/124/167 132/123/167
f 44/124/168 43/125/168 132/123/168
f 132/123/169 43/125/169 73/89/169
f 43/125/170 11/43/170 73/89/170
f 67/96/171 72/97/171 10/40/171
f 68/95/172 133/126/172 67/96/172
f 69/25/173 134/127/173 68/95/173
f 67/96/174 133/126/174 72/97/174
f 133/126/175 71/98/175 72/97/175
f 68/95/176 134/127/176 133/126/176
f 134/127/177 135/128/177 133/126/177
f 133/126/178 135/128/178 71/98/178
f 135/128/179 70/29/179 71/98/179
f 69/25/180 42/24/180 134/127/180
f 42/24/181 41/129/181 134/127/181
f 134/127/182 41/129/182 135/128/182
f 41/129/183 40/130/183 135/128/183
f 135/128/184 40/130/184 70/29/184
f 40/130/185 5/20/185 70/29/185
f 61/103/186 66/104/186 9/37/186
f 62/102/187 136/131/187 61/103/187
f 63/22/188 137/132/188 62/102/188
f 61/103/189 136/131/189 66/104/189
f 136/131/190 65/105/190 66/104/190
f 62/102/191 137/132/191 136/131/191
f 137/132/192 138/133/192 136/131/192
f 136/131/193 138/133/193 65/105/193
f 138/133/194 64/28/194 65/105/194
f 63/22/195 39/21/195 137/132/195
f 39/21/196 38/134/196 137/132/196
f 137/132/197 38/134/197 138/133/197
f 38/134/198 37/135/198 138/133/198
f 138/133/199 37/135/199 64/28/199
f 37/135/200 4/17/200 64/28/200
f 55/110/201 60/111/201 8/34/201
f 56/109/202 139/136/202 55/110/202
f 57/19/203 140/137/203 56/109/203
f 55/110/204 139/136/204 60/111/204
f 139/136/205 59/112/205 60/111/205
f 56/109/206 140/137/206 139/136/206
f 140/137/207 141/138/207 139/136/207
f 139/136/208 141/138/208 59/112/208
f 141/138/209 58/27/209 59/112/209
f 57/19/210 33/18/210 140/137/210
f 33/18/211 32/139/211 140/137/211
f 140/137/212 32/139/212 141/138/212
f 32/139/213 31/140/213 141/138/213
f 141/138/214 31/140/214 58/27/214
f 31/140/215 3/14/215 58/27/215
f 49/118/216 54/119/216 7/31/216
f 50/141/217 142/142/217 49/118/217
f 51/16/218 143/143/218 50/116/218
f 49/118/219 142/142/219 54/119/219
f 142/142/220 53/120/220 54/119/220
f 50/141/221 143/144/221 142/142/221
f 143/144/222 144/145/222 142/142/222
f 142/142/223 144/145/223 53/120/223
f 144/145/224 52/26/224 53/120/224
f 51/16/225 21/15/225 143/143/225
f 21/15/226 20/146/226 143/143/226
f 143/144/227 20/147/227 144/145/227
f 20/147/228 19/148/228 144/145/228
f 144/145/229 19/148/229 52/26/229
f 19/148/230 2/4/230 52/26/230
f 43/125/231 48/90/231 11/43/231
f 44/124/232 145/149/232 43/125/232
f 45/13/233 146/150/233 44/124/233
f 43/125/234 145/149/234 48/90/234
f 145/149/235 47/91/235 48/90/235
f 44/124/236 146/150/236 145/149/236
f 146/150/237 147/151/237 145/149/237
f 145/149/238 147/151/238 47/91/238
f 147/151/239 46/30/239 47/91/239
f 45/13/240 24/6/240 146/150/240
f 24/6/241 23/152/241 146/150/241
f 146/150/242 23/152/242 147/151/242
f 23/152/243 22/153/243 147/151/243
f 147/151/244 22/153/244 46/30/244
f 22/153/245 6/23/245 46/30/245
f 27/154/246 42/24/246 6/23/246
f 26/155/247 148/156/247 27/154/247
f 25/12/248 149/157/248 26/155/248
f 27/154/249 148/156/249 42/24/249
f 148/156/250 41/129/250 42/24/250
f 26/155/251 149/157/251 148/156/251
f 149/157/252 150/158/252 148/156/252
f 148/156/253 150/158/253 41/129/253
f 150/158/254 40/130/254 41/129/254
f 25/12/255 36/10/255 149/157/255
f 36/10/256 35/159/256 149/157/256
f 149/157/257 35/159/257 150/158/257
f 35/159/258 34/160/258 150/158/258
f 150/158/259 34/160/259 40/130/259
f 34/160/260 5/20/260 40/130/260
f 34/160/261 39/21/261 5/20/261
f 35/159/262 151/161/262 34/160/262
f 36/10/263 152/162/263 35/159/263
f 34/160/264 151/161/264 39/21/264
f 151/161/265 38/134/265 39/21/265
f 35/159/266 152/162/266 151/161/266
f 152/162/267 153/163/267 151/161/267
f 151/161/268 153/163/268 38/134/268
f 153/163/269 37/135/269 38/134/269
f 36/10/270 30/8/270 152/162/270
f 30/8/271 29/164/271 152/162/271
f 152/162/272 29/164/272 153/163/272
f 29/164/273 28/165/273 153/163/273
f 153/163/274 28/165/274 37/135/274
f 28/165/275 4/17/275 37/135/275
f 28/165/276 33/18/276 4/17/276
f 29/164/277 154/166/277 28/165/277
f 30/8/278 155/167/278 29/164/278
f 28/165/279 154/166/279 33/18/279
f 154/166/280 32/139/280 33/18/280
f 29/164/281 155/167/281 154/166/281
f 155/167/282 156/168/282 154/166/282
f 154/166/283 156/168/283 32/139/283
f 156/168/284 31/140/284 32/139/284
f 30/8/285 15/3/285 155/167/285
f 15/3/286 14/169/286 155/167/286
f 155/167/287 14/169/287 156/168/287
f 14/169/288 13/170/288 156/168/288
f 156/168/289 13/170/289 31/140/289
f 13/170/290 3/14/290 31/140/290
f 22/153/291 27/154/291 6/23/291
f 23/152/292 157/171/292 22/153/292
f 24/6/293 158/172/293 23/152/293
f 22/153/294 157/171/294 27/154/294
f 157/171/295 26/155/295 27/154/295
f 23/152/296 158/172/296 157/171/296
f 158/172/297 159/173/297 157/171/297
f 157/171/298 159/173/298 26/155/298
f 159/173/299 25/12/299 26/155/299
f 24/6/300 18/5/300 158/172/300
f 18/5/301 17/174/301 158/172/301
f 158/172/302 17/174/302 159/173/302
f 17/174/303 16/175/303 159/173/303
f 159/173/304 16/175/304 25/12/304
f 16/175/305 1/176/305 25/12/305
f 13/170/306 21/15/306 3/14/306
f 14/169/307 160/177/307 13/170/307
f 15/3/308 161/178/308 14/169/308
f 13/170/309 160/177/309 21/15/309
f 160/177/310 20/146/310 21/15/310
f 14/169/311 161/178/311 160/177/311
f 161/179/312 162/180/312 160/181/312
f 160/181/313 162/180/313 20/147/313
f 162/180/314 19/148/314 20/147/314
f 15/3/315 16/2/315 161/178/315
f 16/175/316 17/174/316 161/179/316
f 161/179/317 17/174/317 162/180/317
f 17/174/318 18/5/318 162/180/318
f 162/180/319 18/5/319 19/148/319
f 18/5/320 2/4/320 19/148/320
