# Blender 5.2.1 LTS
# www.blender.org
mtllib rollingmachine_multiblock.mtl
o Hull
v 0.000000 -1.000000 0.000000
v 0.000000 0.000000 0.000000
v 1.000000 -1.000000 0.000000
v 1.000000 0.000000 0.000000
v 0.000000 -1.000000 1.000000
v 0.000000 0.000000 1.000000
v 1.000000 -1.000000 1.000000
v 1.000000 0.000000 1.000000
v 0.000000 0.000000 0.000000
v 0.500000 1.000000 -0.000000
v 1.000000 1.000000 -0.000000
v 1.000000 0.000000 0.000000
v 1.000000 1.000000 1.000000
v 1.000000 0.000000 1.000000
v 0.500000 1.000000 1.000000
v 0.000000 0.000000 1.000000
v 1.000000 0.000000 0.000000
v 1.000000 1.000000 -0.000000
v 3.000000 0.000000 0.000000
v 3.000000 1.000000 -0.000000
v 1.000000 0.000000 1.000000
v 1.000000 1.000000 1.000000
v 3.000000 0.000000 1.000000
v 3.000000 1.000000 1.000000
v 1.058036 -0.775000 2.185715
v 0.683036 -0.731066 2.291781
v 1.058036 -0.731066 2.079649
v 0.683036 -0.625000 2.335715
v 1.058036 -0.625000 2.035715
v 0.683036 -0.518934 2.291781
v 1.058036 -0.518934 2.079649
v 0.683036 -0.475000 2.185715
v 1.058036 -0.475000 2.185715
v 0.683036 -0.518934 2.079649
v 1.058036 -0.518934 2.291781
v 0.683036 -0.625000 2.035715
v 1.058036 -0.625000 2.335715
v 0.683036 -0.731066 2.079649
v 1.058036 -0.731066 2.291781
v 0.683036 -0.775000 2.185715
v 2.408036 0.000000 1.123214
v 2.408036 0.400000 1.123214
v 1.845536 0.000000 1.123215
v 1.845536 0.400000 1.123214
v 2.689286 0.000000 0.998214
v 2.689286 1.000000 0.998214
v 1.564286 0.000000 0.998215
v 1.564286 1.000000 0.998214
v 2.876786 -1.000000 3.373215
v 2.876786 0.000000 3.373214
v 1.626786 -1.000000 3.373215
v 1.626786 0.000000 3.373214
v 2.626786 -1.000000 3.373215
v 2.626786 0.000000 3.373214
v 2.876786 -1.000000 1.810714
v 2.876786 1.000000 1.810714
v 2.626786 -1.000000 1.810715
v 2.626786 1.000000 1.810714
v 1.376786 -1.000000 3.373215
v 1.376786 0.000000 3.373214
v 1.626786 -1.000000 1.810715
v 1.626786 1.000000 1.810714
v 1.376786 -1.000000 1.810715
v 1.376786 1.000000 1.810714
v 2.626786 1.000000 2.685714
v 2.876786 1.000000 2.685714
v 1.376786 1.000000 2.685714
v 1.626786 1.000000 2.685714
v 2.626786 -0.250000 1.998214
v 2.626786 0.000000 1.998214
v 2.439286 -0.250000 1.998214
v 2.439286 0.000000 1.998214
v 2.626786 -0.250000 0.998215
v 2.626786 0.000000 0.998214
v 2.439286 -0.250000 0.998215
v 2.439286 0.000000 0.998214
v 1.814286 -0.250000 1.998215
v 1.814286 0.000000 1.998214
v 1.626786 -0.250000 1.998215
v 1.626786 0.000000 1.998215
v 1.814286 -0.250000 0.998215
v 1.814286 0.000000 0.998215
v 1.626786 -0.250000 0.998215
v 1.626786 0.000000 0.998215
v 2.626786 -0.312500 1.998214
v 1.626786 -0.312500 1.998215
v 2.626786 -0.312500 0.998215
v 1.626786 -0.312500 0.998215
v 0.126168 -1.000000 1.492765
v 0.126168 -0.257228 1.492765
v 0.272615 -1.000000 1.139212
v 0.272615 -0.257229 1.139212
v 0.626168 -1.000000 0.992765
v 0.626168 -0.257229 0.992765
v 0.979722 -1.000000 1.139212
v 0.979722 -0.257229 1.139212
v 1.126168 -1.000000 1.492765
v 1.126168 -0.257228 1.492765
v 0.979722 -1.000000 1.846318
v 0.979722 -0.257228 1.846318
v 0.626168 -1.000000 1.992765
v 0.626168 -0.257228 1.992765
v 0.272615 -1.000000 1.846318
v 0.272615 -0.257228 1.846318
v 0.449391 -0.007229 1.315988
v 0.376168 -0.007228 1.492765
v 0.626168 -0.007229 1.242765
v 0.802945 -0.007228 1.315988
v 0.876168 -0.007228 1.492765
v 0.802945 -0.007228 1.669541
v 0.626168 -0.007228 1.742765
v 0.449392 -0.007228 1.669542
v 1.058036 -0.625000 2.785715
v 0.906528 -0.625000 2.787222
v 1.058036 -0.731066 2.829649
v 0.863036 -0.731066 2.830715
v 1.058036 -0.775000 2.935715
v 0.758036 -0.775000 2.935715
v 1.058036 -0.731066 3.041780
v 0.653036 -0.731066 3.040715
v 1.058036 -0.625000 3.085715
v 0.609543 -0.625000 3.084207
v 1.058036 -0.518934 3.041780
v 0.653036 -0.518934 3.040715
v 1.058036 -0.475000 2.935715
v 0.758036 -0.475000 2.935715
v 1.058036 -0.518934 2.829649
v 0.863036 -0.518934 2.830715
v 0.774647 -0.731066 2.742326
v 0.818140 -0.625000 2.698834
v 0.669648 -0.775000 2.847326
v 0.564648 -0.731066 2.952326
v 0.521155 -0.625000 2.995819
v 0.564648 -0.518934 2.952326
v 0.669648 -0.475000 2.847326
v 0.774647 -0.518934 2.742326
v 0.771102 -0.729460 1.803132
v 0.814281 -0.624455 1.803132
v 0.666861 -0.772955 1.803132
v 0.562619 -0.729460 1.803132
v 0.519441 -0.624455 1.803132
v 0.562619 -0.519450 1.803132
v 0.666861 -0.475955 1.803132
v 0.771102 -0.519450 1.803132
v 1.058036 -0.150000 2.560714
v 0.906528 -0.148492 2.560714
v 1.058036 -0.106066 2.454648
v 0.863036 -0.105000 2.454648
v 1.058036 0.000000 2.410715
v 0.758036 0.000000 2.410715
v 1.058036 0.106066 2.454648
v 0.653036 0.105000 2.454648
v 1.058036 0.150000 2.560714
v 0.609543 0.148493 2.560714
v 1.058036 0.106066 2.666780
v 0.653036 0.105000 2.666780
v 1.058036 0.000000 2.710715
v 0.758036 0.000000 2.710715
v 1.058036 -0.106066 2.666780
v 0.863036 -0.105000 2.666780
v 0.774647 -0.193388 2.454648
v 0.818140 -0.236881 2.560714
v 0.669647 -0.088388 2.410715
v 0.564647 0.016612 2.454648
v 0.521155 0.060104 2.560715
v 0.564647 0.016612 2.666780
v 0.669647 -0.088388 2.710715
v 0.774647 -0.193388 2.666780
v 0.771102 -0.632582 2.456254
v 0.814281 -0.632582 2.561260
v 0.666861 -0.632582 2.412760
v 0.562619 -0.632582 2.456254
v 0.519441 -0.632582 2.561260
v 0.562619 -0.632582 2.666265
v 0.666861 -0.632582 2.709760
v 0.771102 -0.632582 2.666265
v 1.380536 -0.985000 2.185715
v 1.204286 -0.985000 2.185715
v 1.380536 -0.879559 1.931156
v 1.204286 -0.879558 1.931156
v 1.380536 -0.625000 1.825715
v 1.204286 -0.625000 1.825715
v 1.380536 -0.370442 1.931156
v 1.204286 -0.370441 1.931156
v 1.380536 -0.265000 2.185715
v 1.204286 -0.265000 2.185715
v 1.380536 -0.370442 2.440273
v 1.204286 -0.370442 2.440273
v 1.380536 -0.625000 2.545715
v 1.204286 -0.625000 2.545715
v 1.380536 -0.879558 2.440273
v 1.204286 -0.879558 2.440273
v 1.207036 -0.949000 2.185715
v 1.146536 -0.949000 2.185715
v 1.207036 -0.854103 1.956612
v 1.146536 -0.854103 1.956612
v 1.207036 -0.625000 1.861715
v 1.146536 -0.625000 1.861715
v 1.207036 -0.395897 1.956612
v 1.146536 -0.395897 1.956612
v 1.207036 -0.301000 2.185715
v 1.146536 -0.301000 2.185715
v 1.207036 -0.395897 2.414817
v 1.146536 -0.395897 2.414817
v 1.207036 -0.625000 2.509715
v 1.146536 -0.625000 2.509715
v 1.207036 -0.854102 2.414817
v 1.146536 -0.854102 2.414817
v 1.144161 -0.884200 2.185715
v 1.059410 -0.806440 2.185715
v 1.144161 -0.808282 2.002433
v 1.059410 -0.753297 2.057417
v 1.144161 -0.625000 1.926515
v 1.059410 -0.625000 2.004275
v 1.144161 -0.441718 2.002433
v 1.059410 -0.496702 2.057417
v 1.144162 -0.365800 2.185715
v 1.059410 -0.443560 2.185715
v 1.144161 -0.441718 2.368997
v 1.059410 -0.496703 2.314012
v 1.144161 -0.625000 2.444915
v 1.059410 -0.625000 2.367155
v 1.144161 -0.808282 2.368997
v 1.059410 -0.753297 2.314012
v 1.380536 -0.985000 2.935715
v 1.204286 -0.985000 2.935715
v 1.380536 -0.879558 2.681156
v 1.204286 -0.879558 2.681156
v 1.380536 -0.625000 2.575715
v 1.204286 -0.625000 2.575715
v 1.380536 -0.370441 2.681156
v 1.204286 -0.370441 2.681156
v 1.380536 -0.265000 2.935715
v 1.204286 -0.265000 2.935715
v 1.380536 -0.370441 3.190273
v 1.204286 -0.370441 3.190273
v 1.380536 -0.625000 3.295715
v 1.204286 -0.625000 3.295715
v 1.380536 -0.879558 3.190273
v 1.204286 -0.879558 3.190273
v 1.207036 -0.949000 2.935715
v 1.146536 -0.949000 2.935715
v 1.207036 -0.854103 2.706612
v 1.146536 -0.854102 2.706612
v 1.207036 -0.625000 2.611715
v 1.146536 -0.625000 2.611715
v 1.207036 -0.395897 2.706612
v 1.146536 -0.395897 2.706612
v 1.207036 -0.301000 2.935715
v 1.146536 -0.301000 2.935715
v 1.207036 -0.395897 3.164817
v 1.146536 -0.395897 3.164817
v 1.207036 -0.625000 3.259715
v 1.146536 -0.625000 3.259715
v 1.207036 -0.854102 3.164817
v 1.146536 -0.854102 3.164817
v 1.144161 -0.884200 2.935715
v 1.059410 -0.806440 2.935715
v 1.144161 -0.808282 2.752433
v 1.059410 -0.753297 2.807417
v 1.144161 -0.625000 2.676515
v 1.059410 -0.625000 2.754275
v 1.144161 -0.441718 2.752433
v 1.059410 -0.496702 2.807417
v 1.144162 -0.365800 2.935715
v 1.059410 -0.443560 2.935715
v 1.144161 -0.441718 3.118997
v 1.059410 -0.496702 3.064012
v 1.144161 -0.625000 3.194915
v 1.059410 -0.625000 3.117155
v 1.144161 -0.808282 3.118997
v 1.059410 -0.753297 3.064012
v 1.380536 -0.360000 2.560715
v 1.204286 -0.360000 2.560715
v 1.380536 -0.254558 2.306156
v 1.204286 -0.254558 2.306156
v 1.380536 0.000000 2.200715
v 1.204286 0.000000 2.200715
v 1.380536 0.254558 2.306156
v 1.204286 0.254559 2.306156
v 1.380536 0.360000 2.560714
v 1.204286 0.360000 2.560714
v 1.380536 0.254559 2.815273
v 1.204286 0.254559 2.815273
v 1.380536 0.000000 2.920715
v 1.204286 0.000000 2.920715
v 1.380536 -0.254558 2.815273
v 1.204286 -0.254558 2.815273
v 1.207036 -0.324000 2.560715
v 1.146536 -0.324000 2.560715
v 1.207036 -0.229103 2.331612
v 1.146536 -0.229102 2.331612
v 1.207036 0.000000 2.236715
v 1.146536 0.000000 2.236715
v 1.207036 0.229103 2.331612
v 1.146536 0.229103 2.331612
v 1.207036 0.324000 2.560714
v 1.146536 0.324000 2.560714
v 1.207036 0.229103 2.789817
v 1.146536 0.229103 2.789817
v 1.207036 0.000000 2.884715
v 1.146536 0.000000 2.884715
v 1.207036 -0.229102 2.789817
v 1.146536 -0.229102 2.789817
v 1.144161 -0.259200 2.560715
v 1.059410 -0.181440 2.560715
v 1.144161 -0.183282 2.377433
v 1.059410 -0.128297 2.432417
v 1.144161 0.000000 2.301515
v 1.059410 0.000000 2.379275
v 1.144161 0.183282 2.377433
v 1.059410 0.128298 2.432417
v 1.144162 0.259200 2.560714
v 1.059410 0.181440 2.560714
v 1.144161 0.183282 2.743997
v 1.059410 0.128298 2.689012
v 1.144161 0.000000 2.819915
v 1.059410 0.000000 2.742155
v 1.144161 -0.183282 2.743997
v 1.059410 -0.128297 2.689012
v 2.876786 -1.000000 3.998214
v 2.876786 0.000000 3.998214
v 1.001786 -1.000000 3.998214
v 1.001786 0.000000 3.998214
v 2.876786 -1.000000 3.373215
v 2.876786 0.000000 3.373214
v 1.001786 -1.000000 3.373215
v 1.001786 0.000000 3.373214
vn -0.0000 -0.0000 -1.0000
vn 1.0000 -0.0000 -0.0000
vn -0.0000 -0.0000 1.0000
vn -1.0000 -0.0000 -0.0000
vn -0.0000 -1.0000 -0.0000
vn -0.8944 0.4472 -0.0000
vn -0.0000 1.0000 -0.0000
vn -0.0000 0.3827 -0.9239
vn -0.0000 -0.9239 0.3827
vn -0.0000 0.9239 0.3827
vn -0.0000 -0.3827 -0.9239
vn -0.0000 -0.3827 0.9239
vn -0.0000 0.9239 -0.3827
vn -0.0000 -0.9239 -0.3827
vn -0.0000 0.3827 0.9239
vn -0.4061 -0.0000 0.9138
vn 0.4061 -0.0000 0.9138
vn -0.0000 0.2040 0.9790
vn -0.9239 -0.0000 -0.3827
vn -0.3827 -0.0000 -0.9239
vn 0.3827 -0.0000 -0.9239
vn 0.9239 -0.0000 -0.3827
vn 0.9239 -0.0000 0.3827
vn 0.3827 -0.0000 0.9239
vn -0.2811 0.6786 -0.6786
vn -0.9239 -0.0000 0.3827
vn -0.3827 -0.0000 0.9239
vn 0.6786 0.6786 0.2811
vn -0.6786 0.6786 0.2811
vn -0.6786 0.6786 -0.2811
vn 0.2811 0.6786 -0.6786
vn 0.2811 0.6786 0.6786
vn 0.6786 0.6786 -0.2811
vn -0.2811 0.6786 0.6786
vn -0.0051 -0.3776 -0.9259
vn -0.0000 -0.9225 -0.3860
vn -0.0010 -0.9229 0.3851
vn -0.0031 -0.3805 0.9248
vn -0.0029 0.3810 0.9246
vn -0.0024 0.3827 0.9239
vn -0.0026 0.3822 0.9241
vn -0.0008 0.9231 0.3846
vn -0.0002 0.9236 0.3833
vn -0.2006 -0.9589 0.2006
vn -0.0054 0.3780 -0.9258
vn -0.0092 0.3827 -0.9238
vn -0.0086 0.3820 -0.9241
vn -0.0003 0.9227 -0.3856
vn -0.0021 0.9239 -0.3827
vn -0.0017 0.9236 -0.3834
vn 0.3851 0.9229 -0.0020
vn -0.2006 0.9589 0.2006
vn -0.6117 -0.5017 0.6117
vn 0.2006 0.9589 -0.2006
vn 0.2006 -0.9589 -0.2006
vn -0.6117 0.5017 0.6117
vn 0.6117 0.5017 -0.6117
vn 0.6117 -0.5017 -0.6117
vn -0.9249 0.3803 0.0015
vn -0.3862 -0.9224 -0.0007
vn -0.3851 -0.9229 -0.0008
vn -0.3855 -0.9227 -0.0007
vn 0.9248 -0.3804 -0.0042
vn 0.9249 -0.3803 -0.0042
vn 0.9246 -0.3808 -0.0041
vn 0.9249 0.3803 -0.0038
vn -0.3851 0.9229 0.0002
vn -0.9250 -0.3800 0.0012
vn -0.9249 -0.3803 0.0011
vn -0.9249 -0.3801 0.0011
vn 0.3841 -0.9233 -0.0029
vn 0.3851 -0.9229 -0.0030
vn 0.3847 -0.9230 -0.0029
vn -0.0000 0.5665 0.8240
vn -0.0087 -0.9241 -0.3820
vn -0.0051 -0.9260 -0.3776
vn -0.0054 -0.9258 -0.3780
vn -0.0017 -0.3834 -0.9236
vn -0.0000 -0.3860 -0.9225
vn -0.0003 -0.3855 -0.9227
vn -0.0002 0.3833 -0.9236
vn -0.0010 0.3851 -0.9229
vn -0.0008 0.3846 -0.9231
vn -0.0026 0.9241 -0.3821
vn -0.0031 0.9248 -0.3805
vn -0.0029 0.9246 -0.3810
vn -0.0031 0.9248 0.3805
vn -0.0010 0.3851 0.9229
vn -0.2006 0.2006 -0.9589
vn -0.0051 -0.9260 0.3776
vn -0.0000 -0.3860 0.9225
vn 0.3845 -0.0041 0.9231
vn 0.3829 -0.0036 0.9238
vn 0.3834 -0.0038 0.9236
vn -0.2006 0.2006 0.9589
vn -0.6117 0.6117 -0.5017
vn -0.6117 0.6117 -0.5016
vn 0.2006 -0.2006 0.9589
vn 0.2006 -0.2006 -0.9589
vn -0.6117 0.6117 0.5017
vn 0.6117 -0.6117 0.5017
vn 0.6117 -0.6117 -0.5017
vn -0.9249 0.0026 0.3803
vn -0.3851 -0.0015 -0.9229
vn 0.9248 -0.0095 -0.3803
vn 0.9246 -0.0084 0.3807
vn 0.9241 -0.0079 0.3822
vn 0.9243 -0.0081 0.3817
vn -0.3855 0.0005 0.9227
vn -0.3856 0.0005 0.9227
vn -0.3854 0.0005 0.9227
vn -0.9249 0.0019 -0.3803
vn 0.3851 -0.0065 -0.9229
vn -0.6466 -0.7047 -0.2919
vn -0.6466 -0.2919 -0.7048
vn -0.6466 0.2919 -0.7048
vn -0.6466 0.7048 -0.2919
vn -0.6466 0.7048 0.2919
vn -0.6466 0.7047 0.2919
vn -0.6466 0.2919 0.7047
vn -0.6466 -0.7047 0.2919
vn -0.6466 -0.2919 0.7047
vn -0.0092 -0.3827 -0.9238
vn -0.0021 -0.9239 -0.3827
vn -0.0024 -0.3827 0.9239
vn -0.0031 0.3805 0.9248
vn -0.0010 0.9229 0.3851
vn -0.0051 0.3776 -0.9259
vn -0.0000 0.9225 -0.3860
vn 0.3844 0.9232 -0.0019
vn -0.9250 0.3799 0.0015
vn -0.3865 -0.9223 -0.0006
vn 0.9247 0.3807 -0.0037
vn -0.3858 0.9226 0.0003
vn -0.9251 -0.3798 0.0012
vn 0.3836 -0.9235 -0.0028
vn -0.0092 -0.9238 -0.3827
vn -0.0021 -0.3827 -0.9239
vn -0.0024 0.9239 -0.3827
vn -0.0024 0.9239 0.3827
vn -0.0092 -0.9238 0.3827
vn -0.0021 -0.3827 0.9239
vn 0.3851 -0.0042 0.9229
vn -0.3869 -0.0011 -0.9221
vn 0.9239 -0.0089 -0.3825
vn 0.9248 -0.0085 0.3803
vn -0.3851 0.0004 0.9229
vn -0.9249 0.0020 -0.3801
vn 0.3814 -0.0054 -0.9244
vn -0.6466 0.2919 -0.7047
vn -0.6466 -0.7048 -0.2919
vt 0.757812 0.578125
vt 0.757812 0.441406
vt 0.890625 0.441406
vt 0.757812 0.523438
vt 0.667969 0.523438
vt 0.757812 0.574219
vt 0.757812 0.605469
vt 0.824219 0.710938
vt 0.757812 0.710938
vt 0.890625 0.578125
vt 0.125000 0.664062
vt 0.000000 0.664062
vt 0.000000 0.527344
vt 0.621094 0.226562
vt 0.621094 0.292969
vt 0.574219 0.292969
vt 0.750000 0.355469
vt 0.750000 0.292969
vt 0.757812 0.687500
vt 0.667969 0.687500
vt 0.667969 0.605469
vt 0.621094 0.164062
vt 0.750000 0.164062
vt 0.750000 0.421875
vt 0.621094 0.421875
vt 0.750000 0.226562
vt 0.503906 0.976562
vt 0.484375 0.976562
vt 0.484375 0.933594
vt 0.546875 0.976562
vt 0.531250 0.976562
vt 0.531250 0.933594
vt 0.593750 0.976562
vt 0.578125 0.976562
vt 0.578125 0.933594
vt 0.515625 0.976562
vt 0.503906 0.933594
vt 0.558594 0.976562
vt 0.546875 0.933594
vt 0.468750 0.976562
vt 0.515625 0.933594
vt 0.558594 0.933594
vt 0.941406 0.207031
vt 0.894531 0.207031
vt 0.894531 0.140625
vt 0.820312 0.402344
vt 0.765625 0.429688
vt 0.820312 0.335938
vt 0.777344 0.343750
vt 0.765625 0.308594
vt 0.777344 0.394531
vt 0.343750 0.238281
vt 0.421875 0.128906
vt 0.519531 0.351562
vt 0.898438 0.906250
vt 0.671875 0.906250
vt 0.671875 0.878906
vt 0.414062 0.117188
vt 0.335938 0.230469
vt 0.238281 0.000000
vt 0.898438 0.933594
vt 0.671875 0.933594
vt 1.000000 0.906250
vt 1.000000 0.933594
vt 0.898438 0.878906
vt 1.000000 0.878906
vt 0.417969 0.632812
vt 0.445312 0.632812
vt 0.445312 0.656250
vt 0.238281 0.957031
vt 0.125000 0.957031
vt 0.125000 0.929688
vt 0.468750 0.957031
vt 0.468750 0.984375
vt 0.351562 0.984375
vt 0.351562 0.933594
vt 0.468750 0.933594
vt 0.417969 0.609375
vt 0.445312 0.609375
vt 0.238281 0.964844
vt 0.238281 0.933594
vt 0.238281 0.984375
vt 0.351562 0.964844
vt 0.113281 0.230469
vt 0.000000 0.230469
vt 0.000000 0.113281
vt 0.000000 0.492188
vt 0.070312 0.492188
vt 0.000000 0.453125
vt 0.070312 0.453125
vt 0.000000 0.417969
vt 0.070312 0.417969
vt 0.000000 0.378906
vt 0.070312 0.378906
vt 0.000000 0.339844
vt 0.070312 0.339844
vt 0.000000 0.304688
vt 0.070312 0.304688
vt 1.000000 0.105469
vt 0.960938 0.093750
vt 0.960938 0.070312
vt 0.000000 0.265625
vt 0.070312 0.230469
vt 0.070312 0.265625
vt 1.000000 0.730469
vt 0.894531 0.777344
vt 0.925781 0.703125
vt 0.964844 0.808594
vt 0.984375 0.808594
vt 0.984375 0.863281
vt 0.878906 0.058594
vt 0.914062 0.023438
vt 0.925781 0.058594
vt 0.914062 0.140625
vt 0.925781 0.105469
vt 0.949219 0.105469
vt 0.960938 0.140625
vt 0.960938 0.023438
vt 1.000000 0.058594
vt 0.914062 0.070312
vt 0.914062 0.093750
vt 0.949219 0.058594
vt 0.878906 0.105469
vt 0.535156 0.933594
vt 0.535156 0.957031
vt 0.519531 0.953125
vt 0.546875 0.968750
vt 0.558594 0.980469
vt 0.574219 0.933594
vt 0.574219 0.988281
vt 0.480469 0.933594
vt 0.480469 0.980469
vt 0.496094 0.933594
vt 0.496094 0.968750
vt 0.222656 0.996094
vt 0.207031 0.996094
vt 0.207031 0.984375
vt 0.507812 0.933594
vt 0.519531 0.933594
vt 0.507812 0.957031
vt 0.648438 0.769531
vt 0.648438 0.878906
vt 0.632812 0.878906
vt 0.140625 0.996094
vt 0.125000 0.996094
vt 0.125000 0.984375
vt 0.238281 0.996094
vt 0.160156 0.996094
vt 0.140625 0.984375
vt 0.187500 0.996094
vt 0.187500 0.984375
vt 0.109375 0.996094
vt 0.109375 0.984375
vt 0.171875 0.984375
vt 0.171875 0.996094
vt 0.621094 0.746094
vt 0.621094 0.878906
vt 0.609375 0.878906
vt 0.699219 0.878906
vt 0.687500 0.878906
vt 0.687500 0.757812
vt 0.660156 0.878906
vt 0.660156 0.777344
vt 0.632812 0.757812
vt 0.710938 0.878906
vt 0.699219 0.746094
vt 0.671875 0.769531
vt 0.375000 0.878906
vt 0.492188 0.878906
vt 0.492188 0.906250
vt 0.597656 0.425781
vt 0.500000 0.656250
vt 0.421875 0.542969
vt 0.238281 0.906250
vt 0.238281 0.878906
vt 0.375000 0.906250
vt 0.492188 0.933594
vt 0.417969 0.425781
vt 0.316406 0.656250
vt 0.242188 0.542969
vt 0.375000 0.933594
vt 0.121094 0.230469
vt 0.113281 0.113281
vt 0.121094 0.343750
vt 0.113281 0.343750
vt 0.121094 0.113281
vt 0.113281 0.000000
vt 0.238281 0.113281
vt 0.238281 0.230469
vt 0.628906 0.953125
vt 0.613281 0.957031
vt 0.613281 0.933594
vt 0.601562 0.968750
vt 0.601562 0.933594
vt 0.589844 0.980469
vt 0.589844 0.933594
vt 0.679688 0.933594
vt 0.679688 0.988281
vt 0.667969 0.980469
vt 0.667969 0.933594
vt 0.652344 0.968750
vt 0.269531 0.984375
vt 0.269531 0.996094
vt 0.250000 0.996094
vt 0.640625 0.933594
vt 0.640625 0.957031
vt 0.652344 0.933594
vt 0.710938 0.968750
vt 0.699219 0.972656
vt 0.699219 0.933594
vt 0.351562 0.996094
vt 0.332031 0.996094
vt 0.250000 0.984375
vt 0.332031 0.984375
vt 0.316406 0.996094
vt 0.289062 0.984375
vt 0.289062 0.996094
vt 0.363281 0.984375
vt 0.363281 0.996094
vt 0.316406 0.984375
vt 0.300781 0.996094
vt 0.300781 0.984375
vt 0.687500 0.984375
vt 0.742188 0.972656
vt 0.742188 0.933594
vt 0.753906 0.933594
vt 0.722656 0.960938
vt 0.722656 0.933594
vt 0.730469 0.933594
vt 0.710938 0.933594
vt 0.691406 0.933594
vt 0.753906 0.984375
vt 0.761719 0.933594
vt 0.730469 0.968750
vt 0.976562 0.656250
vt 0.976562 0.703125
vt 0.949219 0.703125
vt 0.949219 0.515625
vt 0.949219 0.562500
vt 0.917969 0.562500
vt 0.949219 0.609375
vt 0.917969 0.609375
vt 0.949219 0.656250
vt 0.917969 0.656250
vt 0.917969 0.703125
vt 0.976562 0.515625
vt 0.976562 0.562500
vt 0.964844 0.207031
vt 0.917969 0.320312
vt 0.886719 0.242188
vt 0.976562 0.609375
vt 1.000000 0.640625
vt 1.000000 0.683594
vt 0.988281 0.683594
vt 0.988281 0.515625
vt 0.988281 0.558594
vt 0.976562 0.558594
vt 0.988281 0.601562
vt 0.976562 0.601562
vt 0.988281 0.640625
vt 0.976562 0.640625
vt 1.000000 0.515625
vt 1.000000 0.558594
vt 0.972656 0.421875
vt 0.898438 0.390625
vt 0.898438 0.347656
vt 1.000000 0.601562
vt 0.937500 0.515625
vt 0.945312 0.496094
vt 0.964844 0.496094
vt 0.980469 0.480469
vt 1.000000 0.488281
vt 0.980469 0.457031
vt 1.000000 0.449219
vt 0.964844 0.441406
vt 0.945312 0.441406
vt 0.937500 0.421875
vt 0.929688 0.457031
vt 1.000000 0.187500
vt 0.960938 0.203125
vt 0.945312 0.164062
vt 0.910156 0.488281
vt 0.929688 0.480469
vt 1.000000 0.289062
vt 0.886719 0.289062
vt 0.976562 0.683594
vt 0.972656 0.515625
vt 0.910156 0.449219
vt 0.925781 0.320312
vt 0.984375 0.203125
vt 0.421875 0.800781
vt 0.308594 0.800781
vt 0.308594 0.656250
vt 0.496094 0.800781
vt 0.609375 0.800781
vt 0.609375 0.875000
vt 0.496094 0.656250
vt 0.609375 0.656250
vt 0.421875 0.875000
vt 0.234375 0.800781
vt 0.234375 0.656250
vt 0.421875 0.656250
vt 0.667969 0.441406
vt 0.890625 0.574219
vt 0.890625 0.710938
vt 0.125000 0.527344
vt 0.574219 0.226562
vt 0.621094 0.355469
vt 0.593750 0.933594
vt 0.941406 0.140625
vt 0.890625 0.292969
vt 0.343750 0.351562
vt 0.519531 0.128906
vt 0.414062 0.000000
vt 0.417969 0.656250
vt 0.238281 0.929688
vt 0.351562 0.957031
vt 0.070312 0.527344
vt 1.000000 0.777344
vt 0.968750 0.808594
vt 0.968750 0.703125
vt 0.894531 0.730469
vt 0.925781 0.808594
vt 0.949219 0.847656
vt 0.949219 0.824219
vt 0.964844 0.863281
vt 1.000000 0.824219
vt 1.000000 0.847656
vt 0.468750 0.988281
vt 0.222656 0.984375
vt 0.160156 0.984375
vt 0.609375 0.742188
vt 0.710938 0.742188
vt 0.597656 0.656250
vt 0.421875 0.425781
vt 0.242188 0.425781
vt 0.121094 0.000000
vt 0.628906 0.933594
vt 0.761719 0.988281
vt 0.917969 0.515625
vt 1.000000 0.242188
vt 0.917969 0.207031
vt 0.964844 0.320312
vt 1.000000 0.347656
vt 1.000000 0.390625
vt 0.972656 0.320312
vt 0.925781 0.421875
vt 0.984375 0.148438
vt 1.000000 0.164062
vt 0.960938 0.148438
vt 0.945312 0.187500
vt 0.496094 0.875000
vt 0.308594 0.875000
s 1
usemtl Material
f 4/1/1 3/2/1 1/3/1
f 8/2/2 7/4/2 3/5/2
f 6/1/3 5/2/3 7/3/3
f 2/6/4 1/2/4 5/3/4
f 3/5/5 7/4/5 5/7/5
f 10/8/1 11/9/1 12/1/1
f 15/8/3 16/1/3 14/10/3
f 15/11/6 10/12/6 9/13/6
f 13/14/7 11/15/7 10/16/7
f 20/17/1 19/18/1 17/15/1
f 24/19/2 23/20/2 19/21/2
f 22/14/3 21/22/3 23/23/3
f 19/17/5 23/24/5 21/25/5
f 24/26/7 20/18/7 18/15/7
f 36/27/8 34/28/8 31/29/8
f 26/30/9 40/31/9 25/32/9
f 32/33/10 30/34/10 35/35/10
f 38/36/11 36/27/11 29/37/11
f 28/38/12 26/30/12 39/39/12
f 31/29/13 34/28/13 32/40/13
f 40/31/14 38/36/14 27/41/14
f 30/34/15 28/38/15 37/42/15
f 44/43/3 43/44/3 41/45/3
f 44/46/16 48/3/16 47/47/16
f 42/48/17 41/49/17 45/50/17
f 43/51/5 47/47/5 45/50/5
f 48/3/18 44/46/18 42/48/18
f 54/52/4 65/53/4 57/54/4
f 56/55/1 55/56/1 57/57/1
f 60/58/4 67/59/4 63/60/4
f 62/61/1 61/62/1 63/56/1
f 64/55/7 67/63/7 68/64/7
f 58/65/7 65/66/7 66/63/7
f 72/67/3 71/68/3 69/69/3
f 72/70/4 76/71/4 75/72/4
f 70/73/2 69/74/2 73/75/2
f 76/76/7 72/77/7 70/73/7
f 80/78/3 79/79/3 77/68/3
f 84/80/4 83/81/4 79/76/4
f 82/71/2 78/70/2 77/82/2
f 84/80/7 80/83/7 78/75/7
f 86/84/5 88/85/5 87/86/5
f 90/13/19 92/87/19 91/88/19
f 92/87/20 94/89/20 93/90/20
f 94/89/21 96/91/21 95/92/21
f 96/91/22 98/93/22 97/94/22
f 98/93/23 100/95/23 99/96/23
f 100/95/24 102/97/24 101/98/24
f 92/99/25 105/100/25 107/101/25
f 104/102/26 90/85/26 89/103/26
f 102/97/27 104/102/27 103/104/27
f 101/105/5 93/106/5 97/107/5
f 105/108/7 106/109/7 110/110/7
f 100/111/28 98/112/28 109/113/28
f 104/114/29 112/115/29 106/116/29
f 90/117/30 106/116/30 105/100/30
f 96/118/31 94/119/31 107/101/31
f 100/111/32 110/120/32 111/121/32
f 96/118/33 108/122/33 109/113/33
f 102/123/34 111/121/34 112/115/34
f 115/124/35 116/125/35 114/126/35
f 117/39/36 118/127/36 116/125/36
f 119/42/37 120/128/37 118/127/37
f 121/129/38 122/130/38 120/128/38
f 121/77/39 123/131/40 124/132/41
f 123/131/42 125/133/10 126/134/43
f 132/135/44 131/136/44 118/137/44
f 127/138/45 113/139/46 114/126/47
f 125/133/48 127/138/49 128/140/50
f 136/141/51 144/142/51 143/143/51
f 135/144/52 134/145/52 124/146/52
f 122/82/53 133/147/53 132/135/53
f 136/148/54 135/144/54 126/149/54
f 131/136/55 129/150/55 116/151/55
f 134/145/56 133/152/56 122/153/56
f 114/154/57 130/155/57 136/148/57
f 116/151/58 129/150/58 130/155/58
f 134/156/59 142/157/59 141/158/59
f 140/159/60 139/160/61 131/161/62
f 137/57/63 138/162/64 130/163/65
f 130/163/66 138/162/66 144/142/66
f 135/164/67 143/143/67 142/157/67
f 141/165/68 140/159/69 132/166/70
f 139/160/71 137/57/72 129/167/73
f 54/168/3 53/169/3 49/170/3
f 55/171/2 66/172/2 50/173/2
f 49/170/5 53/169/5 57/57/5
f 66/174/74 65/175/74 54/168/74
f 60/176/3 59/170/3 51/177/3
f 61/178/2 68/179/2 52/180/2
f 59/170/5 63/56/5 61/62/5
f 67/174/74 60/176/74 52/181/74
f 79/182/3 86/84/3 85/183/3
f 83/184/4 88/185/4 86/84/4
f 69/186/2 85/183/2 87/187/2
f 73/188/7 83/189/7 79/182/7
f 146/190/75 148/191/76 147/192/77
f 148/191/78 150/193/79 149/194/80
f 150/193/81 152/195/82 151/196/83
f 152/195/84 154/130/85 153/129/86
f 153/197/87 154/198/87 156/199/87
f 155/200/88 156/199/88 158/201/88
f 150/202/89 163/203/89 164/204/89
f 159/205/90 160/206/90 146/190/90
f 157/207/91 158/201/91 160/206/91
f 168/208/92 167/209/93 175/210/94
f 156/75/95 166/211/95 167/212/95
f 152/213/96 164/204/97 165/147/96
f 158/214/98 167/212/98 168/215/98
f 148/216/99 161/217/99 163/203/99
f 156/75/100 154/218/100 165/219/100
f 160/220/101 168/215/101 162/221/101
f 146/222/102 162/221/102 161/217/102
f 166/223/103 165/198/103 173/197/103
f 163/224/104 171/225/104 172/226/104
f 162/227/105 170/228/105 169/229/105
f 162/227/106 168/208/107 176/230/108
f 167/209/109 166/223/110 174/231/111
f 164/232/112 172/226/112 173/233/112
f 161/234/113 169/229/113 171/225/113
f 178/235/14 180/236/14 179/237/14
f 180/238/11 182/239/11 181/240/11
f 182/239/8 184/241/8 183/242/8
f 184/241/13 186/243/13 185/244/13
f 186/243/10 188/237/10 187/245/10
f 188/246/15 190/247/15 189/239/15
f 184/248/4 192/249/4 188/250/4
f 192/251/9 178/235/9 177/243/9
f 189/239/12 190/247/12 192/251/12
f 194/252/14 196/253/14 195/254/14
f 196/255/11 198/256/11 197/257/11
f 198/256/8 200/258/8 199/259/8
f 200/258/13 202/260/13 201/261/13
f 201/261/10 202/260/10 204/254/10
f 203/255/15 204/262/15 206/263/15
f 196/264/4 208/265/4 206/266/4
f 207/258/9 208/267/9 194/252/9
f 206/263/12 208/267/12 207/258/12
f 209/268/114 210/269/114 212/270/114
f 212/270/115 214/271/115 213/272/115
f 214/271/116 216/273/116 215/274/116
f 215/274/117 216/273/117 218/275/117
f 218/275/118 220/276/119 219/277/119
f 219/277/120 220/276/120 222/278/120
f 212/279/4 224/280/4 220/281/4
f 223/282/121 224/283/121 210/269/121
f 222/278/122 224/283/122 223/282/122
f 226/235/14 228/236/14 227/237/14
f 228/238/11 230/239/11 229/240/11
f 230/239/8 232/241/8 231/242/8
f 231/242/13 232/241/13 234/243/13
f 234/243/10 236/237/10 235/245/10
f 235/238/15 236/246/15 238/247/15
f 228/284/4 240/249/4 238/285/4
f 240/251/9 226/235/9 225/243/9
f 237/239/12 238/247/12 240/251/12
f 242/252/14 244/253/14 243/254/14
f 244/255/11 246/256/11 245/257/11
f 246/256/8 248/258/8 247/259/8
f 248/258/13 250/260/13 249/261/13
f 250/260/10 252/254/10 251/286/10
f 251/255/15 252/262/15 254/263/15
f 244/264/4 256/265/4 254/266/4
f 255/258/9 256/267/9 242/252/9
f 253/256/12 254/263/12 256/267/12
f 258/269/114 260/270/114 259/287/114
f 259/287/115 260/270/115 262/271/115
f 262/271/116 264/273/116 263/274/116
f 263/274/117 264/273/117 266/275/117
f 266/275/118 268/276/118 267/277/118
f 268/276/120 270/278/120 269/288/120
f 260/279/4 272/280/4 268/281/4
f 271/282/121 272/283/121 258/269/121
f 270/278/122 272/283/122 271/282/122
f 274/235/14 276/236/14 275/237/14
f 276/238/11 278/239/11 277/240/11
f 278/239/8 280/241/8 279/242/8
f 279/242/13 280/241/13 282/243/13
f 282/243/10 284/237/10 283/245/10
f 283/238/15 284/246/15 286/247/15
f 276/284/4 288/249/4 284/250/4
f 288/251/9 274/235/9 273/243/9
f 286/247/12 288/251/12 287/241/12
f 290/252/14 292/253/14 291/254/14
f 292/255/11 294/256/11 293/257/11
f 294/256/8 296/258/8 295/259/8
f 296/258/13 298/260/13 297/261/13
f 298/260/10 300/254/10 299/286/10
f 300/262/15 302/263/15 301/256/15
f 292/264/4 304/265/4 300/289/4
f 304/267/9 290/252/9 289/260/9
f 302/263/12 304/267/12 303/258/12
f 306/269/114 308/270/114 307/287/114
f 308/270/115 310/271/115 309/272/115
f 310/271/116 312/273/116 311/274/116
f 311/274/117 312/273/117 314/275/117
f 314/275/118 316/276/118 315/277/118
f 316/276/120 318/278/120 317/288/120
f 308/279/4 306/290/4 316/281/4
f 320/283/121 306/269/121 305/268/121
f 317/288/122 318/278/122 320/283/122
f 324/291/3 323/292/3 321/293/3
f 328/294/4 327/295/4 323/296/4
f 328/294/1 326/297/1 325/298/1
f 322/292/2 321/291/2 325/299/2
f 323/292/5 327/300/5 325/301/5
f 328/294/7 324/291/7 322/302/7
f 2/10/1 4/1/1 1/3/1
f 4/303/2 8/2/2 3/5/2
f 8/10/3 6/1/3 7/3/3
f 6/304/4 2/6/4 5/3/4
f 1/21/5 3/5/5 5/7/5
f 9/10/1 10/8/1 12/1/1
f 13/305/3 15/8/3 14/10/3
f 16/306/6 15/11/6 9/13/6
f 15/307/7 13/14/7 10/16/7
f 18/308/1 20/17/1 17/15/1
f 20/7/2 24/19/2 19/21/2
f 24/26/3 22/14/3 23/23/3
f 17/308/5 19/17/5 21/25/5
f 22/14/7 24/26/7 18/15/7
f 29/37/8 36/27/8 31/29/8
f 39/39/9 26/30/9 25/32/9
f 33/309/10 32/33/10 35/35/10
f 27/41/11 38/36/11 29/37/11
f 37/42/12 28/38/12 39/39/12
f 33/77/13 31/29/13 32/40/13
f 25/32/14 40/31/14 27/41/14
f 35/35/15 30/34/15 37/42/15
f 42/310/3 44/43/3 41/45/3
f 43/51/16 44/46/16 47/47/16
f 46/311/17 42/48/17 45/50/17
f 41/49/5 43/51/5 45/50/5
f 46/311/18 48/3/18 42/48/18
f 57/54/4 53/312/4 54/52/4
f 65/53/4 58/313/4 57/54/4
f 58/65/1 56/55/1 57/57/1
f 63/60/4 59/314/4 60/58/4
f 67/59/4 64/189/4 63/60/4
f 64/55/1 62/61/1 63/56/1
f 62/61/7 64/55/7 68/64/7
f 56/55/7 58/65/7 66/63/7
f 70/315/3 72/67/3 69/69/3
f 71/316/4 72/70/4 75/72/4
f 74/317/2 70/73/2 73/75/2
f 74/317/7 76/76/7 70/73/7
f 78/67/3 80/78/3 77/68/3
f 80/83/4 84/80/4 79/76/4
f 81/146/2 82/71/2 77/82/2
f 82/82/7 84/80/7 78/75/7
f 85/183/5 86/84/5 87/86/5
f 89/318/19 90/13/19 91/88/19
f 91/88/20 92/87/20 93/90/20
f 93/90/21 94/89/21 95/92/21
f 95/92/22 96/91/22 97/94/22
f 97/94/23 98/93/23 99/96/23
f 99/96/24 100/95/24 101/98/24
f 94/119/25 92/99/25 107/101/25
f 103/104/26 104/102/26 89/103/26
f 101/98/27 102/97/27 103/104/27
f 101/105/5 103/319/5 89/320/5
f 97/107/5 99/321/5 101/105/5
f 93/106/5 95/322/5 97/107/5
f 89/320/5 91/323/5 93/106/5
f 93/106/5 101/105/5 89/320/5
f 108/324/7 107/325/7 105/108/7
f 110/110/7 109/326/7 108/324/7
f 112/327/7 111/328/7 110/110/7
f 110/110/7 106/109/7 112/327/7
f 110/110/7 108/324/7 105/108/7
f 110/120/28 100/111/28 109/113/28
f 90/117/29 104/114/29 106/116/29
f 92/99/30 90/117/30 105/100/30
f 108/122/31 96/118/31 107/101/31
f 102/123/32 100/111/32 111/121/32
f 98/112/33 96/118/33 109/113/33
f 104/114/34 102/123/34 112/115/34
f 113/139/123 115/124/123 114/126/123
f 115/124/124 117/39/124 116/125/124
f 117/39/9 119/42/9 118/127/9
f 119/42/125 121/129/125 120/128/125
f 122/329/126 121/77/39 124/132/41
f 124/132/127 123/131/42 126/134/43
f 120/330/44 132/135/44 118/137/44
f 128/140/128 127/138/45 114/126/47
f 126/134/129 125/133/48 128/140/50
f 135/164/130 136/141/130 143/143/130
f 126/149/52 135/144/52 124/146/52
f 120/330/53 122/82/53 132/135/53
f 128/331/54 136/148/54 126/149/54
f 118/137/55 131/136/55 116/151/55
f 124/146/56 134/145/56 122/153/56
f 128/331/57 114/154/57 136/148/57
f 114/154/58 116/151/58 130/155/58
f 133/332/131 134/156/131 141/158/131
f 132/166/132 140/159/60 131/161/62
f 129/167/65 137/57/63 130/163/65
f 136/141/133 130/163/133 144/142/133
f 134/156/134 135/164/134 142/157/134
f 133/333/135 141/165/68 132/166/70
f 131/161/136 139/160/71 129/167/73
f 50/176/3 54/168/3 49/170/3
f 66/172/2 55/171/2 56/334/2
f 55/171/2 50/173/2 49/335/2
f 55/56/5 49/170/5 57/57/5
f 50/176/74 66/174/74 54/168/74
f 52/181/3 60/176/3 51/177/3
f 68/179/2 61/178/2 62/315/2
f 61/178/2 52/180/2 51/336/2
f 51/177/5 59/170/5 61/62/5
f 68/81/74 67/174/74 52/181/74
f 69/186/3 79/182/3 85/183/3
f 79/182/4 83/184/4 86/84/4
f 73/337/2 69/186/2 87/187/2
f 69/186/7 73/188/7 79/182/7
f 145/338/137 146/190/75 147/192/77
f 147/192/138 148/191/78 149/194/80
f 149/194/8 150/193/81 151/196/83
f 151/196/139 152/195/84 153/129/86
f 155/200/140 153/197/140 156/199/140
f 157/207/15 155/200/15 158/201/15
f 152/213/89 150/202/89 164/204/89
f 145/338/141 159/205/141 146/190/141
f 159/205/142 157/207/142 160/206/142
f 176/230/143 168/208/92 175/210/94
f 158/214/95 156/75/95 167/212/95
f 154/82/96 152/213/96 165/147/96
f 160/220/98 158/214/98 168/215/98
f 150/202/99 148/216/99 163/203/99
f 166/211/100 156/75/100 165/219/100
f 146/222/101 160/220/101 162/221/101
f 148/216/102 146/222/102 161/217/102
f 174/231/103 166/223/103 173/197/103
f 164/232/144 163/224/144 172/226/144
f 161/234/145 162/227/145 169/229/145
f 170/228/146 162/227/106 176/230/108
f 175/210/147 167/209/109 174/231/111
f 165/339/148 164/232/148 173/233/148
f 163/224/149 161/234/149 171/225/149
f 177/243/14 178/235/14 179/237/14
f 179/340/11 180/238/11 181/240/11
f 181/240/8 182/239/8 183/242/8
f 183/242/13 184/241/13 185/244/13
f 185/244/10 186/243/10 187/245/10
f 187/238/15 188/246/15 189/239/15
f 184/248/4 182/341/4 180/284/4
f 188/250/4 186/342/4 184/248/4
f 192/249/4 190/285/4 188/250/4
f 180/284/4 178/343/4 192/249/4
f 192/249/4 184/248/4 180/284/4
f 191/241/9 192/251/9 177/243/9
f 191/241/12 189/239/12 192/251/12
f 193/260/14 194/252/14 195/254/14
f 195/246/11 196/255/11 197/257/11
f 197/257/8 198/256/8 199/259/8
f 199/259/13 200/258/13 201/261/13
f 203/286/10 201/261/10 204/254/10
f 205/256/15 203/255/15 206/263/15
f 200/344/4 198/345/4 196/264/4
f 204/289/4 202/346/4 200/344/4
f 196/264/4 206/266/4 204/289/4
f 196/264/4 194/347/4 208/265/4
f 204/289/4 200/344/4 196/264/4
f 193/260/9 207/258/9 194/252/9
f 205/256/12 206/263/12 207/258/12
f 211/287/114 209/268/114 212/270/114
f 211/287/115 212/270/115 213/272/115
f 213/272/150 214/271/116 215/274/116
f 217/264/117 215/274/117 218/275/117
f 217/264/118 218/275/118 219/277/119
f 221/288/120 219/277/120 222/278/120
f 216/348/4 214/349/4 212/279/4
f 220/281/4 218/350/4 216/348/4
f 224/280/4 222/351/4 220/281/4
f 212/279/4 210/290/4 224/280/4
f 220/281/4 216/348/4 212/279/4
f 209/268/121 223/282/121 210/269/121
f 221/288/122 222/278/122 223/282/122
f 225/243/14 226/235/14 227/237/14
f 227/340/11 228/238/11 229/240/11
f 229/240/8 230/239/8 231/242/8
f 233/244/13 231/242/13 234/243/13
f 233/244/10 234/243/10 235/245/10
f 237/239/15 235/238/15 238/247/15
f 232/248/4 230/341/4 228/284/4
f 236/250/4 234/342/4 232/248/4
f 228/284/4 238/285/4 236/250/4
f 228/284/4 226/343/4 240/249/4
f 236/250/4 232/248/4 228/284/4
f 239/241/9 240/251/9 225/243/9
f 239/241/12 237/239/12 240/251/12
f 241/260/14 242/252/14 243/254/14
f 243/246/11 244/255/11 245/257/11
f 245/257/8 246/256/8 247/259/8
f 247/259/13 248/258/13 249/261/13
f 249/261/10 250/260/10 251/286/10
f 253/256/15 251/255/15 254/263/15
f 248/344/4 246/345/4 244/264/4
f 252/289/4 250/346/4 248/344/4
f 244/264/4 254/266/4 252/289/4
f 244/264/4 242/347/4 256/265/4
f 252/289/4 248/344/4 244/264/4
f 241/260/9 255/258/9 242/252/9
f 255/258/12 253/256/12 256/267/12
f 257/268/151 258/269/114 259/287/114
f 261/272/115 259/287/115 262/271/115
f 261/272/150 262/271/116 263/274/116
f 265/264/117 263/274/117 266/275/117
f 265/264/118 266/275/118 267/277/118
f 267/277/120 268/276/120 269/288/120
f 264/348/4 262/349/4 260/279/4
f 268/281/4 266/350/4 264/348/4
f 272/280/4 270/351/4 268/281/4
f 260/279/4 258/290/4 272/280/4
f 268/281/4 264/348/4 260/279/4
f 257/268/121 271/282/121 258/269/121
f 269/288/122 270/278/122 271/282/122
f 273/243/14 274/235/14 275/237/14
f 275/340/11 276/238/11 277/240/11
f 277/240/8 278/239/8 279/242/8
f 281/244/13 279/242/13 282/243/13
f 281/244/10 282/243/10 283/245/10
f 285/239/15 283/238/15 286/247/15
f 284/250/4 278/341/4 276/284/4
f 284/250/4 282/342/4 280/248/4
f 288/249/4 286/285/4 284/250/4
f 276/284/4 274/343/4 288/249/4
f 284/250/4 280/248/4 278/341/4
f 287/241/9 288/251/9 273/243/9
f 285/239/12 286/247/12 287/241/12
f 289/260/14 290/252/14 291/254/14
f 291/246/11 292/255/11 293/257/11
f 293/257/8 294/256/8 295/259/8
f 295/259/13 296/258/13 297/261/13
f 297/261/10 298/260/10 299/286/10
f 299/255/15 300/262/15 301/256/15
f 296/344/4 294/345/4 292/264/4
f 292/264/4 298/346/4 296/344/4
f 304/265/4 302/266/4 300/289/4
f 292/264/4 290/347/4 304/265/4
f 300/289/4 298/346/4 292/264/4
f 303/258/9 304/267/9 289/260/9
f 301/256/12 302/263/12 303/258/12
f 305/268/151 306/269/114 307/287/114
f 307/287/115 308/270/115 309/272/115
f 309/272/150 310/271/116 311/274/116
f 313/264/117 311/274/117 314/275/117
f 313/264/118 314/275/118 315/277/118
f 315/277/120 316/276/120 317/288/120
f 312/348/4 310/349/4 308/279/4
f 308/279/4 314/350/4 312/348/4
f 320/280/4 318/351/4 316/281/4
f 316/281/4 306/290/4 320/280/4
f 316/281/4 314/350/4 308/279/4
f 319/282/121 320/283/121 305/268/121
f 319/282/122 317/288/122 320/283/122
f 322/302/3 324/291/3 321/293/3
f 324/352/4 328/294/4 323/296/4
f 327/295/1 328/294/1 325/298/1
f 326/353/2 322/292/2 325/299/2
f 321/293/5 323/292/5 325/301/5
f 326/297/7 328/294/7 322/302/7
