# Blender 4.2.3 LTS
# www.blender.org
mtllib big_crankshaft.mtl
o base
v 0.381910 0.379611 0.869225
v 0.381910 0.620138 0.869225
v 0.381910 0.379611 0.780504
v 0.381910 0.620138 0.780504
v 0.622437 0.379611 0.869225
v 0.622437 0.620138 0.869225
v 0.622437 0.379611 0.780504
v 0.622437 0.620138 0.780504
v 0.762545 0.034864 0.207548
v 0.762545 0.034864 0.145048
v 0.502936 0.459093 0.145048
v 0.502936 0.459093 0.207548
v 0.876687 0.054178 0.145048
v 0.617080 0.478407 0.145048
v 0.876687 0.054178 0.207548
v 0.617080 0.478407 0.207548
v 0.123313 0.054178 0.207548
v 0.123313 0.054178 0.145048
v 0.382920 0.478407 0.145048
v 0.382920 0.478407 0.207548
v 0.237455 0.034864 0.145048
v 0.497064 0.459093 0.145048
v 0.237455 0.034864 0.207548
v 0.497064 0.459093 0.207548
v 0.762545 0.034864 0.850205
v 0.762545 0.034864 0.787705
v 0.502936 0.459093 0.787705
v 0.502936 0.459093 0.850205
v 0.876687 0.054178 0.787705
v 0.617080 0.478407 0.787705
v 0.876687 0.054178 0.850205
v 0.617080 0.478407 0.850205
v 0.123313 0.054178 0.850205
v 0.123313 0.054178 0.787705
v 0.382920 0.478407 0.787705
v 0.382920 0.478407 0.850205
v 0.237455 0.034864 0.787705
v 0.497064 0.459093 0.787705
v 0.237455 0.034864 0.850205
v 0.497064 0.459093 0.850205
v 0.381910 0.379611 0.215338
v 0.381910 0.620138 0.215338
v 0.381910 0.379611 0.126618
v 0.381910 0.620138 0.126618
v 0.622437 0.379611 0.215338
v 0.622437 0.620138 0.215338
v 0.622437 0.379611 0.126618
v 0.622437 0.620138 0.126618
v 0.000000 0.000000 1.000000
v 0.000000 0.000000 0.000000
v 0.000000 0.062500 -0.000000
v 0.000000 0.062500 1.000000
v 1.000000 0.000000 0.000000
v 1.000000 0.062500 -0.000000
v 1.000000 0.000000 1.000000
v 1.000000 0.062500 1.000000
vn -1.0000 -0.0000 -0.0000
vn -0.0000 -0.0000 -1.0000
vn 1.0000 -0.0000 -0.0000
vn -0.0000 -0.0000 1.0000
vn -0.0000 -1.0000 -0.0000
vn -0.0000 1.0000 -0.0000
vn -0.8530 -0.5220 -0.0000
vn 0.8530 0.5220 -0.0000
vn 0.1668 -0.9860 -0.0000
vn -0.1668 0.9860 -0.0000
vn -0.8530 0.5220 -0.0000
vn 0.8530 -0.5220 -0.0000
vn -0.1668 -0.9860 -0.0000
vn 0.1668 0.9860 -0.0000
vt 0.349174 0.003799
vt 0.349174 0.122508
vt 0.655068 0.122508
vt 0.655068 0.003799
vt 0.502869 0.786921
vt 0.757511 0.848221
vt 0.757511 0.786921
vt 0.502869 0.848221
vt 0.869470 0.848221
vt 0.614829 0.848221
vt 0.869470 0.786921
vt 0.385149 0.786921
vt 0.130508 0.848221
vt 0.130508 0.786921
vt 0.497109 0.848221
vt 0.242466 0.848221
vt 0.242466 0.786921
vt 0.497109 0.786921
vt 0.385149 0.848221
vt 0.502869 0.156608
vt 0.757511 0.217908
vt 0.757511 0.156608
vt 0.502869 0.217908
vt 0.869470 0.217908
vt 0.614829 0.217908
vt 0.869470 0.156608
vt 0.385149 0.156608
vt 0.130508 0.217908
vt 0.130508 0.156608
vt 0.497109 0.217908
vt 0.242466 0.217908
vt 0.242466 0.156608
vt 0.497109 0.156608
vt 0.385149 0.217908
vt 0.614829 0.786921
vt 0.614829 0.156608
vt 0.349174 0.878700
vt 0.349174 0.997408
vt 0.349174 0.878700
vt 0.655068 0.997408
vt 0.655068 0.878700
vt 0.655068 0.878700
vt 0.000000 0.000000
vt 0.000000 1.000000
vt 0.062500 0.000000
vt 1.000000 1.000000
vt 0.000000 0.937500
vt 0.937500 1.000000
vt 1.000000 0.000000
vt 1.000000 0.062500
vt 0.000274 0.999812
vt 0.999584 0.000377
vt 0.000274 0.000377
vt 0.062500 1.000000
vt 0.999584 0.937500
vt 0.937500 0.000000
vt 0.999584 0.999812
s 0
usemtl Material_casing
f 2/1/1 3/2/1 1/1/1
f 4/2/2 7/3/2 3/2/2
f 8/3/3 5/4/3 7/3/3
f 6/4/4 1/1/4 5/4/4
f 7/3/5 1/1/5 3/2/5
f 4/2/6 6/4/6 8/3/6
f 12/5/7 10/6/7 9/7/7
f 11/8/2 13/9/2 10/6/2
f 14/10/8 15/11/8 13/9/8
f 15/11/4 12/5/4 9/7/4
f 10/6/9 15/11/9 9/7/9
f 12/5/10 14/10/10 11/8/10
f 20/12/11 18/13/11 17/14/11
f 18/13/2 22/15/2 21/16/2
f 22/15/12 23/17/12 21/16/12
f 24/18/4 17/14/4 23/17/4
f 18/13/13 23/17/13 17/14/13
f 20/12/14 22/15/14 19/19/14
f 28/20/7 26/21/7 25/22/7
f 27/23/2 29/24/2 26/21/2
f 30/25/8 31/26/8 29/24/8
f 31/26/4 28/20/4 25/22/4
f 26/21/9 31/26/9 25/22/9
f 28/20/10 30/25/10 27/23/10
f 36/27/11 34/28/11 33/29/11
f 34/28/2 38/30/2 37/31/2
f 38/30/12 39/32/12 37/31/12
f 40/33/4 33/29/4 39/32/4
f 34/28/13 39/32/13 33/29/13
f 36/27/14 38/30/14 35/34/14
f 12/5/7 11/8/7 10/6/7
f 11/8/2 14/10/2 13/9/2
f 14/10/8 16/35/8 15/11/8
f 15/11/4 16/35/4 12/5/4
f 10/6/9 13/9/9 15/11/9
f 12/5/10 16/35/10 14/10/10
f 20/12/11 19/19/11 18/13/11
f 18/13/2 19/19/2 22/15/2
f 22/15/12 24/18/12 23/17/12
f 24/18/4 20/12/4 17/14/4
f 18/13/13 21/16/13 23/17/13
f 20/12/14 24/18/14 22/15/14
f 28/20/7 27/23/7 26/21/7
f 27/23/2 30/25/2 29/24/2
f 30/25/8 32/36/8 31/26/8
f 31/26/4 32/36/4 28/20/4
f 26/21/9 29/24/9 31/26/9
f 28/20/10 32/36/10 30/25/10
f 36/27/11 35/34/11 34/28/11
f 34/28/2 35/34/2 38/30/2
f 38/30/12 40/33/12 39/32/12
f 40/33/4 36/27/4 33/29/4
f 34/28/13 37/31/13 39/32/13
f 36/27/14 40/33/14 38/30/14
f 42/37/1 43/38/1 41/39/1
f 44/38/2 47/40/2 43/38/2
f 48/40/3 45/41/3 47/40/3
f 46/42/4 41/39/4 45/41/4
f 47/40/5 41/39/5 43/38/5
f 44/38/6 46/42/6 48/40/6
f 52/43/1 50/44/1 49/45/1
f 51/44/2 53/46/2 50/47/2
f 54/48/3 55/49/3 53/46/3
f 56/50/4 49/43/4 55/49/4
f 50/51/5 55/52/5 49/53/5
f 52/43/6 54/46/6 51/44/6
f 52/43/1 51/44/1 50/54/1
f 51/44/2 54/55/2 53/46/2
f 54/46/3 56/56/3 55/52/3
f 56/52/4 52/53/4 49/53/4
f 50/51/5 53/57/5 55/52/5
f 52/43/6 56/49/6 54/46/6
f 2/1/1 4/2/1 3/2/1
f 4/2/2 8/3/2 7/3/2
f 8/3/3 6/4/3 5/4/3
f 6/4/4 2/1/4 1/1/4
f 7/3/5 5/4/5 1/1/5
f 4/2/6 2/1/6 6/4/6
f 42/37/1 44/38/1 43/38/1
f 44/38/2 48/40/2 47/40/2
f 48/40/3 46/42/3 45/41/3
f 46/42/4 42/37/4 41/39/4
f 47/40/5 45/41/5 41/39/5
f 44/38/6 42/37/6 46/42/6
o axle
v 0.050168 0.071426 0.198064
v -0.042328 0.065439 0.198064
v 0.050167 0.071426 -0.198063
v -0.042328 0.065439 -0.198063
v 0.043941 0.167612 0.198064
v -0.048554 0.161625 0.198064
v 0.043941 0.167612 -0.198063
v -0.048554 0.161625 -0.198063
v 0.074354 0.216871 0.171997
v 0.074354 -0.224016 0.171997
v 0.074354 0.216871 0.265860
v 0.074354 -0.224016 0.265860
v -0.074646 0.216871 0.171997
v -0.074646 -0.224016 0.171997
v -0.074646 0.216871 0.265860
v -0.074646 -0.224016 0.265860
v 0.074354 0.216871 -0.266246
v 0.074354 -0.224016 -0.266246
v 0.074354 0.216871 -0.172383
v 0.074354 -0.224016 -0.172383
v -0.074646 0.216871 -0.266246
v -0.074646 -0.224016 -0.266246
v -0.074646 0.216871 -0.172383
v -0.074646 -0.224016 -0.172383
v 0.125099 -0.124709 0.476688
v 0.125099 -0.124709 0.500019
v 0.125099 0.125291 0.500019
v 0.125099 0.125291 0.476688
v -0.124901 -0.124709 0.500019
v -0.124901 0.125291 0.500019
v -0.124901 -0.124709 0.476688
v -0.124901 0.125291 0.476688
v 0.050157 -0.048216 0.198094
v 0.050157 -0.048216 0.480787
v 0.050157 0.047819 0.480787
v 0.050157 0.047819 0.198094
v -0.050698 -0.048216 0.480787
v -0.050698 0.047819 0.480787
v -0.050698 -0.048216 0.198094
v -0.050698 0.047819 0.198094
v -0.000270 -0.068105 0.198094
v -0.000270 -0.068105 0.480787
v 0.071045 -0.000199 0.480787
v 0.071045 -0.000198 0.198094
v -0.071585 -0.000199 0.480787
v -0.000270 0.067708 0.480787
v -0.071585 -0.000198 0.198094
v -0.000270 0.067708 0.198094
v 0.060681 -0.062209 0.465022
v 0.060681 -0.062209 0.488353
v 0.060681 0.062791 0.488353
v 0.060681 0.062791 0.465022
v -0.064319 -0.062209 0.488353
v -0.064319 0.062791 0.488353
v -0.064319 -0.062209 0.465022
v -0.064319 0.062791 0.465022
v -0.125169 -0.124709 -0.476687
v -0.125169 -0.124709 -0.500019
v -0.125169 0.125291 -0.500019
v -0.125169 0.125291 -0.476687
v 0.124831 -0.124709 -0.500019
v 0.124831 0.125291 -0.500019
v 0.124831 -0.124709 -0.476687
v 0.124831 0.125291 -0.476687
v -0.050693 -0.048216 -0.198094
v -0.050693 -0.048216 -0.480787
v -0.050693 0.047819 -0.480787
v -0.050693 0.047819 -0.198094
v 0.050162 -0.048216 -0.480787
v 0.050162 0.047819 -0.480787
v 0.050162 -0.048216 -0.198094
v 0.050162 0.047819 -0.198094
v -0.000265 -0.068105 -0.198094
v -0.000265 -0.068105 -0.480787
v -0.071580 -0.000198 -0.480787
v -0.071580 -0.000198 -0.198094
v 0.071050 -0.000198 -0.480787
v -0.000265 0.067708 -0.480787
v 0.071050 -0.000198 -0.198094
v -0.000265 0.067708 -0.198094
v -0.060681 -0.062209 -0.465021
v -0.060681 -0.062209 -0.488353
v -0.060681 0.062791 -0.488353
v -0.060681 0.062791 -0.465021
v 0.064319 -0.062209 -0.488353
v 0.064319 0.062791 -0.488353
v 0.064319 -0.062209 -0.465021
v 0.064319 0.062791 -0.465021
v 0.000385 0.049666 0.198064
v -0.066018 0.114332 0.198064
v 0.000385 0.049666 -0.198063
v -0.066019 0.114332 -0.198063
v 0.067632 0.118719 0.198064
v 0.001228 0.183385 0.198064
v 0.067632 0.118719 -0.198063
v 0.001228 0.183385 -0.198063
vn 0.0646 -0.9979 -0.0000
vn -0.0000 -0.0000 -1.0000
vn -0.0646 0.9979 -0.0000
vn -0.0000 -0.0000 1.0000
vn 0.9979 0.0646 -0.0000
vn -0.9979 -0.0646 -0.0000
vn 1.0000 -0.0000 -0.0000
vn -1.0000 -0.0000 -0.0000
vn -0.0000 1.0000 -0.0000
vn -0.0000 -1.0000 -0.0000
vn 0.6896 -0.7242 -0.0000
vn -0.6896 0.7242 -0.0000
vn -0.6896 -0.7242 -0.0000
vn 0.6896 0.7242 -0.0000
vn -0.6977 -0.7164 -0.0000
vn 0.6977 0.7164 -0.0000
vn 0.7164 -0.6977 -0.0000
vn -0.7164 0.6977 -0.0000
vt 0.625000 0.000000
vt 0.375000 0.250000
vt 0.375000 0.000000
vt 0.625000 0.250000
vt 0.375000 0.500000
vt 0.625000 0.750000
vt 0.375000 0.750000
vt 0.375000 1.000000
vt 0.125000 0.750000
vt 0.125000 0.500000
vt 0.875000 0.500000
vt 0.625000 0.500000
vt 0.625000 1.000000
vt 0.875000 0.750000
vt 0.945571 0.320295
vt 0.320295 0.320295
vt 0.320295 0.493244
vt 0.258366 0.816482
vt 0.280433 0.904751
vt 0.258366 0.904751
vt 0.595811 0.176537
vt 0.507543 0.088268
vt 0.595811 0.088268
vt 0.200593 0.904751
vt 0.178526 0.816482
vt 0.200593 0.816482
vt 0.595811 0.000000
vt 0.507543 0.000000
vt 0.236299 0.816482
vt 0.214232 0.904751
vt 0.214232 0.816482
vt 0.236299 0.904751
vt 0.595811 0.375141
vt 0.573744 0.595811
vt 0.573744 0.375141
vt 0.994706 0.617879
vt 0.972639 0.595812
vt 0.994706 0.595812
vt 0.627019 0.220671
vt 0.649086 0.000000
vt 0.649086 0.220671
vt 0.972639 0.639946
vt 0.972639 0.617879
vt 0.662013 0.485476
vt 0.639946 0.264805
vt 0.662013 0.264805
vt 0.671153 0.220671
vt 0.741658 0.485476
vt 0.726054 0.706147
vt 0.726054 0.485476
vt 0.889664 0.617878
vt 0.867597 0.595811
vt 0.889664 0.595811
vt 0.611415 0.220671
vt 0.627019 0.000000
vt 0.900431 0.375141
vt 0.878364 0.397207
vt 0.878364 0.375141
vt 0.757261 0.706147
vt 0.757261 0.485476
vt 0.595811 0.220671
vt 0.035705 0.948885
vt 0.057772 0.993019
vt 0.035705 0.993019
vt 0.419275 0.875123
vt 0.375141 0.830989
vt 0.419275 0.830989
vt 0.956946 0.970952
vt 0.934879 0.926818
vt 0.956946 0.926818
vt 0.331006 0.875123
vt 0.331006 0.830989
vt 0.975773 0.088268
vt 0.953706 0.132403
vt 0.953706 0.088268
vt 0.979013 0.926818
vt 0.979013 0.970952
vt 0.280433 0.816482
vt 0.507543 0.176537
vt 0.178526 0.904751
vt 0.595811 0.595811
vt 0.994706 0.639946
vt 0.639946 0.485476
vt 0.671153 0.000000
vt 0.741658 0.706147
vt 0.867597 0.617878
vt 0.611415 0.000000
vt 0.900431 0.397207
vt 0.057772 0.948885
vt 0.375141 0.875123
vt 0.934879 0.970952
vt 0.975773 0.132403
vt 0.945571 0.493244
s 0
usemtl Material_planks.001
f 58/58/15 59/59/15 57/60/15
f 60/61/16 63/62/16 59/59/16
f 63/62/17 62/63/17 61/64/17
f 62/63/18 57/65/18 61/64/18
f 63/62/19 57/66/19 59/67/19
f 60/68/20 62/63/20 64/69/20
f 58/58/15 60/61/15 59/59/15
f 60/61/16 64/69/16 63/62/16
f 63/62/17 64/69/17 62/63/17
f 62/63/18 58/70/18 57/65/18
f 63/62/19 61/64/19 57/66/19
f 60/68/20 58/71/20 62/63/20
f 66/72/21 65/73/21 67/74/21
f 68/72/18 67/73/18 71/74/18
f 72/72/22 71/73/22 69/74/22
f 70/72/16 69/73/16 65/74/16
f 71/72/23 67/73/23 65/74/23
f 68/72/24 72/73/24 70/74/24
f 74/72/21 73/73/21 75/74/21
f 76/72/18 75/73/18 79/74/18
f 80/72/22 79/73/22 77/74/22
f 78/72/16 77/73/16 73/74/16
f 79/72/23 75/73/23 73/74/23
f 76/72/24 80/73/24 78/74/24
f 84/75/21 82/76/21 81/77/21
f 83/78/18 85/79/18 82/80/18
f 86/81/22 87/82/22 85/83/22
f 88/84/16 81/79/16 87/85/16
f 82/86/24 87/87/24 81/88/24
f 84/89/23 86/75/23 83/77/23
f 92/90/21 90/91/21 89/92/21
f 91/93/18 93/94/18 90/95/18
f 94/96/22 95/97/22 93/98/22
f 96/93/16 89/99/16 95/100/16
f 90/101/24 95/102/24 89/103/24
f 92/97/23 94/104/23 91/98/23
f 100/105/25 98/106/25 97/107/25
f 99/108/18 101/109/18 98/110/18
f 102/111/26 103/112/26 101/96/26
f 103/113/16 100/114/16 97/115/16
f 98/116/27 103/105/27 97/117/27
f 100/84/28 102/111/28 99/118/28
f 108/119/21 106/120/21 105/121/21
f 107/122/18 109/123/18 106/124/18
f 110/125/22 111/126/22 109/127/22
f 112/123/16 105/128/16 111/129/16
f 106/130/24 111/131/24 105/132/24
f 108/125/23 110/133/23 107/134/23
f 84/75/21 83/135/21 82/76/21
f 83/78/18 86/136/18 85/79/18
f 86/81/22 88/137/22 87/82/22
f 88/84/16 84/80/16 81/79/16
f 82/86/24 85/89/24 87/87/24
f 84/89/23 88/86/23 86/75/23
f 92/90/21 91/138/21 90/91/21
f 91/93/18 94/100/18 93/94/18
f 94/96/22 96/112/22 95/97/22
f 96/93/16 92/139/16 89/99/16
f 90/101/24 93/140/24 95/102/24
f 92/97/23 96/141/23 94/104/23
f 100/105/25 99/142/25 98/106/25
f 99/108/18 102/143/18 101/109/18
f 102/111/26 104/144/26 103/112/26
f 103/113/16 104/145/16 100/114/16
f 98/116/27 101/142/27 103/105/27
f 100/84/28 104/144/28 102/111/28
f 108/119/21 107/146/21 106/120/21
f 107/122/18 110/147/18 109/123/18
f 110/125/22 112/148/22 111/126/22
f 112/123/16 108/147/16 105/128/16
f 106/130/24 109/149/24 111/131/24
f 108/125/23 112/127/23 110/133/23
f 116/75/22 114/76/22 113/77/22
f 115/78/16 117/79/16 114/80/16
f 118/81/21 119/82/21 117/83/21
f 120/84/18 113/79/18 119/85/18
f 114/86/24 119/87/24 113/88/24
f 116/89/23 118/75/23 115/77/23
f 124/90/22 122/91/22 121/92/22
f 123/93/16 125/94/16 122/95/16
f 126/96/21 127/97/21 125/98/21
f 128/93/18 121/99/18 127/100/18
f 122/101/24 127/102/24 121/103/24
f 124/97/23 126/104/23 123/98/23
f 132/105/27 130/106/27 129/107/27
f 131/108/16 133/109/16 130/110/16
f 134/111/28 135/112/28 133/96/28
f 135/113/18 132/114/18 129/115/18
f 130/116/25 135/105/25 129/117/25
f 132/84/26 134/111/26 131/118/26
f 140/119/22 138/120/22 137/121/22
f 139/122/16 141/123/16 138/124/16
f 142/125/21 143/126/21 141/127/21
f 144/123/18 137/128/18 143/129/18
f 138/130/24 143/131/24 137/132/24
f 140/125/23 142/133/23 139/134/23
f 116/75/22 115/135/22 114/76/22
f 115/78/16 118/136/16 117/79/16
f 118/81/21 120/137/21 119/82/21
f 120/84/18 116/80/18 113/79/18
f 114/86/24 117/89/24 119/87/24
f 116/89/23 120/86/23 118/75/23
f 124/90/22 123/138/22 122/91/22
f 123/93/16 126/100/16 125/94/16
f 126/96/21 128/112/21 127/97/21
f 128/93/18 124/139/18 121/99/18
f 122/101/24 125/140/24 127/102/24
f 124/97/23 128/141/23 126/104/23
f 132/105/27 131/142/27 130/106/27
f 131/108/16 134/143/16 133/109/16
f 134/111/28 136/144/28 135/112/28
f 135/113/18 136/145/18 132/114/18
f 130/116/25 133/142/25 135/105/25
f 132/84/26 136/144/26 134/111/26
f 140/119/22 139/146/22 138/120/22
f 139/122/16 142/147/16 141/123/16
f 142/125/21 144/148/21 143/126/21
f 144/123/18 140/147/18 137/128/18
f 138/130/24 141/149/24 143/131/24
f 140/125/23 144/127/23 142/133/23
f 66/72/21 67/74/21 68/150/21
f 68/72/18 71/74/18 72/150/18
f 72/72/22 69/74/22 70/150/22
f 70/72/16 65/74/16 66/150/16
f 71/72/23 65/74/23 69/150/23
f 68/72/24 70/74/24 66/150/24
f 74/72/21 75/74/21 76/150/21
f 76/72/18 79/74/18 80/150/18
f 80/72/22 77/74/22 78/150/22
f 78/72/16 73/74/16 74/150/16
f 79/72/23 73/74/23 77/150/23
f 76/72/24 78/74/24 74/150/24
f 146/58/29 147/59/29 145/60/29
f 148/61/16 151/62/16 147/59/16
f 151/62/30 150/63/30 149/64/30
f 150/63/18 145/65/18 149/64/18
f 151/62/31 145/66/31 147/67/31
f 148/68/32 150/63/32 152/69/32
f 146/58/29 148/61/29 147/59/29
f 148/61/16 152/69/16 151/62/16
f 151/62/30 152/69/30 150/63/30
f 150/63/18 146/70/18 145/65/18
f 151/62/31 149/64/31 145/66/31
f 148/68/32 146/71/32 150/63/32
