# Blender 4.2.3 LTS
# www.blender.org
mtllib flywheel_large.mtl
o fly_wheel
v -0.210534 -0.212062 -0.941991
v -0.210534 -1.341079 0.284123
v -0.210534 -1.341079 -0.251811
v -0.181636 -0.974896 -0.221838
v -0.181636 -0.974896 0.254000
v 0.215510 -1.341079 -0.251811
v 0.186612 -0.974896 -0.221838
v 0.215510 -1.341079 0.284123
v 0.186612 -0.974896 0.254000
v 0.214603 -1.341223 0.258489
v 0.214603 -1.341223 -0.228620
v 0.128932 -0.984031 -0.201241
v 0.128932 -0.984031 0.231247
v 0.619795 -1.209568 -0.228620
v 0.479156 -0.870237 -0.201241
v 0.619795 -1.209568 0.258489
v 0.479156 -0.870237 0.231247
v 0.618981 -1.209984 0.284123
v 0.618981 -1.209984 -0.251811
v 0.427122 -0.896748 -0.221838
v 0.427122 -0.896748 0.254000
v 0.963658 -0.959562 -0.251811
v 0.725040 -0.680298 -0.221838
v 0.963658 -0.959562 0.284123
v 0.725040 -0.680298 0.254000
v 0.963010 -0.960210 0.258489
v 0.963010 -0.960210 -0.228620
v 0.683746 -0.721592 -0.201241
v 0.683746 -0.721592 0.231247
v 1.213432 -0.615533 -0.228620
v 0.900199 -0.423674 -0.201241
v 1.213432 -0.615533 0.258489
v 0.900199 -0.423674 0.231247
v 1.213016 -0.616348 0.284123
v 1.213016 -0.616348 -0.251811
v 0.873685 -0.475709 -0.221838
v 0.873685 -0.475709 0.254000
v 1.344671 -0.211156 -0.251811
v 0.987480 -0.125484 -0.221838
v 1.344671 -0.211156 0.284123
v 0.987480 -0.125484 0.254000
v 1.344527 -0.212062 0.258489
v 1.344527 -0.212062 -0.228620
v 0.978344 -0.183164 -0.201241
v 0.978344 -0.183164 0.231247
v 1.344527 0.213982 -0.228620
v 0.978344 0.185084 -0.201241
v 1.344527 0.213982 0.258489
v 0.978344 0.185084 0.231246
v 1.344671 0.213076 0.284123
v 1.344671 0.213075 -0.251811
v 0.987480 0.127404 -0.221838
v 0.987480 0.127404 0.254000
v 1.213016 0.618267 -0.251811
v 0.873685 0.477628 -0.221838
v 1.213016 0.618267 0.284123
v 0.873685 0.477628 0.254000
v 1.213432 0.617453 0.258489
v 1.213432 0.617453 -0.228620
v 0.900199 0.425594 -0.201241
v 0.900199 0.425594 0.231247
v 0.963010 0.962130 -0.228620
v 0.683746 0.723512 -0.201241
v 0.963010 0.962130 0.258489
v 0.683746 0.723512 0.231246
v 0.963658 0.961482 0.284123
v 0.963658 0.961482 -0.251811
v 0.725040 0.682218 -0.221838
v 0.725040 0.682218 0.253999
v 0.618981 1.211904 -0.251811
v 0.427122 0.898671 -0.221838
v 0.618981 1.211904 0.284123
v 0.427122 0.898671 0.253999
v 0.619795 1.211488 0.258489
v 0.619795 1.211488 -0.228620
v 0.479156 0.872157 -0.201241
v 0.479156 0.872157 0.231246
v 0.214603 1.343143 -0.228620
v 0.128932 0.985952 -0.201241
v 0.214603 1.343143 0.258489
v 0.128932 0.985952 0.231246
v 0.215510 1.343000 0.284123
v 0.215510 1.343000 -0.251811
v 0.186612 0.976816 -0.221838
v 0.186612 0.976816 0.253999
v -0.210534 1.343000 -0.251811
v -0.181636 0.976816 -0.221838
v -0.210534 1.343000 0.284123
v -0.181636 0.976816 0.253999
v -0.209628 1.343143 0.258489
v -0.209628 1.343143 -0.228620
v -0.123957 0.985952 -0.201241
v -0.123957 0.985952 0.231246
v -0.614820 1.211488 -0.228620
v -0.474181 0.872157 -0.201241
v -0.614820 1.211488 0.258489
v -0.474181 0.872157 0.231246
v -0.614005 1.211904 0.284123
v -0.614005 1.211904 -0.251811
v -0.422146 0.898671 -0.221838
v -0.422146 0.898671 0.253999
v -0.958682 0.961482 -0.251811
v -0.720064 0.682218 -0.221838
v -0.958682 0.961482 0.284123
v -0.720064 0.682218 0.253999
v -0.958034 0.962130 0.258489
v -0.958034 0.962130 -0.228620
v -0.678770 0.723512 -0.201241
v -0.678770 0.723512 0.231246
v -1.208456 0.617453 -0.228620
v -0.895220 0.425594 -0.201241
v -1.208456 0.617453 0.258489
v -0.895220 0.425594 0.231247
v -1.208040 0.618267 0.284123
v -1.208040 0.618267 -0.251811
v -0.868709 0.477628 -0.221838
v -0.868709 0.477628 0.254000
v -1.339695 0.213075 -0.251811
v -0.982504 0.127404 -0.221838
v -1.339695 0.213076 0.284123
v -0.982504 0.127404 0.254000
v -1.339552 0.213982 0.258489
v -1.339552 0.213982 -0.228620
v -0.973368 0.185084 -0.201241
v -0.973368 0.185084 0.231246
v -1.339552 -0.212062 -0.228620
v -0.973368 -0.183164 -0.201241
v -1.339552 -0.212062 0.258489
v -0.973368 -0.183164 0.231247
v -1.339695 -0.211156 0.284123
v -1.339695 -0.211156 -0.251811
v -0.982504 -0.125484 -0.221838
v -0.982504 -0.125484 0.254000
v -1.208040 -0.616348 -0.251811
v -0.868709 -0.475709 -0.221838
v -1.208040 -0.616348 0.284123
v -0.868709 -0.475709 0.254000
v -1.208456 -0.615533 0.258489
v -1.208456 -0.615533 -0.228620
v -0.895220 -0.423674 -0.201241
v -0.895220 -0.423674 0.231247
v -0.958034 -0.960210 -0.228620
v -0.678770 -0.721592 -0.201241
v -0.958034 -0.960210 0.258489
v -0.678770 -0.721592 0.231247
v -0.958682 -0.959562 0.284123
v -0.958682 -0.959562 -0.251811
v -0.720064 -0.680298 -0.221838
v -0.720064 -0.680298 0.254000
v -0.614005 -1.209984 -0.251811
v -0.422146 -0.896748 -0.221838
v -0.614005 -1.209984 0.284123
v -0.422146 -0.896748 0.254000
v -0.614820 -1.209568 0.258489
v -0.614820 -1.209568 -0.228620
v -0.474181 -0.870237 -0.201241
v -0.474181 -0.870237 0.231247
v -0.209628 -1.341223 -0.228620
v -0.123957 -0.984031 -0.201241
v -0.209628 -1.341223 0.258489
v -0.123957 -0.984031 0.231247
v -0.104023 -1.170662 0.125250
v -0.104023 -1.170662 -0.087772
v -0.104023 -0.105551 -0.087772
v -0.104023 -0.105551 0.125250
v 0.108999 -1.170662 -0.087772
v 0.108999 -0.105551 -0.087772
v 0.108999 -1.170662 0.125250
v 0.108999 -0.105551 0.125250
v -0.901289 -0.752188 0.120990
v -0.901289 -0.752188 -0.092033
v -0.148141 0.000960 -0.092033
v -0.148141 0.000960 0.120989
v -0.750660 -0.902816 -0.092033
v 0.002488 -0.149669 -0.092033
v -0.750660 -0.902816 0.120990
v 0.002488 -0.149669 0.120990
v -1.169134 0.107471 0.125250
v -1.169134 0.107471 -0.087772
v -0.104023 0.107471 -0.087772
v -0.104023 0.107471 0.125250
v -1.169134 -0.105551 -0.087772
v -0.104023 -0.105551 -0.087772
v -1.169134 -0.105551 0.125250
v -0.104023 -0.105551 0.125250
v -0.750660 0.904736 0.120989
v -0.750660 0.904736 -0.092033
v 0.002488 0.151589 -0.092033
v 0.002488 0.151589 0.120989
v -0.901289 0.754107 -0.092033
v -0.148141 0.000960 -0.092033
v -0.901289 0.754107 0.120989
v -0.148141 0.000960 0.120989
v 0.108999 1.172582 0.125250
v 0.108999 1.172582 -0.087772
v 0.108999 0.107471 -0.087772
v 0.108999 0.107471 0.125250
v -0.104023 1.172582 -0.087772
v -0.104023 0.107471 -0.087772
v -0.104023 1.172582 0.125250
v -0.104023 0.107471 0.125250
v 0.906264 0.754107 0.120989
v 0.906264 0.754107 -0.092033
v 0.153117 0.000960 -0.092033
v 0.153117 0.000960 0.120989
v 0.755635 0.904736 -0.092033
v 0.002488 0.151589 -0.092033
v 0.755635 0.904736 0.120989
v 0.002488 0.151589 0.120989
v 1.174110 -0.105551 0.125250
v 1.174110 -0.105551 -0.087772
v 0.108999 -0.105551 -0.087772
v 0.108999 -0.105551 0.125250
v 1.174110 0.107471 -0.087772
v 0.108999 0.107471 -0.087772
v 1.174110 0.107471 0.125250
v 0.108999 0.107471 0.125250
v 0.755635 -0.902816 0.120990
v 0.755635 -0.902816 -0.092033
v 0.002488 -0.149669 -0.092033
v 0.002488 -0.149669 0.120990
v 0.906264 -0.752188 -0.092033
v 0.153117 0.000960 -0.092033
v 0.906264 -0.752188 0.120990
v 0.153117 0.000960 0.120989
vn -0.2332 -0.9724 -0.0000
vn 0.0776 -0.0252 -0.9967
vn 0.9969 -0.0787 -0.0000
vn 0.0780 -0.0253 0.9966
vn -0.0000 1.0000 -0.0000
vn -0.7071 0.7071 -0.0000
vn -0.9238 0.3829 -0.0000
vn -0.0230 -0.0709 -0.9972
vn -0.9238 -0.3829 -0.0000
vn 0.0229 0.0706 0.9972
vn -0.3090 0.9511 -0.0000
vn -0.0000 -0.0000 1.0000
vn 0.7603 0.6496 -0.0000
vn -0.0000 -0.0816 -0.9967
vn 0.8528 -0.5223 -0.0000
vn -0.0000 0.0820 0.9966
vn 0.8090 0.5878 -0.0000
vn -0.7071 -0.7071 -0.0000
vn -0.6496 0.7603 -0.0000
vn 0.0603 -0.0438 -0.9972
vn -0.0482 -0.0663 0.9966
vn -0.0746 -0.0000 -0.9972
vn -0.5878 -0.8090 -0.0000
vn -0.9969 -0.0787 -0.0000
vn -0.0776 -0.0252 -0.9967
vn 0.0780 0.0253 0.9966
vn -0.8090 -0.5878 -0.0000
vn 0.0787 -0.9969 -0.0000
vn 0.0746 -0.0000 -0.9972
vn 0.0787 0.9969 -0.0000
vn 0.0742 -0.0000 0.9972
vn -1.0000 -0.0000 -0.0000
vn 0.9969 0.0787 -0.0000
vn -0.0000 0.0816 -0.9967
vn 0.2332 0.9724 -0.0000
vn 0.0480 -0.0660 -0.9967
vn -0.9511 -0.3090 -0.0000
vn 0.9238 -0.3829 -0.0000
vn -0.0603 0.0438 -0.9972
vn 0.6496 -0.7603 -0.0000
vn -0.0230 0.0709 -0.9972
vn -0.8090 0.5878 -0.0000
vn 0.5878 -0.8090 -0.0000
vn -0.8528 -0.5223 -0.0000
vn -0.0480 0.0660 -0.9967
vn 0.3829 -0.9238 -0.0000
vn 0.0482 -0.0663 0.9966
vn -0.3090 -0.9511 -0.0000
vn 0.9238 0.3829 -0.0000
vn 0.0230 -0.0709 -0.9972
vn 0.9724 0.2332 -0.0000
vn -0.0229 0.0706 0.9972
vn 0.8090 -0.5878 -0.0000
vn 0.3090 0.9511 -0.0000
vn -0.9969 0.0787 -0.0000
vn 0.0480 0.0660 -0.9967
vn -0.8527 0.5223 -0.0000
vn -0.0780 -0.0253 0.9966
vn 0.5878 0.8090 -0.0000
vn 0.5223 -0.8527 -0.0000
vn 0.0230 0.0709 -0.9972
vn 0.9724 -0.2332 -0.0000
vn -0.7603 0.6496 -0.0000
vn -0.0000 -1.0000 -0.0000
vn -0.3829 0.9238 -0.0000
vn -0.0480 -0.0660 -0.9967
vn 0.7603 -0.6496 -0.0000
vn 0.0482 0.0663 0.9966
vn -0.5223 -0.8528 -0.0000
vn 0.0603 0.0438 -0.9972
vn -0.5223 0.8528 -0.0000
vn 0.0600 0.0436 0.9972
vn 0.9511 -0.3090 -0.0000
vn 0.8527 0.5223 -0.0000
vn 0.0776 0.0252 -0.9967
vn -0.2332 0.9724 -0.0000
vn -0.0780 0.0253 0.9966
vn -0.9511 0.3090 -0.0000
vn -0.0787 -0.9969 -0.0000
vn -0.0600 -0.0436 0.9972
vn -0.9724 0.2332 -0.0000
vn -0.0229 -0.0706 0.9972
vn -0.3829 -0.9238 -0.0000
vn -0.0603 -0.0438 -0.9972
vn 0.3829 0.9238 -0.0000
vn -0.0000 -0.0820 0.9966
vn 0.7071 -0.7071 -0.0000
vn -0.0787 0.9969 -0.0000
vn -0.0600 0.0436 0.9972
vn 0.6496 0.7603 -0.0000
vn -0.0742 -0.0000 0.9972
vn 0.9511 0.3090 -0.0000
vn -0.7603 -0.6496 -0.0000
vn -0.0776 0.0252 -0.9967
vn 0.2332 -0.9724 -0.0000
vn -0.0482 0.0663 0.9966
vn -0.0000 -0.0000 -1.0000
vn 0.5223 0.8527 -0.0000
vn 0.0600 -0.0436 0.9972
vn -0.9724 -0.2332 -0.0000
vn 0.0229 -0.0706 0.9972
vn 0.7071 0.7071 -0.0000
vn 1.0000 -0.0000 -0.0000
vn -0.6496 -0.7603 -0.0000
vn -0.5878 0.8090 -0.0000
vn 0.3090 -0.9511 -0.0000
vt 0.133064 0.419645
vt 0.133064 0.580758
vt 0.033315 0.688011
vt 0.906217 0.688011
vt 0.805067 0.698479
vt 0.288364 0.691533
vt 0.288251 0.750149
vt 0.804971 0.747958
vt 0.683605 0.023591
vt 0.683605 0.396245
vt 0.367102 0.419718
vt 0.367102 0.000000
vt 0.806257 0.752532
vt 0.806371 0.693916
vt 0.287062 0.696096
vt 0.286966 0.745574
vt 0.431409 0.580758
vt 0.568591 0.580758
vt 0.568591 0.419645
vt 0.431409 0.419645
vt 0.871284 0.751922
vt 0.444161 0.755219
vt 0.638864 0.730721
vt 0.677065 0.730653
vt 0.175455 0.580355
vt 0.175455 0.419242
vt 0.049045 0.409042
vt 0.049045 0.590504
vt 0.828638 0.451723
vt 0.309347 0.444765
vt 0.309234 0.503381
vt 0.828543 0.501202
vt 0.000000 0.815846
vt 0.000000 0.443192
vt 0.316503 0.419719
vt 0.316503 0.839437
vt 0.826285 0.999489
vt 0.826399 0.940873
vt 0.309680 0.943064
vt 0.309584 0.992543
vt 0.547104 0.580355
vt 0.677572 0.580355
vt 0.677572 0.419242
vt 0.547104 0.419242
vt 0.339201 0.659422
vt 0.549121 0.659422
vt 0.549122 0.885684
vt 0.339200 0.885684
vt 0.246213 0.419645
vt 0.246213 0.580758
vt 0.142179 0.590958
vt 0.142179 0.409496
vt 0.288744 0.494043
vt 0.288632 0.552659
vt 0.805351 0.550468
vt 0.805446 0.500989
vt 0.165579 0.419645
vt 0.165579 0.580758
vt 0.048890 0.590958
vt 0.048890 0.409496
vt 0.807592 0.061318
vt 0.807706 0.002702
vt 0.288397 0.004882
vt 0.288300 0.054360
vt 0.341812 0.580355
vt 0.230830 0.580355
vt 0.230830 0.419242
vt 0.341812 0.419242
vt 0.146100 0.493799
vt 0.313451 0.493799
vt 0.246345 0.681811
vt 0.214447 0.681764
vt 0.753787 0.419242
vt 0.753787 0.580355
vt 0.035497 0.371618
vt 0.908399 0.371617
vt 0.308966 0.642255
vt 0.308854 0.700870
vt 0.828162 0.698691
vt 0.828258 0.649213
vt 0.287536 0.449339
vt 0.806828 0.456298
vt 0.806942 0.397682
vt 0.287632 0.399861
vt 0.309728 0.247275
vt 0.309615 0.305891
vt 0.828925 0.303712
vt 0.829018 0.254233
vt 0.339201 0.328176
vt 0.243258 0.518345
vt 0.243258 0.469254
vt 0.607412 0.894110
vt 0.607412 0.943741
vt 0.402918 0.943741
vt 0.402918 0.894110
vt 0.000000 0.815963
vt 0.000000 0.443309
vt 0.316504 0.419718
vt 0.316504 0.839436
vt 0.289125 0.296553
vt 0.289012 0.355169
vt 0.805730 0.352978
vt 0.805826 0.303500
vt 0.286774 0.844319
vt 0.806066 0.851277
vt 0.806180 0.792661
vt 0.286871 0.794840
vt 0.658188 0.580355
vt 0.769170 0.580355
vt 0.769170 0.419242
vt 0.658188 0.419242
vt 0.444161 0.232380
vt 0.246345 0.305788
vt 0.249458 0.256878
vt 0.136467 0.419242
vt 0.136467 0.580355
vt 0.000053 0.590504
vt 0.000053 0.409042
vt 0.308777 0.741000
vt 0.308663 0.799615
vt 0.827971 0.797436
vt 0.828070 0.747958
vt 0.826670 0.801999
vt 0.826783 0.743383
vt 0.310064 0.745574
vt 0.309967 0.795053
vt 0.431409 0.580355
vt 0.568591 0.580355
vt 0.568591 0.419242
vt 0.431409 0.419242
vt 0.549121 0.328176
vt 0.339201 0.101914
vt 0.549121 0.101914
vt 0.136467 0.419645
vt 0.136467 0.580758
vt 0.033315 0.060656
vt 0.906217 0.060656
vt 0.289701 0.000319
vt 0.289586 0.058934
vt 0.806306 0.056744
vt 0.806402 0.007265
vt 0.866936 0.419645
vt 0.866936 0.580758
vt 1.000000 0.590958
vt 1.000000 0.409496
vt 0.805255 0.599734
vt 0.288554 0.592788
vt 0.288441 0.651404
vt 0.805162 0.649213
vt 0.607923 0.349337
vt 0.607923 0.398968
vt 0.403429 0.398968
vt 0.403429 0.349337
vt 0.607412 0.795060
vt 0.607412 0.844691
vt 0.402918 0.844691
vt 0.402918 0.795060
vt 0.316503 0.443192
vt 0.316503 0.815846
vt 0.000000 0.839437
vt 0.000000 0.419719
vt 0.309919 0.148531
vt 0.309806 0.207146
vt 0.829116 0.204967
vt 0.829211 0.155489
vt 0.246213 0.419242
vt 0.246213 0.580355
vt 0.035497 0.824696
vt 0.908399 0.824696
vt 0.310112 0.049786
vt 0.309998 0.108401
vt 0.829307 0.106222
vt 0.829403 0.056744
vt 0.607412 0.101713
vt 0.607412 0.151344
vt 0.402918 0.151344
vt 0.402918 0.101713
vt 0.806211 0.106010
vt 0.289508 0.099064
vt 0.289395 0.157679
vt 0.806112 0.155488
vt 0.175455 0.419645
vt 0.175455 0.580758
vt 0.033315 0.779240
vt 0.906217 0.779240
vt 0.806448 0.653787
vt 0.806562 0.595172
vt 0.287252 0.597351
vt 0.287156 0.646829
vt 0.607412 0.497912
vt 0.607412 0.547543
vt 0.402918 0.547543
vt 0.402918 0.497912
vt 0.607923 0.943635
vt 0.607923 0.993266
vt 0.403430 0.993266
vt 0.403430 0.943635
vt 0.309158 0.543510
vt 0.309044 0.602126
vt 0.828354 0.599946
vt 0.828449 0.550468
vt 0.683606 0.023474
vt 0.683606 0.396127
vt 0.367102 0.419719
vt 0.367102 0.000000
vt 0.311302 0.103838
vt 0.828005 0.110785
vt 0.828118 0.052169
vt 0.311399 0.054360
vt 0.607923 0.448387
vt 0.607923 0.498018
vt 0.403430 0.498018
vt 0.403429 0.448387
vt 0.906217 0.914958
vt 0.033315 0.914958
vt 0.287982 0.889023
vt 0.287868 0.947638
vt 0.804589 0.945447
vt 0.804685 0.895969
vt 0.834422 0.419645
vt 0.834422 0.580758
vt 0.951110 0.590958
vt 0.951110 0.409496
vt 0.287726 0.350594
vt 0.807019 0.357553
vt 0.807133 0.298937
vt 0.287822 0.301116
vt 0.871284 0.235676
vt 0.677065 0.256945
vt 0.638864 0.256878
vt 0.607412 0.398862
vt 0.607412 0.448493
vt 0.402918 0.448493
vt 0.402918 0.398862
vt 0.834422 0.580355
vt 0.834422 0.419242
vt 0.908399 0.327051
vt 0.035497 0.327051
vt 0.827685 0.945448
vt 0.308393 0.938489
vt 0.308279 0.997105
vt 0.827589 0.994926
vt 0.133064 0.419242
vt 0.133064 0.580355
vt 0.000000 0.590504
vt 0.000000 0.409042
vt 0.607923 0.844585
vt 0.607923 0.894216
vt 0.403430 0.894216
vt 0.403430 0.844585
vt 0.633805 0.419718
vt 0.633805 0.792371
vt 0.316504 0.792371
vt 0.824545 0.419645
vt 0.824545 0.580758
vt 0.950955 0.590958
vt 0.950955 0.409496
vt 0.288934 0.395298
vt 0.288822 0.453914
vt 0.805539 0.451723
vt 0.805635 0.402245
vt 0.753787 0.580758
vt 0.753787 0.419645
vt 0.906216 0.371522
vt 0.033315 0.371522
vt 0.286583 0.943064
vt 0.805875 0.950022
vt 0.805989 0.891406
vt 0.286679 0.893585
vt 0.762633 0.662901
vt 0.762633 0.324698
vt 0.574871 0.493799
vt 0.742222 0.493799
vt 0.165579 0.419242
vt 0.165579 0.580355
vt 0.035497 0.642370
vt 0.908399 0.642370
vt 0.827876 0.846703
vt 0.308585 0.839745
vt 0.308471 0.898360
vt 0.827780 0.896181
vt 0.908399 0.779142
vt 0.035497 0.779142
vt 0.826479 0.900744
vt 0.826592 0.842128
vt 0.309872 0.844319
vt 0.309776 0.893798
vt 0.769170 0.580758
vt 0.658188 0.580758
vt 0.658188 0.419645
vt 0.769170 0.419645
vt 0.607412 0.200763
vt 0.607412 0.250394
vt 0.402918 0.250394
vt 0.402918 0.200763
vt 0.906217 0.551276
vt 0.033315 0.551276
vt 0.288173 0.790278
vt 0.288060 0.848893
vt 0.804780 0.846702
vt 0.804876 0.797224
vt 0.000000 0.409496
vt 0.000000 0.590958
vt 0.807208 0.258808
vt 0.807322 0.200192
vt 0.288013 0.202371
vt 0.287917 0.251850
vt 0.322428 0.580758
vt 0.452896 0.580758
vt 0.452896 0.419645
vt 0.322428 0.419645
vt 0.607412 0.696011
vt 0.607412 0.745642
vt 0.402918 0.745642
vt 0.402918 0.696011
vt 0.863533 0.580355
vt 0.863533 0.419242
vt 0.908399 0.238396
vt 0.035497 0.238396
vt 0.827429 0.407019
vt 0.827543 0.348404
vt 0.310824 0.350595
vt 0.310728 0.400073
vt 0.367102 0.396127
vt 0.367102 0.023474
vt 0.683606 0.000000
vt 0.683606 0.419719
vt 0.827241 0.505764
vt 0.827354 0.447149
vt 0.310633 0.449340
vt 0.310539 0.498818
vt 0.645064 0.518345
vt 0.669716 0.518356
vt 0.607923 0.745536
vt 0.607923 0.795167
vt 0.403430 0.795167
vt 0.403430 0.745536
vt 0.950955 0.409496
vt 0.950955 0.590958
vt 0.828829 0.352978
vt 0.309537 0.346020
vt 0.309424 0.404636
vt 0.828734 0.402457
vt 0.049045 0.409496
vt 0.049045 0.590958
vt 0.806640 0.555042
vt 0.806751 0.496427
vt 0.287441 0.498606
vt 0.287347 0.548084
vt 0.641976 0.305788
vt 0.017038 0.751922
vt 0.999947 0.590504
vt 0.999947 0.409042
vt 0.311109 0.202583
vt 0.827811 0.209530
vt 0.827927 0.150914
vt 0.311206 0.153105
vt 0.246213 0.419242
vt 0.142179 0.409042
vt 0.142179 0.590504
vt 0.827620 0.308275
vt 0.827734 0.249659
vt 0.311014 0.251850
vt 0.310919 0.301328
vt 0.547104 0.580758
vt 0.677572 0.580758
vt 0.677572 0.419645
vt 0.547104 0.419645
vt 0.607412 0.299812
vt 0.607412 0.349443
vt 0.402918 0.349443
vt 0.402918 0.299812
vt 0.033315 0.596804
vt 0.906217 0.596804
vt 0.806017 0.204755
vt 0.289316 0.197809
vt 0.289203 0.256424
vt 0.805921 0.254233
vt 0.807401 0.160063
vt 0.807515 0.101447
vt 0.288205 0.103626
vt 0.288109 0.153105
vt 0.214447 0.305835
vt 0.017038 0.235676
vt 0.211257 0.256945
vt 0.645064 0.469254
vt 0.951110 0.590504
vt 0.951110 0.409042
vt 0.310158 0.696308
vt 0.826861 0.703254
vt 0.826972 0.644639
vt 0.310254 0.646829
vt 0.908399 0.060560
vt 0.035497 0.060560
vt 0.310348 0.597563
vt 0.827050 0.604509
vt 0.827163 0.545894
vt 0.310444 0.548084
vt 0.230830 0.580758
vt 0.341812 0.580758
vt 0.341812 0.419645
vt 0.230830 0.419645
vt 0.322428 0.580355
vt 0.452896 0.580355
vt 0.452896 0.419242
vt 0.322428 0.419242
vt 0.125689 0.324698
vt 0.125689 0.100981
vt 0.673875 0.305835
vt 0.762633 0.100981
vt 0.607923 0.250287
vt 0.607923 0.299919
vt 0.403429 0.299919
vt 0.403429 0.250287
vt 0.979935 0.100981
vt 0.607923 0.646486
vt 0.607923 0.696117
vt 0.403430 0.700054
vt 0.403430 0.649946
vt 0.125689 0.662901
vt 0.218606 0.518356
vt 0.218606 0.469243
vt 0.607923 0.151238
vt 0.607923 0.200869
vt 0.403429 0.200869
vt 0.403429 0.151238
vt 0.753787 0.419242
vt 0.857821 0.409042
vt 0.857821 0.590504
vt 0.211257 0.730653
vt 0.249458 0.730721
vt 0.658188 0.580758
vt 0.769170 0.580758
vt 0.341812 0.580758
vt 0.230830 0.580758
vt 0.762633 0.886618
vt 0.979935 0.662901
vt 0.979935 0.886618
vt 0.125689 0.886618
vt 0.607923 0.052188
vt 0.607923 0.101819
vt 0.403429 0.101819
vt 0.403429 0.052188
vt 0.673875 0.681764
vt 0.641976 0.681811
vt 0.607412 0.002663
vt 0.607412 0.052295
vt 0.402918 0.052295
vt 0.402918 0.002663
vt 0.607923 0.547436
vt 0.607923 0.597067
vt 0.403430 0.597067
vt 0.403430 0.547436
vt 0.669716 0.469243
vt 0.607412 0.596961
vt 0.607412 0.646592
vt 0.402918 0.646592
vt 0.402918 0.596961
vt 0.316503 0.419719
vt 0.633804 0.419719
vt 0.633804 0.792372
vt 0.316503 0.792372
vt 0.316503 0.419719
vt 0.633805 0.419719
vt 0.633805 0.792372
vt 0.316503 0.792372
vt 0.979935 0.324698
s 0
usemtl Material.002
f 119/1/1 121/2/1 120/3/1 118/4/1
f 115/5/2 116/6/2 119/7/2 118/8/2
f 85/9/3 84/10/3 83/11/3 82/12/3
f 121/13/4 117/14/4 114/15/4 120/16/4
f 5/17/5 9/18/5 7/19/5 4/20/5
f 207/21/6 209/22/6 208/23/6 206/24/6
f 157/25/7 156/26/7 155/27/7 154/28/7
f 75/29/8 76/30/8 79/31/8 78/32/8
f 95/33/9 97/34/9 96/35/9 94/36/9
f 161/37/10 157/38/10 154/39/10 160/40/10
f 13/41/11 17/42/11 15/43/11 12/44/11
f 201/45/12 197/46/12 194/47/12 200/48/12
f 23/49/13 25/50/13 24/51/13 22/52/13
f 84/53/14 87/54/14 86/55/14 83/56/14
f 151/57/15 153/58/15 152/59/15 150/60/15
f 9/61/16 5/62/16 2/63/16 8/64/16
f 141/65/17 145/66/17 143/67/17 140/68/17
f 191/69/18 193/70/18 192/71/18 190/72/18
f 63/73/19 65/74/19 64/75/19 62/76/19
f 108/77/20 111/78/20 110/79/20 107/80/20
f 72/81/21 73/82/21 69/83/21 66/84/21
f 44/85/22 47/86/22 46/87/22 43/88/22
f 185/89/12 181/45/12 178/90/12 184/91/12
f 147/92/23 150/93/23 152/94/23 146/95/23
f 87/96/24 89/97/24 88/98/24 86/99/24
f 52/100/25 55/101/25 54/102/25 51/103/25
f 136/104/26 137/105/26 133/106/26 130/107/26
f 61/108/27 65/109/27 63/110/27 60/111/27
f 177/112/12 173/70/12 170/113/12 176/114/12
f 127/115/28 129/116/28 128/117/28 126/118/28
f 124/119/29 127/120/29 126/121/29 123/122/29
f 125/116/30 124/115/30 123/118/30 122/117/30
f 129/123/31 125/124/31 122/125/31 128/126/31
f 45/127/32 49/128/32 47/129/32 44/130/32
f 169/131/12 165/89/12 162/132/12 168/133/12
f 7/134/33 9/135/33 8/136/33 6/137/33
f 4/138/34 7/139/34 6/140/34 3/141/34
f 39/142/35 41/143/35 40/144/35 38/145/35
f 99/146/36 100/147/36 103/148/36 102/149/36
f 59/150/17 62/151/17 64/152/17 58/153/17
f 131/154/37 134/155/37 136/156/37 130/157/37
f 77/158/38 76/159/38 75/160/38 74/161/38
f 28/162/39 31/163/39 30/164/39 27/165/39
f 143/166/40 145/167/40 144/168/40 142/169/40
f 12/170/41 15/171/41 14/172/41 11/173/41
f 29/66/42 33/65/42 31/68/42 28/67/42
f 19/174/43 22/175/43 24/176/43 18/177/43
f 21/58/44 20/57/44 19/60/44 18/59/44
f 19/178/45 20/179/45 23/180/45 22/181/45
f 135/182/46 137/183/46 136/184/46 134/185/46
f 105/186/47 101/187/47 98/188/47 104/189/47
f 83/190/5 86/191/5 88/192/5 82/193/5
f 155/194/48 158/195/48 160/196/48 154/197/48
f 15/26/49 17/25/49 16/28/49 14/27/49
f 92/198/50 95/199/50 94/200/50 91/201/50
f 93/202/51 92/203/51 91/204/51 90/205/51
f 16/206/52 17/207/52 13/208/52 10/209/52
f 109/109/53 113/108/53 111/111/53 108/110/53
f 75/210/54 78/211/54 80/212/54 74/213/54
f 5/135/55 4/134/55 3/214/55 2/215/55
f 148/216/56 151/217/56 150/218/56 147/219/56
f 71/220/57 73/221/57 72/222/57 70/223/57
f 56/224/58 57/225/58 53/226/58 50/227/58
f 221/112/18 220/228/18 219/229/18 218/230/18
f 67/231/59 70/232/59 72/233/59 66/234/59
f 61/235/60 60/236/60 59/237/60 58/238/60
f 155/239/61 156/240/61 159/241/61 158/242/61
f 159/243/62 161/244/62 160/245/62 158/246/62
f 149/50/63 148/49/63 147/52/63 146/51/63
f 139/247/27 142/248/27 144/249/27 138/250/27
f 85/98/64 89/251/64 87/252/64 84/253/64
f 55/254/65 57/255/65 56/256/65 54/257/65
f 68/258/66 71/259/66 70/260/66 67/261/66
f 69/262/67 68/263/67 67/264/67 66/265/67
f 152/266/68 153/267/68 149/268/68 146/269/68
f 213/131/32 217/46/32 215/270/32 212/271/32
f 205/272/18 209/22/18 207/21/18 204/273/18
f 111/274/69 113/275/69 112/276/69 110/277/69
f 139/278/70 140/279/70 143/280/70 142/281/70
f 141/275/71 140/274/71 139/282/71 138/283/71
f 145/284/72 141/285/72 138/286/72 144/287/72
f 69/288/23 73/289/23 71/290/23 68/291/23
f 35/292/73 38/293/73 40/294/73 34/295/73
f 101/221/74 100/220/74 99/296/74 98/297/74
f 132/298/75 135/299/75 134/300/75 131/301/75
f 133/2/76 132/1/76 131/302/76 130/303/76
f 41/304/77 37/305/77 34/306/77 40/307/77
f 37/308/78 41/309/78 39/310/78 36/311/78
f 115/312/78 118/313/78 120/314/78 114/315/78
f 45/316/79 44/317/79 43/318/79 42/319/79
f 65/320/80 61/321/80 58/322/80 64/323/80
f 79/324/81 81/325/81 80/326/81 78/327/81
f 81/328/82 77/329/82 74/330/82 80/331/82
f 215/270/5 217/46/5 216/332/5 214/333/5
f 123/334/32 126/335/32 128/336/32 122/337/32
f 37/255/83 36/254/83 35/338/83 34/339/83
f 59/340/84 60/341/84 63/342/84 62/343/84
f 117/183/85 116/182/85 115/344/85 114/345/85
f 89/346/86 85/347/86 82/348/86 88/349/86
f 224/350/12 225/272/12 221/112/12 218/230/12
f 189/22/87 193/70/87 191/69/87 188/351/87
f 47/317/88 49/316/88 48/352/88 46/353/88
f 32/354/89 33/355/89 29/356/89 26/357/89
f 109/167/90 108/358/90 107/359/90 106/360/90
f 49/361/91 45/362/91 42/363/91 48/364/91
f 53/365/37 57/366/37 55/367/37 52/368/37
f 51/369/92 54/370/92 56/371/92 50/372/92
f 103/263/93 105/262/93 104/373/93 102/374/93
f 35/375/94 36/376/94 39/377/94 38/378/94
f 53/143/95 52/142/95 51/145/95 50/144/95
f 25/379/96 21/380/96 18/381/96 24/382/96
f 171/383/97 172/69/97 175/384/97 174/385/97
f 217/46/12 213/131/12 210/386/12 216/332/12
f 31/236/98 33/235/98 32/387/98 30/388/98
f 112/389/99 113/390/99 109/391/99 106/392/99
f 13/244/100 12/243/100 11/393/100 10/394/100
f 96/395/101 97/396/101 93/397/101 90/398/101
f 133/309/92 137/308/92 135/311/92 132/310/92
f 149/399/59 153/400/59 151/401/59 148/402/59
f 157/403/54 161/404/54 159/405/54 156/406/54
f 165/89/32 164/407/32 163/408/32 162/132/32
f 223/273/102 225/272/102 224/350/102 222/409/102
f 167/271/103 169/131/103 168/133/103 166/410/103
f 43/411/103 46/412/103 48/413/103 42/414/103
f 163/415/64 166/410/64 168/133/64 162/132/64
f 165/89/5 169/131/5 167/271/5 164/407/5
f 117/366/73 121/365/73 119/368/73 116/367/73
f 173/70/6 172/69/6 171/383/6 170/113/6
f 107/416/42 110/417/42 112/418/42 106/419/42
f 175/384/87 177/112/87 176/114/87 174/385/87
f 171/383/18 174/385/18 176/114/18 170/113/18
f 173/70/102 177/112/102 175/384/102 172/69/102
f 181/45/5 180/420/5 179/421/5 178/90/5
f 180/420/97 183/407/97 182/422/97 179/421/97
f 219/229/87 222/409/87 224/350/87 218/230/87
f 27/423/53 30/424/53 32/425/53 26/426/53
f 179/421/32 182/422/32 184/91/32 178/90/32
f 181/45/103 185/89/103 183/407/103 180/420/103
f 29/74/104 28/427/104 27/428/104 26/429/104
f 189/22/102 188/351/102 187/430/102 186/431/102
f 187/430/97 188/351/97 191/69/97 190/72/97
f 21/432/105 25/433/105 23/291/105 20/290/105
f 101/434/43 105/435/43 103/402/43 100/401/43
f 187/430/6 190/72/6 192/71/6 186/431/6
f 197/46/103 196/270/103 195/436/103 194/47/103
f 196/270/97 199/437/97 198/438/97 195/436/97
f 199/420/32 201/45/32 200/48/32 198/439/32
f 11/440/106 14/441/106 16/442/106 10/443/106
f 195/436/5 198/439/5 200/48/5 194/47/5
f 197/46/64 201/45/64 199/437/64 196/270/64
f 193/70/12 189/22/12 186/431/12 192/71/12
f 205/272/87 204/273/87 203/444/87 202/445/87
f 204/273/97 207/21/97 206/24/97 203/444/97
f 3/446/64 6/447/64 8/448/64 2/449/64
f 91/450/11 94/451/11 96/452/11 90/453/11
f 203/444/102 206/24/102 208/23/102 202/445/102
f 213/131/64 212/271/64 211/454/64 210/386/64
f 99/455/105 102/456/105 104/457/105 98/458/105
f 211/454/103 214/333/103 216/332/103 210/386/103
f 125/128/103 129/127/103 127/130/103 124/129/103
f 93/459/106 97/460/106 95/461/106 92/462/106
f 77/463/48 81/464/48 79/465/48 76/466/48
f 209/22/12 205/272/12 202/445/12 208/23/12
f 164/467/97 167/271/97 166/410/97 163/415/97
f 220/228/97 223/273/97 222/409/97 219/229/97
f 183/407/64 185/89/64 184/91/64 182/422/64
f 212/271/97 215/270/97 214/333/97 211/454/97
f 221/112/6 225/272/6 223/273/6 220/228/6
o Cube
v 0.091418 0.091775 -0.499882
v 0.091418 -0.091775 -0.499882
v 0.091418 0.091775 0.499882
v 0.091418 -0.091775 0.499882
v -0.091418 0.091775 -0.499882
v -0.091418 -0.091775 -0.499882
v -0.091418 0.091775 0.499882
v -0.091418 -0.091775 0.499882
v -0.055609 0.055826 -0.312722
v 0.055609 0.055826 -0.312722
v -0.055609 -0.055826 -0.312722
v 0.055609 -0.055826 -0.312722
v -0.055609 -0.055826 0.312722
v 0.055609 -0.055826 0.312722
v -0.055609 0.055826 0.312722
v 0.055609 0.055826 0.312722
v -0.045992 -0.092965 -0.388098
v -0.045992 -0.092965 0.388098
v -0.045992 0.092965 -0.388098
v -0.045992 0.092965 0.388098
v 0.045992 -0.092965 -0.388098
v -0.092603 0.046172 -0.388097
v -0.092603 0.046172 0.388097
v 0.045992 -0.092965 0.388098
v 0.045992 0.092965 -0.388098
v 0.045992 0.092965 0.388098
v -0.092603 -0.046172 -0.388097
v -0.092603 -0.046172 0.388097
v 0.092603 0.046172 -0.388097
v 0.092603 0.046172 0.388097
v 0.092603 -0.046172 -0.388097
v 0.092603 -0.046172 0.388097
v 0.063996 0.126484 -0.176054
v 0.063996 0.126484 0.176054
v -0.063996 0.126484 -0.176054
v -0.063996 0.126484 0.176054
v -0.073764 -0.074053 -0.141535
v -0.073764 -0.074053 0.141535
v -0.125993 -0.064246 -0.176054
v -0.125993 -0.064246 0.176054
v 0.073764 -0.074053 -0.141535
v 0.073764 -0.074053 0.141535
v 0.125993 -0.064246 -0.176054
v 0.125993 -0.064246 0.176054
v -0.063996 -0.126484 -0.176054
v -0.063996 -0.126484 0.176054
v 0.073764 0.074053 -0.141535
v 0.073764 0.074053 0.141535
v 0.063996 -0.126484 -0.176054
v 0.063996 -0.126484 0.176054
v 0.125993 0.064246 -0.176054
v 0.125993 0.064246 0.176054
v -0.073764 0.074053 -0.141535
v -0.073764 0.074053 0.141535
v -0.125993 0.064246 -0.176054
v -0.125993 0.064246 0.176054
vn -0.0000 0.9877 -0.1561
vn 0.6838 0.6811 -0.2617
vn 0.9999 -0.0000 -0.0106
vn -0.0000 -0.9999 0.0106
vn -0.0862 -0.9907 -0.1054
vn 0.0862 -0.9907 0.1054
vn -0.6838 0.6811 -0.2617
vn -0.0000 0.9999 -0.0106
vn -0.6838 0.6811 0.2617
vn 0.6838 0.6811 0.2617
vn 0.6838 -0.6811 -0.2617
vn 0.6838 -0.6811 0.2617
vn -0.0000 -0.0000 1.0000
vn -0.9908 -0.0856 0.1050
vn -0.6838 -0.6811 0.2617
vn -0.9999 -0.0000 -0.0106
vn 0.9999 -0.0000 0.0106
vn -0.0000 -0.9999 -0.0106
vn -0.0000 0.9999 0.0106
vn -0.9999 -0.0000 0.0106
vn 0.9908 0.0856 0.1050
vn -0.6838 -0.6811 -0.2617
vn 0.9908 -0.0856 -0.1050
vn 0.9878 -0.0000 -0.1556
vn 0.0862 0.9907 -0.1054
vn -0.9908 0.0856 -0.1050
vn -0.0000 -0.0000 -1.0000
vn -0.0862 0.9907 0.1054
vn -0.9878 -0.0000 -0.1556
vn -0.0000 -0.9877 -0.1561
vn -0.0000 -0.9877 0.1561
vn -0.0000 -1.0000 -0.0000
vn -0.9878 -0.0000 0.1556
vn -1.0000 -0.0000 -0.0000
vn -0.0862 0.9907 -0.1054
vn -0.1846 0.9828 -0.0000
vn -0.9908 0.0856 0.1050
vn -0.9831 0.1832 -0.0000
vn 0.0862 0.9907 0.1054
vn 0.1846 0.9828 -0.0000
vn 0.9878 -0.0000 0.1556
vn 1.0000 -0.0000 -0.0000
vn 0.9908 -0.0856 0.1050
vn 0.9831 -0.1832 -0.0000
vn 0.9908 0.0856 -0.1050
vn 0.9831 0.1832 -0.0000
vn -0.9908 -0.0856 -0.1050
vn -0.9831 -0.1832 -0.0000
vn 0.0862 -0.9907 -0.1054
vn 0.1846 -0.9828 -0.0000
vn -0.0862 -0.9907 0.1054
vn -0.1846 -0.9828 -0.0000
vn -0.0000 0.9877 0.1561
vn -0.0000 1.0000 -0.0000
vt 0.727146 0.391658
vt 0.727146 0.174974
vt 0.272854 0.174974
vt 0.272854 0.391658
vt 0.945503 0.825026
vt 0.753666 0.716310
vt 0.727146 0.825026
vt 0.927924 0.945503
vt 0.927924 0.054497
vt 0.945503 0.174974
vt 0.272854 0.825026
vt 0.072076 0.945503
vt 0.246335 0.427897
vt 0.054497 0.391658
vt 0.054497 0.174974
vt 0.246335 0.283690
vt 0.753666 0.572103
vt 0.945503 0.608342
vt 0.246335 0.716310
vt 0.054497 0.825026
vt 0.072076 0.054497
vt 0.753666 0.283690
vt 0.246335 0.572103
vt 0.272854 0.608342
vt 0.753666 0.572103
vt 0.727146 0.608342
vt 0.753666 0.427897
vt 0.727146 0.391658
vt 0.945503 0.391658
vt 0.945503 0.391658
vt 0.753666 0.427897
vt 0.246335 0.427897
vt 0.246335 0.572103
vt 0.054497 0.608342
vt 0.727146 0.608342
vt 0.054497 0.608342
vt 0.272854 0.608342
vt 0.945503 0.608342
s 0
usemtl Material
f 258/468/107 250/469/107 244/470/107 260/471/107
f 255/472/108 241/473/108 251/474/108 228/475/108
f 226/476/109 254/477/109 256/477/109 227/476/109
f 243/478/110 249/474/110 229/475/110 233/479/110
f 262/480/111 264/481/111 252/482/111 236/483/111
f 267/484/112 269/485/112 257/472/112 239/473/112
f 240/486/113 248/487/113 232/479/113 245/478/113
f 250/469/114 226/476/114 230/488/114 244/470/114
f 234/483/115 244/470/115 230/488/115 247/482/115
f 250/469/116 235/489/116 254/477/116 226/476/116
f 239/473/117 257/472/117 229/475/117 249/474/117
f 237/489/118 246/469/118 227/476/118 256/477/118
f 229/475/119 228/475/119 232/479/119 233/479/119
f 263/490/120 271/491/120 243/478/120 238/486/120
f 252/482/121 231/488/121 242/470/121 236/483/121
f 252/482/122 247/482/122 230/488/122 231/488/122
f 257/472/123 255/472/123 228/475/123 229/475/123
f 246/469/124 242/470/124 231/488/124 227/476/124
f 228/475/125 251/474/125 245/478/125 232/479/125
f 232/479/126 248/487/126 253/487/126 233/479/126
f 273/492/127 259/493/127 251/474/127 241/473/127
f 233/479/128 253/487/128 238/486/128 243/478/128
f 266/494/129 274/495/129 246/469/129 237/489/129
f 276/496/130 268/497/130 256/477/130 254/477/130
f 276/496/131 254/477/131 235/489/131 272/498/131
f 260/471/132 244/470/132 234/483/132 278/499/132
f 230/488/133 226/476/133 227/476/133 231/488/133
f 279/500/134 281/501/134 248/487/134 240/486/134
f 280/481/135 247/482/135 252/482/135 264/481/135
f 274/495/136 270/471/136 242/470/136 246/469/136
f 249/474/137 243/478/137 271/491/137 275/502/137
f 275/502/138 271/491/138 270/471/138 274/495/138
f 248/487/139 281/501/139 265/503/139 253/487/139
f 281/501/140 280/481/140 264/481/140 265/503/140
f 234/483/141 247/482/141 280/481/141 278/499/141
f 278/499/142 280/481/142 281/501/142 279/500/142
f 245/478/143 261/504/143 279/500/143 240/486/143
f 261/504/144 260/471/144 278/499/144 279/500/144
f 255/472/145 277/505/145 273/492/145 241/473/145
f 277/505/146 276/496/146 272/498/146 273/492/146
f 255/472/147 257/472/147 269/485/147 277/505/147
f 277/505/148 269/485/148 268/497/148 276/496/148
f 239/473/149 249/474/149 275/502/149 267/484/149
f 267/484/150 275/502/150 274/495/150 266/494/150
f 235/489/151 250/469/151 258/468/151 272/498/151
f 272/498/152 258/468/152 259/493/152 273/492/152
f 236/483/153 242/470/153 270/471/153 262/480/153
f 262/480/154 270/471/154 271/491/154 263/490/154
f 237/489/155 256/477/155 268/497/155 266/494/155
f 266/494/156 268/497/156 269/485/156 267/484/156
f 238/486/157 253/487/157 265/503/157 263/490/157
f 263/490/158 265/503/158 264/481/158 262/480/158
f 251/474/159 259/493/159 261/504/159 245/478/159
f 259/493/160 258/468/160 260/471/160 261/504/160
