# Blender 4.2.3 LTS
# www.blender.org
mtllib flywheel.mtl
o fly_wheel
v -0.060681 -0.062209 -0.268187
v -0.060681 -0.393459 0.138063
v -0.060681 -0.393459 -0.111937
v -0.060681 -0.330959 -0.111937
v -0.060681 -0.330959 0.138063
v 0.064319 -0.393459 -0.111937
v 0.064319 -0.330959 -0.111937
v 0.064319 -0.393459 0.138063
v 0.064319 -0.330959 0.138063
v 0.064053 -0.393501 0.137438
v 0.064053 -0.393501 -0.112562
v 0.044740 -0.334060 -0.112562
v 0.044740 -0.334060 0.137438
v 0.182935 -0.354874 -0.112562
v 0.163622 -0.295433 -0.112562
v 0.182935 -0.354874 0.137438
v 0.163622 -0.295433 0.137438
v 0.182696 -0.354996 0.138063
v 0.182696 -0.354996 -0.111937
v 0.145959 -0.304432 -0.111937
v 0.145959 -0.304432 0.138063
v 0.283823 -0.281523 -0.111937
v 0.247086 -0.230959 -0.111937
v 0.283823 -0.281523 0.138063
v 0.247086 -0.230959 0.138063
v 0.283633 -0.281713 0.137438
v 0.283633 -0.281713 -0.112562
v 0.233069 -0.244976 -0.112562
v 0.233069 -0.244976 0.137438
v 0.357106 -0.180586 -0.112562
v 0.306543 -0.143849 -0.112562
v 0.357106 -0.180586 0.137438
v 0.306543 -0.143849 0.137438
v 0.356984 -0.180825 0.138063
v 0.356984 -0.180825 -0.111937
v 0.297543 -0.161512 -0.111937
v 0.297543 -0.161512 0.138063
v 0.395611 -0.061943 -0.111937
v 0.336170 -0.042630 -0.111937
v 0.395611 -0.061943 0.138063
v 0.336170 -0.042630 0.138063
v 0.395569 -0.062209 0.137438
v 0.395569 -0.062209 -0.112562
v 0.333069 -0.062209 -0.112562
v 0.333069 -0.062209 0.137438
v 0.395569 0.062791 -0.112562
v 0.333069 0.062791 -0.112562
v 0.395569 0.062791 0.137438
v 0.333069 0.062791 0.137438
v 0.395611 0.062525 0.138063
v 0.395611 0.062525 -0.111937
v 0.336170 0.043212 -0.111937
v 0.336170 0.043212 0.138063
v 0.356984 0.181407 -0.111937
v 0.297543 0.162094 -0.111937
v 0.356984 0.181407 0.138063
v 0.297543 0.162094 0.138063
v 0.357106 0.181168 0.137438
v 0.357106 0.181168 -0.112562
v 0.306543 0.144431 -0.112562
v 0.306543 0.144431 0.137438
v 0.283633 0.282295 -0.112562
v 0.233069 0.245558 -0.112562
v 0.283633 0.282295 0.137438
v 0.233069 0.245558 0.137438
v 0.283823 0.282105 0.138063
v 0.283823 0.282105 -0.111937
v 0.247086 0.231541 -0.111937
v 0.247086 0.231541 0.138063
v 0.182696 0.355578 -0.111937
v 0.145959 0.305015 -0.111937
v 0.182696 0.355578 0.138063
v 0.145959 0.305015 0.138063
v 0.182935 0.355456 0.137438
v 0.182935 0.355456 -0.112562
v 0.163622 0.296015 -0.112562
v 0.163622 0.296015 0.137438
v 0.064053 0.394083 -0.112562
v 0.044740 0.334642 -0.112562
v 0.064053 0.394083 0.137438
v 0.044740 0.334642 0.137438
v 0.064319 0.394041 0.138063
v 0.064319 0.394041 -0.111937
v 0.064319 0.331541 -0.111937
v 0.064319 0.331541 0.138063
v -0.060681 0.394041 -0.111937
v -0.060681 0.331541 -0.111937
v -0.060681 0.394041 0.138063
v -0.060681 0.331541 0.138063
v -0.060415 0.394083 0.137438
v -0.060415 0.394083 -0.112562
v -0.041102 0.334642 -0.112562
v -0.041102 0.334642 0.137438
v -0.179297 0.355456 -0.112562
v -0.159984 0.296015 -0.112562
v -0.179297 0.355456 0.137438
v -0.159984 0.296015 0.137438
v -0.179058 0.355578 0.138063
v -0.179058 0.355578 -0.111937
v -0.142321 0.305015 -0.111937
v -0.142321 0.305015 0.138063
v -0.280185 0.282105 -0.111937
v -0.243448 0.231541 -0.111937
v -0.280185 0.282105 0.138063
v -0.243448 0.231541 0.138063
v -0.279995 0.282295 0.137438
v -0.279995 0.282295 -0.112562
v -0.229431 0.245558 -0.112562
v -0.229431 0.245558 0.137438
v -0.353468 0.181168 -0.112562
v -0.302904 0.144431 -0.112562
v -0.353468 0.181168 0.137438
v -0.302904 0.144431 0.137438
v -0.353346 0.181407 0.138063
v -0.353346 0.181407 -0.111937
v -0.293905 0.162094 -0.111937
v -0.293905 0.162094 0.138063
v -0.391973 0.062525 -0.111937
v -0.332532 0.043212 -0.111937
v -0.391973 0.062525 0.138063
v -0.332532 0.043212 0.138063
v -0.391931 0.062791 0.137438
v -0.391931 0.062791 -0.112562
v -0.329431 0.062791 -0.112562
v -0.329431 0.062791 0.137438
v -0.391931 -0.062209 -0.112562
v -0.329431 -0.062209 -0.112562
v -0.391931 -0.062209 0.137438
v -0.329431 -0.062209 0.137438
v -0.391973 -0.061943 0.138063
v -0.391973 -0.061943 -0.111937
v -0.332532 -0.042630 -0.111937
v -0.332532 -0.042630 0.138063
v -0.353346 -0.180825 -0.111937
v -0.293905 -0.161512 -0.111937
v -0.353346 -0.180825 0.138063
v -0.293905 -0.161512 0.138063
v -0.353468 -0.180586 0.137438
v -0.353468 -0.180586 -0.112562
v -0.302904 -0.143849 -0.112562
v -0.302904 -0.143849 0.137438
v -0.279995 -0.281713 -0.112562
v -0.229431 -0.244976 -0.112562
v -0.279995 -0.281713 0.137438
v -0.229431 -0.244976 0.137438
v -0.280185 -0.281523 0.138063
v -0.280185 -0.281523 -0.111937
v -0.243448 -0.230959 -0.111937
v -0.243448 -0.230959 0.138063
v -0.179058 -0.354996 -0.111937
v -0.142321 -0.304432 -0.111937
v -0.179058 -0.354996 0.138063
v -0.142321 -0.304432 0.138063
v -0.179297 -0.354874 0.137438
v -0.179297 -0.354874 -0.112562
v -0.159984 -0.295433 -0.112562
v -0.159984 -0.295433 0.137438
v -0.060415 -0.393501 -0.112562
v -0.041102 -0.334060 -0.112562
v -0.060415 -0.393501 0.137438
v -0.041102 -0.334060 0.137438
v -0.029431 -0.343459 0.044938
v -0.029431 -0.343459 -0.017562
v -0.029431 -0.030959 -0.017562
v -0.029431 -0.030959 0.044938
v 0.033069 -0.343459 -0.017562
v 0.033069 -0.030959 -0.017562
v 0.033069 -0.343459 0.044938
v 0.033069 -0.030959 0.044938
v -0.263346 -0.220680 0.043688
v -0.263346 -0.220680 -0.018812
v -0.042375 0.000291 -0.018812
v -0.042375 0.000291 0.043688
v -0.219152 -0.264874 -0.018812
v 0.001819 -0.043903 -0.018812
v -0.219152 -0.264874 0.043688
v 0.001819 -0.043903 0.043688
v -0.341931 0.031541 0.044938
v -0.341931 0.031541 -0.017562
v -0.029431 0.031541 -0.017562
v -0.029431 0.031541 0.044938
v -0.341931 -0.030959 -0.017562
v -0.029431 -0.030959 -0.017562
v -0.341931 -0.030959 0.044938
v -0.029431 -0.030959 0.044938
v -0.219152 0.265456 0.043688
v -0.219152 0.265456 -0.018812
v 0.001819 0.044485 -0.018812
v 0.001819 0.044485 0.043688
v -0.263346 0.221262 -0.018812
v -0.042375 0.000291 -0.018812
v -0.263346 0.221262 0.043688
v -0.042375 0.000291 0.043688
v 0.033069 0.344041 0.044938
v 0.033069 0.344041 -0.017562
v 0.033069 0.031541 -0.017562
v 0.033069 0.031541 0.044938
v -0.029431 0.344041 -0.017562
v -0.029431 0.031541 -0.017562
v -0.029431 0.344041 0.044938
v -0.029431 0.031541 0.044938
v 0.266984 0.221262 0.043688
v 0.266984 0.221262 -0.018812
v 0.046013 0.000291 -0.018812
v 0.046013 0.000291 0.043688
v 0.222790 0.265456 -0.018812
v 0.001819 0.044485 -0.018812
v 0.222790 0.265456 0.043688
v 0.001819 0.044485 0.043688
v 0.345569 -0.030959 0.044938
v 0.345569 -0.030959 -0.017562
v 0.033069 -0.030959 -0.017562
v 0.033069 -0.030959 0.044938
v 0.345569 0.031541 -0.017562
v 0.033069 0.031541 -0.017562
v 0.345569 0.031541 0.044938
v 0.033069 0.031541 0.044938
v 0.222790 -0.264874 0.043688
v 0.222790 -0.264874 -0.018812
v 0.001819 -0.043903 -0.018812
v 0.001819 -0.043903 0.043688
v 0.266984 -0.220680 -0.018812
v 0.046013 0.000291 -0.018812
v 0.266984 -0.220680 0.043688
v 0.046013 0.000291 0.043688
vn -0.0000 -0.0000 -1.0000
vn 1.0000 -0.0000 -0.0000
vn -0.0000 -0.0000 1.0000
vn -0.0000 -1.0000 -0.0000
vn -0.0000 1.0000 -0.0000
vn -0.9511 -0.3090 -0.0000
vn 0.7071 -0.7071 -0.0000
vn 0.7071 0.7071 -0.0000
vn -0.3090 0.9511 -0.0000
vn -0.8090 -0.5878 -0.0000
vn -0.7071 -0.7071 -0.0000
vn -1.0000 -0.0000 -0.0000
vn -0.5878 0.8090 -0.0000
vn -0.5878 -0.8090 -0.0000
vn -0.8090 0.5878 -0.0000
vn -0.3090 -0.9511 -0.0000
vn -0.9511 0.3090 -0.0000
vn 0.3090 -0.9511 -0.0000
vn 0.5878 -0.8090 -0.0000
vn -0.7071 0.7071 -0.0000
vn 0.8090 -0.5878 -0.0000
vn 0.9511 -0.3090 -0.0000
vn 0.9511 0.3090 -0.0000
vn 0.8090 0.5878 -0.0000
vn 0.5878 0.8090 -0.0000
vn 0.3090 0.9511 -0.0000
vt 0.983405 0.397208
vt 0.983405 0.441342
vt 0.961338 0.441342
vt 0.961338 0.397208
vt 0.911732 0.838549
vt 0.911732 0.750281
vt 0.933799 0.750281
vt 0.933799 0.838549
vt 0.983405 0.485476
vt 0.961338 0.485476
vt 0.397208 0.684080
vt 0.353073 0.684080
vt 0.353073 0.595811
vt 0.397208 0.595811
vt 0.441342 0.595811
vt 0.441342 0.684080
vt 0.954786 0.838549
vt 0.954786 0.926818
vt 0.933799 0.926818
vt 0.528356 0.750281
vt 0.512752 0.750281
vt 0.512752 0.728214
vt 0.528356 0.728214
vt 0.845530 0.993019
vt 0.823463 0.993019
vt 0.823463 0.948885
vt 0.845530 0.948885
vt 0.499114 0.960702
vt 0.477047 0.960702
vt 0.477047 0.882683
vt 0.499114 0.882683
vt 0.972639 0.529610
vt 0.972639 0.485476
vt 0.994706 0.485476
vt 0.994706 0.529610
vt 0.703987 0.264805
vt 0.745961 0.264805
vt 0.745961 0.353073
vt 0.703987 0.353073
vt 0.724711 0.750281
vt 0.724711 0.838549
vt 0.706858 0.838549
vt 0.706858 0.750281
vt 0.617878 0.810019
vt 0.639946 0.810019
vt 0.639946 0.888038
vt 0.617878 0.888038
vt 0.129183 0.904751
vt 0.129183 0.948885
vt 0.107116 0.948885
vt 0.107116 0.904751
vt 0.974607 0.242738
vt 0.974607 0.220671
vt 0.996674 0.220671
vt 0.996674 0.242738
vt 0.922498 0.353073
vt 0.922498 0.397208
vt 0.900431 0.397207
vt 0.900431 0.353073
vt 0.214232 0.728214
vt 0.249937 0.728214
vt 0.249937 0.816482
vt 0.214232 0.816482
vt 0.972639 0.750281
vt 0.972639 0.838549
vt 0.954786 0.750281
vt 0.994706 0.684080
vt 0.994706 0.706147
vt 0.972639 0.706147
vt 0.972639 0.684080
vt 0.909571 0.132403
vt 0.909571 0.088268
vt 0.931638 0.088268
vt 0.931639 0.132403
vt 0.867598 0.816482
vt 0.845530 0.816482
vt 0.845531 0.706147
vt 0.867598 0.706147
vt 0.151250 0.993019
vt 0.151250 0.948885
vt 0.173317 0.948885
vt 0.173317 0.993019
vt 0.285642 0.728214
vt 0.321347 0.728214
vt 0.321347 0.816482
vt 0.285642 0.816482
vt 0.890745 0.838549
vt 0.890745 0.750281
vt 0.845530 0.706147
vt 0.845530 0.595811
vt 0.867598 0.595811
vt 0.845531 0.993019
vt 0.845531 0.948885
vt 0.867598 0.948885
vt 0.867598 0.993019
vt 0.477047 0.772348
vt 0.499114 0.772348
vt 0.662013 0.264805
vt 0.662013 0.353073
vt 0.931638 0.000000
vt 0.909571 0.000000
vt 0.129183 0.993019
vt 0.107116 0.993019
vt 0.911732 0.573744
vt 0.911732 0.485476
vt 0.933799 0.485476
vt 0.933799 0.573744
vt 0.573744 0.684080
vt 0.529610 0.684080
vt 0.529610 0.595811
vt 0.573744 0.595811
vt 0.551677 0.176537
vt 0.595811 0.176537
vt 0.595811 0.264805
vt 0.551677 0.264805
vt 0.351993 0.875123
vt 0.351993 0.963391
vt 0.331006 0.963391
vt 0.331006 0.875123
vt 0.845530 0.485476
vt 0.867598 0.485476
vt 0.994706 0.573744
vt 0.972639 0.573745
vt 0.528356 0.772348
vt 0.512752 0.772348
vt 0.441342 0.904751
vt 0.441342 0.948885
vt 0.419275 0.948885
vt 0.419275 0.904751
vt 0.595811 0.617878
vt 0.637785 0.617878
vt 0.637785 0.706147
vt 0.595811 0.706147
vt 0.779328 0.888038
vt 0.779328 0.976306
vt 0.761476 0.976306
vt 0.761476 0.888038
vt 0.617878 0.794415
vt 0.595811 0.810019
vt 0.595811 0.794415
vt 0.164888 0.904751
vt 0.164888 0.948885
vt 0.142821 0.948885
vt 0.142821 0.904751
vt 0.595811 0.888038
vt 0.887505 0.088268
vt 0.909572 0.088268
vt 0.909572 0.132403
vt 0.887504 0.132403
vt 0.790806 0.154470
vt 0.826512 0.154470
vt 0.826512 0.242738
vt 0.790806 0.242738
vt 0.972639 0.573744
vt 0.954786 0.573744
vt 0.954786 0.485476
vt 0.441342 0.882683
vt 0.463409 0.882683
vt 0.463409 0.960702
vt 0.441342 0.960702
vt 0.093478 0.948885
vt 0.071410 0.948885
vt 0.071410 0.904751
vt 0.093478 0.904751
vt 0.777168 0.264805
vt 0.777168 0.242738
vt 0.799235 0.242738
vt 0.799235 0.264805
vt 0.823464 0.897190
vt 0.823464 0.941325
vt 0.801397 0.941325
vt 0.801396 0.897190
vt 0.935767 0.154470
vt 0.935767 0.242738
vt 0.914780 0.242738
vt 0.914780 0.154470
vt 0.994706 0.662013
vt 0.972639 0.662013
vt 0.441342 0.993019
vt 0.419275 0.993019
vt 0.441342 0.772348
vt 0.463409 0.772348
vt 0.889665 0.948885
vt 0.889665 0.993019
vt 0.639946 0.662013
vt 0.681920 0.662013
vt 0.681920 0.750281
vt 0.639946 0.750281
vt 0.889665 0.816482
vt 0.889665 0.904751
vt 0.867598 0.904751
vt 0.178526 0.993019
vt 0.178526 0.948885
vt 0.200593 0.948885
vt 0.200593 0.993019
vt 0.887504 0.088268
vt 0.887504 0.000000
vt 0.200594 0.993019
vt 0.200594 0.948885
vt 0.222661 0.948885
vt 0.222661 0.993019
vt 0.507543 0.264805
vt 0.507543 0.176537
vt 0.485476 0.595811
vt 0.485476 0.684080
vt 0.396128 0.875123
vt 0.396128 0.963391
vt 0.375141 0.963391
vt 0.375141 0.875123
vt 0.865437 0.110335
vt 0.843370 0.110335
vt 0.843370 0.000000
vt 0.865437 0.000000
vt 0.845531 0.904751
vt 0.856297 0.375140
vt 0.878364 0.375140
vt 0.878364 0.485476
vt 0.856297 0.485476
vt 0.953706 0.088268
vt 0.953706 0.132403
vt 0.931639 0.132402
vt 0.931639 0.088268
vt 0.713127 0.000000
vt 0.755101 0.000000
vt 0.755101 0.088268
vt 0.713127 0.088268
vt 0.979191 0.264805
vt 0.979191 0.353073
vt 0.961338 0.353073
vt 0.961338 0.264805
vt 0.834230 0.375140
vt 0.834230 0.485476
vt 0.022067 0.948885
vt -0.000000 0.948885
vt -0.000000 0.904751
vt 0.022067 0.904751
vt 0.512752 0.706147
vt 0.528356 0.706147
vt 0.057772 0.948885
vt 0.035705 0.948885
vt 0.035705 0.904751
vt 0.057773 0.904751
vt 0.035705 0.728214
vt 0.071411 0.728214
vt 0.071411 0.816482
vt 0.035705 0.816482
vt 0.974607 0.154470
vt 0.956754 0.242738
vt 0.956754 0.154470
vt 0.779328 0.872434
vt 0.757261 0.888038
vt 0.757261 0.872434
vt 0.178526 0.904751
vt 0.200594 0.904751
vt 0.419275 0.953142
vt 0.397208 0.953142
vt 0.397208 0.875123
vt 0.419275 0.875123
vt 0.258366 0.948885
vt 0.258366 0.904751
vt 0.280433 0.904751
vt 0.280433 0.948885
vt 0.675651 0.750281
vt 0.675651 0.838549
vt 0.639946 0.838549
vt 0.943485 0.397208
vt 0.943485 0.485476
vt 0.922498 0.485476
vt 0.757261 0.794415
vt 0.779328 0.794415
vt 0.101907 0.993019
vt 0.079840 0.993019
vt 0.079840 0.948885
vt 0.101907 0.948885
vt 0.755101 0.264805
vt 0.755101 0.242738
vt 0.244728 0.993019
vt 0.244728 0.948885
vt 0.671153 0.088268
vt 0.713127 0.176537
vt 0.671153 0.176537
vt 0.933799 0.662013
vt 0.911732 0.662013
vt 0.280433 0.993019
vt 0.302500 0.948885
vt 0.302500 0.993019
vt 0.324568 0.948885
vt 0.324568 0.993019
vt 0.639946 0.485476
vt 0.684080 0.485476
vt 0.684080 0.573744
vt 0.639946 0.573744
vt 0.994706 0.639946
vt 0.972639 0.639946
vt 0.057773 0.993019
vt 0.057773 0.948885
vt 0.823463 0.485476
vt 0.823463 0.595811
vt 0.302501 0.904751
vt 0.324568 0.904751
vt 0.302501 0.948885
vt 0.681920 0.573744
vt 0.723894 0.573744
vt 0.723894 0.662013
vt 0.613664 0.888038
vt 0.613664 0.976306
vt 0.595811 0.976306
vt 0.856297 0.375141
vt 0.834230 0.375141
vt 0.834230 0.264805
vt 0.856297 0.264805
vt 0.236299 0.904751
vt 0.236299 0.948885
vt 0.595811 0.853056
vt 0.573744 0.853056
vt 0.573744 0.742721
vt 0.595811 0.742721
vt 0.639946 0.264805
vt 0.639946 0.220671
vt 0.662013 0.220671
vt 0.142821 0.728214
vt 0.178526 0.728214
vt 0.178526 0.816482
vt 0.142821 0.816482
vt 0.954786 0.662013
vt 0.845531 0.595811
vt 0.823463 0.706147
vt 0.214232 0.948885
vt 0.214232 0.904751
vt 0.779329 0.810019
vt 0.779329 0.794415
vt 0.801396 0.794415
vt 0.801396 0.810019
vt 0.944566 0.353073
vt 0.944566 0.397208
vt 0.107116 0.728214
vt 0.107116 0.816482
vt 0.512752 0.684080
vt 0.528356 0.684080
vt 0.258366 0.993019
vt 0.534819 0.960703
vt 0.512752 0.960703
vt 0.512752 0.882684
vt 0.534819 0.882684
vt 0.755101 0.176537
vt 0.713127 0.264805
vt 0.845531 0.816482
vt 0.823463 0.816482
vt 0.870646 0.264805
vt 0.848579 0.264805
vt 0.848579 0.154470
vt 0.870646 0.154470
vt 0.826512 0.264805
vt 0.878364 0.264805
vt 0.790095 0.419275
vt 0.790095 0.441342
vt 0.768028 0.441342
vt 0.768028 0.419275
vt 0.974607 0.198604
vt 0.996674 0.198604
vt 0.801396 0.888038
vt 0.779329 0.888038
vt 0.639946 0.794415
vt 0.556886 0.882684
vt 0.534819 0.772348
vt 0.556886 0.772348
vt 0.892713 0.154470
vt 0.892713 0.264805
vt 0.922498 0.264805
vt 0.943485 0.264805
vt 0.943485 0.353073
vt 0.000000 0.816482
vt 0.000000 0.728214
vt 0.952626 0.088268
vt 0.952626 0.000000
vt 0.970478 0.000000
vt 0.970478 0.088268
vt 0.671153 0.264805
vt 0.671153 0.000000
vt 0.887504 0.110336
vt 0.865437 0.110336
vt 0.755101 0.154470
vt 0.889665 0.706147
vt 0.723894 0.750281
vt 0.573744 0.941324
vt 0.594731 0.853056
vt 0.594731 0.941324
vt 0.745961 0.441342
vt 0.703987 0.441342
vt 0.372980 0.875123
vt 0.372980 0.963391
vt 0.477047 0.684080
vt 0.622093 0.976306
vt 0.622093 0.888038
vt 0.639946 0.976306
vt 0.900431 0.264805
vt 0.900431 0.375141
vt 0.878364 0.375141
vt 0.565315 0.772348
vt 0.529610 0.772348
vt 0.565315 0.684080
vt 0.302500 0.904751
vt 0.972639 0.926818
vt 0.662013 0.441342
vt 0.890745 0.926818
vt 0.911732 0.926818
vt 0.631517 0.794415
vt 0.631517 0.706147
vt 0.797181 0.888038
vt 0.797181 0.976306
vt 0.539034 0.970952
vt 0.539034 0.882684
vt 0.556886 0.970952
vt 0.889665 0.485476
vt 0.889665 0.595811
vt 0.726054 0.573744
vt 0.726054 0.485476
vt 0.823463 0.897190
vt 0.801396 0.786855
vt 0.823463 0.786855
vt 0.534819 0.882683
vt 0.512752 0.882683
vt 0.441342 0.816482
vt 0.419275 0.816482
s 0
usemtl Material.002
f 4/1/1 7/2/1 6/3/1 3/4/1
f 7/5/2 9/6/2 8/7/2 6/8/2
f 9/2/3 5/9/3 2/10/3 8/3/3
f 3/11/4 6/12/4 8/13/4 2/14/4
f 5/14/5 9/15/5 7/16/5 4/11/5
f 13/17/6 12/18/6 11/19/6 10/8/6
f 219/20/7 222/21/7 224/22/7 218/23/7
f 16/24/3 17/25/3 13/26/3 10/27/3
f 223/28/8 225/29/8 224/30/8 222/31/8
f 81/32/3 77/33/3 74/34/3 80/35/3
f 13/36/9 17/37/9 15/38/9 12/39/9
f 21/40/10 20/41/10 19/42/10 18/43/10
f 221/44/11 220/45/11 219/46/11 218/47/11
f 28/48/1 31/49/1 30/50/1 27/51/1
f 213/52/12 217/53/12 215/54/12 212/55/12
f 145/56/3 141/57/3 138/58/3 144/59/3
f 21/60/13 25/61/13 23/62/13 20/63/13
f 29/64/14 28/65/14 27/17/14 26/66/14
f 211/67/2 214/68/2 216/69/2 210/70/2
f 65/71/3 61/72/3 58/73/3 64/74/3
f 217/75/3 213/76/3 210/77/3 216/78/3
f 92/79/1 95/80/1 94/81/1 91/82/1
f 29/83/15 33/84/15 31/85/15 28/86/15
f 37/6/16 36/5/16 35/87/16 34/88/16
f 215/78/5 217/89/5 216/90/5 214/91/5
f 132/92/1 135/93/1 134/94/1 131/95/1
f 212/96/1 215/97/1 214/31/1 211/30/1
f 37/98/17 41/36/17 39/39/17 36/99/17
f 45/100/4 44/73/4 43/72/4 42/101/4
f 44/49/1 47/102/1 46/103/1 43/50/1
f 47/104/5 49/105/5 48/106/5 46/107/5
f 49/102/3 45/49/3 42/80/3 48/79/3
f 43/108/2 46/109/2 48/110/2 42/111/2
f 45/112/12 49/113/12 47/114/12 44/115/12
f 53/116/18 52/117/18 51/118/18 50/119/18
f 213/120/4 212/121/4 211/91/4 210/90/4
f 75/32/1 76/35/1 79/122/1 78/123/1
f 205/21/11 209/20/11 207/124/11 204/125/11
f 52/126/1 55/127/1 54/128/1 51/129/1
f 53/130/6 57/131/6 55/132/6 52/133/6
f 61/134/19 60/135/19 59/136/19 58/137/19
f 203/138/8 206/44/8 208/139/8 202/140/8
f 105/141/3 101/142/3 98/143/3 104/144/3
f 207/47/20 209/145/20 208/139/20 206/44/20
f 59/146/1 60/147/1 63/148/1 62/149/1
f 61/150/10 65/151/10 63/152/10 60/153/10
f 69/33/21 68/154/21 67/155/21 66/156/21
f 205/157/7 204/158/7 203/159/7 202/160/7
f 32/161/3 33/162/3 29/163/3 26/164/3
f 197/165/4 201/166/4 199/167/4 196/168/4
f 68/169/1 71/170/1 70/171/1 67/172/1
f 69/61/14 73/83/14 71/86/14 68/62/14
f 77/173/22 76/174/22 75/175/22 74/176/22
f 195/177/5 198/67/5 200/70/5 194/178/5
f 12/127/1 15/179/1 14/180/1 11/128/1
f 201/181/3 197/182/3 194/158/3 200/157/3
f 136/94/3 137/183/3 133/184/3 130/95/3
f 77/185/16 81/186/16 79/187/16 76/188/16
f 85/189/2 84/190/2 83/191/2 82/75/2
f 84/192/1 87/193/1 86/194/1 83/195/1
f 87/196/12 89/197/12 88/101/12 86/72/12
f 89/198/3 85/199/3 82/200/3 88/201/3
f 83/115/5 86/202/5 88/203/5 82/112/5
f 85/15/4 89/204/4 87/205/4 84/16/4
f 93/206/23 92/207/23 91/208/23 90/209/23
f 199/210/12 201/211/12 200/212/12 198/213/12
f 96/214/3 97/191/3 93/94/3 90/93/3
f 196/215/1 199/216/1 198/217/1 195/218/1
f 161/219/3 157/220/3 154/221/3 160/222/3
f 93/223/18 97/224/18 95/225/18 92/226/18
f 101/227/24 100/228/24 99/229/24 98/230/24
f 197/231/2 196/215/2 195/218/2 194/232/2
f 72/233/3 73/234/3 69/235/3 66/236/3
f 189/237/7 193/238/7 191/23/7 188/22/7
f 99/239/1 100/240/1 103/241/1 102/242/1
f 101/243/19 105/244/19 103/245/19 100/246/19
f 109/247/25 108/52/25 107/248/25 106/249/25
f 187/250/20 190/134/20 192/251/20 186/252/20
f 152/253/3 153/254/3 149/199/3 146/193/3
f 191/255/11 193/256/11 192/257/11 190/258/11
f 108/259/1 111/260/1 110/261/1 107/262/1
f 109/188/21 113/263/21 111/264/21 108/265/21
f 117/266/26 116/267/26 115/268/26 114/57/26
f 189/269/8 188/270/8 187/250/8 186/252/8
f 56/271/3 57/272/3 53/273/3 50/274/3
f 181/275/2 185/276/2 183/166/2 180/165/2
f 115/277/1 116/201/1 119/200/1 118/278/1
f 117/279/22 121/226/22 119/280/22 116/281/22
f 125/107/5 124/282/5 123/283/5 122/104/5
f 124/284/1 127/262/1 126/285/1 123/286/1
f 127/6/4 129/283/4 128/282/4 126/7/4
f 129/287/3 125/288/3 122/286/3 128/285/3
f 123/109/12 126/205/12 128/204/12 122/110/12
f 125/289/2 129/290/2 127/291/2 124/292/2
f 133/66/9 132/17/9 131/8/9 130/7/9
f 179/293/12 182/177/12 184/178/12 178/294/12
f 41/295/3 37/296/3 34/273/3 40/272/3
f 185/297/3 181/120/3 178/90/3 184/298/3
f 35/299/1 36/300/1 39/287/1 38/301/1
f 133/302/23 137/303/23 135/304/23 132/186/23
f 141/305/13 140/306/13 139/307/13 138/145/13
f 183/308/4 185/309/4 184/310/4 182/311/4
f 19/312/1 20/260/1 23/259/1 22/313/1
f 180/314/1 183/315/1 182/316/1 179/317/1
f 139/98/1 140/318/1 143/319/1 142/320/1
f 141/321/24 145/322/24 143/323/24 140/324/24
f 149/178/15 148/64/15 147/66/15 146/325/15
f 181/298/5 180/326/5 179/77/5 178/327/5
f 25/328/3 21/329/3 18/312/3 24/313/3
f 173/330/8 177/331/8 175/332/8 172/333/8
f 148/57/1 151/56/1 150/334/1 147/335/1
f 149/336/25 153/321/25 151/324/25 148/337/25
f 157/325/17 156/66/17 155/7/17 154/282/17
f 171/238/11 174/237/11 176/338/11 170/339/11
f 121/262/3 117/284/3 114/340/3 120/259/3
f 175/341/7 177/342/7 176/343/7 174/344/7
f 155/183/1 156/94/1 159/191/1 158/190/1
f 157/280/26 161/345/26 159/275/26 156/346/26
f 165/327/12 164/77/12 163/347/12 162/348/12
f 164/349/1 167/350/1 166/351/1 163/352/1
f 167/350/2 169/353/2 168/151/2 166/351/2
f 169/216/3 165/215/3 162/311/3 168/354/3
f 163/355/4 166/356/4 168/357/4 162/358/4
f 165/53/5 169/359/5 167/360/5 164/54/5
f 173/330/20 172/333/20 171/361/20 170/362/20
f 221/44/20 225/138/20 223/363/20 220/45/20
f 177/364/3 173/344/3 170/365/3 176/366/3
f 155/345/16 158/280/16 160/226/16 154/225/16
f 193/352/3 189/367/3 186/368/3 192/349/3
f 159/56/22 161/369/22 160/370/22 158/371/22
f 147/337/14 150/245/14 152/244/14 146/336/14
f 151/371/21 153/370/21 152/230/21 150/229/21
f 139/246/10 142/372/10 144/373/10 138/243/10
f 143/374/19 145/375/19 144/376/19 142/377/19
f 131/346/6 134/378/6 136/281/6 130/280/6
f 135/107/18 137/106/18 136/156/18 134/155/18
f 115/226/17 118/279/17 120/379/17 114/223/17
f 119/73/16 121/100/16 120/375/16 118/374/16
f 204/213/1 207/197/1 206/380/1 203/381/1
f 107/153/15 110/276/15 112/382/15 106/150/15
f 187/75/1 188/78/1 191/383/1 190/189/1
f 111/267/14 113/266/14 112/4/14 110/10/14
f 99/63/13 102/323/13 104/322/13 98/60/13
f 103/325/10 105/155/10 104/154/10 102/178/10
f 91/384/9 94/187/9 96/186/9 90/304/9
f 95/385/6 97/315/6 96/386/6 94/387/6
f 75/388/26 78/389/26 80/39/26 74/38/26
f 79/117/17 81/116/17 80/390/17 78/391/17
f 67/125/25 70/96/25 72/392/25 66/338/25
f 71/393/15 73/394/15 72/46/15 70/395/15
f 224/396/3 225/397/3 221/398/3 218/354/3
f 59/399/24 62/400/24 64/109/24 58/401/24
f 112/261/3 113/402/3 109/285/3 106/262/3
f 63/18/13 65/17/13 64/65/13 62/403/13
f 51/389/23 54/404/23 56/99/23 50/39/23
f 55/405/9 57/87/9 56/5/9 54/406/9
f 35/186/22 38/185/22 40/292/22 34/302/22
f 39/174/26 41/173/26 40/249/26 38/248/26
f 27/407/21 30/140/21 32/133/21 26/408/21
f 31/135/25 33/134/25 32/409/25 30/410/25
f 19/96/19 22/181/19 24/16/19 18/392/19
f 23/411/24 25/412/24 24/364/24 22/413/24
f 209/121/3 205/414/3 202/415/3 208/91/3
f 11/416/18 14/291/18 16/290/18 10/417/18
f 220/418/1 223/172/1 222/419/1 219/420/1
f 15/282/23 17/107/23 16/155/23 14/325/23
f 171/365/1 172/421/1 175/422/1 174/125/1
f 5/423/12 4/126/12 3/129/12 2/424/12
