# Blender 4.2.3 LTS
# www.blender.org
mtllib flywheel_large_axle.mtl
o Cube
v 0.091418 0.091775 -0.499882
v 0.091418 -0.091775 -0.499882
v 0.091418 0.091775 0.499882
v 0.091418 -0.091775 0.499882
v -0.091418 0.091775 -0.499882
v -0.091418 -0.091775 -0.499882
v -0.091418 0.091775 0.499882
v -0.091418 -0.091775 0.499882
v -0.055609 0.055826 -0.312722
v 0.055609 0.055826 -0.312722
v -0.055609 -0.055826 -0.312722
v 0.055609 -0.055826 -0.312722
v -0.055609 -0.055826 0.312722
v 0.055609 -0.055826 0.312722
v -0.055609 0.055826 0.312722
v 0.055609 0.055826 0.312722
v -0.045992 -0.092965 -0.388098
v -0.045992 -0.092965 0.388098
v -0.045992 0.092965 -0.388098
v -0.045992 0.092965 0.388098
v 0.045992 -0.092965 -0.388098
v -0.092603 0.046172 -0.388097
v -0.092603 0.046172 0.388097
v 0.045992 -0.092965 0.388098
v 0.045992 0.092965 -0.388098
v 0.045992 0.092965 0.388098
v -0.092603 -0.046172 -0.388097
v -0.092603 -0.046172 0.388097
v 0.092603 0.046172 -0.388097
v 0.092603 0.046172 0.388097
v 0.092603 -0.046172 -0.388097
v 0.092603 -0.046172 0.388097
v 0.063996 0.126484 -0.176054
v 0.063996 0.126484 0.176054
v -0.063996 0.126484 -0.176054
v -0.063996 0.126484 0.176054
v -0.073764 -0.074053 -0.141535
v -0.073764 -0.074053 0.141535
v -0.125993 -0.064246 -0.176054
v -0.125993 -0.064246 0.176054
v 0.073764 -0.074053 -0.141535
v 0.073764 -0.074053 0.141535
v 0.125993 -0.064246 -0.176054
v 0.125993 -0.064246 0.176054
v -0.063996 -0.126484 -0.176054
v -0.063996 -0.126484 0.176054
v 0.073764 0.074053 -0.141535
v 0.073764 0.074053 0.141535
v 0.063996 -0.126484 -0.176054
v 0.063996 -0.126484 0.176054
v 0.125993 0.064246 -0.176054
v 0.125993 0.064246 0.176054
v -0.073764 0.074053 -0.141535
v -0.073764 0.074053 0.141535
v -0.125993 0.064246 -0.176054
v -0.125993 0.064246 0.176054
vn -0.0000 0.9877 -0.1561
vn 0.6838 0.6811 -0.2617
vn 0.9999 -0.0000 -0.0106
vn -0.0000 -0.9999 0.0106
vn -0.0862 -0.9907 -0.1054
vn 0.0862 -0.9907 0.1054
vn -0.6838 0.6811 -0.2617
vn -0.0000 0.9999 -0.0106
vn -0.6838 0.6811 0.2617
vn 0.6838 0.6811 0.2617
vn 0.6838 -0.6811 -0.2617
vn 0.6838 -0.6811 0.2617
vn -0.0000 -0.0000 1.0000
vn -0.9908 -0.0856 0.1050
vn -0.6838 -0.6811 0.2617
vn -0.9999 -0.0000 -0.0106
vn 0.9999 -0.0000 0.0106
vn -0.0000 -0.9999 -0.0106
vn -0.0000 0.9999 0.0106
vn -0.9999 -0.0000 0.0106
vn 0.9908 0.0856 0.1050
vn -0.6838 -0.6811 -0.2617
vn 0.9908 -0.0856 -0.1050
vn 0.9878 -0.0000 -0.1556
vn 0.0862 0.9907 -0.1054
vn -0.9908 0.0856 -0.1050
vn -0.0000 -0.0000 -1.0000
vn -0.0862 0.9907 0.1054
vn -0.9878 -0.0000 -0.1556
vn -0.0000 -0.9877 -0.1561
vn -0.0000 -0.9877 0.1561
vn -0.0000 -1.0000 -0.0000
vn -0.9878 -0.0000 0.1556
vn -1.0000 -0.0000 -0.0000
vn -0.0862 0.9907 -0.1054
vn -0.1846 0.9828 -0.0000
vn -0.9908 0.0856 0.1050
vn -0.9831 0.1832 -0.0000
vn 0.0862 0.9907 0.1054
vn 0.1846 0.9828 -0.0000
vn 0.9878 -0.0000 0.1556
vn 1.0000 -0.0000 -0.0000
vn 0.9908 -0.0856 0.1050
vn 0.9831 -0.1832 -0.0000
vn 0.9908 0.0856 -0.1050
vn 0.9831 0.1832 -0.0000
vn -0.9908 -0.0856 -0.1050
vn -0.9831 -0.1832 -0.0000
vn 0.0862 -0.9907 -0.1054
vn 0.1846 -0.9828 -0.0000
vn -0.0862 -0.9907 0.1054
vn -0.1846 -0.9828 -0.0000
vn -0.0000 0.9877 0.1561
vn -0.0000 1.0000 -0.0000
vt 0.727146 0.391658
vt 0.727146 0.174974
vt 0.272854 0.174974
vt 0.272854 0.391658
vt 0.945503 0.825026
vt 0.753666 0.716310
vt 0.727146 0.825026
vt 0.927924 0.945503
vt 0.927924 0.054497
vt 0.945503 0.174974
vt 0.272854 0.825026
vt 0.072076 0.945503
vt 0.246335 0.427897
vt 0.054497 0.391658
vt 0.054497 0.174974
vt 0.246335 0.283690
vt 0.753666 0.572103
vt 0.945503 0.608342
vt 0.246335 0.716310
vt 0.054497 0.825026
vt 0.072076 0.054497
vt 0.753666 0.283690
vt 0.246335 0.572103
vt 0.272854 0.608342
vt 0.753666 0.572103
vt 0.727146 0.608342
vt 0.753666 0.427897
vt 0.727146 0.391658
vt 0.945503 0.391658
vt 0.945503 0.391658
vt 0.753666 0.427897
vt 0.246335 0.427897
vt 0.246335 0.572103
vt 0.054497 0.608342
vt 0.727146 0.608342
vt 0.054497 0.608342
vt 0.272854 0.608342
vt 0.945503 0.608342
s 0
usemtl Material
f 33/1/1 25/2/1 19/3/1 35/4/1
f 30/5/2 16/6/2 26/7/2 3/8/2
f 1/9/3 29/10/3 31/10/3 2/9/3
f 18/11/4 24/7/4 4/8/4 8/12/4
f 37/13/5 39/14/5 27/15/5 11/16/5
f 42/17/6 44/18/6 32/5/6 14/6/6
f 15/19/7 23/20/7 7/12/7 20/11/7
f 25/2/8 1/9/8 5/21/8 19/3/8
f 9/16/9 19/3/9 5/21/9 22/15/9
f 25/2/10 10/22/10 29/10/10 1/9/10
f 14/6/11 32/5/11 4/8/11 24/7/11
f 12/22/12 21/2/12 2/9/12 31/10/12
f 4/8/13 3/8/13 7/12/13 8/12/13
f 38/23/14 46/24/14 18/11/14 13/19/14
f 27/15/15 6/21/15 17/3/15 11/16/15
f 27/15/16 22/15/16 5/21/16 6/21/16
f 32/5/17 30/5/17 3/8/17 4/8/17
f 21/2/18 17/3/18 6/21/18 2/9/18
f 3/8/19 26/7/19 20/11/19 7/12/19
f 7/12/20 23/20/20 28/20/20 8/12/20
f 48/25/21 34/26/21 26/7/21 16/6/21
f 8/12/22 28/20/22 13/19/22 18/11/22
f 41/27/23 49/28/23 21/2/23 12/22/23
f 51/29/24 43/30/24 31/10/24 29/10/24
f 51/29/25 29/10/25 10/22/25 47/31/25
f 35/4/26 19/3/26 9/16/26 53/32/26
f 5/21/27 1/9/27 2/9/27 6/21/27
f 54/33/28 56/34/28 23/20/28 15/19/28
f 55/14/29 22/15/29 27/15/29 39/14/29
f 49/28/30 45/4/30 17/3/30 21/2/30
f 24/7/31 18/11/31 46/24/31 50/35/31
f 50/35/32 46/24/32 45/4/32 49/28/32
f 23/20/33 56/34/33 40/36/33 28/20/33
f 56/34/34 55/14/34 39/14/34 40/36/34
f 9/16/35 22/15/35 55/14/35 53/32/35
f 53/32/36 55/14/36 56/34/36 54/33/36
f 20/11/37 36/37/37 54/33/37 15/19/37
f 36/37/38 35/4/38 53/32/38 54/33/38
f 30/5/39 52/38/39 48/25/39 16/6/39
f 52/38/40 51/29/40 47/31/40 48/25/40
f 30/5/41 32/5/41 44/18/41 52/38/41
f 52/38/42 44/18/42 43/30/42 51/29/42
f 14/6/43 24/7/43 50/35/43 42/17/43
f 42/17/44 50/35/44 49/28/44 41/27/44
f 10/22/45 25/2/45 33/1/45 47/31/45
f 47/31/46 33/1/46 34/26/46 48/25/46
f 11/16/47 17/3/47 45/4/47 37/13/47
f 37/13/48 45/4/48 46/24/48 38/23/48
f 12/22/49 31/10/49 43/30/49 41/27/49
f 41/27/50 43/30/50 44/18/50 42/17/50
f 13/19/51 28/20/51 40/36/51 38/23/51
f 38/23/52 40/36/52 39/14/52 37/13/52
f 26/7/53 34/26/53 36/37/53 20/11/53
f 34/26/54 33/1/54 35/4/54 36/37/54
