# Blender 4.2.3 LTS
# www.blender.org
mtllib rod_new.mtl
o Cube
v 0.091478 0.091835 -0.499859
v 0.091478 -0.091835 -0.499859
v 0.091478 0.091835 0.499859
v 0.091478 -0.091835 0.499859
v -0.091478 0.091835 -0.499859
v -0.091478 -0.091835 -0.499859
v -0.091478 0.091835 0.499859
v -0.091478 -0.091835 0.499859
v -0.054753 0.054967 -0.312506
v 0.054753 0.054967 -0.312506
v -0.054753 -0.054967 -0.312506
v 0.054753 -0.054967 -0.312506
v -0.054753 -0.054967 0.312506
v 0.054753 -0.054967 0.312506
v -0.054753 0.054967 0.312506
v 0.054753 0.054967 0.312506
v -0.046579 -0.092960 -0.388190
v -0.046579 -0.092960 0.388190
v -0.046579 0.092960 -0.388190
v -0.046579 0.092960 0.388190
v 0.046579 -0.092960 -0.388190
v -0.092598 0.046761 -0.388190
v -0.092598 0.046761 0.388190
v 0.046579 -0.092960 0.388190
v 0.046579 0.092960 -0.388190
v 0.046579 0.092960 0.388190
v -0.092598 -0.046761 -0.388190
v -0.092598 -0.046761 0.388190
v 0.092598 0.046761 -0.388190
v 0.092598 0.046761 0.388190
v 0.092598 -0.046761 -0.388190
v 0.092598 -0.046761 0.388190
vn -0.0000 1.0000 -0.0000
vn 0.6826 0.6800 -0.2676
vn 0.9999 -0.0000 -0.0100
vn -0.0000 -0.9999 0.0101
vn -0.2119 -0.9773 -0.0000
vn 0.2119 -0.9773 -0.0000
vn -0.6826 0.6800 -0.2676
vn -0.0000 0.9999 -0.0101
vn -0.6826 0.6800 0.2676
vn 0.6826 0.6800 0.2676
vn 0.6826 -0.6800 -0.2676
vn 0.6826 -0.6800 0.2676
vn -0.0000 -0.0000 1.0000
vn -0.9776 -0.2103 -0.0000
vn -0.6826 -0.6800 0.2676
vn -0.9999 -0.0000 -0.0100
vn 0.9999 -0.0000 0.0100
vn -0.0000 -0.9999 -0.0101
vn -0.0000 0.9999 0.0101
vn -0.9999 -0.0000 0.0100
vn 0.9776 0.2103 -0.0000
vn -0.6826 -0.6800 -0.2676
vn 0.9776 -0.2103 -0.0000
vn 1.0000 -0.0000 -0.0000
vn 0.2119 0.9773 -0.0000
vn -0.9776 0.2103 -0.0000
vn -0.0000 -0.0000 -1.0000
vn -0.2119 0.9773 -0.0000
vn -1.0000 -0.0000 -0.0000
vn -0.0000 -1.0000 -0.0000
vt 0.727146 0.825026
vt 0.727146 0.174974
vt 0.272854 0.174974
vt 0.272854 0.825026
vt 0.945503 0.825026
vt 0.753666 0.716310
vt 0.927924 0.945503
vt 0.927924 0.054497
vt 0.945503 0.174974
vt 0.945503 0.174974
vt 0.927924 0.054497
vt 0.927924 0.945503
vt 0.072076 0.945503
vt 0.246335 0.716310
vt 0.054497 0.825026
vt 0.054497 0.174974
vt 0.246335 0.283690
vt 0.753666 0.283690
vt 0.072076 0.054497
vt 0.727146 0.174974
s 0
usemtl Material
f 26/1/1 25/2/1 19/3/1 20/4/1
f 30/5/2 16/6/2 26/1/2 3/7/2
f 1/8/3 29/9/3 31/10/3 2/11/3
f 18/4/4 24/1/4 4/12/4 8/13/4
f 13/14/5 28/15/5 27/16/5 11/17/5
f 12/18/6 31/10/6 32/5/6 14/6/6
f 15/14/7 23/15/7 7/13/7 20/4/7
f 25/2/8 1/8/8 5/19/8 19/3/8
f 9/17/9 19/3/9 5/19/9 22/16/9
f 25/2/10 10/18/10 29/9/10 1/8/10
f 14/6/11 32/5/11 4/12/11 24/1/11
f 12/18/12 21/20/12 2/11/12 31/10/12
f 4/12/13 3/7/13 7/13/13 8/13/13
f 11/17/14 17/3/14 18/4/14 13/14/14
f 27/16/15 6/19/15 17/3/15 11/17/15
f 27/16/16 22/16/16 5/19/16 6/19/16
f 32/5/17 30/5/17 3/7/17 4/12/17
f 21/20/18 17/3/18 6/19/18 2/11/18
f 3/7/19 26/1/19 20/4/19 7/13/19
f 7/13/20 23/15/20 28/15/20 8/13/20
f 10/18/21 25/2/21 26/1/21 16/6/21
f 8/13/22 28/15/22 13/14/22 18/4/22
f 14/6/23 24/1/23 21/20/23 12/18/23
f 30/5/24 32/5/24 31/10/24 29/9/24
f 30/5/25 29/9/25 10/18/25 16/6/25
f 20/4/26 19/3/26 9/17/26 15/14/26
f 5/19/27 1/8/27 2/11/27 6/19/27
f 9/17/28 22/16/28 23/15/28 15/14/28
f 23/15/29 22/16/29 27/16/29 28/15/29
f 24/1/30 18/4/30 17/3/30 21/20/30
