# Blender 4.2.3 LTS
# www.blender.org
mtllib small_crankshaft_base.mtl
o axle
v 0.046541 0.145562 0.166497
v 0.046541 -0.145562 0.166497
v 0.046541 0.145562 0.196247
v 0.046541 -0.145562 0.196247
v -0.047143 0.145562 0.166497
v -0.047143 -0.145562 0.166497
v -0.047143 0.145562 0.196247
v -0.047143 -0.145562 0.196247
v 0.046541 0.145562 -0.196632
v 0.046541 -0.145562 -0.196632
v 0.046541 0.145562 -0.166882
v 0.046541 -0.145562 -0.166882
v -0.047143 0.145562 -0.196632
v -0.047143 -0.145562 -0.196632
v -0.047143 0.145562 -0.166882
v -0.047143 -0.145562 -0.166882
v -0.030476 0.039487 0.172199
v -0.030476 0.103007 0.172199
v -0.030476 0.039487 -0.172199
v -0.030476 0.103007 -0.172199
v 0.022216 0.039487 0.172199
v 0.022216 0.103007 0.172199
v 0.022216 0.039487 -0.172199
v 0.022216 0.103007 -0.172199
v 0.123181 -0.124709 0.475122
v 0.123181 -0.124709 0.498377
v 0.123181 0.125291 0.498377
v 0.123181 0.125291 0.475122
v -0.126819 -0.124709 0.498377
v -0.126819 0.125291 0.498377
v -0.126819 -0.124709 0.475122
v -0.126819 0.125291 0.475122
v 0.029431 -0.030959 0.195760
v 0.029431 -0.030959 0.475122
v 0.029431 0.031541 0.475122
v 0.029431 0.031541 0.195760
v -0.033069 -0.030959 0.475122
v -0.033069 0.031541 0.475122
v -0.033069 -0.030959 0.195760
v -0.033069 0.031541 0.195760
v -0.001819 -0.043903 0.195760
v -0.001819 -0.043903 0.475122
v 0.042375 0.000291 0.475122
v 0.042375 0.000291 0.195760
v -0.046013 0.000291 0.475122
v -0.001819 0.044485 0.475122
v -0.046013 0.000291 0.195760
v -0.001819 0.044485 0.195760
v 0.060681 -0.062209 0.463494
v 0.060681 -0.062209 0.486749
v 0.060681 0.062791 0.486749
v 0.060681 0.062791 0.463494
v -0.064319 -0.062209 0.486749
v -0.064319 0.062791 0.486749
v -0.064319 -0.062209 0.463494
v -0.064319 0.062791 0.463494
v -0.123181 -0.124709 -0.475122
v -0.123181 -0.124709 -0.498377
v -0.123181 0.125291 -0.498377
v -0.123181 0.125291 -0.475122
v 0.126819 -0.124709 -0.498377
v 0.126819 0.125291 -0.498377
v 0.126819 -0.124709 -0.475122
v 0.126819 0.125291 -0.475122
v -0.029431 -0.030959 -0.195760
v -0.029431 -0.030959 -0.475122
v -0.029431 0.031541 -0.475122
v -0.029431 0.031541 -0.195760
v 0.033069 -0.030959 -0.475122
v 0.033069 0.031541 -0.475122
v 0.033069 -0.030959 -0.195760
v 0.033069 0.031541 -0.195760
v 0.001819 -0.043903 -0.195760
v 0.001819 -0.043903 -0.475122
v -0.042375 0.000291 -0.475122
v -0.042375 0.000291 -0.195760
v 0.046013 0.000291 -0.475122
v 0.001819 0.044485 -0.475122
v 0.046013 0.000291 -0.195760
v 0.001819 0.044485 -0.195760
v -0.060681 -0.062209 -0.463494
v -0.060681 -0.062209 -0.486749
v -0.060681 0.062791 -0.486749
v -0.060681 0.062791 -0.463494
v 0.064319 -0.062209 -0.486749
v 0.064319 0.062791 -0.486749
v 0.064319 -0.062209 -0.463494
v 0.064319 0.062791 -0.463494
vn 1.0000 -0.0000 -0.0000
vn -0.0000 -0.0000 1.0000
vn -1.0000 -0.0000 -0.0000
vn -0.0000 -0.0000 -1.0000
vn -0.0000 1.0000 -0.0000
vn -0.0000 -1.0000 -0.0000
vn 0.7071 -0.7071 -0.0000
vn -0.7071 0.7071 -0.0000
vn -0.7071 -0.7071 -0.0000
vn 0.7071 0.7071 -0.0000
vt 0.945571 0.320295
vt 0.320295 0.320295
vt 0.320295 0.493244
vt 0.625000 0.000000
vt 0.375000 0.250000
vt 0.375000 0.000000
vt 0.625000 0.250000
vt 0.375000 0.500000
vt 0.625000 0.750000
vt 0.375000 0.750000
vt 0.375000 1.000000
vt 0.125000 0.750000
vt 0.125000 0.500000
vt 0.875000 0.500000
vt 0.625000 0.500000
vt 0.258366 0.816482
vt 0.280433 0.904751
vt 0.258366 0.904751
vt 0.595811 0.176537
vt 0.507543 0.088268
vt 0.595811 0.088268
vt 0.200593 0.904751
vt 0.178526 0.816482
vt 0.200593 0.816482
vt 0.595811 0.000000
vt 0.507543 0.000000
vt 0.236299 0.816482
vt 0.214232 0.904751
vt 0.214232 0.816482
vt 0.236299 0.904751
vt 0.595811 0.375141
vt 0.573744 0.595811
vt 0.573744 0.375141
vt 0.994706 0.617879
vt 0.972639 0.595812
vt 0.994706 0.595812
vt 0.627019 0.220671
vt 0.649086 0.000000
vt 0.649086 0.220671
vt 0.972639 0.639946
vt 0.972639 0.617879
vt 0.662013 0.485476
vt 0.639946 0.264805
vt 0.662013 0.264805
vt 0.671153 0.220671
vt 0.741658 0.485476
vt 0.726054 0.706147
vt 0.726054 0.485476
vt 0.889664 0.617878
vt 0.867597 0.595811
vt 0.889664 0.595811
vt 0.611415 0.220671
vt 0.627019 0.000000
vt 0.900431 0.375141
vt 0.878364 0.397207
vt 0.878364 0.375141
vt 0.757261 0.706147
vt 0.757261 0.485476
vt 0.595811 0.220671
vt 0.035705 0.948885
vt 0.057772 0.993019
vt 0.035705 0.993019
vt 0.419275 0.875123
vt 0.375141 0.830989
vt 0.419275 0.830989
vt 0.956946 0.970952
vt 0.934879 0.926818
vt 0.956946 0.926818
vt 0.331006 0.875123
vt 0.331006 0.830989
vt 0.975773 0.088268
vt 0.953706 0.132403
vt 0.953706 0.088268
vt 0.979013 0.926818
vt 0.979013 0.970952
vt 0.280433 0.816482
vt 0.507543 0.176537
vt 0.178526 0.904751
vt 0.595811 0.595811
vt 0.994706 0.639946
vt 0.639946 0.485476
vt 0.671153 0.000000
vt 0.741658 0.706147
vt 0.867597 0.617878
vt 0.611415 0.000000
vt 0.900431 0.397207
vt 0.057772 0.948885
vt 0.375141 0.875123
vt 0.934879 0.970952
vt 0.975773 0.132403
vt 0.945571 0.493244
vt 0.625000 1.000000
vt 0.875000 0.750000
s 0
usemtl 
f 2/1/1 1/2/1 3/3/1
f 4/1/2 3/2/2 7/3/2
f 8/1/3 7/2/3 5/3/3
f 6/1/4 5/2/4 1/3/4
f 7/1/5 3/2/5 1/3/5
f 4/1/6 8/2/6 6/3/6
f 18/4/3 19/5/3 17/6/3
f 20/7/4 23/8/4 19/5/4
f 23/8/1 22/9/1 21/10/1
f 22/9/2 17/11/2 21/10/2
f 23/8/6 17/12/6 19/13/6
f 20/14/5 22/9/5 24/15/5
f 2/1/1 3/3/1 4/91/1
f 4/1/2 7/3/2 8/91/2
f 8/1/3 5/3/3 6/91/3
f 6/1/4 1/3/4 2/91/4
f 7/1/5 1/3/5 5/91/5
f 4/1/6 6/3/6 2/91/6
f 18/4/3 20/7/3 19/5/3
f 20/7/4 24/15/4 23/8/4
f 23/8/1 24/15/1 22/9/1
f 22/9/2 18/92/2 17/11/2
f 23/8/6 21/10/6 17/12/6
f 20/14/5 18/93/5 22/9/5
usemtl 
f 10/1/1 9/2/1 11/3/1
f 12/1/2 11/2/2 15/3/2
f 16/1/3 15/2/3 13/3/3
f 14/1/4 13/2/4 9/3/4
f 15/1/5 11/2/5 9/3/5
f 12/1/6 16/2/6 14/3/6
f 10/1/1 11/3/1 12/91/1
f 12/1/2 15/3/2 16/91/2
f 16/1/3 13/3/3 14/91/3
f 14/1/4 9/3/4 10/91/4
f 15/1/5 9/3/5 13/91/5
f 12/1/6 14/3/6 10/91/6
usemtl 
f 28/16/1 26/17/1 25/18/1
f 27/19/2 29/20/2 26/21/2
f 30/22/3 31/23/3 29/24/3
f 32/25/4 25/20/4 31/26/4
f 26/27/6 31/28/6 25/29/6
f 28/30/5 30/16/5 27/18/5
f 36/31/1 34/32/1 33/33/1
f 35/34/2 37/35/2 34/36/2
f 38/37/3 39/38/3 37/39/3
f 40/34/4 33/40/4 39/41/4
f 34/42/6 39/43/6 33/44/6
f 36/38/5 38/45/5 35/39/5
f 44/46/7 42/47/7 41/48/7
f 43/49/2 45/50/2 42/51/2
f 46/52/8 47/53/8 45/37/8
f 47/54/4 44/55/4 41/56/4
f 42/57/9 47/46/9 41/58/9
f 44/25/10 46/52/10 43/59/10
f 52/60/1 50/61/1 49/62/1
f 51/63/2 53/64/2 50/65/2
f 54/66/3 55/67/3 53/68/3
f 56/64/4 49/69/4 55/70/4
f 50/71/6 55/72/6 49/73/6
f 52/66/5 54/74/5 51/75/5
f 28/16/1 27/76/1 26/17/1
f 27/19/2 30/77/2 29/20/2
f 30/22/3 32/78/3 31/23/3
f 32/25/4 28/21/4 25/20/4
f 26/27/6 29/30/6 31/28/6
f 28/30/5 32/27/5 30/16/5
f 36/31/1 35/79/1 34/32/1
f 35/34/2 38/41/2 37/35/2
f 38/37/3 40/53/3 39/38/3
f 40/34/4 36/80/4 33/40/4
f 34/42/6 37/81/6 39/43/6
f 36/38/5 40/82/5 38/45/5
f 44/46/7 43/83/7 42/47/7
f 43/49/2 46/84/2 45/50/2
f 46/52/8 48/85/8 47/53/8
f 47/54/4 48/86/4 44/55/4
f 42/57/9 45/83/9 47/46/9
f 44/25/10 48/85/10 46/52/10
f 52/60/1 51/87/1 50/61/1
f 51/63/2 54/88/2 53/64/2
f 54/66/3 56/89/3 55/67/3
f 56/64/4 52/88/4 49/69/4
f 50/71/6 53/90/6 55/72/6
f 52/66/5 56/68/5 54/74/5
usemtl 
f 60/16/3 58/17/3 57/18/3
f 59/19/4 61/20/4 58/21/4
f 62/22/1 63/23/1 61/24/1
f 64/25/2 57/20/2 63/26/2
f 58/27/6 63/28/6 57/29/6
f 60/30/5 62/16/5 59/18/5
f 68/31/3 66/32/3 65/33/3
f 67/34/4 69/35/4 66/36/4
f 70/37/1 71/38/1 69/39/1
f 72/34/2 65/40/2 71/41/2
f 66/42/6 71/43/6 65/44/6
f 68/38/5 70/45/5 67/39/5
f 76/46/9 74/47/9 73/48/9
f 75/49/4 77/50/4 74/51/4
f 78/52/10 79/53/10 77/37/10
f 79/54/2 76/55/2 73/56/2
f 74/57/7 79/46/7 73/58/7
f 76/25/8 78/52/8 75/59/8
f 84/60/3 82/61/3 81/62/3
f 83/63/4 85/64/4 82/65/4
f 86/66/1 87/67/1 85/68/1
f 88/64/2 81/69/2 87/70/2
f 82/71/6 87/72/6 81/73/6
f 84/66/5 86/74/5 83/75/5
f 60/16/3 59/76/3 58/17/3
f 59/19/4 62/77/4 61/20/4
f 62/22/1 64/78/1 63/23/1
f 64/25/2 60/21/2 57/20/2
f 58/27/6 61/30/6 63/28/6
f 60/30/5 64/27/5 62/16/5
f 68/31/3 67/79/3 66/32/3
f 67/34/4 70/41/4 69/35/4
f 70/37/1 72/53/1 71/38/1
f 72/34/2 68/80/2 65/40/2
f 66/42/6 69/81/6 71/43/6
f 68/38/5 72/82/5 70/45/5
f 76/46/9 75/83/9 74/47/9
f 75/49/4 78/84/4 77/50/4
f 78/52/10 80/85/10 79/53/10
f 79/54/2 80/86/2 76/55/2
f 74/57/7 77/83/7 79/46/7
f 76/25/8 80/85/8 78/52/8
f 84/60/3 83/87/3 82/61/3
f 83/63/4 86/88/4 85/64/4
f 86/66/1 88/89/1 87/67/1
f 88/64/2 84/88/2 81/69/2
f 82/71/6 85/90/6 87/72/6
f 84/66/5 88/68/5 86/74/5
o axle.001
v 0.546541 0.645562 0.666497
v 0.546541 0.354438 0.666497
v 0.546541 0.645562 0.696247
v 0.546541 0.354438 0.696247
v 0.452857 0.645562 0.666497
v 0.452857 0.354438 0.666497
v 0.452857 0.645562 0.696247
v 0.452857 0.354438 0.696247
v 0.546541 0.645562 0.303368
v 0.546541 0.354438 0.303368
v 0.546541 0.645562 0.333118
v 0.546541 0.354438 0.333118
v 0.452857 0.645562 0.303368
v 0.452857 0.354438 0.303368
v 0.452857 0.645562 0.333118
v 0.452857 0.354438 0.333118
v 0.469524 0.539487 0.672199
v 0.469524 0.603007 0.672199
v 0.469524 0.539487 0.327801
v 0.469524 0.603007 0.327801
v 0.522216 0.539487 0.672199
v 0.522216 0.603007 0.672199
v 0.522216 0.539487 0.327801
v 0.522216 0.603007 0.327801
v 0.623181 0.375291 0.975122
v 0.623181 0.375291 0.998377
v 0.623181 0.625291 0.998377
v 0.623181 0.625291 0.975122
v 0.373181 0.375291 0.998377
v 0.373181 0.625291 0.998377
v 0.373181 0.375291 0.975122
v 0.373181 0.625291 0.975122
v 0.529431 0.469041 0.695760
v 0.529431 0.469041 0.975122
v 0.529431 0.531541 0.975122
v 0.529431 0.531541 0.695760
v 0.466931 0.469041 0.975122
v 0.466931 0.531541 0.975122
v 0.466931 0.469041 0.695760
v 0.466931 0.531541 0.695760
v 0.498181 0.456097 0.695760
v 0.498181 0.456097 0.975122
v 0.542375 0.500291 0.975122
v 0.542375 0.500291 0.695760
v 0.453987 0.500291 0.975122
v 0.498181 0.544485 0.975122
v 0.453987 0.500291 0.695760
v 0.498181 0.544485 0.695760
v 0.560681 0.437791 0.963494
v 0.560681 0.437791 0.986749
v 0.560681 0.562791 0.986749
v 0.560681 0.562791 0.963494
v 0.435681 0.437791 0.986749
v 0.435681 0.562791 0.986749
v 0.435681 0.437791 0.963494
v 0.435681 0.562791 0.963494
v 0.376819 0.375291 0.024878
v 0.376819 0.375291 0.001623
v 0.376819 0.625291 0.001623
v 0.376819 0.625291 0.024878
v 0.626819 0.375291 0.001623
v 0.626819 0.625291 0.001623
v 0.626819 0.375291 0.024878
v 0.626819 0.625291 0.024878
v 0.470569 0.469041 0.304240
v 0.470569 0.469041 0.024878
v 0.470569 0.531541 0.024878
v 0.470569 0.531541 0.304240
v 0.533069 0.469041 0.024878
v 0.533069 0.531541 0.024878
v 0.533069 0.469041 0.304240
v 0.533069 0.531541 0.304240
v 0.501819 0.456097 0.304240
v 0.501819 0.456097 0.024878
v 0.457625 0.500291 0.024878
v 0.457625 0.500291 0.304240
v 0.546013 0.500291 0.024878
v 0.501819 0.544485 0.024878
v 0.546013 0.500291 0.304240
v 0.501819 0.544485 0.304240
v 0.439319 0.437791 0.036506
v 0.439319 0.437791 0.013251
v 0.439319 0.562791 0.013251
v 0.439319 0.562791 0.036506
v 0.564319 0.437791 0.013251
v 0.564319 0.562791 0.013251
v 0.564319 0.437791 0.036506
v 0.564319 0.562791 0.036506
vn 1.0000 -0.0000 -0.0000
vn -0.0000 -0.0000 1.0000
vn -1.0000 -0.0000 -0.0000
vn -0.0000 -0.0000 -1.0000
vn -0.0000 1.0000 -0.0000
vn -0.0000 -1.0000 -0.0000
vn 0.7071 -0.7071 -0.0000
vn -0.7071 0.7071 -0.0000
vn -0.7071 -0.7071 -0.0000
vn 0.7071 0.7071 -0.0000
vt 0.945571 0.320295
vt 0.320295 0.320295
vt 0.320295 0.493244
vt 0.625000 0.000000
vt 0.375000 0.250000
vt 0.375000 0.000000
vt 0.625000 0.250000
vt 0.375000 0.500000
vt 0.625000 0.750000
vt 0.375000 0.750000
vt 0.375000 1.000000
vt 0.125000 0.750000
vt 0.125000 0.500000
vt 0.875000 0.500000
vt 0.625000 0.500000
vt 0.258366 0.816482
vt 0.280433 0.904751
vt 0.258366 0.904751
vt 0.595811 0.176537
vt 0.507543 0.088268
vt 0.595811 0.088268
vt 0.200593 0.904751
vt 0.178526 0.816482
vt 0.200593 0.816482
vt 0.595811 0.000000
vt 0.507543 0.000000
vt 0.236299 0.816482
vt 0.214232 0.904751
vt 0.214232 0.816482
vt 0.236299 0.904751
vt 0.595811 0.375141
vt 0.573744 0.595811
vt 0.573744 0.375141
vt 0.994706 0.617879
vt 0.972639 0.595812
vt 0.994706 0.595812
vt 0.627019 0.220671
vt 0.649086 0.000000
vt 0.649086 0.220671
vt 0.972639 0.639946
vt 0.972639 0.617879
vt 0.662013 0.485476
vt 0.639946 0.264805
vt 0.662013 0.264805
vt 0.671153 0.220671
vt 0.741658 0.485476
vt 0.726054 0.706147
vt 0.726054 0.485476
vt 0.889664 0.617878
vt 0.867597 0.595811
vt 0.889664 0.595811
vt 0.611415 0.220671
vt 0.627019 0.000000
vt 0.900431 0.375141
vt 0.878364 0.397207
vt 0.878364 0.375141
vt 0.757261 0.706147
vt 0.757261 0.485476
vt 0.595811 0.220671
vt 0.035705 0.948885
vt 0.057772 0.993019
vt 0.035705 0.993019
vt 0.419275 0.875123
vt 0.375141 0.830989
vt 0.419275 0.830989
vt 0.956946 0.970952
vt 0.934879 0.926818
vt 0.956946 0.926818
vt 0.331006 0.875123
vt 0.331006 0.830989
vt 0.975773 0.088268
vt 0.953706 0.132403
vt 0.953706 0.088268
vt 0.979013 0.926818
vt 0.979013 0.970952
vt 0.280433 0.816482
vt 0.507543 0.176537
vt 0.178526 0.904751
vt 0.595811 0.595811
vt 0.994706 0.639946
vt 0.639946 0.485476
vt 0.671153 0.000000
vt 0.741658 0.706147
vt 0.867597 0.617878
vt 0.611415 0.000000
vt 0.900431 0.397207
vt 0.057772 0.948885
vt 0.375141 0.875123
vt 0.934879 0.970952
vt 0.975773 0.132403
vt 0.945571 0.493244
vt 0.625000 1.000000
vt 0.875000 0.750000
s 0
usemtl Material_planks
f 90/94/11 89/95/11 91/96/11
f 92/94/12 91/95/12 95/96/12
f 96/94/13 95/95/13 93/96/13
f 94/94/14 93/95/14 89/96/14
f 95/94/15 91/95/15 89/96/15
f 92/94/16 96/95/16 94/96/16
f 98/94/11 97/95/11 99/96/11
f 100/94/12 99/95/12 103/96/12
f 104/94/13 103/95/13 101/96/13
f 102/94/14 101/95/14 97/96/14
f 103/94/15 99/95/15 97/96/15
f 100/94/16 104/95/16 102/96/16
f 106/97/13 107/98/13 105/99/13
f 108/100/14 111/101/14 107/98/14
f 111/101/11 110/102/11 109/103/11
f 110/102/12 105/104/12 109/103/12
f 111/101/16 105/105/16 107/106/16
f 108/107/15 110/102/15 112/108/15
f 116/109/11 114/110/11 113/111/11
f 115/112/12 117/113/12 114/114/12
f 118/115/13 119/116/13 117/117/13
f 120/118/14 113/113/14 119/119/14
f 114/120/16 119/121/16 113/122/16
f 116/123/15 118/109/15 115/111/15
f 124/124/11 122/125/11 121/126/11
f 123/127/12 125/128/12 122/129/12
f 126/130/13 127/131/13 125/132/13
f 128/127/14 121/133/14 127/134/14
f 122/135/16 127/136/16 121/137/16
f 124/131/15 126/138/15 123/132/15
f 132/139/17 130/140/17 129/141/17
f 131/142/12 133/143/12 130/144/12
f 134/145/18 135/146/18 133/130/18
f 135/147/14 132/148/14 129/149/14
f 130/150/19 135/139/19 129/151/19
f 132/118/20 134/145/20 131/152/20
f 140/153/11 138/154/11 137/155/11
f 139/156/12 141/157/12 138/158/12
f 142/159/13 143/160/13 141/161/13
f 144/157/14 137/162/14 143/163/14
f 138/164/16 143/165/16 137/166/16
f 140/159/15 142/167/15 139/168/15
f 116/109/11 115/169/11 114/110/11
f 115/112/12 118/170/12 117/113/12
f 118/115/13 120/171/13 119/116/13
f 120/118/14 116/114/14 113/113/14
f 114/120/16 117/123/16 119/121/16
f 116/123/15 120/120/15 118/109/15
f 124/124/11 123/172/11 122/125/11
f 123/127/12 126/134/12 125/128/12
f 126/130/13 128/146/13 127/131/13
f 128/127/14 124/173/14 121/133/14
f 122/135/16 125/174/16 127/136/16
f 124/131/15 128/175/15 126/138/15
f 132/139/17 131/176/17 130/140/17
f 131/142/12 134/177/12 133/143/12
f 134/145/18 136/178/18 135/146/18
f 135/147/14 136/179/14 132/148/14
f 130/150/19 133/176/19 135/139/19
f 132/118/20 136/178/20 134/145/20
f 140/153/11 139/180/11 138/154/11
f 139/156/12 142/181/12 141/157/12
f 142/159/13 144/182/13 143/160/13
f 144/157/14 140/181/14 137/162/14
f 138/164/16 141/183/16 143/165/16
f 140/159/15 144/161/15 142/167/15
f 148/109/13 146/110/13 145/111/13
f 147/112/14 149/113/14 146/114/14
f 150/115/11 151/116/11 149/117/11
f 152/118/12 145/113/12 151/119/12
f 146/120/16 151/121/16 145/122/16
f 148/123/15 150/109/15 147/111/15
f 156/124/13 154/125/13 153/126/13
f 155/127/14 157/128/14 154/129/14
f 158/130/11 159/131/11 157/132/11
f 160/127/12 153/133/12 159/134/12
f 154/135/16 159/136/16 153/137/16
f 156/131/15 158/138/15 155/132/15
f 164/139/19 162/140/19 161/141/19
f 163/142/14 165/143/14 162/144/14
f 166/145/20 167/146/20 165/130/20
f 167/147/12 164/148/12 161/149/12
f 162/150/17 167/139/17 161/151/17
f 164/118/18 166/145/18 163/152/18
f 172/153/13 170/154/13 169/155/13
f 171/156/14 173/157/14 170/158/14
f 174/159/11 175/160/11 173/161/11
f 176/157/12 169/162/12 175/163/12
f 170/164/16 175/165/16 169/166/16
f 172/159/15 174/167/15 171/168/15
f 148/109/13 147/169/13 146/110/13
f 147/112/14 150/170/14 149/113/14
f 150/115/11 152/171/11 151/116/11
f 152/118/12 148/114/12 145/113/12
f 146/120/16 149/123/16 151/121/16
f 148/123/15 152/120/15 150/109/15
f 156/124/13 155/172/13 154/125/13
f 155/127/14 158/134/14 157/128/14
f 158/130/11 160/146/11 159/131/11
f 160/127/12 156/173/12 153/133/12
f 154/135/16 157/174/16 159/136/16
f 156/131/15 160/175/15 158/138/15
f 164/139/19 163/176/19 162/140/19
f 163/142/14 166/177/14 165/143/14
f 166/145/20 168/178/20 167/146/20
f 167/147/12 168/179/12 164/148/12
f 162/150/17 165/176/17 167/139/17
f 164/118/18 168/178/18 166/145/18
f 172/153/13 171/180/13 170/154/13
f 171/156/14 174/181/14 173/157/14
f 174/159/11 176/182/11 175/160/11
f 176/157/12 172/181/12 169/162/12
f 170/164/16 173/183/16 175/165/16
f 172/159/15 176/161/15 174/167/15
f 90/94/11 91/96/11 92/184/11
f 92/94/12 95/96/12 96/184/12
f 96/94/13 93/96/13 94/184/13
f 94/94/14 89/96/14 90/184/14
f 95/94/15 89/96/15 93/184/15
f 92/94/16 94/96/16 90/184/16
f 98/94/11 99/96/11 100/184/11
f 100/94/12 103/96/12 104/184/12
f 104/94/13 101/96/13 102/184/13
f 102/94/14 97/96/14 98/184/14
f 103/94/15 97/96/15 101/184/15
f 100/94/16 102/96/16 98/184/16
f 106/97/13 108/100/13 107/98/13
f 108/100/14 112/108/14 111/101/14
f 111/101/11 112/108/11 110/102/11
f 110/102/12 106/185/12 105/104/12
f 111/101/16 109/103/16 105/105/16
f 108/107/15 106/186/15 110/102/15
o base
v 0.000000 0.000000 1.000000
v 0.000000 0.000000 0.000000
v 0.000000 0.062500 -0.000000
v 0.000000 0.062500 1.000000
v 1.000000 0.000000 0.000000
v 1.000000 0.062500 -0.000000
v 1.000000 0.000000 1.000000
v 1.000000 0.062500 1.000000
v 0.636724 0.034864 0.207548
v 0.636724 0.034864 0.145048
v 0.501529 0.459093 0.145048
v 0.501529 0.459093 0.207548
v 0.696165 0.054178 0.145048
v 0.560971 0.478407 0.145048
v 0.696165 0.054178 0.207548
v 0.560971 0.478407 0.207548
v 0.303835 0.054178 0.207548
v 0.303835 0.054178 0.145048
v 0.439029 0.478407 0.145048
v 0.439029 0.478407 0.207548
v 0.363276 0.034864 0.145048
v 0.498471 0.459093 0.145048
v 0.363276 0.034864 0.207548
v 0.498471 0.459093 0.207548
v 0.636724 0.034864 0.850205
v 0.636724 0.034864 0.787705
v 0.501529 0.459093 0.787705
v 0.501529 0.459093 0.850205
v 0.696165 0.054178 0.787705
v 0.560971 0.478407 0.787705
v 0.696165 0.054178 0.850205
v 0.560971 0.478407 0.850205
v 0.303835 0.054178 0.850205
v 0.303835 0.054178 0.787705
v 0.439029 0.478407 0.787705
v 0.439029 0.478407 0.850205
v 0.363276 0.034864 0.787705
v 0.498471 0.459093 0.787705
v 0.363276 0.034864 0.850205
v 0.498471 0.459093 0.850205
vn -1.0000 -0.0000 -0.0000
vn -0.0000 -0.0000 -1.0000
vn 1.0000 -0.0000 -0.0000
vn -0.0000 -0.0000 1.0000
vn -0.0000 -1.0000 -0.0000
vn -0.0000 1.0000 -0.0000
vn -0.9528 -0.3036 -0.0000
vn 0.9528 0.3036 -0.0000
vn 0.3090 -0.9511 -0.0000
vn -0.3090 0.9511 -0.0000
vn -0.9528 0.3036 -0.0000
vn 0.9528 -0.3036 -0.0000
vn -0.3090 -0.9511 -0.0000
vn 0.3090 0.9511 -0.0000
vt 0.000000 0.000000
vt 0.000000 1.000000
vt 0.062500 0.000000
vt 1.000000 1.000000
vt 0.000000 0.937500
vt 0.937500 1.000000
vt 1.000000 0.000000
vt 1.000000 0.062500
vt 0.000274 0.999812
vt 0.999584 0.000377
vt 0.000274 0.000377
vt 0.062500 1.000000
vt 0.999584 0.937500
vt 0.937500 0.000000
vt 0.999584 0.999812
vt 0.556775 0.701637
vt 0.663344 0.750903
vt 0.663344 0.701637
vt 0.556775 0.750903
vt 0.710199 0.750903
vt 0.603631 0.750903
vt 0.710199 0.701637
vt 0.507509 0.701637
vt 0.400941 0.750903
vt 0.400941 0.701637
vt 0.554365 0.750903
vt 0.447796 0.750903
vt 0.447796 0.701637
vt 0.554365 0.701637
vt 0.507509 0.750903
vt 0.556775 0.195057
vt 0.663344 0.244323
vt 0.663344 0.195057
vt 0.556775 0.244323
vt 0.710199 0.244323
vt 0.603631 0.244323
vt 0.710199 0.195057
vt 0.507509 0.195057
vt 0.400941 0.244323
vt 0.400941 0.195057
vt 0.554365 0.244323
vt 0.447796 0.244323
vt 0.447796 0.195057
vt 0.554365 0.195057
vt 0.507509 0.244323
vt 0.603631 0.701637
vt 0.603631 0.195057
s 0
usemtl Material_casing
f 180/187/21 178/188/21 177/189/21
f 179/188/22 181/190/22 178/191/22
f 182/192/23 183/193/23 181/190/23
f 184/194/24 177/187/24 183/193/24
f 178/195/25 183/196/25 177/197/25
f 180/187/26 182/190/26 179/188/26
f 180/187/21 179/188/21 178/198/21
f 179/188/22 182/199/22 181/190/22
f 182/190/23 184/200/23 183/196/23
f 184/196/24 180/197/24 177/197/24
f 178/195/25 181/201/25 183/196/25
f 180/187/26 184/193/26 182/190/26
f 188/202/27 186/203/27 185/204/27
f 187/205/22 189/206/22 186/203/22
f 190/207/28 191/208/28 189/206/28
f 191/208/24 188/202/24 185/204/24
f 186/203/29 191/208/29 185/204/29
f 188/202/30 190/207/30 187/205/30
f 196/209/31 194/210/31 193/211/31
f 194/210/22 198/212/22 197/213/22
f 198/212/32 199/214/32 197/213/32
f 200/215/24 193/211/24 199/214/24
f 194/210/33 199/214/33 193/211/33
f 196/209/34 198/212/34 195/216/34
f 204/217/27 202/218/27 201/219/27
f 203/220/22 205/221/22 202/218/22
f 206/222/28 207/223/28 205/221/28
f 207/223/24 204/217/24 201/219/24
f 202/218/29 207/223/29 201/219/29
f 204/217/30 206/222/30 203/220/30
f 212/224/31 210/225/31 209/226/31
f 210/225/22 214/227/22 213/228/22
f 214/227/32 215/229/32 213/228/32
f 216/230/24 209/226/24 215/229/24
f 210/225/33 215/229/33 209/226/33
f 212/224/34 214/227/34 211/231/34
f 188/202/27 187/205/27 186/203/27
f 187/205/22 190/207/22 189/206/22
f 190/207/28 192/232/28 191/208/28
f 191/208/24 192/232/24 188/202/24
f 186/203/29 189/206/29 191/208/29
f 188/202/30 192/232/30 190/207/30
f 196/209/31 195/216/31 194/210/31
f 194/210/22 195/216/22 198/212/22
f 198/212/32 200/215/32 199/214/32
f 200/215/24 196/209/24 193/211/24
f 194/210/33 197/213/33 199/214/33
f 196/209/34 200/215/34 198/212/34
f 204/217/27 203/220/27 202/218/27
f 203/220/22 206/222/22 205/221/22
f 206/222/28 208/233/28 207/223/28
f 207/223/24 208/233/24 204/217/24
f 202/218/29 205/221/29 207/223/29
f 204/217/30 208/233/30 206/222/30
f 212/224/31 211/231/31 210/225/31
f 210/225/22 211/231/22 214/227/22
f 214/227/32 216/230/32 215/229/32
f 216/230/24 212/224/24 209/226/24
f 210/225/33 213/228/33 215/229/33
f 212/224/34 216/230/34 214/227/34
