# Blender 4.2.3 LTS
# www.blender.org
mtllib mechanical_sieve.mtl
o base
v 0.969190 0.479627 0.008272
v 0.969190 0.538279 0.008272
v 0.969190 0.479627 0.996354
v 0.969190 0.538279 0.996354
v 0.996511 0.479627 0.008272
v 0.996511 0.538279 0.008272
v 0.996511 0.479627 0.996354
v 0.996511 0.538279 0.996354
v 0.967492 0.478858 0.032508
v 1.000000 0.413907 0.000000
v 0.032508 0.478858 0.032508
v 0.000000 0.413907 0.000000
v 0.000000 0.413907 0.128707
v 0.967492 0.478858 0.096198
v 0.032508 0.478858 0.096198
v 1.000000 0.413907 0.128707
v 0.000000 0.478858 0.128707
v 0.000000 0.478858 0.000000
v 1.000000 0.478858 0.000000
v 1.000000 0.478858 0.128707
v 0.969578 0.577786 0.032806
v 0.034594 0.577786 0.032806
v 0.969578 0.577786 0.096496
v 0.034594 0.577786 0.096496
v 0.002086 0.577786 0.129004
v 0.002086 0.577786 0.000298
v 1.002086 0.577786 0.000298
v 1.002086 0.577786 0.129004
v 0.002086 0.577786 0.129004
v 0.002086 0.577786 0.000298
v 1.002086 0.577786 0.000298
v 1.002086 0.577786 0.129004
v 0.002203 0.604954 0.129538
v 0.002203 0.604954 0.000831
v 1.002203 0.604954 0.000831
v 1.002203 0.604954 0.129538
v 0.967492 0.478858 0.967492
v 1.000000 0.413907 1.000000
v 0.032508 0.478858 0.967492
v 0.000000 0.413907 1.000000
v 0.000000 0.413907 0.871293
v 0.967492 0.478858 0.903802
v 0.032508 0.478858 0.903802
v 1.000000 0.413907 0.871293
v 0.000000 0.478858 0.871293
v 0.000000 0.478858 1.000000
v 1.000000 0.478858 1.000000
v 1.000000 0.478858 0.871293
v 0.969578 0.577786 0.967194
v 0.034594 0.577786 0.967194
v 0.969578 0.577786 0.903504
v 0.034594 0.577786 0.903504
v 0.002086 0.577786 0.870996
v 0.002086 0.577786 0.999702
v 1.002086 0.577786 0.999702
v 1.002086 0.577786 0.870996
v 0.002086 0.577786 0.870996
v 0.002086 0.577786 0.999702
v 1.002086 0.577786 0.999702
v 1.002086 0.577786 0.870996
v 0.002203 0.604954 0.870462
v 0.002203 0.604954 0.999169
v 1.002203 0.604954 0.999169
v 1.002203 0.604954 0.870462
v 0.884527 0.411439 0.003631
v 0.884527 0.349501 0.003631
v 0.884527 0.411439 0.996369
v 0.884527 0.349501 0.996369
v 0.981951 0.411439 0.003631
v 0.981951 0.349501 0.003631
v 0.981951 0.411439 0.996369
v 0.981951 0.349501 0.996369
v 0.981541 0.005565 0.983738
v 0.981541 0.348705 0.983738
v 0.884444 0.005565 0.983738
v 0.884444 0.348705 0.983738
v 0.981541 0.005565 0.886642
v 0.981541 0.348705 0.886642
v 0.884444 0.005565 0.886642
v 0.884444 0.348705 0.886642
v 0.115556 0.005565 0.983738
v 0.115556 0.418573 0.983738
v 0.018459 0.005565 0.983738
v 0.018459 0.418573 0.983738
v 0.115556 0.005565 0.886642
v 0.115556 0.418573 0.886642
v 0.018459 0.005565 0.886642
v 0.018459 0.418573 0.886642
v 0.115556 0.005565 0.113358
v 0.115556 0.418573 0.113358
v 0.018459 0.005565 0.113358
v 0.018459 0.418573 0.113358
v 0.115556 0.005565 0.016261
v 0.115556 0.418573 0.016261
v 0.018459 0.005565 0.016261
v 0.018459 0.418573 0.016261
v 0.981541 0.005565 0.113358
v 0.981541 0.348705 0.113358
v 0.884444 0.005565 0.113358
v 0.884444 0.348705 0.113358
v 0.981541 0.005565 0.016261
v 0.981541 0.348705 0.016261
v 0.884444 0.005565 0.016261
v 0.884444 0.348705 0.016261
v 0.020356 0.154578 0.106938
v 0.020356 0.105531 0.106938
v 0.020356 0.154578 0.893062
v 0.020356 0.105531 0.893062
v 0.097504 0.154578 0.106938
v 0.097504 0.105531 0.106938
v 0.097504 0.154578 0.893062
v 0.097504 0.105531 0.893062
vn -1.0000 -0.0000 -0.0000
vn -0.0000 -0.0000 1.0000
vn 1.0000 -0.0000 -0.0000
vn -0.0000 -0.0000 -1.0000
vn -0.0000 -1.0000 -0.0000
vn -0.0000 1.0000 -0.0000
vn -0.0000 -0.0030 1.0000
vn -0.9998 0.0211 -0.0000
vn -0.0000 0.0030 -1.0000
vn 0.9998 -0.0211 -0.0000
vn -0.0000 0.0196 -0.9998
vn 1.0000 -0.0043 -0.0000
vn -0.0000 -0.0196 0.9998
vn -1.0000 0.0043 -0.0000
vn -0.0000 -0.0030 -1.0000
vn -0.0000 0.0030 1.0000
vn -0.0000 0.0196 0.9998
vn -0.0000 -0.0196 -0.9998
vt 0.125946 0.125946
vt 0.125946 0.874054
vt 0.874054 0.874054
vt 0.874054 0.125946
vt 0.048938 0.994251
vt 0.001843 0.994251
vt 0.001843 0.947155
vt 0.048938 0.947155
vt 0.000000 0.000000
vt 1.000000 0.000000
vt 1.000000 1.000000
vt 0.000000 1.000000
vt 1.004497 0.001679
vt 0.007643 0.001679
vt 0.007643 0.129143
vt 1.004497 0.129143
vt -0.000932 -0.000932
vt 1.000932 -0.000932
vt 1.000932 0.121826
vt -0.000932 0.121826
vt 1.000000 0.126022
vt 0.000000 0.126022
vt 0.000000 0.868369
vt 1.000000 0.868369
s 0
usemtl 
f 1/1/1 3/2/1 4/3/1 2/4/1
f 3/1/2 7/2/2 8/3/2 4/4/2
f 7/1/3 5/2/3 6/3/3 8/4/3
f 5/1/4 1/2/4 2/3/4 6/4/4
f 3/1/5 1/2/5 5/3/5 7/4/5
f 8/1/6 6/2/6 2/3/6 4/4/6
f 13/5/1 17/6/1 18/7/1 12/8/1
f 12/9/4 18/10/4 19/11/4 10/12/4
f 10/5/3 19/6/3 20/7/3 16/8/3
f 12/9/5 10/10/5 16/11/5 13/12/5
f 16/9/2 20/10/2 17/11/2 13/12/2
f 15/13/6 11/14/6 18/15/6 17/16/6
f 11/17/6 9/18/6 19/19/6 18/20/6
f 9/9/6 14/10/6 20/21/6 19/22/6
f 14/23/6 15/24/6 17/11/6 20/12/6
f 23/1/7 24/4/7 15/3/7 14/2/7
f 26/1/5 22/2/5 24/3/5 25/4/5
f 11/1/8 15/4/8 24/3/8 22/2/8
f 23/1/5 28/4/5 25/3/5 24/2/5
f 27/1/5 21/2/5 22/3/5 26/4/5
f 9/1/9 11/4/9 22/3/9 21/2/9
f 23/1/5 24/2/5 22/3/5 21/4/5
f 9/1/10 21/4/10 23/3/10 14/2/10
f 23/1/5 21/4/5 27/3/5 28/2/5
f 25/1/6 28/4/6 32/3/6 29/2/6
f 26/1/6 30/2/6 31/3/6 27/4/6
f 28/1/6 27/4/6 31/3/6 32/2/6
f 25/1/6 29/2/6 30/3/6 26/4/6
f 30/1/11 34/2/11 35/3/11 31/4/11
f 32/1/12 31/4/12 35/3/12 36/2/12
f 29/1/13 32/4/13 36/3/13 33/2/13
f 29/1/14 33/2/14 34/3/14 30/4/14
f 34/1/6 33/2/6 36/3/6 35/4/6
f 41/5/1 40/8/1 46/7/1 45/6/1
f 40/9/2 38/12/2 47/11/2 46/10/2
f 38/5/3 44/8/3 48/7/3 47/6/3
f 40/9/5 41/12/5 44/11/5 38/10/5
f 44/9/4 41/12/4 45/11/4 48/10/4
f 43/9/6 45/22/6 46/21/6 39/10/6
f 39/17/6 46/20/6 47/19/6 37/18/6
f 37/9/6 47/22/6 48/21/6 42/10/6
f 42/23/6 48/12/6 45/11/6 43/24/6
f 51/1/15 42/2/15 43/3/15 52/4/15
f 54/1/5 53/4/5 52/3/5 50/2/5
f 39/1/8 50/2/8 52/3/8 43/4/8
f 51/1/5 52/2/5 53/3/5 56/4/5
f 55/1/5 54/4/5 50/3/5 49/2/5
f 37/1/16 49/2/16 50/3/16 39/4/16
f 51/1/5 49/4/5 50/3/5 52/2/5
f 37/1/10 42/2/10 51/3/10 49/4/10
f 51/1/5 56/2/5 55/3/5 49/4/5
f 53/1/6 57/2/6 60/3/6 56/4/6
f 54/1/6 55/4/6 59/3/6 58/2/6
f 56/1/6 60/2/6 59/3/6 55/4/6
f 53/1/6 54/4/6 58/3/6 57/2/6
f 58/1/17 59/4/17 63/3/17 62/2/17
f 60/1/12 64/2/12 63/3/12 59/4/12
f 57/1/18 61/2/18 64/3/18 60/4/18
f 57/1/14 58/4/14 62/3/14 61/2/14
f 62/1/6 63/4/6 64/3/6 61/2/6
f 65/1/1 66/4/1 68/3/1 67/2/1
f 67/1/2 68/4/2 72/3/2 71/2/2
f 71/1/3 72/4/3 70/3/3 69/2/3
f 69/1/4 70/4/4 66/3/4 65/2/4
f 67/1/6 71/4/6 69/3/6 65/2/6
f 72/1/5 68/4/5 66/3/5 70/2/5
f 73/1/2 74/4/2 76/3/2 75/2/2
f 75/1/1 76/4/1 80/3/1 79/2/1
f 79/1/4 80/4/4 78/3/4 77/2/4
f 77/1/3 78/4/3 74/3/3 73/2/3
f 75/1/5 79/4/5 77/3/5 73/2/5
f 80/1/6 76/4/6 74/3/6 78/2/6
f 81/1/2 82/4/2 84/3/2 83/2/2
f 83/1/1 84/4/1 88/3/1 87/2/1
f 87/1/4 88/4/4 86/3/4 85/2/4
f 85/1/3 86/4/3 82/3/3 81/2/3
f 83/1/5 87/4/5 85/3/5 81/2/5
f 88/1/6 84/4/6 82/3/6 86/2/6
f 89/1/2 90/4/2 92/3/2 91/2/2
f 91/1/1 92/4/1 96/3/1 95/2/1
f 95/1/4 96/4/4 94/3/4 93/2/4
f 93/1/3 94/4/3 90/3/3 89/2/3
f 91/1/5 95/4/5 93/3/5 89/2/5
f 96/1/6 92/4/6 90/3/6 94/2/6
f 97/1/2 98/4/2 100/3/2 99/2/2
f 99/1/1 100/4/1 104/3/1 103/2/1
f 103/1/4 104/4/4 102/3/4 101/2/4
f 101/1/3 102/4/3 98/3/3 97/2/3
f 99/1/5 103/4/5 101/3/5 97/2/5
f 104/1/6 100/4/6 98/3/6 102/2/6
f 105/1/1 106/4/1 108/3/1 107/2/1
f 107/1/2 108/4/2 112/3/2 111/2/2
f 111/1/3 112/4/3 110/3/3 109/2/3
f 109/1/4 110/4/4 106/3/4 105/2/4
f 107/1/6 111/4/6 109/3/6 105/2/6
f 112/1/5 108/4/5 106/3/5 110/2/5
o arm
v -0.676345 0.043441 -0.023959
v -0.676345 -0.041928 -0.023959
v 0.061381 0.043441 -0.022315
v 0.061381 -0.041928 -0.022315
v -0.677242 0.043441 0.030510
v -0.677242 -0.041928 0.030510
v 0.060484 0.043441 0.032153
v 0.060484 -0.041928 0.032153
v -0.087997 -0.087997 0.046307
v -0.087997 0.087997 0.046307
v -0.087997 -0.087997 -0.046307
v -0.087997 0.087997 -0.046307
v 0.087997 -0.087997 0.046307
v 0.087997 0.087997 0.046307
v 0.087997 -0.087997 -0.046307
v 0.087997 0.087997 -0.046307
vn 0.0022 -0.0000 -1.0000
vn 0.9999 -0.0000 0.0165
vn -0.0022 -0.0000 1.0000
vn -0.9999 -0.0000 -0.0165
vn -0.0000 1.0000 -0.0000
vn -0.0000 -1.0000 -0.0000
vn -1.0000 -0.0000 -0.0000
vn -0.0000 -0.0000 -1.0000
vn 1.0000 -0.0000 -0.0000
vn -0.0000 -0.0000 1.0000
vt 0.375000 0.250000
vt 0.625000 0.000000
vt 0.375000 0.000000
vt 0.375000 0.500000
vt 0.625000 0.250000
vt 0.375000 0.750000
vt 0.625000 0.500000
vt 0.375000 1.000000
vt 0.625000 0.750000
vt 0.125000 0.750000
vt 0.125000 0.500000
vt 0.875000 0.750000
vt 0.875000 0.500000
vt 0.625000 1.000000
s 0
usemtl Material
f 115/25/19 114/26/19 113/27/19
f 119/28/20 116/29/20 115/25/20
f 117/30/21 120/31/21 119/28/21
f 113/32/22 118/33/22 117/30/22
f 113/34/23 119/28/23 115/35/23
f 120/31/24 114/36/24 116/37/24
f 115/25/19 116/29/19 114/26/19
f 119/28/20 120/31/20 116/29/20
f 117/30/21 118/33/21 120/31/21
f 113/32/22 114/38/22 118/33/22
f 113/34/23 117/30/23 119/28/23
f 120/31/24 118/33/24 114/36/24
f 122/26/25 123/25/25 121/27/25
f 124/29/26 127/28/26 123/25/26
f 128/31/27 125/30/27 127/28/27
f 126/33/28 121/32/28 125/30/28
f 127/28/24 121/34/24 123/35/24
f 124/37/23 126/33/23 128/31/23
f 122/26/25 124/29/25 123/25/25
f 124/29/26 128/31/26 127/28/26
f 128/31/27 126/33/27 125/30/27
f 126/33/28 122/38/28 121/32/28
f 127/28/24 125/30/24 121/34/24
f 124/37/23 122/36/23 126/33/23
o sieve.001
v -0.306122 0.000000 0.345626
v 0.283968 0.000000 0.345626
v -0.306122 0.000000 -0.345626
v 0.283968 0.000000 -0.345626
v -0.306122 -0.004165 -0.345626
v -0.306122 -0.004165 0.345626
v 0.283968 -0.004165 0.345626
v 0.283968 -0.004165 -0.345626
vn -0.0000 1.0000 -0.0000
vn -0.0000 -1.0000 -0.0000
vt 1.000000 0.000000
vt 0.000000 1.000000
vt 0.000000 0.000000
vt 1.000000 1.000000
s 0
usemtl 
f 130/39/29 131/40/29 129/41/29
f 130/39/29 132/42/29 131/40/29
f 135/39/30 134/41/30 133/40/30
f 135/39/30 133/40/30 136/42/30
o sieve
v 0.276648 -0.011183 -0.335627
v 0.276648 0.070785 -0.335627
v 0.276648 -0.011183 0.335627
v 0.276648 0.070785 0.335627
v -0.301437 -0.011183 -0.335627
v -0.301437 0.070785 -0.335627
v -0.301437 -0.011183 0.335627
v -0.301437 0.070785 0.335627
v 0.309631 -0.014614 0.398143
v 0.309631 -0.014614 -0.398143
v 0.309631 0.074216 -0.398143
v 0.309631 0.074216 0.398143
v -0.334419 -0.014614 0.398143
v -0.334419 0.074216 0.398143
v -0.334419 -0.014614 -0.398143
v -0.334419 0.074216 -0.398143
v -0.377299 0.061293 -0.110440
v -0.377299 0.003361 -0.110440
v -0.377299 0.061293 0.118634
v -0.377299 0.003361 0.118634
v -0.435231 0.061293 -0.110440
v -0.435231 0.003361 -0.110440
v -0.435231 0.061293 0.118634
v -0.435231 0.003361 0.118634
v -0.441659 0.065327 0.119481
v -0.441659 -0.000672 0.119481
v -0.332638 0.065327 0.118369
v -0.332638 -0.000672 0.118369
v -0.441364 0.065327 0.145690
v -0.441364 -0.000672 0.145690
v -0.332342 0.065327 0.144578
v -0.332342 -0.000672 0.144578
v -0.441659 0.065327 -0.135827
v -0.441659 -0.000672 -0.135827
v -0.332638 0.065327 -0.136938
v -0.332638 -0.000672 -0.136938
v -0.441364 0.065327 -0.109618
v -0.441364 -0.000672 -0.109618
v -0.332342 0.065327 -0.110729
v -0.332342 -0.000672 -0.110729
vn 1.0000 -0.0000 -0.0000
vn -0.0000 -0.0000 1.0000
vn -0.0000 -0.0000 -1.0000
vn -1.0000 -0.0000 -0.0000
vn -0.1035 -0.9946 -0.0000
vn -0.1035 0.9946 -0.0000
vn -0.0000 -0.9985 -0.0548
vn -0.0000 0.9985 -0.0548
vn 0.1035 -0.9946 -0.0000
vn -0.0000 -0.9985 0.0548
vn -0.0000 0.9985 0.0548
vn 0.9328 0.3603 -0.0000
vn 0.1035 0.9946 -0.0000
vn -0.0000 1.0000 -0.0000
vn -0.0000 -1.0000 -0.0000
vn -0.0102 -0.0000 -0.9999
vn 0.9999 -0.0000 -0.0113
vn 0.0102 -0.0000 0.9999
vn -0.9999 -0.0000 0.0113
vt 0.625000 0.000000
vt 0.375000 0.250000
vt 0.375000 0.000000
vt 0.625000 0.250000
vt 0.375000 0.500000
vt 0.625000 0.750000
vt 0.375000 1.000000
vt 0.375000 0.750000
vt 0.638360 0.510806
vt 0.138360 0.510806
vt 0.361640 0.510806
vt 0.625000 0.500000
vt 0.138360 0.739194
vt 0.125000 0.500000
vt 0.861640 0.510806
vt 0.875000 0.750000
vt 0.861640 0.739194
vt 0.875000 0.500000
vt 0.638360 0.739194
vt 0.361640 0.739194
vt 0.125000 0.750000
vt 0.000000 0.000000
vt 0.625000 1.000000
s 0
usemtl 
f 147/43/31 145/44/31 146/45/31
f 148/46/32 149/47/32 145/44/32
f 152/48/33 146/49/33 151/50/33
f 144/51/33 139/52/33 143/53/33
f 150/54/34 151/50/34 149/47/34
f 137/55/35 145/56/35 139/52/35
f 140/57/36 147/58/36 138/59/36
f 139/52/37 149/47/37 143/53/37
f 144/51/38 148/60/38 140/57/38
f 142/61/31 143/53/31 141/62/31
f 143/53/39 151/50/39 141/62/39
f 141/62/40 146/63/40 137/55/40
f 138/59/41 152/48/41 142/61/41
f 138/59/32 141/62/32 137/55/32
f 146/45/42 138/59/42 140/57/42
f 140/64/34 137/64/34 139/64/34
f 142/61/43 150/54/43 144/51/43
f 154/43/31 153/45/31 155/44/31
f 156/46/32 155/44/32 159/47/32
f 160/54/34 159/47/34 157/50/34
f 158/48/33 157/50/33 153/49/33
f 159/47/44 155/56/44 153/63/44
f 160/54/45 158/48/45 154/58/45
f 147/43/31 148/46/31 145/44/31
f 148/46/32 150/54/32 149/47/32
f 152/48/33 147/65/33 146/49/33
f 144/51/33 140/57/33 139/52/33
f 150/54/34 152/48/34 151/50/34
f 137/55/35 146/63/35 145/56/35
f 140/57/36 148/60/36 147/58/36
f 139/52/37 145/56/37 149/47/37
f 144/51/38 150/54/38 148/60/38
f 142/61/31 144/51/31 143/53/31
f 143/53/39 149/47/39 151/50/39
f 141/62/40 151/50/40 146/63/40
f 138/59/41 147/58/41 152/48/41
f 138/59/32 142/61/32 141/62/32
f 146/45/42 140/57/42 145/44/42
f 140/64/34 138/64/34 137/64/34
f 142/61/43 152/48/43 150/54/43
f 154/43/31 155/44/31 156/46/31
f 156/46/32 159/47/32 160/54/32
f 160/54/34 157/50/34 158/48/34
f 158/48/33 153/49/33 154/65/33
f 159/47/44 153/63/44 157/50/44
f 160/54/45 154/58/45 156/60/45
usemtl 
f 162/43/46 161/45/46 163/44/46
f 164/46/47 163/44/47 167/47/47
f 168/54/48 167/47/48 165/50/48
f 166/48/49 165/50/49 161/49/49
f 163/56/44 161/63/44 165/50/44
f 164/60/45 168/54/45 166/48/45
f 162/43/46 163/44/46 164/46/46
f 164/46/47 167/47/47 168/54/47
f 168/54/48 165/50/48 166/48/48
f 166/48/49 161/49/49 162/65/49
f 163/56/44 165/50/44 167/47/44
f 164/60/45 166/48/45 162/58/45
usemtl 
f 170/43/46 169/45/46 171/44/46
f 172/46/47 171/44/47 175/47/47
f 176/54/48 175/47/48 173/50/48
f 174/48/49 173/50/49 169/49/49
f 171/56/44 169/63/44 173/50/44
f 172/60/45 176/54/45 174/48/45
f 170/43/46 171/44/46 172/46/46
f 172/46/47 175/47/47 176/54/47
f 176/54/48 173/50/48 174/48/48
f 174/48/49 169/49/49 170/65/49
f 171/56/44 173/50/44 175/47/44
f 172/60/45 174/48/45 170/58/45
o hopper_plane
v -0.489861 0.000000 0.489861
v 0.489861 0.000000 0.489861
v -0.489861 0.000000 -0.489861
v 0.489861 0.000000 -0.489861
vn -0.0000 1.0000 -0.0000
vt 1.000000 0.000000
vt 0.000000 1.000000
vt 0.000000 0.000000
vt 1.000000 1.000000
s 0
f 178/66/50 179/67/50 177/68/50
f 178/66/50 180/69/50 179/67/50
o sieve_hopper
v 0.898572 0.603504 0.124817
v 0.898572 0.976387 0.124817
v 0.898572 0.603504 0.004970
v 0.898572 0.976387 0.004970
v 0.987684 0.603504 0.124817
v 0.987684 0.976387 0.124817
v 0.987684 0.603504 0.004970
v 0.987684 0.976387 0.004970
v 0.015495 0.603504 0.124817
v 0.015495 0.976387 0.124817
v 0.015495 0.603504 0.004970
v 0.015495 0.976387 0.004970
v 0.104607 0.603504 0.124817
v 0.104607 0.976387 0.124817
v 0.104607 0.603504 0.004970
v 0.104607 0.976387 0.004970
v 0.898572 0.603504 0.995822
v 0.898572 0.976387 0.995822
v 0.898572 0.603504 0.875975
v 0.898572 0.976387 0.875975
v 0.987684 0.603504 0.995822
v 0.987684 0.976387 0.995822
v 0.987684 0.603504 0.875975
v 0.987684 0.976387 0.875975
v 0.015495 0.603504 0.995822
v 0.015495 0.976387 0.995822
v 0.015495 0.603504 0.875975
v 0.015495 0.976387 0.875975
v 0.104607 0.603504 0.995822
v 0.104607 0.976387 0.995822
v 0.104607 0.603504 0.875975
v 0.104607 0.976387 0.875975
v 0.524762 0.678476 0.524762
v 0.952818 1.000000 0.952818
v 0.475238 0.678476 0.524762
v 0.047182 1.000000 0.952818
v 0.524762 0.678476 0.475238
v 0.952818 1.000000 0.047182
v 0.475238 0.678476 0.475238
v 0.047182 1.000000 0.047182
v 0.000000 0.868468 1.000000
v 1.000000 0.868468 1.000000
v 0.000000 0.868468 0.000000
v 1.000000 0.868468 0.000000
v 1.000000 1.000000 1.000000
v 0.000000 1.000000 1.000000
v 0.000000 1.000000 0.000000
v 1.000000 1.000000 0.000000
v 0.524917 0.683080 0.524917
v 0.475083 0.683080 0.524917
v 0.475083 0.683080 0.475083
v 0.524917 0.683080 0.475083
v 0.952818 0.900851 0.952818
v 0.047182 0.900851 0.952818
v 0.047182 0.900851 0.047182
v 0.952818 0.900851 0.047182
vn -1.0000 -0.0000 -0.0000
vn -0.0000 -0.0000 -1.0000
vn 1.0000 -0.0000 -0.0000
vn -0.0000 -0.0000 1.0000
vn -0.0000 -1.0000 -0.0000
vn -0.0000 1.0000 -0.0000
vn -0.0000 -0.9285 0.3712
vn -0.3712 -0.9285 -0.0000
vn -0.0000 -0.9285 -0.3712
vn 0.3712 -0.9285 -0.0000
vn -0.0000 0.8912 -0.4536
vn 0.4536 0.8912 -0.0000
vn -0.0000 0.8912 0.4536
vn -0.4536 0.8912 -0.0000
vn -0.0000 0.0335 -0.9994
vn -0.9994 0.0335 -0.0000
vn 0.9994 0.0335 -0.0000
vn -0.0000 0.0335 0.9994
vt 0.139721 0.132581
vt 0.865878 0.132581
vt 0.865878 0.860784
vt 0.139721 0.860784
vt 0.015813 0.015711
vt 0.015813 0.985516
vt 0.985432 0.985516
vt 0.985432 0.015711
vt 0.999560 0.063600
vt 0.998979 0.935883
vt 0.939296 0.935883
vt 0.938521 0.063406
vt 0.476613 0.524628
vt 0.476613 0.476599
vt 0.524633 0.524628
vt 0.524633 0.476599
vt 0.061561 0.061468
vt 0.061561 0.939759
vt 0.939684 0.939759
vt 0.939684 0.061468
vt 0.002251 0.939759
vt 0.002503 0.061468
vt 0.061561 0.000623
vt 0.939684 0.002386
vt 0.937362 0.999991
vt 0.062724 0.999635
vt 0.062627 0.938112
vt 0.936998 0.938050
vt 0.576660 0.893555
vt 0.637695 0.893066
vt 0.999512 0.938965
vt 0.062988 0.938477
vt 0.490422 0.510816
vt 0.490422 0.490411
vt 0.510823 0.490411
vt 0.510823 0.510816
s 0
usemtl 
f 181/70/51 182/71/51 184/72/51 183/73/51
f 183/70/52 184/71/52 188/72/52 187/73/52
f 187/70/53 188/71/53 186/72/53 185/73/53
f 185/70/54 186/71/54 182/72/54 181/73/54
f 183/70/55 187/71/55 185/72/55 181/73/55
f 188/70/56 184/71/56 182/72/56 186/73/56
f 189/70/51 190/71/51 192/72/51 191/73/51
f 191/70/52 192/71/52 196/72/52 195/73/52
f 195/70/53 196/71/53 194/72/53 193/73/53
f 193/70/54 194/71/54 190/72/54 189/73/54
f 191/70/55 195/71/55 193/72/55 189/73/55
f 196/70/56 192/71/56 190/72/56 194/73/56
f 197/70/51 198/71/51 200/72/51 199/73/51
f 199/70/52 200/71/52 204/72/52 203/73/52
f 203/70/53 204/71/53 202/72/53 201/73/53
f 201/70/54 202/71/54 198/72/54 197/73/54
f 199/70/55 203/71/55 201/72/55 197/73/55
f 204/70/56 200/71/56 198/72/56 202/73/56
f 205/70/51 206/71/51 208/72/51 207/73/51
f 207/70/52 208/71/52 212/72/52 211/73/52
f 211/70/53 212/71/53 210/72/53 209/73/53
f 209/70/54 210/71/54 206/72/54 205/73/54
f 207/70/55 211/71/55 209/72/55 205/73/55
f 212/70/56 208/71/56 206/72/56 210/73/56
f 222/74/54 225/74/54 226/75/54 221/75/54
f 221/75/51 226/75/51 227/76/51 223/76/51
f 223/76/52 227/76/52 228/77/52 224/77/52
f 224/77/53 228/77/53 225/74/53 222/74/53
f 218/78/54 220/79/54 235/80/54 236/81/54
f 215/82/57 213/83/57 222/74/57 221/75/57
f 219/84/58 215/82/58 221/75/58 223/76/58
f 217/85/59 219/84/59 223/76/59 224/77/59
f 213/83/60 217/85/60 224/77/60 222/74/60
f 214/86/56 216/87/56 226/75/56 225/74/56
f 216/87/56 220/88/56 227/76/56 226/75/56
f 220/88/56 218/89/56 228/77/56 227/76/56
f 218/89/56 214/86/56 225/74/56 228/77/56
f 216/90/52 214/91/52 233/86/52 234/87/52
f 214/92/51 218/93/51 236/89/51 233/86/51
f 220/94/53 216/95/53 234/96/53 235/97/53
f 229/98/61 230/99/61 234/100/61 233/101/61
f 230/98/62 231/99/62 235/100/62 234/101/62
f 231/98/63 232/99/63 236/100/63 235/101/63
f 232/98/64 229/99/64 233/100/64 236/101/64
f 215/82/65 230/102/65 229/103/65 213/83/65
f 213/83/66 229/103/66 232/104/66 217/85/66
f 219/84/67 231/105/67 230/102/67 215/82/67
f 217/85/68 232/104/68 231/105/68 219/84/68
