# Blender 4.2.3 LTS
# www.blender.org
mtllib ring.mtl
o Circle
v 0.000000 0.000000 -1.000000
v -0.195090 0.000000 -0.980785
v -0.382683 0.000000 -0.923880
v -0.555570 0.000000 -0.831470
v -0.707107 0.000000 -0.707107
v -0.831470 0.000000 -0.555570
v -0.923880 0.000000 -0.382683
v -0.980785 0.000000 -0.195090
v -1.000000 0.000000 0.000000
v -0.980785 0.000000 0.195090
v -0.923880 0.000000 0.382683
v -0.831470 0.000000 0.555570
v -0.707107 0.000000 0.707107
v -0.555570 0.000000 0.831470
v -0.382683 0.000000 0.923880
v -0.195090 0.000000 0.980785
v 0.000000 0.000000 1.000000
v 0.195090 0.000000 0.980785
v 0.382683 0.000000 0.923880
v 0.555570 0.000000 0.831470
v 0.707107 0.000000 0.707107
v 0.831470 0.000000 0.555570
v 0.923880 0.000000 0.382683
v 0.980785 0.000000 0.195090
v 1.000000 0.000000 0.000000
v 0.980785 0.000000 -0.195090
v 0.923880 0.000000 -0.382683
v 0.831470 0.000000 -0.555570
v 0.707107 0.000000 -0.707107
v 0.555570 0.000000 -0.831470
v 0.382683 0.000000 -0.923880
v 0.195090 0.000000 -0.980785
v -0.097073 0.000000 -0.488020
v 0.000000 0.000000 -0.497581
v -0.190416 0.000000 -0.459705
v -0.276441 0.000000 -0.413723
v -0.351843 0.000000 -0.351843
v -0.413723 0.000000 -0.276441
v -0.459705 0.000000 -0.190416
v -0.488020 0.000000 -0.097073
v -0.497581 0.000000 0.000000
v -0.488020 0.000000 0.097073
v -0.459705 0.000000 0.190416
v -0.413723 0.000000 0.276441
v -0.351843 0.000000 0.351843
v -0.276441 0.000000 0.413723
v -0.190416 0.000000 0.459705
v -0.097073 0.000000 0.488020
v 0.000000 0.000000 0.497581
v 0.097073 0.000000 0.488020
v 0.190416 0.000000 0.459705
v 0.276441 0.000000 0.413723
v 0.351843 0.000000 0.351843
v 0.413723 0.000000 0.276441
v 0.459705 0.000000 0.190416
v 0.488020 0.000000 0.097073
v 0.497581 0.000000 0.000000
v 0.488020 0.000000 -0.097073
v 0.459705 0.000000 -0.190416
v 0.413723 0.000000 -0.276441
v 0.351843 0.000000 -0.351843
v 0.276441 0.000000 -0.413723
v 0.190416 0.000000 -0.459705
v 0.097073 0.000000 -0.488020
vn -0.0000 1.0000 -0.0000
vt 0.000000 0.000000
s 0
f 34/1/1 1/1/1 2/1/1
f 34/1/1 2/1/1 33/1/1
f 33/1/1 3/1/1 35/1/1
f 36/1/1 3/1/1 4/1/1
f 36/1/1 5/1/1 37/1/1
f 37/1/1 6/1/1 38/1/1
f 38/1/1 7/1/1 39/1/1
f 39/1/1 8/1/1 40/1/1
f 41/1/1 8/1/1 9/1/1
f 41/1/1 10/1/1 42/1/1
f 42/1/1 11/1/1 43/1/1
f 44/1/1 11/1/1 12/1/1
f 44/1/1 13/1/1 45/1/1
f 45/1/1 14/1/1 46/1/1
f 46/1/1 15/1/1 47/1/1
f 47/1/1 16/1/1 48/1/1
f 49/1/1 16/1/1 17/1/1
f 49/1/1 18/1/1 50/1/1
f 50/1/1 19/1/1 51/1/1
f 52/1/1 19/1/1 20/1/1
f 52/1/1 21/1/1 53/1/1
f 53/1/1 22/1/1 54/1/1
f 54/1/1 23/1/1 55/1/1
f 55/1/1 24/1/1 56/1/1
f 57/1/1 24/1/1 25/1/1
f 57/1/1 26/1/1 58/1/1
f 58/1/1 27/1/1 59/1/1
f 60/1/1 27/1/1 28/1/1
f 60/1/1 29/1/1 61/1/1
f 61/1/1 30/1/1 62/1/1
f 62/1/1 31/1/1 63/1/1
f 63/1/1 32/1/1 64/1/1
f 34/1/1 32/1/1 1/1/1
f 33/1/1 2/1/1 3/1/1
f 36/1/1 35/1/1 3/1/1
f 36/1/1 4/1/1 5/1/1
f 37/1/1 5/1/1 6/1/1
f 38/1/1 6/1/1 7/1/1
f 39/1/1 7/1/1 8/1/1
f 41/1/1 40/1/1 8/1/1
f 41/1/1 9/1/1 10/1/1
f 42/1/1 10/1/1 11/1/1
f 44/1/1 43/1/1 11/1/1
f 44/1/1 12/1/1 13/1/1
f 45/1/1 13/1/1 14/1/1
f 46/1/1 14/1/1 15/1/1
f 47/1/1 15/1/1 16/1/1
f 49/1/1 48/1/1 16/1/1
f 49/1/1 17/1/1 18/1/1
f 50/1/1 18/1/1 19/1/1
f 52/1/1 51/1/1 19/1/1
f 52/1/1 20/1/1 21/1/1
f 53/1/1 21/1/1 22/1/1
f 54/1/1 22/1/1 23/1/1
f 55/1/1 23/1/1 24/1/1
f 57/1/1 56/1/1 24/1/1
f 57/1/1 25/1/1 26/1/1
f 58/1/1 26/1/1 27/1/1
f 60/1/1 59/1/1 27/1/1
f 60/1/1 28/1/1 29/1/1
f 61/1/1 29/1/1 30/1/1
f 62/1/1 30/1/1 31/1/1
f 63/1/1 31/1/1 32/1/1
f 34/1/1 64/1/1 32/1/1
