# Blender 4.2.3 LTS
# www.blender.org
mtllib AstrobodyDataProcessor.mtl
o Cube
v 0.000000 -0.750000 1.937500
v 0.000000 -0.125000 1.937500
v 0.187500 -0.750000 1.937500
v 0.187500 -0.125000 1.937500
v 0.000000 -0.750000 2.000000
v 0.000000 -0.125000 2.000000
v 0.187500 -0.750000 2.000000
v 0.187500 -0.125000 2.000000
v 0.812500 -0.750000 1.937500
v 0.812500 -0.125000 1.937500
v 1.000000 -0.750000 1.937500
v 1.000000 -0.125000 1.937500
v 0.812500 -0.750000 2.000000
v 0.812500 -0.125000 2.000000
v 1.000000 -0.750000 2.000000
v 1.000000 -0.125000 2.000000
v -1.000000 -0.750000 0.187500
v -1.000000 -0.125000 0.187500
v -1.000000 -0.750000 0.000000
v -1.000000 -0.125000 0.000000
v -0.812500 -0.750000 0.187500
v -0.812500 -0.125000 0.187500
v -0.812500 -0.750000 0.000000
v -0.812500 -0.125000 0.000000
v -1.000000 -0.750000 2.000000
v -1.000000 -0.125000 2.000000
v -1.000000 -0.750000 1.812500
v -1.000000 -0.125000 1.812500
v -0.812500 -0.750000 2.000000
v -0.812500 -0.125000 2.000000
v -0.812500 -0.750000 1.812500
v -0.812500 -0.125000 1.812500
v 1.812500 -0.750000 2.000000
v 1.812500 -0.125000 2.000000
v 1.812500 -0.750000 1.812500
v 1.812500 -0.125000 1.812500
v 2.000000 -0.750000 2.000000
v 2.000000 -0.125000 2.000000
v 2.000000 -0.750000 1.812500
v 2.000000 -0.125000 1.812500
v 1.812500 -0.750000 0.187500
v 1.812500 -0.125000 0.187500
v 1.812500 -0.750000 0.000000
v 1.812500 -0.125000 0.000000
v 2.000000 -0.750000 0.187500
v 2.000000 -0.125000 0.187500
v 2.000000 -0.750000 0.000000
v 2.000000 -0.125000 0.000000
v -0.937500 -0.750000 1.937500
v -0.937500 -0.125000 1.937500
v -0.937500 -0.750000 0.062500
v -0.937500 -0.125000 0.062500
v 1.937500 -0.750000 1.937500
v 1.937500 -0.125000 1.937500
v 1.937500 -0.750000 0.062500
v 1.937500 -0.125000 0.062500
v -1.000000 -0.125000 2.000000
v -1.000000 -0.000000 2.000000
v -1.000000 -0.125000 0.000000
v -1.000000 -0.000000 0.000000
v 2.000000 -0.125000 2.000000
v 2.000000 0.000000 2.000000
v 2.000000 -0.125000 0.000000
v 2.000000 0.000000 0.000000
v -1.000000 -1.000000 2.000000
v -1.000000 -0.750000 2.000000
v -1.000000 -1.000000 0.000000
v -1.000000 -0.750000 0.000000
v 2.000000 -1.000000 2.000000
v 2.000000 -0.750000 2.000000
v 2.000000 -1.000000 0.000000
v 2.000000 -0.750000 0.000000
v 1.000000 -0.750000 0.062500
v 1.000000 -0.125000 0.062500
v 0.812500 -0.750000 0.062500
v 0.812500 -0.125000 0.062500
v 1.000000 -0.750000 0.000000
v 1.000000 -0.125000 0.000000
v 0.812500 -0.750000 0.000000
v 0.812500 -0.125000 0.000000
v 0.187500 -0.750000 0.062500
v 0.187500 -0.125000 0.062500
v 0.000000 -0.750000 0.062500
v 0.000000 -0.125000 0.062500
v 0.187500 -0.750000 0.000000
v 0.187500 -0.125000 0.000000
v 0.000000 -0.750000 0.000000
v 0.000000 -0.125000 0.000000
v 2.031259 -0.687500 0.343752
v 2.031259 -0.312500 0.343752
v 2.031241 -0.687500 0.718752
v 2.031241 -0.312500 0.718752
v 1.968759 -0.687500 0.343748
v 1.968759 -0.312500 0.343748
v 1.968741 -0.687500 0.718748
v 1.968741 -0.312500 0.718748
v -0.312500 -0.687500 2.000000
v -0.312500 -0.312500 2.000000
v -0.687500 -0.687500 2.000001
v -0.687500 -0.312500 2.000001
v -0.312500 -0.687500 1.937500
v -0.312500 -0.312500 1.937500
v -0.687500 -0.687500 1.937501
v -0.687500 -0.312500 1.937501
v 0.687500 -0.687500 2.000000
v 0.687500 -0.312500 2.000000
v 0.312500 -0.687500 2.000000
v 0.312500 -0.312500 2.000000
v 0.687500 -0.687500 1.937500
v 0.687500 -0.312500 1.937500
v 0.312500 -0.687500 1.937500
v 0.312500 -0.312500 1.937500
v 1.687500 -0.687500 2.000000
v 1.687500 -0.312500 2.000000
v 1.312500 -0.687500 2.000000
v 1.312500 -0.312500 2.000000
v 1.687500 -0.687500 1.937500
v 1.687500 -0.312500 1.937500
v 1.312500 -0.687500 1.937500
v 1.312500 -0.312500 1.937500
v 0.062500 -0.000000 0.062500
v 0.062500 0.625000 0.062500
v 0.937500 -0.000000 0.062500
v 0.937500 0.625000 0.062500
v 0.062500 -0.000000 0.937500
v 0.062500 0.625000 0.937500
v 0.937500 -0.000000 0.937500
v 0.937500 0.625000 0.937500
v 0.125000 -0.000000 1.125000
v 0.125000 0.375000 1.125000
v 0.875000 -0.000000 1.125000
v 0.875000 0.375000 1.125000
v 0.125000 -0.000000 1.875000
v 0.125000 0.375000 1.875000
v 0.875000 -0.000000 1.875000
v 0.875000 0.375000 1.875000
v 1.250000 -0.000000 1.250000
v 1.250000 0.187500 1.250000
v 1.750000 0.000000 1.250000
v 1.750000 0.187500 1.250000
v 1.250000 -0.000000 1.750000
v 1.250000 0.187500 1.750000
v 1.750000 0.000000 1.750000
v 1.750000 0.187500 1.750000
v 0.875000 -0.000000 1.312500
v 0.875000 0.125000 1.312500
v 1.250000 -0.000000 1.312500
v 1.250000 0.125000 1.312500
v 0.875000 -0.000000 1.687500
v 0.875000 0.125000 1.687500
v 1.250000 -0.000000 1.687500
v 1.250000 0.125000 1.687500
v 1.312500 -0.000000 0.875000
v 1.312500 0.125000 0.875000
v 1.687500 0.000000 0.875000
v 1.687500 0.125000 0.875000
v 1.312500 -0.000000 1.250000
v 1.312500 0.125000 1.250000
v 1.687500 0.000000 1.250000
v 1.687500 0.125000 1.250000
v 1.312500 -0.000000 0.500000
v 1.312500 0.125000 0.500000
v 1.562500 0.000000 0.500000
v 1.562500 0.125000 0.500000
v 1.312500 -0.000000 0.875000
v 1.312500 0.125000 0.875000
v 1.562500 0.000000 0.875000
v 1.562500 0.125000 0.875000
v 1.437500 0.000000 0.125000
v 1.437500 0.125000 0.125000
v 1.562500 0.000000 0.125000
v 1.562500 0.125000 0.125000
v 1.437500 0.000000 0.500000
v 1.437500 0.125000 0.500000
v 1.562500 0.000000 0.500000
v 1.562500 0.125000 0.500000
v 0.312500 -0.000000 0.937500
v 0.312500 0.250000 0.937500
v 0.687500 -0.000000 0.937500
v 0.687500 0.250000 0.937500
v 0.312500 -0.000000 1.125000
v 0.312500 0.250000 1.125000
v 0.687500 -0.000000 1.125000
v 0.687500 0.250000 1.125000
v -0.750000 -0.000000 1.250000
v -0.750000 0.187500 1.250000
v -0.250000 -0.000000 1.250000
v -0.250000 0.187500 1.250000
v -0.750000 -0.000000 1.750000
v -0.750000 0.187500 1.750000
v -0.250000 -0.000000 1.750000
v -0.250000 0.187500 1.750000
v -0.250000 -0.000000 1.312500
v -0.250000 0.125000 1.312500
v 0.125000 -0.000000 1.312500
v 0.125000 0.125000 1.312500
v -0.250000 -0.000000 1.687500
v -0.250000 0.125000 1.687500
v 0.125000 -0.000000 1.687500
v 0.125000 0.125000 1.687500
v -0.687500 -0.000000 0.875000
v -0.687500 0.125000 0.875000
v -0.312500 -0.000000 0.875000
v -0.312500 0.125000 0.875000
v -0.687500 -0.000000 1.250000
v -0.687500 0.125000 1.250000
v -0.312500 -0.000000 1.250000
v -0.312500 0.125000 1.250000
v -0.562500 -0.000000 0.500000
v -0.562500 0.125000 0.500000
v -0.312500 -0.000000 0.500000
v -0.312500 0.125000 0.500000
v -0.562500 -0.000000 0.875000
v -0.562500 0.125000 0.875000
v -0.312500 -0.000000 0.875000
v -0.312500 0.125000 0.875000
v -0.562500 -0.000000 0.125000
v -0.562500 0.125000 0.125000
v -0.437500 -0.000000 0.125000
v -0.437500 0.125000 0.125000
v -0.562500 -0.000000 0.500000
v -0.562500 0.125000 0.500000
v -0.437500 -0.000000 0.500000
v -0.437500 0.125000 0.500000
v -1.031259 -0.687500 0.718749
v -1.031259 -0.312500 0.718749
v -1.031241 -0.687500 0.343749
v -1.031241 -0.312500 0.343749
v -0.968759 -0.687500 0.718752
v -0.968759 -0.312500 0.718752
v -0.968741 -0.687500 0.343752
v -0.968741 -0.312500 0.343752
vn 1.0000 -0.0000 -0.0000
vn -0.0000 -0.0000 1.0000
vn -1.0000 -0.0000 -0.0000
vn -0.0000 -0.0000 -1.0000
vn -0.0000 -1.0000 -0.0000
vn -0.0000 1.0000 -0.0000
vt 0.984375 0.968750
vt 0.976562 0.812500
vt 0.984375 0.812500
vt 1.000000 0.968750
vt 1.000000 0.812500
vt 0.992188 0.968750
vt 0.992188 0.812500
vt 0.976562 0.968750
vt 1.000000 0.000000
vt 0.000000 1.000000
vt 0.000000 0.000000
vt 0.750000 0.812500
vt 0.632812 0.812500
vt 0.632812 0.968750
vt 0.750000 0.968750
vt 1.000000 1.000000
vt 0.625000 0.968750
vt 0.625000 1.000000
vt 0.750000 1.000000
vt 0.375000 0.500000
vt 0.000000 0.500000
vt 0.750000 0.000000
vt 0.375000 0.000000
vt 0.250000 0.437500
vt -0.000000 0.375000
vt 0.250000 0.375000
vt 0.000000 0.437500
vt 0.375000 0.437500
vt 0.953125 0.718750
vt 1.000000 0.718750
vt 0.960938 0.812500
vt 0.960938 0.718750
vt 0.992188 0.718750
vt 1.000000 0.734375
vt 0.953125 0.796875
vt 1.000000 0.796875
vt 0.859375 0.812500
vt 0.812500 0.718750
vt 0.859375 0.718750
vt 0.820312 0.812500
vt 0.820312 0.718750
vt 0.851562 0.718750
vt 0.851562 0.812500
vt 0.859375 0.734375
vt 0.812500 0.796875
vt 0.859375 0.796875
vt 0.515625 0.843750
vt 0.625000 0.843750
vt 0.515625 0.687500
vt 0.625000 0.687500
vt 0.515625 1.000000
vt 0.406250 0.781250
vt 0.515625 0.781250
vt 0.601562 0.593750
vt 0.710938 0.687500
vt 0.601562 0.687500
vt 0.710938 0.593750
vt 0.914062 0.718750
vt 0.804688 0.500000
vt 0.914062 0.500000
vt 0.687500 0.812500
vt 0.687500 0.687500
vt 0.710938 0.812500
vt 0.804688 0.812500
vt 0.710938 0.750000
vt 0.804688 0.750000
vt 0.804688 0.765625
vt 0.710938 0.703125
vt 0.804688 0.703125
vt 0.710938 0.625000
vt 0.804688 0.625000
vt 0.773438 0.812500
vt 0.773438 0.625000
vt 0.710938 0.562500
vt 0.804688 0.562500
vt 0.710938 0.765625
vt 0.804688 0.687500
vt 0.773438 0.687500
vt 0.710938 0.500000
vt 0.773438 0.750000
vt 0.781250 0.687500
vt 0.781250 0.640625
vt 0.804688 0.640625
vt 0.781250 0.812500
vt 0.375000 1.000000
vt 0.750000 0.500000
vt 0.953125 0.812500
vt 0.953125 0.734375
vt 0.812500 0.812500
vt 0.812500 0.734375
vt 0.406250 1.000000
vt 0.804688 0.718750
vt 0.625000 0.812500
vt 0.781250 0.765625
vt 0.781250 0.625000
s 0
usemtl Material
f 4/1/1 7/2/1 3/3/1
f 8/4/2 5/2/2 7/5/2
f 6/6/3 1/5/3 5/7/3
f 12/1/1 15/2/1 11/3/1
f 16/4/2 13/2/2 15/5/2
f 14/4/3 9/7/3 13/5/3
f 18/4/3 19/2/3 17/5/3
f 20/4/4 23/2/4 19/5/4
f 24/4/1 21/2/1 23/5/1
f 22/4/2 17/2/2 21/5/2
f 26/4/3 27/2/3 25/5/3
f 28/4/4 31/2/4 27/5/4
f 32/8/1 29/3/1 31/2/1
f 30/4/2 25/2/2 29/5/2
f 34/5/3 35/6/3 33/7/3
f 36/4/4 39/7/4 35/5/4
f 40/4/1 37/2/1 39/5/1
f 38/4/2 33/2/2 37/5/2
f 39/9/5 33/10/5 35/11/5
f 36/9/6 38/10/6 40/11/6
f 42/4/3 43/2/3 41/5/3
f 44/4/4 47/2/4 43/5/4
f 48/4/1 45/2/1 47/5/1
f 46/4/2 41/7/2 45/5/2
f 50/8/3 51/12/3 49/2/3
f 52/13/4 55/6/4 51/14/4
f 56/12/1 53/8/1 55/15/1
f 54/6/2 49/13/2 53/7/2
f 58/16/3 59/15/3 57/4/3
f 60/17/4 63/16/4 59/18/4
f 64/15/1 61/16/1 63/19/1
f 62/16/2 57/17/2 61/4/2
f 63/20/5 57/10/5 59/21/5
f 60/22/6 62/20/6 64/23/6
f 66/24/3 67/25/3 65/26/3
f 68/20/4 71/27/4 67/28/4
f 72/24/1 69/25/1 71/26/1
f 70/20/2 65/27/2 69/28/2
f 71/20/5 65/10/5 67/21/5
f 68/20/6 70/10/6 72/21/6
f 76/1/3 79/2/3 75/3/3
f 80/4/4 77/2/4 79/5/4
f 78/6/1 73/5/1 77/7/1
f 84/1/3 87/2/3 83/3/3
f 88/4/4 85/2/4 87/5/4
f 86/4/1 81/7/1 85/5/1
f 90/5/1 91/29/1 89/30/1
f 92/31/2 95/29/2 91/32/2
f 94/33/4 89/5/4 93/7/4
f 95/34/5 89/29/5 91/30/5
f 92/5/6 94/35/6 96/36/6
f 98/37/2 99/38/2 97/39/2
f 100/40/3 103/38/3 99/41/3
f 102/42/1 97/37/1 101/43/1
f 103/44/5 97/38/5 99/39/5
f 100/37/6 102/45/6 104/46/6
f 106/37/2 107/38/2 105/39/2
f 108/40/3 111/38/3 107/41/3
f 110/42/1 105/37/1 109/43/1
f 111/44/5 105/38/5 107/39/5
f 108/37/6 110/45/6 112/46/6
f 114/37/2 115/38/2 113/39/2
f 116/40/3 119/38/3 115/41/3
f 118/42/1 113/37/1 117/43/1
f 119/44/5 113/38/5 115/39/5
f 116/37/6 118/45/6 120/46/6
f 122/18/4 123/47/4 121/48/4
f 124/49/1 127/48/1 123/47/1
f 128/48/2 125/49/2 127/50/2
f 126/48/3 121/49/3 125/50/3
f 124/51/6 126/52/6 128/53/6
f 130/54/4 131/55/4 129/56/4
f 132/54/1 135/55/1 131/56/1
f 136/55/2 133/54/2 135/57/2
f 134/55/3 129/54/3 133/57/3
f 132/58/6 134/59/6 136/60/6
f 138/55/4 139/61/4 137/62/4
f 140/55/1 143/61/1 139/62/1
f 144/61/2 141/55/2 143/63/2
f 142/61/3 137/55/3 141/63/3
f 140/61/6 142/50/6 144/62/6
f 146/64/4 147/65/4 145/66/4
f 148/11/1 151/11/1 147/11/1
f 152/67/2 149/68/2 151/69/2
f 150/11/3 145/11/3 149/11/3
f 148/64/6 150/70/6 152/71/6
f 154/71/4 155/72/4 153/73/4
f 156/71/1 159/74/1 155/75/1
f 160/11/2 157/11/2 159/11/2
f 158/76/3 153/69/3 157/68/3
f 156/63/6 158/71/6 160/64/6
f 162/77/4 163/72/4 161/78/4
f 164/64/1 167/65/1 163/66/1
f 168/11/2 165/11/2 167/11/2
f 166/74/3 161/59/3 165/79/3
f 164/63/6 166/77/6 168/64/6
f 170/66/4 171/72/4 169/80/4
f 172/71/1 175/74/1 171/75/1
f 176/11/2 173/11/2 175/11/2
f 174/74/3 169/59/3 173/79/3
f 172/63/6 174/66/6 176/64/6
f 178/11/4 179/11/4 177/11/4
f 180/64/1 183/81/1 179/77/1
f 184/11/2 181/11/2 183/11/2
f 182/67/3 177/82/3 181/83/3
f 180/84/6 182/71/6 184/64/6
f 186/55/4 187/61/4 185/62/4
f 188/55/1 191/61/1 187/62/1
f 192/61/2 189/55/2 191/63/2
f 190/61/3 185/55/3 189/63/3
f 188/61/6 190/50/6 192/62/6
f 194/64/4 195/65/4 193/66/4
f 200/67/2 197/68/2 199/69/2
f 196/64/6 198/70/6 200/71/6
f 202/71/4 203/72/4 201/73/4
f 204/64/1 207/65/1 203/66/1
f 206/74/3 201/59/3 205/79/3
f 204/63/6 206/71/6 208/64/6
f 210/77/4 211/72/4 209/78/4
f 212/71/1 215/74/1 211/75/1
f 214/76/3 209/69/3 213/68/3
f 212/63/6 214/77/6 216/64/6
f 218/66/4 219/72/4 217/80/4
f 220/71/1 223/74/1 219/75/1
f 222/74/3 217/59/3 221/79/3
f 220/63/6 222/66/6 224/64/6
f 4/1/1 8/8/1 7/2/1
f 8/4/2 6/8/2 5/2/2
f 6/6/3 2/4/3 1/5/3
f 12/1/1 16/8/1 15/2/1
f 16/4/2 14/8/2 13/2/2
f 14/4/3 10/6/3 9/7/3
f 18/4/3 20/8/3 19/2/3
f 20/4/4 24/8/4 23/2/4
f 24/4/1 22/8/1 21/2/1
f 22/4/2 18/8/2 17/2/2
f 26/4/3 28/8/3 27/2/3
f 28/4/4 32/8/4 31/2/4
f 32/8/1 30/1/1 29/3/1
f 30/4/2 26/8/2 25/2/2
f 34/5/3 36/4/3 35/6/3
f 36/4/4 40/6/4 39/7/4
f 40/4/1 38/8/1 37/2/1
f 38/4/2 34/8/2 33/2/2
f 39/9/5 37/16/5 33/10/5
f 36/9/6 34/16/6 38/10/6
f 42/4/3 44/8/3 43/2/3
f 44/4/4 48/8/4 47/2/4
f 48/4/1 46/8/1 45/2/1
f 46/4/2 42/6/2 41/7/2
f 50/8/3 52/15/3 51/12/3
f 52/13/4 56/7/4 55/6/4
f 56/12/1 54/2/1 53/8/1
f 54/6/2 50/14/2 49/13/2
f 58/16/3 60/19/3 59/15/3
f 60/17/4 64/4/4 63/16/4
f 64/15/1 62/4/1 61/16/1
f 62/16/2 58/18/2 57/17/2
f 63/20/5 61/85/5 57/10/5
f 60/22/6 58/86/6 62/20/6
f 66/24/3 68/27/3 67/25/3
f 68/20/4 72/21/4 71/27/4
f 72/24/1 70/27/1 69/25/1
f 70/20/2 66/21/2 65/27/2
f 71/20/5 69/85/5 65/10/5
f 68/20/6 66/85/6 70/10/6
f 76/1/3 80/8/3 79/2/3
f 80/4/4 78/8/4 77/2/4
f 78/6/1 74/4/1 73/5/1
f 84/1/3 88/8/3 87/2/3
f 88/4/4 86/8/4 85/2/4
f 86/4/1 82/6/1 81/7/1
f 90/5/1 92/87/1 91/29/1
f 92/31/2 96/87/2 95/29/2
f 94/33/4 90/30/4 89/5/4
f 95/34/5 93/88/5 89/29/5
f 92/5/6 90/87/6 94/35/6
f 98/37/2 100/89/2 99/38/2
f 100/40/3 104/89/3 103/38/3
f 102/42/1 98/39/1 97/37/1
f 103/44/5 101/90/5 97/38/5
f 100/37/6 98/89/6 102/45/6
f 106/37/2 108/89/2 107/38/2
f 108/40/3 112/89/3 111/38/3
f 110/42/1 106/39/1 105/37/1
f 111/44/5 109/90/5 105/38/5
f 108/37/6 106/89/6 110/45/6
f 114/37/2 116/89/2 115/38/2
f 116/40/3 120/89/3 119/38/3
f 118/42/1 114/39/1 113/37/1
f 119/44/5 117/90/5 113/38/5
f 116/37/6 114/89/6 118/45/6
f 122/18/4 124/51/4 123/47/4
f 124/49/1 128/50/1 127/48/1
f 128/48/2 126/47/2 125/49/2
f 126/48/3 122/47/3 121/49/3
f 124/51/6 122/91/6 126/52/6
f 130/54/4 132/57/4 131/55/4
f 132/54/1 136/57/1 135/55/1
f 136/55/2 134/56/2 133/54/2
f 134/55/3 130/56/3 129/54/3
f 132/58/6 130/92/6 134/59/6
f 138/55/4 140/63/4 139/61/4
f 140/55/1 144/63/1 143/61/1
f 144/61/2 142/62/2 141/55/2
f 142/61/3 138/62/3 137/55/3
f 140/61/6 138/93/6 142/50/6
f 146/64/4 148/63/4 147/65/4
f 148/11/1 152/11/1 151/11/1
f 152/67/2 150/76/2 149/68/2
f 150/11/3 146/11/3 145/11/3
f 148/64/6 146/63/6 150/70/6
f 154/71/4 156/64/4 155/72/4
f 156/71/1 160/70/1 159/74/1
f 160/11/2 158/11/2 157/11/2
f 158/76/3 154/67/3 153/69/3
f 156/63/6 154/70/6 158/71/6
f 162/77/4 164/64/4 163/72/4
f 164/64/1 168/63/1 167/65/1
f 168/11/2 166/11/2 165/11/2
f 166/74/3 162/75/3 161/59/3
f 164/63/6 162/55/6 166/77/6
f 170/66/4 172/64/4 171/72/4
f 172/71/1 176/70/1 175/74/1
f 176/11/2 174/11/2 173/11/2
f 174/74/3 170/75/3 169/59/3
f 172/63/6 170/65/6 174/66/6
f 178/11/4 180/11/4 179/11/4
f 180/64/1 184/84/1 183/81/1
f 184/11/2 182/11/2 181/11/2
f 182/67/3 178/94/3 177/82/3
f 180/84/6 178/95/6 182/71/6
f 186/55/4 188/63/4 187/61/4
f 188/55/1 192/63/1 191/61/1
f 192/61/2 190/62/2 189/55/2
f 190/61/3 186/62/3 185/55/3
f 188/61/6 186/93/6 190/50/6
f 194/64/4 196/63/4 195/65/4
f 200/67/2 198/76/2 197/68/2
f 196/64/6 194/63/6 198/70/6
f 202/71/4 204/64/4 203/72/4
f 204/64/1 208/63/1 207/65/1
f 206/74/3 202/75/3 201/59/3
f 204/63/6 202/70/6 206/71/6
f 210/77/4 212/64/4 211/72/4
f 212/71/1 216/70/1 215/74/1
f 214/76/3 210/67/3 209/69/3
f 212/63/6 210/55/6 214/77/6
f 218/66/4 220/64/4 219/72/4
f 220/71/1 224/70/1 223/74/1
f 222/74/3 218/75/3 217/59/3
f 220/63/6 218/65/6 222/66/6
f 226/5/3 227/29/3 225/30/3
f 228/31/4 231/29/4 227/32/4
f 230/33/2 225/5/2 229/7/2
f 231/34/5 225/29/5 227/30/5
f 228/5/6 230/35/6 232/36/6
f 226/5/3 228/87/3 227/29/3
f 228/31/4 232/87/4 231/29/4
f 230/33/2 226/30/2 225/5/2
f 231/34/5 229/88/5 225/29/5
f 228/5/6 226/87/6 230/35/6
