# Blender 4.2.3 LTS
# www.blender.org
mtllib laser_drill.mtl
o Laser
v -7.750000 -0.000000 3.000000
v -7.750000 2.000000 3.000000
v -8.000000 -0.000000 3.000000
v -8.000000 2.000000 3.000000
v -7.750000 -0.000000 7.000000
v -7.750000 2.000000 7.000000
v -8.000000 -0.000000 7.000000
v -8.000000 2.000000 7.000000
v -4.000000 0.000000 6.000000
v -4.000000 2.000000 6.000000
v -4.500000 -0.000000 6.000000
v -4.500000 2.000000 6.000000
v -4.000000 0.000000 7.000000
v -4.000000 2.000000 7.000000
v -4.500000 -0.000000 7.000000
v -4.500000 2.000000 7.000000
v -4.500000 -0.000000 3.000000
v -4.500000 2.000000 3.000000
v -4.750000 -0.000000 3.000000
v -4.750000 2.000000 3.000000
v -4.500000 -0.000000 7.000000
v -4.500000 2.000000 7.000000
v -4.750000 -0.000000 7.000000
v -4.750000 2.000000 7.000000
v -4.000000 2.000025 4.853564
v -3.000000 2.000025 4.853564
v -4.000000 1.853564 5.000025
v -3.000000 1.853564 5.000025
v -4.000000 1.499975 4.646436
v -3.000000 1.499975 4.646436
v -4.000000 1.646436 4.499975
v -3.000000 1.646436 4.499975
v -4.000000 1.853564 4.499975
v -3.000000 1.853564 4.499975
v -4.000000 2.000025 4.646436
v -3.000000 2.000025 4.646436
v -4.353564 2.000025 4.000000
v -4.353564 2.000025 4.500000
v -4.500025 1.853564 4.000000
v -4.500025 1.853564 4.500000
v -4.146436 1.499975 4.000000
v -4.146436 1.499975 4.500000
v -3.999975 1.646436 4.000000
v -3.999975 1.646436 4.500000
v -3.999975 1.853564 4.000000
v -3.999975 1.853564 4.500000
v -4.146436 2.000025 4.000000
v -4.146436 2.000025 4.500000
v -7.750000 2.000025 3.353564
v -4.750000 2.000025 3.353564
v -7.750000 1.853564 3.500025
v -4.750000 1.853563 3.500025
v -7.750000 1.499975 3.146436
v -4.750000 1.499975 3.146436
v -7.750000 1.646436 2.999975
v -4.750000 1.646436 2.999975
v -7.750000 1.853564 2.999975
v -4.750000 1.853563 2.999975
v -7.750000 2.000025 3.146436
v -4.750000 2.000025 3.146436
v -7.750000 0.999975 3.146436
v -4.750000 0.999975 3.146436
v -7.750000 1.146436 2.999975
v -4.750000 1.146436 2.999975
v -7.750000 1.353564 2.999975
v -4.750000 1.353563 2.999975
v -7.750000 1.500025 3.146436
v -4.750000 1.500025 3.146436
v -7.750000 0.499975 3.146436
v -4.750000 0.499975 3.146436
v -7.750000 0.646436 2.999975
v -4.750000 0.646436 2.999975
v -7.750000 0.853563 2.999975
v -4.750000 0.853563 2.999975
v -7.750000 1.000025 3.146436
v -4.750000 1.000025 3.146436
v -7.750000 0.146436 3.500025
v -4.750000 0.146436 3.500025
v -7.750000 -0.000025 3.353564
v -4.750000 -0.000025 3.353564
v -7.750000 -0.000025 3.146436
v -4.750000 -0.000025 3.146436
v -7.750000 0.146436 2.999975
v -4.750000 0.146436 2.999975
v -7.750000 0.353563 2.999975
v -4.750000 0.353563 2.999975
v -7.750000 0.500025 3.146436
v -4.750000 0.500025 3.146436
v -7.750000 2.000025 3.853564
v -4.750000 2.000025 3.853564
v -7.750000 1.853564 4.000025
v -4.750000 1.853563 4.000025
v -7.750000 1.646436 4.000025
v -4.750000 1.646436 4.000025
v -7.750000 1.499975 3.853564
v -4.750000 1.499975 3.853564
v -7.750000 1.853564 3.499975
v -4.750000 1.853563 3.499975
v -7.750000 2.000025 3.646436
v -4.750000 2.000025 3.646436
v -7.750000 1.500025 3.853564
v -4.750000 1.500025 3.853564
v -7.750000 1.353564 4.000025
v -4.750000 1.353563 4.000025
v -7.750000 1.146436 4.000025
v -4.750000 1.146436 4.000025
v -7.750000 0.999975 3.853564
v -4.750000 0.999975 3.853564
v -7.750000 1.000025 3.853564
v -4.750000 1.000025 3.853564
v -7.750000 0.853564 4.000025
v -4.750000 0.853563 4.000025
v -7.750000 0.646436 4.000025
v -4.750000 0.646436 4.000025
v -7.750000 0.499975 3.853564
v -4.750000 0.499975 3.853564
v -7.750000 0.500025 3.853564
v -4.750000 0.500025 3.853564
v -7.750000 0.353564 4.000025
v -4.750000 0.353563 4.000025
v -7.750000 0.146436 4.000025
v -4.750000 0.146436 4.000025
v -7.750000 -0.000025 3.853564
v -4.750000 -0.000025 3.853564
v -7.750000 -0.000025 3.646436
v -4.750000 -0.000025 3.646436
v -7.750000 0.146436 3.499975
v -4.750000 0.146436 3.499975
v -7.750000 2.000025 4.853564
v -4.750000 2.000025 4.853564
v -7.750000 1.853564 5.000025
v -4.750000 1.853563 5.000025
v -7.750000 1.499975 4.646436
v -4.750000 1.499975 4.646436
v -7.750000 1.646436 4.499975
v -4.750000 1.646436 4.499975
v -7.750000 1.853564 4.499975
v -4.750000 1.853563 4.499975
v -7.750000 2.000025 4.646436
v -4.750000 2.000025 4.646436
v -7.750000 0.999975 4.646436
v -4.750000 0.999975 4.646436
v -7.750000 1.146436 4.499975
v -4.750000 1.146436 4.499975
v -7.750000 1.353564 4.499975
v -4.750000 1.353563 4.499975
v -7.750000 1.500025 4.646436
v -4.750000 1.500025 4.646436
v -7.750000 0.499975 4.646436
v -4.750000 0.499975 4.646436
v -7.750000 0.646436 4.499975
v -4.750000 0.646436 4.499975
v -7.750000 0.853563 4.499975
v -4.750000 0.853563 4.499975
v -7.750000 1.000025 4.646436
v -4.750000 1.000025 4.646436
v -7.750000 0.146436 5.000025
v -4.750000 0.146436 5.000025
v -7.750000 -0.000025 4.853564
v -4.750000 -0.000025 4.853564
v -7.750000 -0.000025 4.646436
v -4.750000 -0.000025 4.646436
v -7.750000 0.146436 4.499975
v -4.750000 0.146436 4.499975
v -7.750000 0.353563 4.499975
v -4.750000 0.353563 4.499975
v -7.750000 0.500025 4.646436
v -4.750000 0.500025 4.646436
v -7.750000 2.000025 5.353564
v -4.750000 2.000025 5.353564
v -7.750000 1.853564 5.500025
v -4.750000 1.853563 5.500025
v -7.750000 1.646436 5.500025
v -4.750000 1.646436 5.500025
v -7.750000 1.499975 5.353564
v -4.750000 1.499975 5.353564
v -7.750000 1.853564 4.999975
v -4.750000 1.853563 4.999975
v -7.750000 2.000025 5.146436
v -4.750000 2.000025 5.146436
v -7.750000 1.500025 5.353564
v -4.750000 1.500025 5.353564
v -7.750000 1.353564 5.500025
v -4.750000 1.353563 5.500025
v -7.750000 1.146436 5.500025
v -4.750000 1.146436 5.500025
v -7.750000 0.999975 5.353564
v -4.750000 0.999975 5.353564
v -7.750000 1.000025 5.353564
v -4.750000 1.000025 5.353564
v -7.750000 0.853564 5.500025
v -4.750000 0.853563 5.500025
v -7.750000 0.646436 5.500025
v -4.750000 0.646436 5.500025
v -7.750000 0.499975 5.353564
v -4.750000 0.499975 5.353564
v -7.750000 0.500025 5.353564
v -4.750000 0.500025 5.353564
v -7.750000 0.353564 5.500025
v -4.750000 0.353563 5.500025
v -7.750000 0.146436 5.500025
v -4.750000 0.146436 5.500025
v -7.750000 -0.000025 5.353564
v -4.750000 -0.000025 5.353564
v -7.750000 -0.000025 5.146436
v -4.750000 -0.000025 5.146436
v -7.750000 0.146436 4.999975
v -4.750000 0.146436 4.999975
v -7.750000 2.000025 6.353564
v -4.750000 2.000025 6.353564
v -7.750000 1.853564 6.500025
v -4.750000 1.853563 6.500025
v -7.750000 1.499975 6.146436
v -4.750000 1.499975 6.146436
v -7.750000 1.646436 5.999975
v -4.750000 1.646436 5.999975
v -7.750000 1.853564 5.999975
v -4.750000 1.853563 5.999975
v -7.750000 2.000025 6.146436
v -4.750000 2.000025 6.146436
v -7.750000 0.999975 6.146436
v -4.750000 0.999975 6.146436
v -7.750000 1.146436 5.999975
v -4.750000 1.146436 5.999975
v -7.750000 1.353564 5.999975
v -4.750000 1.353563 5.999975
v -7.750000 1.500025 6.146436
v -4.750000 1.500025 6.146436
v -7.750000 0.499975 6.146436
v -4.750000 0.499975 6.146436
v -7.750000 0.646436 5.999975
v -4.750000 0.646436 5.999975
v -7.750000 0.853563 5.999975
v -4.750000 0.853563 5.999975
v -7.750000 1.000025 6.146436
v -4.750000 1.000025 6.146436
v -7.750000 0.146436 6.500025
v -4.750000 0.146436 6.500025
v -7.750000 -0.000025 6.353564
v -4.750000 -0.000025 6.353564
v -7.750000 -0.000025 6.146436
v -4.750000 -0.000025 6.146436
v -7.750000 0.146436 5.999975
v -4.750000 0.146436 5.999975
v -7.750000 0.353563 5.999975
v -4.750000 0.353563 5.999975
v -7.750000 0.500025 6.146436
v -4.750000 0.500025 6.146436
v -7.750000 2.000025 6.853564
v -4.750000 2.000025 6.853564
v -7.750000 1.853564 7.000025
v -4.750000 1.853563 7.000025
v -7.750000 1.646436 7.000025
v -4.750000 1.646436 7.000025
v -7.750000 1.499975 6.853564
v -4.750000 1.499975 6.853564
v -7.750000 1.853564 6.499975
v -4.750000 1.853563 6.499975
v -7.750000 2.000025 6.646436
v -4.750000 2.000025 6.646436
v -7.750000 1.500025 6.853564
v -4.750000 1.500025 6.853564
v -7.750000 1.353564 7.000025
v -4.750000 1.353563 7.000025
v -7.750000 1.146436 7.000025
v -4.750000 1.146436 7.000025
v -7.750000 0.999975 6.853564
v -4.750000 0.999975 6.853564
v -7.750000 1.000025 6.853564
v -4.750000 1.000025 6.853564
v -7.750000 0.853564 7.000025
v -4.750000 0.853563 7.000025
v -7.750000 0.646436 7.000025
v -4.750000 0.646436 7.000025
v -7.750000 0.499975 6.853564
v -4.750000 0.499975 6.853564
v -7.750000 0.500025 6.853564
v -4.750000 0.500025 6.853564
v -7.750000 0.353564 7.000025
v -4.750000 0.353563 7.000025
v -7.750000 0.146436 7.000025
v -4.750000 0.146436 7.000025
v -7.750000 -0.000025 6.853564
v -4.750000 -0.000025 6.853564
v -7.750000 -0.000025 6.646436
v -4.750000 -0.000025 6.646436
v -7.750000 0.146436 6.499975
v -4.750000 0.146436 6.499975
v -4.000000 0.000000 4.500000
v -4.000000 2.000000 4.500000
v -4.500000 -0.000000 4.500000
v -4.500000 2.000000 4.500000
v -4.000000 0.000000 5.500000
v -4.000000 2.000000 5.500000
v -4.500000 -0.000000 5.500000
v -4.500000 2.000000 5.500000
v -4.000000 0.000000 3.000000
v -4.000000 2.000000 3.000000
v -4.500000 -0.000000 3.000000
v -4.500000 2.000000 3.000000
v -4.000000 0.000000 4.000000
v -4.000000 2.000000 4.000000
v -4.500000 -0.000000 4.000000
v -4.500000 2.000000 4.000000
v -4.146436 0.999975 4.000000
v -4.146436 0.999975 4.500000
v -3.999975 1.146436 4.000000
v -3.999975 1.146436 4.500000
v -3.999975 1.353564 4.000000
v -3.999975 1.353564 4.500000
v -4.146436 1.500025 4.000000
v -4.146436 1.500025 4.500000
v -4.146436 0.499975 4.000000
v -4.146436 0.499975 4.500000
v -3.999975 0.646436 4.000000
v -3.999975 0.646436 4.500000
v -3.999975 0.853564 4.000000
v -3.999975 0.853564 4.500000
v -4.146436 1.000025 4.000000
v -4.146436 1.000025 4.500000
v -4.500025 0.146436 4.000000
v -4.500025 0.146436 4.500000
v -4.353564 -0.000025 4.000000
v -4.353564 -0.000025 4.500000
v -4.146436 -0.000025 4.000000
v -4.146436 -0.000025 4.500000
v -3.999975 0.146436 4.000000
v -3.999975 0.146436 4.500000
v -3.999975 0.353564 4.000000
v -3.999975 0.353564 4.500000
v -4.146436 0.500025 4.000000
v -4.146436 0.500025 4.500000
v -4.353564 2.000025 5.500000
v -4.353564 2.000025 6.000000
v -4.500025 1.853564 5.500000
v -4.500025 1.853564 6.000000
v -4.146436 1.499975 5.500000
v -4.146436 1.499975 6.000000
v -3.999975 1.646436 5.500000
v -3.999975 1.646436 6.000000
v -3.999975 1.853564 5.500000
v -3.999975 1.853564 6.000000
v -4.146436 2.000025 5.500000
v -4.146436 2.000025 6.000000
v -4.146436 0.999975 5.500000
v -4.146436 0.999975 6.000000
v -3.999975 1.146436 5.500000
v -3.999975 1.146436 6.000000
v -3.999975 1.353564 5.500000
v -3.999975 1.353564 6.000000
v -4.146436 1.500025 5.500000
v -4.146436 1.500025 6.000000
v -4.146436 0.499975 5.500000
v -4.146436 0.499975 6.000000
v -3.999975 0.646436 5.500000
v -3.999975 0.646436 6.000000
v -3.999975 0.853564 5.500000
v -3.999975 0.853564 6.000000
v -4.146436 1.000025 5.500000
v -4.146436 1.000025 6.000000
v -4.500025 0.146436 5.500000
v -4.500025 0.146436 6.000000
v -4.353564 -0.000025 5.500000
v -4.353564 -0.000025 6.000000
v -4.146436 -0.000025 5.500000
v -4.146436 -0.000025 6.000000
v -3.999975 0.146436 5.500000
v -3.999975 0.146436 6.000000
v -3.999975 0.353564 5.500000
v -3.999975 0.353564 6.000000
v -4.146436 0.500025 5.500000
v -4.146436 0.500025 6.000000
v -4.000000 0.999975 4.646436
v -3.000000 0.999975 4.646436
v -4.000000 1.146436 4.499975
v -3.000000 1.146436 4.499975
v -4.000000 1.353564 4.499975
v -3.000000 1.353564 4.499975
v -4.000000 1.500025 4.646436
v -3.000000 1.500025 4.646436
v -4.000000 0.499975 4.646436
v -3.000000 0.499975 4.646436
v -4.000000 0.646436 4.499975
v -3.000000 0.646436 4.499975
v -4.000000 0.853564 4.499975
v -3.000000 0.853564 4.499975
v -4.000000 1.000025 4.646436
v -3.000000 1.000025 4.646436
v -4.000000 -0.000025 4.646436
v -3.000000 -0.000025 4.646436
v -4.000000 0.146436 4.499975
v -3.000000 0.146436 4.499975
v -4.000000 0.353564 4.499975
v -3.000000 0.353564 4.499975
v -4.000000 0.500025 4.646436
v -3.000000 0.500025 4.646436
v -4.000000 2.000025 5.353564
v -3.000000 2.000025 5.353564
v -4.000000 1.853564 5.500025
v -3.000000 1.853564 5.500025
v -4.000000 1.646436 5.500025
v -3.000000 1.646436 5.500025
v -4.000000 1.499975 5.353564
v -3.000000 1.499975 5.353564
v -4.000000 1.853564 4.999975
v -3.000000 1.853564 4.999975
v -4.000000 2.000025 5.146436
v -3.000000 2.000025 5.146436
v -4.000000 0.500025 5.353564
v -3.000000 0.500025 5.353564
v -4.000000 0.353564 5.500025
v -3.000000 0.353564 5.500025
v -4.000000 0.146436 5.500025
v -3.000000 0.146436 5.500025
v -4.000000 -0.000025 5.353564
v -3.000000 -0.000025 5.353564
v -4.000000 0.146436 5.000025
v -3.000000 0.146436 5.000025
v -4.000000 -0.000025 4.853564
v -3.000000 -0.000025 4.853564
v -4.000000 -0.000025 5.146436
v -3.000000 -0.000025 5.146436
v -4.000000 0.146436 4.999975
v -3.000000 0.146436 4.999975
v -4.000000 1.000025 5.353564
v -3.000000 1.000025 5.353564
v -4.000000 0.853564 5.500025
v -3.000000 0.853564 5.500025
v -4.000000 0.646436 5.500025
v -3.000000 0.646436 5.500025
v -4.000000 0.499975 5.353564
v -3.000000 0.499975 5.353564
v -4.000000 1.500025 5.353564
v -3.000000 1.500025 5.353564
v -4.000000 1.353564 5.500025
v -3.000000 1.353564 5.500025
v -4.000000 1.146436 5.500025
v -3.000000 1.146436 5.500025
v -4.000000 0.999975 5.353564
v -3.000000 0.999975 5.353564
v -8.000000 -0.000000 4.000000
v -8.000000 0.250000 4.000000
v -9.000000 -0.000000 4.000000
v -9.000000 0.250000 4.000000
v -8.000000 -0.000000 6.000000
v -8.000000 0.250000 6.000000
v -9.000000 -0.000000 6.000000
v -9.000000 0.250000 6.000000
v -8.062500 0.250000 4.062500
v -8.062500 1.875000 4.062500
v -8.937500 0.250000 4.062500
v -8.937500 1.875000 4.062500
v -8.062500 0.250000 5.937500
v -8.062500 1.875000 5.937500
v -8.937500 0.250000 5.937500
v -8.937500 1.875000 5.937500
v -8.000000 1.875000 4.000000
v -8.000000 2.000000 4.000000
v -9.000000 1.875000 4.000000
v -9.000000 2.000000 4.000000
v -8.000000 1.875000 6.000000
v -8.000000 2.000000 6.000000
v -9.000000 1.875000 6.000000
v -9.000000 2.000000 6.000000
v -8.812500 0.250000 4.000000
v -8.812500 1.875000 4.000000
v -9.000000 0.250000 4.000000
v -9.000000 1.875000 4.000000
v -8.812500 0.250000 4.187500
v -8.812500 1.875000 4.187500
v -9.000000 0.250000 4.187500
v -9.000000 1.875000 4.187500
v -8.000000 0.250000 4.000000
v -8.000000 1.875000 4.000000
v -8.187500 0.250000 4.000000
v -8.187500 1.875000 4.000000
v -8.187500 0.250000 4.187500
v -8.187500 1.875000 4.187500
v -8.812500 0.250000 5.812500
v -8.812500 1.875000 5.812500
v -9.000000 0.250000 5.812500
v -9.000000 1.875000 5.812500
v -8.812500 0.250000 6.000000
v -8.812500 1.875000 6.000000
v -9.000000 0.250000 6.000000
v -9.000000 1.875000 6.000000
v -8.187500 0.250000 5.812500
v -8.187500 1.875000 5.812500
v -8.000000 0.250000 6.000000
v -8.000000 1.875000 6.000000
v -8.187500 0.250000 6.000000
v -8.187500 1.875000 6.000000
v -8.312500 0.312500 4.000000
v -8.312500 0.687500 4.000000
v -8.687500 0.312500 4.000000
v -8.687500 0.687500 4.000000
v -8.312500 0.312500 4.062500
v -8.312500 0.687500 4.062500
v -8.687500 0.312500 4.062500
v -8.687500 0.687500 4.062500
v -8.312500 1.312500 4.000000
v -8.312500 1.687500 4.000000
v -8.687500 1.312500 4.000000
v -8.687500 1.687500 4.000000
v -8.312500 1.312500 4.062500
v -8.312500 1.687500 4.062500
v -8.687500 1.312500 4.062500
v -8.687500 1.687500 4.062500
v -8.687500 0.312500 6.000000
v -8.687500 0.687500 6.000000
v -8.312500 0.312500 6.000000
v -8.312500 0.687500 6.000000
v -8.687500 0.312500 5.937500
v -8.687500 0.687500 5.937500
v -8.312500 0.312500 5.937500
v -8.312500 0.687500 5.937500
v -8.687500 1.312500 6.000000
v -8.687500 1.687500 6.000000
v -8.312500 1.312500 6.000000
v -8.312500 1.687500 6.000000
v -8.687500 1.312500 5.937500
v -8.687500 1.687500 5.937500
v -8.312500 1.312500 5.937500
v -8.312500 1.687500 5.937500
v -7.750000 -0.000000 -2.000000
v -7.750000 2.000000 -2.000000
v -8.000000 -0.000000 -2.000000
v -8.000000 2.000000 -2.000000
v -7.750000 -0.000000 2.000000
v -7.750000 2.000000 2.000000
v -8.000000 -0.000000 2.000000
v -8.000000 2.000000 2.000000
v -4.000000 0.000000 1.000000
v -4.000000 2.000000 1.000000
v -4.500000 -0.000000 1.000000
v -4.500000 2.000000 1.000000
v -4.000000 0.000000 2.000000
v -4.000000 2.000000 2.000000
v -4.500000 -0.000000 2.000000
v -4.500000 2.000000 2.000000
v -4.500000 -0.000000 -2.000000
v -4.500000 2.000000 -2.000000
v -4.750000 -0.000000 -2.000000
v -4.750000 2.000000 -2.000000
v -4.500000 -0.000000 2.000000
v -4.500000 2.000000 2.000000
v -4.750000 -0.000000 2.000000
v -4.750000 2.000000 2.000000
v -4.000000 2.000025 -0.146436
v -3.000000 2.000025 -0.146436
v -4.000000 1.853564 0.000025
v -3.000000 1.853564 0.000025
v -4.000000 1.499975 -0.353564
v -3.000000 1.499975 -0.353564
v -4.000000 1.646436 -0.500025
v -3.000000 1.646436 -0.500025
v -4.000000 1.853564 -0.500025
v -3.000000 1.853564 -0.500025
v -4.000000 2.000025 -0.353564
v -3.000000 2.000025 -0.353564
v -4.353564 2.000025 -1.000000
v -4.353564 2.000025 -0.500000
v -4.500025 1.853564 -1.000000
v -4.500025 1.853564 -0.500000
v -4.146436 1.499975 -1.000000
v -4.146436 1.499975 -0.500000
v -3.999975 1.646436 -1.000000
v -3.999975 1.646436 -0.500000
v -3.999975 1.853564 -1.000000
v -3.999975 1.853564 -0.500000
v -4.146436 2.000025 -1.000000
v -4.146436 2.000025 -0.500000
v -7.750000 2.000025 -1.646436
v -4.750000 2.000025 -1.646436
v -7.750000 1.853564 -1.499975
v -4.750000 1.853563 -1.499975
v -7.750000 1.499975 -1.853564
v -4.750000 1.499975 -1.853564
v -7.750000 1.646436 -2.000025
v -4.750000 1.646436 -2.000025
v -7.750000 1.853564 -2.000025
v -4.750000 1.853563 -2.000025
v -7.750000 2.000025 -1.853564
v -4.750000 2.000025 -1.853564
v -7.750000 0.999975 -1.853564
v -4.750000 0.999975 -1.853564
v -7.750000 1.146436 -2.000025
v -4.750000 1.146436 -2.000025
v -7.750000 1.353564 -2.000025
v -4.750000 1.353563 -2.000025
v -7.750000 1.500025 -1.853564
v -4.750000 1.500025 -1.853564
v -7.750000 0.499975 -1.853564
v -4.750000 0.499975 -1.853564
v -7.750000 0.646436 -2.000025
v -4.750000 0.646436 -2.000025
v -7.750000 0.853563 -2.000025
v -4.750000 0.853563 -2.000025
v -7.750000 1.000025 -1.853564
v -4.750000 1.000025 -1.853564
v -7.750000 0.146436 -1.499975
v -4.750000 0.146436 -1.499975
v -7.750000 -0.000025 -1.646436
v -4.750000 -0.000025 -1.646436
v -7.750000 -0.000025 -1.853564
v -4.750000 -0.000025 -1.853564
v -7.750000 0.146436 -2.000025
v -4.750000 0.146436 -2.000025
v -7.750000 0.353563 -2.000025
v -4.750000 0.353563 -2.000025
v -7.750000 0.500025 -1.853564
v -4.750000 0.500025 -1.853564
v -7.750000 2.000025 -1.146436
v -4.750000 2.000025 -1.146436
v -7.750000 1.853564 -0.999975
v -4.750000 1.853563 -0.999975
v -7.750000 1.646436 -0.999975
v -4.750000 1.646436 -0.999975
v -7.750000 1.499975 -1.146436
v -4.750000 1.499975 -1.146436
v -7.750000 1.853564 -1.500025
v -4.750000 1.853563 -1.500025
v -7.750000 2.000025 -1.353564
v -4.750000 2.000025 -1.353564
v -7.750000 1.500025 -1.146436
v -4.750000 1.500025 -1.146436
v -7.750000 1.353564 -0.999975
v -4.750000 1.353563 -0.999975
v -7.750000 1.146436 -0.999975
v -4.750000 1.146436 -0.999975
v -7.750000 0.999975 -1.146436
v -4.750000 0.999975 -1.146436
v -7.750000 1.000025 -1.146436
v -4.750000 1.000025 -1.146436
v -7.750000 0.853564 -0.999975
v -4.750000 0.853563 -0.999975
v -7.750000 0.646436 -0.999975
v -4.750000 0.646436 -0.999975
v -7.750000 0.499975 -1.146436
v -4.750000 0.499975 -1.146436
v -7.750000 0.500025 -1.146436
v -4.750000 0.500025 -1.146436
v -7.750000 0.353564 -0.999975
v -4.750000 0.353563 -0.999975
v -7.750000 0.146436 -0.999975
v -4.750000 0.146436 -0.999975
v -7.750000 -0.000025 -1.146436
v -4.750000 -0.000025 -1.146436
v -7.750000 -0.000025 -1.353564
v -4.750000 -0.000025 -1.353564
v -7.750000 0.146436 -1.500025
v -4.750000 0.146436 -1.500025
v -7.750000 2.000025 -0.146436
v -4.750000 2.000025 -0.146436
v -7.750000 1.853564 0.000025
v -4.750000 1.853563 0.000025
v -7.750000 1.499975 -0.353564
v -4.750000 1.499975 -0.353564
v -7.750000 1.646436 -0.500025
v -4.750000 1.646436 -0.500025
v -7.750000 1.853564 -0.500025
v -4.750000 1.853563 -0.500025
v -7.750000 2.000025 -0.353564
v -4.750000 2.000025 -0.353564
v -7.750000 0.999975 -0.353564
v -4.750000 0.999975 -0.353564
v -7.750000 1.146436 -0.500025
v -4.750000 1.146436 -0.500025
v -7.750000 1.353564 -0.500025
v -4.750000 1.353563 -0.500025
v -7.750000 1.500025 -0.353564
v -4.750000 1.500025 -0.353564
v -7.750000 0.499975 -0.353564
v -4.750000 0.499975 -0.353564
v -7.750000 0.646436 -0.500025
v -4.750000 0.646436 -0.500025
v -7.750000 0.853563 -0.500025
v -4.750000 0.853563 -0.500025
v -7.750000 1.000025 -0.353564
v -4.750000 1.000025 -0.353564
v -7.750000 0.146436 0.000025
v -4.750000 0.146436 0.000025
v -7.750000 -0.000025 -0.146436
v -4.750000 -0.000025 -0.146436
v -7.750000 -0.000025 -0.353564
v -4.750000 -0.000025 -0.353564
v -7.750000 0.146436 -0.500025
v -4.750000 0.146436 -0.500025
v -7.750000 0.353563 -0.500025
v -4.750000 0.353563 -0.500025
v -7.750000 0.500025 -0.353564
v -4.750000 0.500025 -0.353564
v -7.750000 2.000025 0.353564
v -4.750000 2.000025 0.353564
v -7.750000 1.853564 0.500025
v -4.750000 1.853563 0.500025
v -7.750000 1.646436 0.500025
v -4.750000 1.646436 0.500025
v -7.750000 1.499975 0.353564
v -4.750000 1.499975 0.353564
v -7.750000 1.853564 -0.000025
v -4.750000 1.853563 -0.000025
v -7.750000 2.000025 0.146436
v -4.750000 2.000025 0.146436
v -7.750000 1.500025 0.353564
v -4.750000 1.500025 0.353564
v -7.750000 1.353564 0.500025
v -4.750000 1.353563 0.500025
v -7.750000 1.146436 0.500025
v -4.750000 1.146436 0.500025
v -7.750000 0.999975 0.353564
v -4.750000 0.999975 0.353564
v -7.750000 1.000025 0.353564
v -4.750000 1.000025 0.353564
v -7.750000 0.853564 0.500025
v -4.750000 0.853563 0.500025
v -7.750000 0.646436 0.500025
v -4.750000 0.646436 0.500025
v -7.750000 0.499975 0.353564
v -4.750000 0.499975 0.353564
v -7.750000 0.500025 0.353564
v -4.750000 0.500025 0.353564
v -7.750000 0.353564 0.500025
v -4.750000 0.353563 0.500025
v -7.750000 0.146436 0.500025
v -4.750000 0.146436 0.500025
v -7.750000 -0.000025 0.353564
v -4.750000 -0.000025 0.353564
v -7.750000 -0.000025 0.146436
v -4.750000 -0.000025 0.146436
v -7.750000 0.146436 -0.000025
v -4.750000 0.146436 -0.000025
v -7.750000 2.000025 1.353564
v -4.750000 2.000025 1.353564
v -7.750000 1.853564 1.500025
v -4.750000 1.853563 1.500025
v -7.750000 1.499975 1.146436
v -4.750000 1.499975 1.146436
v -7.750000 1.646436 0.999975
v -4.750000 1.646436 0.999975
v -7.750000 1.853564 0.999975
v -4.750000 1.853563 0.999975
v -7.750000 2.000025 1.146436
v -4.750000 2.000025 1.146436
v -7.750000 0.999975 1.146436
v -4.750000 0.999975 1.146436
v -7.750000 1.146436 0.999975
v -4.750000 1.146436 0.999975
v -7.750000 1.353564 0.999975
v -4.750000 1.353563 0.999975
v -7.750000 1.500025 1.146436
v -4.750000 1.500025 1.146436
v -7.750000 0.499975 1.146436
v -4.750000 0.499975 1.146436
v -7.750000 0.646436 0.999975
v -4.750000 0.646436 0.999975
v -7.750000 0.853563 0.999975
v -4.750000 0.853563 0.999975
v -7.750000 1.000025 1.146436
v -4.750000 1.000025 1.146436
v -7.750000 0.146436 1.500025
v -4.750000 0.146436 1.500025
v -7.750000 -0.000025 1.353564
v -4.750000 -0.000025 1.353564
v -7.750000 -0.000025 1.146436
v -4.750000 -0.000025 1.146436
v -7.750000 0.146436 0.999975
v -4.750000 0.146436 0.999975
v -7.750000 0.353563 0.999975
v -4.750000 0.353563 0.999975
v -7.750000 0.500025 1.146436
v -4.750000 0.500025 1.146436
v -7.750000 2.000025 1.853564
v -4.750000 2.000025 1.853564
v -7.750000 1.853564 2.000025
v -4.750000 1.853563 2.000025
v -7.750000 1.646436 2.000025
v -4.750000 1.646436 2.000025
v -7.750000 1.499975 1.853564
v -4.750000 1.499975 1.853564
v -7.750000 1.853564 1.499975
v -4.750000 1.853563 1.499975
v -7.750000 2.000025 1.646436
v -4.750000 2.000025 1.646436
v -7.750000 1.500025 1.853564
v -4.750000 1.500025 1.853564
v -7.750000 1.353564 2.000025
v -4.750000 1.353563 2.000025
v -7.750000 1.146436 2.000025
v -4.750000 1.146436 2.000025
v -7.750000 0.999975 1.853564
v -4.750000 0.999975 1.853564
v -7.750000 1.000025 1.853564
v -4.750000 1.000025 1.853564
v -7.750000 0.853564 2.000025
v -4.750000 0.853563 2.000025
v -7.750000 0.646436 2.000025
v -4.750000 0.646436 2.000025
v -7.750000 0.499975 1.853564
v -4.750000 0.499975 1.853564
v -7.750000 0.500025 1.853564
v -4.750000 0.500025 1.853564
v -7.750000 0.353564 2.000025
v -4.750000 0.353563 2.000025
v -7.750000 0.146436 2.000025
v -4.750000 0.146436 2.000025
v -7.750000 -0.000025 1.853564
v -4.750000 -0.000025 1.853564
v -7.750000 -0.000025 1.646436
v -4.750000 -0.000025 1.646436
v -7.750000 0.146436 1.499975
v -4.750000 0.146436 1.499975
v -4.000000 0.000000 -0.500000
v -4.000000 2.000000 -0.500000
v -4.500000 -0.000000 -0.500000
v -4.500000 2.000000 -0.500000
v -4.000000 0.000000 0.500000
v -4.000000 2.000000 0.500000
v -4.500000 -0.000000 0.500000
v -4.500000 2.000000 0.500000
v -4.000000 0.000000 -2.000000
v -4.000000 2.000000 -2.000000
v -4.500000 -0.000000 -2.000000
v -4.500000 2.000000 -2.000000
v -4.000000 0.000000 -1.000000
v -4.000000 2.000000 -1.000000
v -4.500000 -0.000000 -1.000000
v -4.500000 2.000000 -1.000000
v -4.146436 0.999975 -1.000000
v -4.146436 0.999975 -0.500000
v -3.999975 1.146436 -1.000000
v -3.999975 1.146436 -0.500000
v -3.999975 1.353564 -1.000000
v -3.999975 1.353564 -0.500000
v -4.146436 1.500025 -1.000000
v -4.146436 1.500025 -0.500000
v -4.146436 0.499975 -1.000000
v -4.146436 0.499975 -0.500000
v -3.999975 0.646436 -1.000000
v -3.999975 0.646436 -0.500000
v -3.999975 0.853564 -1.000000
v -3.999975 0.853564 -0.500000
v -4.146436 1.000025 -1.000000
v -4.146436 1.000025 -0.500000
v -4.500025 0.146436 -1.000000
v -4.500025 0.146436 -0.500000
v -4.353564 -0.000025 -1.000000
v -4.353564 -0.000025 -0.500000
v -4.146436 -0.000025 -1.000000
v -4.146436 -0.000025 -0.500000
v -3.999975 0.146436 -1.000000
v -3.999975 0.146436 -0.500000
v -3.999975 0.353564 -1.000000
v -3.999975 0.353564 -0.500000
v -4.146436 0.500025 -1.000000
v -4.146436 0.500025 -0.500000
v -4.353564 2.000025 0.500000
v -4.353564 2.000025 1.000000
v -4.500025 1.853564 0.500000
v -4.500025 1.853564 1.000000
v -4.146436 1.499975 0.500000
v -4.146436 1.499975 1.000000
v -3.999975 1.646436 0.500000
v -3.999975 1.646436 1.000000
v -3.999975 1.853564 0.500000
v -3.999975 1.853564 1.000000
v -4.146436 2.000025 0.500000
v -4.146436 2.000025 1.000000
v -4.146436 0.999975 0.500000
v -4.146436 0.999975 1.000000
v -3.999975 1.146436 0.500000
v -3.999975 1.146436 1.000000
v -3.999975 1.353564 0.500000
v -3.999975 1.353564 1.000000
v -4.146436 1.500025 0.500000
v -4.146436 1.500025 1.000000
v -4.146436 0.499975 0.500000
v -4.146436 0.499975 1.000000
v -3.999975 0.646436 0.500000
v -3.999975 0.646436 1.000000
v -3.999975 0.853564 0.500000
v -3.999975 0.853564 1.000000
v -4.146436 1.000025 0.500000
v -4.146436 1.000025 1.000000
v -4.500025 0.146436 0.500000
v -4.500025 0.146436 1.000000
v -4.353564 -0.000025 0.500000
v -4.353564 -0.000025 1.000000
v -4.146436 -0.000025 0.500000
v -4.146436 -0.000025 1.000000
v -3.999975 0.146436 0.500000
v -3.999975 0.146436 1.000000
v -3.999975 0.353564 0.500000
v -3.999975 0.353564 1.000000
v -4.146436 0.500025 0.500000
v -4.146436 0.500025 1.000000
v -4.000000 0.999975 -0.353564
v -3.000000 0.999975 -0.353564
v -4.000000 1.146436 -0.500025
v -3.000000 1.146436 -0.500025
v -4.000000 1.353564 -0.500025
v -3.000000 1.353564 -0.500025
v -4.000000 1.500025 -0.353564
v -3.000000 1.500025 -0.353564
v -4.000000 0.499975 -0.353564
v -3.000000 0.499975 -0.353564
v -4.000000 0.646436 -0.500025
v -3.000000 0.646436 -0.500025
v -4.000000 0.853564 -0.500025
v -3.000000 0.853564 -0.500025
v -4.000000 1.000025 -0.353564
v -3.000000 1.000025 -0.353564
v -4.000000 -0.000025 -0.353564
v -3.000000 -0.000025 -0.353564
v -4.000000 0.146436 -0.500025
v -3.000000 0.146436 -0.500025
v -4.000000 0.353564 -0.500025
v -3.000000 0.353564 -0.500025
v -4.000000 0.500025 -0.353564
v -3.000000 0.500025 -0.353564
v -4.000000 2.000025 0.353564
v -3.000000 2.000025 0.353564
v -4.000000 1.853564 0.500025
v -3.000000 1.853564 0.500025
v -4.000000 1.646436 0.500025
v -3.000000 1.646436 0.500025
v -4.000000 1.499975 0.353564
v -3.000000 1.499975 0.353564
v -4.000000 1.853564 -0.000025
v -3.000000 1.853564 -0.000025
v -4.000000 2.000025 0.146436
v -3.000000 2.000025 0.146436
v -4.000000 0.500025 0.353564
v -3.000000 0.500025 0.353564
v -4.000000 0.353564 0.500025
v -3.000000 0.353564 0.500025
v -4.000000 0.146436 0.500025
v -3.000000 0.146436 0.500025
v -4.000000 -0.000025 0.353564
v -3.000000 -0.000025 0.353564
v -4.000000 0.146436 0.000025
v -3.000000 0.146436 0.000025
v -4.000000 -0.000025 -0.146436
v -3.000000 -0.000025 -0.146436
v -4.000000 -0.000025 0.146436
v -3.000000 -0.000025 0.146436
v -4.000000 0.146436 -0.000025
v -3.000000 0.146436 -0.000025
v -4.000000 1.000025 0.353564
v -3.000000 1.000025 0.353564
v -4.000000 0.853564 0.500025
v -3.000000 0.853564 0.500025
v -4.000000 0.646436 0.500025
v -3.000000 0.646436 0.500025
v -4.000000 0.499975 0.353564
v -3.000000 0.499975 0.353564
v -4.000000 1.500025 0.353564
v -3.000000 1.500025 0.353564
v -4.000000 1.353564 0.500025
v -3.000000 1.353564 0.500025
v -4.000000 1.146436 0.500025
v -3.000000 1.146436 0.500025
v -4.000000 0.999975 0.353564
v -3.000000 0.999975 0.353564
v -8.000000 -0.000000 -1.000000
v -8.000000 0.250000 -1.000000
v -9.000000 -0.000000 -1.000000
v -9.000000 0.250000 -1.000000
v -8.000000 -0.000000 1.000000
v -8.000000 0.250000 1.000000
v -9.000000 -0.000000 1.000000
v -9.000000 0.250000 1.000000
v -8.062500 0.250000 -0.937500
v -8.062500 1.875000 -0.937500
v -8.937500 0.250000 -0.937500
v -8.937500 1.875000 -0.937500
v -8.062500 0.250000 0.937500
v -8.062500 1.875000 0.937500
v -8.937500 0.250000 0.937500
v -8.937500 1.875000 0.937500
v -8.000000 1.875000 -1.000000
v -8.000000 2.000000 -1.000000
v -9.000000 1.875000 -1.000000
v -9.000000 2.000000 -1.000000
v -8.000000 1.875000 1.000000
v -8.000000 2.000000 1.000000
v -9.000000 1.875000 1.000000
v -9.000000 2.000000 1.000000
v -8.812500 0.250000 -1.000000
v -8.812500 1.875000 -1.000000
v -9.000000 0.250000 -1.000000
v -9.000000 1.875000 -1.000000
v -8.812500 0.250000 -0.812500
v -8.812500 1.875000 -0.812500
v -9.000000 0.250000 -0.812500
v -9.000000 1.875000 -0.812500
v -8.000000 0.250000 -1.000000
v -8.000000 1.875000 -1.000000
v -8.187500 0.250000 -1.000000
v -8.187500 1.875000 -1.000000
v -8.187500 0.250000 -0.812500
v -8.187500 1.875000 -0.812500
v -8.812500 0.250000 0.812500
v -8.812500 1.875000 0.812500
v -9.000000 0.250000 0.812500
v -9.000000 1.875000 0.812500
v -8.812500 0.250000 1.000000
v -8.812500 1.875000 1.000000
v -9.000000 0.250000 1.000000
v -9.000000 1.875000 1.000000
v -8.187500 0.250000 0.812500
v -8.187500 1.875000 0.812500
v -8.000000 0.250000 1.000000
v -8.000000 1.875000 1.000000
v -8.187500 0.250000 1.000000
v -8.187500 1.875000 1.000000
v -8.312500 0.312500 -1.000000
v -8.312500 0.687500 -1.000000
v -8.687500 0.312500 -1.000000
v -8.687500 0.687500 -1.000000
v -8.312500 0.312500 -0.937500
v -8.312500 0.687500 -0.937500
v -8.687500 0.312500 -0.937500
v -8.687500 0.687500 -0.937500
v -8.312500 1.312500 -1.000000
v -8.312500 1.687500 -1.000000
v -8.687500 1.312500 -1.000000
v -8.687500 1.687500 -1.000000
v -8.312500 1.312500 -0.937500
v -8.312500 1.687500 -0.937500
v -8.687500 1.312500 -0.937500
v -8.687500 1.687500 -0.937500
v -8.687500 0.312500 1.000000
v -8.687500 0.687500 1.000000
v -8.312500 0.312500 1.000000
v -8.312500 0.687500 1.000000
v -8.687500 0.312500 0.937500
v -8.687500 0.687500 0.937500
v -8.312500 0.312500 0.937500
v -8.312500 0.687500 0.937500
v -8.687500 1.312500 1.000000
v -8.687500 1.687500 1.000000
v -8.312500 1.312500 1.000000
v -8.312500 1.687500 1.000000
v -8.687500 1.312500 0.937500
v -8.687500 1.687500 0.937500
v -8.312500 1.312500 0.937500
v -8.312500 1.687500 0.937500
v -2.000000 0.000000 4.500000
v -2.000000 2.000000 4.500000
v -3.000000 0.000000 4.500000
v -3.000000 2.000000 4.500000
v -2.000000 0.000000 5.500000
v -2.000000 2.000000 5.500000
v -3.000000 0.000000 5.500000
v -3.000000 2.000000 5.500000
v -2.000000 0.000000 2.000000
v -2.000000 2.000000 2.000000
v -3.000000 0.000000 2.000000
v -3.000000 2.000000 2.000000
v -2.000000 0.000000 3.000000
v -2.000000 2.000000 3.000000
v -3.000000 0.000000 3.000000
v -3.000000 2.000000 3.000000
v -2.000000 0.000000 -0.500000
v -2.000000 2.000000 -0.500000
v -3.000000 0.000000 -0.500000
v -3.000000 2.000000 -0.500000
v -2.000000 0.000000 0.500000
v -2.000000 2.000000 0.500000
v -3.000000 0.000000 0.500000
v -3.000000 2.000000 0.500000
v -2.000000 1.500025 2.353564
v 0.000000 1.500025 2.353564
v -2.000000 1.353564 2.500025
v 0.000000 1.353564 2.500025
v -2.000000 0.999975 2.146436
v 0.000000 0.999975 2.146436
v -2.000000 1.146436 1.999975
v 0.000000 1.146436 1.999975
v -2.000000 1.353564 1.999975
v 0.000000 1.353564 1.999975
v -2.000000 1.500025 2.146436
v 0.000000 1.500025 2.146436
v -2.000000 0.499975 2.146436
v 0.000000 0.499975 2.146436
v -2.000000 0.646436 1.999975
v 0.000000 0.646436 1.999975
v -2.000000 0.853564 1.999975
v 0.000000 0.853564 1.999975
v -2.000000 1.000025 2.146436
v 0.000000 1.000025 2.146436
v -2.000000 1.500025 2.853564
v 0.000000 1.500025 2.853564
v -2.000000 1.353564 3.000025
v 0.000000 1.353564 3.000025
v -2.000000 1.146436 3.000025
v 0.000000 1.146436 3.000025
v -2.000000 0.999975 2.853564
v 0.000000 0.999975 2.853564
v -2.000000 1.353564 2.499975
v 0.000000 1.353564 2.499975
v -2.000000 1.500025 2.646436
v 0.000000 1.500025 2.646436
v -2.000000 1.000025 2.853564
v 0.000000 1.000025 2.853564
v -2.000000 0.853564 3.000025
v 0.000000 0.853564 3.000025
v -2.000000 0.646436 3.000025
v 0.000000 0.646436 3.000025
v -2.000000 0.499975 2.853564
v 0.000000 0.499975 2.853564
v -2.000000 0.646436 2.500025
v 0.000000 0.646436 2.500025
v -2.000000 0.499975 2.353564
v 0.000000 0.499975 2.353564
v -2.000000 0.499975 2.646436
v 0.000000 0.499975 2.646436
v -2.000000 0.646436 2.499975
v 0.000000 0.646436 2.499975
v -3.000025 0.353564 3.000000
v -3.000025 0.353564 4.500000
v -3.000025 0.146436 3.000000
v -3.000025 0.146436 4.500000
v -2.853564 -0.000025 3.000000
v -2.853564 -0.000025 4.500000
v -2.646436 -0.000025 3.000000
v -2.646436 -0.000025 4.500000
v -2.499975 0.146436 3.000000
v -2.499975 0.146436 4.500000
v -2.853564 0.500025 3.000000
v -2.853564 0.500025 4.500000
v -3.000025 0.853564 3.000000
v -3.000025 0.853564 4.500000
v -3.000025 0.646436 3.000000
v -3.000025 0.646436 4.500000
v -2.853564 0.499975 3.000000
v -2.853564 0.499975 4.500000
v -2.853564 1.000025 3.000000
v -2.853564 1.000025 4.500000
v -3.000025 1.353564 3.000000
v -3.000025 1.353564 4.500000
v -3.000025 1.146436 3.000000
v -3.000025 1.146436 4.500000
v -2.853564 0.999975 3.000000
v -2.853564 0.999975 4.500000
v -2.853564 1.500025 3.000000
v -2.853564 1.500025 4.500000
v -3.000025 1.853564 3.000000
v -3.000025 1.853564 4.500000
v -3.000025 1.646436 3.000000
v -3.000025 1.646436 4.500000
v -2.853564 1.499975 3.000000
v -2.853564 1.499975 4.500000
v -2.499975 1.853564 3.000000
v -2.499975 1.853564 4.500000
v -2.646436 2.000025 3.000000
v -2.646436 2.000025 4.500000
v -2.853564 2.000025 3.000000
v -2.853564 2.000025 4.500000
v -2.500025 0.146436 3.000000
v -2.500025 0.146436 4.500000
v -2.353564 -0.000025 3.000000
v -2.353564 -0.000025 4.500000
v -2.146436 -0.000025 3.000000
v -2.146436 -0.000025 4.500000
v -1.999975 0.146436 3.000000
v -1.999975 0.146436 4.500000
v -1.999975 0.353564 3.000000
v -1.999975 0.353564 4.500000
v -2.146436 0.500025 3.000000
v -2.146436 0.500025 4.500000
v -2.146436 0.499975 3.000000
v -2.146436 0.499975 4.500000
v -1.999975 0.646436 3.000000
v -1.999975 0.646436 4.500000
v -1.999975 0.853564 3.000000
v -1.999975 0.853564 4.500000
v -2.146436 1.000025 3.000000
v -2.146436 1.000025 4.500000
v -2.146436 0.999975 3.000000
v -2.146436 0.999975 4.500000
v -1.999975 1.146436 3.000000
v -1.999975 1.146436 4.500000
v -1.999975 1.353564 3.000000
v -1.999975 1.353564 4.500000
v -2.146436 1.500025 3.000000
v -2.146436 1.500025 4.500000
v -2.146436 1.499975 3.000000
v -2.146436 1.499975 4.500000
v -1.999975 1.646436 3.000000
v -1.999975 1.646436 4.500000
v -1.999975 1.853564 3.000000
v -1.999975 1.853564 4.500000
v -2.146436 2.000025 3.000000
v -2.146436 2.000025 4.500000
v -2.500025 1.853564 3.000000
v -2.500025 1.853564 4.500000
v -2.146436 2.000025 3.000000
v -2.146436 2.000025 4.500000
v -2.353564 2.000025 3.000000
v -2.353564 2.000025 4.500000
v -3.000025 0.353564 0.500000
v -3.000025 0.353564 2.000000
v -3.000025 0.146436 0.500000
v -3.000025 0.146436 2.000000
v -2.853564 -0.000025 0.500000
v -2.853564 -0.000025 2.000000
v -2.646436 -0.000025 0.500000
v -2.646436 -0.000025 2.000000
v -2.499975 0.146436 0.500000
v -2.499975 0.146436 2.000000
v -2.853564 0.500025 0.500000
v -2.853564 0.500025 2.000000
v -3.000025 0.853564 0.500000
v -3.000025 0.853564 2.000000
v -3.000025 0.646436 0.500000
v -3.000025 0.646436 2.000000
v -2.853564 0.499975 0.500000
v -2.853564 0.499975 2.000000
v -2.853564 1.000025 0.500000
v -2.853564 1.000025 2.000000
v -3.000025 1.353564 0.500000
v -3.000025 1.353564 2.000000
v -3.000025 1.146436 0.500000
v -3.000025 1.146436 2.000000
v -2.853564 0.999975 0.500000
v -2.853564 0.999975 2.000000
v -2.853564 1.500025 0.500000
v -2.853564 1.500025 2.000000
v -3.000025 1.853564 0.500000
v -3.000025 1.853564 2.000000
v -3.000025 1.646436 0.500000
v -3.000025 1.646436 2.000000
v -2.853564 1.499975 0.500000
v -2.853564 1.499975 2.000000
v -2.499975 1.853564 0.500000
v -2.499975 1.853564 2.000000
v -2.646436 2.000025 0.500000
v -2.646436 2.000025 2.000000
v -2.853564 2.000025 0.500000
v -2.853564 2.000025 2.000000
v -2.500025 0.146436 0.500000
v -2.500025 0.146436 2.000000
v -2.353564 -0.000025 0.500000
v -2.353564 -0.000025 2.000000
v -2.146436 -0.000025 0.500000
v -2.146436 -0.000025 2.000000
v -1.999975 0.146436 0.500000
v -1.999975 0.146436 2.000000
v -1.999975 0.353564 0.500000
v -1.999975 0.353564 2.000000
v -2.146436 0.500025 0.500000
v -2.146436 0.500025 2.000000
v -2.146436 0.499975 0.500000
v -2.146436 0.499975 2.000000
v -1.999975 0.646436 0.500000
v -1.999975 0.646436 2.000000
v -1.999975 0.853564 0.500000
v -1.999975 0.853564 2.000000
v -2.146436 1.000025 0.500000
v -2.146436 1.000025 2.000000
v -2.146436 0.999975 0.500000
v -2.146436 0.999975 2.000000
v -1.999975 1.146436 0.500000
v -1.999975 1.146436 2.000000
v -1.999975 1.353564 0.500000
v -1.999975 1.353564 2.000000
v -2.146436 1.500025 0.500000
v -2.146436 1.500025 2.000000
v -2.146436 1.499975 0.500000
v -2.146436 1.499975 2.000000
v -1.999975 1.646436 0.500000
v -1.999975 1.646436 2.000000
v -1.999975 1.853564 0.500000
v -1.999975 1.853564 2.000000
v -2.146436 2.000025 0.500000
v -2.146436 2.000025 2.000000
v -2.500025 1.853564 0.500000
v -2.500025 1.853564 2.000000
v -2.146436 2.000025 0.500000
v -2.146436 2.000025 2.000000
v -2.353564 2.000025 0.500000
v -2.353564 2.000025 2.000000
v -7.750000 0.000027 1.646436
v -4.750000 0.000027 1.646436
v -7.750000 0.000026 1.853564
v -4.750000 0.000026 1.853564
v -7.750000 0.000027 1.146436
v -4.750000 0.000027 1.146436
v -7.750000 0.000027 1.353564
v -4.750000 0.000027 1.353564
v -7.750000 0.000027 0.146436
v -4.750000 0.000027 0.146436
v -7.750000 0.000027 0.353564
v -4.750000 0.000027 0.353564
v -7.750000 0.000027 -0.353564
v -4.750000 0.000027 -0.353564
v -7.750000 0.000027 -0.146436
v -4.750000 0.000027 -0.146436
v -7.750000 0.000027 -1.353564
v -4.750000 0.000027 -1.353564
v -7.750000 0.000027 -1.146436
v -4.750000 0.000027 -1.146436
v -7.750000 0.000027 -1.853564
v -4.750000 0.000027 -1.853564
v -7.750000 0.000027 -1.646436
v -4.750000 0.000027 -1.646436
v -4.353564 0.000026 1.000000
v -4.353564 0.000026 0.500000
v -4.146436 0.000026 1.000000
v -4.146436 0.000026 0.500000
v -4.353564 0.000027 -0.500000
v -4.353564 0.000027 -1.000000
v -4.146436 0.000027 -0.500000
v -4.146436 0.000027 -1.000000
v -4.000000 0.000027 0.146436
v -3.000000 0.000027 0.146436
v -4.000000 0.000027 0.353563
v -3.000000 0.000027 0.353563
v -4.000000 0.000027 -0.353564
v -3.000000 0.000027 -0.353564
v -4.000000 0.000027 -0.146437
v -3.000000 0.000027 -0.146437
v -7.750000 0.000026 6.646436
v -4.750000 0.000026 6.646436
v -7.750000 0.000026 6.853564
v -4.750000 0.000026 6.853564
v -7.750000 0.000026 6.146436
v -4.750000 0.000026 6.146436
v -7.750000 0.000026 6.353564
v -4.750000 0.000026 6.353564
v -7.750000 0.000026 5.146436
v -4.750000 0.000026 5.146436
v -7.750000 0.000026 5.353564
v -4.750000 0.000026 5.353564
v -7.750000 0.000026 4.646436
v -4.750000 0.000026 4.646436
v -7.750000 0.000026 4.853564
v -4.750000 0.000026 4.853564
v -7.750000 0.000026 3.646436
v -4.750000 0.000026 3.646436
v -7.750000 0.000026 3.853564
v -4.750000 0.000026 3.853564
v -7.750000 0.000026 3.146436
v -4.750000 0.000027 3.146436
v -7.750000 0.000026 3.353564
v -4.750000 0.000026 3.353564
v -4.353564 0.000026 6.000000
v -4.353564 0.000026 5.500000
v -4.146436 0.000026 6.000000
v -4.146436 0.000026 5.500000
v -4.353564 0.000026 4.500000
v -4.353564 0.000026 4.000000
v -4.146436 0.000026 4.500000
v -4.146436 0.000026 4.000000
v -4.000000 0.000026 5.146436
v -3.000000 0.000026 5.146436
v -4.000000 0.000026 5.353564
v -3.000000 0.000026 5.353564
v -4.000000 0.000026 4.646436
v -3.000000 0.000026 4.646436
v -4.000000 0.000026 4.853564
v -3.000000 0.000026 4.853564
v -2.000000 0.500026 2.646436
v 0.000000 0.500026 2.646436
v -2.000000 0.500026 2.853564
v 0.000000 0.500026 2.853564
v -2.000000 0.500026 2.146436
v 0.000000 0.500026 2.146436
v -2.000000 0.500026 2.353564
v 0.000000 0.500026 2.353564
v -4.750000 1.646436 1.999974
v -7.750000 1.646436 1.999973
v -4.750000 1.853563 1.999973
v -7.750000 1.853563 1.999973
v -4.750000 1.146436 1.999974
v -7.750000 1.146436 1.999973
v -4.750000 1.353563 1.999973
v -7.750000 1.353563 1.999973
v -4.750000 0.646436 1.999974
v -7.750000 0.646436 1.999973
v -4.750000 0.853564 1.999973
v -7.750000 0.853564 1.999973
v -4.750000 0.146436 1.999974
v -7.750000 0.146436 1.999973
v -4.750000 0.353564 1.999973
v -7.750000 0.353564 1.999973
v -4.750000 1.646436 0.499973
v -7.750000 1.646436 0.499973
v -4.750000 1.853563 0.499973
v -7.750000 1.853563 0.499973
v -4.750000 1.146436 0.499973
v -7.750000 1.146436 0.499973
v -4.750000 1.353563 0.499973
v -7.750000 1.353563 0.499973
v -4.750000 0.646436 0.499973
v -7.750000 0.646436 0.499973
v -4.750000 0.853564 0.499973
v -7.750000 0.853564 0.499973
v -4.750000 0.146436 0.499973
v -7.750000 0.146436 0.499973
v -4.750000 0.353564 0.499973
v -7.750000 0.353564 0.499973
v -4.750000 1.646436 -1.000027
v -7.750000 1.646436 -1.000027
v -4.750000 1.853563 -1.000027
v -7.750000 1.853563 -1.000027
v -4.750000 1.146436 -1.000027
v -7.750000 1.146436 -1.000027
v -4.750000 1.353563 -1.000027
v -7.750000 1.353563 -1.000027
v -4.750000 0.646436 -1.000027
v -7.750000 0.646436 -1.000027
v -4.750000 0.853564 -1.000027
v -7.750000 0.853564 -1.000027
v -4.750000 0.146436 -1.000027
v -7.750000 0.146436 -1.000027
v -4.750000 0.353564 -1.000027
v -7.750000 0.353564 -1.000027
v -4.750000 1.646436 6.999973
v -7.750000 1.646436 6.999973
v -4.750000 1.853563 6.999973
v -7.750000 1.853563 6.999973
v -4.750000 1.146436 6.999973
v -7.750000 1.146436 6.999973
v -4.750000 1.353563 6.999973
v -7.750000 1.353563 6.999973
v -4.750000 0.646436 6.999973
v -7.750000 0.646436 6.999973
v -4.750000 0.853564 6.999973
v -7.750000 0.853564 6.999973
v -4.750000 0.146436 6.999973
v -7.750000 0.146436 6.999973
v -4.750000 0.353564 6.999973
v -7.750000 0.353564 6.999973
v -4.750000 1.646436 5.499973
v -7.750000 1.646436 5.499973
v -4.750000 1.853563 5.499973
v -7.750000 1.853563 5.499973
v -4.750000 1.146436 5.499973
v -7.750000 1.146436 5.499973
v -4.750000 1.353563 5.499973
v -7.750000 1.353563 5.499973
v -4.750000 0.646436 5.499973
v -7.750000 0.646436 5.499973
v -4.750000 0.853564 5.499973
v -7.750000 0.853564 5.499973
v -4.750000 0.146436 5.499973
v -7.750000 0.146436 5.499973
v -4.750000 0.353564 5.499973
v -7.750000 0.353564 5.499973
v -4.750000 1.646436 3.999973
v -7.750000 1.646436 3.999973
v -4.750000 1.853563 3.999973
v -7.750000 1.853563 3.999973
v -4.750000 1.146436 3.999973
v -7.750000 1.146436 3.999973
v -4.750000 1.353563 3.999973
v -7.750000 1.353563 3.999973
v -4.750000 0.646436 3.999973
v -7.750000 0.646436 3.999973
v -4.750000 0.853564 3.999973
v -7.750000 0.853564 3.999973
v -4.750000 0.146436 3.999973
v -7.750000 0.146436 3.999973
v -4.750000 0.353564 3.999973
v -7.750000 0.353564 3.999973
v -2.999999 1.646436 0.499976
v -3.999999 1.646436 0.499976
v -2.999999 1.853563 0.499976
v -3.999999 1.853563 0.499976
v -2.999999 0.146436 0.499976
v -3.999999 0.146436 0.499976
v -2.999999 0.353564 0.499976
v -3.999999 0.353564 0.499976
v -2.999999 0.646436 0.499976
v -3.999999 0.646436 0.499976
v -2.999999 0.853564 0.499976
v -3.999999 0.853564 0.499976
v -2.999999 1.146436 0.499976
v -3.999999 1.146436 0.499976
v -2.999999 1.353563 0.499976
v -3.999999 1.353563 0.499976
v -2.999999 1.646436 5.499976
v -4.000000 1.646436 5.499976
v -2.999999 1.853563 5.499976
v -4.000000 1.853563 5.499976
v -2.999999 0.146436 5.499976
v -4.000000 0.146436 5.499976
v -2.999999 0.353564 5.499976
v -4.000000 0.353564 5.499976
v -2.999999 0.646436 5.499976
v -4.000000 0.646436 5.499976
v -2.999999 0.853564 5.499976
v -4.000000 0.853564 5.499976
v -2.999999 1.146436 5.499976
v -4.000000 1.146436 5.499976
v -2.999999 1.353563 5.499976
v -4.000000 1.353563 5.499976
v 0.000000 1.146436 2.999975
v -2.000001 1.146436 2.999975
v 0.000000 1.353563 2.999975
v -2.000001 1.353563 2.999975
v 0.000000 0.646436 2.999975
v -2.000001 0.646436 2.999975
v 0.000000 0.853564 2.999975
v -2.000001 0.853564 2.999975
v 2.000000 0.000000 3.000000
v 2.000000 0.250000 3.000000
v -1.000000 0.000000 3.000000
v -1.000000 0.250000 3.000000
v 2.000000 0.000000 4.000000
v 2.000000 0.250000 4.000000
v -1.000000 0.000000 4.000000
v -1.000000 0.250000 4.000000
v 2.000000 0.000000 2.000000
v 2.000000 0.250000 2.000000
v 1.000000 0.000000 2.000000
v 1.000000 0.250000 2.000000
v 2.000000 0.000000 3.000000
v 2.000000 0.250000 3.000000
v 1.000000 0.000000 3.000000
v 1.000000 0.250000 3.000000
v 2.000000 0.000000 0.000000
v 2.000000 0.250000 0.000000
v -1.000000 0.000000 0.000000
v -1.000000 0.250000 0.000000
v 2.000000 0.000000 2.000000
v 2.000000 0.250000 2.000000
v -1.000000 0.000000 2.000000
v -1.000000 0.250000 2.000000
v -0.343040 0.250000 2.150801
v -0.343040 3.250000 2.150801
v -0.343040 0.250000 2.849199
v -0.343040 3.250000 2.849199
v 0.150802 0.250000 3.343040
v 0.150802 3.250000 3.343040
v 0.849198 0.250000 3.343040
v 0.849198 3.250000 3.343040
v 1.343040 0.250000 2.849199
v 1.343040 3.250000 2.849199
v 1.343040 0.250000 2.150801
v 1.343040 3.250000 2.150801
v 0.849198 0.250000 1.656960
v 0.849198 3.250000 1.656960
v 0.150802 0.250000 1.656960
v 0.150802 3.250000 1.656960
v -1.000050 0.250000 1.292873
v -1.000050 2.250000 1.292873
v -1.000050 0.250000 1.707128
v -1.000050 2.250000 1.707128
v -0.707127 0.250000 2.000050
v -0.707127 2.250000 2.000050
v -0.292872 0.250000 2.000050
v -0.292872 2.250000 2.000050
v 0.000050 0.250000 1.707128
v 0.000050 2.250000 1.707128
v 0.000050 0.250000 1.292873
v 0.000050 2.250000 1.292873
v -0.292872 0.250000 0.999950
v -0.292872 2.250000 0.999950
v -0.707127 0.250000 0.999950
v -0.707127 2.250000 0.999950
v 0.999950 0.250000 1.292873
v 0.999950 2.250000 1.292873
v 0.999950 0.250000 1.707128
v 0.999950 2.250000 1.707128
v 1.292873 0.250000 2.000050
v 1.292873 2.250000 2.000050
v 1.707128 0.250000 2.000050
v 1.707128 2.250000 2.000050
v 2.000050 0.250000 1.707128
v 2.000050 2.250000 1.707128
v 2.000050 0.250000 1.292873
v 2.000050 2.250000 1.292873
v 1.707128 0.250000 0.999950
v 1.707128 2.250000 0.999950
v 1.292873 0.250000 0.999950
v 1.292873 2.250000 0.999950
v -1.000050 0.250000 3.292873
v -1.000050 2.250000 3.292873
v -1.000050 0.250000 3.707128
v -1.000050 2.250000 3.707128
v -0.707127 0.250000 4.000050
v -0.707127 2.250000 4.000050
v -0.292872 0.250000 4.000050
v -0.292872 2.250000 4.000050
v 0.000050 0.250000 3.707128
v 0.000050 2.250000 3.707128
v 0.000050 0.250000 3.292873
v 0.000050 2.250000 3.292873
v -0.292872 0.250000 2.999950
v -0.292872 2.250000 2.999950
v -0.707127 0.250000 2.999950
v -0.707127 2.250000 2.999950
v 0.999950 0.250000 3.292873
v 0.999950 2.250000 3.292873
v 0.999950 0.250000 3.707128
v 0.999950 2.250000 3.707128
v 1.292873 0.250000 4.000050
v 1.292873 2.250000 4.000050
v 1.707128 0.250000 4.000050
v 1.707128 2.250000 4.000050
v 2.000050 0.250000 3.707128
v 2.000050 2.250000 3.707128
v 2.000050 0.250000 3.292873
v 2.000050 2.250000 3.292873
v 1.707128 0.250000 2.999950
v 1.707128 2.250000 2.999950
v 1.292873 0.250000 2.999950
v 1.292873 2.250000 2.999950
v 1.062500 1.500000 3.250000
v 1.062500 2.000000 3.250000
v -0.062500 1.500000 3.250000
v -0.062500 2.000000 3.250000
v 1.062500 1.500000 3.750000
v 1.062500 2.000000 3.750000
v -0.062500 1.500000 3.750000
v -0.062500 2.000000 3.750000
v 1.062500 0.500000 3.250000
v 1.062500 1.000000 3.250000
v -0.062500 0.500000 3.250000
v -0.062500 1.000000 3.250000
v 1.062500 0.500000 3.750000
v 1.062500 1.000000 3.750000
v -0.062500 0.500000 3.750000
v -0.062500 1.000000 3.750000
v 1.062500 1.500000 1.250000
v 1.062500 2.000000 1.250000
v -0.062500 1.500000 1.250000
v -0.062500 2.000000 1.250000
v 1.062500 1.500000 1.750000
v 1.062500 2.000000 1.750000
v -0.062500 1.500000 1.750000
v -0.062500 2.000000 1.750000
v 1.062500 0.500000 1.250000
v 1.062500 1.000000 1.250000
v -0.062500 0.500000 1.250000
v -0.062500 1.000000 1.250000
v 1.062500 0.500000 1.750000
v 1.062500 1.000000 1.750000
v -0.062500 0.500000 1.750000
v -0.062500 1.000000 1.750000
v 1.750000 1.500000 3.062500
v 1.750000 2.000000 3.062500
v 1.750000 1.500000 1.937500
v 1.750000 2.000000 1.937500
v 1.250000 1.500000 3.062500
v 1.250000 2.000000 3.062500
v 1.250000 1.500000 1.937500
v 1.250000 2.000000 1.937500
v 1.750000 0.500000 3.062500
v 1.750000 1.000000 3.062500
v 1.750000 0.500000 1.937500
v 1.750000 1.000000 1.937500
v 1.250000 0.500000 3.062500
v 1.250000 1.000000 3.062500
v 1.250000 0.500000 1.937500
v 1.250000 1.000000 1.937500
v 0.000000 0.000000 2.000000
v 0.000000 0.250000 2.000000
v -1.000000 0.000000 2.000000
v -1.000000 0.250000 2.000000
v 0.000000 0.000000 3.000000
v 0.000000 0.250000 3.000000
v -1.000000 0.000000 3.000000
v -1.000000 0.250000 3.000000
v 2.000000 0.875000 0.000000
v 2.000000 1.000000 0.000000
v -1.000000 0.875000 0.000000
v -1.000000 1.000000 0.000000
v 2.000000 0.875000 1.000000
v 2.000000 1.000000 1.000000
v -1.000000 0.875000 1.000000
v -1.000000 1.000000 1.000000
v 1.937500 0.250000 0.062500
v 1.937500 0.875000 0.062500
v -0.937500 0.250000 0.062500
v -0.937500 0.875000 0.062500
v 1.937500 0.250000 0.937500
v 1.937500 0.875000 0.937500
v -0.937500 0.250000 0.937500
v -0.937500 0.875000 0.937500
v -0.812500 0.250000 0.000000
v -0.812500 0.875000 0.000000
v -1.000000 0.250000 0.000000
v -1.000000 0.875000 0.000000
v -0.812500 0.250000 0.187500
v -0.812500 0.875000 0.187500
v -1.000000 0.250000 0.187500
v -1.000000 0.875000 0.187500
v 2.000000 0.250000 0.000000
v 2.000000 0.875000 0.000000
v 1.812500 0.250000 0.000000
v 1.812500 0.875000 0.000000
v 2.000000 0.250000 0.187500
v 2.000000 0.875000 0.187500
v 1.812500 0.250000 0.187500
v 1.812500 0.875000 0.187500
v -0.812500 0.250000 0.812500
v -0.812500 0.875000 0.812500
v -1.000000 0.250000 0.812500
v -1.000000 0.875000 0.812500
v -0.812500 0.250000 1.000000
v -0.812500 0.875000 1.000000
v -1.000000 0.250000 1.000000
v -1.000000 0.875000 1.000000
v 2.000000 0.250000 0.812500
v 2.000000 0.875000 0.812500
v 1.812500 0.250000 0.812500
v 1.812500 0.875000 0.812500
v 2.000000 0.250000 1.000000
v 2.000000 0.875000 1.000000
v 1.812500 0.250000 1.000000
v 1.812500 0.875000 1.000000
v 1.000000 0.250000 0.000000
v 1.000000 0.875000 0.000000
v 0.000000 0.250000 0.000000
v 0.000000 0.875000 0.000000
v 1.000000 0.250000 0.062500
v 1.000000 0.875000 0.062500
v 0.000000 0.250000 0.062500
v 0.000000 0.875000 0.062500
v -0.312500 0.312500 0.000000
v -0.312500 0.687500 0.000000
v -0.687500 0.312500 0.000000
v -0.687500 0.687500 0.000000
v -0.312500 0.312500 0.062500
v -0.312500 0.687500 0.062500
v -0.687500 0.312500 0.062500
v -0.687500 0.687500 0.062500
v 1.687500 0.312500 0.000000
v 1.687500 0.687500 0.000000
v 1.312500 0.312500 0.000000
v 1.312500 0.687500 0.000000
v 1.687500 0.312500 0.062500
v 1.687500 0.687500 0.062500
v 1.312500 0.312500 0.062500
v 1.312500 0.687500 0.062500
vn -0.0000 -0.0000 -1.0000
vn -1.0000 -0.0000 -0.0000
vn -0.0000 -0.0000 1.0000
vn 1.0000 -0.0000 -0.0000
vn -0.0000 -1.0000 -0.0000
vn -0.0000 1.0000 -0.0000
vn -0.0000 0.7071 0.7071
vn -0.0000 -0.7071 -0.7071
vn -0.0000 0.7071 -0.7071
vn -0.7071 0.7071 -0.0000
vn 0.7071 -0.7071 -0.0000
vn 0.7071 0.7071 -0.0000
vn -0.0000 -0.7071 0.7071
vn -0.7071 -0.7071 -0.0000
vn -0.7071 -0.0000 0.7071
vn 0.7071 -0.0000 0.7071
vn 0.7071 -0.0000 -0.7071
vn -0.7071 -0.0000 -0.7071
vt 0.500000 0.750000
vt 0.500000 1.000000
vt 0.531250 1.000000
vt 0.000000 0.750000
vt 0.531250 0.750000
vt 0.500000 0.695312
vt 0.000000 0.695312
vt 0.000000 0.726562
vt 0.500000 0.726562
vt 0.250000 0.507812
vt 0.000000 0.507812
vt 0.000000 0.570312
vt 0.250000 0.570312
vt 0.312500 0.695312
vt 0.312500 0.570312
vt 0.375000 0.750000
vt 0.375000 0.671875
vt 0.312500 0.671875
vt 0.375000 0.726562
vt 0.375000 0.695312
vt 0.375000 0.289062
vt 0.375000 0.257812
vt 0.250000 0.257812
vt 0.250000 0.289062
vt 0.000000 0.257812
vt 0.500000 0.570312
vt 0.500000 0.445312
vt 0.250000 0.445312
vt 0.015625 0.289062
vt 0.015625 0.492188
vt 0.125000 0.492188
vt 0.234375 0.492188
vt 0.234375 0.289062
vt 0.000000 0.289062
vt 0.125000 0.289062
vt -0.000000 0.492188
vt 0.117188 0.507812
vt 0.117188 0.492188
vt 0.023438 0.492188
vt 0.023438 0.289062
vt 0.421875 0.648438
vt 0.421875 0.695312
vt 0.468750 0.695312
vt 0.460938 0.648438
vt 0.460938 0.695312
vt 0.429688 0.648438
vt 0.429688 0.695312
vt 0.468750 0.687500
vt 0.421875 0.687500
vt 0.468750 0.656250
vt 0.468750 0.648438
vt 0.250000 0.695312
vt 0.375000 0.445312
vt 0.375000 0.320312
vt 0.250000 0.320312
vt 0.250000 0.234375
vt 0.312500 0.593750
vt 0.500000 0.593750
vt 1.000000 0.343750
vt 1.000000 0.312500
vt 0.625000 0.312500
vt 0.750000 0.375000
vt 0.750000 0.343750
vt 0.625000 0.343750
vt 1.000000 0.375000
vt 0.875000 0.343750
vt 0.875000 0.375000
vt 0.875000 0.750000
vt 0.890625 0.750000
vt 1.000000 0.750000
vt 0.875000 0.625000
vt 0.750000 0.625000
vt 0.750000 0.750000
vt 0.750000 0.500000
vt 0.875000 0.500000
vt 0.500000 0.375000
vt 0.375000 0.140625
vt 0.000000 0.140625
vt -0.000000 0.234375
vt 0.375000 0.234375
vt 0.601562 0.750000
vt 0.601562 1.000000
vt 0.710938 0.750000
vt 0.820312 0.062500
vt 0.820312 0.312500
vt 0.929688 0.062500
vt 0.250000 0.085938
vt 0.000000 0.085938
vt 0.250000 0.140625
vt 0.414062 0.320312
vt 0.414062 0.445312
vt 0.460938 0.320312
vt 0.250000 0.078125
vt 0.390625 0.140625
vt 0.390625 0.078125
vt 0.375000 0.218750
vt 0.750000 0.234375
vt 0.500000 0.234375
vt 0.750000 0.218750
vt 0.500000 0.218750
vt 0.765625 0.125000
vt 0.765625 -0.000000
vt 0.390625 0.000000
vt 0.390625 0.125000
vt 0.742188 0.218750
vt 0.742188 0.140625
vt 0.382812 0.140625
vt 0.500000 0.140625
vt 0.398438 0.218750
vt 0.398438 0.140625
vt 0.500000 0.312500
vt 0.375000 0.312500
vt 0.382812 0.234375
vt 0.492188 0.312500
vt 0.492188 0.234375
vt 0.375000 0.648438
vt 0.414062 0.695312
vt 0.382812 0.648438
vt 0.382812 0.695312
vt 0.421875 0.656250
vt 0.375000 0.656250
vt 0.000000 1.000000
vt 0.000100 0.999900
vt 0.250000 0.492188
vt 0.625000 0.375000
vt 0.890625 0.375000
vt 0.781250 0.929688
vt 0.781250 0.820312
vt 0.710938 1.000000
vt 0.531250 0.820312
vt 0.531250 0.929688
vt 1.000000 0.242188
vt 1.000000 0.132812
vt 0.929688 0.312500
vt 0.750000 0.132812
vt 0.750000 0.242188
vt 0.500000 0.406250
vt 0.500000 0.359375
vt 0.460938 0.445312
vt 0.375000 0.359375
vt 0.375000 0.406250
vt 0.382812 0.218750
vt 0.390625 0.218750
vt 0.382812 0.312500
vt 0.414062 0.648438
vt 0.375000 0.687500
s 0
usemtl None
f 2/1/1 1/2/1 3/3/1
f 4/2/2 3/1/2 7/4/2
f 8/3/3 7/5/3 5/1/3
f 6/2/4 5/1/4 1/4/4
f 7/6/5 3/7/5 1/8/5
f 4/8/6 8/9/6 6/6/6
f 10/10/1 9/11/1 11/12/1
f 16/12/3 15/13/3 13/10/3
f 14/13/4 13/12/4 9/7/4
f 15/14/5 11/15/5 9/13/5
f 12/14/6 16/15/6 14/13/6
f 18/1/1 17/2/1 19/3/1
f 20/2/2 19/1/2 23/4/2
f 24/3/3 23/5/3 21/1/3
f 22/2/4 21/1/4 17/4/4
f 23/8/5 19/9/5 17/6/5
f 20/8/6 24/9/6 22/6/6
f 26/16/7 25/1/7 27/9/7
f 30/16/8 29/1/8 31/9/8
f 32/16/1 31/1/1 33/9/1
f 34/16/9 33/1/9 35/9/9
f 36/16/6 35/1/6 25/9/6
f 38/17/10 37/18/10 39/14/10
f 42/17/11 41/18/11 43/14/11
f 44/17/4 43/18/4 45/14/4
f 46/17/12 45/18/12 47/14/12
f 48/17/6 47/18/6 37/14/6
f 50/4/7 49/16/7 51/19/7
f 54/4/8 53/16/8 55/19/8
f 56/4/1 55/16/1 57/19/1
f 58/4/9 57/16/9 59/19/9
f 60/4/6 59/16/6 49/19/6
f 62/4/8 61/16/8 63/19/8
f 64/4/1 63/16/1 65/19/1
f 66/4/9 65/16/9 67/19/9
f 70/4/8 69/16/8 71/19/8
f 72/4/1 71/16/1 73/19/1
f 74/4/9 73/16/9 75/19/9
f 78/4/13 77/16/13 79/19/13
f 82/4/8 81/16/8 83/19/8
f 84/4/1 83/16/1 85/19/1
f 86/4/9 85/16/9 87/19/9
f 90/4/7 89/16/7 91/19/7
f 94/4/13 93/16/13 95/19/13
f 98/4/9 97/16/9 99/19/9
f 100/4/6 99/16/6 89/19/6
f 102/4/7 101/16/7 103/19/7
f 106/4/13 105/16/13 107/19/13
f 110/4/7 109/16/7 111/19/7
f 114/4/13 113/16/13 115/19/13
f 118/4/7 117/16/7 119/19/7
f 122/4/13 121/16/13 123/19/13
f 126/4/8 125/16/8 127/19/8
f 130/4/7 129/16/7 131/19/7
f 134/4/8 133/16/8 135/19/8
f 136/4/1 135/16/1 137/19/1
f 138/4/9 137/16/9 139/19/9
f 140/4/6 139/16/6 129/19/6
f 142/4/8 141/16/8 143/19/8
f 144/4/1 143/16/1 145/19/1
f 146/4/9 145/16/9 147/19/9
f 150/4/8 149/16/8 151/19/8
f 152/4/1 151/16/1 153/19/1
f 154/4/9 153/16/9 155/19/9
f 158/4/13 157/16/13 159/19/13
f 161/16/8 163/19/8 164/8/8
f 164/4/1 163/16/1 165/19/1
f 166/4/9 165/16/9 167/19/9
f 170/4/7 169/16/7 171/19/7
f 174/4/13 173/16/13 175/19/13
f 178/4/9 177/16/9 179/19/9
f 180/4/6 179/16/6 169/19/6
f 182/4/7 181/16/7 183/19/7
f 186/4/13 185/16/13 187/19/13
f 190/4/7 189/16/7 191/19/7
f 194/4/13 193/16/13 195/19/13
f 198/4/7 197/16/7 199/19/7
f 202/4/13 201/16/13 203/19/13
f 206/4/8 205/16/8 207/19/8
f 210/4/7 209/16/7 211/19/7
f 214/4/8 213/16/8 215/19/8
f 216/4/1 215/16/1 217/19/1
f 218/4/9 217/16/9 219/19/9
f 220/4/6 219/16/6 209/19/6
f 222/4/8 221/16/8 223/19/8
f 224/4/1 223/16/1 225/19/1
f 226/4/9 225/16/9 227/19/9
f 230/4/8 229/16/8 231/19/8
f 232/4/1 231/16/1 233/19/1
f 234/4/9 233/16/9 235/19/9
f 238/4/13 237/16/13 239/19/13
f 242/4/8 241/16/8 243/19/8
f 244/4/1 243/16/1 245/19/1
f 246/4/9 245/16/9 247/19/9
f 250/4/7 249/16/7 251/19/7
f 254/4/13 253/16/13 255/19/13
f 258/4/9 257/16/9 259/19/9
f 260/4/6 259/16/6 249/19/6
f 262/4/7 261/16/7 263/19/7
f 266/4/13 265/16/13 267/19/13
f 270/4/7 269/16/7 271/19/7
f 274/4/13 273/16/13 275/19/13
f 278/4/7 277/16/7 279/19/7
f 282/4/13 281/16/13 283/19/13
f 286/4/8 285/16/8 287/19/8
f 290/10/1 289/11/1 291/12/1
f 296/12/3 295/13/3 293/10/3
f 294/13/4 293/12/4 289/7/4
f 295/14/5 291/15/5 289/13/5
f 292/14/6 296/15/6 294/13/6
f 298/10/1 297/11/1 299/12/1
f 304/12/3 303/13/3 301/10/3
f 302/13/4 301/12/4 297/7/4
f 303/14/5 299/15/5 297/13/5
f 300/14/6 304/15/6 302/13/6
f 306/17/11 305/18/11 307/14/11
f 308/17/4 307/18/4 309/14/4
f 310/17/12 309/18/12 311/14/12
f 314/17/11 313/18/11 315/14/11
f 316/17/4 315/18/4 317/14/4
f 318/17/12 317/18/12 319/14/12
f 322/14/14 321/20/14 323/17/14
f 326/17/11 325/18/11 327/14/11
f 328/17/4 327/18/4 329/14/4
f 330/17/12 329/18/12 331/14/12
f 334/17/10 333/18/10 335/14/10
f 338/17/11 337/18/11 339/14/11
f 340/17/4 339/18/4 341/14/4
f 341/18/12 343/14/12 344/20/12
f 344/17/6 343/18/6 333/14/6
f 346/17/11 345/18/11 347/14/11
f 348/17/4 347/18/4 349/14/4
f 350/17/12 349/18/12 351/14/12
f 354/17/11 353/18/11 355/14/11
f 356/17/4 355/18/4 357/14/4
f 358/17/12 357/18/12 359/14/12
f 362/14/14 361/20/14 363/17/14
f 366/17/11 365/18/11 367/14/11
f 368/17/4 367/18/4 369/14/4
f 370/17/12 369/18/12 371/14/12
f 374/16/8 373/1/8 375/9/8
f 376/16/1 375/1/1 377/9/1
f 378/16/9 377/1/9 379/9/9
f 382/16/8 381/1/8 383/9/8
f 384/16/1 383/1/1 385/9/1
f 386/16/9 385/1/9 387/9/9
f 390/16/8 389/1/8 391/9/8
f 392/16/1 391/1/1 393/9/1
f 394/16/9 393/1/9 395/9/9
f 398/16/7 397/1/7 399/9/7
f 402/16/13 401/1/13 403/9/13
f 406/16/9 405/1/9 407/9/9
f 408/16/6 407/1/6 397/9/6
f 410/16/7 409/1/7 411/9/7
f 414/16/13 413/1/13 415/9/13
f 418/16/13 417/1/13 419/9/13
f 422/16/8 421/1/8 423/9/8
f 426/16/7 425/1/7 427/9/7
f 430/16/13 429/1/13 431/9/13
f 434/16/7 433/1/7 435/9/7
f 438/16/13 437/1/13 439/9/13
f 442/21/1 441/22/1 443/23/1
f 444/24/2 443/23/2 447/25/2
f 448/21/3 447/22/3 445/23/3
f 447/13/5 443/26/5 441/27/5
f 444/27/6 448/28/6 446/13/6
f 450/29/1 449/30/1 451/31/1
f 452/32/2 451/33/2 455/34/2
f 456/31/3 455/35/3 453/29/3
f 458/36/1 457/11/1 459/37/1
f 460/36/2 459/11/2 463/10/2
f 464/37/3 463/38/3 461/36/3
f 463/26/5 459/27/5 457/28/5
f 460/27/6 464/28/6 462/13/6
f 466/39/1 465/40/1 467/34/1
f 468/39/2 467/40/2 471/34/2
f 472/39/3 471/40/3 469/34/3
f 470/39/4 469/40/4 465/34/4
f 474/39/1 473/40/1 475/34/1
f 476/39/2 475/40/2 477/34/2
f 480/39/1 479/40/1 481/34/1
f 482/39/2 481/40/2 485/34/2
f 486/39/3 485/40/3 483/34/3
f 484/39/4 483/40/4 479/34/4
f 488/39/2 487/40/2 491/34/2
f 492/39/3 491/40/3 489/34/3
f 494/41/1 493/42/1 495/43/1
f 496/44/2 495/45/2 499/43/2
f 498/46/4 497/47/4 493/42/4
f 499/43/5 495/48/5 493/49/5
f 496/50/6 500/51/6 498/41/6
f 502/41/1 501/42/1 503/43/1
f 504/44/2 503/45/2 507/43/2
f 506/46/4 505/47/4 501/42/4
f 507/43/5 503/48/5 501/49/5
f 504/50/6 508/51/6 506/41/6
f 510/41/3 509/42/3 511/43/3
f 512/44/4 511/45/4 515/43/4
f 514/46/2 513/47/2 509/42/2
f 515/43/5 511/48/5 509/49/5
f 512/50/6 516/51/6 514/41/6
f 518/41/3 517/42/3 519/43/3
f 520/44/4 519/45/4 523/43/4
f 522/46/2 521/47/2 517/42/2
f 523/43/5 519/48/5 517/49/5
f 520/50/6 524/51/6 522/41/6
f 526/1/1 525/2/1 527/3/1
f 528/2/2 527/1/2 531/4/2
f 532/3/3 531/5/3 529/1/3
f 530/2/4 529/1/4 525/4/4
f 531/6/5 527/7/5 525/8/5
f 528/8/6 532/9/6 530/6/6
f 534/10/1 533/11/1 535/12/1
f 540/12/3 539/13/3 537/10/3
f 538/13/4 537/12/4 533/7/4
f 539/14/5 535/15/5 533/13/5
f 536/14/6 540/15/6 538/13/6
f 542/1/1 541/2/1 543/3/1
f 544/2/2 543/1/2 547/4/2
f 548/3/3 547/5/3 545/1/3
f 546/2/4 545/1/4 541/4/4
f 547/8/5 543/9/5 541/6/5
f 544/8/6 548/9/6 546/6/6
f 550/16/7 549/1/7 551/9/7
f 554/16/8 553/1/8 555/9/8
f 556/16/1 555/1/1 557/9/1
f 558/16/9 557/1/9 559/9/9
f 560/16/6 559/1/6 549/9/6
f 562/17/10 561/18/10 563/14/10
f 566/17/11 565/18/11 567/14/11
f 568/17/4 567/18/4 569/14/4
f 570/17/12 569/18/12 571/14/12
f 572/17/6 571/18/6 561/14/6
f 574/4/7 573/16/7 575/19/7
f 578/4/8 577/16/8 579/19/8
f 580/4/1 579/16/1 581/19/1
f 582/4/9 581/16/9 583/19/9
f 584/4/6 583/16/6 573/19/6
f 586/4/8 585/16/8 587/19/8
f 588/4/1 587/16/1 589/19/1
f 590/4/9 589/16/9 591/19/9
f 594/4/8 593/16/8 595/19/8
f 596/4/1 595/16/1 597/19/1
f 598/4/9 597/16/9 599/19/9
f 602/4/13 601/16/13 603/19/13
f 606/4/8 605/16/8 607/19/8
f 608/4/1 607/16/1 609/19/1
f 610/4/9 609/16/9 611/19/9
f 614/4/7 613/16/7 615/19/7
f 618/4/13 617/16/13 619/19/13
f 622/4/9 621/16/9 623/19/9
f 624/4/6 623/16/6 613/19/6
f 626/4/7 625/16/7 627/19/7
f 630/4/13 629/16/13 631/19/13
f 634/4/7 633/16/7 635/19/7
f 638/4/13 637/16/13 639/19/13
f 642/4/7 641/16/7 643/19/7
f 646/4/13 645/16/13 647/19/13
f 650/4/8 649/16/8 651/19/8
f 654/4/7 653/16/7 655/19/7
f 658/4/8 657/16/8 659/19/8
f 660/4/1 659/16/1 661/19/1
f 662/4/9 661/16/9 663/19/9
f 664/4/6 663/16/6 653/19/6
f 666/4/8 665/16/8 667/19/8
f 668/4/1 667/16/1 669/19/1
f 670/4/9 669/16/9 671/19/9
f 674/4/8 673/16/8 675/19/8
f 676/4/1 675/16/1 677/19/1
f 678/4/9 677/16/9 679/19/9
f 682/4/13 681/16/13 683/19/13
f 686/4/8 685/16/8 687/19/8
f 688/4/1 687/16/1 689/19/1
f 690/4/9 689/16/9 691/19/9
f 694/4/7 693/16/7 695/19/7
f 698/4/13 697/16/13 699/19/13
f 702/4/9 701/16/9 703/19/9
f 704/4/6 703/16/6 693/19/6
f 706/4/7 705/16/7 707/19/7
f 710/4/13 709/16/13 711/19/13
f 714/4/7 713/16/7 715/19/7
f 718/4/13 717/16/13 719/19/13
f 722/4/7 721/16/7 723/19/7
f 726/4/13 725/16/13 727/19/13
f 730/4/8 729/16/8 731/19/8
f 734/4/7 733/16/7 735/19/7
f 738/4/8 737/16/8 739/19/8
f 740/4/1 739/16/1 741/19/1
f 742/4/9 741/16/9 743/19/9
f 744/4/6 743/16/6 733/19/6
f 746/4/8 745/16/8 747/19/8
f 748/4/1 747/16/1 749/19/1
f 750/4/9 749/16/9 751/19/9
f 754/4/8 753/16/8 755/19/8
f 756/4/1 755/16/1 757/19/1
f 758/4/9 757/16/9 759/19/9
f 762/4/13 761/16/13 763/19/13
f 766/4/8 765/16/8 767/19/8
f 768/4/1 767/16/1 769/19/1
f 770/4/9 769/16/9 771/19/9
f 774/4/7 773/16/7 775/19/7
f 778/4/13 777/16/13 779/19/13
f 782/4/9 781/16/9 783/19/9
f 784/4/6 783/16/6 773/19/6
f 786/4/7 785/16/7 787/19/7
f 790/4/13 789/16/13 791/19/13
f 794/4/7 793/16/7 795/19/7
f 798/4/13 797/16/13 799/19/13
f 802/4/7 801/16/7 803/19/7
f 806/4/13 805/16/13 807/19/13
f 810/4/8 809/16/8 811/19/8
f 814/10/1 813/11/1 815/12/1
f 820/12/3 819/13/3 817/10/3
f 818/13/4 817/12/4 813/7/4
f 819/14/5 815/15/5 813/13/5
f 816/14/6 820/15/6 818/13/6
f 822/10/1 821/11/1 823/12/1
f 828/12/3 827/13/3 825/10/3
f 826/13/4 825/12/4 821/7/4
f 827/14/5 823/15/5 821/13/5
f 824/14/6 828/15/6 826/13/6
f 830/17/11 829/18/11 831/14/11
f 832/17/4 831/18/4 833/14/4
f 834/17/12 833/18/12 835/14/12
f 838/17/11 837/18/11 839/14/11
f 840/17/4 839/18/4 841/14/4
f 842/17/12 841/18/12 843/14/12
f 846/14/14 845/20/14 847/17/14
f 850/17/11 849/18/11 851/14/11
f 852/17/4 851/18/4 853/14/4
f 854/17/12 853/18/12 855/14/12
f 858/17/10 857/18/10 859/14/10
f 862/17/11 861/18/11 863/14/11
f 864/17/4 863/18/4 865/14/4
f 866/17/12 865/18/12 867/14/12
f 868/17/6 867/18/6 857/14/6
f 870/17/11 869/18/11 871/14/11
f 872/17/4 871/18/4 873/14/4
f 874/17/12 873/18/12 875/14/12
f 878/17/11 877/18/11 879/14/11
f 880/17/4 879/18/4 881/14/4
f 882/17/12 881/18/12 883/14/12
f 886/14/14 885/20/14 887/17/14
f 890/17/11 889/18/11 891/14/11
f 892/17/4 891/18/4 893/14/4
f 894/17/12 893/18/12 895/14/12
f 898/16/8 897/1/8 899/9/8
f 900/16/1 899/1/1 901/9/1
f 902/16/9 901/1/9 903/9/9
f 906/16/8 905/1/8 907/9/8
f 908/16/1 907/1/1 909/9/1
f 910/16/9 909/1/9 911/9/9
f 914/16/8 913/1/8 915/9/8
f 916/16/1 915/1/1 917/9/1
f 918/16/9 917/1/9 919/9/9
f 922/16/7 921/1/7 923/9/7
f 926/16/13 925/1/13 927/9/13
f 930/16/9 929/1/9 931/9/9
f 932/16/6 931/1/6 921/9/6
f 934/16/7 933/1/7 935/9/7
f 938/16/13 937/1/13 939/9/13
f 942/16/13 941/1/13 943/9/13
f 946/16/8 945/1/8 947/9/8
f 950/16/7 949/1/7 951/9/7
f 954/16/13 953/1/13 955/9/13
f 958/16/7 957/1/7 959/9/7
f 962/16/13 961/1/13 963/9/13
f 966/21/1 965/22/1 967/23/1
f 968/24/2 967/23/2 971/25/2
f 972/21/3 971/22/3 969/23/3
f 971/13/5 967/26/5 965/27/5
f 968/27/6 972/28/6 970/13/6
f 974/29/1 973/30/1 975/31/1
f 976/32/2 975/33/2 979/34/2
f 980/31/3 979/35/3 977/29/3
f 982/36/1 981/11/1 983/37/1
f 984/36/2 983/11/2 987/10/2
f 988/37/3 987/38/3 985/36/3
f 987/26/5 983/27/5 981/28/5
f 984/27/6 988/28/6 986/13/6
f 990/39/1 989/40/1 991/34/1
f 992/39/2 991/40/2 995/34/2
f 996/39/3 995/40/3 993/34/3
f 994/39/4 993/40/4 989/34/4
f 998/39/1 997/40/1 999/34/1
f 1000/39/2 999/40/2 1001/34/2
f 1004/39/1 1003/40/1 1005/34/1
f 1006/39/2 1005/40/2 1009/34/2
f 1010/39/3 1009/40/3 1007/34/3
f 1008/39/4 1007/40/4 1003/34/4
f 1012/39/2 1011/40/2 1015/34/2
f 1016/39/3 1015/40/3 1013/34/3
f 1018/41/1 1017/42/1 1019/43/1
f 1020/44/2 1019/45/2 1023/43/2
f 1022/46/4 1021/47/4 1017/42/4
f 1023/43/5 1019/48/5 1017/49/5
f 1020/50/6 1024/51/6 1022/41/6
f 1026/41/1 1025/42/1 1027/43/1
f 1028/44/2 1027/45/2 1031/43/2
f 1030/46/4 1029/47/4 1025/42/4
f 1031/43/5 1027/48/5 1025/49/5
f 1028/50/6 1032/51/6 1030/41/6
f 1034/41/3 1033/42/3 1035/43/3
f 1036/44/4 1035/45/4 1039/43/4
f 1038/46/2 1037/47/2 1033/42/2
f 1039/43/5 1035/48/5 1033/49/5
f 1036/50/6 1040/51/6 1038/41/6
f 1042/41/3 1041/42/3 1043/43/3
f 1044/44/4 1043/45/4 1047/43/4
f 1046/46/2 1045/47/2 1041/42/2
f 1047/43/5 1043/48/5 1041/49/5
f 1044/50/6 1048/51/6 1046/41/6
f 1050/13/1 1049/12/1 1051/7/1
f 1052/13/2 1051/12/2 1055/7/2
f 1056/7/3 1055/52/3 1053/13/3
f 1054/13/4 1053/12/4 1049/7/4
f 1055/53/5 1051/54/5 1049/55/5
f 1052/53/6 1056/54/6 1054/55/6
f 1058/13/1 1057/12/1 1059/7/1
f 1060/13/2 1059/12/2 1063/7/2
f 1064/7/3 1063/52/3 1061/13/3
f 1062/13/4 1061/12/4 1057/7/4
f 1063/53/5 1059/54/5 1057/55/5
f 1060/53/6 1064/54/6 1062/55/6
f 1066/13/1 1065/12/1 1067/7/1
f 1068/13/2 1067/12/2 1071/7/2
f 1072/7/3 1071/52/3 1069/13/3
f 1070/13/4 1069/12/4 1065/7/4
f 1071/53/5 1067/54/5 1065/55/5
f 1068/53/6 1072/54/6 1070/55/6
f 1074/25/7 1073/23/7 1075/56/7
f 1078/25/8 1077/23/8 1079/56/8
f 1080/25/1 1079/23/1 1081/56/1
f 1082/25/9 1081/23/9 1083/56/9
f 1084/25/6 1083/23/6 1073/56/6
f 1086/25/8 1085/23/8 1087/56/8
f 1088/25/1 1087/23/1 1089/56/1
f 1090/25/9 1089/23/9 1091/56/9
f 1094/25/7 1093/23/7 1095/56/7
f 1098/25/13 1097/23/13 1099/56/13
f 1102/25/9 1101/23/9 1103/56/9
f 1104/25/6 1103/23/6 1093/56/6
f 1106/25/7 1105/23/7 1107/56/7
f 1110/25/13 1109/23/13 1111/56/13
f 1114/25/13 1113/23/13 1115/56/13
f 1118/25/8 1117/23/8 1119/56/8
f 1122/57/2 1121/58/2 1123/26/2
f 1123/58/14 1125/26/14 1126/15/14
f 1126/57/5 1125/58/5 1127/26/5
f 1128/57/11 1127/58/11 1129/26/11
f 1131/15/10 1121/57/10 1122/58/10
f 1134/57/2 1133/58/2 1135/26/2
f 1135/58/14 1137/26/14 1138/15/14
f 1139/15/10 1133/57/10 1134/58/10
f 1142/57/2 1141/58/2 1143/26/2
f 1143/58/14 1145/26/14 1146/15/14
f 1148/26/10 1147/15/10 1141/57/10
f 1150/57/2 1149/58/2 1151/26/2
f 1151/58/14 1153/26/14 1154/15/14
f 1156/26/12 1155/15/12 1157/57/12
f 1158/26/6 1157/15/6 1159/57/6
f 1159/15/10 1149/57/10 1150/58/10
f 1162/57/14 1161/58/14 1163/26/14
f 1164/57/5 1163/58/5 1165/26/5
f 1166/57/11 1165/58/11 1167/26/11
f 1168/57/4 1167/58/4 1169/26/4
f 1170/26/12 1169/15/12 1171/57/12
f 1174/57/11 1173/58/11 1175/26/11
f 1176/57/4 1175/58/4 1177/26/4
f 1178/26/12 1177/15/12 1179/57/12
f 1182/57/11 1181/58/11 1183/26/11
f 1184/57/4 1183/58/4 1185/26/4
f 1186/26/12 1185/15/12 1187/57/12
f 1190/57/11 1189/58/11 1191/26/11
f 1192/57/4 1191/58/4 1193/26/4
f 1194/26/12 1193/15/12 1195/57/12
f 1200/26/6 1199/15/6 1201/57/6
f 1201/15/10 1197/57/10 1198/58/10
f 1204/57/2 1203/58/2 1205/26/2
f 1206/57/14 1205/58/14 1207/26/14
f 1208/57/5 1207/58/5 1209/26/5
f 1209/58/11 1211/26/11 1212/15/11
f 1214/26/10 1213/15/10 1203/57/10
f 1216/57/2 1215/58/2 1217/26/2
f 1218/57/14 1217/58/14 1219/26/14
f 1222/26/10 1221/15/10 1215/57/10
f 1224/57/2 1223/58/2 1225/26/2
f 1226/57/14 1225/58/14 1227/26/14
f 1230/26/10 1229/15/10 1223/57/10
f 1232/57/2 1231/58/2 1233/26/2
f 1234/57/14 1233/58/14 1235/26/14
f 1238/26/12 1237/15/12 1239/57/12
f 1240/26/6 1239/15/6 1241/57/6
f 1242/26/10 1241/15/10 1231/57/10
f 1244/57/14 1243/58/14 1245/26/14
f 1246/57/5 1245/58/5 1247/26/5
f 1247/58/11 1249/26/11 1250/15/11
f 1250/57/4 1249/58/4 1251/26/4
f 1252/26/12 1251/15/12 1253/57/12
f 1256/57/11 1255/58/11 1257/26/11
f 1258/57/4 1257/58/4 1259/26/4
f 1260/26/12 1259/15/12 1261/57/12
f 1264/57/11 1263/58/11 1265/26/11
f 1266/57/4 1265/58/4 1267/26/4
f 1268/26/12 1267/15/12 1269/57/12
f 1272/57/11 1271/58/11 1273/26/11
f 1274/57/4 1273/58/4 1275/26/4
f 1276/26/12 1275/15/12 1277/57/12
f 1282/26/6 1281/15/6 1283/57/6
f 1284/26/10 1283/15/10 1279/57/10
f 1288/4/5 1287/16/5 1285/19/5
f 1292/4/5 1291/16/5 1289/19/5
f 1296/4/5 1295/16/5 1293/19/5
f 1300/4/5 1299/16/5 1297/19/5
f 1304/4/5 1303/16/5 1301/19/5
f 1308/4/5 1307/16/5 1305/19/5
f 1312/17/5 1311/18/5 1309/14/5
f 1316/17/5 1315/18/5 1313/14/5
f 1320/16/5 1319/1/5 1317/9/5
f 1324/16/5 1323/1/5 1321/9/5
f 1328/4/5 1327/16/5 1325/19/5
f 1332/4/5 1331/16/5 1329/19/5
f 1336/4/5 1335/16/5 1333/19/5
f 1340/4/5 1339/16/5 1337/19/5
f 1344/4/5 1343/16/5 1341/19/5
f 1348/4/5 1347/16/5 1345/19/5
f 1352/17/5 1351/18/5 1349/14/5
f 1356/17/5 1355/18/5 1353/14/5
f 1360/16/5 1359/1/5 1357/9/5
f 1364/16/5 1363/1/5 1361/9/5
f 1368/25/5 1367/23/5 1365/56/5
f 1372/25/5 1371/23/5 1369/56/5
f 1374/4/3 1373/16/3 1375/19/3
f 1378/4/3 1377/16/3 1379/19/3
f 1382/4/3 1381/16/3 1383/19/3
f 1386/4/3 1385/16/3 1387/19/3
f 1390/4/3 1389/16/3 1391/19/3
f 1394/4/3 1393/16/3 1395/19/3
f 1398/4/3 1397/16/3 1399/19/3
f 1402/4/3 1401/16/3 1403/19/3
f 1406/4/3 1405/16/3 1407/19/3
f 1410/4/3 1409/16/3 1411/19/3
f 1414/4/3 1413/16/3 1415/19/3
f 1418/4/3 1417/16/3 1419/19/3
f 1422/4/3 1421/16/3 1423/19/3
f 1426/4/3 1425/16/3 1427/19/3
f 1430/4/3 1429/16/3 1431/19/3
f 1434/4/3 1433/16/3 1435/19/3
f 1438/4/3 1437/16/3 1439/19/3
f 1442/4/3 1441/16/3 1443/19/3
f 1446/4/3 1445/16/3 1447/19/3
f 1450/4/3 1449/16/3 1451/19/3
f 1454/4/3 1453/16/3 1455/19/3
f 1458/4/3 1457/16/3 1459/19/3
f 1462/4/3 1461/16/3 1463/19/3
f 1466/4/3 1465/16/3 1467/19/3
f 1470/16/3 1469/1/3 1471/9/3
f 1474/16/3 1473/1/3 1475/9/3
f 1478/16/3 1477/1/3 1479/9/3
f 1482/16/3 1481/1/3 1483/9/3
f 1486/16/3 1485/1/3 1487/9/3
f 1490/16/3 1489/1/3 1491/9/3
f 1494/16/3 1493/1/3 1495/9/3
f 1498/16/3 1497/1/3 1499/9/3
f 1502/25/3 1501/23/3 1503/56/3
f 1506/25/3 1505/23/3 1507/56/3
f 1510/59/1 1509/60/1 1511/61/1
f 1512/62/2 1511/63/2 1515/64/2
f 1516/65/3 1515/59/3 1513/64/3
f 1514/65/4 1513/59/4 1509/66/4
f 1515/65/5 1511/67/5 1509/68/5
f 1512/69/6 1516/70/6 1514/65/6
f 1520/21/2 1519/22/2 1523/23/2
f 1522/67/4 1521/66/4 1517/63/4
f 1523/71/5 1519/72/5 1517/73/5
f 1520/74/6 1524/75/6 1522/67/6
f 1526/65/1 1525/59/1 1527/64/1
f 1528/67/2 1527/66/2 1531/64/2
f 1532/59/3 1531/60/3 1529/61/3
f 1530/67/4 1529/66/4 1525/64/4
f 1531/62/5 1527/76/5 1525/1/5
f 1528/1/6 1532/73/6 1530/62/6
f 1534/77/2 1533/78/2 1535/79/2
f 1536/77/15 1535/78/15 1537/79/15
f 1538/77/3 1537/78/3 1539/79/3
f 1540/79/16 1539/80/16 1541/77/16
f 1542/79/4 1541/80/4 1543/77/4
f 1544/77/17 1543/78/17 1545/79/17
f 1540/81/6 1546/82/6 1538/83/6
f 1546/77/1 1545/78/1 1547/79/1
f 1548/77/18 1547/78/18 1533/79/18
f 1545/84/5 1539/85/5 1547/86/5
f 1550/87/2 1549/88/2 1551/78/2
f 1552/78/15 1551/89/15 1553/87/15
f 1554/78/3 1553/89/3 1555/87/3
f 1556/78/16 1555/89/16 1557/87/16
f 1558/87/4 1557/88/4 1559/78/4
f 1560/78/17 1559/89/17 1561/87/17
f 1556/90/6 1562/91/6 1554/92/6
f 1562/87/1 1561/88/1 1563/78/1
f 1564/87/18 1563/88/18 1549/78/18
f 1566/87/2 1565/88/2 1567/78/2
f 1568/78/15 1567/89/15 1569/87/15
f 1570/78/3 1569/89/3 1571/87/3
f 1572/78/16 1571/89/16 1573/87/16
f 1574/87/4 1573/88/4 1575/78/4
f 1576/78/17 1575/89/17 1577/87/17
f 1572/90/6 1578/91/6 1570/92/6
f 1578/87/1 1577/88/1 1579/78/1
f 1580/87/18 1579/88/18 1565/78/18
f 1582/87/2 1581/88/2 1583/78/2
f 1584/78/15 1583/89/15 1585/87/15
f 1586/78/3 1585/89/3 1587/87/3
f 1588/78/16 1587/89/16 1589/87/16
f 1590/87/4 1589/88/4 1591/78/4
f 1592/78/17 1591/89/17 1593/87/17
f 1588/90/6 1594/91/6 1586/92/6
f 1594/87/1 1593/88/1 1595/78/1
f 1596/87/18 1595/88/18 1581/78/18
f 1598/87/2 1597/88/2 1599/78/2
f 1600/78/15 1599/89/15 1601/87/15
f 1602/78/3 1601/89/3 1603/87/3
f 1604/78/16 1603/89/16 1605/87/16
f 1606/87/4 1605/88/4 1607/78/4
f 1608/78/17 1607/89/17 1609/87/17
f 1604/90/6 1610/91/6 1602/92/6
f 1610/87/1 1609/88/1 1611/78/1
f 1612/87/18 1611/88/18 1597/78/18
f 1614/93/1 1613/89/1 1615/94/1
f 1620/94/3 1619/95/3 1617/93/3
f 1619/94/5 1615/95/5 1613/93/5
f 1616/94/6 1620/95/6 1618/93/6
f 1622/93/1 1621/89/1 1623/94/1
f 1628/94/3 1627/95/3 1625/93/3
f 1627/94/5 1623/95/5 1621/93/5
f 1624/94/6 1628/95/6 1626/93/6
f 1630/93/1 1629/89/1 1631/94/1
f 1636/94/3 1635/95/3 1633/93/3
f 1635/94/5 1631/95/5 1629/93/5
f 1632/94/6 1636/95/6 1634/93/6
f 1638/93/1 1637/89/1 1639/94/1
f 1644/94/3 1643/95/3 1641/93/3
f 1643/94/5 1639/95/5 1637/93/5
f 1640/94/6 1644/95/6 1642/93/6
f 1646/93/4 1645/89/4 1647/94/4
f 1652/94/2 1651/95/2 1649/93/2
f 1651/94/5 1647/95/5 1645/93/5
f 1648/94/6 1652/95/6 1650/93/6
f 1654/93/4 1653/89/4 1655/94/4
f 1660/94/2 1659/95/2 1657/93/2
f 1659/94/5 1655/95/5 1653/93/5
f 1656/94/6 1660/95/6 1658/93/6
f 1664/67/2 1663/66/2 1667/63/2
f 1666/21/4 1665/22/4 1661/23/4
f 1667/67/5 1663/62/5 1661/74/5
f 1664/73/6 1668/68/6 1666/71/6
f 1670/96/1 1669/80/1 1671/97/1
f 1672/96/2 1671/80/2 1675/98/2
f 1676/97/3 1675/99/3 1673/96/3
f 1674/98/4 1673/100/4 1669/96/4
f 1675/101/5 1671/102/5 1669/103/5
f 1672/103/6 1676/104/6 1674/101/6
f 1678/105/1 1677/106/1 1679/107/1
f 1680/100/2 1679/108/2 1683/94/2
f 1684/105/3 1683/106/3 1681/107/3
f 1682/100/4 1681/108/4 1677/94/4
f 1686/109/1 1685/110/1 1687/77/1
f 1688/109/2 1687/110/2 1691/77/2
f 1692/109/3 1691/110/3 1689/77/3
f 1690/109/4 1689/110/4 1685/77/4
f 1694/109/1 1693/110/1 1695/77/1
f 1696/109/2 1695/110/2 1699/77/2
f 1700/109/3 1699/110/3 1697/77/3
f 1698/109/4 1697/110/4 1693/77/4
f 1702/109/1 1701/110/1 1703/77/1
f 1704/109/2 1703/110/2 1707/77/2
f 1708/109/3 1707/110/3 1705/77/3
f 1706/109/4 1705/110/4 1701/77/4
f 1710/109/1 1709/110/1 1711/77/1
f 1712/109/2 1711/110/2 1715/77/2
f 1716/109/3 1715/110/3 1713/77/3
f 1714/109/4 1713/110/4 1709/77/4
f 1718/111/1 1717/98/1 1719/80/1
f 1720/112/2 1719/80/2 1723/113/2
f 1722/114/4 1721/115/4 1717/98/4
f 1726/116/1 1725/20/1 1727/42/1
f 1728/41/2 1727/42/2 1731/117/2
f 1730/118/4 1729/119/4 1725/20/4
f 1731/49/5 1727/42/5 1725/20/5
f 1728/41/6 1732/120/6 1730/121/6
f 1734/116/1 1733/20/1 1735/42/1
f 1736/41/2 1735/42/2 1739/117/2
f 1738/118/4 1737/119/4 1733/20/4
f 1739/49/5 1735/42/5 1733/20/5
f 1736/41/6 1740/120/6 1738/121/6
f 2/1/1 3/3/1 4/5/1
f 4/2/2 7/4/2 8/122/2
f 8/3/3 5/1/3 6/2/3
f 6/2/4 1/4/4 2/123/4
f 7/6/5 1/8/5 5/9/5
f 4/8/6 6/6/6 2/7/6
f 10/10/1 11/12/1 12/13/1
f 16/12/3 13/10/3 14/11/3
f 14/13/4 9/7/4 10/52/4
f 15/14/5 9/13/5 13/52/5
f 12/14/6 14/13/6 10/52/6
f 18/1/1 19/3/1 20/5/1
f 20/2/2 23/4/2 24/122/2
f 24/3/3 21/1/3 22/2/3
f 22/2/4 17/4/4 18/123/4
f 23/8/5 17/6/5 21/7/5
f 20/8/6 22/6/6 18/7/6
f 26/16/7 27/9/7 28/19/7
f 30/16/8 31/9/8 32/19/8
f 32/16/1 33/9/1 34/19/1
f 34/16/9 35/9/9 36/19/9
f 36/16/6 25/9/6 26/19/6
f 38/17/10 39/14/10 40/20/10
f 42/17/11 43/14/11 44/20/11
f 44/17/4 45/14/4 46/20/4
f 46/17/12 47/14/12 48/20/12
f 48/17/6 37/14/6 38/20/6
f 50/4/7 51/19/7 52/8/7
f 54/4/8 55/19/8 56/8/8
f 56/4/1 57/19/1 58/8/1
f 58/4/9 59/19/9 60/8/9
f 60/4/6 49/19/6 50/8/6
f 62/4/8 63/19/8 64/8/8
f 64/4/1 65/19/1 66/8/1
f 66/4/9 67/19/9 68/8/9
f 70/4/8 71/19/8 72/8/8
f 72/4/1 73/19/1 74/8/1
f 74/4/9 75/19/9 76/8/9
f 78/4/13 79/19/13 80/8/13
f 82/4/8 83/19/8 84/8/8
f 84/4/1 85/19/1 86/8/1
f 86/4/9 87/19/9 88/8/9
f 90/4/7 91/19/7 92/8/7
f 94/4/13 95/19/13 96/8/13
f 98/4/9 99/19/9 100/8/9
f 100/4/6 89/19/6 90/8/6
f 102/4/7 103/19/7 104/8/7
f 106/4/13 107/19/13 108/8/13
f 110/4/7 111/19/7 112/8/7
f 114/4/13 115/19/13 116/8/13
f 118/4/7 119/19/7 120/8/7
f 122/4/13 123/19/13 124/8/13
f 126/4/8 127/19/8 128/8/8
f 130/4/7 131/19/7 132/8/7
f 134/4/8 135/19/8 136/8/8
f 136/4/1 137/19/1 138/8/1
f 138/4/9 139/19/9 140/8/9
f 140/4/6 129/19/6 130/8/6
f 142/4/8 143/19/8 144/8/8
f 144/4/1 145/19/1 146/8/1
f 146/4/9 147/19/9 148/8/9
f 150/4/8 151/19/8 152/8/8
f 152/4/1 153/19/1 154/8/1
f 154/4/9 155/19/9 156/8/9
f 158/4/13 159/19/13 160/8/13
f 161/16/8 164/8/8 162/4/8
f 164/4/1 165/19/1 166/8/1
f 166/4/9 167/19/9 168/8/9
f 170/4/7 171/19/7 172/8/7
f 174/4/13 175/19/13 176/8/13
f 178/4/9 179/19/9 180/8/9
f 180/4/6 169/19/6 170/8/6
f 182/4/7 183/19/7 184/8/7
f 186/4/13 187/19/13 188/8/13
f 190/4/7 191/19/7 192/8/7
f 194/4/13 195/19/13 196/8/13
f 198/4/7 199/19/7 200/8/7
f 202/4/13 203/19/13 204/8/13
f 206/4/8 207/19/8 208/8/8
f 210/4/7 211/19/7 212/8/7
f 214/4/8 215/19/8 216/8/8
f 216/4/1 217/19/1 218/8/1
f 218/4/9 219/19/9 220/8/9
f 220/4/6 209/19/6 210/8/6
f 222/4/8 223/19/8 224/8/8
f 224/4/1 225/19/1 226/8/1
f 226/4/9 227/19/9 228/8/9
f 230/4/8 231/19/8 232/8/8
f 232/4/1 233/19/1 234/8/1
f 234/4/9 235/19/9 236/8/9
f 238/4/13 239/19/13 240/8/13
f 242/4/8 243/19/8 244/8/8
f 244/4/1 245/19/1 246/8/1
f 246/4/9 247/19/9 248/8/9
f 250/4/7 251/19/7 252/8/7
f 254/4/13 255/19/13 256/8/13
f 258/4/9 259/19/9 260/8/9
f 260/4/6 249/19/6 250/8/6
f 262/4/7 263/19/7 264/8/7
f 266/4/13 267/19/13 268/8/13
f 270/4/7 271/19/7 272/8/7
f 274/4/13 275/19/13 276/8/13
f 278/4/7 279/19/7 280/8/7
f 282/4/13 283/19/13 284/8/13
f 286/4/8 287/19/8 288/8/8
f 290/10/1 291/12/1 292/13/1
f 296/12/3 293/10/3 294/11/3
f 294/13/4 289/7/4 290/52/4
f 295/14/5 289/13/5 293/52/5
f 292/14/6 294/13/6 290/52/6
f 298/10/1 299/12/1 300/13/1
f 304/12/3 301/10/3 302/11/3
f 302/13/4 297/7/4 298/52/4
f 303/14/5 297/13/5 301/52/5
f 300/14/6 302/13/6 298/52/6
f 306/17/11 307/14/11 308/20/11
f 308/17/4 309/14/4 310/20/4
f 310/17/12 311/14/12 312/20/12
f 314/17/11 315/14/11 316/20/11
f 316/17/4 317/14/4 318/20/4
f 318/17/12 319/14/12 320/20/12
f 322/14/14 323/17/14 324/18/14
f 326/17/11 327/14/11 328/20/11
f 328/17/4 329/14/4 330/20/4
f 330/17/12 331/14/12 332/20/12
f 334/17/10 335/14/10 336/20/10
f 338/17/11 339/14/11 340/20/11
f 340/17/4 341/14/4 342/20/4
f 341/18/12 344/20/12 342/17/12
f 344/17/6 333/14/6 334/20/6
f 346/17/11 347/14/11 348/20/11
f 348/17/4 349/14/4 350/20/4
f 350/17/12 351/14/12 352/20/12
f 354/17/11 355/14/11 356/20/11
f 356/17/4 357/14/4 358/20/4
f 358/17/12 359/14/12 360/20/12
f 362/14/14 363/17/14 364/18/14
f 366/17/11 367/14/11 368/20/11
f 368/17/4 369/14/4 370/20/4
f 370/17/12 371/14/12 372/20/12
f 374/16/8 375/9/8 376/19/8
f 376/16/1 377/9/1 378/19/1
f 378/16/9 379/9/9 380/19/9
f 382/16/8 383/9/8 384/19/8
f 384/16/1 385/9/1 386/19/1
f 386/16/9 387/9/9 388/19/9
f 390/16/8 391/9/8 392/19/8
f 392/16/1 393/9/1 394/19/1
f 394/16/9 395/9/9 396/19/9
f 398/16/7 399/9/7 400/19/7
f 402/16/13 403/9/13 404/19/13
f 406/16/9 407/9/9 408/19/9
f 408/16/6 397/9/6 398/19/6
f 410/16/7 411/9/7 412/19/7
f 414/16/13 415/9/13 416/19/13
f 418/16/13 419/9/13 420/19/13
f 422/16/8 423/9/8 424/19/8
f 426/16/7 427/9/7 428/19/7
f 430/16/13 431/9/13 432/19/13
f 434/16/7 435/9/7 436/19/7
f 438/16/13 439/9/13 440/19/13
f 442/21/1 443/23/1 444/24/1
f 444/24/2 447/25/2 448/34/2
f 448/21/3 445/23/3 446/24/3
f 447/13/5 441/27/5 445/28/5
f 444/27/6 446/13/6 442/26/6
f 450/29/1 451/31/1 452/35/1
f 452/32/2 455/34/2 456/36/2
f 456/31/3 453/29/3 454/30/3
f 458/36/1 459/37/1 460/38/1
f 460/36/2 463/10/2 464/124/2
f 464/37/3 461/36/3 462/11/3
f 463/26/5 457/28/5 461/13/5
f 460/27/6 462/13/6 458/26/6
f 466/39/1 467/34/1 468/36/1
f 468/39/2 471/34/2 472/36/2
f 472/39/3 469/34/3 470/36/3
f 470/39/4 465/34/4 466/36/4
f 474/39/1 475/34/1 476/36/1
f 476/39/2 477/34/2 478/36/2
f 480/39/1 481/34/1 482/36/1
f 482/39/2 485/34/2 486/36/2
f 486/39/3 483/34/3 484/36/3
f 484/39/4 479/34/4 480/36/4
f 488/39/2 491/34/2 492/36/2
f 492/39/3 489/34/3 490/36/3
f 494/41/1 495/43/1 496/51/1
f 496/44/2 499/43/2 500/51/2
f 498/46/4 493/42/4 494/41/4
f 499/43/5 493/49/5 497/42/5
f 496/50/6 498/41/6 494/120/6
f 502/41/1 503/43/1 504/51/1
f 504/44/2 507/43/2 508/51/2
f 506/46/4 501/42/4 502/41/4
f 507/43/5 501/49/5 505/42/5
f 504/50/6 506/41/6 502/120/6
f 510/41/3 511/43/3 512/51/3
f 512/44/4 515/43/4 516/51/4
f 514/46/2 509/42/2 510/41/2
f 515/43/5 509/49/5 513/42/5
f 512/50/6 514/41/6 510/120/6
f 518/41/3 519/43/3 520/51/3
f 520/44/4 523/43/4 524/51/4
f 522/46/2 517/42/2 518/41/2
f 523/43/5 517/49/5 521/42/5
f 520/50/6 522/41/6 518/120/6
f 526/1/1 527/3/1 528/5/1
f 528/2/2 531/4/2 532/122/2
f 532/3/3 529/1/3 530/2/3
f 530/2/4 525/4/4 526/123/4
f 531/6/5 525/8/5 529/9/5
f 528/8/6 530/6/6 526/7/6
f 534/10/1 535/12/1 536/13/1
f 540/12/3 537/10/3 538/11/3
f 538/13/4 533/7/4 534/52/4
f 539/14/5 533/13/5 537/52/5
f 536/14/6 538/13/6 534/52/6
f 542/1/1 543/3/1 544/5/1
f 544/2/2 547/4/2 548/122/2
f 548/3/3 545/1/3 546/2/3
f 546/2/4 541/4/4 542/123/4
f 547/8/5 541/6/5 545/7/5
f 544/8/6 546/6/6 542/7/6
f 550/16/7 551/9/7 552/19/7
f 554/16/8 555/9/8 556/19/8
f 556/16/1 557/9/1 558/19/1
f 558/16/9 559/9/9 560/19/9
f 560/16/6 549/9/6 550/19/6
f 562/17/10 563/14/10 564/20/10
f 566/17/11 567/14/11 568/20/11
f 568/17/4 569/14/4 570/20/4
f 570/17/12 571/14/12 572/20/12
f 572/17/6 561/14/6 562/20/6
f 574/4/7 575/19/7 576/8/7
f 578/4/8 579/19/8 580/8/8
f 580/4/1 581/19/1 582/8/1
f 582/4/9 583/19/9 584/8/9
f 584/4/6 573/19/6 574/8/6
f 586/4/8 587/19/8 588/8/8
f 588/4/1 589/19/1 590/8/1
f 590/4/9 591/19/9 592/8/9
f 594/4/8 595/19/8 596/8/8
f 596/4/1 597/19/1 598/8/1
f 598/4/9 599/19/9 600/8/9
f 602/4/13 603/19/13 604/8/13
f 606/4/8 607/19/8 608/8/8
f 608/4/1 609/19/1 610/8/1
f 610/4/9 611/19/9 612/8/9
f 614/4/7 615/19/7 616/8/7
f 618/4/13 619/19/13 620/8/13
f 622/4/9 623/19/9 624/8/9
f 624/4/6 613/19/6 614/8/6
f 626/4/7 627/19/7 628/8/7
f 630/4/13 631/19/13 632/8/13
f 634/4/7 635/19/7 636/8/7
f 638/4/13 639/19/13 640/8/13
f 642/4/7 643/19/7 644/8/7
f 646/4/13 647/19/13 648/8/13
f 650/4/8 651/19/8 652/8/8
f 654/4/7 655/19/7 656/8/7
f 658/4/8 659/19/8 660/8/8
f 660/4/1 661/19/1 662/8/1
f 662/4/9 663/19/9 664/8/9
f 664/4/6 653/19/6 654/8/6
f 666/4/8 667/19/8 668/8/8
f 668/4/1 669/19/1 670/8/1
f 670/4/9 671/19/9 672/8/9
f 674/4/8 675/19/8 676/8/8
f 676/4/1 677/19/1 678/8/1
f 678/4/9 679/19/9 680/8/9
f 682/4/13 683/19/13 684/8/13
f 686/4/8 687/19/8 688/8/8
f 688/4/1 689/19/1 690/8/1
f 690/4/9 691/19/9 692/8/9
f 694/4/7 695/19/7 696/8/7
f 698/4/13 699/19/13 700/8/13
f 702/4/9 703/19/9 704/8/9
f 704/4/6 693/19/6 694/8/6
f 706/4/7 707/19/7 708/8/7
f 710/4/13 711/19/13 712/8/13
f 714/4/7 715/19/7 716/8/7
f 718/4/13 719/19/13 720/8/13
f 722/4/7 723/19/7 724/8/7
f 726/4/13 727/19/13 728/8/13
f 730/4/8 731/19/8 732/8/8
f 734/4/7 735/19/7 736/8/7
f 738/4/8 739/19/8 740/8/8
f 740/4/1 741/19/1 742/8/1
f 742/4/9 743/19/9 744/8/9
f 744/4/6 733/19/6 734/8/6
f 746/4/8 747/19/8 748/8/8
f 748/4/1 749/19/1 750/8/1
f 750/4/9 751/19/9 752/8/9
f 754/4/8 755/19/8 756/8/8
f 756/4/1 757/19/1 758/8/1
f 758/4/9 759/19/9 760/8/9
f 762/4/13 763/19/13 764/8/13
f 766/4/8 767/19/8 768/8/8
f 768/4/1 769/19/1 770/8/1
f 770/4/9 771/19/9 772/8/9
f 774/4/7 775/19/7 776/8/7
f 778/4/13 779/19/13 780/8/13
f 782/4/9 783/19/9 784/8/9
f 784/4/6 773/19/6 774/8/6
f 786/4/7 787/19/7 788/8/7
f 790/4/13 791/19/13 792/8/13
f 794/4/7 795/19/7 796/8/7
f 798/4/13 799/19/13 800/8/13
f 802/4/7 803/19/7 804/8/7
f 806/4/13 807/19/13 808/8/13
f 810/4/8 811/19/8 812/8/8
f 814/10/1 815/12/1 816/13/1
f 820/12/3 817/10/3 818/11/3
f 818/13/4 813/7/4 814/52/4
f 819/14/5 813/13/5 817/52/5
f 816/14/6 818/13/6 814/52/6
f 822/10/1 823/12/1 824/13/1
f 828/12/3 825/10/3 826/11/3
f 826/13/4 821/7/4 822/52/4
f 827/14/5 821/13/5 825/52/5
f 824/14/6 826/13/6 822/52/6
f 830/17/11 831/14/11 832/20/11
f 832/17/4 833/14/4 834/20/4
f 834/17/12 835/14/12 836/20/12
f 838/17/11 839/14/11 840/20/11
f 840/17/4 841/14/4 842/20/4
f 842/17/12 843/14/12 844/20/12
f 846/14/14 847/17/14 848/18/14
f 850/17/11 851/14/11 852/20/11
f 852/17/4 853/14/4 854/20/4
f 854/17/12 855/14/12 856/20/12
f 858/17/10 859/14/10 860/20/10
f 862/17/11 863/14/11 864/20/11
f 864/17/4 865/14/4 866/20/4
f 866/17/12 867/14/12 868/20/12
f 868/17/6 857/14/6 858/20/6
f 870/17/11 871/14/11 872/20/11
f 872/17/4 873/14/4 874/20/4
f 874/17/12 875/14/12 876/20/12
f 878/17/11 879/14/11 880/20/11
f 880/17/4 881/14/4 882/20/4
f 882/17/12 883/14/12 884/20/12
f 886/14/14 887/17/14 888/18/14
f 890/17/11 891/14/11 892/20/11
f 892/17/4 893/14/4 894/20/4
f 894/17/12 895/14/12 896/20/12
f 898/16/8 899/9/8 900/19/8
f 900/16/1 901/9/1 902/19/1
f 902/16/9 903/9/9 904/19/9
f 906/16/8 907/9/8 908/19/8
f 908/16/1 909/9/1 910/19/1
f 910/16/9 911/9/9 912/19/9
f 914/16/8 915/9/8 916/19/8
f 916/16/1 917/9/1 918/19/1
f 918/16/9 919/9/9 920/19/9
f 922/16/7 923/9/7 924/19/7
f 926/16/13 927/9/13 928/19/13
f 930/16/9 931/9/9 932/19/9
f 932/16/6 921/9/6 922/19/6
f 934/16/7 935/9/7 936/19/7
f 938/16/13 939/9/13 940/19/13
f 942/16/13 943/9/13 944/19/13
f 946/16/8 947/9/8 948/19/8
f 950/16/7 951/9/7 952/19/7
f 954/16/13 955/9/13 956/19/13
f 958/16/7 959/9/7 960/19/7
f 962/16/13 963/9/13 964/19/13
f 966/21/1 967/23/1 968/24/1
f 968/24/2 971/25/2 972/34/2
f 972/21/3 969/23/3 970/24/3
f 971/13/5 965/27/5 969/28/5
f 968/27/6 970/13/6 966/26/6
f 974/29/1 975/31/1 976/35/1
f 976/32/2 979/34/2 980/36/2
f 980/31/3 977/29/3 978/30/3
f 982/36/1 983/37/1 984/38/1
f 984/36/2 987/10/2 988/124/2
f 988/37/3 985/36/3 986/11/3
f 987/26/5 981/28/5 985/13/5
f 984/27/6 986/13/6 982/26/6
f 990/39/1 991/34/1 992/36/1
f 992/39/2 995/34/2 996/36/2
f 996/39/3 993/34/3 994/36/3
f 994/39/4 989/34/4 990/36/4
f 998/39/1 999/34/1 1000/36/1
f 1000/39/2 1001/34/2 1002/36/2
f 1004/39/1 1005/34/1 1006/36/1
f 1006/39/2 1009/34/2 1010/36/2
f 1010/39/3 1007/34/3 1008/36/3
f 1008/39/4 1003/34/4 1004/36/4
f 1012/39/2 1015/34/2 1016/36/2
f 1016/39/3 1013/34/3 1014/36/3
f 1018/41/1 1019/43/1 1020/51/1
f 1020/44/2 1023/43/2 1024/51/2
f 1022/46/4 1017/42/4 1018/41/4
f 1023/43/5 1017/49/5 1021/42/5
f 1020/50/6 1022/41/6 1018/120/6
f 1026/41/1 1027/43/1 1028/51/1
f 1028/44/2 1031/43/2 1032/51/2
f 1030/46/4 1025/42/4 1026/41/4
f 1031/43/5 1025/49/5 1029/42/5
f 1028/50/6 1030/41/6 1026/120/6
f 1034/41/3 1035/43/3 1036/51/3
f 1036/44/4 1039/43/4 1040/51/4
f 1038/46/2 1033/42/2 1034/41/2
f 1039/43/5 1033/49/5 1037/42/5
f 1036/50/6 1038/41/6 1034/120/6
f 1042/41/3 1043/43/3 1044/51/3
f 1044/44/4 1047/43/4 1048/51/4
f 1046/46/2 1041/42/2 1042/41/2
f 1047/43/5 1041/49/5 1045/42/5
f 1044/50/6 1046/41/6 1042/120/6
f 1050/13/1 1051/7/1 1052/52/1
f 1052/13/2 1055/7/2 1056/52/2
f 1056/7/3 1053/13/3 1054/12/3
f 1054/13/4 1049/7/4 1050/52/4
f 1055/53/5 1049/55/5 1053/28/5
f 1052/53/6 1054/55/6 1050/28/6
f 1058/13/1 1059/7/1 1060/52/1
f 1060/13/2 1063/7/2 1064/52/2
f 1064/7/3 1061/13/3 1062/12/3
f 1062/13/4 1057/7/4 1058/52/4
f 1063/53/5 1057/55/5 1061/28/5
f 1060/53/6 1062/55/6 1058/28/6
f 1066/13/1 1067/7/1 1068/52/1
f 1068/13/2 1071/7/2 1072/52/2
f 1072/7/3 1069/13/3 1070/12/3
f 1070/13/4 1065/7/4 1066/52/4
f 1071/53/5 1065/55/5 1069/28/5
f 1068/53/6 1070/55/6 1066/28/6
f 1074/25/7 1075/56/7 1076/79/7
f 1078/25/8 1079/56/8 1080/79/8
f 1080/25/1 1081/56/1 1082/79/1
f 1082/25/9 1083/56/9 1084/79/9
f 1084/25/6 1073/56/6 1074/79/6
f 1086/25/8 1087/56/8 1088/79/8
f 1088/25/1 1089/56/1 1090/79/1
f 1090/25/9 1091/56/9 1092/79/9
f 1094/25/7 1095/56/7 1096/79/7
f 1098/25/13 1099/56/13 1100/79/13
f 1102/25/9 1103/56/9 1104/79/9
f 1104/25/6 1093/56/6 1094/79/6
f 1106/25/7 1107/56/7 1108/79/7
f 1110/25/13 1111/56/13 1112/79/13
f 1114/25/13 1115/56/13 1116/79/13
f 1118/25/8 1119/56/8 1120/79/8
f 1122/57/2 1123/26/2 1124/15/2
f 1123/58/14 1126/15/14 1124/57/14
f 1126/57/5 1127/26/5 1128/15/5
f 1128/57/11 1129/26/11 1130/15/11
f 1131/15/10 1122/58/10 1132/26/10
f 1134/57/2 1135/26/2 1136/15/2
f 1135/58/14 1138/15/14 1136/57/14
f 1139/15/10 1134/58/10 1140/26/10
f 1142/57/2 1143/26/2 1144/15/2
f 1143/58/14 1146/15/14 1144/57/14
f 1148/26/10 1141/57/10 1142/58/10
f 1150/57/2 1151/26/2 1152/15/2
f 1151/58/14 1154/15/14 1152/57/14
f 1156/26/12 1157/57/12 1158/58/12
f 1158/26/6 1159/57/6 1160/58/6
f 1159/15/10 1150/58/10 1160/26/10
f 1162/57/14 1163/26/14 1164/15/14
f 1164/57/5 1165/26/5 1166/15/5
f 1166/57/11 1167/26/11 1168/15/11
f 1168/57/4 1169/26/4 1170/15/4
f 1170/26/12 1171/57/12 1172/58/12
f 1174/57/11 1175/26/11 1176/15/11
f 1176/57/4 1177/26/4 1178/15/4
f 1178/26/12 1179/57/12 1180/58/12
f 1182/57/11 1183/26/11 1184/15/11
f 1184/57/4 1185/26/4 1186/15/4
f 1186/26/12 1187/57/12 1188/58/12
f 1190/57/11 1191/26/11 1192/15/11
f 1192/57/4 1193/26/4 1194/15/4
f 1194/26/12 1195/57/12 1196/58/12
f 1200/26/6 1201/57/6 1202/58/6
f 1201/15/10 1198/58/10 1202/26/10
f 1204/57/2 1205/26/2 1206/15/2
f 1206/57/14 1207/26/14 1208/15/14
f 1208/57/5 1209/26/5 1210/15/5
f 1209/58/11 1212/15/11 1210/57/11
f 1214/26/10 1203/57/10 1204/58/10
f 1216/57/2 1217/26/2 1218/15/2
f 1218/57/14 1219/26/14 1220/15/14
f 1222/26/10 1215/57/10 1216/58/10
f 1224/57/2 1225/26/2 1226/15/2
f 1226/57/14 1227/26/14 1228/15/14
f 1230/26/10 1223/57/10 1224/58/10
f 1232/57/2 1233/26/2 1234/15/2
f 1234/57/14 1235/26/14 1236/15/14
f 1238/26/12 1239/57/12 1240/58/12
f 1240/26/6 1241/57/6 1242/58/6
f 1242/26/10 1231/57/10 1232/58/10
f 1244/57/14 1245/26/14 1246/15/14
f 1246/57/5 1247/26/5 1248/15/5
f 1247/58/11 1250/15/11 1248/57/11
f 1250/57/4 1251/26/4 1252/15/4
f 1252/26/12 1253/57/12 1254/58/12
f 1256/57/11 1257/26/11 1258/15/11
f 1258/57/4 1259/26/4 1260/15/4
f 1260/26/12 1261/57/12 1262/58/12
f 1264/57/11 1265/26/11 1266/15/11
f 1266/57/4 1267/26/4 1268/15/4
f 1268/26/12 1269/57/12 1270/58/12
f 1272/57/11 1273/26/11 1274/15/11
f 1274/57/4 1275/26/4 1276/15/4
f 1276/26/12 1277/57/12 1278/58/12
f 1282/26/6 1283/57/6 1284/58/6
f 1284/26/10 1279/57/10 1280/58/10
f 1288/4/5 1285/19/5 1286/8/5
f 1292/4/5 1289/19/5 1290/8/5
f 1296/4/5 1293/19/5 1294/8/5
f 1300/4/5 1297/19/5 1298/8/5
f 1304/4/5 1301/19/5 1302/8/5
f 1308/4/5 1305/19/5 1306/8/5
f 1312/17/5 1309/14/5 1310/20/5
f 1316/17/5 1313/14/5 1314/20/5
f 1320/16/5 1317/9/5 1318/19/5
f 1324/16/5 1321/9/5 1322/19/5
f 1328/4/5 1325/19/5 1326/8/5
f 1332/4/5 1329/19/5 1330/8/5
f 1336/4/5 1333/19/5 1334/8/5
f 1340/4/5 1337/19/5 1338/8/5
f 1344/4/5 1341/19/5 1342/8/5
f 1348/4/5 1345/19/5 1346/8/5
f 1352/17/5 1349/14/5 1350/20/5
f 1356/17/5 1353/14/5 1354/20/5
f 1360/16/5 1357/9/5 1358/19/5
f 1364/16/5 1361/9/5 1362/19/5
f 1368/25/5 1365/56/5 1366/79/5
f 1372/25/5 1369/56/5 1370/79/5
f 1374/4/3 1375/19/3 1376/8/3
f 1378/4/3 1379/19/3 1380/8/3
f 1382/4/3 1383/19/3 1384/8/3
f 1386/4/3 1387/19/3 1388/8/3
f 1390/4/3 1391/19/3 1392/8/3
f 1394/4/3 1395/19/3 1396/8/3
f 1398/4/3 1399/19/3 1400/8/3
f 1402/4/3 1403/19/3 1404/8/3
f 1406/4/3 1407/19/3 1408/8/3
f 1410/4/3 1411/19/3 1412/8/3
f 1414/4/3 1415/19/3 1416/8/3
f 1418/4/3 1419/19/3 1420/8/3
f 1422/4/3 1423/19/3 1424/8/3
f 1426/4/3 1427/19/3 1428/8/3
f 1430/4/3 1431/19/3 1432/8/3
f 1434/4/3 1435/19/3 1436/8/3
f 1438/4/3 1439/19/3 1440/8/3
f 1442/4/3 1443/19/3 1444/8/3
f 1446/4/3 1447/19/3 1448/8/3
f 1450/4/3 1451/19/3 1452/8/3
f 1454/4/3 1455/19/3 1456/8/3
f 1458/4/3 1459/19/3 1460/8/3
f 1462/4/3 1463/19/3 1464/8/3
f 1466/4/3 1467/19/3 1468/8/3
f 1470/16/3 1471/9/3 1472/19/3
f 1474/16/3 1475/9/3 1476/19/3
f 1478/16/3 1479/9/3 1480/19/3
f 1482/16/3 1483/9/3 1484/19/3
f 1486/16/3 1487/9/3 1488/19/3
f 1490/16/3 1491/9/3 1492/19/3
f 1494/16/3 1495/9/3 1496/19/3
f 1498/16/3 1499/9/3 1500/19/3
f 1502/25/3 1503/56/3 1504/79/3
f 1506/25/3 1507/56/3 1508/79/3
f 1510/59/1 1511/61/1 1512/64/1
f 1512/62/2 1515/64/2 1516/125/2
f 1516/65/3 1513/64/3 1514/125/3
f 1514/65/4 1509/66/4 1510/67/4
f 1515/65/5 1509/68/5 1513/70/5
f 1512/69/6 1514/65/6 1510/126/6
f 1520/21/2 1523/23/2 1524/24/2
f 1522/67/4 1517/63/4 1518/62/4
f 1523/71/5 1517/73/5 1521/68/5
f 1520/74/6 1522/67/6 1518/62/6
f 1526/65/1 1527/64/1 1528/125/1
f 1528/67/2 1531/64/2 1532/125/2
f 1532/59/3 1529/61/3 1530/64/3
f 1530/67/4 1525/64/4 1526/125/4
f 1531/62/5 1525/1/5 1529/73/5
f 1528/1/6 1530/62/6 1526/76/6
f 1534/77/2 1535/79/2 1536/80/2
f 1536/77/15 1537/79/15 1538/80/15
f 1538/77/3 1539/79/3 1540/80/3
f 1540/79/16 1541/77/16 1542/78/16
f 1542/79/4 1543/77/4 1544/78/4
f 1544/77/17 1545/79/17 1546/80/17
f 1538/83/6 1534/127/6 1536/128/6
f 1534/127/6 1538/83/6 1548/129/6
f 1548/129/6 1538/83/6 1546/82/6
f 1546/82/6 1542/130/6 1544/131/6
f 1542/130/6 1546/82/6 1540/81/6
f 1546/77/1 1547/79/1 1548/80/1
f 1548/77/18 1533/79/18 1534/80/18
f 1547/86/5 1535/132/5 1533/133/5
f 1535/132/5 1547/86/5 1537/134/5
f 1537/134/5 1547/86/5 1539/85/5
f 1539/85/5 1543/135/5 1541/136/5
f 1543/135/5 1539/85/5 1545/84/5
f 1550/87/2 1551/78/2 1552/89/2
f 1552/78/15 1553/87/15 1554/88/15
f 1554/78/3 1555/87/3 1556/88/3
f 1556/78/16 1557/87/16 1558/88/16
f 1558/87/4 1559/78/4 1560/89/4
f 1560/78/17 1561/87/17 1562/88/17
f 1554/92/6 1550/137/6 1552/138/6
f 1550/137/6 1554/92/6 1564/139/6
f 1564/139/6 1554/92/6 1562/91/6
f 1562/91/6 1558/140/6 1560/141/6
f 1558/140/6 1562/91/6 1556/90/6
f 1562/87/1 1563/78/1 1564/89/1
f 1564/87/18 1549/78/18 1550/89/18
f 1566/87/2 1567/78/2 1568/89/2
f 1568/78/15 1569/87/15 1570/88/15
f 1570/78/3 1571/87/3 1572/88/3
f 1572/78/16 1573/87/16 1574/88/16
f 1574/87/4 1575/78/4 1576/89/4
f 1576/78/17 1577/87/17 1578/88/17
f 1570/92/6 1566/137/6 1568/138/6
f 1566/137/6 1570/92/6 1580/139/6
f 1580/139/6 1570/92/6 1578/91/6
f 1578/91/6 1574/140/6 1576/141/6
f 1574/140/6 1578/91/6 1572/90/6
f 1578/87/1 1579/78/1 1580/89/1
f 1580/87/18 1565/78/18 1566/89/18
f 1582/87/2 1583/78/2 1584/89/2
f 1584/78/15 1585/87/15 1586/88/15
f 1586/78/3 1587/87/3 1588/88/3
f 1588/78/16 1589/87/16 1590/88/16
f 1590/87/4 1591/78/4 1592/89/4
f 1592/78/17 1593/87/17 1594/88/17
f 1586/92/6 1582/137/6 1584/138/6
f 1582/137/6 1586/92/6 1596/139/6
f 1596/139/6 1586/92/6 1594/91/6
f 1594/91/6 1590/140/6 1592/141/6
f 1590/140/6 1594/91/6 1588/90/6
f 1594/87/1 1595/78/1 1596/89/1
f 1596/87/18 1581/78/18 1582/89/18
f 1598/87/2 1599/78/2 1600/89/2
f 1600/78/15 1601/87/15 1602/88/15
f 1602/78/3 1603/87/3 1604/88/3
f 1604/78/16 1605/87/16 1606/88/16
f 1606/87/4 1607/78/4 1608/89/4
f 1608/78/17 1609/87/17 1610/88/17
f 1602/92/6 1598/137/6 1600/138/6
f 1598/137/6 1602/92/6 1612/139/6
f 1612/139/6 1602/92/6 1610/91/6
f 1610/91/6 1606/140/6 1608/141/6
f 1606/140/6 1610/91/6 1604/90/6
f 1610/87/1 1611/78/1 1612/89/1
f 1612/87/18 1597/78/18 1598/89/18
f 1614/93/1 1615/94/1 1616/95/1
f 1620/94/3 1617/93/3 1618/89/3
f 1619/94/5 1613/93/5 1617/89/5
f 1616/94/6 1618/93/6 1614/89/6
f 1622/93/1 1623/94/1 1624/95/1
f 1628/94/3 1625/93/3 1626/89/3
f 1627/94/5 1621/93/5 1625/89/5
f 1624/94/6 1626/93/6 1622/89/6
f 1630/93/1 1631/94/1 1632/95/1
f 1636/94/3 1633/93/3 1634/89/3
f 1635/94/5 1629/93/5 1633/89/5
f 1632/94/6 1634/93/6 1630/89/6
f 1638/93/1 1639/94/1 1640/95/1
f 1644/94/3 1641/93/3 1642/89/3
f 1643/94/5 1637/93/5 1641/89/5
f 1640/94/6 1642/93/6 1638/89/6
f 1646/93/4 1647/94/4 1648/95/4
f 1652/94/2 1649/93/2 1650/89/2
f 1651/94/5 1645/93/5 1649/89/5
f 1648/94/6 1650/93/6 1646/89/6
f 1654/93/4 1655/94/4 1656/95/4
f 1660/94/2 1657/93/2 1658/89/2
f 1659/94/5 1653/93/5 1657/89/5
f 1656/94/6 1658/93/6 1654/89/6
f 1664/67/2 1667/63/2 1668/62/2
f 1666/21/4 1661/23/4 1662/24/4
f 1667/67/5 1661/74/5 1665/75/5
f 1664/73/6 1666/71/6 1662/72/6
f 1670/96/1 1671/97/1 1672/99/1
f 1672/96/2 1675/98/2 1676/100/2
f 1676/97/3 1673/96/3 1674/80/3
f 1674/98/4 1669/96/4 1670/80/4
f 1675/101/5 1669/103/5 1673/104/5
f 1672/103/6 1674/101/6 1670/102/6
f 1678/105/1 1679/107/1 1680/142/1
f 1680/100/2 1683/94/2 1684/143/2
f 1684/105/3 1681/107/3 1682/142/3
f 1682/100/4 1677/94/4 1678/143/4
f 1686/109/1 1687/77/1 1688/96/1
f 1688/109/2 1691/77/2 1692/96/2
f 1692/109/3 1689/77/3 1690/96/3
f 1690/109/4 1685/77/4 1686/96/4
f 1694/109/1 1695/77/1 1696/96/1
f 1696/109/2 1699/77/2 1700/96/2
f 1700/109/3 1697/77/3 1698/96/3
f 1698/109/4 1693/77/4 1694/96/4
f 1702/109/1 1703/77/1 1704/96/1
f 1704/109/2 1707/77/2 1708/96/2
f 1708/109/3 1705/77/3 1706/96/3
f 1706/109/4 1701/77/4 1702/96/4
f 1710/109/1 1711/77/1 1712/96/1
f 1712/109/2 1715/77/2 1716/96/2
f 1716/109/3 1713/77/3 1714/96/3
f 1714/109/4 1709/77/4 1710/96/4
f 1718/111/1 1719/80/1 1720/112/1
f 1720/112/2 1723/113/2 1724/144/2
f 1722/114/4 1717/98/4 1718/111/4
f 1726/116/1 1727/42/1 1728/41/1
f 1728/41/2 1731/117/2 1732/145/2
f 1730/118/4 1725/20/4 1726/116/4
f 1731/49/5 1725/20/5 1729/146/5
f 1728/41/6 1730/121/6 1726/116/6
f 1734/116/1 1735/42/1 1736/41/1
f 1736/41/2 1739/117/2 1740/145/2
f 1738/118/4 1733/20/4 1734/116/4
f 1739/49/5 1733/20/5 1737/146/5
f 1736/41/6 1738/121/6 1734/116/6
