# Blender 4.2.3 LTS
# www.blender.org
mtllib middletank.mtl
o Cylinder
v 0.500000 0.000000 0.000000
v 0.500000 1.000000 -0.000000
v 0.853553 0.000000 0.146447
v 0.853553 1.000000 0.146447
v 1.000000 0.000000 0.500000
v 1.000000 1.000000 0.500000
v 0.853553 0.000000 0.853553
v 0.853553 1.000000 0.853553
v 0.500000 0.000000 1.000000
v 0.500000 1.000000 1.000000
v 0.146447 0.000000 0.853553
v 0.146447 1.000000 0.853553
v 0.000000 0.000000 0.500000
v 0.000000 1.000000 0.500000
v 0.146447 0.000000 0.146447
v 0.146447 1.000000 0.146447
vn 0.3827 -0.0000 -0.9239
vn 0.9239 -0.0000 -0.3827
vn 0.9239 -0.0000 0.3827
vn 0.3827 -0.0000 0.9239
vn -0.3827 -0.0000 0.9239
vn -0.9239 -0.0000 0.3827
vn -0.0000 1.0000 -0.0000
vn -0.3827 -0.0000 -0.9239
vn -0.9239 -0.0000 -0.3827
vn -0.0000 -1.0000 -0.0000
vt 0.000000 0.250000
vt 0.343800 0.125000
vt 0.343800 0.250000
vt 0.000000 0.125000
vt 0.343800 0.000000
vt 0.000000 1.000000
vt 0.343800 0.875000
vt 0.343800 1.000000
vt 0.000000 0.875000
vt 0.343800 0.750000
vt 0.000000 0.750000
vt 0.343800 0.625000
vt 0.000000 0.625000
vt 0.343800 0.500000
vt 0.437500 0.312500
vt 0.562500 0.312500
vt 0.656200 0.531200
vt 0.000000 0.375000
vt 0.343800 0.375000
vt 0.000000 0.500000
vt 0.345300 0.090000
vt 0.566300 0.001600
vt 0.654700 0.222500
vt 0.000000 0.000000
vt 0.562500 0.625000
vt 0.343800 0.406200
vt 0.437500 0.625000
vt 0.343800 0.531200
vt 0.656200 0.406200
vt 0.566300 0.310900
vt 0.433700 0.310900
vt 0.345300 0.222500
vt 0.433700 0.001600
vt 0.654700 0.090000
s 0
usemtl Material
f 2/1/1 3/2/1 1/3/1
f 4/4/2 5/5/2 3/2/2
f 6/6/3 7/7/3 5/8/3
f 8/9/4 9/10/4 7/7/4
f 10/11/5 11/12/5 9/10/5
f 12/13/6 13/14/6 11/12/6
f 12/15/7 10/16/7 6/17/7
f 16/18/8 1/3/8 15/19/8
f 14/20/9 15/19/9 13/14/9
f 7/21/10 11/22/10 15/23/10
f 2/1/1 4/4/1 3/2/1
f 4/4/2 6/24/2 5/5/2
f 6/6/3 8/9/3 7/7/3
f 8/9/4 10/11/4 9/10/4
f 10/11/5 12/13/5 11/12/5
f 12/13/6 14/20/6 13/14/6
f 6/17/7 4/25/7 14/26/7
f 2/27/7 16/28/7 14/26/7
f 14/26/7 12/15/7 6/17/7
f 10/16/7 8/29/7 6/17/7
f 4/25/7 2/27/7 14/26/7
f 16/18/8 2/1/8 1/3/8
f 14/20/9 16/18/9 15/19/9
f 15/23/10 1/30/10 3/31/10
f 3/31/10 5/32/10 15/23/10
f 7/21/10 9/33/10 11/22/10
f 11/22/10 13/34/10 15/23/10
f 15/23/10 5/32/10 7/21/10
o Cylinder1
v 0.937500 0.000000 0.000000
v 0.937500 1.000000 -0.000000
v 0.981694 0.000000 0.018306
v 0.981694 1.000000 0.018306
v 1.000000 0.000000 0.062500
v 1.000000 1.000000 0.062500
v 0.981694 0.000000 0.106694
v 0.981694 1.000000 0.106694
v 0.937500 0.000000 0.125000
v 0.937500 1.000000 0.125000
v 0.893306 0.000000 0.106694
v 0.893306 1.000000 0.106694
v 0.875000 0.000000 0.062500
v 0.875000 1.000000 0.062500
v 0.893306 0.000000 0.018306
v 0.893306 1.000000 0.018306
vn 0.3827 -0.0000 -0.9239
vn 0.9239 -0.0000 -0.3827
vn 0.9239 -0.0000 0.3827
vn 0.3827 -0.0000 0.9239
vn -0.3827 -0.0000 0.9239
vn -0.9239 -0.0000 0.3827
vn -0.0000 1.0000 -0.0000
vn -0.3827 -0.0000 -0.9239
vn -0.9239 -0.0000 -0.3827
vn -0.0000 -1.0000 -0.0000
vt 0.975000 0.025000
vt 0.775000 0.225000
vt 0.775000 0.025000
vt 0.945700 0.054300
vt 0.804300 0.054300
vt 0.945700 0.195700
vt 0.804300 0.195700
vt 0.975000 0.225000
vt 0.875000 0.225000
vt 0.975000 0.125000
vt 0.875000 0.025000
vt 0.775000 0.125000
s 0
usemtl Material
f 18/35/11 19/36/11 17/37/11
f 20/35/12 21/36/12 19/37/12
f 22/35/13 23/36/13 21/37/13
f 24/35/14 25/36/14 23/37/14
f 26/35/15 27/36/15 25/37/15
f 28/35/16 29/36/16 27/37/16
f 30/38/17 26/39/17 18/40/17
f 32/35/18 17/36/18 31/37/18
f 30/35/19 31/36/19 29/37/19
f 23/38/20 27/39/20 31/41/20
f 18/35/11 20/42/11 19/36/11
f 20/35/12 22/42/12 21/36/12
f 22/35/13 24/42/13 23/36/13
f 24/35/14 26/42/14 25/36/14
f 26/35/15 28/42/15 27/36/15
f 28/35/16 30/42/16 29/36/16
f 22/41/17 20/43/17 18/40/17
f 18/40/17 32/44/17 30/38/17
f 30/38/17 28/45/17 26/39/17
f 26/39/17 24/46/17 22/41/17
f 22/41/17 18/40/17 26/39/17
f 32/35/18 18/42/18 17/36/18
f 30/35/19 32/42/19 31/36/19
f 31/41/20 17/43/20 19/40/20
f 19/40/20 21/44/20 23/38/20
f 23/38/20 25/45/20 27/39/20
f 27/39/20 29/46/20 31/41/20
f 31/41/20 19/40/20 23/38/20
o Cylinder2
v 0.062500 0.000000 0.000000
v 0.062500 1.000000 -0.000000
v 0.106694 0.000000 0.018306
v 0.106694 1.000000 0.018306
v 0.125000 0.000000 0.062500
v 0.125000 1.000000 0.062500
v 0.106694 0.000000 0.106694
v 0.106694 1.000000 0.106694
v 0.062500 0.000000 0.125000
v 0.062500 1.000000 0.125000
v 0.018306 0.000000 0.106694
v 0.018306 1.000000 0.106694
v 0.000000 0.000000 0.062500
v 0.000000 1.000000 0.062500
v 0.018306 0.000000 0.018306
v 0.018306 1.000000 0.018306
vn 0.3827 -0.0000 -0.9239
vn 0.9239 -0.0000 -0.3827
vn 0.9239 -0.0000 0.3827
vn 0.3827 -0.0000 0.9239
vn -0.3827 -0.0000 0.9239
vn -0.9239 -0.0000 0.3827
vn -0.0000 1.0000 -0.0000
vn -0.3827 -0.0000 -0.9239
vn -0.9239 -0.0000 -0.3827
vn -0.0000 -1.0000 -0.0000
vt 1.000000 0.000000
vt 0.800000 0.200000
vt 0.800000 0.000000
vt 0.970700 0.029300
vt 0.829300 0.029300
vt 0.829300 0.170700
vt 1.000000 0.200000
vt 0.900000 0.200000
vt 0.970700 0.170700
vt 1.000000 0.100000
vt 0.900000 0.000000
vt 0.800000 0.100000
s 0
usemtl Material
f 34/47/21 35/48/21 33/49/21
f 36/47/22 37/48/22 35/49/22
f 38/47/23 39/48/23 37/49/23
f 40/47/24 41/48/24 39/49/24
f 42/47/25 43/48/25 41/49/25
f 44/47/26 45/48/26 43/49/26
f 46/50/27 42/51/27 38/52/27
f 48/47/28 33/48/28 47/49/28
f 46/47/29 47/48/29 45/49/29
f 39/50/30 43/51/30 47/52/30
f 34/47/21 36/53/21 35/48/21
f 36/47/22 38/53/22 37/48/22
f 38/47/23 40/53/23 39/48/23
f 40/47/24 42/53/24 41/48/24
f 42/47/25 44/53/25 43/48/25
f 44/47/26 46/53/26 45/48/26
f 38/52/27 36/54/27 34/55/27
f 34/55/27 48/56/27 38/52/27
f 46/50/27 44/57/27 42/51/27
f 42/51/27 40/58/27 38/52/27
f 38/52/27 48/56/27 46/50/27
f 48/47/28 34/53/28 33/48/28
f 46/47/29 48/53/29 47/48/29
f 47/52/30 33/54/30 35/55/30
f 35/55/30 37/56/30 47/52/30
f 39/50/30 41/57/30 43/51/30
f 43/51/30 45/58/30 47/52/30
f 47/52/30 37/56/30 39/50/30
o Cylinder3
v 0.062500 0.000000 0.875000
v 0.062500 1.000000 0.875000
v 0.106694 0.000000 0.893306
v 0.106694 1.000000 0.893306
v 0.125000 0.000000 0.937500
v 0.125000 1.000000 0.937500
v 0.106694 0.000000 0.981694
v 0.106694 1.000000 0.981694
v 0.062500 0.000000 1.000000
v 0.062500 1.000000 1.000000
v 0.018306 0.000000 0.981694
v 0.018306 1.000000 0.981694
v 0.000000 0.000000 0.937500
v 0.000000 1.000000 0.937500
v 0.018306 0.000000 0.893306
v 0.018306 1.000000 0.893306
vn 0.3827 -0.0000 -0.9239
vn 0.9239 -0.0000 -0.3827
vn 0.9239 -0.0000 0.3827
vn 0.3827 -0.0000 0.9239
vn -0.3827 -0.0000 0.9239
vn -0.9239 -0.0000 0.3827
vn -0.0000 1.0000 -0.0000
vn -0.3827 -0.0000 -0.9239
vn -0.9239 -0.0000 -0.3827
vn -0.0000 -1.0000 -0.0000
vt 0.998100 0.002000
vt 0.798100 0.202000
vt 0.798100 0.002000
vt 0.968800 0.031300
vt 0.827400 0.031300
vt 0.968800 0.172700
vt 0.827400 0.172700
vt 0.998100 0.202000
vt 0.898100 0.202000
vt 0.998100 0.102000
vt 0.898100 0.002000
vt 0.798100 0.102000
s 0
usemtl Material
f 50/59/31 51/60/31 49/61/31
f 52/59/32 53/60/32 51/61/32
f 54/59/33 55/60/33 53/61/33
f 56/59/34 57/60/34 55/61/34
f 58/59/35 59/60/35 57/61/35
f 60/59/36 61/60/36 59/61/36
f 62/62/37 58/63/37 50/64/37
f 64/59/38 49/60/38 63/61/38
f 62/59/39 63/60/39 61/61/39
f 55/62/40 59/63/40 63/65/40
f 50/59/31 52/66/31 51/60/31
f 52/59/32 54/66/32 53/60/32
f 54/59/33 56/66/33 55/60/33
f 56/59/34 58/66/34 57/60/34
f 58/59/35 60/66/35 59/60/35
f 60/59/36 62/66/36 61/60/36
f 54/65/37 52/67/37 50/64/37
f 50/64/37 64/68/37 62/62/37
f 62/62/37 60/69/37 58/63/37
f 58/63/37 56/70/37 54/65/37
f 54/65/37 50/64/37 58/63/37
f 64/59/38 50/66/38 49/60/38
f 62/59/39 64/66/39 63/60/39
f 63/65/40 49/67/40 51/64/40
f 51/64/40 53/68/40 55/62/40
f 55/62/40 57/69/40 59/63/40
f 59/63/40 61/70/40 63/65/40
f 63/65/40 51/64/40 55/62/40
o Cylinder4
v 0.937500 0.000000 0.875000
v 0.937500 1.000000 0.875000
v 0.981694 0.000000 0.893306
v 0.981694 1.000000 0.893306
v 1.000000 0.000000 0.937500
v 1.000000 1.000000 0.937500
v 0.981694 0.000000 0.981694
v 0.981694 1.000000 0.981694
v 0.937500 0.000000 1.000000
v 0.937500 1.000000 1.000000
v 0.893306 0.000000 0.981694
v 0.893306 1.000000 0.981694
v 0.875000 0.000000 0.937500
v 0.875000 1.000000 0.937500
v 0.893306 0.000000 0.893306
v 0.893306 1.000000 0.893306
vn 0.3827 -0.0000 -0.9239
vn 0.9239 -0.0000 -0.3827
vn 0.9239 -0.0000 0.3827
vn 0.3827 -0.0000 0.9239
vn -0.3827 -0.0000 0.9239
vn -0.9239 -0.0000 0.3827
vn -0.0000 1.0000 -0.0000
vn -0.3827 -0.0000 -0.9239
vn -0.9239 -0.0000 -0.3827
vn -0.0000 -1.0000 -0.0000
vt 0.895900 0.244500
vt 0.886300 0.044500
vt 0.895900 0.044500
vt 0.886300 0.244500
vt 0.876700 0.044500
vt 0.876700 0.244500
vt 0.867200 0.044500
vt 0.867200 0.244500
vt 0.857600 0.044500
vt 0.934100 0.244500
vt 0.924500 0.044500
vt 0.934100 0.044500
vt 0.924500 0.244500
vt 0.915000 0.044500
vt 0.934100 0.074400
vt 0.957200 0.074400
vt 0.957200 0.084000
vt 0.905400 0.244500
vt 0.905400 0.044500
vt 0.915000 0.244500
vt 0.950500 0.067600
vt 0.934100 0.060900
vt 0.940900 0.044500
vt 0.857600 0.244500
vt 0.950500 0.090800
vt 0.940900 0.090800
vt 0.934100 0.084000
vt 0.940900 0.067700
vt 0.950500 0.067700
vt 0.950500 0.044500
vt 0.957200 0.051300
vt 0.957200 0.060900
vt 0.940900 0.067600
vt 0.934100 0.051300
s 0
usemtl Material
f 66/71/41 67/72/41 65/73/41
f 68/74/42 69/75/42 67/72/42
f 70/76/43 71/77/43 69/75/43
f 72/78/44 73/79/44 71/77/44
f 74/80/45 75/81/45 73/82/45
f 76/83/46 77/84/46 75/81/46
f 78/85/47 72/86/47 70/87/47
f 80/88/48 65/73/48 79/89/48
f 78/90/49 79/89/49 77/84/49
f 71/91/50 75/92/50 79/93/50
f 66/71/41 68/74/41 67/72/41
f 68/74/42 70/76/42 69/75/42
f 70/76/43 72/78/43 71/77/43
f 72/78/44 74/94/44 73/79/44
f 74/80/45 76/83/45 75/81/45
f 76/83/46 78/90/46 77/84/46
f 70/87/47 68/95/47 66/96/47
f 66/96/47 80/97/47 70/87/47
f 78/85/47 76/98/47 74/99/47
f 74/99/47 72/86/47 78/85/47
f 70/87/47 80/97/47 78/85/47
f 80/88/48 66/71/48 65/73/48
f 78/90/49 80/88/49 79/89/49
f 79/93/50 65/100/50 67/101/50
f 67/101/50 69/102/50 71/91/50
f 71/91/50 73/103/50 75/92/50
f 75/92/50 77/104/50 79/93/50
f 79/93/50 67/101/50 71/91/50
