# Blender 4.2.3 LTS
# www.blender.org
mtllib observatory.mtl
o Axis
v 2.767980 2.120000 -1.059517
v 2.642989 2.362487 -1.060957
v 2.606995 2.362487 2.063837
v 2.393005 2.362487 -1.063836
v 2.357011 2.362487 2.060957
v 2.268013 2.120000 -1.065276
v 2.232019 2.120000 2.059518
v 2.393005 1.877513 -1.063836
v 2.357011 1.877513 2.060957
v 2.642989 1.877513 -1.060957
v 2.731986 2.120000 2.065277
v 2.606995 1.877513 2.063837
vn 0.8888 0.4582 0.0102
vn -0.0000 1.0000 -0.0000
vn -0.8888 0.4582 -0.0102
vn -0.8888 -0.4582 -0.0102
vn 0.0115 -0.0000 -0.9999
vn 0.8888 -0.4582 0.0102
vn -0.0000 -1.0000 -0.0000
vn -0.0115 -0.0000 0.9999
vt 1.000000 0.453125
vt 1.000000 0.492188
vt 0.921875 0.492188
vt 0.960938 0.492188
vt 0.992188 0.484375
vt 0.929688 0.464844
vt 0.992188 0.464844
vt 0.960938 0.453125
vt 0.921875 0.453125
vt 0.929688 0.484375
s 1
usemtl None
f 1/1/1 2/2/1 3/3/1
f 2/1/2 4/2/2 5/3/2
f 4/1/3 6/2/3 7/3/3
f 6/1/4 8/2/4 9/3/4
f 2/4/5 1/5/5 6/6/5
f 10/1/6 1/2/6 11/3/6
f 8/1/7 10/2/7 12/3/7
f 11/4/8 5/7/8 7/8/8
f 11/9/1 1/1/1 3/3/1
f 3/9/2 2/1/2 5/3/2
f 5/9/3 4/1/3 7/3/3
f 7/9/4 6/1/4 9/3/4
f 6/6/5 4/10/5 2/4/5
f 10/7/5 8/8/5 6/6/5
f 6/6/5 1/5/5 10/7/5
f 12/9/6 10/1/6 11/3/6
f 9/9/7 8/1/7 12/3/7
f 9/6/8 12/10/8 11/4/8
f 11/4/8 7/8/8 9/6/8
f 11/4/8 3/5/8 5/7/8
o Base
v 0.000000 -1.005001 0.500000
v 0.732232 -1.005000 2.267767
v 0.000000 0.745000 0.500000
v 5.000000 -1.005000 0.500000
v 2.500000 -1.005000 3.000000
v 4.267766 -1.005000 -1.267767
v 4.267767 0.745000 -1.267767
v 5.000000 0.745000 0.500000
v 4.267767 -1.005000 2.267767
v 4.267767 0.745000 2.267767
v 0.732233 0.745000 2.267767
v 2.500000 0.745000 -2.000000
v 0.732233 0.745000 -1.267767
v 2.500000 -1.005000 -2.000000
v 2.500000 0.745000 3.000000
v 0.732233 -1.005000 -1.267767
vn -0.9239 -0.0000 0.3827
vn -0.0000 -1.0000 -0.0000
vn 0.9239 -0.0000 -0.3827
vn 0.9239 -0.0000 0.3827
vn 0.3827 -0.0000 -0.9239
vn -0.3827 -0.0000 -0.9239
vn -0.3827 -0.0000 0.9239
vn 0.3827 -0.0000 0.9239
vn -0.9239 -0.0000 -0.3827
vn -0.0000 1.0000 -0.0000
vt 0.000000 0.605469
vt 0.234375 0.605469
vt 0.000000 0.492188
vt 0.164062 0.718750
vt 0.000000 0.917969
vt 0.398438 1.000000
vt 0.234375 0.492188
vt 0.562500 0.800781
vt 0.398438 0.718750
vt 0.562500 0.917969
vt 0.164062 1.000000
vt 0.000000 0.800781
s 1
usemtl None
f 13/11/9 14/12/9 15/13/9
f 16/14/10 17/15/10 13/16/10
f 18/12/11 19/17/11 20/13/11
f 16/12/12 20/17/12 21/11/12
f 21/11/12 20/17/12 22/13/12
f 16/11/11 18/12/11 20/13/11
f 14/12/9 23/17/9 15/13/9
f 24/17/13 19/13/13 18/11/13
f 25/17/14 24/13/14 26/11/14
f 27/17/15 23/13/15 14/11/15
f 22/17/16 27/13/16 17/11/16
f 28/11/17 15/17/17 25/13/17
f 13/12/17 15/17/17 28/11/17
f 19/16/18 25/18/18 15/19/18
f 13/16/10 18/19/10 16/14/10
f 13/16/10 28/20/10 26/18/10
f 17/15/10 14/21/10 13/16/10
f 16/14/10 21/22/10 17/15/10
f 13/16/10 26/18/10 18/19/10
f 26/12/13 24/17/13 18/11/13
f 28/12/14 25/17/14 26/11/14
f 17/12/15 27/17/15 14/11/15
f 21/12/16 22/17/16 17/11/16
f 22/15/18 20/21/18 19/16/18
f 23/14/18 27/22/18 22/15/18
f 19/16/18 15/19/18 23/14/18
f 19/16/18 24/20/18 25/18/18
f 23/14/18 22/15/18 19/16/18
o CasingXMinus
v 2.500000 0.745000 -2.861711
v 2.500000 2.495000 -2.861711
v 4.267767 2.495000 -2.129478
v 0.732233 0.745000 -2.129478
v 0.732233 2.495000 -2.129478
v 2.500000 3.620000 -1.611711
v 3.383883 3.620000 -1.245594
v 2.500000 3.995000 -0.361711
v 3.750000 3.620000 -0.361711
v 1.250000 3.620000 -0.361711
v 1.616116 3.620000 -1.245594
v 5.000000 2.495000 -0.361711
v 0.000000 0.745000 -0.361711
v 0.000000 2.495000 -0.361711
v 4.267767 0.745000 -2.129478
v 5.000000 0.745000 -0.361711
vn 0.3827 -0.0000 -0.9239
vn -0.3827 -0.0000 -0.9239
vn 0.2670 0.7163 -0.6447
vn 0.2853 0.9511 -0.1182
vn -0.2853 0.9511 -0.1182
vn -0.1182 0.9511 -0.2853
vn 0.1182 0.9511 -0.2853
vn -0.2670 0.7163 -0.6447
vn -0.6447 0.7163 -0.2670
vn 0.6447 0.7163 -0.2670
vn -0.9239 -0.0000 -0.3827
vn -0.0000 -1.0000 -0.0000
vn -0.0000 -0.0000 1.0000
vn 0.9239 -0.0000 -0.3827
vt 0.765625 0.601562
vt 0.765625 0.492188
vt 1.000000 0.492188
vt 0.453125 0.597656
vt 0.335938 0.597656
vt 0.281250 0.492188
vt 0.398438 0.597656
vt 0.281250 0.679688
vt 0.281250 0.597656
vt 0.414062 0.597656
vt 0.359375 0.679688
vt 0.296875 0.597656
vt 0.351562 0.679688
vt 0.515625 0.492188
vt 0.531250 0.597656
vt 0.296875 0.492188
vt 0.531250 0.492188
vt 0.531250 0.601562
vt 0.562500 0.917969
vt 0.164062 0.718750
vt 0.562500 0.800781
vt 0.968750 0.199219
vt 0.906250 0.199219
vt 0.875000 0.164062
vt 1.000000 0.601562
vt 0.398438 1.000000
vt 0.398438 0.718750
vt 1.000000 0.164062
vt 1.000000 0.183594
vt 0.875000 0.183594
vt 0.937500 0.203125
s 1
usemtl None
f 29/23/19 30/24/19 31/25/19
f 32/23/20 33/24/20 30/25/20
f 34/26/21 35/27/21 31/28/21
f 35/29/22 36/30/22 37/31/22
f 38/31/23 36/30/23 39/29/23
f 39/32/24 36/33/24 34/34/24
f 34/34/25 36/35/25 35/32/25
f 33/36/26 39/26/26 34/27/26
f 38/37/27 39/32/27 33/38/27
f 35/32/28 37/37/28 40/39/28
f 33/24/29 41/40/29 42/39/29
f 32/23/29 41/40/29 33/24/29
f 43/41/30 41/42/30 29/43/30
f 37/44/31 38/45/31 41/46/31
f 40/39/32 44/40/32 43/23/32
f 43/47/19 29/23/19 31/25/19
f 29/47/20 32/23/20 30/25/20
f 30/36/21 34/26/21 31/28/21
f 30/28/26 33/36/26 34/27/26
f 42/39/27 38/37/27 33/38/27
f 31/38/28 35/32/28 40/39/28
f 41/42/30 43/41/30 44/48/30
f 41/42/30 32/49/30 29/43/30
f 37/44/31 44/50/31 40/51/31
f 38/45/31 42/52/31 41/46/31
f 37/44/31 36/53/31 38/45/31
f 41/46/31 44/50/31 37/44/31
f 31/24/32 40/39/32 43/23/32
o CasingXPlus
v 4.267767 2.495000 3.038084
v 2.500000 2.495000 3.770317
v 2.500000 0.745000 3.770317
v 0.732233 2.495000 3.038084
v 0.732233 0.745000 3.038084
v 3.383883 3.620000 2.154201
v 2.500000 3.620000 2.520317
v 3.750000 3.620000 1.270316
v 2.500000 3.995000 1.270316
v 1.250000 3.620000 1.270316
v 1.616116 3.620000 2.154201
v 5.000000 2.495000 1.270317
v 0.000000 2.495000 1.270317
v 0.000000 0.745000 1.270317
v 5.000000 0.745000 1.270317
v 4.267767 0.745000 3.038084
vn 0.3827 -0.0000 0.9239
vn -0.3827 -0.0000 0.9239
vn 0.2670 0.7163 0.6447
vn 0.2853 0.9511 0.1182
vn -0.2853 0.9511 0.1182
vn -0.1182 0.9511 0.2853
vn 0.1182 0.9511 0.2853
vn -0.2670 0.7163 0.6447
vn -0.6447 0.7163 0.2670
vn 0.6447 0.7163 0.2670
vn -0.9239 -0.0000 0.3827
vn -0.0000 -1.0000 -0.0000
vn -0.0000 -0.0000 -1.0000
vn 0.9239 -0.0000 0.3827
vt 1.000000 0.492188
vt 0.765625 0.492188
vt 0.765625 0.601562
vt 0.515625 0.492188
vt 0.453125 0.597656
vt 0.335938 0.597656
vt 0.398438 0.597656
vt 0.281250 0.597656
vt 0.281250 0.679688
vt 0.414062 0.597656
vt 0.296875 0.597656
vt 0.351562 0.679688
vt 0.359375 0.679688
vt 0.281250 0.492188
vt 0.296875 0.492188
vt 0.531250 0.597656
vt 0.531250 0.492188
vt 0.531250 0.601562
vt 0.398438 1.000000
vt 0.164062 1.000000
vt 0.000000 0.917969
vt 0.968750 0.199219
vt 0.875000 0.164062
vt 0.906250 0.199219
vt 1.000000 0.601562
vt 0.000000 0.800781
vt 0.164062 0.718750
vt 1.000000 0.164062
vt 1.000000 0.183594
vt 0.937500 0.203125
vt 0.875000 0.183594
s 1
usemtl None
f 45/54/33 46/55/33 47/56/33
f 46/54/34 48/55/34 49/56/34
f 45/57/35 50/58/35 51/59/35
f 50/60/36 52/61/36 53/62/36
f 54/61/37 55/60/37 53/62/37
f 55/63/38 51/64/38 53/65/38
f 51/63/39 50/64/39 53/66/39
f 48/67/40 46/57/40 51/58/40
f 48/68/41 55/63/41 54/69/41
f 56/70/42 52/69/42 50/63/42
f 48/55/43 57/70/43 58/71/43
f 49/56/43 48/55/43 58/71/43
f 59/72/44 60/73/44 47/74/44
f 52/75/45 58/76/45 54/77/45
f 60/56/46 59/71/46 56/70/46
f 60/78/33 45/54/33 47/56/33
f 47/78/34 46/54/34 49/56/34
f 46/67/35 45/57/35 51/59/35
f 55/59/40 48/67/40 51/58/40
f 57/70/41 48/68/41 54/69/41
f 45/68/42 56/70/42 50/63/42
f 49/79/44 58/80/44 59/72/44
f 59/72/44 47/74/44 49/79/44
f 59/81/45 52/75/45 56/82/45
f 52/75/45 54/77/45 53/83/45
f 54/77/45 58/76/45 57/84/45
f 58/76/45 52/75/45 59/81/45
f 45/55/46 60/56/46 56/70/46
o Scope
v 1.405280 3.598766 0.487390
v 1.308667 3.440233 0.928249
v 4.339555 1.690233 0.963161
v 1.085603 3.057500 1.108749
v 0.866754 2.674767 0.923159
v 3.897644 0.924767 0.958071
v 0.780322 2.516234 0.480191
v 3.811211 0.766234 0.515104
v 0.876935 2.674767 0.039333
v 3.907824 0.924767 0.074245
v 1.100000 3.057500 -0.141167
v 4.130889 1.307500 -0.106255
v 1.279686 3.373924 0.120545
v 1.387931 3.311424 0.121793
v 1.459389 3.442491 0.488014
v 1.318848 3.440233 0.044423
v 4.436170 1.848766 0.522303
v 4.349736 1.690233 0.079336
v 4.319920 1.639749 0.137291
v 4.394951 1.777370 0.521828
v 4.503198 1.714870 0.523075
v 1.351143 3.504991 0.486767
v 1.271269 3.373924 0.851246
v 1.086849 3.057500 1.000475
v 0.905918 2.741077 0.847037
v 0.834460 2.610010 0.480815
v 0.914334 2.741077 0.116337
v 1.098753 3.057500 -0.032892
v 1.379514 3.311424 0.852493
v 1.206999 2.995000 -0.031644
v 1.022580 2.678576 0.117584
v 0.942706 2.547510 0.482062
v 1.014164 2.678576 0.848285
v 1.195096 2.995000 1.001722
v 4.311082 1.639749 0.904536
v 4.116491 1.307500 1.143662
v 3.927460 0.975252 0.900116
v 4.117440 1.307500 1.061227
v 3.936298 0.975252 0.132872
v 3.852428 0.837630 0.515579
v 4.129939 1.307500 -0.023820
v 4.350611 1.450566 0.521317
v 4.458858 1.388066 0.522564
v 4.426032 1.327857 0.354331
v 4.428166 1.577248 0.138537
v 4.238185 1.245000 -0.022573
v 4.044544 0.912752 0.134119
v 3.960674 0.775130 0.516825
v 4.035706 0.912752 0.901363
v 4.225687 1.245000 1.062474
v 4.419328 1.577248 0.905782
v 4.313919 1.390357 0.688750
v 4.229202 1.245000 0.757301
v 4.113260 1.039434 0.518583
v 4.146087 1.099643 0.686816
v 4.149952 1.099643 0.351151
v 4.234670 1.245000 0.282598
v 4.317785 1.390357 0.353084
v 4.337448 1.182500 0.758549
v 4.221505 0.976934 0.519830
v 4.342916 1.182500 0.283846
v 4.258199 1.037143 0.352397
v 4.254332 1.037143 0.688063
v 4.422165 1.327857 0.689996
vn 0.4575 0.8001 0.3880
vn 0.1807 0.3314 0.9260
vn -0.2020 -0.3314 0.9216
vn -0.4663 -0.8001 0.3773
vn -0.4575 -0.8001 -0.3880
vn -0.1807 -0.3314 -0.9260
vn 0.4663 0.8001 -0.3773
vn 0.2020 0.3314 -0.9216
vn -0.8660 0.5000 -0.0100
vn 0.8660 -0.5000 0.0100
vt 0.781250 0.359375
vt 0.687500 0.359375
vt 0.687500 0.003906
vt 0.593750 0.359375
vt 0.492188 0.359375
vt 0.492188 0.003906
vt 0.398438 0.359375
vt 0.398438 0.003906
vt 0.296875 0.359375
vt 0.296875 0.003906
vt 0.203125 0.359375
vt 0.203125 0.003906
vt 0.070312 0.484375
vt 0.085938 0.468750
vt 0.156250 0.468750
vt 0.101562 0.359375
vt 0.007812 0.359375
vt 0.007812 0.003906
vt 0.101562 0.003906
vt 0.328125 0.492188
vt 0.242188 0.492188
vt 0.242188 0.476562
vt 0.398438 0.468750
vt 0.460938 0.437500
vt 0.476562 0.441406
vt 0.460938 0.398438
vt 0.476562 0.394531
vt 0.398438 0.371094
vt 0.406250 0.359375
vt 0.320312 0.371094
vt 0.312500 0.359375
vt 0.265625 0.398438
vt 0.242188 0.394531
vt 0.265625 0.437500
vt 0.242188 0.441406
vt 0.320312 0.468750
vt 0.312500 0.476562
vt 0.406250 0.476562
vt 0.937500 0.261719
vt 0.804688 0.234375
vt 0.804688 0.195312
vt 0.007812 0.445312
vt 0.031250 0.441406
vt 0.007812 0.394531
vt 0.039062 0.402344
vt 0.078125 0.359375
vt 0.101562 0.375000
vt 0.179688 0.359375
vt 0.171875 0.375000
vt 0.242188 0.398438
vt 0.218750 0.402344
vt 0.242188 0.445312
vt 0.218750 0.441406
vt 0.171875 0.484375
vt 0.640625 0.367188
vt 0.640625 0.359375
vt 0.710938 0.394531
vt 0.695312 0.398438
vt 0.710938 0.441406
vt 0.640625 0.468750
vt 0.695312 0.441406
vt 0.640625 0.476562
vt 0.546875 0.476562
vt 0.492188 0.441406
vt 0.554688 0.468750
vt 0.492188 0.398438
vt 0.546875 0.359375
vt 0.554688 0.367188
vt 0.242188 0.488281
vt 0.281250 0.476562
vt 0.414062 0.492188
vt 0.328125 0.476562
vt 0.414062 0.476562
vt 0.500000 0.476562
vt 0.500000 0.492188
vt 0.578125 0.476562
vt 0.578125 0.492188
vt 0.664062 0.476562
vt 0.750000 0.492188
vt 0.664062 0.492188
vt 0.750000 0.476562
vt 0.835938 0.476562
vt 0.835938 0.492188
vt 0.921875 0.476562
vt 0.859375 0.402344
vt 0.867188 0.390625
vt 0.906250 0.410156
vt 0.882812 0.414062
vt 0.906250 0.437500
vt 0.882812 0.433594
vt 0.867188 0.457031
vt 0.820312 0.445312
vt 0.859375 0.445312
vt 0.812500 0.457031
vt 0.773438 0.437500
vt 0.796875 0.433594
vt 0.773438 0.410156
vt 0.796875 0.414062
vt 0.812500 0.390625
vt 0.820312 0.402344
vt 0.906250 0.300781
vt 0.937500 0.335938
vt 0.867188 0.351562
vt 0.281250 0.488281
vt 0.320312 0.476562
vt 0.351562 0.488281
vt 0.320312 0.488281
vt 0.351562 0.476562
vt 0.390625 0.476562
vt 0.429688 0.488281
vt 0.390625 0.488281
vt 0.429688 0.476562
vt 0.460938 0.476562
vt 0.500000 0.488281
vt 0.460938 0.488281
vt 0.539062 0.488281
vt 0.781250 0.003906
vt 0.593750 0.003906
vt 0.992188 0.195312
vt 0.992188 0.234375
vt 0.937500 0.167969
vt 0.859375 0.167969
vt 0.859375 0.261719
vt 0.921875 0.492188
vt 0.835938 0.316406
vt 0.867188 0.300781
vt 0.835938 0.335938
vt 0.906250 0.351562
vt 0.937500 0.316406
vt 0.539062 0.476562
s 1
usemtl None
f 61/85/47 62/86/47 63/87/47
f 63/87/48 62/86/48 64/88/48
f 64/88/49 65/89/49 66/90/49
f 65/89/50 67/91/50 68/92/50
f 67/91/51 69/93/51 70/94/51
f 69/93/52 71/95/52 72/96/52
f 73/97/50 74/98/50 75/99/50
f 76/100/53 61/101/53 77/102/53
f 71/95/54 76/100/54 78/103/54
f 79/104/53 80/105/53 81/106/53
f 82/107/55 83/108/55 62/109/55
f 84/110/55 64/111/55 62/109/55
f 84/110/55 85/112/55 65/113/55
f 86/114/55 67/115/55 65/113/55
f 86/114/55 87/116/55 69/117/55
f 87/116/55 88/118/55 71/119/55
f 88/118/55 73/120/55 76/121/55
f 82/107/55 61/122/55 76/121/55
f 89/123/55 74/124/55 90/125/55
f 88/126/49 90/127/49 74/98/49
f 87/128/48 91/129/48 90/127/48
f 86/130/47 92/131/47 91/129/47
f 85/132/53 93/133/53 92/131/53
f 85/132/54 84/134/54 94/135/54
f 84/134/52 83/136/52 89/137/52
f 82/138/51 75/99/51 89/137/51
f 80/139/56 77/140/56 63/141/56
f 95/142/56 63/141/56 96/143/56
f 97/144/56 98/145/56 96/143/56
f 97/144/56 66/146/56 68/147/56
f 99/148/56 100/149/56 68/147/56
f 99/148/56 70/109/56 72/111/56
f 101/150/56 72/111/56 78/151/56
f 79/152/56 78/151/56 77/140/56
f 102/153/53 103/106/53 104/154/53
f 101/155/54 79/104/54 105/156/54
f 101/155/52 106/157/52 107/158/52
f 99/159/51 107/158/51 108/160/51
f 100/161/50 108/160/50 109/162/50
f 98/163/49 97/164/49 109/162/49
f 98/163/48 110/165/48 111/166/48
f 95/167/47 111/166/47 81/168/47
f 102/169/56 81/170/56 111/171/56
f 112/172/56 111/171/56 110/173/56
f 113/174/56 110/173/56 109/175/56
f 114/176/56 115/177/56 109/175/56
f 114/176/56 108/178/56 107/179/56
f 116/180/56 107/179/56 106/181/56
f 117/182/56 106/181/56 105/183/56
f 102/169/56 118/184/56 105/183/56
f 103/185/56 119/186/56 120/187/56
f 118/188/54 104/154/54 121/189/54
f 116/190/52 117/191/52 121/189/52
f 116/190/51 122/192/51 120/193/51
f 115/194/50 114/195/50 120/193/50
f 115/194/49 123/196/49 119/197/49
f 112/198/48 113/199/48 119/197/48
f 102/200/47 112/198/47 124/158/47
f 77/201/47 61/85/47 63/87/47
f 96/202/48 63/87/48 64/88/48
f 96/202/49 64/88/49 66/90/49
f 66/90/50 65/89/50 68/92/50
f 68/92/51 67/91/51 70/94/51
f 70/94/52 69/93/52 72/96/52
f 82/138/50 73/97/50 75/99/50
f 78/103/53 76/100/53 77/102/53
f 72/96/54 71/95/54 78/103/54
f 105/156/53 79/104/53 81/106/53
f 61/122/55 82/107/55 62/109/55
f 83/108/55 84/110/55 62/109/55
f 64/111/55 84/110/55 65/113/55
f 85/112/55 86/114/55 65/113/55
f 67/115/55 86/114/55 69/117/55
f 69/117/55 87/116/55 71/119/55
f 71/119/55 88/118/55 76/121/55
f 73/120/55 82/107/55 76/121/55
f 93/203/55 94/204/55 89/123/55
f 89/123/55 92/205/55 93/203/55
f 89/123/55 90/125/55 91/206/55
f 89/123/55 75/207/55 74/124/55
f 91/206/55 92/205/55 89/123/55
f 73/97/49 88/126/49 74/98/49
f 88/126/48 87/128/48 90/127/48
f 87/128/47 86/130/47 91/129/47
f 86/130/53 85/132/53 92/131/53
f 93/133/54 85/132/54 94/135/54
f 94/135/52 84/134/52 89/137/52
f 83/136/51 82/138/51 89/137/51
f 95/142/56 80/139/56 63/141/56
f 98/145/56 95/142/56 96/143/56
f 66/146/56 97/144/56 96/143/56
f 100/149/56 97/144/56 68/147/56
f 70/109/56 99/148/56 68/147/56
f 101/150/56 99/148/56 72/111/56
f 79/152/56 101/150/56 78/151/56
f 80/139/56 79/152/56 77/140/56
f 118/188/53 102/153/53 104/154/53
f 106/157/54 101/155/54 105/156/54
f 99/159/52 101/155/52 107/158/52
f 100/161/51 99/159/51 108/160/51
f 97/164/50 100/161/50 109/162/50
f 110/165/49 98/163/49 109/162/49
f 95/167/48 98/163/48 111/166/48
f 80/208/47 95/167/47 81/168/47
f 112/172/56 102/169/56 111/171/56
f 113/174/56 112/172/56 110/173/56
f 115/177/56 113/174/56 109/175/56
f 108/178/56 114/176/56 109/175/56
f 116/180/56 114/176/56 107/179/56
f 117/182/56 116/180/56 106/181/56
f 118/184/56 117/182/56 105/183/56
f 81/170/56 102/169/56 105/183/56
f 121/209/56 104/210/56 103/185/56
f 120/187/56 122/211/56 121/209/56
f 119/186/56 123/212/56 120/187/56
f 103/185/56 124/213/56 119/186/56
f 120/187/56 121/209/56 103/185/56
f 117/191/54 118/188/54 121/189/54
f 122/192/52 116/190/52 121/189/52
f 114/195/51 116/190/51 120/193/51
f 123/196/50 115/194/50 120/193/50
f 113/199/49 115/194/49 119/197/49
f 124/158/48 112/198/48 119/197/48
f 103/214/47 102/200/47 124/158/47
