# Blender 4.2.3 LTS
# www.blender.org
mtllib observatory_base.mtl
o Base
v 0.000000 -1.005001 0.500000
v 0.732232 -1.005000 2.267767
v 0.000000 0.745000 0.500000
v 5.000000 -1.005000 0.500000
v 2.500000 -1.005000 3.000000
v 4.267766 -1.005000 -1.267767
v 4.267767 0.745000 -1.267767
v 5.000000 0.745000 0.500000
v 4.267767 -1.005000 2.267767
v 4.267767 0.745000 2.267767
v 0.732233 0.745000 2.267767
v 2.500000 0.745000 -2.000000
v 0.732233 0.745000 -1.267767
v 2.500000 -1.005000 -2.000000
v 2.500000 0.745000 3.000000
v 0.732233 -1.005000 -1.267767
vn -0.9239 -0.0000 0.3827
vn -0.0000 -1.0000 -0.0000
vn 0.9239 -0.0000 -0.3827
vn 0.9239 -0.0000 0.3827
vn 0.3827 -0.0000 -0.9239
vn -0.3827 -0.0000 -0.9239
vn -0.3827 -0.0000 0.9239
vn 0.3827 -0.0000 0.9239
vn -0.9239 -0.0000 -0.3827
vn -0.0000 1.0000 -0.0000
vt 0.000000 0.605469
vt 0.234375 0.605469
vt 0.000000 0.492188
vt 0.164062 0.718750
vt 0.000000 0.917969
vt 0.398438 1.000000
vt 0.234375 0.492188
vt 0.562500 0.800781
vt 0.398438 0.718750
vt 0.562500 0.917969
vt 0.164062 1.000000
vt 0.000000 0.800781
s 1
usemtl None
f 1/1/1 2/2/1 3/3/1
f 4/4/2 5/5/2 1/6/2
f 6/2/3 7/7/3 8/3/3
f 4/2/4 8/7/4 9/1/4
f 9/1/4 8/7/4 10/3/4
f 4/1/3 6/2/3 8/3/3
f 2/2/1 11/7/1 3/3/1
f 12/7/5 7/3/5 6/1/5
f 13/7/6 12/3/6 14/1/6
f 15/7/7 11/3/7 2/1/7
f 10/7/8 15/3/8 5/1/8
f 16/1/9 3/7/9 13/3/9
f 1/2/9 3/7/9 16/1/9
f 7/6/10 13/8/10 3/9/10
f 1/6/2 6/9/2 4/4/2
f 1/6/2 16/10/2 14/8/2
f 5/5/2 2/11/2 1/6/2
f 4/4/2 9/12/2 5/5/2
f 1/6/2 14/8/2 6/9/2
f 14/2/5 12/7/5 6/1/5
f 16/2/6 13/7/6 14/1/6
f 5/2/7 15/7/7 2/1/7
f 9/2/8 10/7/8 5/1/8
f 10/5/10 8/11/10 7/6/10
f 11/4/10 15/12/10 10/5/10
f 7/6/10 3/9/10 11/4/10
f 7/6/10 12/10/10 13/8/10
f 11/4/10 10/5/10 7/6/10
