# Blender 4.2.3 LTS
# www.blender.org
mtllib rocket_motor.mtl
o rocketmotor
v 0.500000 0.456373 0.220000
v 0.302010 0.456373 0.302010
v 0.146093 0.005000 0.146093
v 0.500000 0.005000 -0.000500
v 0.000000 1.000000 -0.000000
v 1.000000 1.000000 -0.000000
v 1.000000 0.750000 -0.000000
v 0.000000 0.750000 -0.000000
v 0.000000 1.000000 1.000000
v 0.000000 0.750000 1.000000
v -0.000500 0.005000 0.500000
v 0.146093 0.005000 0.853907
v 0.176444 0.399993 0.823556
v 0.042419 0.399992 0.500000
v 1.000000 1.000000 1.000000
v 1.000000 0.750000 1.000000
v 0.220000 0.456373 0.500000
v 0.302010 0.456373 0.697990
v 0.500000 0.456373 0.780000
v 0.500000 0.005000 1.000500
v 0.853907 0.005000 0.146093
v 0.697990 0.456373 0.302010
v 1.000500 0.005000 0.500000
v 0.853907 0.005000 0.853907
v 0.697990 0.456373 0.697990
v 0.780000 0.456373 0.500000
v 0.957581 0.399992 0.500000
v 0.823556 0.399993 0.176444
v 0.712132 0.755000 0.287868
v 0.800000 0.755000 0.500000
v 0.500000 0.399992 0.042419
v 0.500000 0.755000 0.200000
v 0.287868 0.755000 0.712132
v 0.200000 0.755000 0.500000
v 0.712132 0.755000 0.712132
v 0.823556 0.399993 0.823556
v 0.176444 0.399993 0.176444
v 0.287868 0.755000 0.287868
v 0.500000 0.399992 0.957581
v 0.500000 0.755000 0.800000
vn 0.3488 -0.4114 0.8421
vn -0.0000 -0.0000 -1.0000
vn -1.0000 -0.0000 -0.0000
vn -0.2968 -0.5363 0.7901
vn -0.9193 0.0999 0.3808
vn -0.7700 -0.5354 -0.3471
vn -0.0000 1.0000 -0.0000
vn 1.0000 -0.0000 -0.0000
vn -0.0000 -0.0000 1.0000
vn 0.8421 -0.4114 0.3488
vn 0.8421 -0.4114 -0.3488
vn 0.3488 -0.4114 -0.8421
vn -0.3488 -0.4114 0.8421
vn -0.0000 -1.0000 -0.0000
vn -0.8421 -0.4114 -0.3488
vn -0.8421 -0.4114 0.3488
vn 0.8548 0.3794 -0.3541
vn -0.3488 -0.4114 -0.8421
vn 0.3541 0.3794 -0.8548
vn -0.8548 0.3794 0.3541
vn 0.8548 0.3794 0.3541
vn -0.3541 0.3794 -0.8548
vn -0.8548 0.3794 -0.3541
vn 0.3541 0.3794 0.8548
vn -0.3541 0.3794 0.8548
vn -0.9193 0.0999 -0.3808
vn -0.2968 -0.5365 -0.7900
vn -0.7701 -0.5352 0.3471
vn -0.7900 -0.5365 0.2968
vn -0.3808 0.0999 0.9193
vn 0.9193 0.0999 0.3808
vn 0.2976 -0.5361 0.7900
vn 0.7701 -0.5352 -0.3471
vn 0.3808 0.0999 0.9193
vn -0.3481 -0.5360 0.7691
vn 0.7900 -0.5360 0.2976
vn 0.3808 0.0999 -0.9193
vn 0.7900 -0.5365 -0.2968
vn -0.3471 -0.5354 -0.7700
vn -0.7901 -0.5363 -0.2968
vn -0.3808 0.0999 -0.9193
vn 0.3471 -0.5352 -0.7701
vn 0.2968 -0.5363 -0.7901
vn 0.9193 0.0999 -0.3808
vn 0.7700 -0.5354 0.3471
vn -0.2968 -0.5364 0.7901
vn 0.3481 -0.5360 0.7691
vn 0.2976 -0.5361 0.7899
vn -0.3482 -0.5360 0.7691
vn -0.7901 -0.5364 -0.2968
vn 0.2968 -0.5364 -0.7901
vt 0.625000 0.750000
vt 0.500000 0.500000
vt 0.500000 0.750000
vt 0.093800 0.093800
vt 0.406200 0.000000
vt 0.406200 0.093800
vt 0.500000 0.406200
vt 0.406200 0.406200
vt 0.875000 0.750000
vt 0.750000 0.875000
vt 0.750000 0.750000
vt 0.093800 0.406200
vt 0.000000 0.093800
vt 0.093800 0.500000
vt 0.625000 0.500000
vt 0.750000 0.500000
vt 1.000000 0.500000
vt 1.000000 0.750000
vt 0.375000 0.750000
vt 0.968800 0.031200
vt 1.000000 0.125000
vt 0.968800 0.156200
vt 0.125000 0.500000
vt 0.250000 0.750000
vt 0.250000 0.500000
vt 0.375000 0.500000
vt 0.906200 0.156200
vt 0.875000 0.062500
vt 0.875000 0.125000
vt 0.375000 0.875000
vt 0.250000 1.000000
vt 0.250000 0.875000
vt 0.000000 0.500000
vt 0.125000 0.750000
vt 0.500000 1.000000
vt 0.500000 0.875000
vt 0.875000 0.875000
vt 0.750000 1.000000
vt 0.125000 0.875000
vt 0.625000 0.875000
vt 0.000000 1.000000
vt 0.000000 0.875000
vt 1.000000 1.000000
vt 0.875000 1.000000
vt 1.000000 0.875000
vt 0.000000 0.750000
vt 0.812500 0.406200
vt 0.500000 0.093800
vt 0.812500 0.093800
vt 0.093800 0.000000
vt 0.000000 0.406200
vt 0.406200 0.500000
vt 0.875000 0.500000
vt 1.000000 0.062500
vt 0.906200 0.031200
vt 0.375000 1.000000
vt 0.125000 1.000000
vt 0.625000 1.000000
s 0
usemtl Material
f 2/1/1 4/2/1 1/3/1
f 6/4/2 8/5/2 5/6/2
f 5/6/3 10/7/3 9/8/3
f 12/9/4 14/10/5 11/11/6
f 9/8/7 6/4/7 5/6/7
f 15/12/8 7/13/8 6/4/8
f 9/8/9 16/14/9 15/12/9
f 3/15/10 17/11/10 11/16/10
f 18/9/11 11/16/11 17/11/11
f 20/17/12 18/9/12 19/18/12
f 4/2/13 22/19/13 1/3/13
f 19/20/14 17/21/14 2/22/14
f 24/23/15 26/24/15 23/25/15
f 23/25/16 22/19/16 21/26/16
f 1/27/14 19/20/14 2/22/14
f 26/28/14 1/27/14 22/29/14
f 28/30/17 30/31/17 27/32/17
f 20/33/18 25/34/18 24/23/18
f 32/35/19 28/30/19 31/36/19
f 13/37/20 34/38/20 14/10/20
f 30/31/21 36/39/21 27/32/21
f 37/40/22 32/35/22 31/36/22
f 34/38/23 37/40/23 14/10/23
f 36/39/24 40/41/24 39/42/24
f 13/37/25 40/43/25 33/44/25
f 14/10/26 3/1/27 11/11/28
f 12/9/29 39/45/30 13/37/30
f 27/32/31 24/34/32 23/24/33
f 36/39/34 20/46/35 24/34/36
f 31/36/37 21/19/38 4/3/39
f 3/1/40 31/36/41 4/3/42
f 21/19/43 27/32/44 23/24/45
f 16/47/14 8/48/14 7/49/14
f 2/1/1 3/15/1 4/2/1
f 6/4/2 7/50/2 8/5/2
f 5/6/3 8/48/3 10/7/3
f 12/9/46 13/37/5 14/10/5
f 9/8/7 15/12/7 6/4/7
f 15/12/8 16/51/8 7/13/8
f 9/8/9 10/52/9 16/14/9
f 3/15/10 2/1/10 17/11/10
f 18/9/11 12/53/11 11/16/11
f 20/17/12 12/53/12 18/9/12
f 4/2/13 21/26/13 22/19/13
f 19/20/14 18/54/14 17/21/14
f 24/23/15 25/34/15 26/24/15
f 23/25/16 26/24/16 22/19/16
f 1/27/14 25/55/14 19/20/14
f 26/28/14 25/55/14 1/27/14
f 28/30/17 29/56/17 30/31/17
f 20/33/18 19/46/18 25/34/18
f 32/35/19 29/56/19 28/30/19
f 13/37/20 33/44/20 34/38/20
f 30/31/21 35/57/21 36/39/21
f 37/40/22 38/58/22 32/35/22
f 34/38/23 38/58/23 37/40/23
f 36/39/24 35/57/24 40/41/24
f 13/37/25 39/45/25 40/43/25
f 14/10/26 37/40/26 3/1/27
f 12/9/29 20/18/47 39/45/30
f 27/32/31 36/39/31 24/34/48
f 36/39/34 39/42/34 20/46/49
f 31/36/37 28/30/37 21/19/38
f 3/1/50 37/40/41 31/36/41
f 21/19/51 28/30/44 27/32/44
f 16/47/14 10/7/14 8/48/14
