# Blender 4.2.3 LTS
# www.blender.org
mtllib bottomtank.mtl
o Cylinder
v 0.500000 0.400000 -0.000000
v 0.500000 1.000000 -0.000000
v 0.853553 0.400000 0.146447
v 0.853553 1.000000 0.146447
v 1.000000 0.400000 0.500000
v 1.000000 1.000000 0.500000
v 0.853553 0.400000 0.853553
v 0.853553 1.000000 0.853553
v 0.500000 0.400000 1.000000
v 0.500000 1.000000 1.000000
v 0.146447 0.400000 0.853553
v 0.146447 1.000000 0.853553
v 0.000000 0.400000 0.500000
v 0.000000 1.000000 0.500000
v 0.146447 0.400000 0.146447
v 0.146447 1.000000 0.146447
v 0.500000 0.050000 0.297353
v 0.643293 0.050000 0.356707
v 0.702647 0.050000 0.500000
v 0.643293 0.050000 0.643293
v 0.500000 0.050000 0.702647
v 0.356707 0.050000 0.643293
v 0.297353 0.050000 0.500000
v 0.356707 0.050000 0.356707
vn 0.3827 -0.0000 -0.9239
vn 0.9239 -0.0000 -0.3827
vn 0.9239 -0.0000 0.3827
vn 0.3827 -0.0000 0.9239
vn -0.3827 -0.0000 0.9239
vn -0.9239 -0.0000 0.3827
vn -0.0000 1.0000 -0.0000
vn -0.3827 -0.0000 -0.9239
vn -0.9239 -0.0000 -0.3827
vn -0.0000 -1.0000 -0.0000
vn 0.3010 -0.6174 -0.7267
vn 0.7267 -0.6174 -0.3010
vn 0.7267 -0.6174 0.3010
vn 0.3010 -0.6174 0.7267
vn -0.3010 -0.6174 0.7267
vn -0.7267 -0.6174 0.3010
vn -0.7267 -0.6174 -0.3010
vn -0.3010 -0.6174 -0.7267
vt 0.000000 0.250000
vt 0.343800 0.125000
vt 0.343800 0.250000
vt 0.000000 0.125000
vt 0.343800 0.000000
vt 0.000000 1.000000
vt 0.343800 0.875000
vt 0.343800 1.000000
vt 0.000000 0.875000
vt 0.343800 0.750000
vt 0.000000 0.750000
vt 0.343800 0.625000
vt 0.000000 0.625000
vt 0.343800 0.500000
vt 0.343800 0.406200
vt 0.562500 0.312500
vt 0.437500 0.625000
vt 0.000000 0.375000
vt 0.343800 0.375000
vt 0.000000 0.500000
vt 0.542900 0.261500
vt 0.394700 0.113300
vt 0.457100 0.051000
vt -0.000000 0.000000
vt 0.656200 0.531200
vt 0.562500 0.625000
vt 0.343800 0.531200
vt 0.437500 0.312500
vt 0.656200 0.406200
vt 0.542900 0.051000
vt 0.605300 0.113300
vt 0.605300 0.199200
vt 0.457100 0.261500
vt 0.394700 0.199200
s 0
usemtl Material
f 2/1/1 3/2/1 1/3/1
f 4/4/2 5/5/2 3/2/2
f 6/6/3 7/7/3 5/8/3
f 8/9/4 9/10/4 7/7/4
f 10/11/5 11/12/5 9/10/5
f 12/13/6 13/14/6 11/12/6
f 14/15/7 10/16/7 2/17/7
f 16/18/8 1/3/8 15/19/8
f 14/20/9 15/19/9 13/14/9
f 20/21/10 23/22/10 24/23/10
f 17/8/11 3/9/11 18/7/11
f 18/7/12 5/11/12 19/10/12
f 19/10/13 7/13/13 20/12/13
f 20/12/14 9/20/14 21/14/14
f 22/19/15 9/20/15 11/18/15
f 22/19/16 13/1/16 23/3/16
f 23/3/17 15/4/17 24/2/17
f 24/2/18 1/24/18 17/5/18
f 2/1/1 4/4/1 3/2/1
f 4/4/2 6/24/2 5/5/2
f 6/6/3 8/9/3 7/7/3
f 8/9/4 10/11/4 9/10/4
f 10/11/5 12/13/5 11/12/5
f 12/13/6 14/20/6 13/14/6
f 6/25/7 4/26/7 2/17/7
f 2/17/7 16/27/7 14/15/7
f 14/15/7 12/28/7 10/16/7
f 10/16/7 8/29/7 6/25/7
f 6/25/7 2/17/7 10/16/7
f 16/18/8 2/1/8 1/3/8
f 14/20/9 16/18/9 15/19/9
f 24/23/10 17/30/10 18/31/10
f 18/31/10 19/32/10 20/21/10
f 20/21/10 21/33/10 22/34/10
f 22/34/10 23/22/10 20/21/10
f 24/23/10 18/31/10 20/21/10
f 17/8/11 1/6/11 3/9/11
f 18/7/12 3/9/12 5/11/12
f 19/10/13 5/11/13 7/13/13
f 20/12/14 7/13/14 9/20/14
f 22/19/15 21/14/15 9/20/15
f 22/19/16 11/18/16 13/1/16
f 23/3/17 13/1/17 15/4/17
f 24/2/18 15/4/18 1/24/18
o Cylinder1
v 0.937500 0.000000 0.000000
v 0.937500 1.000000 -0.000000
v 0.981694 0.000000 0.018306
v 0.981694 1.000000 0.018306
v 1.000000 0.000000 0.062500
v 1.000000 1.000000 0.062500
v 0.981694 0.000000 0.106694
v 0.981694 1.000000 0.106694
v 0.937500 0.000000 0.125000
v 0.937500 1.000000 0.125000
v 0.893306 0.000000 0.106694
v 0.893306 1.000000 0.106694
v 0.875000 0.000000 0.062500
v 0.875000 1.000000 0.062500
v 0.893306 0.000000 0.018306
v 0.893306 1.000000 0.018306
vn 0.3827 -0.0000 -0.9239
vn 0.9239 -0.0000 -0.3827
vn 0.9239 -0.0000 0.3827
vn 0.3827 -0.0000 0.9239
vn -0.3827 -0.0000 0.9239
vn -0.9239 -0.0000 0.3827
vn -0.0000 1.0000 -0.0000
vn -0.3827 -0.0000 -0.9239
vn -0.9239 -0.0000 -0.3827
vn -0.0000 -1.0000 -0.0000
vt 1.000000 0.000000
vt 0.800000 0.200000
vt 0.800000 0.000000
vt 0.970700 0.029300
vt 0.829300 0.029300
vt 0.970700 0.170700
vt 0.829300 0.170700
vt 1.000000 0.200000
vt 0.900000 0.200000
vt 1.000000 0.100000
vt 0.900000 0.000000
vt 0.800000 0.100000
s 0
usemtl Material
f 26/35/19 27/36/19 25/37/19
f 28/35/20 29/36/20 27/37/20
f 30/35/21 31/36/21 29/37/21
f 32/35/22 33/36/22 31/37/22
f 34/35/23 35/36/23 33/37/23
f 36/35/24 37/36/24 35/37/24
f 38/38/25 34/39/25 26/40/25
f 40/35/26 25/36/26 39/37/26
f 38/35/27 39/36/27 37/37/27
f 31/38/28 35/39/28 39/41/28
f 26/35/19 28/42/19 27/36/19
f 28/35/20 30/42/20 29/36/20
f 30/35/21 32/42/21 31/36/21
f 32/35/22 34/42/22 33/36/22
f 34/35/23 36/42/23 35/36/23
f 36/35/24 38/42/24 37/36/24
f 30/41/25 28/43/25 26/40/25
f 26/40/25 40/44/25 38/38/25
f 38/38/25 36/45/25 34/39/25
f 34/39/25 32/46/25 30/41/25
f 30/41/25 26/40/25 34/39/25
f 40/35/26 26/42/26 25/36/26
f 38/35/27 40/42/27 39/36/27
f 39/41/28 25/43/28 27/40/28
f 27/40/28 29/44/28 31/38/28
f 31/38/28 33/45/28 35/39/28
f 35/39/28 37/46/28 39/41/28
f 39/41/28 27/40/28 31/38/28
o Cylinder2
v 0.062500 0.000000 0.000000
v 0.062500 1.000000 -0.000000
v 0.106694 0.000000 0.018306
v 0.106694 1.000000 0.018306
v 0.125000 0.000000 0.062500
v 0.125000 1.000000 0.062500
v 0.106694 0.000000 0.106694
v 0.106694 1.000000 0.106694
v 0.062500 0.000000 0.125000
v 0.062500 1.000000 0.125000
v 0.018306 0.000000 0.106694
v 0.018306 1.000000 0.106694
v 0.000000 0.000000 0.062500
v 0.000000 1.000000 0.062500
v 0.018306 0.000000 0.018306
v 0.018306 1.000000 0.018306
vn 0.3827 -0.0000 -0.9239
vn 0.9239 -0.0000 -0.3827
vn 0.9239 -0.0000 0.3827
vn 0.3827 -0.0000 0.9239
vn -0.3827 -0.0000 0.9239
vn -0.9239 -0.0000 0.3827
vn -0.0000 1.0000 -0.0000
vn -0.3827 -0.0000 -0.9239
vn -0.9239 -0.0000 -0.3827
vn -0.0000 -1.0000 -0.0000
vt 1.000000 0.000000
vt 0.800000 0.200000
vt 0.800000 0.000000
vt 0.900000 0.000000
vt 0.829300 0.029300
vt 0.829300 0.170700
vt 0.970700 0.029300
vt 1.000000 0.200000
vt 0.900000 0.200000
vt 0.970700 0.170700
vt 1.000000 0.100000
vt 0.800000 0.100000
s 0
usemtl Material
f 42/47/29 43/48/29 41/49/29
f 44/47/30 45/48/30 43/49/30
f 46/47/31 47/48/31 45/49/31
f 48/47/32 49/48/32 47/49/32
f 50/47/33 51/48/33 49/49/33
f 52/47/34 53/48/34 51/49/34
f 52/50/35 50/51/35 46/52/35
f 56/47/36 41/48/36 55/49/36
f 54/47/37 55/48/37 53/49/37
f 47/53/38 51/51/38 55/52/38
f 42/47/29 44/54/29 43/48/29
f 44/47/30 46/54/30 45/48/30
f 46/47/31 48/54/31 47/48/31
f 48/47/32 50/54/32 49/48/32
f 50/47/33 52/54/33 51/48/33
f 52/47/34 54/54/34 53/48/34
f 46/52/35 44/55/35 54/53/35
f 42/56/35 56/57/35 54/53/35
f 54/53/35 52/50/35 46/52/35
f 50/51/35 48/58/35 46/52/35
f 44/55/35 42/56/35 54/53/35
f 56/47/36 42/54/36 41/48/36
f 54/47/37 56/54/37 55/48/37
f 55/52/38 41/55/38 43/56/38
f 43/56/38 45/57/38 55/52/38
f 47/53/38 49/50/38 51/51/38
f 51/51/38 53/58/38 55/52/38
f 55/52/38 45/57/38 47/53/38
o Cylinder3
v 0.062500 0.000000 0.875000
v 0.062500 1.000000 0.875000
v 0.106694 0.000000 0.893306
v 0.106694 1.000000 0.893306
v 0.125000 0.000000 0.937500
v 0.125000 1.000000 0.937500
v 0.106694 0.000000 0.981694
v 0.106694 1.000000 0.981694
v 0.062500 0.000000 1.000000
v 0.062500 1.000000 1.000000
v 0.018306 0.000000 0.981694
v 0.018306 1.000000 0.981694
v 0.000000 0.000000 0.937500
v 0.000000 1.000000 0.937500
v 0.018306 0.000000 0.893306
v 0.018306 1.000000 0.893306
vn 0.3827 -0.0000 -0.9239
vn 0.9239 -0.0000 -0.3827
vn 0.9239 -0.0000 0.3827
vn 0.3827 -0.0000 0.9239
vn -0.3827 -0.0000 0.9239
vn -0.9239 -0.0000 0.3827
vn -0.0000 1.0000 -0.0000
vn -0.3827 -0.0000 -0.9239
vn -0.9239 -0.0000 -0.3827
vn -0.0000 -1.0000 -0.0000
vt 1.000000 0.000000
vt 0.800000 0.200000
vt 0.800000 0.000000
vt 0.970700 0.029300
vt 0.800000 0.100000
vt 0.829300 0.170700
vt 0.829300 0.029300
vt 1.000000 0.200000
vt 0.900000 0.200000
vt 0.970700 0.170700
vt 1.000000 0.100000
vt 0.900000 0.000000
s 0
usemtl Material
f 58/59/39 59/60/39 57/61/39
f 60/59/40 61/60/40 59/61/40
f 62/59/41 63/60/41 61/61/41
f 64/59/42 65/60/42 63/61/42
f 66/59/43 67/60/43 65/61/43
f 68/59/44 69/60/44 67/61/44
f 70/62/45 64/63/45 62/64/45
f 72/59/46 57/60/46 71/61/46
f 70/59/47 71/60/47 69/61/47
f 63/62/48 67/65/48 71/64/48
f 58/59/39 60/66/39 59/60/39
f 60/59/40 62/66/40 61/60/40
f 62/59/41 64/66/41 63/60/41
f 64/59/42 66/66/42 65/60/42
f 66/59/43 68/66/43 67/60/43
f 68/59/44 70/66/44 69/60/44
f 62/64/45 60/67/45 58/68/45
f 58/68/45 72/69/45 62/64/45
f 70/62/45 68/70/45 66/65/45
f 66/65/45 64/63/45 70/62/45
f 62/64/45 72/69/45 70/62/45
f 72/59/46 58/66/46 57/60/46
f 70/59/47 72/66/47 71/60/47
f 71/64/48 57/67/48 59/68/48
f 59/68/48 61/69/48 63/62/48
f 63/62/48 65/70/48 67/65/48
f 67/65/48 69/63/48 71/64/48
f 71/64/48 59/68/48 63/62/48
o Cylinder4
v 0.937500 0.000000 0.875000
v 0.937500 1.000000 0.875000
v 0.981694 0.000000 0.893306
v 0.981694 1.000000 0.893306
v 1.000000 0.000000 0.937500
v 1.000000 1.000000 0.937500
v 0.981694 0.000000 0.981694
v 0.981694 1.000000 0.981694
v 0.937500 0.000000 1.000000
v 0.937500 1.000000 1.000000
v 0.893306 0.000000 0.981694
v 0.893306 1.000000 0.981694
v 0.875000 0.000000 0.937500
v 0.875000 1.000000 0.937500
v 0.893306 0.000000 0.893306
v 0.893306 1.000000 0.893306
vn 0.3827 -0.0000 -0.9239
vn 0.9239 -0.0000 -0.3827
vn 0.9239 -0.0000 0.3827
vn 0.3827 -0.0000 0.9239
vn -0.3827 -0.0000 0.9239
vn -0.9239 -0.0000 0.3827
vn -0.0000 1.0000 -0.0000
vn -0.3827 -0.0000 -0.9239
vn -0.9239 -0.0000 -0.3827
vn -0.0000 -1.0000 -0.0000
vt 0.895900 0.244500
vt 0.886300 0.044500
vt 0.895900 0.044500
vt 0.886300 0.244500
vt 0.876700 0.044500
vt 0.876700 0.244500
vt 0.867200 0.044500
vt 0.867200 0.244500
vt 0.857600 0.044500
vt 0.934100 0.244500
vt 0.924500 0.044500
vt 0.934100 0.044500
vt 0.924500 0.244500
vt 0.915000 0.044500
vt 0.934100 0.074400
vt 0.957200 0.074400
vt 0.957200 0.084000
vt 0.905400 0.244500
vt 0.905400 0.044500
vt 0.915000 0.244500
vt 0.950500 0.067600
vt 0.934100 0.060900
vt 0.940900 0.044500
vt 0.857600 0.244500
vt 0.950500 0.090800
vt 0.940900 0.090800
vt 0.934100 0.084000
vt 0.940900 0.067700
vt 0.950500 0.067700
vt 0.950500 0.044500
vt 0.957200 0.051300
vt 0.957200 0.060900
vt 0.940900 0.067600
vt 0.934100 0.051300
s 0
usemtl Material
f 74/71/49 75/72/49 73/73/49
f 76/74/50 77/75/50 75/72/50
f 78/76/51 79/77/51 77/75/51
f 80/78/52 81/79/52 79/77/52
f 82/80/53 83/81/53 81/82/53
f 84/83/54 85/84/54 83/81/54
f 86/85/55 80/86/55 78/87/55
f 88/88/56 73/73/56 87/89/56
f 86/90/57 87/89/57 85/84/57
f 79/91/58 83/92/58 87/93/58
f 74/71/49 76/74/49 75/72/49
f 76/74/50 78/76/50 77/75/50
f 78/76/51 80/78/51 79/77/51
f 80/78/52 82/94/52 81/79/52
f 82/80/53 84/83/53 83/81/53
f 84/83/54 86/90/54 85/84/54
f 78/87/55 76/95/55 74/96/55
f 74/96/55 88/97/55 78/87/55
f 86/85/55 84/98/55 82/99/55
f 82/99/55 80/86/55 86/85/55
f 78/87/55 88/97/55 86/85/55
f 88/88/56 74/71/56 73/73/56
f 86/90/57 88/88/57 87/89/57
f 87/93/58 73/100/58 75/101/58
f 75/101/58 77/102/58 79/91/58
f 79/91/58 81/103/58 83/92/58
f 83/92/58 85/104/58 87/93/58
f 87/93/58 75/101/58 79/91/58
o Cylinder5
v 0.880070 0.064000 0.031541
v 0.031542 0.064000 0.880070
v 0.893014 0.108194 0.044486
v 0.044486 0.108194 0.893014
v 0.924264 0.126500 0.075736
v 0.075736 0.126500 0.924264
v 0.955514 0.108194 0.106986
v 0.106986 0.108194 0.955514
v 0.968458 0.064000 0.119930
v 0.119930 0.064000 0.968459
v 0.955514 0.019806 0.106986
v 0.106986 0.019806 0.955514
v 0.924264 0.001500 0.075736
v 0.075736 0.001500 0.924264
v 0.893014 0.019806 0.044486
v 0.044486 0.019806 0.893014
vn -0.6533 0.3827 -0.6533
vn -0.2706 0.9239 -0.2706
vn 0.2706 0.9239 0.2706
vn 0.6533 0.3827 0.6533
vn 0.6533 -0.3827 0.6533
vn 0.2706 -0.9239 0.2706
vn -0.7071 -0.0000 0.7071
vn -0.6533 -0.3827 -0.6533
vn -0.2706 -0.9239 -0.2706
vn 0.7071 -0.0000 -0.7071
vt 0.800000 0.000000
vt 1.000000 0.200000
vt 0.800000 0.200000
vt 1.000000 0.000000
vt 0.970700 0.029300
vt 0.800000 0.100000
vt 0.829300 0.170700
vt 0.829300 0.029300
vt 0.970700 0.170700
vt 0.900000 0.200000
vt 1.000000 0.100000
vt 0.900000 0.000000
s 0
usemtl Material
f 89/105/59 92/106/59 91/107/59
f 91/105/60 94/106/60 93/107/60
f 94/108/61 95/107/61 93/105/61
f 96/108/62 97/107/62 95/105/62
f 98/108/63 99/107/63 97/105/63
f 100/108/64 101/107/64 99/105/64
f 102/109/65 96/110/65 94/111/65
f 103/105/66 90/106/66 89/107/66
f 101/105/67 104/106/67 103/107/67
f 95/109/68 99/112/68 91/113/68
f 89/105/59 90/108/59 92/106/59
f 91/105/60 92/108/60 94/106/60
f 94/108/61 96/106/61 95/107/61
f 96/108/62 98/106/62 97/107/62
f 98/108/63 100/106/63 99/107/63
f 100/108/64 102/106/64 101/107/64
f 94/111/65 92/114/65 90/113/65
f 90/113/65 104/115/65 94/111/65
f 102/109/65 100/116/65 98/112/65
f 98/112/65 96/110/65 102/109/65
f 94/111/65 104/115/65 102/109/65
f 103/105/66 104/108/66 90/106/66
f 101/105/67 102/108/67 104/106/67
f 103/111/68 89/114/68 91/113/68
f 91/113/68 93/115/68 95/109/68
f 95/109/68 97/116/68 99/112/68
f 99/112/68 101/110/68 103/111/68
f 103/111/68 91/113/68 99/112/68
o Cylinder6
v 0.968458 0.064000 0.880070
v 0.119930 0.064000 0.031542
v 0.955514 0.108194 0.893014
v 0.106986 0.108194 0.044486
v 0.924264 0.126500 0.924264
v 0.075736 0.126500 0.075736
v 0.893014 0.108194 0.955514
v 0.044486 0.108194 0.106986
v 0.880070 0.064000 0.968458
v 0.031542 0.064000 0.119930
v 0.893014 0.019806 0.955514
v 0.044486 0.019806 0.106986
v 0.924264 0.001500 0.924264
v 0.075736 0.001500 0.075736
v 0.955514 0.019806 0.893014
v 0.106986 0.019806 0.044486
vn 0.6533 0.3827 -0.6533
vn 0.2706 0.9239 -0.2706
vn -0.2706 0.9239 0.2706
vn -0.6533 0.3827 0.6533
vn -0.6533 -0.3827 0.6533
vn -0.2706 -0.9239 0.2706
vn -0.7071 -0.0000 -0.7071
vn 0.6533 -0.3827 -0.6533
vn 0.2706 -0.9239 -0.2706
vn 0.7071 -0.0000 0.7071
vt 1.000000 0.000000
vt 0.800000 0.200000
vt 0.800000 0.000000
vt 1.000000 0.200000
vt 0.900000 0.000000
vt 0.829300 0.029300
vt 0.829300 0.170700
vt 0.970700 0.029300
vt 0.970700 0.170700
vt 0.900000 0.200000
vt 1.000000 0.100000
vt 0.800000 0.100000
s 0
usemtl Material
f 106/117/69 107/118/69 105/119/69
f 108/117/70 109/118/70 107/119/70
f 109/119/71 112/120/71 111/118/71
f 111/119/72 114/120/72 113/118/72
f 114/117/73 115/118/73 113/119/73
f 116/117/74 117/118/74 115/119/74
f 116/121/75 114/122/75 110/123/75
f 120/117/76 105/118/76 119/119/76
f 118/117/77 119/118/77 117/119/77
f 111/124/78 115/122/78 107/125/78
f 106/117/69 108/120/69 107/118/69
f 108/117/70 110/120/70 109/118/70
f 109/119/71 110/117/71 112/120/71
f 111/119/72 112/117/72 114/120/72
f 114/117/73 116/120/73 115/118/73
f 116/117/74 118/120/74 117/118/74
f 110/123/75 108/126/75 106/125/75
f 106/125/75 120/127/75 118/124/75
f 118/124/75 116/121/75 110/123/75
f 114/122/75 112/128/75 110/123/75
f 110/123/75 106/125/75 118/124/75
f 120/117/76 106/120/76 105/118/76
f 118/117/77 120/120/77 119/118/77
f 119/123/78 105/126/78 107/125/78
f 107/125/78 109/127/78 111/124/78
f 111/124/78 113/121/78 115/122/78
f 115/122/78 117/128/78 119/123/78
f 119/123/78 107/125/78 115/122/78
