# Blender 5.2.1 LTS
# www.blender.org
mtllib warpcore.mtl
o Base
v -0.415495 -0.962500 1.175495
v -0.415495 -0.362500 1.175495
v -0.175495 -0.962500 1.175495
v -0.175495 -0.362500 1.175495
v -0.415495 -0.962500 1.415495
v -0.415495 -0.362500 1.415495
v -0.175495 -0.962500 1.415495
v -0.175495 -0.362500 1.415495
v -0.327107 -0.962500 -0.327107
v -0.327107 -0.362500 -0.327107
v -0.087107 -0.962500 -0.327107
v -0.087107 -0.362500 -0.327107
v -0.327107 -0.962500 -0.087107
v -0.327107 -0.362500 -0.087107
v -0.087107 -0.962500 -0.087107
v -0.087107 -0.362500 -0.087107
v 1.175495 -0.962500 -0.415495
v 1.175495 -0.362500 -0.415495
v 1.415495 -0.962500 -0.415495
v 1.415495 -0.362500 -0.415495
v 1.175495 -0.962500 -0.175495
v 1.175495 -0.362500 -0.175495
v 1.415495 -0.962500 -0.175495
v 1.415495 -0.362500 -0.175495
v 1.175495 -0.962500 1.175495
v 1.175495 -0.362500 1.175495
v 1.415495 -0.962500 1.175495
v 1.415495 -0.362500 1.175495
v 1.175495 -0.962500 1.415495
v 1.175495 -0.362500 1.415495
v 1.415495 -0.962500 1.415495
v 1.415495 -0.362500 1.415495
v 1.415495 2.000000 -0.415495
v 1.415495 1.400000 -0.415495
v 1.415495 2.000000 -0.175495
v 1.415495 1.400000 -0.175495
v 1.175495 2.000000 -0.415495
v 1.175495 1.400000 -0.415495
v 1.175495 2.000000 -0.175495
v 1.175495 1.400000 -0.175495
v 1.415495 2.000000 1.175495
v 1.415495 1.400000 1.175495
v 1.415495 2.000000 1.415495
v 1.415495 1.400000 1.415495
v 1.175495 2.000000 1.175495
v 1.175495 1.400000 1.175495
v 1.175495 2.000000 1.415495
v 1.175495 1.400000 1.415495
v -0.175495 2.000000 1.175495
v -0.175495 1.400000 1.175495
v -0.175495 2.000000 1.415495
v -0.175495 1.400000 1.415495
v -0.415495 2.000000 1.175495
v -0.415495 1.400000 1.175495
v -0.415495 2.000000 1.415495
v -0.415495 1.400000 1.415495
v -0.175495 2.000000 -0.415495
v -0.175495 1.400000 -0.415495
v -0.175495 2.000000 -0.175495
v -0.175495 1.400000 -0.175495
v -0.415495 2.000000 -0.415495
v -0.415495 1.400000 -0.415495
v -0.415495 2.000000 -0.175495
v -0.415495 1.400000 -0.175495
v 0.620000 -0.962500 1.505000
v 0.620000 -0.362500 1.505000
v 0.620000 -0.962500 1.745000
v 0.620000 -0.362500 1.745000
v 0.380000 -0.962500 1.505000
v 0.380000 -0.362500 1.505000
v 0.380000 -0.962500 1.745000
v 0.380000 -0.362500 1.745000
v 1.745000 -0.962500 0.380000
v 1.745000 -0.362500 0.380000
v 1.745000 -0.962500 0.620000
v 1.745000 -0.362500 0.620000
v 1.505000 -0.962500 0.380000
v 1.505000 -0.362500 0.380000
v 1.505000 -0.962500 0.620000
v 1.505000 -0.362500 0.620000
v 0.620000 -0.962500 -0.620000
v 0.620000 -0.362500 -0.620000
v 0.620000 -0.962500 -0.380000
v 0.620000 -0.362500 -0.380000
v 0.380000 -0.962500 -0.620000
v 0.380000 -0.362500 -0.620000
v 0.380000 -0.962500 -0.380000
v 0.380000 -0.362500 -0.380000
v -0.505000 -0.962500 0.380000
v -0.505000 -0.362500 0.380000
v -0.505000 -0.962500 0.620000
v -0.505000 -0.362500 0.620000
v -0.745000 -0.962500 0.380000
v -0.745000 -0.362500 0.380000
v -0.745000 -0.962500 0.620000
v -0.745000 -0.362500 0.620000
v -0.505000 2.000000 0.380000
v -0.505000 1.400000 0.380000
v -0.505000 2.000000 0.620000
v -0.505000 1.400000 0.620000
v -0.745000 2.000000 0.380000
v -0.745000 1.400000 0.380000
v -0.745000 2.000000 0.620000
v -0.745000 1.400000 0.620000
v 0.620000 2.000000 1.505000
v 0.620000 1.400000 1.505000
v 0.620000 2.000000 1.745000
v 0.620000 1.400000 1.745000
v 0.380000 2.000000 1.505000
v 0.380000 1.400000 1.505000
v 0.380000 2.000000 1.745000
v 0.380000 1.400000 1.745000
v 1.745000 2.000000 0.380000
v 1.745000 1.400000 0.380000
v 1.745000 2.000000 0.620000
v 1.745000 1.400000 0.620000
v 1.505000 2.000000 0.380000
v 1.505000 1.400000 0.380000
v 1.505000 2.000000 0.620000
v 1.505000 1.400000 0.620000
v 0.620000 2.000000 -0.745000
v 0.620000 1.400000 -0.745000
v 0.620000 2.000000 -0.505000
v 0.620000 1.400000 -0.505000
v 0.380000 2.000000 -0.745000
v 0.380000 1.400000 -0.745000
v 0.380000 2.000000 -0.505000
v 0.380000 1.400000 -0.505000
v 0.000000 -0.712500 0.625000
v 0.000000 -0.900000 0.625000
v -0.187500 -0.712500 0.625000
v -0.375000 -0.900000 0.625000
v 0.000000 -0.712500 0.375000
v 0.000000 -0.900000 0.375000
v -0.187500 -0.712500 0.375000
v -0.375000 -0.900000 0.375000
v -0.187500 -0.400000 0.375000
v -0.187500 -0.400000 0.625000
v -0.375000 -0.400000 0.375000
v -0.375000 -0.400000 0.625000
v 0.625000 -0.712500 1.000000
v 0.625000 -0.900000 1.000000
v 0.625000 -0.712500 1.187500
v 0.625000 -0.900000 1.375000
v 0.375000 -0.712500 1.000000
v 0.375000 -0.900000 1.000000
v 0.375000 -0.712500 1.187500
v 0.375000 -0.900000 1.375000
v 0.375000 -0.400000 1.187500
v 0.625000 -0.400000 1.187500
v 0.375000 -0.400000 1.375000
v 0.625000 -0.400000 1.375000
v 1.000000 -0.712500 0.375000
v 1.000000 -0.900000 0.375000
v 1.187500 -0.712500 0.375000
v 1.375000 -0.900000 0.375000
v 1.000000 -0.712500 0.625000
v 1.000000 -0.900000 0.625000
v 1.187500 -0.712500 0.625000
v 1.375000 -0.900000 0.625000
v 1.187500 -0.400000 0.625000
v 1.187500 -0.400000 0.375000
v 1.375000 -0.400000 0.625000
v 1.375000 -0.400000 0.375000
v 0.375000 -0.712500 0.000000
v 0.375000 -0.900000 0.000000
v 0.375000 -0.712500 -0.187500
v 0.375000 -0.900000 -0.375000
v 0.625000 -0.712500 0.000000
v 0.625000 -0.900000 0.000000
v 0.625000 -0.712500 -0.187500
v 0.625000 -0.900000 -0.375000
v 0.625000 -0.400000 -0.187500
v 0.375000 -0.400000 -0.187500
v 0.625000 -0.400000 -0.375000
v 0.375000 -0.400000 -0.375000
v 0.000000 1.687500 0.625000
v 0.000000 1.875000 0.625000
v -0.187500 1.687500 0.625000
v -0.375000 1.875000 0.625000
v 0.000000 1.687500 0.375000
v 0.000000 1.875000 0.375000
v -0.187500 1.687500 0.375000
v -0.375000 1.875000 0.375000
v -0.187500 1.375000 0.375000
v -0.187500 1.375000 0.625000
v -0.375000 1.375000 0.375000
v -0.375000 1.375000 0.625000
v 0.625000 1.687500 1.000000
v 0.625000 1.875000 1.000000
v 0.625000 1.687500 1.187500
v 0.625000 1.875000 1.375000
v 0.375000 1.687500 1.000000
v 0.375000 1.875000 1.000000
v 0.375000 1.687500 1.187500
v 0.375000 1.875000 1.375000
v 0.375000 1.375000 1.187500
v 0.625000 1.375000 1.187500
v 0.375000 1.375000 1.375000
v 0.625000 1.375000 1.375000
v 1.000000 1.687500 0.375000
v 1.000000 1.875000 0.375000
v 1.187500 1.687500 0.375000
v 1.375000 1.875000 0.375000
v 1.000000 1.687500 0.625000
v 1.000000 1.875000 0.625000
v 1.187500 1.687500 0.625000
v 1.375000 1.875000 0.625000
v 1.187500 1.375000 0.625000
v 1.187500 1.375000 0.375000
v 1.375000 1.375000 0.625000
v 1.375000 1.375000 0.375000
v 0.375000 1.687500 0.000000
v 0.375000 1.875000 0.000000
v 0.375000 1.687500 -0.187500
v 0.375000 1.875000 -0.375000
v 0.625000 1.687500 0.000000
v 0.625000 1.875000 0.000000
v 0.625000 1.687500 -0.187500
v 0.625000 1.875000 -0.375000
v 0.625000 1.375000 -0.187500
v 0.375000 1.375000 -0.187500
v 0.625000 1.375000 -0.375000
v 0.375000 1.375000 -0.375000
v 0.500000 1.061602 -0.120096
v 0.500000 0.888397 -0.220096
v 0.629904 1.099102 -0.185048
v 0.629904 0.925897 -0.285048
v 0.629904 1.174102 -0.314952
v 0.629904 1.000897 -0.414952
v 0.500000 1.211602 -0.379904
v 0.500000 1.038397 -0.479904
v 0.370096 1.174102 -0.314952
v 0.370096 1.000897 -0.414952
v 0.370096 1.099102 -0.185048
v 0.370096 0.925897 -0.285048
v -0.120096 1.061602 0.500000
v -0.220096 0.888397 0.500000
v -0.185048 1.099102 0.370096
v -0.285048 0.925897 0.370096
v -0.314952 1.174102 0.370096
v -0.414952 1.000897 0.370096
v -0.379904 1.211602 0.500000
v -0.479904 1.038397 0.500000
v -0.314952 1.174102 0.629904
v -0.414952 1.000897 0.629904
v -0.185048 1.099102 0.629904
v -0.285048 0.925897 0.629904
v 1.120096 1.061602 0.500000
v 1.220096 0.888397 0.500000
v 1.185048 1.099102 0.629904
v 1.285048 0.925897 0.629904
v 1.314952 1.174102 0.629904
v 1.414952 1.000897 0.629904
v 1.379904 1.211602 0.500000
v 1.479904 1.038397 0.500000
v 1.314952 1.174102 0.370096
v 1.414952 1.000897 0.370096
v 1.185048 1.099102 0.370096
v 1.285048 0.925897 0.370096
v 0.061526 1.061602 0.061526
v -0.009185 0.888397 -0.009185
v 0.107454 1.099102 -0.076258
v 0.036743 0.925897 -0.146969
v 0.015598 1.174102 -0.168114
v -0.055113 1.000897 -0.238825
v -0.122186 1.211602 -0.122186
v -0.192897 1.038397 -0.192897
v -0.168114 1.174102 0.015598
v -0.238825 1.000897 -0.055113
v -0.076258 1.099102 0.107454
v -0.146969 0.925897 0.036743
v -0.009185 0.888397 1.009185
v -0.238825 1.000897 1.055113
v -0.122186 1.211603 1.122186
v -0.192897 1.038397 1.192897
v 0.015598 1.174103 1.168114
v -0.055113 1.000897 1.238825
v 0.107454 1.099102 1.076258
v 0.036743 0.925897 1.146969
v 0.938474 1.061602 0.061526
v 1.009185 0.888397 -0.009185
v 1.076258 1.099102 0.107454
v 1.146969 0.925897 0.036743
v 1.168114 1.174102 0.015598
v 1.238825 1.000897 -0.055113
v 1.122186 1.211602 -0.122186
v 1.192897 1.038397 -0.192897
v 0.984402 1.174102 -0.168114
v 1.055113 1.000897 -0.238825
v 0.892546 1.099102 -0.076258
v 0.963257 0.925897 -0.146969
v 0.938474 -0.061602 0.938474
v 1.009185 0.111603 1.009185
v 1.076258 -0.099102 0.892546
v 1.146969 0.074103 0.963257
v 1.168114 -0.174103 0.984402
v 1.238825 -0.000897 1.055113
v 1.122186 -0.211603 1.122186
v 1.192897 -0.038397 1.192897
v 0.984402 -0.174103 1.168114
v 1.055113 -0.000897 1.238825
v 0.892546 -0.099102 1.076258
v 0.963257 0.074103 1.146969
v -0.168114 -0.174103 0.015598
v -0.238825 -0.000897 -0.055113
v -0.122186 -0.211603 -0.122186
v 0.015598 -0.174103 -0.168114
v 0.107454 -0.099102 -0.076258
v 0.061526 -0.061602 0.938474
v -0.009185 0.111603 1.009185
v -0.122186 -0.211603 1.122186
v -0.192897 -0.038397 1.192897
v -0.168114 -0.174103 0.984402
v -0.238825 -0.000897 1.055113
v -0.076258 -0.099102 0.892546
v -0.146969 0.074103 0.963257
v 0.938474 -0.061602 0.061526
v 1.009185 0.111603 -0.009185
v 0.892546 -0.099102 -0.076258
v 0.963257 0.074103 -0.146969
v 0.984402 -0.174103 -0.168114
v 1.055113 -0.000897 -0.238825
v 1.122186 -0.211603 -0.122186
v 1.192897 -0.038397 -0.192897
v 1.168114 -0.174103 0.015598
v 1.238825 -0.000897 -0.055113
v 1.076258 -0.099102 0.107454
v 1.146969 0.074103 0.036743
v 1.120096 -0.061602 0.500000
v 1.220096 0.111603 0.500000
v 1.185048 -0.099102 0.370096
v 1.285048 0.074103 0.370096
v 1.314952 -0.174103 0.370096
v 1.414952 -0.000897 0.370096
v 1.379904 -0.211603 0.500000
v 1.479904 -0.038397 0.500000
v 1.314952 -0.174103 0.629904
v 1.414952 -0.000897 0.629904
v 1.185048 -0.099102 0.629904
v 1.285048 0.074103 0.629904
v -0.379904 -0.211603 0.500000
v -0.314952 -0.174103 0.370096
v 0.500000 -0.061602 -0.120096
v 0.500000 0.111603 -0.220096
v 0.370096 -0.099102 -0.185048
v 0.370096 0.074103 -0.285048
v 0.370096 -0.174103 -0.314952
v 0.370096 -0.000897 -0.414952
v 0.500000 -0.211603 -0.379904
v 0.500000 -0.038397 -0.479904
v 0.629904 -0.174103 -0.314952
v 0.629904 -0.000897 -0.414952
v 0.629904 -0.099102 -0.185048
v 0.629904 0.074103 -0.285048
v 0.500000 -0.061602 1.120096
v 0.500000 0.111603 1.220096
v 0.629904 -0.099102 1.185048
v 0.629904 0.074103 1.285048
v 0.629904 -0.174103 1.314952
v 0.629904 -0.000897 1.414952
v 0.500000 -0.211603 1.379904
v 0.500000 -0.038397 1.479904
v 0.370096 -0.174103 1.314952
v 0.370096 -0.000897 1.414952
v 0.370096 -0.099102 1.185048
v 0.370096 0.074103 1.285048
v 0.500000 1.400000 -1.000000
v 0.500000 0.800000 0.050000
v 0.792636 1.400000 -0.971178
v 0.587791 0.800000 0.058646
v 1.074025 1.400000 -0.885819
v 0.672208 0.800000 0.084254
v 1.333355 1.400000 -0.747204
v 0.750007 0.800000 0.125838
v 1.560660 1.400000 -0.560660
v 0.818198 0.800000 0.181802
v 1.747205 1.400000 -0.333355
v 0.874161 0.800000 0.249993
v 1.885819 1.400000 -0.074025
v 0.915746 0.800000 0.327792
v 1.971178 1.400000 0.207364
v 0.941354 0.800000 0.412209
v 2.000000 1.400000 0.500000
v 0.950000 0.800000 0.500000
v 1.971178 1.400000 0.792635
v 0.941354 0.800000 0.587790
v 1.885819 1.400000 1.074025
v 0.915746 0.800000 0.672207
v 1.747205 1.400000 1.333355
v 0.874161 0.800000 0.750006
v 1.560660 1.400000 1.560660
v 0.818198 0.800000 0.818198
v 1.333355 1.400000 1.747205
v 0.750007 0.800000 0.874161
v 1.074025 1.400000 1.885819
v 0.672208 0.800000 0.915745
v 0.792635 1.400000 1.971178
v 0.587791 0.800000 0.941353
v 0.500000 1.400000 2.000000
v 0.500000 0.800000 0.950000
v 0.207364 1.400000 1.971178
v 0.412209 0.800000 0.941353
v -0.074026 1.400000 1.885819
v 0.327792 0.800000 0.915745
v -0.333356 1.400000 1.747204
v 0.249993 0.800000 0.874161
v -0.560661 1.400000 1.560660
v 0.181802 0.800000 0.818197
v -0.747205 1.400000 1.333354
v 0.125839 0.800000 0.750006
v -0.885820 1.400000 1.074024
v 0.084254 0.800000 0.672207
v -0.971178 1.400000 0.792634
v 0.058647 0.800000 0.587790
v -1.000000 1.400000 0.499999
v 0.050000 0.800000 0.499999
v -0.971178 1.400000 0.207363
v 0.058647 0.800000 0.412209
v -0.885819 1.400000 -0.074027
v 0.084255 0.800000 0.327792
v -0.747203 1.400000 -0.333357
v 0.125839 0.800000 0.249993
v -0.560659 1.400000 -0.560662
v 0.181803 0.800000 0.181801
v -0.333354 1.400000 -0.747205
v 0.249994 0.800000 0.125838
v -0.074023 1.400000 -0.885820
v 0.327793 0.800000 0.084254
v 0.207367 1.400000 -0.971178
v 0.412210 0.800000 0.058646
v 0.500000 1.250000 0.500000
v 0.500000 2.000000 -1.000000
v 0.792636 2.000000 -0.971178
v 1.074025 2.000000 -0.885819
v 1.333355 2.000000 -0.747204
v 1.560660 2.000000 -0.560660
v 1.747205 2.000000 -0.333355
v 1.885819 2.000000 -0.074025
v 1.971178 2.000000 0.207364
v 2.000000 2.000000 0.500000
v 1.971178 2.000000 0.792635
v 1.885819 2.000000 1.074025
v 1.747205 2.000000 1.333355
v 1.560660 2.000000 1.560660
v 1.333355 2.000000 1.747205
v 1.074025 2.000000 1.885819
v 0.792635 2.000000 1.971178
v 0.500000 2.000000 2.000000
v 0.207364 2.000000 1.971178
v -0.074026 2.000000 1.885819
v -0.333356 2.000000 1.747204
v -0.560661 2.000000 1.560660
v -0.747205 2.000000 1.333354
v -0.885820 2.000000 1.074024
v -0.971178 2.000000 0.792634
v -1.000000 2.000000 0.499999
v -0.971178 2.000000 0.207363
v -0.885819 2.000000 -0.074027
v -0.747203 2.000000 -0.333357
v -0.560659 2.000000 -0.560662
v -0.333354 2.000000 -0.747205
v -0.074023 2.000000 -0.885820
v 0.207367 2.000000 -0.971178
v -0.120096 -0.061602 0.500000
v -0.220096 0.111603 0.500000
v -0.185048 -0.099102 0.370096
v -0.285048 0.074103 0.370096
v -0.414952 -0.000897 0.370096
v -0.479904 -0.038397 0.500000
v -0.314952 -0.174102 0.629904
v -0.414952 -0.000897 0.629904
v -0.185048 -0.099102 0.629904
v -0.285048 0.074103 0.629904
v 0.061526 -0.061602 0.061526
v -0.009185 0.111603 -0.009185
v 0.036743 0.074103 -0.146969
v -0.055113 -0.000897 -0.238825
v -0.192897 -0.038397 -0.192897
v -0.076258 -0.099102 0.107454
v -0.146969 0.074103 0.036743
v 0.015598 -0.174103 1.168114
v -0.055113 -0.000897 1.238825
v 0.107454 -0.099102 1.076258
v 0.036743 0.074103 1.146969
v 0.938474 1.061603 0.938474
v 1.009185 0.888397 1.009185
v 1.076258 1.099102 0.892546
v 1.146969 0.925897 0.963257
v 1.168114 1.174103 0.984402
v 1.238825 1.000897 1.055113
v 1.122186 1.211603 1.122186
v 1.192897 1.038397 1.192897
v 0.984402 1.174103 1.168114
v 1.055113 1.000897 1.238825
v 0.892546 1.099102 1.076258
v 0.963257 0.925897 1.146969
v 0.061526 1.061603 0.938474
v -0.168114 1.174103 0.984402
v -0.076258 1.099102 0.892546
v -0.146969 0.925897 0.963257
v 0.500000 1.061603 1.120096
v 0.500000 0.888397 1.220096
v 0.629904 1.099102 1.185048
v 0.629904 0.925897 1.285048
v 0.629904 1.174103 1.314952
v 0.629904 1.000897 1.414952
v 0.500000 1.211603 1.379904
v 0.500000 1.038397 1.479904
v 0.370096 1.174103 1.314952
v 0.370096 1.000897 1.414952
v 0.370096 1.099102 1.185048
v 0.370096 0.925897 1.285048
v 0.500000 -0.400000 -1.000000
v 0.500000 0.200000 0.050000
v 0.792636 -0.400000 -0.971178
v 0.587791 0.200000 0.058646
v 1.074025 -0.400000 -0.885819
v 0.672208 0.200000 0.084254
v 1.333355 -0.400000 -0.747204
v 0.750007 0.200000 0.125838
v 1.560660 -0.400000 -0.560660
v 0.818198 0.200000 0.181802
v 1.747205 -0.400000 -0.333355
v 0.874161 0.200000 0.249993
v 1.885819 -0.400000 -0.074025
v 0.915746 0.200000 0.327792
v 1.971178 -0.400000 0.207364
v 0.941354 0.200000 0.412209
v 2.000000 -0.400000 0.500000
v 0.950000 0.200000 0.500000
v 1.971178 -0.400000 0.792635
v 0.941354 0.200000 0.587790
v 1.885819 -0.400000 1.074025
v 0.915746 0.200000 0.672207
v 1.747205 -0.400000 1.333355
v 0.874161 0.200000 0.750006
v 1.560660 -0.400000 1.560660
v 0.818198 0.200000 0.818198
v 1.333355 -0.400000 1.747205
v 0.750007 0.200000 0.874161
v 1.074025 -0.400000 1.885819
v 0.672208 0.200000 0.915745
v 0.792635 -0.400000 1.971178
v 0.587791 0.200000 0.941353
v 0.500000 -0.400000 2.000000
v 0.500000 0.200000 0.950000
v 0.207364 -0.400000 1.971178
v 0.412209 0.200000 0.941353
v -0.074026 -0.400000 1.885819
v 0.327792 0.200000 0.915745
v -0.333356 -0.400000 1.747204
v 0.249993 0.200000 0.874161
v -0.560661 -0.400000 1.560660
v 0.181802 0.200000 0.818197
v -0.747205 -0.400000 1.333354
v 0.125839 0.200000 0.750006
v -0.885820 -0.400000 1.074024
v 0.084254 0.200000 0.672207
v -0.971178 -0.400000 0.792634
v 0.058647 0.200000 0.587790
v -1.000000 -0.400000 0.499999
v 0.050000 0.200000 0.499999
v -0.971178 -0.400000 0.207363
v 0.058647 0.200000 0.412209
v -0.885819 -0.400000 -0.074027
v 0.084255 0.200000 0.327792
v -0.747203 -0.400000 -0.333357
v 0.125839 0.200000 0.249993
v -0.560659 -0.400000 -0.560662
v 0.181803 0.200000 0.181801
v -0.333354 -0.400000 -0.747205
v 0.249994 0.200000 0.125838
v -0.074023 -0.400000 -0.885820
v 0.327793 0.200000 0.084254
v 0.207367 -0.400000 -0.971178
v 0.412210 0.200000 0.058646
v 0.500000 -0.250000 0.500000
v 0.500000 -1.000000 -1.000000
v 0.792636 -1.000000 -0.971178
v 1.074025 -1.000000 -0.885819
v 1.333355 -1.000000 -0.747204
v 1.560660 -1.000000 -0.560660
v 1.747205 -1.000000 -0.333355
v 1.885819 -1.000000 -0.074025
v 1.971178 -1.000000 0.207364
v 2.000000 -1.000000 0.500000
v 1.971178 -1.000000 0.792635
v 1.885819 -1.000000 1.074025
v 1.747205 -1.000000 1.333355
v 1.560660 -1.000000 1.560660
v 1.333355 -1.000000 1.747205
v 1.074025 -1.000000 1.885819
v 0.792635 -1.000000 1.971178
v 0.500000 -1.000000 2.000000
v 0.207364 -1.000000 1.971178
v -0.074026 -1.000000 1.885819
v -0.333356 -1.000000 1.747204
v -0.560661 -1.000000 1.560660
v -0.747205 -1.000000 1.333354
v -0.885820 -1.000000 1.074024
v -0.971178 -1.000000 0.792634
v -1.000000 -1.000000 0.499999
v -0.971178 -1.000000 0.207363
v -0.885819 -1.000000 -0.074027
v -0.747203 -1.000000 -0.333357
v -0.560659 -1.000000 -0.560662
v -0.333354 -1.000000 -0.747205
v -0.074023 -1.000000 -0.885820
v 0.207367 -1.000000 -0.971178
v 0.500000 2.000000 -0.850000
v 0.763372 2.000000 -0.824060
v 1.016623 2.000000 -0.747237
v 1.250020 2.000000 -0.622484
v 1.454594 2.000000 -0.454594
v 1.622484 2.000000 -0.250020
v 1.747237 2.000000 -0.016623
v 1.824060 2.000000 0.236628
v 1.850000 2.000000 0.500000
v 1.824060 2.000000 0.763372
v 1.747237 2.000000 1.016622
v 1.622484 2.000000 1.250020
v 1.454594 2.000000 1.454594
v 1.250020 2.000000 1.622484
v 1.016622 2.000000 1.747237
v 0.763372 2.000000 1.824060
v 0.500000 2.000000 1.850000
v 0.236628 2.000000 1.824060
v -0.016623 2.000000 1.747237
v -0.250021 2.000000 1.622483
v -0.454595 2.000000 1.454594
v -0.622485 2.000000 1.250019
v -0.747238 2.000000 1.016622
v -0.824060 2.000000 0.763371
v -0.850000 2.000000 0.499999
v -0.824060 2.000000 0.236627
v -0.747237 2.000000 -0.016624
v -0.622483 2.000000 -0.250021
v -0.454593 2.000000 -0.454596
v -0.250018 2.000000 -0.622485
v -0.016621 2.000000 -0.747238
v 0.236630 2.000000 -0.824061
v 0.500000 -1.000000 -0.850000
v 0.763372 -1.000000 -0.824060
v 1.016623 -1.000000 -0.747237
v 1.250020 -1.000000 -0.622484
v 1.454594 -1.000000 -0.454594
v 1.622484 -1.000000 -0.250020
v 1.747237 -1.000000 -0.016623
v 1.824060 -1.000000 0.236628
v 1.850000 -1.000000 0.500000
v 1.824060 -1.000000 0.763372
v 1.747237 -1.000000 1.016622
v 1.622484 -1.000000 1.250020
v 1.454594 -1.000000 1.454594
v 1.250020 -1.000000 1.622484
v 1.016622 -1.000000 1.747237
v 0.763372 -1.000000 1.824060
v 0.500000 -1.000000 1.850000
v 0.236628 -1.000000 1.824060
v -0.016623 -1.000000 1.747237
v -0.250021 -1.000000 1.622483
v -0.454595 -1.000000 1.454594
v -0.622485 -1.000000 1.250019
v -0.747238 -1.000000 1.016622
v -0.824060 -1.000000 0.763371
v -0.850000 -1.000000 0.499999
v -0.824060 -1.000000 0.236627
v -0.747237 -1.000000 -0.016624
v -0.622483 -1.000000 -0.250021
v -0.454593 -1.000000 -0.454596
v -0.250018 -1.000000 -0.622485
v -0.016621 -1.000000 -0.747238
v 0.236630 -1.000000 -0.824061
v 0.500000 1.400000 -0.850000
v 0.763372 1.400000 -0.824060
v 1.016623 1.400000 -0.747237
v 1.250020 1.400000 -0.622484
v 1.454594 1.400000 -0.454594
v 1.622484 1.400000 -0.250020
v 1.747237 1.400000 -0.016623
v 1.824060 1.400000 0.236628
v 1.850000 1.400000 0.500000
v 1.824060 1.400000 0.763372
v 1.747237 1.400000 1.016622
v 1.622484 1.400000 1.250020
v 1.454594 1.400000 1.454594
v 1.250020 1.400000 1.622484
v 1.016622 1.400000 1.747237
v 0.763372 1.400000 1.824060
v 0.500000 1.400000 1.850000
v 0.236628 1.400000 1.824060
v -0.016623 1.400000 1.747237
v -0.250021 1.400000 1.622483
v -0.454595 1.400000 1.454594
v -0.622485 1.400000 1.250019
v -0.747238 1.400000 1.016622
v -0.824060 1.400000 0.763371
v -0.850000 1.400000 0.499999
v -0.824060 1.400000 0.236627
v -0.747237 1.400000 -0.016624
v -0.622483 1.400000 -0.250021
v -0.454593 1.400000 -0.454596
v -0.250018 1.400000 -0.622485
v -0.016621 1.400000 -0.747238
v 0.236630 1.400000 -0.824061
v 0.500000 -0.400000 -0.850000
v 0.763372 -0.400000 -0.824060
v 1.016623 -0.400000 -0.747237
v 1.250020 -0.400000 -0.622484
v 1.454594 -0.400000 -0.454594
v 1.622484 -0.400000 -0.250020
v 1.747237 -0.400000 -0.016623
v 1.824060 -0.400000 0.236628
v 1.850000 -0.400000 0.500000
v 1.824060 -0.400000 0.763372
v 1.747237 -0.400000 1.016622
v 1.622484 -0.400000 1.250020
v 1.454594 -0.400000 1.454594
v 1.250020 -0.400000 1.622484
v 1.016622 -0.400000 1.747237
v 0.763372 -0.400000 1.824060
v 0.500000 -0.400000 1.850000
v 0.236628 -0.400000 1.824060
v -0.016623 -0.400000 1.747237
v -0.250021 -0.400000 1.622483
v -0.454595 -0.400000 1.454594
v -0.622485 -0.400000 1.250019
v -0.747238 -0.400000 1.016622
v -0.824060 -0.400000 0.763371
v -0.850000 -0.400000 0.499999
v -0.824060 -0.400000 0.236627
v -0.747237 -0.400000 -0.016624
v -0.622483 -0.400000 -0.250021
v -0.454593 -0.400000 -0.454596
v -0.250018 -0.400000 -0.622485
v -0.016621 -0.400000 -0.747238
v 0.236630 -0.400000 -0.824061
vn -1.0000 -0.0000 -0.0000
vn -0.0000 -1.0000 -0.0000
vn -0.0000 -0.0000 1.0000
vn 1.0000 -0.0000 -0.0000
vn -0.0000 -0.0000 -1.0000
vn -0.0000 1.0000 -0.0000
vn 0.5000 -0.4330 0.7500
vn 0.5000 0.4330 -0.7500
vn -0.5000 0.4330 -0.7500
vn -0.0000 -0.8660 -0.5000
vn -0.5000 -0.4330 0.7500
vn 0.7500 -0.4330 -0.5000
vn -0.7500 0.4330 -0.5000
vn -0.7500 0.4330 0.5000
vn -0.5000 -0.8660 -0.0000
vn 0.7500 -0.4330 0.5000
vn -0.7500 -0.4330 0.5000
vn 0.7500 0.4330 0.5000
vn 0.7500 0.4330 -0.5000
vn 0.5000 -0.8660 -0.0000
vn -0.7500 -0.4330 -0.5000
vn 0.8839 -0.4330 0.1768
vn 0.7071 -0.0000 -0.7071
vn -0.1768 0.4330 -0.8839
vn -0.8839 0.4330 -0.1768
vn -0.3536 -0.8660 -0.3536
vn 0.1768 -0.4330 0.8839
vn -0.7071 -0.0000 0.7071
vn -0.1768 0.4330 0.8839
vn 0.7071 -0.0000 0.7071
vn -0.1768 -0.4330 0.8839
vn 0.8839 0.4330 -0.1768
vn 0.1768 0.4330 -0.8839
vn 0.3536 -0.8660 -0.3536
vn -0.8839 -0.4330 0.1768
vn -0.7071 -0.0000 -0.7071
vn 0.3536 0.8660 0.3536
vn -0.8839 0.4330 0.1768
vn 0.1768 -0.4330 -0.8839
vn 0.8839 -0.4330 -0.1768
vn 0.3536 0.8660 -0.3536
vn 0.5000 0.8660 -0.0000
vn -0.5000 0.4330 0.7500
vn -0.5000 -0.4330 -0.7500
vn 0.5000 -0.4330 -0.7500
vn -0.0000 0.8660 -0.5000
vn 0.5000 0.4330 0.7500
vn -0.0000 0.8660 0.5000
vn 0.0488 -0.8672 -0.4955
vn 0.1445 -0.8672 -0.4765
vn 0.2347 -0.8672 -0.4391
vn 0.3159 -0.8672 -0.3849
vn 0.3849 -0.8672 -0.3159
vn 0.4391 -0.8672 -0.2347
vn 0.4765 -0.8672 -0.1445
vn 0.4765 -0.8672 -0.1446
vn 0.4955 -0.8672 -0.0488
vn 0.4955 -0.8672 0.0488
vn 0.4765 -0.8672 0.1445
vn 0.4765 -0.8672 0.1446
vn 0.4391 -0.8672 0.2347
vn 0.3849 -0.8672 0.3159
vn 0.3159 -0.8672 0.3849
vn 0.2347 -0.8672 0.4391
vn 0.1445 -0.8672 0.4765
vn 0.0488 -0.8672 0.4955
vn -0.0488 -0.8672 0.4955
vn -0.1445 -0.8672 0.4765
vn -0.2347 -0.8672 0.4391
vn -0.2347 -0.8672 0.4392
vn -0.3159 -0.8672 0.3849
vn -0.3849 -0.8672 0.3159
vn -0.4391 -0.8672 0.2347
vn -0.4765 -0.8672 0.1445
vn -0.4955 -0.8672 0.0488
vn -0.4955 -0.8672 -0.0488
vn -0.4765 -0.8672 -0.1445
vn -0.4391 -0.8672 -0.2347
vn -0.4392 -0.8672 -0.2347
vn -0.3849 -0.8672 -0.3159
vn -0.3159 -0.8672 -0.3849
vn -0.2347 -0.8672 -0.4391
vn -0.0488 -0.8672 -0.4955
vn -0.1445 -0.8672 -0.4765
vn 0.2903 -0.0000 -0.9569
vn -0.0695 -0.7054 0.7054
vn 0.0695 -0.7054 0.7054
vn 0.2058 -0.7054 0.6783
vn 0.3341 -0.7054 0.6251
vn 0.4497 -0.7054 0.5479
vn 0.5479 -0.7054 0.4497
vn 0.6251 -0.7054 0.3341
vn 0.6783 -0.7054 0.2058
vn 0.7054 -0.7054 0.0695
vn 0.7054 -0.7054 -0.0695
vn 0.6783 -0.7054 -0.2058
vn 0.6251 -0.7054 -0.3341
vn 0.5479 -0.7054 -0.4497
vn 0.4497 -0.7054 -0.5479
vn 0.3341 -0.7054 -0.6251
vn 0.2058 -0.7054 -0.6783
vn 0.0695 -0.7054 -0.7054
vn -0.0695 -0.7054 -0.7054
vn -0.2058 -0.7054 -0.6783
vn -0.3341 -0.7054 -0.6251
vn -0.4497 -0.7054 -0.5479
vn -0.5479 -0.7054 -0.4497
vn -0.6251 -0.7054 -0.3341
vn -0.6783 -0.7054 -0.2058
vn -0.7054 -0.7054 -0.0695
vn -0.7054 -0.7054 0.0695
vn -0.6783 -0.7054 0.2058
vn -0.6251 -0.7054 0.3341
vn -0.5479 -0.7054 0.4497
vn -0.4497 -0.7054 0.5479
vn -0.3341 -0.7054 0.6251
vn -0.2058 -0.7054 0.6783
vn 0.8819 -0.0000 0.4714
vn -0.6344 -0.0000 0.7730
vn -0.6344 -0.0000 -0.7730
vn 0.9569 -0.0000 -0.2903
vn 0.0980 -0.0000 0.9952
vn -0.9952 -0.0000 -0.0980
vn 0.4714 -0.0000 -0.8819
vn 0.7730 -0.0000 0.6344
vn -0.7730 -0.0000 0.6344
vn -0.4714 -0.0000 -0.8819
vn 0.9952 -0.0000 -0.0980
vn -0.0980 -0.0000 0.9952
vn -0.9569 -0.0000 -0.2903
vn 0.6344 -0.0000 -0.7730
vn 0.6344 -0.0000 0.7730
vn -0.8819 -0.0000 0.4714
vn -0.2903 -0.0000 -0.9569
vn 0.9952 -0.0000 0.0980
vn -0.2903 -0.0000 0.9569
vn -0.8819 -0.0000 -0.4714
vn 0.7730 -0.0000 -0.6344
vn 0.4714 -0.0000 0.8819
vn 0.0980 -0.0000 -0.9952
vn -0.9569 -0.0000 0.2903
vn -0.0980 -0.0000 -0.9952
vn 0.9569 -0.0000 0.2903
vn -0.4714 -0.0000 0.8819
vn -0.7730 -0.0000 -0.6344
vn 0.8819 -0.0000 -0.4714
vn 0.2903 -0.0000 0.9569
vn -0.9952 -0.0000 0.0980
vn -0.5000 0.8660 -0.0000
vn 0.1768 0.4330 0.8839
vn -0.1768 -0.4330 -0.8839
vn 0.8839 0.4330 0.1768
vn 0.3536 -0.8660 0.3536
vn -0.8839 -0.4330 -0.1768
vn -0.0000 -0.8660 0.5000
vn 0.0488 0.8672 -0.4955
vn 0.1445 0.8672 -0.4765
vn 0.2347 0.8672 -0.4391
vn 0.3159 0.8672 -0.3849
vn 0.3849 0.8672 -0.3159
vn 0.4391 0.8672 -0.2347
vn 0.4765 0.8672 -0.1445
vn 0.4955 0.8672 -0.0488
vn 0.4955 0.8672 0.0488
vn 0.4765 0.8672 0.1445
vn 0.4391 0.8672 0.2347
vn 0.3849 0.8672 0.3159
vn 0.3159 0.8672 0.3849
vn 0.2347 0.8672 0.4391
vn 0.2347 0.8672 0.4392
vn 0.1445 0.8672 0.4765
vn 0.0488 0.8672 0.4955
vn -0.0488 0.8672 0.4955
vn -0.1445 0.8672 0.4765
vn -0.2347 0.8672 0.4391
vn -0.3159 0.8672 0.3849
vn -0.3849 0.8672 0.3159
vn -0.4391 0.8672 0.2347
vn -0.4765 0.8672 0.1445
vn -0.4955 0.8672 0.0488
vn -0.4955 0.8672 -0.0488
vn -0.4765 0.8672 -0.1445
vn -0.4392 0.8672 -0.2347
vn -0.4391 0.8672 -0.2347
vn -0.3849 0.8672 -0.3159
vn -0.3159 0.8672 -0.3849
vn -0.2347 0.8672 -0.4391
vn -0.0488 0.8672 -0.4955
vn -0.1445 0.8672 -0.4765
vn -0.0695 0.7054 0.7054
vn 0.0695 0.7054 0.7054
vn 0.2058 0.7054 0.6783
vn 0.3341 0.7054 0.6251
vn 0.4497 0.7054 0.5479
vn 0.5479 0.7054 0.4497
vn 0.6251 0.7054 0.3341
vn 0.6783 0.7054 0.2058
vn 0.7054 0.7054 0.0695
vn 0.7054 0.7054 -0.0695
vn 0.6783 0.7054 -0.2058
vn 0.6251 0.7054 -0.3341
vn 0.5479 0.7054 -0.4497
vn 0.4497 0.7054 -0.5479
vn 0.3341 0.7054 -0.6251
vn 0.2058 0.7054 -0.6783
vn 0.0695 0.7054 -0.7054
vn -0.0695 0.7054 -0.7054
vn -0.2058 0.7054 -0.6783
vn -0.3341 0.7054 -0.6251
vn -0.4497 0.7054 -0.5479
vn -0.5479 0.7054 -0.4497
vn -0.6251 0.7054 -0.3341
vn -0.6783 0.7054 -0.2058
vn -0.7054 0.7054 -0.0695
vn -0.7054 0.7054 0.0695
vn -0.6783 0.7054 0.2058
vn -0.6251 0.7054 0.3341
vn -0.5479 0.7054 0.4497
vn -0.4497 0.7054 0.5479
vn -0.3341 0.7054 0.6251
vn -0.2058 0.7054 0.6783
vn -0.3536 -0.8660 0.3536
vn -0.3536 0.8660 -0.3536
vn -0.3536 0.8660 0.3536
vt 0.201172 0.062500
vt 0.220703 0.000000
vt 0.201172 0.000000
vt 0.220703 0.027344
vt 0.244141 0.000000
vt 0.220703 0.062500
vt 0.162109 0.062500
vt 0.138672 0.039062
vt 0.113281 0.062500
vt 0.087891 0.000000
vt 0.062500 0.029297
vt 0.087891 0.029297
vt 0.087891 0.046875
vt 0.062500 0.046875
vt 0.087891 0.062500
vt 0.113281 0.039062
vt 0.087891 0.039062
vt 0.113281 0.000000
vt 0.162109 0.039062
vt 0.138672 0.000000
vt 0.500000 0.975063
vt 0.516664 0.997281
vt 0.516664 0.975063
vt 0.533328 0.975063
vt 0.533328 0.997281
vt 0.549992 0.975063
vt 0.549992 0.997281
vt 0.450008 0.975063
vt 0.466672 0.997281
vt 0.466672 0.975063
vt 0.269393 0.666719
vt 0.125078 0.916680
vt 0.413708 0.916680
vt 0.483336 0.997281
vt 0.500000 0.997281
vt 0.483336 0.975063
vt 0.269393 1.000000
vt 0.450008 0.997281
vt 0.858739 0.567064
vt 0.722144 0.394136
vt 0.812416 0.593050
vt 0.899984 0.533599
vt 0.736041 0.386340
vt 0.758906 0.364307
vt 0.748414 0.376300
vt 0.934956 0.493623
vt 0.767212 0.350709
vt 0.982240 0.398930
vt 0.962642 0.448296
vt 0.993182 0.346955
vt 0.773091 0.335899
vt 0.776965 0.304384
vt 0.776374 0.320307
vt 0.995152 0.293878
vt 0.774847 0.288591
vt 0.972207 0.190553
vt 0.988092 0.241235
vt 0.947956 0.143298
vt 0.770081 0.273386
vt 0.753232 0.246473
vt 0.762806 0.259210
vt 0.916043 0.100841
vt 0.741637 0.235543
vt 0.877392 0.064410
vt 0.728356 0.226739
vt 0.833123 0.035062
vt 0.713774 0.220314
vt 0.732985 0.000784
vt 0.784518 0.013647
vt 0.682424 0.215275
vt 0.698314 0.216456
vt 0.418955 0.143299
vt 0.613679 0.246473
vt 0.450868 0.100841
vt 0.394705 0.190553
vt 0.604106 0.259210
vt 0.378819 0.241236
vt 0.596830 0.273386
vt 0.589947 0.304384
vt 0.592065 0.288591
vt 0.373729 0.346956
vt 0.371759 0.293878
vt 0.384672 0.398930
vt 0.590538 0.320307
vt 0.404270 0.448296
vt 0.593820 0.335900
vt 0.431956 0.493623
vt 0.599700 0.350709
vt 0.466928 0.533599
vt 0.608006 0.364308
vt 0.508173 0.567064
vt 0.618497 0.376300
vt 0.554496 0.593050
vt 0.630871 0.386340
vt 0.604555 0.610804
vt 0.644768 0.394136
vt 0.656899 0.619812
vt 0.659786 0.399462
vt 0.710013 0.619812
vt 0.675489 0.402164
vt 0.707126 0.399462
vt 0.762357 0.610804
vt 0.691423 0.402164
vt 0.000000 0.531348
vt 0.063751 0.562592
vt 0.063751 0.531348
vt 0.757215 0.316610
vt 0.683564 0.309356
vt 0.754385 0.330840
vt 0.748833 0.344243
vt 0.740773 0.356306
vt 0.730514 0.366565
vt 0.718451 0.374625
vt 0.705048 0.380177
vt 0.690818 0.383007
vt 0.676310 0.383007
vt 0.662081 0.380177
vt 0.648678 0.374625
vt 0.636615 0.366565
vt 0.626356 0.356306
vt 0.618296 0.344243
vt 0.612744 0.330840
vt 0.609913 0.316610
vt 0.609913 0.302102
vt 0.612744 0.287873
vt 0.618296 0.274470
vt 0.626356 0.262407
vt 0.636615 0.252148
vt 0.648678 0.244088
vt 0.662081 0.238536
vt 0.676310 0.235705
vt 0.690818 0.235705
vt 0.705048 0.238536
vt 0.718451 0.244088
vt 0.730514 0.252148
vt 0.740773 0.262407
vt 0.748833 0.274470
vt 0.754385 0.287873
vt 0.757215 0.302102
vt 0.000001 0.812539
vt 0.063752 0.843783
vt 0.063752 0.812539
vt 0.000000 0.093940
vt 0.063751 0.125184
vt 0.063751 0.093940
vt 0.000000 0.375131
vt 0.063751 0.406375
vt 0.063751 0.375131
vt 0.000001 0.687565
vt 0.063752 0.718809
vt 0.063752 0.687565
vt 0.000001 0.968756
vt 0.063752 1.000000
vt 0.063752 0.968756
vt 0.000000 0.250157
vt 0.063751 0.281401
vt 0.063751 0.250157
vt 0.000000 0.562592
vt 0.063751 0.593835
vt 0.000001 0.843783
vt 0.063752 0.875026
vt 0.000000 0.125184
vt 0.063751 0.156427
vt 0.000000 0.406375
vt 0.063751 0.437618
vt 0.000001 0.718809
vt 0.063752 0.750052
vt 0.000000 0.000210
vt 0.063751 0.031453
vt 0.063751 0.000210
vt 0.000000 0.281401
vt 0.063751 0.312644
vt 0.000000 0.593835
vt 0.063751 0.625078
vt 0.000001 0.875026
vt 0.063752 0.906269
vt 0.000000 0.156427
vt 0.063751 0.187670
vt 0.000000 0.437618
vt 0.063751 0.468861
vt 0.000001 0.750052
vt 0.063752 0.781296
vt 0.000000 0.031453
vt 0.063751 0.062697
vt 0.000000 0.312644
vt 0.063751 0.343888
vt 0.000000 0.625078
vt 0.063751 0.656322
vt 0.000001 0.906269
vt 0.063752 0.937513
vt 0.000000 0.500105
vt 0.063751 0.500105
vt 0.000000 0.187671
vt 0.063751 0.218914
vt 0.000000 0.468862
vt 0.000001 0.781296
vt 0.000000 0.062697
vt 0.000000 0.343888
vt 0.000001 0.656322
vt 0.000001 0.937513
vt 0.000000 0.218914
vt 0.125078 0.750039
vt 0.680017 -0.003152
vt 0.000001 1.000000
vt 0.976562 0.953125
vt 0.806641 0.970703
vt 0.789062 0.800781
vt 0.808594 0.966797
vt 0.792969 0.802734
vt 0.957031 0.787109
vt 0.244141 0.027344
vt 0.062500 0.000000
vt 0.413708 0.750039
vt 0.958984 0.783203
vt 0.976562 0.800781
vt 0.988281 0.824219
vt 0.994141 0.841797
vt 1.000000 0.865234
vt 1.000000 0.888672
vt 0.994141 0.912109
vt 0.988281 0.929688
vt 0.958984 0.970703
vt 0.935547 0.982422
vt 0.917969 0.988281
vt 0.894531 0.994141
vt 0.871094 0.994141
vt 0.847656 0.988281
vt 0.830078 0.982422
vt 0.789062 0.953125
vt 0.777344 0.929688
vt 0.771484 0.912109
vt 0.765625 0.888672
vt 0.765625 0.865234
vt 0.771484 0.841797
vt 0.777344 0.824219
vt 0.806641 0.783203
vt 0.830078 0.771484
vt 0.847656 0.765625
vt 0.871094 0.759766
vt 0.894531 0.759766
vt 0.917969 0.765625
vt 0.935547 0.771484
vt 0.972656 0.802734
vt 0.986328 0.822266
vt 0.996094 0.843750
vt 0.972656 0.951172
vt 0.996094 0.910156
vt 0.986328 0.931641
vt 0.957031 0.966797
vt 0.937500 0.980469
vt 0.916016 0.990234
vt 0.849609 0.990234
vt 0.828125 0.980469
vt 0.792969 0.951172
vt 0.779297 0.931641
vt 0.769531 0.910156
vt 0.769531 0.843750
vt 0.779297 0.822266
vt 0.808594 0.787109
vt 0.828125 0.773438
vt 0.849609 0.763672
vt 0.916016 0.763672
vt 0.937500 0.773438
s 1
usemtl Material
f 6/1/1 1/2/1 5/3/1
f 7/4/2 1/5/2 3/2/2
f 8/1/3 5/2/3 7/3/3
f 4/1/4 7/2/4 3/3/4
f 2/6/5 3/3/5 1/2/5
f 14/1/1 9/2/1 13/3/1
f 15/4/2 9/5/2 11/2/2
f 16/1/3 13/2/3 15/3/3
f 12/1/4 15/2/4 11/3/4
f 10/6/5 11/3/5 9/2/5
f 22/1/1 17/2/1 21/3/1
f 23/4/2 17/5/2 19/2/2
f 24/1/3 21/2/3 23/3/3
f 20/1/4 23/2/4 19/3/4
f 18/6/5 19/3/5 17/2/5
f 30/1/1 25/2/1 29/3/1
f 31/4/2 25/5/2 27/2/2
f 32/1/3 29/2/3 31/3/3
f 28/1/4 31/2/4 27/3/4
f 26/6/5 27/3/5 25/2/5
f 33/2/5 38/1/5 37/3/5
f 33/5/6 39/4/6 35/2/6
f 37/3/1 40/6/1 39/2/1
f 39/2/3 36/1/3 35/3/3
f 35/3/4 34/6/4 33/2/4
f 41/2/5 46/1/5 45/3/5
f 41/5/6 47/4/6 43/2/6
f 45/3/1 48/6/1 47/2/1
f 47/2/3 44/1/3 43/3/3
f 43/3/4 42/6/4 41/2/4
f 49/2/5 54/1/5 53/3/5
f 49/5/6 55/4/6 51/2/6
f 53/3/1 56/6/1 55/2/1
f 55/2/3 52/1/3 51/3/3
f 51/3/4 50/6/4 49/2/4
f 57/2/5 62/1/5 61/3/5
f 57/5/6 63/4/6 59/2/6
f 61/3/1 64/6/1 63/2/1
f 63/2/3 60/1/3 59/3/3
f 59/3/4 58/6/4 57/2/4
f 70/1/5 65/2/5 69/3/5
f 71/4/2 65/5/2 67/2/2
f 72/1/1 69/2/1 71/3/1
f 68/1/3 71/2/3 67/3/3
f 66/6/4 67/3/4 65/2/4
f 78/1/5 73/2/5 77/3/5
f 79/4/2 73/5/2 75/2/2
f 80/1/1 77/2/1 79/3/1
f 76/1/3 79/2/3 75/3/3
f 74/6/4 75/3/4 73/2/4
f 86/1/5 81/2/5 85/3/5
f 87/4/2 81/5/2 83/2/2
f 88/1/1 85/2/1 87/3/1
f 84/1/3 87/2/3 83/3/3
f 82/6/4 83/3/4 81/2/4
f 94/1/5 89/2/5 93/3/5
f 95/4/2 89/5/2 91/2/2
f 96/1/1 93/2/1 95/3/1
f 92/1/3 95/2/3 91/3/3
f 90/6/4 91/3/4 89/2/4
f 97/2/5 102/1/5 101/3/5
f 97/5/6 103/4/6 99/2/6
f 101/3/1 104/6/1 103/2/1
f 103/2/3 100/1/3 99/3/3
f 99/3/4 98/6/4 97/2/4
f 105/2/5 110/1/5 109/3/5
f 105/5/6 111/4/6 107/2/6
f 109/3/1 112/6/1 111/2/1
f 111/2/3 108/1/3 107/3/3
f 107/3/4 106/6/4 105/2/4
f 113/2/5 118/1/5 117/3/5
f 113/5/6 119/4/6 115/2/6
f 117/3/1 120/6/1 119/2/1
f 119/2/3 116/1/3 115/3/3
f 115/3/4 114/6/4 113/2/4
f 121/2/5 126/1/5 125/3/5
f 121/5/6 127/4/6 123/2/6
f 125/3/1 128/6/1 127/2/1
f 127/2/3 124/1/3 123/3/3
f 123/3/4 122/6/4 121/2/4
f 130/7/3 131/8/3 132/9/3
f 137/10/4 131/11/4 135/12/4
f 135/8/5 134/7/5 136/9/5
f 133/13/6 131/11/6 129/14/6
f 134/15/2 132/16/2 136/17/2
f 139/18/5 135/8/5 136/9/5
f 140/18/1 136/17/1 132/16/1
f 131/8/3 140/18/3 132/9/3
f 142/7/4 143/8/4 144/9/4
f 149/10/5 143/11/5 147/12/5
f 147/8/1 146/7/1 148/9/1
f 145/13/6 143/11/6 141/14/6
f 142/9/2 148/17/2 146/15/2
f 151/18/1 147/8/1 148/9/1
f 152/18/3 148/17/3 144/16/3
f 143/8/4 152/18/4 144/9/4
f 154/7/5 155/8/5 156/9/5
f 161/10/1 155/11/1 159/12/1
f 159/8/3 158/7/3 160/9/3
f 157/13/6 155/11/6 153/14/6
f 154/9/2 160/17/2 158/15/2
f 163/18/3 159/8/3 160/9/3
f 164/18/4 160/17/4 156/16/4
f 155/8/5 164/18/5 156/9/5
f 166/7/1 167/8/1 168/9/1
f 173/10/3 167/11/3 171/12/3
f 171/8/4 170/7/4 172/9/4
f 169/13/6 167/11/6 165/14/6
f 166/9/2 172/17/2 170/15/2
f 175/18/4 171/8/4 172/9/4
f 176/18/5 172/17/5 168/16/5
f 167/8/1 176/18/1 168/9/1
f 178/7/3 179/8/3 177/19/3
f 179/11/4 185/10/4 183/12/4
f 182/7/5 183/8/5 184/9/5
f 177/14/2 183/12/2 181/13/2
f 182/15/6 180/16/6 178/9/6
f 183/8/5 187/18/5 184/9/5
f 184/17/1 188/18/1 180/16/1
f 179/8/3 188/18/3 186/20/3
f 190/7/4 191/8/4 189/19/4
f 191/11/5 197/10/5 195/12/5
f 194/7/1 195/8/1 196/9/1
f 191/11/2 193/13/2 189/14/2
f 196/17/6 190/9/6 194/15/6
f 195/8/1 199/18/1 196/9/1
f 196/17/3 200/18/3 192/16/3
f 191/8/4 200/18/4 198/20/4
f 202/7/5 203/8/5 201/19/5
f 203/11/1 209/10/1 207/12/1
f 206/7/3 207/8/3 208/9/3
f 203/11/2 205/13/2 201/14/2
f 208/17/6 202/9/6 206/15/6
f 207/8/3 211/18/3 208/9/3
f 208/17/4 212/18/4 204/16/4
f 203/8/5 212/18/5 210/20/5
f 214/7/1 215/8/1 213/19/1
f 215/11/3 221/10/3 219/12/3
f 218/7/4 219/8/4 220/9/4
f 215/11/2 217/13/2 213/14/2
f 220/17/6 214/9/6 218/15/6
f 219/8/4 223/18/4 220/9/4
f 220/17/5 224/18/5 216/16/5
f 215/8/1 224/18/1 222/20/1
f 226/21/7 227/22/7 225/23/7
f 227/24/4 230/22/4 229/25/4
f 229/26/8 232/25/8 231/27/8
f 232/28/9 233/29/9 231/30/9
f 226/31/10 234/32/10 230/33/10
f 235/21/11 226/34/11 225/35/11
f 234/30/1 235/34/1 233/36/1
f 238/21/12 239/22/12 237/23/12
f 239/24/5 242/22/5 241/25/5
f 241/26/13 244/25/13 243/27/13
f 244/28/14 245/29/14 243/30/14
f 244/37/15 242/33/15 238/31/15
f 248/36/16 237/35/16 247/21/16
f 246/30/3 247/34/3 245/36/3
f 250/21/17 251/22/17 249/23/17
f 251/24/3 254/22/3 253/25/3
f 254/24/18 255/27/18 253/26/18
f 256/28/19 257/29/19 255/30/19
f 256/37/20 254/33/20 250/31/20
f 260/36/21 249/35/21 259/21/21
f 258/30/5 259/34/5 257/36/5
f 261/23/22 264/35/22 263/22/22
f 263/24/23 266/22/23 265/25/23
f 265/26/24 268/25/24 267/27/24
f 267/30/25 270/38/25 269/29/25
f 270/32/26 268/37/26 266/33/26
f 272/36/27 261/35/27 271/21/27
f 270/30/28 271/34/28 269/36/28
f 276/28/29 277/29/29 275/30/29
f 278/30/30 279/34/30 277/36/30
f 281/23/31 284/35/31 283/22/31
f 284/23/30 285/25/30 283/24/30
f 285/26/32 288/25/32 287/27/32
f 287/30/33 290/38/33 289/29/33
f 290/32/34 288/37/34 286/33/34
f 292/36/35 281/35/35 291/21/35
f 290/30/36 291/34/36 289/36/36
f 294/21/24 295/22/24 293/23/24
f 296/23/23 297/25/23 295/24/23
f 297/26/22 300/25/22 299/27/22
f 300/28/27 301/29/27 299/30/27
f 294/31/37 302/32/37 298/33/37
f 304/36/25 293/35/25 303/21/25
f 302/30/28 303/34/28 301/36/28
f 313/28/35 314/29/35 312/30/35
f 317/36/33 310/35/33 316/21/33
f 315/30/36 316/34/36 314/36/36
f 319/21/38 320/22/38 318/23/38
f 320/24/36 323/22/36 322/25/36
f 322/26/39 325/25/39 324/27/39
f 324/30/40 327/38/40 326/29/40
f 327/32/41 325/37/41 323/33/41
f 329/36/29 318/35/29 328/21/29
f 327/30/30 328/34/30 326/36/30
f 330/23/13 333/35/13 332/22/13
f 332/24/5 335/22/5 334/25/5
f 335/24/12 336/27/12 334/26/12
f 336/30/16 339/38/16 338/29/16
f 331/31/42 339/32/42 335/33/42
f 340/21/14 331/34/14 330/35/14
f 339/30/3 340/34/3 338/36/3
f 344/23/43 347/35/43 346/22/43
f 346/24/1 349/22/1 348/25/1
f 349/24/44 350/27/44 348/26/44
f 351/28/45 352/29/45 350/30/45
f 345/31/46 353/32/46 349/33/46
f 355/36/47 344/35/47 354/21/47
f 353/30/4 354/34/4 352/36/4
f 357/21/8 358/22/8 356/23/8
f 358/24/4 361/22/4 360/25/4
f 361/24/7 362/27/7 360/26/7
f 362/30/11 365/38/11 364/29/11
f 357/31/48 365/32/48 361/33/48
f 367/36/9 356/35/9 366/21/9
f 365/30/1 366/34/1 364/36/1
f 370/39/49 369/40/49 368/41/49
f 372/42/50 371/43/50 370/39/50
f 372/42/51 375/44/51 373/45/51
f 374/46/52 377/47/52 375/44/52
f 378/48/53 377/47/53 376/49/53
f 380/50/54 379/51/54 378/48/54
f 380/50/55 383/52/56 381/53/56
f 382/54/57 385/55/57 383/52/57
f 386/56/58 385/55/58 384/57/58
f 388/58/59 387/59/60 386/56/59
f 388/58/61 391/60/61 389/61/61
f 390/62/62 393/63/62 391/60/62
f 392/64/63 395/65/63 393/63/63
f 394/66/64 397/67/64 395/65/64
f 398/68/65 397/67/65 396/69/65
f 398/68/66 401/70/66 399/71/66
f 402/72/67 401/73/67 400/74/67
f 404/75/68 403/76/68 402/72/68
f 406/77/69 405/78/70 404/75/69
f 406/77/71 409/79/71 407/80/71
f 410/81/72 409/79/72 408/82/72
f 412/83/73 411/84/73 410/81/73
f 414/85/74 413/86/74 412/83/74
f 416/87/75 415/88/75 414/85/75
f 418/89/76 417/90/76 416/87/76
f 420/91/77 419/92/77 418/89/77
f 422/93/78 421/94/79 420/91/78
f 424/95/80 423/96/80 422/93/80
f 426/97/81 425/98/81 424/95/81
f 428/99/82 427/100/82 426/97/82
f 368/41/83 431/101/83 430/102/83
f 430/102/84 429/103/84 428/99/84
f 434/104/85 372/105/85 370/106/85
f 371/107/86 432/108/86 369/109/86
f 369/109/87 432/108/87 431/110/87
f 431/110/88 432/108/88 429/111/88
f 429/111/89 432/108/89 427/112/89
f 427/112/90 432/108/90 425/113/90
f 425/113/91 432/108/91 423/114/91
f 423/114/92 432/108/92 421/115/92
f 421/115/93 432/108/93 419/116/93
f 419/116/94 432/108/94 417/117/94
f 417/117/95 432/108/95 415/118/95
f 415/118/96 432/108/96 413/119/96
f 413/119/97 432/108/97 411/120/97
f 411/120/98 432/108/98 409/121/98
f 409/121/99 432/108/99 407/122/99
f 407/122/100 432/108/100 405/123/100
f 405/123/101 432/108/101 403/124/101
f 403/124/102 432/108/102 401/125/102
f 401/125/103 432/108/103 399/126/103
f 399/126/104 432/108/104 397/127/104
f 397/127/105 432/108/105 395/128/105
f 395/128/106 432/108/106 393/129/106
f 393/129/107 432/108/107 391/130/107
f 391/130/108 432/108/108 389/131/108
f 389/131/109 432/108/109 387/132/109
f 387/132/110 432/108/110 385/133/110
f 385/133/111 432/108/111 383/134/111
f 383/134/112 432/108/112 381/135/112
f 381/135/113 432/108/113 379/136/113
f 379/136/114 432/108/114 377/137/114
f 377/137/115 432/108/115 375/138/115
f 375/138/116 432/108/116 373/139/116
f 373/139/117 432/108/117 371/107/117
f 443/140/118 390/141/118 388/142/118
f 452/143/119 408/144/119 406/145/119
f 461/146/120 426/147/120 424/148/120
f 439/149/121 382/150/121 380/151/121
f 448/152/122 400/153/122 398/154/122
f 457/155/123 418/156/123 416/157/123
f 435/158/124 374/159/124 372/105/124
f 444/160/125 392/161/125 390/141/125
f 453/162/126 410/163/126 408/144/126
f 462/164/127 428/165/127 426/147/127
f 440/166/128 384/167/128 382/150/128
f 449/168/129 402/169/129 400/170/129
f 458/171/130 420/172/130 418/156/130
f 436/173/131 376/174/131 374/159/131
f 445/175/132 394/176/132 392/161/132
f 454/177/133 412/178/133 410/163/133
f 463/179/134 430/180/134 428/165/134
f 441/181/135 386/182/135 384/167/135
f 450/183/136 404/184/136 402/169/136
f 459/185/137 422/186/137 420/172/137
f 437/187/138 378/188/138 376/174/138
f 446/189/139 396/190/139 394/176/139
f 433/191/140 370/106/140 368/192/140
f 455/193/141 414/194/141 412/178/141
f 464/195/142 368/192/142 430/180/142
f 442/196/143 388/142/143 386/182/143
f 451/197/144 406/145/144 404/184/144
f 460/198/145 424/148/145 422/186/145
f 438/199/146 380/151/146 378/188/146
f 447/200/147 398/154/147 396/190/147
f 456/201/148 416/157/148 414/194/148
f 465/23/19 468/35/19 466/21/19
f 472/32/149 474/202/149 466/31/149
f 465/35/18 474/36/18 473/21/18
f 473/34/3 472/30/3 471/36/3
f 480/21/150 476/34/150 481/36/150
f 482/36/30 485/29/30 483/30/30
f 486/23/151 489/35/151 487/21/151
f 488/24/23 491/22/23 489/23/23
f 490/26/152 493/25/152 491/24/152
f 494/29/150 493/28/150 492/30/150
f 495/32/153 497/202/153 487/31/153
f 496/21/154 487/34/154 497/36/154
f 496/34/28 495/30/28 494/36/28
f 504/22/45 503/21/45 502/23/45
f 504/24/4 507/22/4 505/23/4
f 508/27/47 507/24/47 506/26/47
f 508/30/43 511/38/43 509/28/43
f 511/32/155 513/202/155 503/31/155
f 502/35/44 513/36/44 512/21/44
f 512/34/1 511/30/1 510/36/1
f 515/40/156 516/39/156 514/41/156
f 517/43/157 518/42/157 516/39/157
f 518/42/158 521/44/158 520/46/158
f 520/46/159 523/47/159 522/49/159
f 522/49/160 525/51/160 524/48/160
f 525/51/161 526/50/161 524/48/161
f 526/50/162 529/52/162 528/54/162
f 528/54/163 531/55/163 530/57/163
f 530/57/164 533/59/164 532/56/164
f 532/56/165 535/61/165 534/58/165
f 535/61/166 536/62/166 534/58/166
f 537/60/167 538/64/167 536/62/167
f 538/64/168 541/65/168 540/66/168
f 540/66/169 543/67/170 542/69/169
f 543/67/171 544/68/171 542/69/171
f 545/71/172 546/203/172 544/68/172
f 546/74/173 549/76/173 548/72/173
f 549/76/174 550/75/174 548/72/174
f 551/78/175 552/77/175 550/75/175
f 553/80/176 554/82/176 552/77/176
f 555/79/177 556/81/177 554/82/177
f 557/84/178 558/83/178 556/81/178
f 559/86/179 560/85/179 558/83/179
f 561/88/180 562/87/180 560/85/180
f 563/90/181 564/89/181 562/87/181
f 564/89/182 567/94/182 566/91/182
f 567/94/183 568/93/184 566/91/184
f 568/93/185 571/98/185 570/95/185
f 571/98/186 572/97/186 570/95/186
f 573/100/187 574/99/187 572/97/187
f 577/101/188 514/41/188 576/102/188
f 575/103/189 576/102/189 574/99/189
f 518/105/85 580/104/85 516/106/85
f 517/107/190 515/109/190 578/108/190
f 515/109/191 577/110/191 578/108/191
f 577/110/192 575/111/192 578/108/192
f 575/111/193 573/112/193 578/108/193
f 573/112/194 571/113/194 578/108/194
f 571/113/195 569/114/195 578/108/195
f 569/114/196 567/115/196 578/108/196
f 567/115/197 565/116/197 578/108/197
f 565/116/198 563/117/198 578/108/198
f 563/117/199 561/118/199 578/108/199
f 561/118/200 559/119/200 578/108/200
f 559/119/201 557/120/201 578/108/201
f 557/120/202 555/121/202 578/108/202
f 555/121/203 553/122/203 578/108/203
f 553/122/204 551/123/204 578/108/204
f 551/123/205 549/124/205 578/108/205
f 549/124/206 547/125/206 578/108/206
f 547/125/207 545/126/207 578/108/207
f 545/126/208 543/127/208 578/108/208
f 543/127/209 541/128/209 578/108/209
f 541/128/210 539/129/210 578/108/210
f 539/129/211 537/130/211 578/108/211
f 537/130/212 535/131/212 578/108/212
f 535/131/213 533/132/213 578/108/213
f 533/132/214 531/133/214 578/108/214
f 531/133/215 529/134/215 578/108/215
f 529/134/216 527/135/216 578/108/216
f 527/135/217 525/136/217 578/108/217
f 525/136/218 523/137/218 578/108/218
f 523/137/219 521/138/219 578/108/219
f 521/138/220 519/139/220 578/108/220
f 519/139/221 517/107/221 578/108/221
f 536/141/118 589/140/118 534/142/118
f 554/144/119 598/143/119 552/145/119
f 572/147/120 607/146/120 570/148/120
f 528/150/121 585/149/121 526/151/121
f 546/153/122 594/152/122 544/154/122
f 564/156/123 603/155/123 562/157/123
f 520/159/124 581/158/124 518/105/124
f 538/161/125 590/160/125 536/141/125
f 556/163/126 599/162/126 554/144/126
f 574/165/127 608/164/127 572/147/127
f 530/167/128 586/166/128 528/150/128
f 548/169/129 595/168/129 546/170/129
f 566/172/130 604/171/130 564/156/130
f 522/174/131 582/173/131 520/159/131
f 540/176/132 591/175/132 538/161/132
f 558/178/133 600/177/133 556/163/133
f 576/180/134 609/179/134 574/165/134
f 532/182/135 587/181/135 530/167/135
f 550/184/136 596/183/136 548/169/136
f 568/186/137 605/185/137 566/172/137
f 524/188/138 583/187/138 522/174/138
f 542/190/139 592/189/139 540/176/139
f 516/106/140 579/191/140 514/192/140
f 560/194/141 601/193/141 558/178/141
f 514/192/142 610/195/142 576/180/142
f 534/142/143 588/196/143 532/182/143
f 552/145/144 597/197/144 550/184/144
f 570/148/145 606/198/145 568/186/145
f 526/151/146 584/199/146 524/188/146
f 544/154/147 593/200/147 542/190/147
f 562/157/148 602/201/148 560/194/148
f 498/23/39 501/35/39 500/22/39
f 500/24/36 274/22/36 499/25/36
f 274/24/38 275/27/38 499/26/38
f 278/32/222 276/37/222 274/33/222
f 279/21/40 273/34/40 498/35/40
f 480/24/28 306/22/28 305/25/28
f 306/24/154 307/27/154 305/26/154
f 307/30/151 478/38/151 308/29/151
f 478/32/223 479/37/223 306/33/223
f 477/36/152 475/35/152 309/21/152
f 478/30/23 309/34/23 308/36/23
f 311/21/32 484/22/32 310/23/32
f 483/24/31 312/27/31 482/26/31
f 313/37/224 483/33/224 311/31/224
f 471/26/17 470/25/17 342/27/17
f 342/30/21 469/38/21 343/29/21
f 469/30/5 467/34/5 343/36/5
f 600/177/2 663/162/2 599/162/2
f 446/189/6 625/200/6 447/200/6
f 601/193/2 664/177/2 600/177/2
f 448/152/6 625/200/6 626/152/6
f 602/201/2 665/193/2 601/193/2
f 448/152/6 627/204/6 449/204/6
f 603/155/2 666/201/2 602/201/2
f 449/168/6 628/183/6 450/183/6
f 604/171/2 667/155/2 603/155/2
f 451/197/6 628/183/6 629/197/6
f 605/185/2 668/171/2 604/171/2
f 452/143/6 629/197/6 630/143/6
f 606/198/2 669/185/2 605/185/2
f 453/162/6 630/143/6 631/162/6
f 580/104/2 643/191/2 579/191/2
f 607/146/2 670/198/2 606/198/2
f 454/177/6 631/162/6 632/177/6
f 581/158/2 644/104/2 580/104/2
f 608/164/2 671/146/2 607/146/2
f 455/193/6 632/177/6 633/193/6
f 581/158/2 646/173/2 645/158/2
f 609/179/2 672/164/2 608/164/2
f 456/201/6 633/193/6 634/201/6
f 583/187/2 646/173/2 582/173/2
f 610/195/2 673/179/2 609/179/2
f 457/155/6 634/201/6 635/155/6
f 583/187/2 648/199/2 647/187/2
f 579/191/2 674/195/2 610/195/2
f 458/171/6 635/155/6 636/171/6
f 585/149/2 648/199/2 584/199/2
f 459/185/6 636/171/6 637/185/6
f 585/149/2 650/166/2 649/149/2
f 460/198/6 637/185/6 638/198/6
f 434/104/6 611/191/6 612/104/6
f 586/166/2 651/181/2 650/166/2
f 461/146/6 638/198/6 639/146/6
f 434/104/6 613/158/6 435/158/6
f 588/196/2 651/181/2 587/181/2
f 462/164/6 639/146/6 640/164/6
f 588/196/2 653/140/2 652/196/2
f 435/158/6 614/173/6 436/173/6
f 462/164/6 641/179/6 463/179/6
f 589/140/2 654/160/2 653/140/2
f 437/187/6 614/173/6 615/187/6
f 464/195/6 641/179/6 642/195/6
f 591/175/2 654/160/2 590/160/2
f 437/187/6 616/199/6 438/199/6
f 464/195/6 611/191/6 433/191/6
f 591/175/2 656/189/2 655/175/2
f 439/149/6 616/199/6 617/149/6
f 592/189/2 657/200/2 656/189/2
f 439/149/6 618/166/6 440/166/6
f 594/152/2 657/200/2 593/200/2
f 440/166/6 619/181/6 441/181/6
f 441/181/6 620/196/6 442/196/6
f 595/204/2 658/152/2 594/152/2
f 442/196/6 621/140/6 443/140/6
f 595/168/2 660/183/2 659/168/2
f 443/140/6 622/160/6 444/160/6
f 597/197/2 660/183/2 596/183/2
f 445/175/6 622/160/6 623/175/6
f 598/143/2 661/197/2 597/197/2
f 599/162/2 662/143/2 598/143/2
f 445/175/6 624/189/6 446/189/6
f 652/196/123 715/181/123 651/181/123
f 625/200/134 690/152/134 626/152/134
f 653/140/130 716/196/130 652/196/130
f 626/152/142 691/204/142 627/204/142
f 654/160/137 717/140/137 653/140/137
f 627/168/140 692/183/140 628/183/140
f 655/175/145 718/160/145 654/160/145
f 628/183/85 693/197/85 629/197/85
f 656/189/120 719/175/120 655/175/120
f 629/197/124 694/143/124 630/143/124
f 657/200/127 720/189/127 656/189/127
f 630/143/131 695/162/131 631/162/131
f 658/152/134 721/200/134 657/200/134
f 631/162/138 696/177/138 632/177/138
f 659/204/142 722/152/142 658/152/142
f 632/177/146 697/193/146 633/193/146
f 660/183/140 723/168/140 659/168/140
f 633/193/121 698/201/121 634/201/121
f 661/197/85 724/183/85 660/183/85
f 634/201/128 699/155/128 635/155/128
f 662/143/124 725/197/124 661/197/124
f 635/155/135 700/171/135 636/171/135
f 663/162/131 726/143/131 662/143/131
f 636/171/143 701/185/143 637/185/143
f 664/177/138 727/162/138 663/162/138
f 637/185/118 702/198/118 638/198/118
f 611/191/129 676/104/129 612/104/129
f 665/193/146 728/177/146 664/177/146
f 638/198/125 703/146/125 639/146/125
f 612/104/136 677/158/136 613/158/136
f 666/201/121 729/193/121 665/193/121
f 639/146/132 704/164/132 640/164/132
f 613/158/144 678/173/144 614/173/144
f 667/155/128 730/201/128 666/201/128
f 640/164/139 705/179/139 641/179/139
f 614/173/119 679/187/119 615/187/119
f 668/171/135 731/155/135 667/155/135
f 641/179/147 706/195/147 642/195/147
f 615/187/126 680/199/126 616/199/126
f 669/185/143 732/171/143 668/171/143
f 642/195/122 675/191/122 611/191/122
f 616/199/133 681/149/133 617/149/133
f 670/198/118 733/185/118 669/185/118
f 644/104/129 707/191/129 643/191/129
f 617/149/141 682/166/141 618/166/141
f 671/146/125 734/198/125 670/198/125
f 645/158/136 708/104/136 644/104/136
f 618/166/148 683/181/148 619/181/148
f 672/164/132 735/146/132 671/146/132
f 646/173/144 709/158/144 645/158/144
f 619/181/123 684/196/123 620/196/123
f 673/179/139 736/164/139 672/164/139
f 647/187/119 710/173/119 646/173/119
f 620/196/130 685/140/130 621/140/130
f 674/195/147 737/179/147 673/179/147
f 648/199/126 711/187/126 647/187/126
f 621/140/137 686/160/137 622/160/137
f 643/191/122 738/195/122 674/195/122
f 649/149/133 712/199/133 648/199/133
f 622/160/145 687/175/145 623/175/145
f 650/166/141 713/149/141 649/149/141
f 623/175/120 688/189/120 624/189/120
f 651/181/148 714/166/148 650/166/148
f 624/189/127 689/200/127 625/200/127
f 700/205/6 692/206/6 684/207/6
f 722/208/2 730/209/2 738/210/2
f 6/1/1 2/6/1 1/2/1
f 7/4/2 5/211/2 1/5/2
f 8/1/3 6/6/3 5/2/3
f 4/1/4 8/6/4 7/2/4
f 2/6/5 4/1/5 3/3/5
f 14/1/1 10/6/1 9/2/1
f 15/4/2 13/211/2 9/5/2
f 16/1/3 14/6/3 13/2/3
f 12/1/4 16/6/4 15/2/4
f 10/6/5 12/1/5 11/3/5
f 22/1/1 18/6/1 17/2/1
f 23/4/2 21/211/2 17/5/2
f 24/1/3 22/6/3 21/2/3
f 20/1/4 24/6/4 23/2/4
f 18/6/5 20/1/5 19/3/5
f 30/1/1 26/6/1 25/2/1
f 31/4/2 29/211/2 25/5/2
f 32/1/3 30/6/3 29/2/3
f 28/1/4 32/6/4 31/2/4
f 26/6/5 28/1/5 27/3/5
f 33/2/5 34/6/5 38/1/5
f 33/5/6 37/211/6 39/4/6
f 37/3/1 38/1/1 40/6/1
f 39/2/3 40/6/3 36/1/3
f 35/3/4 36/1/4 34/6/4
f 41/2/5 42/6/5 46/1/5
f 41/5/6 45/211/6 47/4/6
f 45/3/1 46/1/1 48/6/1
f 47/2/3 48/6/3 44/1/3
f 43/3/4 44/1/4 42/6/4
f 49/2/5 50/6/5 54/1/5
f 49/5/6 53/211/6 55/4/6
f 53/3/1 54/1/1 56/6/1
f 55/2/3 56/6/3 52/1/3
f 51/3/4 52/1/4 50/6/4
f 57/2/5 58/6/5 62/1/5
f 57/5/6 61/211/6 63/4/6
f 61/3/1 62/1/1 64/6/1
f 63/2/3 64/6/3 60/1/3
f 59/3/4 60/1/4 58/6/4
f 70/1/5 66/6/5 65/2/5
f 71/4/2 69/211/2 65/5/2
f 72/1/1 70/6/1 69/2/1
f 68/1/3 72/6/3 71/2/3
f 66/6/4 68/1/4 67/3/4
f 78/1/5 74/6/5 73/2/5
f 79/4/2 77/211/2 73/5/2
f 80/1/1 78/6/1 77/2/1
f 76/1/3 80/6/3 79/2/3
f 74/6/4 76/1/4 75/3/4
f 86/1/5 82/6/5 81/2/5
f 87/4/2 85/211/2 81/5/2
f 88/1/1 86/6/1 85/2/1
f 84/1/3 88/6/3 87/2/3
f 82/6/4 84/1/4 83/3/4
f 94/1/5 90/6/5 89/2/5
f 95/4/2 93/211/2 89/5/2
f 96/1/1 94/6/1 93/2/1
f 92/1/3 96/6/3 95/2/3
f 90/6/4 92/1/4 91/3/4
f 97/2/5 98/6/5 102/1/5
f 97/5/6 101/211/6 103/4/6
f 101/3/1 102/1/1 104/6/1
f 103/2/3 104/6/3 100/1/3
f 99/3/4 100/1/4 98/6/4
f 105/2/5 106/6/5 110/1/5
f 105/5/6 109/211/6 111/4/6
f 109/3/1 110/1/1 112/6/1
f 111/2/3 112/6/3 108/1/3
f 107/3/4 108/1/4 106/6/4
f 113/2/5 114/6/5 118/1/5
f 113/5/6 117/211/6 119/4/6
f 117/3/1 118/1/1 120/6/1
f 119/2/3 120/6/3 116/1/3
f 115/3/4 116/1/4 114/6/4
f 121/2/5 122/6/5 126/1/5
f 121/5/6 125/211/6 127/4/6
f 125/3/1 126/1/1 128/6/1
f 127/2/3 128/6/3 124/1/3
f 123/3/4 124/1/4 122/6/4
f 130/7/3 129/19/3 131/8/3
f 137/10/4 138/212/4 131/11/4
f 135/8/5 133/19/5 134/7/5
f 133/13/6 135/12/6 131/11/6
f 134/15/2 130/9/2 132/16/2
f 139/18/5 137/20/5 135/8/5
f 140/18/1 139/10/1 136/17/1
f 131/8/3 138/20/3 140/18/3
f 142/7/4 141/19/4 143/8/4
f 149/10/5 150/212/5 143/11/5
f 147/8/1 145/19/1 146/7/1
f 145/13/6 147/12/6 143/11/6
f 142/9/2 144/16/2 148/17/2
f 151/18/1 149/20/1 147/8/1
f 152/18/3 151/10/3 148/17/3
f 143/8/4 150/20/4 152/18/4
f 154/7/5 153/19/5 155/8/5
f 161/10/1 162/212/1 155/11/1
f 159/8/3 157/19/3 158/7/3
f 157/13/6 159/12/6 155/11/6
f 154/9/2 156/16/2 160/17/2
f 163/18/3 161/20/3 159/8/3
f 164/18/4 163/10/4 160/17/4
f 155/8/5 162/20/5 164/18/5
f 166/7/1 165/19/1 167/8/1
f 173/10/3 174/212/3 167/11/3
f 171/8/4 169/19/4 170/7/4
f 169/13/6 171/12/6 167/11/6
f 166/9/2 168/16/2 172/17/2
f 175/18/4 173/20/4 171/8/4
f 176/18/5 175/10/5 172/17/5
f 167/8/1 174/20/1 176/18/1
f 178/7/3 180/9/3 179/8/3
f 179/11/4 186/212/4 185/10/4
f 182/7/5 181/19/5 183/8/5
f 177/14/2 179/11/2 183/12/2
f 182/15/6 184/17/6 180/16/6
f 183/8/5 185/20/5 187/18/5
f 184/17/1 187/10/1 188/18/1
f 179/8/3 180/9/3 188/18/3
f 190/7/4 192/9/4 191/8/4
f 191/11/5 198/212/5 197/10/5
f 194/7/1 193/19/1 195/8/1
f 191/11/2 195/12/2 193/13/2
f 196/17/6 192/16/6 190/9/6
f 195/8/1 197/20/1 199/18/1
f 196/17/3 199/10/3 200/18/3
f 191/8/4 192/9/4 200/18/4
f 202/7/5 204/9/5 203/8/5
f 203/11/1 210/212/1 209/10/1
f 206/7/3 205/19/3 207/8/3
f 203/11/2 207/12/2 205/13/2
f 208/17/6 204/16/6 202/9/6
f 207/8/3 209/20/3 211/18/3
f 208/17/4 211/10/4 212/18/4
f 203/8/5 204/9/5 212/18/5
f 214/7/1 216/9/1 215/8/1
f 215/11/3 222/212/3 221/10/3
f 218/7/4 217/19/4 219/8/4
f 215/11/2 219/12/2 217/13/2
f 220/17/6 216/16/6 214/9/6
f 219/8/4 221/20/4 223/18/4
f 220/17/5 223/10/5 224/18/5
f 215/8/1 216/9/1 224/18/1
f 226/21/7 228/35/7 227/22/7
f 227/24/4 228/23/4 230/22/4
f 229/26/8 230/24/8 232/25/8
f 232/28/9 234/38/9 233/29/9
f 230/33/10 228/213/10 226/31/10
f 226/31/10 236/202/10 234/32/10
f 234/32/10 232/37/10 230/33/10
f 235/21/11 236/36/11 226/34/11
f 234/30/1 236/29/1 235/34/1
f 238/21/12 240/35/12 239/22/12
f 239/24/5 240/23/5 242/22/5
f 241/26/13 242/24/13 244/25/13
f 244/28/14 246/38/14 245/29/14
f 242/33/15 240/213/15 238/31/15
f 238/31/15 248/202/15 246/32/15
f 246/32/15 244/37/15 238/31/15
f 248/36/16 238/34/16 237/35/16
f 246/30/3 248/29/3 247/34/3
f 250/21/17 252/35/17 251/22/17
f 251/24/3 252/23/3 254/22/3
f 254/24/18 256/25/18 255/27/18
f 256/28/19 258/38/19 257/29/19
f 254/33/20 252/213/20 250/31/20
f 250/31/20 260/202/20 258/32/20
f 258/32/20 256/37/20 250/31/20
f 260/36/21 250/34/21 249/35/21
f 258/30/5 260/29/5 259/34/5
f 261/23/22 262/21/22 264/35/22
f 263/24/23 264/23/23 266/22/23
f 265/26/24 266/24/24 268/25/24
f 267/30/25 268/28/25 270/38/25
f 266/33/26 264/213/26 262/31/26
f 262/31/26 272/202/26 266/33/26
f 272/202/26 270/32/26 266/33/26
f 272/36/27 262/34/27 261/35/27
f 270/30/28 272/29/28 271/34/28
f 276/28/29 278/38/29 277/29/29
f 278/30/30 280/29/30 279/34/30
f 281/23/31 282/21/31 284/35/31
f 284/23/30 286/22/30 285/25/30
f 285/26/32 286/24/32 288/25/32
f 287/30/33 288/28/33 290/38/33
f 286/33/34 284/213/34 290/32/34
f 284/213/34 282/31/34 290/32/34
f 282/31/34 292/202/34 290/32/34
f 292/36/35 282/34/35 281/35/35
f 290/30/36 292/29/36 291/34/36
f 294/21/24 296/35/24 295/22/24
f 296/23/23 298/22/23 297/25/23
f 297/26/22 298/24/22 300/25/22
f 300/28/27 302/38/27 301/29/27
f 298/33/37 296/213/37 294/31/37
f 294/31/37 304/202/37 302/32/37
f 302/32/37 300/37/37 298/33/37
f 304/36/25 294/34/25 293/35/25
f 302/30/28 304/29/28 303/34/28
f 313/28/35 315/38/35 314/29/35
f 317/36/33 311/34/33 310/35/33
f 315/30/36 317/29/36 316/34/36
f 319/21/38 321/35/38 320/22/38
f 320/24/36 321/23/36 323/22/36
f 322/26/39 323/24/39 325/25/39
f 324/30/40 325/28/40 327/38/40
f 323/33/41 321/213/41 327/32/41
f 321/213/41 319/31/41 327/32/41
f 319/31/41 329/202/41 327/32/41
f 329/36/29 319/34/29 318/35/29
f 327/30/30 329/29/30 328/34/30
f 330/23/13 331/21/13 333/35/13
f 332/24/5 333/23/5 335/22/5
f 335/24/12 337/25/12 336/27/12
f 336/30/16 337/28/16 339/38/16
f 335/33/42 333/213/42 331/31/42
f 331/31/42 341/202/42 339/32/42
f 339/32/42 337/37/42 335/33/42
f 340/21/14 341/36/14 331/34/14
f 339/30/3 341/29/3 340/34/3
f 344/23/43 345/21/43 347/35/43
f 346/24/1 347/23/1 349/22/1
f 349/24/44 351/25/44 350/27/44
f 351/28/45 353/38/45 352/29/45
f 349/33/46 347/213/46 345/31/46
f 345/31/46 355/202/46 353/32/46
f 353/32/46 351/37/46 349/33/46
f 355/36/47 345/34/47 344/35/47
f 353/30/4 355/29/4 354/34/4
f 357/21/8 359/35/8 358/22/8
f 358/24/4 359/23/4 361/22/4
f 361/24/7 363/25/7 362/27/7
f 362/30/11 363/28/11 365/38/11
f 361/33/48 359/213/48 357/31/48
f 357/31/48 367/202/48 365/32/48
f 365/32/48 363/37/48 361/33/48
f 367/36/9 357/34/9 356/35/9
f 365/30/1 367/29/1 366/34/1
f 370/39/49 371/43/49 369/40/49
f 372/42/50 373/45/50 371/43/50
f 372/42/51 374/46/51 375/44/51
f 374/46/52 376/49/52 377/47/52
f 378/48/53 379/51/53 377/47/53
f 380/50/54 381/53/54 379/51/54
f 380/50/55 382/54/55 383/52/56
f 382/54/57 384/57/57 385/55/57
f 386/56/58 387/59/58 385/55/58
f 388/58/59 389/61/60 387/59/60
f 388/58/61 390/62/61 391/60/61
f 390/62/62 392/64/62 393/63/62
f 392/64/63 394/66/63 395/65/63
f 394/66/64 396/69/64 397/67/64
f 398/68/65 399/71/65 397/67/65
f 398/68/66 400/203/66 401/70/66
f 402/72/67 403/76/67 401/73/67
f 404/75/68 405/78/68 403/76/68
f 406/77/69 407/80/70 405/78/70
f 406/77/71 408/82/71 409/79/71
f 410/81/72 411/84/72 409/79/72
f 412/83/73 413/86/73 411/84/73
f 414/85/74 415/88/74 413/86/74
f 416/87/75 417/90/75 415/88/75
f 418/89/76 419/92/76 417/90/76
f 420/91/77 421/94/77 419/92/77
f 422/93/78 423/96/79 421/94/79
f 424/95/80 425/98/80 423/96/80
f 426/97/81 427/100/81 425/98/81
f 428/99/82 429/103/82 427/100/82
f 368/41/83 369/40/83 431/101/83
f 430/102/84 431/101/84 429/103/84
f 434/104/85 435/158/85 372/105/85
f 443/140/118 444/160/118 390/141/118
f 452/143/119 453/162/119 408/144/119
f 461/146/120 462/164/120 426/147/120
f 439/149/121 440/166/121 382/150/121
f 448/152/122 449/204/122 400/153/122
f 457/155/123 458/171/123 418/156/123
f 435/158/124 436/173/124 374/159/124
f 444/160/125 445/175/125 392/161/125
f 453/162/126 454/177/126 410/163/126
f 462/164/127 463/179/127 428/165/127
f 440/166/128 441/181/128 384/167/128
f 449/168/129 450/183/129 402/169/129
f 458/171/130 459/185/130 420/172/130
f 436/173/131 437/187/131 376/174/131
f 445/175/132 446/189/132 394/176/132
f 454/177/133 455/193/133 412/178/133
f 463/179/134 464/195/134 430/180/134
f 441/181/135 442/196/135 386/182/135
f 450/183/136 451/197/136 404/184/136
f 459/185/137 460/198/137 422/186/137
f 437/187/138 438/199/138 378/188/138
f 446/189/139 447/200/139 396/190/139
f 433/191/140 434/104/140 370/106/140
f 455/193/141 456/201/141 414/194/141
f 464/195/142 433/191/142 368/192/142
f 442/196/143 443/140/143 388/142/143
f 451/197/144 452/143/144 406/145/144
f 460/198/145 461/146/145 424/148/145
f 438/199/146 439/149/146 380/151/146
f 447/200/147 448/152/147 398/154/147
f 456/201/148 457/155/148 416/157/148
f 465/23/19 467/22/19 468/35/19
f 466/31/149 468/213/149 469/33/149
f 469/33/149 470/37/149 466/31/149
f 470/37/149 472/32/149 466/31/149
f 465/35/18 466/34/18 474/36/18
f 473/34/3 474/29/3 472/30/3
f 480/21/150 475/35/150 476/34/150
f 482/36/30 484/34/30 485/29/30
f 486/23/151 488/22/151 489/35/151
f 488/24/23 490/25/23 491/22/23
f 490/26/152 492/27/152 493/25/152
f 494/29/150 495/38/150 493/28/150
f 487/31/153 489/213/153 491/33/153
f 491/33/153 493/37/153 487/31/153
f 493/37/153 495/32/153 487/31/153
f 496/21/154 486/35/154 487/34/154
f 496/34/28 497/29/28 495/30/28
f 504/22/45 505/35/45 503/21/45
f 504/24/4 506/25/4 507/22/4
f 508/27/47 509/25/47 507/24/47
f 508/30/43 510/29/43 511/38/43
f 503/31/155 505/213/155 511/32/155
f 505/213/155 507/33/155 511/32/155
f 507/33/155 509/37/155 511/32/155
f 502/35/44 503/34/44 513/36/44
f 512/34/1 513/29/1 511/30/1
f 515/40/156 517/43/156 516/39/156
f 517/43/157 519/45/157 518/42/157
f 518/42/158 519/45/158 521/44/158
f 520/46/159 521/44/159 523/47/159
f 522/49/160 523/47/160 525/51/160
f 525/51/161 527/53/161 526/50/161
f 526/50/162 527/53/162 529/52/162
f 528/54/163 529/52/163 531/55/163
f 530/57/164 531/55/164 533/59/164
f 532/56/165 533/59/165 535/61/165
f 535/61/166 537/60/166 536/62/166
f 537/60/167 539/63/167 538/64/167
f 538/64/168 539/63/168 541/65/168
f 540/66/169 541/65/170 543/67/170
f 543/67/171 545/71/171 544/68/171
f 545/71/172 547/70/172 546/203/172
f 546/74/173 547/73/173 549/76/173
f 549/76/174 551/78/174 550/75/174
f 551/78/175 553/80/175 552/77/175
f 553/80/176 555/79/176 554/82/176
f 555/79/177 557/84/177 556/81/177
f 557/84/178 559/86/178 558/83/178
f 559/86/179 561/88/179 560/85/179
f 561/88/180 563/90/180 562/87/180
f 563/90/181 565/92/181 564/89/181
f 564/89/182 565/92/182 567/94/182
f 567/94/183 569/96/183 568/93/184
f 568/93/185 569/96/185 571/98/185
f 571/98/186 573/100/186 572/97/186
f 573/100/187 575/103/187 574/99/187
f 577/101/188 515/40/188 514/41/188
f 575/103/189 577/101/189 576/102/189
f 518/105/85 581/158/85 580/104/85
f 536/141/118 590/160/118 589/140/118
f 554/144/119 599/162/119 598/143/119
f 572/147/120 608/164/120 607/146/120
f 528/150/121 586/166/121 585/149/121
f 546/153/122 595/204/122 594/152/122
f 564/156/123 604/171/123 603/155/123
f 520/159/124 582/173/124 581/158/124
f 538/161/125 591/175/125 590/160/125
f 556/163/126 600/177/126 599/162/126
f 574/165/127 609/179/127 608/164/127
f 530/167/128 587/181/128 586/166/128
f 548/169/129 596/183/129 595/168/129
f 566/172/130 605/185/130 604/171/130
f 522/174/131 583/187/131 582/173/131
f 540/176/132 592/189/132 591/175/132
f 558/178/133 601/193/133 600/177/133
f 576/180/134 610/195/134 609/179/134
f 532/182/135 588/196/135 587/181/135
f 550/184/136 597/197/136 596/183/136
f 568/186/137 606/198/137 605/185/137
f 524/188/138 584/199/138 583/187/138
f 542/190/139 593/200/139 592/189/139
f 516/106/140 580/104/140 579/191/140
f 560/194/141 602/201/141 601/193/141
f 514/192/142 579/191/142 610/195/142
f 534/142/143 589/140/143 588/196/143
f 552/145/144 598/143/144 597/197/144
f 570/148/145 607/146/145 606/198/145
f 526/151/146 585/149/146 584/199/146
f 544/154/147 594/152/147 593/200/147
f 562/157/148 603/155/148 602/201/148
f 498/23/39 273/21/39 501/35/39
f 500/24/36 501/23/36 274/22/36
f 274/24/38 276/25/38 275/27/38
f 274/33/222 501/213/222 273/31/222
f 273/31/222 280/202/222 274/33/222
f 280/202/222 278/32/222 274/33/222
f 279/21/40 280/36/40 273/34/40
f 480/24/28 481/23/28 306/22/28
f 306/24/154 479/25/154 307/27/154
f 307/30/151 479/28/151 478/38/151
f 306/33/223 481/213/223 476/31/223
f 476/31/223 477/202/223 306/33/223
f 477/202/223 478/32/223 306/33/223
f 477/36/152 476/34/152 475/35/152
f 478/30/23 477/29/23 309/34/23
f 311/21/32 485/35/32 484/22/32
f 483/24/31 313/25/31 312/27/31
f 483/33/224 485/213/224 311/31/224
f 311/31/224 317/202/224 315/32/224
f 315/32/224 313/37/224 311/31/224
f 471/26/17 472/24/17 470/25/17
f 342/30/21 470/28/21 469/38/21
f 469/30/5 468/29/5 467/34/5
f 600/177/2 664/177/2 663/162/2
f 446/189/6 624/189/6 625/200/6
f 601/193/2 665/193/2 664/177/2
f 448/152/6 447/200/6 625/200/6
f 602/201/2 666/201/2 665/193/2
f 448/152/6 626/152/6 627/204/6
f 603/155/2 667/155/2 666/201/2
f 449/168/6 627/168/6 628/183/6
f 604/171/2 668/171/2 667/155/2
f 451/197/6 450/183/6 628/183/6
f 605/185/2 669/185/2 668/171/2
f 452/143/6 451/197/6 629/197/6
f 606/198/2 670/198/2 669/185/2
f 453/162/6 452/143/6 630/143/6
f 580/104/2 644/104/2 643/191/2
f 607/146/2 671/146/2 670/198/2
f 454/177/6 453/162/6 631/162/6
f 581/158/2 645/158/2 644/104/2
f 608/164/2 672/164/2 671/146/2
f 455/193/6 454/177/6 632/177/6
f 581/158/2 582/173/2 646/173/2
f 609/179/2 673/179/2 672/164/2
f 456/201/6 455/193/6 633/193/6
f 583/187/2 647/187/2 646/173/2
f 610/195/2 674/195/2 673/179/2
f 457/155/6 456/201/6 634/201/6
f 583/187/2 584/199/2 648/199/2
f 579/191/2 643/191/2 674/195/2
f 458/171/6 457/155/6 635/155/6
f 585/149/2 649/149/2 648/199/2
f 459/185/6 458/171/6 636/171/6
f 585/149/2 586/166/2 650/166/2
f 460/198/6 459/185/6 637/185/6
f 434/104/6 433/191/6 611/191/6
f 586/166/2 587/181/2 651/181/2
f 461/146/6 460/198/6 638/198/6
f 434/104/6 612/104/6 613/158/6
f 588/196/2 652/196/2 651/181/2
f 462/164/6 461/146/6 639/146/6
f 588/196/2 589/140/2 653/140/2
f 435/158/6 613/158/6 614/173/6
f 462/164/6 640/164/6 641/179/6
f 589/140/2 590/160/2 654/160/2
f 437/187/6 436/173/6 614/173/6
f 464/195/6 463/179/6 641/179/6
f 591/175/2 655/175/2 654/160/2
f 437/187/6 615/187/6 616/199/6
f 464/195/6 642/195/6 611/191/6
f 591/175/2 592/189/2 656/189/2
f 439/149/6 438/199/6 616/199/6
f 592/189/2 593/200/2 657/200/2
f 439/149/6 617/149/6 618/166/6
f 594/152/2 658/152/2 657/200/2
f 440/166/6 618/166/6 619/181/6
f 441/181/6 619/181/6 620/196/6
f 595/204/2 659/204/2 658/152/2
f 442/196/6 620/196/6 621/140/6
f 595/168/2 596/183/2 660/183/2
f 443/140/6 621/140/6 622/160/6
f 597/197/2 661/197/2 660/183/2
f 445/175/6 444/160/6 622/160/6
f 598/143/2 662/143/2 661/197/2
f 599/162/2 663/162/2 662/143/2
f 445/175/6 623/175/6 624/189/6
f 652/196/123 716/196/123 715/181/123
f 625/200/134 689/200/134 690/152/134
f 653/140/130 717/140/130 716/196/130
f 626/152/142 690/152/142 691/204/142
f 654/160/137 718/160/137 717/140/137
f 627/168/140 691/168/140 692/183/140
f 655/175/145 719/175/145 718/160/145
f 628/183/85 692/183/85 693/197/85
f 656/189/120 720/189/120 719/175/120
f 629/197/124 693/197/124 694/143/124
f 657/200/127 721/200/127 720/189/127
f 630/143/131 694/143/131 695/162/131
f 658/152/134 722/152/134 721/200/134
f 631/162/138 695/162/138 696/177/138
f 659/204/142 723/204/142 722/152/142
f 632/177/146 696/177/146 697/193/146
f 660/183/140 724/183/140 723/168/140
f 633/193/121 697/193/121 698/201/121
f 661/197/85 725/197/85 724/183/85
f 634/201/128 698/201/128 699/155/128
f 662/143/124 726/143/124 725/197/124
f 635/155/135 699/155/135 700/171/135
f 663/162/131 727/162/131 726/143/131
f 636/171/143 700/171/143 701/185/143
f 664/177/138 728/177/138 727/162/138
f 637/185/118 701/185/118 702/198/118
f 611/191/129 675/191/129 676/104/129
f 665/193/146 729/193/146 728/177/146
f 638/198/125 702/198/125 703/146/125
f 612/104/136 676/104/136 677/158/136
f 666/201/121 730/201/121 729/193/121
f 639/146/132 703/146/132 704/164/132
f 613/158/144 677/158/144 678/173/144
f 667/155/128 731/155/128 730/201/128
f 640/164/139 704/164/139 705/179/139
f 614/173/119 678/173/119 679/187/119
f 668/171/135 732/171/135 731/155/135
f 641/179/147 705/179/147 706/195/147
f 615/187/126 679/187/126 680/199/126
f 669/185/143 733/185/143 732/171/143
f 642/195/122 706/195/122 675/191/122
f 616/199/133 680/199/133 681/149/133
f 670/198/118 734/198/118 733/185/118
f 644/104/129 708/104/129 707/191/129
f 617/149/141 681/149/141 682/166/141
f 671/146/125 735/146/125 734/198/125
f 645/158/136 709/158/136 708/104/136
f 618/166/148 682/166/148 683/181/148
f 672/164/132 736/164/132 735/146/132
f 646/173/144 710/173/144 709/158/144
f 619/181/123 683/181/123 684/196/123
f 673/179/139 737/179/139 736/164/139
f 647/187/119 711/187/119 710/173/119
f 620/196/130 684/196/130 685/140/130
f 674/195/147 738/195/147 737/179/147
f 648/199/126 712/199/126 711/187/126
f 621/140/137 685/140/137 686/160/137
f 643/191/122 707/191/122 738/195/122
f 649/149/133 713/149/133 712/199/133
f 622/160/145 686/160/145 687/175/145
f 650/166/141 714/166/141 713/149/141
f 623/175/120 687/175/120 688/189/120
f 651/181/148 715/181/148 714/166/148
f 624/189/127 688/189/127 689/200/127
f 676/214/6 675/215/6 706/216/6
f 706/216/6 705/217/6 704/218/6
f 704/218/6 703/219/6 702/220/6
f 702/220/6 701/221/6 700/205/6
f 700/205/6 699/222/6 698/223/6
f 698/223/6 697/224/6 700/205/6
f 697/224/6 696/225/6 700/205/6
f 696/225/6 695/226/6 694/227/6
f 694/227/6 693/228/6 692/206/6
f 692/206/6 691/229/6 690/230/6
f 690/230/6 689/231/6 688/232/6
f 688/232/6 687/233/6 684/207/6
f 687/233/6 686/234/6 684/207/6
f 686/234/6 685/235/6 684/207/6
f 684/207/6 683/236/6 682/237/6
f 682/237/6 681/238/6 680/239/6
f 680/239/6 679/240/6 676/214/6
f 679/240/6 678/241/6 676/214/6
f 678/241/6 677/242/6 676/214/6
f 676/214/6 706/216/6 704/218/6
f 704/218/6 702/220/6 676/214/6
f 702/220/6 700/205/6 676/214/6
f 696/225/6 694/227/6 700/205/6
f 694/227/6 692/206/6 700/205/6
f 692/206/6 690/230/6 684/207/6
f 690/230/6 688/232/6 684/207/6
f 684/207/6 682/237/6 676/214/6
f 682/237/6 680/239/6 676/214/6
f 676/214/6 700/205/6 684/207/6
f 738/210/2 707/243/2 708/244/2
f 708/244/2 709/245/2 710/218/2
f 710/218/2 711/219/2 714/246/2
f 711/219/2 712/247/2 714/246/2
f 712/247/2 713/248/2 714/246/2
f 714/246/2 715/249/2 716/250/2
f 716/250/2 717/251/2 714/246/2
f 717/251/2 718/225/2 714/246/2
f 718/225/2 719/226/2 722/208/2
f 719/226/2 720/252/2 722/208/2
f 720/252/2 721/253/2 722/208/2
f 722/208/2 723/254/2 726/232/2
f 723/254/2 724/255/2 726/232/2
f 724/255/2 725/256/2 726/232/2
f 726/232/2 727/233/2 728/257/2
f 728/257/2 729/258/2 730/209/2
f 730/209/2 731/259/2 732/260/2
f 732/260/2 733/261/2 734/239/2
f 734/239/2 735/240/2 736/262/2
f 736/262/2 737/263/2 738/210/2
f 738/210/2 708/244/2 714/246/2
f 708/244/2 710/218/2 714/246/2
f 726/232/2 728/257/2 722/208/2
f 728/257/2 730/209/2 722/208/2
f 730/209/2 732/260/2 738/210/2
f 732/260/2 734/239/2 738/210/2
f 734/239/2 736/262/2 738/210/2
f 714/246/2 718/225/2 722/208/2
f 738/210/2 714/246/2 722/208/2
