# Blender 4.2.3 LTS
# www.blender.org
mtllib big_crankshaft_base.mtl
o base
v 0.381910 0.379611 0.869225
v 0.381910 0.620138 0.869225
v 0.381910 0.379611 0.780504
v 0.381910 0.620138 0.780504
v 0.622437 0.379611 0.869225
v 0.622437 0.620138 0.869225
v 0.622437 0.379611 0.780504
v 0.622437 0.620138 0.780504
v 0.762545 0.034864 0.207548
v 0.762545 0.034864 0.145048
v 0.502936 0.459093 0.145048
v 0.502936 0.459093 0.207548
v 0.876687 0.054178 0.145048
v 0.617080 0.478407 0.145048
v 0.876687 0.054178 0.207548
v 0.617080 0.478407 0.207548
v 0.123313 0.054178 0.207548
v 0.123313 0.054178 0.145048
v 0.382920 0.478407 0.145048
v 0.382920 0.478407 0.207548
v 0.237455 0.034864 0.145048
v 0.497064 0.459093 0.145048
v 0.237455 0.034864 0.207548
v 0.497064 0.459093 0.207548
v 0.762545 0.034864 0.850205
v 0.762545 0.034864 0.787705
v 0.502936 0.459093 0.787705
v 0.502936 0.459093 0.850205
v 0.876687 0.054178 0.787705
v 0.617080 0.478407 0.787705
v 0.876687 0.054178 0.850205
v 0.617080 0.478407 0.850205
v 0.123313 0.054178 0.850205
v 0.123313 0.054178 0.787705
v 0.382920 0.478407 0.787705
v 0.382920 0.478407 0.850205
v 0.237455 0.034864 0.787705
v 0.497064 0.459093 0.787705
v 0.237455 0.034864 0.850205
v 0.497064 0.459093 0.850205
v 0.381910 0.379611 0.215338
v 0.381910 0.620138 0.215338
v 0.381910 0.379611 0.126618
v 0.381910 0.620138 0.126618
v 0.622437 0.379611 0.215338
v 0.622437 0.620138 0.215338
v 0.622437 0.379611 0.126618
v 0.622437 0.620138 0.126618
v 0.000000 0.000000 1.000000
v 0.000000 0.000000 0.000000
v 0.000000 0.062500 -0.000000
v 0.000000 0.062500 1.000000
v 1.000000 0.000000 0.000000
v 1.000000 0.062500 -0.000000
v 1.000000 0.000000 1.000000
v 1.000000 0.062500 1.000000
vn -1.0000 -0.0000 -0.0000
vn -0.0000 -0.0000 -1.0000
vn 1.0000 -0.0000 -0.0000
vn -0.0000 -0.0000 1.0000
vn -0.0000 -1.0000 -0.0000
vn -0.0000 1.0000 -0.0000
vn -0.8530 -0.5220 -0.0000
vn 0.8530 0.5220 -0.0000
vn 0.1668 -0.9860 -0.0000
vn -0.1668 0.9860 -0.0000
vn -0.8530 0.5220 -0.0000
vn 0.8530 -0.5220 -0.0000
vn -0.1668 -0.9860 -0.0000
vn 0.1668 0.9860 -0.0000
vt 0.349174 0.003799
vt 0.349174 0.122508
vt 0.655068 0.122508
vt 0.655068 0.003799
vt 0.502869 0.786921
vt 0.757511 0.848221
vt 0.757511 0.786921
vt 0.502869 0.848221
vt 0.869470 0.848221
vt 0.614829 0.848221
vt 0.869470 0.786921
vt 0.385149 0.786921
vt 0.130508 0.848221
vt 0.130508 0.786921
vt 0.497109 0.848221
vt 0.242466 0.848221
vt 0.242466 0.786921
vt 0.497109 0.786921
vt 0.385149 0.848221
vt 0.502869 0.156608
vt 0.757511 0.217908
vt 0.757511 0.156608
vt 0.502869 0.217908
vt 0.869470 0.217908
vt 0.614829 0.217908
vt 0.869470 0.156608
vt 0.385149 0.156608
vt 0.130508 0.217908
vt 0.130508 0.156608
vt 0.497109 0.217908
vt 0.242466 0.217908
vt 0.242466 0.156608
vt 0.497109 0.156608
vt 0.385149 0.217908
vt 0.614829 0.786921
vt 0.614829 0.156608
vt 0.349174 0.878700
vt 0.349174 0.878700
vt 0.349174 0.997408
vt 0.655068 0.997408
vt 0.655068 0.878700
vt 0.655068 0.878700
vt 0.000000 0.000000
vt 0.000000 1.000000
vt 0.062500 0.000000
vt 1.000000 1.000000
vt 0.000000 0.937500
vt 0.937500 1.000000
vt 1.000000 0.000000
vt 1.000000 0.062500
vt 0.000274 0.999812
vt 0.999584 0.000377
vt 0.000274 0.000377
vt 0.062500 1.000000
vt 0.999584 0.937500
vt 0.937500 0.000000
vt 0.999584 0.999812
s 0
usemtl Material_casing
f 1/1/1 2/1/1 4/2/1 3/2/1
f 3/2/2 4/2/2 8/3/2 7/3/2
f 7/3/3 8/3/3 6/4/3 5/4/3
f 5/4/4 6/4/4 2/1/4 1/1/4
f 3/2/5 7/3/5 5/4/5 1/1/5
f 8/3/6 4/2/6 2/1/6 6/4/6
f 12/5/7 10/6/7 9/7/7
f 11/8/2 13/9/2 10/6/2
f 14/10/8 15/11/8 13/9/8
f 15/11/4 12/5/4 9/7/4
f 10/6/9 15/11/9 9/7/9
f 12/5/10 14/10/10 11/8/10
f 20/12/11 18/13/11 17/14/11
f 18/13/2 22/15/2 21/16/2
f 22/15/12 23/17/12 21/16/12
f 24/18/4 17/14/4 23/17/4
f 18/13/13 23/17/13 17/14/13
f 20/12/14 22/15/14 19/19/14
f 28/20/7 26/21/7 25/22/7
f 27/23/2 29/24/2 26/21/2
f 30/25/8 31/26/8 29/24/8
f 31/26/4 28/20/4 25/22/4
f 26/21/9 31/26/9 25/22/9
f 28/20/10 30/25/10 27/23/10
f 36/27/11 34/28/11 33/29/11
f 34/28/2 38/30/2 37/31/2
f 38/30/12 39/32/12 37/31/12
f 40/33/4 33/29/4 39/32/4
f 34/28/13 39/32/13 33/29/13
f 36/27/14 38/30/14 35/34/14
f 12/5/7 11/8/7 10/6/7
f 11/8/2 14/10/2 13/9/2
f 14/10/8 16/35/8 15/11/8
f 15/11/4 16/35/4 12/5/4
f 10/6/9 13/9/9 15/11/9
f 12/5/10 16/35/10 14/10/10
f 20/12/11 19/19/11 18/13/11
f 18/13/2 19/19/2 22/15/2
f 22/15/12 24/18/12 23/17/12
f 24/18/4 20/12/4 17/14/4
f 18/13/13 21/16/13 23/17/13
f 20/12/14 24/18/14 22/15/14
f 28/20/7 27/23/7 26/21/7
f 27/23/2 30/25/2 29/24/2
f 30/25/8 32/36/8 31/26/8
f 31/26/4 32/36/4 28/20/4
f 26/21/9 29/24/9 31/26/9
f 28/20/10 32/36/10 30/25/10
f 36/27/11 35/34/11 34/28/11
f 34/28/2 35/34/2 38/30/2
f 38/30/12 40/33/12 39/32/12
f 40/33/4 36/27/4 33/29/4
f 34/28/13 37/31/13 39/32/13
f 36/27/14 40/33/14 38/30/14
f 41/37/1 42/38/1 44/39/1 43/39/1
f 43/39/2 44/39/2 48/40/2 47/40/2
f 47/40/3 48/40/3 46/41/3 45/42/3
f 45/42/4 46/41/4 42/38/4 41/37/4
f 43/39/5 47/40/5 45/42/5 41/37/5
f 48/40/6 44/39/6 42/38/6 46/41/6
f 52/43/1 50/44/1 49/45/1
f 51/44/2 53/46/2 50/47/2
f 54/48/3 55/49/3 53/46/3
f 56/50/4 49/43/4 55/49/4
f 50/51/5 55/52/5 49/53/5
f 52/43/6 54/46/6 51/44/6
f 52/43/1 51/44/1 50/54/1
f 51/44/2 54/55/2 53/46/2
f 54/46/3 56/56/3 55/52/3
f 56/52/4 52/53/4 49/53/4
f 50/51/5 53/57/5 55/52/5
f 52/43/6 56/49/6 54/46/6
