# Blender 4.2.3 LTS
# www.blender.org
mtllib small_crankshaft_base.mtl
o base
v 0.000000 0.000000 1.000000
v 0.000000 0.000000 0.000000
v 0.000000 0.062500 -0.000000
v 0.000000 0.062500 1.000000
v 1.000000 0.000000 0.000000
v 1.000000 0.062500 -0.000000
v 1.000000 0.000000 1.000000
v 1.000000 0.062500 1.000000
v 0.636724 0.034864 0.207548
v 0.636724 0.034864 0.145048
v 0.501529 0.459093 0.145048
v 0.501529 0.459093 0.207548
v 0.696165 0.054178 0.145048
v 0.560971 0.478407 0.145048
v 0.696165 0.054178 0.207548
v 0.560971 0.478407 0.207548
v 0.303835 0.054178 0.207548
v 0.303835 0.054178 0.145048
v 0.439029 0.478407 0.145048
v 0.439029 0.478407 0.207548
v 0.363276 0.034864 0.145048
v 0.498471 0.459093 0.145048
v 0.363276 0.034864 0.207548
v 0.498471 0.459093 0.207548
v 0.636724 0.034864 0.850205
v 0.636724 0.034864 0.787705
v 0.501529 0.459093 0.787705
v 0.501529 0.459093 0.850205
v 0.696165 0.054178 0.787705
v 0.560971 0.478407 0.787705
v 0.696165 0.054178 0.850205
v 0.560971 0.478407 0.850205
v 0.303835 0.054178 0.850205
v 0.303835 0.054178 0.787705
v 0.439029 0.478407 0.787705
v 0.439029 0.478407 0.850205
v 0.363276 0.034864 0.787705
v 0.498471 0.459093 0.787705
v 0.363276 0.034864 0.850205
v 0.498471 0.459093 0.850205
vn -1.0000 -0.0000 -0.0000
vn -0.0000 -0.0000 -1.0000
vn 1.0000 -0.0000 -0.0000
vn -0.0000 -0.0000 1.0000
vn -0.0000 -1.0000 -0.0000
vn -0.0000 1.0000 -0.0000
vn -0.9528 -0.3036 -0.0000
vn 0.9528 0.3036 -0.0000
vn 0.3090 -0.9511 -0.0000
vn -0.3090 0.9511 -0.0000
vn -0.9528 0.3036 -0.0000
vn 0.9528 -0.3036 -0.0000
vn -0.3090 -0.9511 -0.0000
vn 0.3090 0.9511 -0.0000
vt 0.000000 0.000000
vt 0.000000 1.000000
vt 0.062500 0.000000
vt 1.000000 1.000000
vt 0.000000 0.937500
vt 0.937500 1.000000
vt 1.000000 0.000000
vt 1.000000 0.062500
vt 0.000274 0.999812
vt 0.999584 0.000377
vt 0.000274 0.000377
vt 0.062500 1.000000
vt 0.999584 0.937500
vt 0.937500 0.000000
vt 0.999584 0.999812
vt 0.556775 0.701637
vt 0.663344 0.750903
vt 0.663344 0.701637
vt 0.556775 0.750903
vt 0.710199 0.750903
vt 0.603631 0.750903
vt 0.710199 0.701637
vt 0.507509 0.701637
vt 0.400941 0.750903
vt 0.400941 0.701637
vt 0.554365 0.750903
vt 0.447796 0.750903
vt 0.447796 0.701637
vt 0.554365 0.701637
vt 0.507509 0.750903
vt 0.556775 0.195057
vt 0.663344 0.244323
vt 0.663344 0.195057
vt 0.556775 0.244323
vt 0.710199 0.244323
vt 0.603631 0.244323
vt 0.710199 0.195057
vt 0.507509 0.195057
vt 0.400941 0.244323
vt 0.400941 0.195057
vt 0.554365 0.244323
vt 0.447796 0.244323
vt 0.447796 0.195057
vt 0.554365 0.195057
vt 0.507509 0.244323
vt 0.603631 0.701637
vt 0.603631 0.195057
s 0
usemtl Material_casing
f 4/1/1 2/2/1 1/3/1
f 3/2/2 5/4/2 2/5/2
f 6/6/3 7/7/3 5/4/3
f 8/8/4 1/1/4 7/7/4
f 2/9/5 7/10/5 1/11/5
f 4/1/6 6/4/6 3/2/6
f 4/1/1 3/2/1 2/12/1
f 3/2/2 6/13/2 5/4/2
f 6/4/3 8/14/3 7/10/3
f 8/10/4 4/11/4 1/11/4
f 2/9/5 5/15/5 7/10/5
f 4/1/6 8/7/6 6/4/6
f 12/16/7 10/17/7 9/18/7
f 11/19/2 13/20/2 10/17/2
f 14/21/8 15/22/8 13/20/8
f 15/22/4 12/16/4 9/18/4
f 10/17/9 15/22/9 9/18/9
f 12/16/10 14/21/10 11/19/10
f 20/23/11 18/24/11 17/25/11
f 18/24/2 22/26/2 21/27/2
f 22/26/12 23/28/12 21/27/12
f 24/29/4 17/25/4 23/28/4
f 18/24/13 23/28/13 17/25/13
f 20/23/14 22/26/14 19/30/14
f 28/31/7 26/32/7 25/33/7
f 27/34/2 29/35/2 26/32/2
f 30/36/8 31/37/8 29/35/8
f 31/37/4 28/31/4 25/33/4
f 26/32/9 31/37/9 25/33/9
f 28/31/10 30/36/10 27/34/10
f 36/38/11 34/39/11 33/40/11
f 34/39/2 38/41/2 37/42/2
f 38/41/12 39/43/12 37/42/12
f 40/44/4 33/40/4 39/43/4
f 34/39/13 39/43/13 33/40/13
f 36/38/14 38/41/14 35/45/14
f 12/16/7 11/19/7 10/17/7
f 11/19/2 14/21/2 13/20/2
f 14/21/8 16/46/8 15/22/8
f 15/22/4 16/46/4 12/16/4
f 10/17/9 13/20/9 15/22/9
f 12/16/10 16/46/10 14/21/10
f 20/23/11 19/30/11 18/24/11
f 18/24/2 19/30/2 22/26/2
f 22/26/12 24/29/12 23/28/12
f 24/29/4 20/23/4 17/25/4
f 18/24/13 21/27/13 23/28/13
f 20/23/14 24/29/14 22/26/14
f 28/31/7 27/34/7 26/32/7
f 27/34/2 30/36/2 29/35/2
f 30/36/8 32/47/8 31/37/8
f 31/37/4 32/47/4 28/31/4
f 26/32/9 29/35/9 31/37/9
f 28/31/10 32/47/10 30/36/10
f 36/38/11 35/45/11 34/39/11
f 34/39/2 35/45/2 38/41/2
f 38/41/12 40/44/12 39/43/12
f 40/44/4 36/38/4 33/40/4
f 34/39/13 37/42/13 39/43/13
f 36/38/14 40/44/14 38/41/14
