# Blender 4.2.3 LTS
# www.blender.org
mtllib jetpack.mtl
o center
v 0.075000 -0.696667 0.160000
v 0.075000 -0.696667 0.200432
v -0.075000 -0.696667 0.200432
v -0.075000 -0.696667 0.160000
v 0.075000 0.103333 0.160000
v 0.075000 0.103333 0.200432
v -0.075000 0.103333 0.200432
v -0.075000 0.103333 0.160000
vn -0.0000 -1.0000 -0.0000
vn -0.0000 1.0000 -0.0000
vn 1.0000 -0.0000 -0.0000
vn -0.0000 -0.0000 1.0000
vn -1.0000 -0.0000 -0.0000
vn -0.0000 -0.0000 -1.0000
vt 0.437500 0.390600
vt 0.476600 0.312500
vt 0.476600 0.390600
vt 0.000000 0.312500
vt 0.039100 0.390600
vt 0.000000 0.390600
vt 0.039100 0.203100
vt 0.437500 0.164100
vt 0.437500 0.203100
vt 0.437500 0.312500
vt 0.039100 0.312500
vt 0.437500 0.273400
vt 0.039100 0.273400
vt 0.039100 0.164100
s 0
usemtl Material
f 2/1/1 4/2/1 1/3/1
f 8/4/2 6/5/2 5/6/2
f 5/7/3 2/8/3 1/9/3
f 6/5/4 3/10/4 2/1/4
f 7/11/5 4/12/5 3/10/5
f 1/9/6 8/13/6 5/7/6
f 2/1/1 3/10/1 4/2/1
f 8/4/2 7/11/2 6/5/2
f 5/7/3 6/14/3 2/8/3
f 6/5/4 7/11/4 3/10/4
f 7/11/5 8/13/5 4/12/5
f 1/9/6 4/12/6 8/13/6
o oxygenTank
v -0.001596 -0.565859 0.215866
v -0.001595 0.056145 0.181138
v 0.051169 -0.565859 0.237722
v 0.075726 0.056145 0.213165
v 0.073024 -0.565859 0.290486
v 0.107753 0.056145 0.290486
v 0.051169 -0.565859 0.343251
v 0.075726 0.056145 0.367807
v -0.001596 -0.565859 0.365106
v -0.001595 0.056145 0.399835
v -0.054360 -0.565859 0.343251
v -0.078916 0.056145 0.367807
v -0.076216 -0.565859 0.290486
v -0.110944 0.056145 0.290486
v -0.054360 -0.565859 0.237722
v -0.078916 0.056145 0.213165
v 0.029333 0.129044 0.259558
v -0.001595 0.129044 0.246747
v 0.042144 0.129044 0.290486
v 0.029333 0.129044 0.321414
v -0.001595 0.129044 0.334226
v -0.032524 0.129044 0.321414
v -0.045335 0.129044 0.290486
v -0.032524 0.129044 0.259558
v -0.001596 -0.527047 0.181138
v 0.075725 -0.527047 0.213165
v 0.107753 -0.527047 0.290486
v 0.075725 -0.527047 0.367807
v -0.001596 -0.527047 0.399835
v -0.078917 -0.527047 0.367807
v -0.110944 -0.527047 0.290486
v -0.078917 -0.527047 0.213165
vn 0.3827 -0.0000 -0.9239
vn 0.9239 -0.0000 -0.3827
vn 0.9239 -0.0000 0.3827
vn 0.3827 -0.0000 0.9239
vn -0.3827 -0.0000 0.9239
vn -0.9239 -0.0000 0.3827
vn 0.7104 0.6393 -0.2943
vn -0.9239 -0.0000 -0.3827
vn -0.3827 -0.0000 -0.9239
vn -0.0000 1.0000 -0.0000
vn -0.2943 0.6394 0.7104
vn -0.2943 0.6393 -0.7104
vn 0.2943 0.6394 -0.7104
vn 0.7104 0.6394 0.2943
vn -0.7104 0.6393 0.2943
vn 0.2943 0.6393 0.7104
vn -0.7104 0.6394 -0.2943
vn 0.7104 0.6394 -0.2943
vn -0.0000 -1.0000 -0.0000
vn -0.2943 0.6393 0.7104
vn -0.2943 0.6394 -0.7104
vn 0.2943 0.6393 -0.7104
vn 0.7104 0.6393 0.2943
vn -0.7104 0.6394 0.2943
vn 0.2943 0.6394 0.7104
vn -0.7104 0.6393 -0.2943
vn 0.2949 -0.6372 -0.7121
vn 0.7121 -0.6372 -0.2949
vn 0.7121 -0.6372 0.2949
vn 0.2949 -0.6372 0.7121
vn -0.2949 -0.6372 0.7121
vn -0.7121 -0.6372 0.2949
vn -0.7121 -0.6372 -0.2949
vn -0.2949 -0.6372 -0.7121
vt 0.335900 0.789100
vt 0.281200 0.398400
vt 0.335900 0.398400
vt 0.281200 0.789100
vt 0.226600 0.398400
vt 0.226600 0.789100
vt 0.171900 0.398400
vt 0.171900 0.789100
vt 0.117200 0.398400
vt 0.117200 0.789100
vt 0.054700 0.398400
vt 0.054700 0.789100
vt 0.000000 0.398400
vt 0.890600 0.593800
vt 0.812500 0.578100
vt 0.828100 0.570300
vt 0.453100 0.789100
vt 0.398400 0.398400
vt 0.453100 0.398400
vt 0.398400 0.789100
vt 0.789100 0.546900
vt 0.820300 0.531200
vt 0.796900 0.578100
vt 0.843800 0.476600
vt 0.804700 0.531200
vt 0.773400 0.476600
vt 0.773400 0.640600
vt 0.781200 0.562500
vt 0.843800 0.640600
vt 0.890600 0.523400
vt 0.835900 0.546900
vt 0.726600 0.523400
vt 0.726600 0.593800
vt 0.000000 0.789100
vt 0.811676 0.828307
vt 0.838278 0.897057
vt 0.774251 0.923781
vt 0.838278 0.858656
vt 0.820300 0.804700
vt 0.859400 0.851600
vt 0.859400 0.906200
vt 0.820300 0.945300
vt 0.811675 0.923781
vt 0.765600 0.945300
vt 0.726600 0.906200
vt 0.747695 0.897057
vt 0.747695 0.858656
vt 0.726600 0.851600
vt 0.765600 0.804700
vt 0.774251 0.828307
s 0
usemtl Material
f 10/15/7 34/16/7 33/17/7
f 12/18/8 35/19/8 34/16/8
f 14/20/9 36/21/9 35/19/9
f 16/22/10 37/23/10 36/21/10
f 18/24/11 38/25/11 37/23/11
f 20/26/12 39/27/12 38/25/12
f 14/28/13 25/29/13 27/30/13
f 22/31/14 40/32/14 39/33/14
f 24/34/15 33/17/15 40/32/15
f 31/35/16 29/36/16 26/37/16
f 18/38/17 30/39/17 20/40/17
f 10/41/18 32/42/18 26/37/18
f 12/43/19 26/37/19 25/29/19
f 16/44/20 27/30/20 28/45/20
f 22/46/21 30/39/21 31/35/21
f 18/38/22 28/45/22 29/36/22
f 22/46/23 32/42/23 24/47/23
f 10/15/7 12/18/7 34/16/7
f 12/18/8 14/20/8 35/19/8
f 14/20/9 16/22/9 36/21/9
f 16/22/10 18/24/10 37/23/10
f 18/24/11 20/26/11 38/25/11
f 20/26/12 22/48/12 39/27/12
f 14/28/24 12/43/24 25/29/24
f 22/31/14 24/34/14 40/32/14
f 24/34/15 10/15/15 33/17/15
f 9/49/25 13/50/25 17/51/25
f 27/30/16 25/29/16 26/37/16
f 26/37/16 32/42/16 31/35/16
f 31/35/16 30/39/16 29/36/16
f 29/36/16 28/45/16 27/30/16
f 27/30/16 26/37/16 29/36/16
f 18/38/26 29/36/26 30/39/26
f 10/41/27 24/47/27 32/42/27
f 12/43/28 10/41/28 26/37/28
f 16/44/29 14/28/29 27/30/29
f 22/46/30 20/40/30 30/39/30
f 18/38/31 16/44/31 28/45/31
f 22/46/32 31/35/32 32/42/32
f 11/52/33 33/53/33 34/54/33
f 11/52/34 35/55/34 13/50/34
f 13/50/35 36/56/35 15/57/35
f 17/51/36 36/56/36 37/58/36
f 17/51/37 38/59/37 19/60/37
f 21/61/38 38/59/38 39/62/38
f 21/61/39 40/63/39 23/64/39
f 23/64/40 33/53/40 9/49/40
f 21/61/25 23/64/25 9/49/25
f 9/49/25 11/52/25 13/50/25
f 13/50/25 15/57/25 17/51/25
f 17/51/25 19/60/25 21/61/25
f 21/61/25 9/49/25 17/51/25
f 11/52/33 9/49/33 33/53/33
f 11/52/34 34/54/34 35/55/34
f 13/50/35 35/55/35 36/56/35
f 17/51/36 15/57/36 36/56/36
f 17/51/37 37/58/37 38/59/37
f 21/61/38 19/60/38 38/59/38
f 21/61/39 39/62/39 40/63/39
f 23/64/40 40/63/40 33/53/40
o engine1
v 0.210234 -0.618993 0.118408
v 0.210234 -0.465905 0.249626
v 0.323872 -0.618994 0.184017
v 0.323872 -0.618994 0.315235
v 0.210234 -0.618993 0.380844
v 0.096595 -0.618993 0.315235
v 0.096595 -0.618993 0.184017
v 0.210183 0.023279 0.143085
v 0.286003 0.023279 0.174491
v 0.317409 0.023279 0.250312
v 0.286003 0.023279 0.326132
v 0.210183 0.023279 0.357538
v 0.134363 0.023279 0.326132
v 0.102957 0.023279 0.250312
v 0.134363 0.023279 0.174491
v 0.240511 0.094764 0.219984
v 0.210183 0.094764 0.207421
v 0.253074 0.094764 0.250312
v 0.240511 0.094764 0.280640
v 0.210183 0.094764 0.293202
v 0.179855 0.094764 0.280640
v 0.167293 0.094764 0.250312
v 0.179855 0.094764 0.219984
v 0.210183 -0.548594 0.143085
v 0.286003 -0.548594 0.174491
v 0.317409 -0.548594 0.250312
v 0.286003 -0.548594 0.326132
v 0.210183 -0.548594 0.357538
v 0.134362 -0.548594 0.326132
v 0.102957 -0.548594 0.250312
v 0.134362 -0.548594 0.174491
vn 0.4015 0.5960 -0.6954
vn 0.8030 0.5960 -0.0000
vn 0.4015 0.5960 0.6954
vn -0.4015 0.5960 0.6954
vn -0.8030 0.5960 -0.0000
vn -0.4015 0.5960 -0.6954
vn -0.0000 -1.0000 -0.0000
vn 0.3827 -0.0000 -0.9239
vn 0.9239 -0.0000 -0.3827
vn 0.9239 -0.0000 0.3827
vn 0.3827 -0.0000 0.9239
vn -0.3827 -0.0000 0.9239
vn -0.9239 -0.0000 0.3827
vn 0.7104 0.6393 -0.2943
vn -0.9239 -0.0000 -0.3827
vn -0.3827 -0.0000 -0.9239
vn -0.0000 1.0000 -0.0000
vn -0.2943 0.6394 0.7104
vn -0.2943 0.6393 -0.7104
vn 0.2943 0.6394 -0.7104
vn 0.7104 0.6394 0.2943
vn -0.7104 0.6393 0.2943
vn 0.2943 0.6393 0.7104
vn -0.7104 0.6394 -0.2943
vn 0.7104 0.6394 -0.2943
vn -0.2943 0.6393 0.7104
vn -0.2943 0.6394 -0.7104
vn 0.2943 0.6393 -0.7104
vn 0.7104 0.6393 0.2943
vn -0.7104 0.6394 0.2943
vn 0.2943 0.6394 0.7104
vn -0.7104 0.6393 -0.2943
vt 0.684204 0.543566
vt 0.596109 0.596483
vt 0.631362 0.502525
vt 0.566794 0.502525
vt 0.513952 0.543566
vt 0.496287 0.608209
vt 0.672478 0.666914
vt 0.701868 0.608209
vt 0.132800 0.945300
vt 0.000000 0.867200
vt 0.132800 0.805702
vt 0.179700 0.867200
vt 0.046900 0.945300
vt 0.046900 0.805702
vt 0.205470 0.354283
vt 0.182670 0.191436
vt 0.205470 0.191436
vt 0.182670 0.354283
vt 0.159912 0.191436
vt 0.159912 0.354283
vt 0.137113 0.191436
vt 0.137113 0.354283
vt 0.114314 0.191436
vt 0.114314 0.354283
vt 0.088263 0.191436
vt 0.088263 0.354283
vt 0.065464 0.191436
vt 0.323228 0.305464
vt 0.245128 0.289764
vt 0.260728 0.281963
vt 0.254320 0.354283
vt 0.231520 0.191436
vt 0.254320 0.191436
vt 0.231520 0.354283
vt 0.221728 0.258563
vt 0.252928 0.242864
vt 0.229528 0.289764
vt 0.276428 0.188264
vt 0.237328 0.242864
vt 0.206028 0.188264
vt 0.206028 0.352264
vt 0.213828 0.274164
vt 0.276428 0.352264
vt 0.323228 0.235064
vt 0.268528 0.258563
vt 0.159228 0.235064
vt 0.159228 0.305464
vt 0.065464 0.354283
s 0
usemtl Material
f 41/65/41 42/66/41 43/67/41
f 43/67/42 42/66/42 44/68/42
f 44/68/43 42/66/43 45/69/43
f 45/69/44 42/66/44 46/70/44
f 46/71/45 42/66/45 47/72/45
f 47/72/46 42/66/46 41/65/46
f 43/73/47 45/74/47 47/75/47
f 47/75/47 41/76/47 43/73/47
f 43/73/47 44/77/47 45/74/47
f 45/74/47 46/78/47 47/75/47
usemtl Material.001
f 48/79/48 65/80/48 64/81/48
f 49/82/49 66/83/49 65/80/49
f 50/84/50 67/85/50 66/83/50
f 51/86/51 68/87/51 67/85/51
f 52/88/52 69/89/52 68/87/52
f 53/90/53 70/91/53 69/89/53
f 50/92/54 56/93/54 58/94/54
f 54/95/55 71/96/55 70/97/55
f 55/98/56 64/81/56 71/96/56
f 62/99/57 60/100/57 57/101/57
f 52/102/58 61/103/58 53/104/58
f 48/105/59 63/106/59 57/101/59
f 49/107/60 57/101/60 56/93/60
f 51/108/61 58/94/61 59/109/61
f 54/110/62 61/103/62 62/99/62
f 52/102/63 59/109/63 60/100/63
f 54/110/64 63/106/64 55/111/64
f 48/79/48 49/82/48 65/80/48
f 49/82/49 50/84/49 66/83/49
f 50/84/50 51/86/50 67/85/50
f 51/86/51 52/88/51 68/87/51
f 52/88/52 53/90/52 69/89/52
f 53/90/53 54/112/53 70/91/53
f 50/92/65 49/107/65 56/93/65
f 54/95/55 55/98/55 71/96/55
f 55/98/56 48/79/56 64/81/56
f 58/94/57 56/93/57 57/101/57
f 57/101/57 63/106/57 62/99/57
f 62/99/57 61/103/57 60/100/57
f 60/100/57 59/109/57 58/94/57
f 58/94/57 57/101/57 60/100/57
f 52/102/66 60/100/66 61/103/66
f 48/105/67 55/111/67 63/106/67
f 49/107/68 48/105/68 57/101/68
f 51/108/69 50/92/69 58/94/69
f 54/110/70 53/104/70 61/103/70
f 52/102/71 51/108/71 59/109/71
f 54/110/72 62/99/72 63/106/72
f 68/87/47 69/89/47 71/96/47
f 67/85/47 68/87/47 71/96/47
f 65/80/47 66/83/47 67/85/47
f 64/81/47 65/80/47 67/85/47
f 71/96/47 64/81/47 67/85/47
f 69/89/47 70/97/47 71/96/47
o engine2
v -0.210753 -0.618993 0.118408
v -0.210753 -0.465906 0.249626
v -0.097114 -0.618993 0.184017
v -0.097114 -0.618993 0.315235
v -0.210753 -0.618993 0.380844
v -0.324391 -0.618993 0.315235
v -0.324391 -0.618993 0.184017
v -0.210803 0.023279 0.143085
v -0.134983 0.023279 0.174491
v -0.103577 0.023279 0.250312
v -0.134983 0.023279 0.326132
v -0.210803 0.023279 0.357538
v -0.286624 0.023279 0.326132
v -0.318030 0.023279 0.250312
v -0.286624 0.023279 0.174491
v -0.180475 0.094764 0.219984
v -0.210803 0.094764 0.207421
v -0.167913 0.094764 0.250312
v -0.180475 0.094764 0.280640
v -0.210803 0.094764 0.293202
v -0.241131 0.094764 0.280640
v -0.253694 0.094764 0.250312
v -0.241131 0.094764 0.219984
v -0.210803 -0.548594 0.143085
v -0.134983 -0.548594 0.174491
v -0.103577 -0.548594 0.250312
v -0.134983 -0.548594 0.326132
v -0.210803 -0.548594 0.357538
v -0.286624 -0.548594 0.326132
v -0.318030 -0.548594 0.250312
v -0.286624 -0.548594 0.174491
vn 0.4015 0.5960 -0.6954
vn 0.8030 0.5960 -0.0000
vn 0.4015 0.5960 0.6954
vn -0.4015 0.5960 0.6954
vn -0.8030 0.5960 -0.0000
vn -0.4015 0.5960 -0.6954
vn -0.0000 -1.0000 -0.0000
vn 0.3827 -0.0000 -0.9239
vn 0.9239 -0.0000 -0.3827
vn 0.9239 -0.0000 0.3827
vn 0.3827 -0.0000 0.9239
vn -0.3827 -0.0000 0.9239
vn -0.9239 -0.0000 0.3827
vn 0.7104 0.6393 -0.2943
vn -0.9239 -0.0000 -0.3827
vn -0.3827 -0.0000 -0.9239
vn -0.0000 1.0000 -0.0000
vn -0.2943 0.6394 0.7104
vn -0.2943 0.6393 -0.7104
vn 0.2943 0.6394 -0.7104
vn 0.7104 0.6394 0.2943
vn -0.7104 0.6393 0.2943
vn 0.2943 0.6393 0.7104
vn -0.7104 0.6394 -0.2943
vn 0.7104 0.6394 -0.2943
vn -0.2943 0.6393 0.7104
vn -0.2943 0.6394 -0.7104
vn 0.2943 0.6393 -0.7104
vn 0.7104 0.6393 0.2943
vn -0.7104 0.6394 0.2943
vn 0.2943 0.6394 0.7104
vn -0.7104 0.6393 -0.2943
vt 0.684204 0.543566
vt 0.596109 0.596483
vt 0.631362 0.502525
vt 0.566794 0.502525
vt 0.513952 0.543566
vt 0.496287 0.608209
vt 0.672478 0.666914
vt 0.701868 0.608209
vt 0.132800 0.945300
vt 0.000000 0.867200
vt 0.132800 0.805702
vt 0.179700 0.867200
vt 0.046900 0.945300
vt 0.046900 0.805702
vt 0.205470 0.354283
vt 0.182670 0.191436
vt 0.205470 0.191436
vt 0.182670 0.354283
vt 0.159912 0.191436
vt 0.159912 0.354283
vt 0.137113 0.191436
vt 0.137113 0.354283
vt 0.114314 0.191436
vt 0.114314 0.354283
vt 0.088263 0.191436
vt 0.088263 0.354283
vt 0.065464 0.191436
vt 0.323228 0.305464
vt 0.245128 0.289764
vt 0.260728 0.281963
vt 0.254320 0.354283
vt 0.231520 0.191436
vt 0.254320 0.191436
vt 0.231520 0.354283
vt 0.221728 0.258563
vt 0.252928 0.242864
vt 0.229528 0.289764
vt 0.276428 0.188264
vt 0.237328 0.242864
vt 0.206028 0.188264
vt 0.206028 0.352264
vt 0.213828 0.274164
vt 0.276428 0.352264
vt 0.323228 0.235064
vt 0.268528 0.258563
vt 0.159228 0.235064
vt 0.159228 0.305464
vt 0.065464 0.354283
s 0
usemtl Material.003
f 72/113/73 73/114/73 74/115/73
f 74/115/74 73/114/74 75/116/74
f 75/116/75 73/114/75 76/117/75
f 76/117/76 73/114/76 77/118/76
f 77/119/77 73/114/77 78/120/77
f 78/120/78 73/114/78 72/113/78
f 74/121/79 76/122/79 78/123/79
f 78/123/79 72/124/79 74/121/79
f 74/121/79 75/125/79 76/122/79
f 76/122/79 77/126/79 78/123/79
usemtl Material.004
f 79/127/80 96/128/80 95/129/80
f 80/130/81 97/131/81 96/128/81
f 81/132/82 98/133/82 97/131/82
f 82/134/83 99/135/83 98/133/83
f 83/136/84 100/137/84 99/135/84
f 84/138/85 101/139/85 100/137/85
f 81/140/86 87/141/86 89/142/86
f 85/143/87 102/144/87 101/145/87
f 86/146/88 95/129/88 102/144/88
f 93/147/89 91/148/89 88/149/89
f 83/150/90 92/151/90 84/152/90
f 79/153/91 94/154/91 88/149/91
f 80/155/92 88/149/92 87/141/92
f 82/156/93 89/142/93 90/157/93
f 85/158/94 92/151/94 93/147/94
f 83/150/95 90/157/95 91/148/95
f 85/158/96 94/154/96 86/159/96
f 79/127/80 80/130/80 96/128/80
f 80/130/81 81/132/81 97/131/81
f 81/132/82 82/134/82 98/133/82
f 82/134/83 83/136/83 99/135/83
f 83/136/84 84/138/84 100/137/84
f 84/138/85 85/160/85 101/139/85
f 81/140/97 80/155/97 87/141/97
f 85/143/87 86/146/87 102/144/87
f 86/146/88 79/127/88 95/129/88
f 89/142/89 87/141/89 88/149/89
f 88/149/89 94/154/89 93/147/89
f 93/147/89 92/151/89 91/148/89
f 91/148/89 90/157/89 89/142/89
f 89/142/89 88/149/89 91/148/89
f 83/150/98 91/148/98 92/151/98
f 79/153/99 86/159/99 94/154/99
f 80/155/100 79/153/100 88/149/100
f 82/156/101 81/140/101 89/142/101
f 85/158/102 84/152/102 92/151/102
f 83/150/103 82/156/103 90/157/103
f 85/158/104 93/147/104 94/154/104
f 99/135/79 100/137/79 102/144/79
f 98/133/79 99/135/79 102/144/79
f 96/128/79 97/131/79 98/133/79
f 95/129/79 96/128/79 98/133/79
f 102/144/79 95/129/79 98/133/79
f 100/137/79 101/145/79 102/144/79
o connections
v 0.172932 -0.021667 0.164047
v 0.172932 -0.021667 0.203062
v 0.172932 -0.171667 0.203062
v 0.172932 -0.171667 0.164047
v -0.172932 -0.021667 0.164047
v -0.172932 -0.021667 0.203062
v -0.172932 -0.171667 0.203062
v -0.172932 -0.171667 0.164047
v 0.172932 -0.310255 0.164047
v 0.172932 -0.310255 0.203062
v 0.172932 -0.460255 0.203062
v 0.172932 -0.460255 0.164047
v -0.172933 -0.310255 0.164047
v -0.172933 -0.310255 0.203062
v -0.172933 -0.460255 0.203062
v -0.172933 -0.460255 0.164047
vn -0.0000 1.0000 -0.0000
vn -0.0000 -0.0000 1.0000
vn -0.0000 -1.0000 -0.0000
vn -0.0000 -0.0000 -1.0000
vn 1.0000 -0.0000 -0.0000
vn -1.0000 -0.0000 -0.0000
vt 0.617200 0.078100
vt 0.812500 0.039100
vt 0.812500 0.078100
vt 0.617200 0.265600
vt 0.812500 0.195300
vt 0.812500 0.265600
vt 0.617200 0.195300
vt 0.812500 0.156200
vt 0.617200 0.156200
vt 0.617200 0.039100
s 0
usemtl Material
f 107/161/105 104/162/105 103/163/105
f 108/164/106 105/165/106 104/166/106
f 109/167/107 106/168/107 105/165/107
f 103/163/108 110/169/108 107/161/108
f 115/161/105 112/162/105 111/163/105
f 112/166/106 117/167/106 113/165/106
f 117/167/107 114/168/107 113/165/107
f 111/163/108 118/169/108 115/161/108
f 107/161/105 108/170/105 104/162/105
f 108/164/106 109/167/106 105/165/106
f 109/167/107 110/169/107 106/168/107
f 103/163/108 106/168/108 110/169/108
f 115/161/105 116/170/105 112/162/105
f 112/166/106 116/164/106 117/167/106
f 117/167/107 118/169/107 114/168/107
f 111/163/108 114/168/108 118/169/108
f 104/166/109 106/168/109 103/163/109
f 112/166/109 114/168/109 111/163/109
f 117/167/110 115/161/110 118/169/110
f 109/167/110 107/161/110 110/169/110
f 104/166/109 105/165/109 106/168/109
f 112/166/109 113/165/109 114/168/109
f 117/167/110 116/164/110 115/161/110
f 109/167/110 108/164/110 107/161/110
