# Blender 4.2.3 LTS
# www.blender.org
mtllib rod_new.mtl
o Cube
v 0.091486 0.091486 -0.499583
v 0.091486 -0.091486 -0.499583
v 0.091486 0.091486 0.499583
v 0.091486 -0.091486 0.499583
v -0.091486 0.091486 -0.499583
v -0.091486 -0.091486 -0.499583
v -0.091486 0.091486 0.499583
v -0.091486 -0.091486 0.499583
v -0.054981 0.054981 -0.234780
v 0.054981 0.054981 -0.234780
v -0.054981 -0.054981 -0.234780
v 0.054981 -0.054981 -0.234780
v -0.054981 -0.054981 0.234780
v 0.054981 -0.054981 0.234780
v -0.054981 0.054981 0.234780
v 0.054981 0.054981 0.234780
v -0.045743 -0.091486 -0.390664
v -0.045743 -0.091486 0.390664
v -0.045743 0.091486 -0.390664
v -0.045743 0.091486 0.390664
v 0.045743 -0.091486 -0.390664
v -0.091486 0.045743 -0.390664
v -0.091486 0.045743 0.390664
v 0.045743 -0.091486 0.390664
v 0.045743 0.091486 -0.390664
v 0.045743 0.091486 0.390664
v -0.091486 -0.045743 -0.390664
v -0.091486 -0.045743 0.390664
v 0.091486 0.045743 -0.390664
v 0.091486 0.045743 0.390664
v 0.091486 -0.045743 -0.390664
v 0.091486 -0.045743 0.390664
vn -0.0000 -0.0000 1.0000
vn 0.4318 -0.8836 -0.1813
vn -0.0000 1.0000 -0.0000
vn 1.0000 -0.0000 -0.0000
vn -0.9694 0.2453 -0.0000
vn -0.2453 0.9694 -0.0000
vn 0.8836 -0.4318 0.1813
vn -1.0000 -0.0000 -0.0000
vn 0.4318 0.8836 -0.1813
vn -0.4318 -0.8836 -0.1813
vn -0.4318 -0.8836 0.1813
vn 0.8836 0.4318 0.1813
vn -0.0000 -0.0000 -1.0000
vn 0.9694 -0.2453 -0.0000
vn 0.2453 -0.9694 -0.0000
vn -0.0000 -1.0000 -0.0000
vn -0.8836 -0.4318 0.1813
vn -0.8836 -0.4318 -0.1813
vn -0.4318 0.8836 -0.1813
vn -0.8836 0.4318 0.1813
vn 0.9694 0.2453 -0.0000
vn -0.4318 0.8836 0.1813
vn -0.8836 0.4318 -0.1813
vn 0.8836 0.4318 -0.1813
vn -0.9694 -0.2453 -0.0000
vn 0.2453 0.9694 -0.0000
vn 0.4318 0.8836 0.1813
vn 0.4318 -0.8836 0.1813
vn 0.8836 -0.4318 -0.1813
vn -0.2453 -0.9694 -0.0000
vt 1.000000 1.000000
vt 0.000000 0.000000
vt 1.000000 0.000000
vt 0.070450 0.979412
vt 0.500786 0.738952
vt 0.070450 0.738952
vt 0.493839 0.266230
vt 0.926631 0.026542
vt 0.942336 0.634921
vt 0.278198 0.476191
vt 0.056818 0.634921
vt 0.493839 0.745606
vt 0.926631 0.266230
vt 0.926631 0.745606
vt 0.942336 0.476191
vt 0.720956 0.158730
vt 0.942336 0.158730
vt 0.056818 0.476191
vt 0.926631 0.985294
vt 0.000000 1.000000
vt 0.070450 0.017573
vt 0.500786 0.258033
vt 0.070450 0.258033
vt 0.720956 0.476191
vt 0.278198 0.158730
vt 0.056818 0.158730
vt 0.942336 0.000000
vt 0.056818 0.000000
s 0
usemtl Material
f 4/1/1 7/2/1 8/3/1
f 4/4/2 24/5/2 14/6/2
f 25/7/3 5/8/3 19/7/3
f 1/9/4 31/10/4 2/11/4
f 20/12/5 9/13/5 15/14/5
f 25/7/3 1/8/3 5/8/3
f 9/15/6 23/16/6 15/17/6
f 2/11/7 31/10/7 12/18/7
f 27/10/8 5/9/8 6/11/8
f 26/12/9 3/19/9 16/14/9
f 4/1/1 3/20/1 7/2/1
f 18/5/10 8/4/10 13/6/10
f 6/21/11 17/22/11 11/23/11
f 29/24/12 1/9/12 10/15/12
f 5/20/13 2/3/13 6/1/13
f 14/6/14 21/22/14 12/23/14
f 1/9/4 29/24/4 31/10/4
f 26/12/3 19/7/3 20/12/3
f 12/18/15 32/25/15 14/26/15
f 18/5/16 4/4/16 8/4/16
f 32/25/4 3/27/4 4/28/4
f 27/10/17 6/11/17 11/18/17
f 21/22/16 6/21/16 2/21/16
f 3/19/3 20/12/3 7/19/3
f 8/28/18 28/25/18 13/26/18
f 20/12/19 15/14/19 7/19/19
f 22/24/20 9/15/20 5/9/20
f 10/13/21 26/12/21 16/14/21
f 5/8/22 9/13/22 19/7/22
f 23/16/8 27/10/8 28/25/8
f 7/27/23 15/17/23 23/16/23
f 7/27/8 28/25/8 8/28/8
f 30/16/24 16/17/24 3/27/24
f 11/23/25 18/5/25 13/6/25
f 30/16/26 10/15/26 16/17/26
f 25/7/27 10/13/27 1/8/27
f 30/16/4 31/10/4 29/24/4
f 2/21/28 12/23/28 21/22/28
f 4/28/29 14/26/29 32/25/29
f 13/26/30 27/10/30 11/18/30
f 24/5/16 17/22/16 21/22/16
f 27/10/8 22/24/8 5/9/8
f 5/20/13 1/2/13 2/3/13
f 18/5/16 24/5/16 4/4/16
f 32/25/4 30/16/4 3/27/4
f 21/22/16 17/22/16 6/21/16
f 3/19/3 26/12/3 20/12/3
f 7/27/8 23/16/8 28/25/8
f 20/12/5 19/7/5 9/13/5
f 9/15/6 22/24/6 23/16/6
f 14/6/14 24/5/14 21/22/14
f 26/12/3 25/7/3 19/7/3
f 12/18/15 31/10/15 32/25/15
f 10/13/21 25/7/21 26/12/21
f 23/16/8 22/24/8 27/10/8
f 11/23/25 17/22/25 18/5/25
f 30/16/26 29/24/26 10/15/26
f 30/16/4 32/25/4 31/10/4
f 13/26/30 28/25/30 27/10/30
f 24/5/16 18/5/16 17/22/16
