# Blender 4.2.3 LTS
# www.blender.org
mtllib drill.mtl
o casing
v 0.875000 0.500000 0.125000
v 1.000000 0.000000 0.000000
v 0.875000 0.500000 0.875000
v 1.000000 0.000000 1.000000
v 0.125000 0.500000 0.125000
v 0.000000 0.000000 0.000000
v 0.125000 0.500000 0.875000
v 0.000000 0.000000 1.000000
v 1.000000 0.500000 1.000000
v 0.000000 0.500000 1.000000
v 1.000000 0.500000 0.000000
v 0.000000 0.500000 0.000000
v 0.875000 0.437500 0.875000
v 0.125000 0.437500 0.875000
v 0.875000 0.437500 0.125000
v 0.125000 0.437500 0.125000
vn 1.0000 -0.0000 -0.0000
vn -0.0000 -0.0000 1.0000
vn -1.0000 -0.0000 -0.0000
vn -0.0000 -1.0000 -0.0000
vn -0.0000 -0.0000 -1.0000
vn -0.0000 1.0000 -0.0000
vt 0.125369 0.473610
vt 0.125369 0.286110
vt 0.000000 1.000000
vt 0.000000 0.875000
vt 1.000000 0.875000
vt 1.000000 1.000000
vt 0.000000 0.500000
vt 1.000000 0.500000
vt 1.000000 0.750000
vt 0.000000 0.750000
vt 0.875000 0.280000
vt 0.125000 0.280000
vt 0.000000 0.250000
vt 1.000000 0.250000
vt 0.875000 0.470000
vt 0.125000 0.470000
vt 0.875369 0.286110
vt 0.875369 0.473610
vt 0.095357 0.452322
vt 0.095357 0.047678
s 0
usemtl Material
f 5/1/1 7/2/1 14/2/1 16/1/1
f 4/3/2 9/4/2 10/5/2 8/6/2
f 8/3/3 10/4/3 12/5/3 6/6/3
f 6/7/4 2/8/4 4/9/4 8/10/4
f 2/3/1 11/4/1 9/5/1 4/6/1
f 6/3/5 12/4/5 11/5/5 2/6/5
f 3/11/6 7/12/6 10/13/6 9/14/6
f 1/15/6 3/11/6 9/14/6 11/8/6
f 7/12/6 5/16/6 12/7/6 10/13/6
f 5/16/6 1/15/6 11/8/6 12/7/6
f 15/15/6 16/16/6 14/12/6 13/11/6
f 7/2/5 3/17/5 13/17/5 14/2/5
f 1/18/2 5/1/2 16/1/2 15/18/2
f 3/19/3 1/20/3 15/20/3 13/19/3
o head
v 0.500000 0.411609 0.169989
v 0.626290 0.411609 0.195110
v 0.733353 0.411609 0.266647
v 0.804890 0.411609 0.373710
v 0.830011 0.411609 0.500000
v 0.804890 0.411609 0.626290
v 0.733353 0.411609 0.733353
v 0.626290 0.411609 0.804890
v 0.500000 0.411609 0.830011
v 0.373710 0.411609 0.804890
v 0.266647 0.411609 0.733353
v 0.195110 0.411609 0.626290
v 0.169989 0.411609 0.500000
v 0.195110 0.411609 0.373710
v 0.266647 0.411609 0.266647
v 0.373710 0.411609 0.195110
v 0.500000 1.088391 0.500000
vn 0.1760 0.4314 -0.8848
vn 0.5012 0.4314 -0.7501
vn 0.7501 0.4314 -0.5012
vn 0.8848 0.4314 -0.1760
vn 0.8848 0.4314 0.1760
vn 0.7501 0.4314 0.5012
vn 0.5012 0.4314 0.7501
vn 0.1760 0.4314 0.8848
vn -0.1760 0.4314 0.8848
vn -0.5012 0.4314 0.7501
vn -0.7501 0.4314 0.5012
vn -0.8848 0.4314 0.1760
vn -0.8848 0.4314 -0.1760
vn -0.7501 0.4314 -0.5012
vn -0.0000 -1.0000 -0.0000
vn -0.5012 0.4314 -0.7501
vn -0.1760 0.4314 -0.8848
vt 0.500000 0.214014
vt 0.500000 0.125000
vt 0.636257 0.207238
vt 0.751771 0.187943
vt 0.828954 0.159064
vt 0.856057 0.125000
vt 0.828954 0.090936
vt 0.751771 0.062057
vt 0.636257 0.042761
vt 0.500000 0.035986
vt 0.363743 0.042761
vt 0.248229 0.062057
vt 0.171046 0.090936
vt 0.143942 0.125000
vt 0.171046 0.159064
vt 0.248229 0.187943
vt 0.363743 0.207238
s 0
usemtl Material
f 17/21/7 33/22/7 18/23/7
f 18/23/8 33/22/8 19/24/8
f 19/24/9 33/22/9 20/25/9
f 20/25/10 33/22/10 21/26/10
f 21/26/11 33/22/11 22/27/11
f 22/27/12 33/22/12 23/28/12
f 23/28/13 33/22/13 24/29/13
f 24/29/14 33/22/14 25/30/14
f 25/30/15 33/22/15 26/31/15
f 26/31/16 33/22/16 27/32/16
f 27/32/17 33/22/17 28/33/17
f 28/33/18 33/22/18 29/34/18
f 29/34/19 33/22/19 30/35/19
f 30/35/20 33/22/20 31/36/20
f 24/29/21 28/33/21 32/37/21
f 31/36/22 33/22/22 32/37/22
f 32/37/23 33/22/23 17/21/23
f 32/37/21 17/21/21 18/23/21
f 18/23/21 19/24/21 32/37/21
f 19/24/21 20/25/21 32/37/21
f 20/25/21 21/26/21 22/27/21
f 22/27/21 23/28/21 20/25/21
f 23/28/21 24/29/21 20/25/21
f 24/29/21 25/30/21 26/31/21
f 26/31/21 27/32/21 24/29/21
f 27/32/21 28/33/21 24/29/21
f 28/33/21 29/34/21 30/35/21
f 30/35/21 31/36/21 28/33/21
f 31/36/21 32/37/21 28/33/21
f 32/37/21 20/25/21 24/29/21
