# Blender 4.2.3 LTS
# www.blender.org
mtllib pump.mtl
o base
v 0.300194 1.520259 0.306831
v 0.300194 1.520259 0.693169
v 0.300194 1.906597 0.693169
v 0.300194 1.906597 0.306831
v 0.686532 1.520259 0.306831
v 0.686532 1.906597 0.306831
v 0.686532 1.520259 0.693169
v 0.686532 1.906597 0.693169
v 0.300194 1.595018 0.381590
v 0.300194 1.595018 0.618410
v 0.300194 1.831838 0.618410
v 0.300194 1.831838 0.381590
v 0.686532 1.831838 0.381590
v 0.686532 1.595018 0.381590
v 0.686532 1.595018 0.618410
v 0.686532 1.831838 0.618410
v 0.686532 1.831838 0.381590
v 0.686532 1.595018 0.381590
v 0.686532 1.595018 0.618410
v 0.686532 1.831838 0.618410
v 0.603857 1.831838 0.381590
v 0.603857 1.595018 0.381590
v 0.603857 1.595018 0.618410
v 0.603857 1.831838 0.618410
v 0.372517 1.595018 0.381590
v 0.372517 1.595018 0.618410
v 0.372517 1.831838 0.618410
v 0.372517 1.831838 0.381590
v 1.000000 1.000000 0.000000
v 1.000000 0.000000 0.000000
v 1.000000 1.000000 1.000000
v 1.000000 0.000000 1.000000
v 0.000000 1.000000 0.000000
v 0.000000 -0.000000 0.000000
v 0.000000 1.000000 1.000000
v 0.000000 -0.000000 1.000000
v 0.378783 0.964218 0.378783
v 0.378783 0.964218 0.621217
v 0.378783 1.556450 0.621217
v 0.378783 1.556450 0.378783
v 0.621217 0.964218 0.378783
v 0.621217 1.556450 0.378783
v 0.621217 0.964218 0.621217
v 0.621217 1.556450 0.621217
v 0.945376 0.374565 0.625435
v 0.945376 0.625435 0.625435
v 0.945376 0.374565 0.374565
v 0.945376 0.625435 0.374565
v 1.298255 0.374565 0.625435
v 1.298255 0.625435 0.625435
v 1.298255 0.374565 0.374565
v 1.298255 0.625435 0.374565
v 0.788206 0.694704 0.126767
v 0.788206 0.809389 0.126767
v 0.809958 0.694704 0.014164
v 0.809958 0.809389 0.014164
v 1.705142 0.694704 0.309945
v 1.705142 0.809389 0.309945
v 1.758181 0.694704 0.197342
v 1.758181 0.809389 0.197342
v 0.789936 0.694704 0.872669
v 0.815360 0.694704 0.984501
v 0.815360 0.809389 0.984501
v 0.789936 0.809389 0.872669
v 1.700373 0.694704 0.658575
v 1.700373 0.809389 0.658575
v 1.757085 0.694704 0.770407
v 1.757084 0.809389 0.770407
v 1.731315 0.304254 0.774472
v 1.731315 0.189569 0.774472
v 1.674604 0.304254 0.662640
v 1.674604 0.189569 0.662640
v 0.764167 0.304254 0.876734
v 0.789591 0.304254 0.988566
v 0.789591 0.189569 0.988566
v 0.764167 0.189569 0.876734
v 1.679372 0.304254 0.314011
v 1.679373 0.189569 0.314011
v 1.732412 0.304254 0.201407
v 1.732412 0.189569 0.201407
v 0.784189 0.304254 0.018229
v 0.762436 0.304254 0.130833
v 0.762436 0.189569 0.130833
v 0.784189 0.189569 0.018229
v 1.211275 -0.000000 0.250656
v 1.211275 -0.000000 0.749344
v 1.211275 1.000000 0.749344
v 1.211275 1.000000 0.250656
v 1.709963 0.000000 0.250656
v 1.709963 1.000000 0.250656
v 1.709963 0.000000 0.749344
v 1.709963 1.000000 0.749344
vn -0.0000 -1.0000 -0.0000
vn -0.0000 -0.0000 -1.0000
vn -0.0000 1.0000 -0.0000
vn -0.0000 -0.0000 1.0000
vn -1.0000 -0.0000 -0.0000
vn 1.0000 -0.0000 -0.0000
vn -0.0000 -0.0000 -0.0000
vn -0.9818 -0.0000 -0.1897
vn 0.1897 -0.0000 -0.9818
vn -0.1959 -0.0000 0.9806
vn -0.9751 -0.0000 0.2217
vn -0.2289 -0.0000 -0.9734
vn 0.2217 -0.0000 0.9751
vn -0.9999 -0.0000 -0.0137
vn 1.0000 -0.0000 0.0019
vt 0.451623 0.548377
vt 0.451623 0.701623
vt 0.250000 0.500000
vt 0.500000 0.500000
vt 0.500000 0.750000
vt 0.250000 0.750000
vt 0.298377 0.548377
vt 0.298377 0.701623
vt 0.500000 1.000000
vt 0.250000 1.000000
vt 0.749999 1.000000
vt 0.749999 0.750000
vt 0.999999 0.750000
vt 0.999999 1.000000
vt 0.500000 1.000000
vt 0.500000 0.750000
vt 0.750000 0.750000
vt 0.750000 1.000000
vt 0.000000 0.750000
vt 0.000000 1.000000
vt 0.750000 0.750000
vt 0.750000 0.500000
vt 0.875000 0.500000
vt 0.875000 0.750000
vt 0.812500 0.812500
vt 0.937500 0.812500
vt 0.937500 0.937500
vt 0.812500 0.937500
vt 0.500000 0.500000
vt 0.750000 0.500000
vt 0.750000 0.750000
vt 0.016537 0.390082
vt 0.139969 0.390082
vt 0.139969 0.452775
vt 0.016537 0.452775
vt 0.016537 0.452775
vt 0.016537 0.390082
vt 0.367543 0.367543
vt 0.632457 0.367543
vt 0.632457 0.632457
vt 0.367543 0.632457
vt 0.506452 0.826422
vt 0.506452 0.799249
vt 0.771366 0.799249
vt 0.771366 0.826422
vt 0.506300 0.797599
vt 0.786264 0.797599
vt 0.786264 0.827817
vt 0.506300 0.827817
s 0
usemtl Material
f 11/1/1 12/2/1 28/2/1 27/1/1
f 1/3/2 4/4/2 6/5/2 5/6/2
f 13/1/3 16/2/3 20/2/3 17/1/3
f 7/3/4 8/4/4 3/5/4 2/6/4
f 1/3/1 5/4/1 7/5/1 2/6/1
f 6/3/3 4/4/3 3/5/3 8/6/3
f 10/7/5 9/8/5 1/6/5 2/3/5
f 11/1/5 10/7/5 2/3/5 3/4/5
f 12/2/5 11/1/5 3/4/5 4/5/5
f 9/8/5 12/2/5 4/5/5 1/6/5
f 13/1/6 14/7/6 5/3/6 6/4/6
f 14/7/6 15/8/6 7/6/6 5/3/6
f 16/2/6 13/1/6 6/4/6 8/5/6
f 15/8/6 16/2/6 8/5/6 7/6/6
f 20/2/2 19/8/2 23/8/2 24/2/2
f 14/7/7 13/1/7 17/1/7 18/7/7
f 16/2/7 15/8/7 19/8/7 20/2/7
f 15/8/3 14/7/3 18/7/3 19/8/3
f 22/7/6 21/1/6 24/2/6 23/8/6
f 19/8/3 18/7/3 22/7/3 23/8/3
f 17/1/1 20/2/1 24/2/1 21/1/1
f 18/7/4 17/1/4 21/1/4 22/7/4
f 26/7/5 27/1/5 28/2/5 25/8/5
f 9/8/3 10/7/3 26/7/3 25/8/3
f 12/2/4 9/8/4 25/8/4 28/2/4
f 10/7/2 11/1/2 27/1/2 26/7/2
f 29/6/3 33/5/3 35/9/3 31/10/3
f 32/11/4 31/12/4 35/13/4 36/14/4
f 36/15/5 35/16/5 33/17/5 34/18/5
f 34/19/1 30/6/1 32/10/1 36/20/1
f 30/11/6 29/12/6 31/13/6 32/14/6
f 34/11/2 33/12/2 29/13/2 30/14/2
f 38/21/5 39/22/5 40/23/5 37/24/5
f 37/21/2 40/22/2 42/23/2 41/24/2
f 41/21/6 42/22/6 44/23/6 43/24/6
f 43/21/4 44/22/4 39/23/4 38/24/4
f 37/25/1 41/26/1 43/27/1 38/28/1
f 42/29/3 40/30/3 39/31/3 44/5/3
f 45/32/5 46/33/5 48/34/5 47/35/5
f 47/32/2 48/33/2 52/34/2 51/35/2
f 51/32/6 52/33/6 50/34/6 49/35/6
f 49/32/4 50/33/4 46/34/4 45/35/4
f 47/36/1 51/37/1 49/33/1 45/34/1
f 52/36/3 48/37/3 46/33/3 50/34/3
f 53/38/8 54/39/8 56/40/8 55/41/8
f 55/42/9 56/43/9 60/44/9 59/45/9
f 57/42/10 58/43/10 54/44/10 53/45/10
f 55/46/1 59/47/1 57/48/1 53/49/1
f 60/46/3 56/47/3 54/48/3 58/49/3
f 62/38/11 63/39/11 64/40/11 61/41/11
f 61/42/12 64/43/12 66/44/12 65/45/12
f 57/42/1 59/47/1 67/48/1 65/45/1
f 67/42/13 68/43/13 63/44/13 62/45/13
f 61/46/1 65/47/1 67/48/1 62/49/1
f 66/46/3 64/47/3 63/48/3 68/49/3
f 60/46/3 58/43/3 66/46/3 68/49/3
f 57/42/14 65/45/14 66/44/14 58/43/14
f 59/47/15 60/46/15 68/43/15 67/48/15
f 78/42/14 72/45/14 71/44/14 77/43/14
f 79/46/3 77/43/3 71/46/3 69/49/3
f 71/46/3 73/47/3 74/48/3 69/49/3
f 80/47/15 79/46/15 69/43/15 70/48/15
f 76/46/1 72/47/1 70/48/1 75/49/1
f 84/46/1 80/47/1 78/48/1 83/49/1
f 78/42/10 77/43/10 82/44/10 83/45/10
f 78/42/1 80/47/1 70/48/1 72/45/1
f 84/42/9 81/43/9 79/44/9 80/45/9
f 79/46/3 81/47/3 82/48/3 77/49/3
f 83/38/8 82/39/8 81/40/8 84/41/8
f 76/42/12 73/43/12 71/44/12 72/45/12
f 75/38/11 74/39/11 73/40/11 76/41/11
f 70/42/13 69/43/13 74/44/13 75/45/13
f 86/21/5 87/22/5 88/23/5 85/24/5
f 85/21/2 88/22/2 90/23/2 89/24/2
f 89/21/6 90/22/6 92/23/6 91/24/6
f 91/21/4 92/22/4 87/23/4 86/24/4
f 85/25/1 89/26/1 91/27/1 86/28/1
f 90/29/3 88/30/3 87/31/3 92/5/3
