# Blender 4.2.3 LTS
# www.blender.org
mtllib pump_ext.mtl
o part1
v 0.211276 0.000000 0.250656
v 0.211276 0.000000 0.749344
v 0.211276 1.000000 0.749344
v 0.211276 1.000000 0.250656
v 0.709964 0.000000 0.250656
v 0.709964 1.000000 0.250656
v 0.709964 0.000000 0.749344
v 0.709964 1.000000 0.749344
vn -1.0000 -0.0000 -0.0000
vn -0.0000 -0.0000 -1.0000
vn 1.0000 -0.0000 -0.0000
vn -0.0000 -0.0000 1.0000
vn -0.0000 -1.0000 -0.0000
vn -0.0000 1.0000 -0.0000
vt 0.750000 0.500000
vt 0.875000 0.750000
vt 0.750000 0.750000
vt 0.937500 0.812500
vt 0.812500 0.937500
vt 0.812500 0.812500
vt 0.500000 0.750000
vt 0.500000 0.500000
vt 0.875000 0.500000
vt 0.937500 0.937500
s 0
usemtl Material.001
f 3/1/1 1/2/1 2/3/1
f 4/1/2 5/2/2 1/3/2
f 6/1/3 7/2/3 5/3/3
f 8/1/4 2/2/4 7/3/4
f 5/4/5 2/5/5 1/6/5
f 4/1/6 8/7/6 6/8/6
f 3/1/1 4/9/1 1/2/1
f 4/1/2 6/9/2 5/2/2
f 6/1/3 8/9/3 7/2/3
f 8/1/4 3/9/4 2/2/4
f 5/4/5 7/10/5 2/5/5
f 4/1/6 3/3/6 8/7/6
